<svg width="64" height="64" viewBox="0 0 64 64" fill="none" xmlns="http://www.w3.org/2000/svg">
<path d="M14.5021 45.4942C13.7487 45.4942 13.1252 44.9435 13.0183 44.2208C12.5017 41.7589 11.2678 39.5069 9.44746 37.7042C5.15937 33.4727 3.02363 27.5899 3.58955 21.5675C4.48164 12.2013 11.8947 4.65634 21.217 3.62606C27.6286 2.92001 33.8073 5.20223 38.1696 9.90829C38.7326 10.5157 38.697 11.4649 38.0896 12.0274C37.4812 12.5909 36.5334 12.5558 35.9694 11.9474C32.2609 7.94735 27.0021 5.99715 21.5476 6.60848C13.6296 7.4825 7.33417 13.8936 6.57636 21.8507C6.09491 26.9708 7.91034 31.9727 11.5563 35.5714C13.8185 37.8106 15.3444 40.6173 15.9719 43.6886C15.9919 43.7872 16.0021 43.8878 16.0021 43.9884C16.0021 44.8165 15.3308 45.4942 14.5021 45.4942Z" fill="#F25849"/>
<path d="M32.5016 45.4991C32.403 45.4991 32.3029 45.4893 32.2023 45.4688C31.3903 45.3048 30.8654 44.5128 31.0299 43.7013C31.6432 40.6759 33.2116 37.8263 35.5666 35.4601C36.5319 34.4884 37.3795 33.3995 38.0846 32.2257C38.5109 31.5147 39.4333 31.2872 40.1427 31.712C40.8527 32.1388 41.0827 33.0606 40.6559 33.7706C39.8268 35.1505 38.8302 36.4308 37.694 37.5753C35.7536 39.5255 34.4665 41.8487 33.9704 44.297C33.8263 45.0079 33.2003 45.4991 32.5016 45.4991Z" fill="#F25849"/>
<path d="M32.4998 53.499H14.5027C12.0212 53.499 10.0027 51.4805 10.0027 48.999V46.999C10.0027 44.5176 12.0212 42.499 14.5027 42.499H32.4998C34.9812 42.499 36.9998 44.5176 36.9998 46.999V48.999C36.9998 51.4805 34.9812 53.499 32.4998 53.499ZM14.5027 45.499C13.6755 45.499 13.0027 46.1719 13.0027 46.999V48.999C13.0027 49.8262 13.6755 50.499 14.5027 50.499H32.4998C33.3269 50.499 33.9998 49.8262 33.9998 48.999V46.999C33.9998 46.1719 33.3269 45.499 32.4998 45.499H14.5027Z" fill="#F25849"/>
<path d="M21.9992 12.5869C21.2511 12.5869 20.6042 12.0283 20.5119 11.2676C20.4123 10.4453 20.9982 9.69727 21.821 9.59766C22.3722 9.53125 22.9377 9.49707 23.5011 9.49707C24.3298 9.49707 25.0011 10.169 25.0011 10.9971C25.0011 11.8252 24.3298 12.4971 23.5011 12.4971C23.0578 12.4971 22.6139 12.5234 22.1813 12.5762C22.1203 12.583 22.0592 12.5869 21.9992 12.5869Z" fill="#F25849"/>
<path d="M11.8357 20.4982C11.656 20.4982 11.4734 20.466 11.2956 20.3976C10.5232 20.0988 10.1384 19.2306 10.4367 18.4582C11.4929 15.7228 13.4333 13.3371 15.9011 11.7384C16.5964 11.2873 17.5246 11.4865 17.9753 12.1818C18.426 12.8771 18.2273 13.8058 17.532 14.256C15.591 15.5128 14.0652 17.3888 13.2356 19.5382C13.0056 20.1339 12.4377 20.4982 11.8357 20.4982Z" fill="#F25849"/>
<path d="M28.2375 60.5001H18.7644C16.7663 60.5001 14.987 59.1583 14.4377 57.2364L13.0598 52.4122C12.8322 51.6153 13.2937 50.7853 14.09 50.5577C14.8855 50.3331 15.717 50.7911 15.9445 51.588L17.3225 56.4122C17.5056 57.0528 18.0983 57.5001 18.7644 57.5001H28.2375C28.9035 57.5001 29.4968 57.0528 29.6794 56.4122L31.0578 51.588C31.2863 50.7901 32.1188 50.3321 32.9123 50.5577C33.7087 50.7853 34.1701 51.6153 33.9426 52.4122L32.5641 57.2364C32.0158 59.1583 30.2365 60.5001 28.2375 60.5001Z" fill="#F25849"/>
<path d="M20.4104 45.4992C20.3357 45.4992 20.26 45.4933 20.1833 45.4816C19.3645 45.3576 18.8015 44.5929 18.9255 43.7746C19.3186 41.1779 19.574 37.9464 19.5271 35.008C15.4363 33.8771 14.2082 31.1115 13.8943 30.1173C13.1955 27.9064 13.7864 25.6037 15.3313 24.5197C16.5622 23.6554 18.1116 23.7619 19.4778 24.8068C20.0061 25.2101 21.8723 27.0041 22.4353 32.463C23.1062 32.5099 23.8962 32.5099 24.5671 32.463C25.1296 27.0041 26.9963 25.2101 27.5246 24.8068C28.8904 23.7619 30.4407 23.6554 31.6711 24.5197C33.216 25.6037 33.8069 27.9064 33.1081 30.1173C32.7942 31.1115 31.5671 33.8771 27.4753 35.008C27.4284 37.9464 27.6838 41.1779 28.0769 43.7746C28.2009 44.5929 27.6379 45.3576 26.8191 45.4816C26.0012 45.6095 25.2351 45.0431 25.1111 44.2248C24.5813 40.7365 24.3855 37.8546 24.4065 35.4767C23.8225 35.504 23.1804 35.504 22.5954 35.4767C22.6169 37.8546 22.4211 40.7365 21.8913 44.2248C21.7785 44.9669 21.1394 45.4992 20.4104 45.4992ZM29.8489 26.9464C29.6853 26.9464 29.4534 27.1086 29.3469 27.1896C28.4573 27.8693 27.9333 29.591 27.6741 31.7834C29.446 31.0236 30.0471 29.8488 30.2478 29.214C30.5852 28.1447 30.2844 27.2111 29.9475 26.9748C29.9197 26.9552 29.886 26.9464 29.8489 26.9464ZM17.1536 26.9464C17.1164 26.9464 17.0828 26.9552 17.0549 26.9748C16.718 27.2111 16.4172 28.1447 16.7546 29.214C16.9553 29.8488 17.5564 31.0236 19.3279 31.7834C19.0686 29.591 18.5452 27.8693 17.6555 27.1896C17.5491 27.1086 17.3171 26.9464 17.1536 26.9464Z" fill="#F25849"/>
<path d="M52 51.375C51.1714 51.375 50.5 50.7031 50.5 49.875C50.5 46.8428 48.0327 44.375 45 44.375C44.1714 44.375 43.5 43.7031 43.5 42.875C43.5 42.0469 44.1714 41.375 45 41.375C48.0327 41.375 50.5 38.9072 50.5 35.875C50.5 35.0469 51.1714 34.375 52 34.375C52.8286 34.375 53.5 35.0469 53.5 35.875C53.5 38.9072 55.9673 41.375 59 41.375C59.8286 41.375 60.5 42.0469 60.5 42.875C60.5 43.7031 59.8286 44.375 59 44.375C55.9673 44.375 53.5 46.8428 53.5 49.875C53.5 50.7031 52.8286 51.375 52 51.375ZM49.8169 42.875C50.6699 43.4639 51.4111 44.2051 52 45.0576C52.5889 44.2051 53.3301 43.4639 54.1831 42.875C53.3301 42.2861 52.5889 41.5449 52 40.6924C51.4111 41.5449 50.6699 42.2861 49.8169 42.875Z" fill="#F25849"/>
<path d="M42.4993 57.499C41.6707 57.499 40.9993 56.8271 40.9993 55.999V49.999C40.9993 49.1709 41.6707 48.499 42.4993 48.499C43.3279 48.499 43.9993 49.1709 43.9993 49.999V55.999C43.9993 56.8271 43.3279 57.499 42.4993 57.499Z" fill="#F25849"/>
<path d="M45.4993 54.499H39.4993C38.6707 54.499 37.9993 53.8271 37.9993 52.999C37.9993 52.1709 38.6707 51.499 39.4993 51.499H45.4993C46.3279 51.499 46.9993 52.1709 46.9993 52.999C46.9993 53.8271 46.3279 54.499 45.4993 54.499Z" fill="#F25849"/>
<path d="M47 21.3779C48.5463 21.3779 49.7998 20.1244 49.7998 18.5781C49.7998 17.0318 48.5463 15.7783 47 15.7783C45.4537 15.7783 44.2002 17.0318 44.2002 18.5781C44.2002 20.1244 45.4537 21.3779 47 21.3779Z" fill="#F25849"/>
<path d="M57.7143 18.5781L60.1787 15.4463C60.5581 14.9639 60.6059 14.2998 60.2988 13.7686L57.8144 9.46583C57.5073 8.9336 56.9052 8.63868 56.3017 8.73145L52.3574 9.29883L50.8769 5.59961C50.6494 5.0293 50.0976 4.65625 49.4843 4.65625H44.5156C43.9023 4.65625 43.3505 5.0293 43.123 5.59961L41.6425 9.29883L37.6982 8.73145C37.0917 8.63965 36.4926 8.93457 36.1855 9.46583L33.7011 13.7686C33.394 14.2998 33.4418 14.9639 33.8212 15.4463L36.2856 18.5781L33.8212 21.71C33.4418 22.1924 33.394 22.8564 33.7011 23.3877L36.1855 27.6904C36.4926 28.2217 37.0903 28.5147 37.6982 28.4248L41.6425 27.8574L43.123 31.5567C43.3505 32.127 43.9023 32.5 44.5156 32.5H49.4843C50.0976 32.5 50.6494 32.127 50.8769 31.5567L52.3574 27.8574L56.3017 28.4248C56.9062 28.5156 57.5078 28.2217 57.8144 27.6904L60.2988 23.3877C60.6059 22.8564 60.5581 22.1924 60.1787 21.71L57.7143 18.5781ZM47 24.3779C43.8017 24.3779 41.2002 21.7764 41.2002 18.5781C41.2002 15.3799 43.8017 12.7783 47 12.7783C50.1982 12.7783 52.7998 15.3799 52.7998 18.5781C52.7998 21.7764 50.1982 24.3779 47 24.3779Z" fill="#F25849"/>
</svg>
