<svg width="193" height="193" viewBox="0 0 193 193" fill="none" xmlns="http://www.w3.org/2000/svg">
<circle cx="96.5" cy="96.5" r="96.5" fill="#F2B706"/>
<g clip-path="url(#clip0_44_668)">
<path d="M130.808 95.586L123.816 98.6936L99.7539 77.8529V67.2759H117.003L113.106 59.138L117.003 51H94.2461V77.8529L70.3967 98.5097L63.1308 95.6328L50 105.646V143H144V105.646L130.808 95.586ZM108.339 61.8853H99.7539V56.3906H108.339L107.024 59.138L108.339 61.8853ZM138.492 108.28V125.474L105.909 112.572L130.051 101.843L138.492 108.28ZM97 82.6661L118.323 101.135L98.8646 109.782L76.1001 100.768L97 82.6661ZM64.01 101.796L127.097 126.777H55.5078V108.28L64.01 101.796ZM55.5078 137.609V132.167H138.492V137.609H55.5078Z" fill="#172840"/>
</g>
<defs>
<clipPath id="clip0_44_668">
<rect width="94" height="92" fill="white" transform="translate(50 51)"/>
</clipPath>
</defs>
</svg>
