<svg width="64" height="64" viewBox="0 0 64 64" fill="none" xmlns="http://www.w3.org/2000/svg">
<path d="M25.4111 27.7901C24.9042 27.7901 24.4101 27.5332 24.1279 27.0684C23.6982 26.3604 23.9238 25.4375 24.6318 25.0078L34.6816 18.9077C35.3876 18.4776 36.3124 18.7027 36.7421 19.4117C37.1718 20.1197 36.9462 21.0425 36.2382 21.4722L26.1884 27.5723C25.9453 27.7198 25.6767 27.7901 25.4111 27.7901Z" fill="#F25849"/>
<path d="M45.0518 30.5C44.2745 30.5 43.6173 29.9004 43.5577 29.1128L43.254 25.083C43.1925 24.2568 43.8116 23.5366 44.6378 23.4746C45.4561 23.4136 46.1837 24.0317 46.2462 24.8574L46.5499 28.8872C46.6114 29.7134 45.9923 30.4336 45.1661 30.4956C45.128 30.4985 45.0899 30.5 45.0518 30.5Z" fill="#F25849"/>
<path d="M34.7295 42.3204C34.5156 42.3204 34.2979 42.274 34.0918 42.1768L25.3213 38.0469C24.5713 37.6944 24.25 36.8004 24.6025 36.0508C24.9561 35.3013 25.8496 34.98 26.5986 35.3331L35.3691 39.463C36.1191 39.8155 36.4404 40.7095 36.0879 41.459C35.832 42.002 35.292 42.3204 34.7295 42.3204Z" fill="#F25849"/>
<path d="M16 44.5C9.10742 44.5 3.5 38.8926 3.5 32C3.5 25.1074 9.10742 19.5 16 19.5C22.8926 19.5 28.5 25.1074 28.5 32C28.5 38.8926 22.8926 44.5 16 44.5ZM16 22.5C10.7617 22.5 6.5 26.7617 6.5 32C6.5 37.2383 10.7617 41.5 16 41.5C21.2383 41.5 25.5 37.2383 25.5 32C25.5 26.7617 21.2383 22.5 16 22.5Z" fill="#F25849"/>
<path d="M7.71778 40.7378C7.47071 40.7378 7.22169 40.6767 6.99122 40.5488C6.26661 40.147 6.00489 39.2339 6.40724 38.5093C8.33789 35.0308 12.0156 32.8696 16.0049 32.8696C19.9815 32.8696 23.6582 35.0254 25.5996 38.4961C26.0039 39.2192 25.7451 40.1333 25.0225 40.5376C24.3018 40.9419 23.3867 40.6841 22.9805 39.9609C21.5694 37.4375 18.8965 35.8696 16.0049 35.8696C13.1045 35.8696 10.4326 37.439 9.03029 39.9653C8.75588 40.459 8.24512 40.7378 7.71778 40.7378Z" fill="#F25849"/>
<path d="M16 35.8691C12.793 35.8691 10.1846 33.2603 10.1846 30.0532C10.1846 26.8467 12.793 24.2378 16 24.2378C19.207 24.2378 21.8154 26.8467 21.8154 30.0532C21.8154 33.2603 19.207 35.8691 16 35.8691ZM16 27.2378C14.4473 27.2378 13.1846 28.501 13.1846 30.0532C13.1846 31.606 14.4473 32.8691 16 32.8691C17.5527 32.8691 18.8154 31.606 18.8154 30.0532C18.8154 28.501 17.5527 27.2378 16 27.2378Z" fill="#F25849"/>
<path d="M44 26.5C37.6592 26.5 32.5 21.3413 32.5 15C32.5 8.65869 37.6592 3.5 44 3.5C50.3408 3.5 55.5 8.65869 55.5 15C55.5 21.3413 50.3408 26.5 44 26.5ZM44 6.5C39.3135 6.5 35.5 10.313 35.5 15C35.5 19.687 39.3135 23.5 44 23.5C48.6865 23.5 52.5 19.687 52.5 15C52.5 10.313 48.6865 6.5 44 6.5Z" fill="#F25849"/>
<path d="M36.4707 23.0801C36.2246 23.0801 35.9746 23.019 35.7441 22.8911C35.0195 22.4897 34.7578 21.5767 35.1602 20.852C36.9385 17.646 40.3272 15.6543 44.0039 15.6543C47.668 15.6543 51.0566 17.6411 52.8457 20.8394C53.251 21.562 52.9922 22.4761 52.2695 22.8809C51.5488 23.2856 50.6328 23.0273 50.2285 22.3042C48.9678 20.0527 46.583 18.6543 44.0039 18.6543C41.417 18.6543 39.0332 20.0542 37.7832 22.3071C37.5098 22.8013 36.998 23.0801 36.4707 23.0801Z" fill="#F25849"/>
<path d="M44 18.6538C41.0098 18.6538 38.5771 16.2207 38.5771 13.2305C38.5771 10.2402 41.0098 7.80713 44 7.80713C46.9902 7.80713 49.4229 10.2402 49.4229 13.2305C49.4229 16.2207 46.9902 18.6538 44 18.6538ZM44 10.8071C42.6641 10.8071 41.5771 11.894 41.5771 13.2305C41.5771 14.5669 42.6641 15.6538 44 15.6538C45.3359 15.6538 46.4229 14.5669 46.4229 13.2305C46.4229 11.894 45.3359 10.8071 44 10.8071Z" fill="#F25849"/>
<path d="M41.522 48.4413C40.4296 47.2779 39.7549 45.7179 39.7549 44C39.7549 40.416 42.6709 37.5 46.2549 37.5C49.8389 37.5 52.7549 40.416 52.7549 44C52.7549 45.7164 52.0812 47.2752 50.9905 48.4382C53.911 49.6323 56.2996 51.8967 57.6258 54.7994C59.4216 52.4158 60.5 49.4628 60.5 46.2554C60.5 38.4009 54.1094 32.0107 46.2549 32.0107C38.4004 32.0107 32.0107 38.4009 32.0107 46.2554C32.0107 49.4665 33.0914 52.4228 34.8909 54.8079C36.215 51.9038 38.6022 49.6373 41.522 48.4413Z" fill="#F25849"/>
<path d="M46.2598 50.5C42.037 50.5 38.3785 53.2718 37.1777 57.2234C39.6442 59.2683 42.808 60.5 46.2549 60.5C49.7056 60.5 52.8724 59.2653 55.3403 57.2164C54.1364 53.2685 50.48 50.5 46.2598 50.5Z" fill="#F25849"/>
<path d="M46.2549 47.5C48.1879 47.5 49.7549 45.933 49.7549 44C49.7549 42.067 48.1879 40.5 46.2549 40.5C44.3219 40.5 42.7549 42.067 42.7549 44C42.7549 45.933 44.3219 47.5 46.2549 47.5Z" fill="#F25849"/>
</svg>
