<svg width="64" height="64" viewBox="0 0 64 64" fill="none" xmlns="http://www.w3.org/2000/svg">
<path d="M56 49.5H44.5195C43.6914 49.5 43.0195 48.8286 43.0195 48C43.0195 47.1714 43.6914 46.5 44.5195 46.5H56C56.8272 46.5 57.5 45.8271 57.5 45V11C57.5 10.1729 56.8272 9.5 56 9.5H45.999C45.1709 9.5 44.499 8.82861 44.499 8C44.499 7.17139 45.1709 6.5 45.999 6.5H56C58.4815 6.5 60.5 8.51855 60.5 11V45C60.5 47.4814 58.4815 49.5 56 49.5Z" fill="#F25849"/>
<path d="M19.3799 49.5H8C5.51855 49.5 3.5 47.4814 3.5 45V11C3.5 8.51855 5.51855 6.5 8 6.5H24.8799C25.7085 6.5 26.3799 7.17139 26.3799 8C26.3799 8.82861 25.7085 9.5 24.8799 9.5H8C7.17285 9.5 6.5 10.1729 6.5 11V45C6.5 45.8271 7.17285 46.5 8 46.5H19.3799C20.2085 46.5 20.8799 47.1714 20.8799 48C20.8799 48.8286 20.2085 49.5 19.3799 49.5Z" fill="#F25849"/>
<path d="M29.2153 53.1667H28.7847C27.9561 53.1667 27.2847 52.4953 27.2847 51.6667C27.2847 50.8381 27.9561 50.1667 28.7847 50.1667H29.2153C31.5703 50.1667 33.6816 48.7634 34.5937 46.5915L36.9463 40.9899C37.2666 40.2262 38.1416 39.8635 38.9102 40.1877C39.6738 40.5085 40.0332 41.3874 39.7119 42.151L37.3594 47.7531C35.9785 51.0417 32.7817 53.1667 29.2153 53.1667Z" fill="#F25849"/>
<path d="M45.08 60.5001H27.1601C26.7055 60.5001 26.2753 60.294 25.9907 59.9395C25.706 59.585 25.5971 59.1202 25.6953 58.6763L26.9121 53.17H21.7002C20.5888 53.17 19.5244 52.6959 18.7798 51.8692C18.0341 51.0421 17.6723 49.9327 17.7881 48.8248L18.1933 44.7227L15.4536 44.171C14.9956 44.0787 14.6069 43.7779 14.4018 43.3585C14.1972 42.9385 14.1992 42.4473 14.4082 42.0294L14.5483 41.7491C14.5854 41.6759 14.6279 41.6055 14.6762 41.5391C17.435 37.7374 17.0566 36.4107 16.4834 34.4029C16.1772 33.3292 15.83 32.1124 15.83 30.46C15.83 25.5006 17.9897 20.8096 21.7553 17.5899C22.3842 17.0528 23.3315 17.126 23.8701 17.7554C24.4082 18.3848 24.3344 19.3316 23.7046 19.8702C20.6069 22.5186 18.83 26.3785 18.83 30.46C18.83 31.6925 19.0918 32.6094 19.3686 33.5797C20.0825 36.0831 20.3891 38.0972 18.2041 41.6646L20.1162 42.0494C20.8711 42.2017 21.3881 42.901 21.3125 43.6676L20.7724 49.1275C20.7339 49.4967 20.9038 49.7452 21.0078 49.8609C21.1118 49.9761 21.3403 50.17 21.7002 50.17H28.7797C29.2343 50.17 29.6645 50.376 29.9492 50.7305C30.2338 51.085 30.3427 51.5499 30.2446 51.9937L29.0278 57.5001H43.4716L43.0839 51.9547C42.6894 46.3555 43.5791 40.7955 45.6581 35.8761C46.6181 33.6119 46.955 31.0899 46.6328 28.5816C46.1328 24.7423 43.9863 21.2506 40.7451 19.003C40.0644 18.5308 39.8945 17.5963 40.3671 16.9156C40.8388 16.234 41.7734 16.066 42.454 16.5372C46.3906 19.2667 48.998 23.5167 49.6074 28.1964C49.998 31.2349 49.5878 34.294 48.4208 37.0455C46.5253 41.5304 45.7148 46.6139 46.0761 51.7447L46.5761 58.8956C46.6054 59.3106 46.4609 59.7188 46.1767 60.023C45.8935 60.3272 45.496 60.5001 45.08 60.5001Z" fill="#F25849"/>
<path d="M16 15.5H11C10.1714 15.5 9.5 14.8286 9.5 14C9.5 13.1714 10.1714 12.5 11 12.5H16C16.8286 12.5 17.5 13.1714 17.5 14C17.5 14.8286 16.8286 15.5 16 15.5Z" fill="#F25849"/>
<path d="M13 20.5H11C10.1714 20.5 9.5 19.8286 9.5 19C9.5 18.1714 10.1714 17.5 11 17.5H13C13.8286 17.5 14.5 18.1714 14.5 19C14.5 19.8286 13.8286 20.5 13 20.5Z" fill="#F25849"/>
<path d="M53 15.5H48C47.1719 15.5 46.5 14.8286 46.5 14C46.5 13.1714 47.1719 12.5 48 12.5H53C53.8281 12.5 54.5 13.1714 54.5 14C54.5 14.8286 53.8281 15.5 53 15.5Z" fill="#F25849"/>
<path d="M53 20.5H51C50.1719 20.5 49.5 19.8286 49.5 19C49.5 18.1714 50.1719 17.5 51 17.5H53C53.8281 17.5 54.5 18.1714 54.5 19C54.5 19.8286 53.8281 20.5 53 20.5Z" fill="#F25849"/>
<path d="M26.4226 25.4978H30.5V20.2846C28.195 19.6295 26.5 17.51 26.5 14.9978C26.5 14.1692 27.1714 13.4978 28 13.4978C28.8286 13.4978 29.5 14.1692 29.5 14.9978C29.5 16.3763 30.6215 17.4978 32 17.4978C33.3789 17.4978 34.5 16.3763 34.5 14.9978C34.5 14.1692 35.1718 13.4978 36 13.4978C36.8281 13.4978 37.5 14.1692 37.5 14.9978C37.5 17.51 35.8047 19.6294 33.5 20.2846V25.4978H37.5717C37.6678 25.1745 37.8592 24.8941 38.1289 24.7244C41.4922 22.6023 43.5 18.9666 43.5 14.9978C43.5 11.7322 42.1035 8.60867 39.6699 6.42849C37.2373 4.25027 33.9677 3.20974 30.6948 3.57009C25.5561 4.13845 21.3154 8.2615 20.6123 13.3738C19.9843 17.9329 21.9995 22.282 25.8715 24.7249C26.1363 24.8916 26.3248 25.1718 26.4226 25.4978Z" fill="#F25849"/>
<path d="M26.5 28.4978V28.9978C26.5 31.4793 28.5185 33.4978 31 33.4978H33C35.4815 33.4978 37.5 31.4793 37.5 28.9978V28.4978H26.5Z" fill="#F25849"/>
</svg>
