<svg width="64" height="64" viewBox="0 0 64 64" fill="none" xmlns="http://www.w3.org/2000/svg">
<path d="M16 54.5C12.416 54.5 9.5 51.584 9.5 48C9.5 44.416 12.416 41.5 16 41.5C19.584 41.5 22.5 44.416 22.5 48C22.5 51.584 19.584 54.5 16 54.5ZM16 44.5C14.0703 44.5 12.5 46.0703 12.5 48C12.5 49.9297 14.0703 51.5 16 51.5C17.9297 51.5 19.5 49.9297 19.5 48C19.5 46.0703 17.9297 44.5 16 44.5Z" fill="#F25849"/>
<path d="M32 54.5C28.416 54.5 25.5 51.584 25.5 48C25.5 44.416 28.416 41.5 32 41.5C35.584 41.5 38.5 44.416 38.5 48C38.5 51.584 35.584 54.5 32 54.5ZM32 44.5C30.0703 44.5 28.5 46.0703 28.5 48C28.5 49.9297 30.0703 51.5 32 51.5C33.9297 51.5 35.5 49.9297 35.5 48C35.5 46.0703 33.9297 44.5 32 44.5Z" fill="#F25849"/>
<path d="M48 54.5C44.416 54.5 41.5 51.584 41.5 48C41.5 44.416 44.416 41.5 48 41.5C51.584 41.5 54.5 44.416 54.5 48C54.5 51.584 51.584 54.5 48 54.5ZM48 44.5C46.0703 44.5 44.5 46.0703 44.5 48C44.5 49.9297 46.0703 51.5 48 51.5C49.9297 51.5 51.5 49.9297 51.5 48C51.5 46.0703 49.9297 44.5 48 44.5Z" fill="#F25849"/>
<path d="M48 44.5C47.1719 44.5 46.5 43.8286 46.5 43V37.5H17.5V43C17.5 43.8286 16.8281 44.5 16 44.5C15.1719 44.5 14.5 43.8286 14.5 43V36C14.5 35.1714 15.1719 34.5 16 34.5H48C48.8281 34.5 49.5 35.1714 49.5 36V43C49.5 43.8286 48.8281 44.5 48 44.5Z" fill="#F25849"/>
<path d="M32 44.5C31.1719 44.5 30.5 43.8286 30.5 43V30C30.5 29.1714 31.1719 28.5 32 28.5C32.8281 28.5 33.5 29.1714 33.5 30V43C33.5 43.8286 32.8281 44.5 32 44.5Z" fill="#F25849"/>
<path d="M56 60.5H8C5.51855 60.5 3.5 58.4815 3.5 56V20.7402C3.5 18.2588 5.51855 16.2402 8 16.2402H19.2598C20.0879 16.2402 20.7598 16.9116 20.7598 17.7402C20.7598 18.5688 20.0879 19.2402 19.2598 19.2402H8C7.17285 19.2402 6.5 19.9131 6.5 20.7402V56C6.5 56.8272 7.17285 57.5 8 57.5H56C56.8271 57.5 57.5 56.8272 57.5 56V20.7402C57.5 19.9131 56.8271 19.2402 56 19.2402H50C49.1719 19.2402 48.5 18.5688 48.5 17.7402C48.5 16.9116 49.1719 16.2402 50 16.2402H56C58.4814 16.2402 60.5 18.2588 60.5 20.7402V56C60.5 58.4815 58.4814 60.5 56 60.5Z" fill="#F25849"/>
<path d="M27.2672 19.9305C26.1748 18.7671 25.5 17.2071 25.5 15.4893C25.5 11.9053 28.416 8.98926 32 8.98926C35.584 8.98926 38.5 11.9053 38.5 15.4893C38.5 17.2057 37.8263 18.7645 36.7355 19.9275C39.6561 21.1217 42.0446 23.3866 43.3704 26.2893C45.1665 23.9056 46.2451 20.9523 46.2451 17.7446C46.2451 9.89014 39.8545 3.5 32 3.5C24.1455 3.5 17.7549 9.89014 17.7549 17.7446C17.7549 20.9558 18.8357 23.912 20.6353 26.297C21.9597 23.3929 24.3471 21.1264 27.2672 19.9305Z" fill="#F25849"/>
<path d="M32 18.9893C33.933 18.9893 35.5 17.4223 35.5 15.4893C35.5 13.5563 33.933 11.9893 32 11.9893C30.067 11.9893 28.5 13.5563 28.5 15.4893C28.5 17.4223 30.067 18.9893 32 18.9893Z" fill="#F25849"/>
<path d="M32.0049 21.9893C27.7823 21.9893 24.124 24.7609 22.9222 28.7125C25.3889 30.7575 28.553 31.9893 32 31.9893C35.4504 31.9893 38.6171 30.7548 41.0848 28.7061C39.8819 24.7582 36.2253 21.9893 32.0049 21.9893Z" fill="#F25849"/>
</svg>
