<svg width="193" height="193" viewBox="0 0 193 193" fill="none" xmlns="http://www.w3.org/2000/svg">
<circle cx="96.5" cy="96.5" r="96.5" fill="#F2B706"/>
<g clip-path="url(#clip0_44_667)">
<path d="M95.0914 98.6682C92.2006 98.512 89.4212 99.4788 87.2654 101.391C85.1095 103.303 83.8354 105.932 83.6775 108.792C83.5194 111.652 84.4968 114.402 86.4293 116.536C88.3618 118.669 91.0181 119.929 93.9089 120.086C94.1113 120.097 94.3126 120.102 94.5138 120.102C97.1853 120.102 99.7299 119.141 101.735 117.363C103.891 115.451 105.165 112.822 105.323 109.962C105.481 107.101 104.503 104.351 102.571 102.218C100.638 100.085 97.9822 98.8243 95.0914 98.6682ZM99.7646 109.661C99.6877 111.053 99.0678 112.331 98.0193 113.261C96.9706 114.191 95.6187 114.661 94.2124 114.586C92.8062 114.51 91.5142 113.897 90.5742 112.859C89.6343 111.821 89.1589 110.484 89.2357 109.092C89.3125 107.701 89.9322 106.422 90.981 105.492C91.9562 104.627 93.1938 104.16 94.4935 104.16C94.5913 104.16 94.6895 104.162 94.7876 104.168C96.1939 104.244 97.486 104.857 98.4258 105.894C99.366 106.932 99.8414 108.27 99.7646 109.661Z" fill="#172840"/>
<path d="M91.7168 55.0332H97.2832V60.541H91.7168V55.0332Z" fill="#172840"/>
<path d="M111.693 70.1074L122.399 59.5149L126.334 63.4089L115.629 74.0014L111.693 70.1074Z" fill="#172840"/>
<path d="M60.7969 63.4036L64.7323 59.5095L75.4375 70.1021L71.5021 73.9961L60.7969 63.4036Z" fill="#172840"/>
<path d="M141.033 107.897C140.845 107.61 136.343 100.784 128.424 93.8979C123.747 89.8298 118.836 86.5822 113.83 84.2451C107.493 81.2868 100.99 79.7869 94.5 79.7869C88.0105 79.7869 81.5069 81.2868 75.1701 84.2451C70.1637 86.5822 65.2535 89.8298 60.5757 93.8979C52.6568 100.784 48.1548 107.61 47.9673 107.897L47 109.377L47.9673 110.856C48.155 111.143 52.6568 117.969 60.5757 124.856C65.2535 128.924 70.1637 132.171 75.1701 134.508C81.5069 137.467 88.0105 138.967 94.5 138.967C100.99 138.967 107.493 137.467 113.83 134.508C118.836 132.171 123.747 128.924 128.424 124.856C136.343 117.969 140.845 111.143 141.033 110.856L142 109.377L141.033 107.897ZM64.3206 120.861C59.0479 116.295 55.3439 111.671 53.6422 109.378C55.7749 106.509 61.0568 99.9864 68.6875 94.4433C66.3544 98.3774 64.9088 102.902 64.6405 107.763C64.3076 113.793 65.8343 119.505 68.7231 124.355C67.2378 123.279 65.7684 122.114 64.3206 120.861ZM94.5 133.52C81.0243 133.52 70.1002 122.711 70.1002 109.377C70.1002 96.0434 81.0243 85.2339 94.5 85.2339C107.976 85.2339 118.9 96.0432 118.9 109.377C118.9 122.711 107.976 133.52 94.5 133.52ZM120.345 124.286C122.71 120.283 124.097 115.754 124.36 110.991C124.684 105.107 123.267 99.3927 120.316 94.4263C121.788 95.4946 123.244 96.6501 124.679 97.8929C129.952 102.458 133.656 107.082 135.358 109.376C133.228 112.241 127.958 118.749 120.345 124.286Z" fill="#172840"/>
</g>
<defs>
<clipPath id="clip0_44_667">
<rect width="95" height="94" fill="white" transform="translate(47 50)"/>
</clipPath>
</defs>
</svg>
