<svg width="270" height="98" viewBox="0 0 270 98" fill="none" xmlns="http://www.w3.org/2000/svg">
<path d="M118.674 44.7057C117.579 44.7057 116.743 44.4031 116.166 43.7979C115.59 43.1923 115.301 42.3418 115.301 41.2463V17.2468C115.301 16.1227 115.597 15.2719 116.188 14.6956C116.779 14.1189 117.622 13.8306 118.718 13.8306H129.226C132.627 13.8306 135.25 14.6883 137.095 16.4038C138.941 18.1188 139.863 20.5043 139.863 23.5601C139.863 26.6159 138.941 29.0087 137.095 30.7384C135.25 32.4681 132.627 33.3332 129.226 33.3332H122.004V41.2463C122.004 42.3418 121.723 43.1923 121.161 43.7979C120.599 44.4031 119.77 44.7057 118.674 44.7057ZM122.004 28.144H128.101C129.831 28.144 131.15 27.7547 132.058 26.9764C132.966 26.198 133.42 25.0593 133.42 23.5601C133.42 22.0613 132.966 20.9368 132.058 20.1874C131.15 19.438 129.831 19.0629 128.101 19.0629H122.004V28.144Z" fill="#172840"/>
<path d="M141.679 44.706C140.872 44.706 140.216 44.5187 139.712 44.144C139.207 43.7693 138.89 43.2646 138.76 42.6305C138.631 41.9964 138.753 41.2901 139.128 40.5118L150.198 16.2525C150.66 15.2722 151.207 14.5591 151.841 14.1119C152.476 13.6651 153.211 13.4419 154.047 13.4419C154.883 13.4419 155.618 13.6651 156.252 14.1119C156.886 14.5591 157.42 15.2722 157.852 16.2525L169.009 40.5118C169.383 41.2901 169.52 42.0037 169.419 42.6521C169.319 43.3009 169.023 43.8051 168.533 44.1655C168.043 44.526 167.409 44.706 166.63 44.706C165.65 44.706 164.893 44.4755 164.36 44.0144C163.827 43.553 163.358 42.8325 162.955 41.8522L160.36 35.8415L163.041 37.7008H145.009L147.69 35.8415L145.139 41.8522C144.706 42.861 144.252 43.5892 143.777 44.036C143.301 44.4828 142.602 44.706 141.679 44.706ZM153.96 20.966L148.425 34.155L147.258 32.4684H160.793L159.625 34.155L154.047 20.966H153.96Z" fill="#172840"/>
<path d="M174.241 44.706C173.434 44.706 172.778 44.5187 172.274 44.144C171.769 43.7693 171.452 43.2646 171.322 42.6305C171.192 41.9964 171.315 41.2901 171.69 40.5118L182.76 16.2525C183.221 15.2722 183.769 14.5591 184.403 14.1119C185.037 13.6651 185.772 13.4419 186.608 13.4419C187.444 13.4419 188.179 13.6651 188.814 14.1119C189.448 14.5591 189.981 15.2722 190.414 16.2525L201.57 40.5118C201.945 41.2901 202.082 42.0037 201.981 42.6521C201.88 43.3009 201.585 43.8051 201.095 44.1655C200.604 44.526 199.97 44.706 199.192 44.706C198.212 44.706 197.455 44.4755 196.922 44.0144C196.388 43.553 195.92 42.8325 195.516 41.8522L192.922 35.8415L195.603 37.7008H177.571L180.252 35.8415L177.701 41.8522C177.268 42.861 176.814 43.5892 176.338 44.036C175.863 44.4828 175.164 44.706 174.241 44.706ZM186.522 20.966L180.987 34.155L179.819 32.4684H193.354L192.187 34.155L186.608 20.966H186.522Z" fill="#172840"/>
<path d="M209.051 44.706C208.042 44.706 207.271 44.425 206.738 43.8629C206.204 43.3009 205.938 42.501 205.938 41.4628V16.8146C205.938 15.7194 206.204 14.8833 206.738 14.3066C207.271 13.7302 207.985 13.4419 208.878 13.4419C209.657 13.4419 210.255 13.593 210.673 13.896C211.091 14.1986 211.574 14.6959 212.121 15.3879L227.3 34.717H226.132V16.6419C226.132 15.6327 226.399 14.847 226.932 14.285C227.465 13.7229 228.236 13.4419 229.246 13.4419C230.254 13.4419 231.025 13.7229 231.559 14.285C232.092 14.847 232.359 15.6327 232.359 16.6419V41.5927C232.359 42.5441 232.114 43.3009 231.624 43.8629C231.134 44.425 230.471 44.706 229.635 44.706C228.827 44.706 228.186 44.5476 227.71 44.2303C227.235 43.9134 226.723 43.4088 226.175 42.7168L211.04 23.3877H212.165V41.4628C212.165 42.501 211.905 43.3009 211.386 43.8629C210.867 44.425 210.089 44.706 209.051 44.706Z" fill="#172840"/>
<path d="M117.761 78.3528C117.092 78.3528 116.549 78.1975 116.131 77.8872C115.713 77.5768 115.45 77.1586 115.343 76.6331C115.236 76.1077 115.337 75.5225 115.647 74.8776L124.819 54.779C125.201 53.9667 125.655 53.3758 126.181 53.0053C126.706 52.6352 127.315 52.4502 128.008 52.4502C128.701 52.4502 129.309 52.6352 129.835 53.0053C130.36 53.3758 130.802 53.9667 131.16 54.779L140.404 74.8776C140.714 75.5225 140.828 76.1139 140.744 76.6512C140.661 77.1886 140.416 77.6065 140.01 77.9049C139.604 78.2036 139.078 78.3528 138.433 78.3528C137.621 78.3528 136.994 78.1616 136.552 77.7796C136.111 77.3976 135.722 76.8004 135.388 75.9882L133.239 71.0084L135.46 72.5488H120.52L122.741 71.0084L120.627 75.9882C120.269 76.8243 119.893 77.4272 119.499 77.7977C119.105 78.1678 118.525 78.3528 117.761 78.3528ZM127.936 58.684L123.35 69.6113L122.383 68.2139H133.597L132.629 69.6113L128.008 58.684H127.936Z" fill="#172840"/>
<path d="M151.94 78.423C150.029 78.423 148.363 78.0468 146.942 77.2947C145.521 76.5422 144.428 75.4732 143.664 74.0881C142.9 72.7027 142.517 71.0666 142.517 69.1796C142.517 67.7706 142.733 66.5047 143.162 65.3821C143.592 64.2595 144.219 63.3043 145.043 62.5159C145.867 61.7276 146.865 61.1247 148.035 60.7068C149.205 60.2885 150.507 60.0796 151.94 60.0796C152.68 60.0796 153.469 60.1694 154.305 60.3483C155.141 60.5275 155.965 60.8321 156.777 61.2619C157.254 61.477 157.583 61.7815 157.762 62.1755C157.941 62.5695 158.007 62.9758 157.959 63.3937C157.911 63.8116 157.762 64.182 157.511 64.5043C157.26 64.8266 156.944 65.0417 156.562 65.1492C156.179 65.2568 155.75 65.1909 155.272 64.9523C154.818 64.6893 154.346 64.4981 153.857 64.379C153.367 64.2595 152.907 64.1998 152.478 64.1998C151.761 64.1998 151.128 64.3131 150.579 64.5402C150.029 64.7672 149.569 65.0895 149.199 65.5074C148.829 65.9252 148.542 66.4449 148.339 67.0659C148.136 67.687 148.035 68.4036 148.035 69.2155C148.035 70.7918 148.423 72.028 149.199 72.9235C149.976 73.8194 151.068 74.267 152.478 74.267C152.907 74.267 153.361 74.2134 153.839 74.1059C154.316 73.9983 154.794 73.8133 155.272 73.5507C155.75 73.3117 156.179 73.252 156.562 73.3715C156.944 73.491 157.248 73.7119 157.475 74.0342C157.702 74.3568 157.834 74.7269 157.869 75.1448C157.905 75.563 157.834 75.969 157.654 76.3629C157.475 76.7569 157.159 77.0615 156.705 77.2766C155.893 77.6825 155.081 77.9751 154.269 78.1543C153.457 78.3336 152.68 78.423 151.94 78.423Z" fill="#172840"/>
<path d="M166.378 78.423C165.089 78.423 163.93 78.1721 162.903 77.6705C161.876 77.169 161.076 76.4882 160.503 75.6286C159.93 74.7685 159.643 73.8013 159.643 72.7265C159.643 71.4367 159.977 70.4159 160.646 69.6634C161.315 68.9109 162.401 68.3735 163.906 68.0513C165.411 67.7286 167.405 67.5675 169.889 67.5675H171.788V70.3619H169.925C168.707 70.3619 167.722 70.4278 166.969 70.5589C166.217 70.6904 165.68 70.9113 165.357 71.222C165.035 71.5323 164.874 71.9621 164.874 72.5114C164.874 73.1803 165.106 73.7296 165.572 74.1598C166.038 74.5897 166.713 74.8044 167.596 74.8044C168.289 74.8044 168.904 74.6432 169.441 74.321C169.979 73.9983 170.403 73.5565 170.713 72.9952C171.024 72.434 171.179 71.7952 171.179 71.0786V66.9584C171.179 65.9075 170.94 65.1612 170.462 64.7194C169.985 64.2772 169.173 64.0564 168.026 64.0564C167.382 64.0564 166.683 64.1342 165.931 64.2892C165.178 64.4446 164.348 64.7013 163.44 65.0598C162.915 65.2984 162.449 65.352 162.043 65.221C161.637 65.0895 161.327 64.8505 161.112 64.5043C160.897 64.1581 160.789 63.7757 160.789 63.3578C160.789 62.94 160.909 62.5337 161.147 62.1397C161.386 61.7457 161.78 61.4531 162.33 61.2619C163.452 60.8082 164.509 60.4979 165.5 60.3305C166.492 60.1632 167.405 60.0796 168.241 60.0796C170.08 60.0796 171.591 60.3483 172.774 60.8857C173.955 61.423 174.845 62.2472 175.442 63.3578C176.039 64.4685 176.338 65.8956 176.338 67.6392V75.5927C176.338 76.4763 176.123 77.1571 175.693 77.6347C175.263 78.1127 174.642 78.3513 173.83 78.3513C173.018 78.3513 172.391 78.1127 171.949 77.6347C171.508 77.1571 171.287 76.4763 171.287 75.5927V74.267L171.537 74.4821C171.394 75.2943 171.09 75.9929 170.624 76.578C170.158 77.1632 169.567 77.6169 168.85 77.9392C168.134 78.2619 167.31 78.423 166.378 78.423Z" fill="#172840"/>
<path d="M187.23 78.4248C185.701 78.4248 184.357 78.0547 183.199 77.3142C182.04 76.5736 181.139 75.5108 180.494 74.1257C179.849 72.7402 179.527 71.1042 179.527 69.2172C179.527 67.3306 179.849 65.7061 180.494 64.3449C181.139 62.9833 182.04 61.9325 183.199 61.1919C184.357 60.4518 185.701 60.0813 187.23 60.0813C188.615 60.0813 189.839 60.4159 190.902 61.0844C191.965 61.7532 192.687 62.6252 193.069 63.7H192.675V55.2091C192.675 54.3012 192.902 53.6146 193.356 53.149C193.81 52.6833 194.478 52.4504 195.362 52.4504C196.222 52.4504 196.891 52.6833 197.369 53.149C197.846 53.6146 198.085 54.3012 198.085 55.2091V75.5945C198.085 76.478 197.852 77.1588 197.386 77.6364C196.921 78.1145 196.258 78.3531 195.398 78.3531C194.538 78.3531 193.875 78.1145 193.41 77.6364C192.944 77.1588 192.711 76.478 192.711 75.5945V73.1581L193.105 74.5556C192.771 75.7259 192.06 76.6634 190.974 77.3677C189.886 78.0724 188.639 78.4248 187.23 78.4248ZM188.842 74.3763C189.63 74.3763 190.311 74.1851 190.884 73.8031C191.457 73.421 191.911 72.8536 192.245 72.1015C192.58 71.349 192.747 70.3876 192.747 69.2172C192.747 67.4736 192.389 66.1899 191.672 65.3657C190.955 64.5419 190.012 64.1298 188.842 64.1298C188.077 64.1298 187.403 64.3091 186.818 64.6672C186.232 65.0257 185.779 65.5808 185.456 66.3333C185.134 67.0854 184.973 68.0468 184.973 69.2172C184.973 70.9608 185.331 72.2565 186.047 73.1045C186.764 73.9522 187.695 74.3763 188.842 74.3763Z" fill="#172840"/>
<path d="M211.377 78.423C209.299 78.423 207.514 78.0468 206.021 77.2947C204.528 76.5422 203.381 75.4794 202.581 74.1059C201.781 72.7327 201.381 71.1144 201.381 69.2513C201.381 67.436 201.763 65.842 202.528 64.4685C203.292 63.0949 204.361 62.0202 205.734 61.2442C207.107 60.4678 208.666 60.0796 210.409 60.0796C211.675 60.0796 212.822 60.2885 213.849 60.7068C214.876 61.1247 215.76 61.7218 216.5 62.4982C217.24 63.2742 217.802 64.2175 218.184 65.3285C218.566 66.4391 218.757 67.675 218.757 69.0366C218.757 69.4903 218.614 69.8307 218.327 70.0574C218.041 70.2844 217.622 70.3978 217.073 70.3978H205.824V67.6033H214.852L214.279 68.1048C214.279 67.1257 214.135 66.3077 213.849 65.6508C213.562 64.9939 213.15 64.4981 212.613 64.1639C212.075 63.8297 211.413 63.6624 210.625 63.6624C209.741 63.6624 208.988 63.8655 208.368 64.2715C207.746 64.6774 207.268 65.2626 206.934 66.027C206.6 66.7911 206.433 67.7109 206.433 68.7856V69.0721C206.433 70.8874 206.857 72.225 207.704 73.0847C208.553 73.9447 209.812 74.3746 211.484 74.3746C212.057 74.3746 212.714 74.3028 213.455 74.1598C214.195 74.0164 214.888 73.7894 215.533 73.479C216.082 73.2161 216.572 73.1267 217.001 73.2103C217.432 73.294 217.766 73.491 218.005 73.8013C218.244 74.112 218.381 74.4702 218.417 74.8761C218.452 75.2824 218.363 75.6821 218.148 76.0765C217.933 76.4705 217.575 76.7989 217.073 77.0615C216.261 77.5156 215.348 77.856 214.333 78.0826C213.317 78.3097 212.332 78.423 211.377 78.423Z" fill="#172840"/>
<path d="M224.704 78.3513C223.82 78.3513 223.146 78.1127 222.68 77.6347C222.214 77.1571 221.982 76.4763 221.982 75.5927V62.874C221.982 61.9905 222.214 61.3159 222.68 60.8498C223.146 60.3841 223.797 60.1513 224.633 60.1513C225.492 60.1513 226.149 60.3841 226.603 60.8498C227.057 61.3159 227.284 61.9905 227.284 62.874V65.167L226.89 63.7341C227.367 62.6354 228.108 61.7515 229.111 61.0826C230.114 60.4142 231.296 60.0796 232.658 60.0796C234.019 60.0796 235.154 60.4022 236.061 61.0472C236.969 61.6917 237.614 62.6832 237.996 64.0205H237.494C238.02 62.8023 238.826 61.8413 239.913 61.1366C241 60.4319 242.248 60.0796 243.657 60.0796C245.018 60.0796 246.135 60.3483 247.006 60.8857C247.878 61.423 248.529 62.2353 248.959 63.322C249.389 64.4087 249.604 65.788 249.604 67.4599V75.5927C249.604 76.4763 249.371 77.1571 248.905 77.6347C248.44 78.1127 247.777 78.3513 246.917 78.3513C246.033 78.3513 245.358 78.1127 244.893 77.6347C244.427 77.1571 244.194 76.4763 244.194 75.5927V67.6392C244.194 66.4688 244.009 65.6149 243.639 65.0775C243.269 64.5402 242.642 64.2715 241.758 64.2715C240.731 64.2715 239.931 64.6296 239.357 65.3462C238.784 66.0629 238.498 67.0779 238.498 68.3916V75.5927C238.498 76.4763 238.265 77.1571 237.799 77.6347C237.333 78.1127 236.671 78.3513 235.811 78.3513C234.951 78.3513 234.282 78.1127 233.804 77.6347C233.327 77.1571 233.088 76.4763 233.088 75.5927V67.6392C233.088 66.4688 232.903 65.6149 232.533 65.0775C232.162 64.5402 231.535 64.2715 230.651 64.2715C229.624 64.2715 228.825 64.6296 228.251 65.3462C227.678 66.0629 227.391 67.0779 227.391 68.3916V75.5927C227.391 77.4319 226.496 78.3513 224.704 78.3513Z" fill="#172840"/>
<path d="M258.382 84.8021C257.761 84.8021 257.247 84.6348 256.841 84.3005C256.435 83.9659 256.196 83.5303 256.125 82.9925C256.053 82.4552 256.149 81.8881 256.411 81.291L258.812 75.9885V78.2097L252.47 63.6642C252.231 63.0431 252.154 62.4641 252.237 61.9267C252.321 61.389 252.583 60.9591 253.026 60.6369C253.467 60.3142 254.082 60.1531 254.871 60.1531C255.516 60.1531 256.035 60.3023 256.429 60.601C256.823 60.8994 257.187 61.4668 257.522 62.3026L261.749 73.0506H260.603L264.974 62.2667C265.308 61.4549 265.684 60.8994 266.102 60.601C266.52 60.3023 267.087 60.1531 267.804 60.1531C268.425 60.1531 268.921 60.3142 269.291 60.6369C269.661 60.9591 269.888 61.3832 269.972 61.9086C270.055 62.4341 269.954 63.0073 269.667 63.6283L261.248 82.7239C260.889 83.5361 260.489 84.0854 260.047 84.3722C259.606 84.6587 259.05 84.8021 258.382 84.8021Z" fill="#172840"/>
<path fill-rule="evenodd" clip-rule="evenodd" d="M33.2664 34.3356C38.1525 29.4498 44.7788 26.7051 51.6885 26.7051C58.5981 26.7051 65.2248 29.4498 70.1105 34.3356L70.1109 34.3364C74.9971 39.2221 77.7418 45.8488 77.7418 52.7581C77.7418 59.6677 74.9971 66.2944 70.1109 71.1801L51.6885 89.6026L33.266 71.1801C28.3802 66.2944 25.6355 59.6677 25.6355 52.7581C25.6355 45.8488 28.3802 39.2221 33.266 34.3364L33.2664 34.3356ZM39.5361 40.6053L39.5353 40.6057C36.3126 43.8288 34.5019 48.2003 34.5019 52.7581C34.5019 57.3162 36.3126 61.6877 39.5353 64.9108L51.6885 77.0636L63.8416 64.9108C67.0647 61.6877 68.8754 57.3162 68.8754 52.7581C68.8754 48.2003 67.0647 43.8288 63.8416 40.6057L63.8408 40.6053C60.6181 37.3822 56.2466 35.5715 51.6885 35.5715C47.1304 35.5715 42.7592 37.3822 39.5361 40.6053Z" fill="#172840"/>
<path fill-rule="evenodd" clip-rule="evenodd" d="M36.8311 74.88C35.101 73.1499 35.101 70.3404 36.8311 68.6103C38.5612 66.8802 41.3707 66.8802 43.1008 68.6103L64.3185 89.828C66.0486 91.5581 66.0486 94.3676 64.3185 96.0977C62.5884 97.8278 59.7789 97.8278 58.0488 96.0977L36.8311 74.88Z" fill="#172840"/>
<path fill-rule="evenodd" clip-rule="evenodd" d="M51.6888 22.3385C51.5138 22.3385 50.6434 22.3385 49.7128 21.4044C49.4171 21.1076 49.1635 20.763 48.9669 20.3929C48.7622 20.0078 48.6407 19.5818 48.5216 19.162C48.502 19.093 47.9819 16.2504 47.8882 15.6686C47.8331 15.3279 47.4218 12.7786 47.31 11.392C47.2206 10.2837 47.2838 9.49493 47.2969 9.33032C47.406 7.97299 47.7148 6.77102 47.7707 6.55283C48.0933 5.29611 48.1033 5.30035 48.5039 4.06599C48.5702 3.86245 48.9356 2.73603 49.8924 1.77922C50.6222 1.04948 50.6889 1.12427 51.685 0.848637C51.6881 0.84748 52.5801 1.09459 52.5878 1.09844C53.545 1.59535 54.1757 2.62385 54.2755 2.78653C54.3769 2.95152 54.7539 3.566 55.1865 5.03243C55.6147 6.48459 55.7655 7.24286 55.804 7.43792C56.1294 9.07512 56.1232 10.057 56.122 10.2864C56.1074 12.6375 55.0029 18.3964 54.8692 19.0957C54.6082 20.4569 53.8118 21.2568 53.6645 21.4044C52.7339 22.3385 51.8635 22.3385 51.6888 22.3385Z" fill="#34B6A7"/>
<path fill-rule="evenodd" clip-rule="evenodd" d="M36.589 26.3848C36.4378 26.4723 35.6838 26.9075 34.4109 26.5636C34.0065 26.4545 33.6145 26.283 33.259 26.061C32.889 25.8297 32.5709 25.5213 32.2579 25.2175C32.2066 25.1678 30.3351 22.9658 29.9627 22.5086C29.7449 22.2411 28.1138 20.2392 27.3239 19.0943C26.6921 18.1791 26.3525 17.464 26.2819 17.3152C25.6975 16.0851 25.3637 14.8901 25.3032 14.6726C24.9543 13.4232 24.9651 13.4221 24.6949 12.1526C24.6505 11.9433 24.4038 10.7849 24.7542 9.47769C25.0946 8.20671 25.7041 7.85476 25.8444 7.7738C25.9843 7.69285 26.5938 7.34127 27.8648 7.68166C29.172 8.03208 30.0521 8.82466 30.2109 8.96807C31.1754 9.83659 31.1816 9.82772 32.0894 10.7548C32.3003 10.9703 33.5682 12.2652 34.4024 13.7309C35.5651 15.774 37.4887 21.3136 37.7219 21.9863C38.1768 23.2958 37.8869 24.3864 37.8333 24.588C37.4945 25.862 36.7405 26.2973 36.589 26.3848Z" fill="#F25849"/>
<path fill-rule="evenodd" clip-rule="evenodd" d="M25.5356 37.4376C25.4485 37.5891 25.0133 38.3432 23.7388 38.682C23.3341 38.7896 22.9085 38.837 22.4898 38.8223C22.0538 38.8069 21.6244 38.699 21.2011 38.5926C21.1317 38.5748 18.4101 37.6038 17.8592 37.3941C17.5366 37.2715 15.1234 36.3532 13.8663 35.7569C12.8621 35.28 12.2102 34.8305 12.0745 34.7372C10.9535 33.9639 10.0668 33.0958 9.90569 32.9381C8.97896 32.0303 8.98744 32.0241 8.11892 31.0596C7.9759 30.9008 7.18293 30.0207 6.8329 28.7135C6.56576 27.7166 6.66367 27.6965 6.92273 26.6962C6.92388 26.6931 7.58385 26.0439 7.59079 26.0393C8.49979 25.4587 9.70562 25.4263 9.89644 25.4213C10.0903 25.4163 10.8108 25.397 12.2969 25.7556C13.7691 26.111 14.5008 26.3596 14.6889 26.4236C16.2698 26.9602 17.1168 27.4567 17.3149 27.5724C19.3434 28.7605 23.7789 32.5962 24.3175 33.0619C25.366 33.9689 25.6601 35.0583 25.7145 35.2596C26.0584 36.5325 25.6231 37.2865 25.5356 37.4376Z" fill="#F2B706"/>
<path fill-rule="evenodd" clip-rule="evenodd" d="M21.4899 52.5367C21.4899 52.7117 21.4899 53.5821 20.5558 54.5127C20.259 54.8084 19.9143 55.062 19.5443 55.2586C19.1588 55.4633 18.7332 55.5848 18.3134 55.7039C18.2444 55.7235 15.4017 56.2436 14.82 56.3373C14.4792 56.3924 11.9299 56.8037 10.5433 56.9155C9.43501 57.0049 8.64629 56.9417 8.48168 56.9286C7.12435 56.8195 5.92237 56.5107 5.7038 56.4548C4.44708 56.1322 4.45171 56.1221 3.21735 55.7216C3.01381 55.6553 1.88739 55.2895 0.930588 54.3327C5.51456e-07 53.4021 0 52.6986 0 52.5367C0 52.3751 5.51456e-07 51.6712 0.930588 50.7406C1.88739 49.7838 3.01381 49.418 3.21735 49.3521C4.45171 48.9511 4.44708 48.9415 5.7038 48.6189C5.996 48.5437 7.75155 48.093 9.43771 48.1034C11.7889 48.1181 17.5478 49.2222 18.2467 49.3563C19.6083 49.6173 20.4082 50.4137 20.5558 50.561C21.4899 51.4916 21.4899 52.362 21.4899 52.5367Z" fill="#34546D"/>
<path fill-rule="evenodd" clip-rule="evenodd" d="M25.5356 67.636C25.6231 67.7875 26.0584 68.5412 25.7145 69.8141C25.6054 70.2184 25.4339 70.6109 25.2118 70.9659C24.9805 71.336 24.6721 71.654 24.3684 71.9671C24.3186 72.0183 22.1167 73.8899 21.6599 74.2623C21.3919 74.4805 19.3901 76.1111 18.2451 76.9014C17.3304 77.5328 16.6153 77.8725 16.4661 77.9434C15.2363 78.5274 14.0409 78.8613 13.8239 78.9218C12.5741 79.2707 12.573 79.2599 11.3039 79.5301C11.0942 79.5748 9.93577 79.8211 8.62894 79.4711C7.63205 79.204 7.66327 79.1087 6.92659 78.3844C6.92428 78.3817 6.69221 77.4858 6.69183 77.4773C6.64364 76.3999 7.2188 75.3394 7.30977 75.1717C7.40191 75.0009 7.74538 74.3675 8.79933 73.26C9.84287 72.1629 10.4242 71.6533 10.5738 71.5222C11.8289 70.4216 12.6824 69.9363 12.8817 69.8225C14.9249 68.6599 20.4644 66.7366 21.1371 66.503C22.4467 66.0482 23.5372 66.3384 23.7388 66.392C25.0133 66.7305 25.4485 67.4845 25.5356 67.636Z" fill="#84C1D9"/>
<path fill-rule="evenodd" clip-rule="evenodd" d="M77.8413 67.6363C77.9288 67.4848 78.364 66.7308 79.6385 66.3923C80.0432 66.2844 80.4684 66.237 80.8871 66.2516C81.3235 66.267 81.7529 66.375 82.1762 66.4818C82.2456 66.4991 84.9672 67.4702 85.518 67.6799C85.8407 67.8025 88.2539 68.7207 89.5106 69.3171C90.5152 69.7939 91.1667 70.2434 91.3028 70.3371C92.4238 71.11 93.3105 71.9782 93.4716 72.1362C94.3983 73.0437 94.3895 73.0502 95.2584 74.0143C95.4014 74.1736 96.1944 75.0533 96.5444 76.3605C96.8115 77.3574 96.7136 77.3774 96.4542 78.3778C96.4534 78.3812 95.7934 79.0304 95.7865 79.0347C94.8775 79.6152 93.6713 79.6476 93.4805 79.6526C93.2869 79.658 92.5665 79.6773 91.0804 79.3184C89.6082 78.963 88.8761 78.7143 88.688 78.6507C87.1074 78.1137 86.2601 77.6176 86.0624 77.5016C84.0335 76.3135 79.598 72.4778 79.0598 72.0121C78.0113 71.1054 77.7168 70.0156 77.6624 69.8144C77.3185 68.5415 77.7542 67.7878 77.8413 67.6363Z" fill="#B174D0"/>
<path fill-rule="evenodd" clip-rule="evenodd" d="M81.887 52.5363C81.887 52.3617 81.887 51.4913 82.8215 50.5607C83.1183 50.265 83.4629 50.011 83.8326 49.8147C84.2181 49.6097 84.6441 49.4886 85.0639 49.3691C85.1325 49.3498 87.9752 48.8298 88.5573 48.7357C88.898 48.681 91.4469 48.2693 92.8336 48.1575C93.9419 48.068 94.731 48.1317 94.8952 48.1448C96.2525 48.2539 97.4549 48.5623 97.6731 48.6185C98.9298 48.9412 98.9252 48.9508 100.16 49.3517C100.363 49.4177 101.49 49.7835 102.447 50.7403C103.176 51.4701 103.102 51.5367 103.377 52.5325C103.378 52.5359 103.131 53.428 103.127 53.4357C102.63 54.3925 101.602 55.0236 101.439 55.1234C101.274 55.2248 100.66 55.6018 99.1935 56.0343C97.7409 56.4626 96.9827 56.6133 96.788 56.6519C95.1504 56.9772 94.1685 56.9711 93.9396 56.9695C91.5884 56.9549 85.8291 55.8508 85.1302 55.7171C83.7686 55.4561 82.9691 54.6593 82.8215 54.5124C81.887 53.5818 81.887 52.7114 81.887 52.5363Z" fill="#D96C3A"/>
<path fill-rule="evenodd" clip-rule="evenodd" d="M77.8413 37.4374C77.7542 37.2863 77.3185 36.5323 77.6624 35.2594C77.7719 34.855 77.943 34.463 78.1655 34.1075C78.3968 33.7375 78.7048 33.4194 79.0089 33.1064C79.0587 33.0551 81.2606 31.1835 81.7174 30.8112C81.985 30.5933 83.9869 28.9623 85.1318 28.1721C86.0469 27.5406 86.762 27.201 86.9108 27.1304C88.141 26.546 89.3364 26.2122 89.5534 26.1517C90.8032 25.8028 90.804 25.8136 92.0734 25.5434C92.2827 25.4986 93.4415 25.2523 94.7484 25.6023C95.7452 25.8695 95.7136 25.9647 96.4503 26.6894C96.4526 26.6917 96.6851 27.588 96.6855 27.5961C96.7337 28.6736 96.1585 29.7341 96.0675 29.9022C95.975 30.0725 95.6315 30.7059 94.578 31.8138C93.5344 32.9109 92.9527 33.4206 92.8035 33.5513C91.548 34.6519 90.6949 35.1376 90.4956 35.2509C88.452 36.4136 82.9125 38.3368 82.2402 38.5704C80.9306 39.0253 79.8397 38.7354 79.6385 38.6818C78.364 38.343 77.9288 37.5889 77.8413 37.4374Z" fill="#6A4C93"/>
<path fill-rule="evenodd" clip-rule="evenodd" d="M66.7879 26.3833C66.6364 26.2957 65.8828 25.8605 65.5439 24.5865C65.4364 24.1813 65.3886 23.7561 65.4036 23.3374C65.419 22.9015 65.5266 22.472 65.6334 22.0487C65.6507 21.9793 66.6218 19.2574 66.8315 18.7065C66.9545 18.3838 67.8723 15.9706 68.4691 14.7139C68.9455 13.7097 69.395 13.0578 69.4887 12.9221C70.2616 11.8011 71.1302 10.9145 71.2878 10.7533C72.1957 9.8262 72.2018 9.83507 73.166 8.96654C73.3252 8.82314 74.2053 8.03056 75.5121 7.68014C76.509 7.41299 76.5294 7.5113 77.5294 7.77035C77.5329 7.77112 78.182 8.43148 78.1867 8.43842C78.7668 9.34742 78.7992 10.5532 78.8042 10.7441C78.8096 10.938 78.8289 11.6585 78.47 13.1445C78.115 14.6164 77.8663 15.3484 77.8023 15.5366C77.2653 17.1175 76.7692 17.9644 76.6532 18.1622C75.4651 20.191 71.6294 24.6265 71.1637 25.1651C70.257 26.2136 69.1676 26.5078 68.9664 26.5621C67.6931 26.906 66.9394 26.4708 66.7879 26.3833Z" fill="#EC5B88"/>
</svg>
