<svg width="270" height="97" viewBox="0 0 270 97" fill="none" xmlns="http://www.w3.org/2000/svg">
<path d="M118.674 44.2814C117.579 44.2814 116.743 43.9788 116.166 43.3736C115.59 42.7679 115.301 41.9175 115.301 40.822V16.8225C115.301 15.6984 115.597 14.8476 116.188 14.2713C116.779 13.6946 117.622 13.4062 118.718 13.4062H129.226C132.627 13.4062 135.25 14.264 137.095 15.9794C138.941 17.6945 139.863 20.08 139.863 23.1358C139.863 26.1916 138.941 28.5844 137.095 30.3141C135.25 32.0438 132.627 32.9089 129.226 32.9089H122.004V40.822C122.004 41.9175 121.723 42.7679 121.161 43.3736C120.599 43.9788 119.77 44.2814 118.674 44.2814ZM122.004 27.7197H128.101C129.831 27.7197 131.15 27.3304 132.058 26.552C132.966 25.7737 133.42 24.635 133.42 23.1358C133.42 21.637 132.966 20.5125 132.058 19.7631C131.15 19.0137 129.831 18.6386 128.101 18.6386H122.004V27.7197Z" fill="white"/>
<path d="M141.679 44.2817C140.872 44.2817 140.216 44.0943 139.712 43.7196C139.207 43.3449 138.89 42.8403 138.76 42.2062C138.631 41.572 138.753 40.8658 139.128 40.0875L150.198 15.8282C150.66 14.8479 151.207 14.1347 151.841 13.6876C152.476 13.2408 153.211 13.0176 154.047 13.0176C154.883 13.0176 155.618 13.2408 156.252 13.6876C156.886 14.1347 157.42 14.8479 157.852 15.8282L169.009 40.0875C169.383 40.8658 169.52 41.5794 169.419 42.2278C169.319 42.8766 169.023 43.3808 168.533 43.7412C168.043 44.1017 167.409 44.2817 166.63 44.2817C165.65 44.2817 164.893 44.0512 164.36 43.5901C163.827 43.1287 163.358 42.4082 162.955 41.4279L160.36 35.4172L163.041 37.2765H145.009L147.69 35.4172L145.139 41.4279C144.706 42.4367 144.252 43.1649 143.777 43.6117C143.301 44.0585 142.602 44.2817 141.679 44.2817ZM153.96 20.5417L148.425 33.7307L147.258 32.0441H160.793L159.625 33.7307L154.047 20.5417H153.96Z" fill="white"/>
<path d="M174.241 44.2817C173.434 44.2817 172.778 44.0943 172.274 43.7196C171.769 43.3449 171.452 42.8403 171.322 42.2062C171.192 41.572 171.315 40.8658 171.69 40.0875L182.76 15.8282C183.221 14.8479 183.769 14.1347 184.403 13.6876C185.037 13.2408 185.772 13.0176 186.608 13.0176C187.444 13.0176 188.179 13.2408 188.814 13.6876C189.448 14.1347 189.981 14.8479 190.414 15.8282L201.57 40.0875C201.945 40.8658 202.082 41.5794 201.981 42.2278C201.88 42.8766 201.585 43.3808 201.095 43.7412C200.604 44.1017 199.97 44.2817 199.192 44.2817C198.212 44.2817 197.455 44.0512 196.922 43.5901C196.388 43.1287 195.92 42.4082 195.516 41.4279L192.922 35.4172L195.603 37.2765H177.571L180.252 35.4172L177.701 41.4279C177.268 42.4367 176.814 43.1649 176.338 43.6117C175.863 44.0585 175.164 44.2817 174.241 44.2817ZM186.522 20.5417L180.987 33.7307L179.819 32.0441H193.354L192.187 33.7307L186.608 20.5417H186.522Z" fill="white"/>
<path d="M209.051 44.2817C208.042 44.2817 207.271 44.0007 206.738 43.4386C206.204 42.8766 205.938 42.0767 205.938 41.0385V16.3903C205.938 15.2951 206.204 14.459 206.738 13.8823C207.271 13.3059 207.985 13.0176 208.878 13.0176C209.657 13.0176 210.255 13.1687 210.673 13.4717C211.091 13.7743 211.574 14.2716 212.121 14.9636L227.3 34.2927H226.132V16.2176C226.132 15.2084 226.399 14.4227 226.932 13.8607C227.465 13.2986 228.236 13.0176 229.246 13.0176C230.254 13.0176 231.025 13.2986 231.559 13.8607C232.092 14.4227 232.359 15.2084 232.359 16.2176V41.1684C232.359 42.1198 232.114 42.8766 231.624 43.4386C231.134 44.0007 230.471 44.2817 229.635 44.2817C228.827 44.2817 228.186 44.1233 227.71 43.806C227.235 43.4891 226.723 42.9845 226.175 42.2925L211.04 22.9634H212.165V41.0385C212.165 42.0767 211.905 42.8766 211.386 43.4386C210.867 44.0007 210.089 44.2817 209.051 44.2817Z" fill="white"/>
<path d="M117.761 77.929C117.092 77.929 116.549 77.7736 116.131 77.4633C115.713 77.153 115.45 76.7347 115.343 76.2093C115.236 75.6839 115.337 75.0987 115.647 74.4538L124.819 54.3552C125.201 53.5429 125.655 52.9519 126.181 52.5815C126.706 52.2114 127.315 52.0264 128.008 52.0264C128.701 52.0264 129.309 52.2114 129.835 52.5815C130.36 52.9519 130.802 53.5429 131.16 54.3552L140.404 74.4538C140.714 75.0987 140.828 75.69 140.744 76.2274C140.661 76.7648 140.416 77.1827 140.01 77.4811C139.604 77.7798 139.078 77.929 138.433 77.929C137.621 77.929 136.994 77.7378 136.552 77.3558C136.111 76.9737 135.722 76.3766 135.388 75.5644L133.239 70.5845L135.46 72.125H120.52L122.741 70.5845L120.627 75.5644C120.269 76.4005 119.893 77.0034 119.499 77.3739C119.105 77.744 118.525 77.929 117.761 77.929ZM127.936 58.2602L123.35 69.1875L122.383 67.7901H133.597L132.629 69.1875L128.008 58.2602H127.936Z" fill="white"/>
<path d="M151.94 77.9987C150.029 77.9987 148.363 77.6225 146.942 76.8704C145.521 76.1179 144.428 75.0489 143.664 73.6638C142.9 72.2783 142.517 70.6423 142.517 68.7553C142.517 67.3463 142.733 66.0803 143.162 64.9578C143.592 63.8352 144.219 62.8799 145.043 62.0916C145.867 61.3033 146.865 60.7003 148.035 60.2825C149.205 59.8642 150.507 59.6553 151.94 59.6553C152.68 59.6553 153.469 59.7451 154.305 59.924C155.141 60.1032 155.965 60.4078 156.777 60.8376C157.254 61.0527 157.583 61.3572 157.762 61.7512C157.941 62.1452 158.007 62.5515 157.959 62.9694C157.911 63.3873 157.762 63.7577 157.511 64.08C157.26 64.4023 156.944 64.6174 156.562 64.7249C156.179 64.8325 155.75 64.7666 155.272 64.5279C154.818 64.265 154.346 64.0738 153.857 63.9547C153.367 63.8352 152.907 63.7754 152.478 63.7754C151.761 63.7754 151.128 63.8888 150.579 64.1158C150.029 64.3429 149.569 64.6652 149.199 65.0831C148.829 65.5009 148.542 66.0206 148.339 66.6416C148.136 67.2626 148.035 67.9793 148.035 68.7911C148.035 70.3674 148.423 71.6037 149.199 72.4992C149.976 73.3951 151.068 73.8427 152.478 73.8427C152.907 73.8427 153.361 73.7891 153.839 73.6815C154.316 73.574 154.794 73.3889 155.272 73.1264C155.75 72.8874 156.179 72.8277 156.562 72.9472C156.944 73.0667 157.248 73.2876 157.475 73.6098C157.702 73.9325 157.834 74.3026 157.869 74.7205C157.905 75.1387 157.834 75.5446 157.654 75.9386C157.475 76.3326 157.159 76.6371 156.705 76.8522C155.893 77.2582 155.081 77.5508 154.269 77.73C153.457 77.9093 152.68 77.9987 151.94 77.9987Z" fill="white"/>
<path d="M166.378 77.9987C165.089 77.9987 163.93 77.7478 162.903 77.2462C161.876 76.7447 161.076 76.0639 160.503 75.2042C159.93 74.3442 159.643 73.377 159.643 72.3022C159.643 71.0124 159.977 69.9916 160.646 69.2391C161.315 68.4866 162.401 67.9492 163.906 67.6269C165.411 67.3043 167.405 67.1431 169.889 67.1431H171.788V69.9376H169.925C168.707 69.9376 167.722 70.0035 166.969 70.1346C166.217 70.266 165.68 70.4869 165.357 70.7976C165.035 71.108 164.874 71.5378 164.874 72.0871C164.874 72.756 165.106 73.3053 165.572 73.7355C166.038 74.1653 166.713 74.3801 167.596 74.3801C168.289 74.3801 168.904 74.2189 169.441 73.8966C169.979 73.574 170.403 73.1322 170.713 72.5709C171.024 72.0096 171.179 71.3709 171.179 70.6542V66.5341C171.179 65.4832 170.94 64.7369 170.462 64.2951C169.985 63.8529 169.173 63.632 168.026 63.632C167.382 63.632 166.683 63.7099 165.931 63.8649C165.178 64.0202 164.348 64.277 163.44 64.6355C162.915 64.8741 162.449 64.9277 162.043 64.7966C161.637 64.6652 161.327 64.4262 161.112 64.08C160.897 63.7338 160.789 63.3514 160.789 62.9335C160.789 62.5157 160.909 62.1093 161.147 61.7154C161.386 61.3214 161.78 61.0288 162.33 60.8376C163.452 60.3839 164.509 60.0735 165.5 59.9062C166.492 59.7389 167.405 59.6553 168.241 59.6553C170.08 59.6553 171.591 59.924 172.774 60.4613C173.955 60.9987 174.845 61.8229 175.442 62.9335C176.039 64.0441 176.338 65.4712 176.338 67.2148V75.1684C176.338 76.052 176.123 76.7327 175.693 77.2104C175.263 77.6884 174.642 77.927 173.83 77.927C173.018 77.927 172.391 77.6884 171.949 77.2104C171.508 76.7327 171.287 76.052 171.287 75.1684V73.8427L171.537 74.0578C171.394 74.87 171.09 75.5685 170.624 76.1537C170.158 76.7389 169.567 77.1926 168.85 77.5149C168.134 77.8376 167.31 77.9987 166.378 77.9987Z" fill="white"/>
<path d="M187.23 78.0007C185.701 78.0007 184.357 77.6306 183.199 76.8901C182.04 76.1496 181.139 75.0867 180.494 73.7016C179.849 72.3162 179.527 70.6801 179.527 68.7931C179.527 66.9065 179.849 65.282 180.494 63.9208C181.139 62.5593 182.04 61.5084 183.199 60.7679C184.357 60.0277 185.701 59.6573 187.23 59.6573C188.615 59.6573 189.839 59.9919 190.902 60.6603C191.965 61.3292 192.687 62.2011 193.069 63.2759H192.675V54.785C192.675 53.8771 192.902 53.1906 193.356 52.7249C193.81 52.2592 194.478 52.0264 195.362 52.0264C196.222 52.0264 196.891 52.2592 197.369 52.7249C197.846 53.1906 198.085 53.8771 198.085 54.785V75.1704C198.085 76.054 197.852 76.7347 197.386 77.2124C196.921 77.6904 196.258 77.929 195.398 77.929C194.538 77.929 193.875 77.6904 193.41 77.2124C192.944 76.7347 192.711 76.054 192.711 75.1704V72.7341L193.105 74.1315C192.771 75.3018 192.06 76.2394 190.974 76.9437C189.886 77.6484 188.639 78.0007 187.23 78.0007ZM188.842 73.9522C189.63 73.9522 190.311 73.761 190.884 73.379C191.457 72.997 191.911 72.4295 192.245 71.6774C192.58 70.9249 192.747 69.9635 192.747 68.7931C192.747 67.0495 192.389 65.7658 191.672 64.9416C190.955 64.1178 190.012 63.7057 188.842 63.7057C188.077 63.7057 187.403 63.885 186.818 64.2431C186.232 64.6016 185.779 65.1567 185.456 65.9092C185.134 66.6613 184.973 67.6228 184.973 68.7931C184.973 70.5367 185.331 71.8324 186.047 72.6805C186.764 73.5282 187.695 73.9522 188.842 73.9522Z" fill="white"/>
<path d="M211.377 77.9987C209.299 77.9987 207.514 77.6225 206.021 76.8704C204.528 76.1179 203.381 75.0551 202.581 73.6815C201.781 72.3084 201.381 70.6901 201.381 68.827C201.381 67.0117 201.763 65.4177 202.528 64.0441C203.292 62.6706 204.361 61.5959 205.734 60.8199C207.107 60.0435 208.666 59.6553 210.409 59.6553C211.675 59.6553 212.822 59.8642 213.849 60.2825C214.876 60.7003 215.76 61.2975 216.5 62.0739C217.24 62.8499 217.802 63.7932 218.184 64.9042C218.566 66.0148 218.757 67.2507 218.757 68.6123C218.757 69.066 218.614 69.4064 218.327 69.6331C218.041 69.8601 217.622 69.9735 217.073 69.9735H205.824V67.179H214.852L214.279 67.6805C214.279 66.7014 214.135 65.8833 213.849 65.2265C213.562 64.5696 213.15 64.0738 212.613 63.7396C212.075 63.4054 211.413 63.2381 210.625 63.2381C209.741 63.2381 208.988 63.4412 208.368 63.8472C207.746 64.2531 207.268 64.8383 206.934 65.6027C206.6 66.3667 206.433 67.2865 206.433 68.3613V68.6477C206.433 70.463 206.857 71.8007 207.704 72.6604C208.553 73.5204 209.812 73.9502 211.484 73.9502C212.057 73.9502 212.714 73.8785 213.455 73.7355C214.195 73.5921 214.888 73.3651 215.533 73.0547C216.082 72.7918 216.572 72.7024 217.001 72.786C217.432 72.8697 217.766 73.0667 218.005 73.377C218.244 73.6877 218.381 74.0458 218.417 74.4518C218.452 74.8581 218.363 75.2578 218.148 75.6522C217.933 76.0462 217.575 76.3746 217.073 76.6371C216.261 77.0913 215.348 77.4316 214.333 77.6583C213.317 77.8854 212.332 77.9987 211.377 77.9987Z" fill="white"/>
<path d="M224.704 77.927C223.82 77.927 223.146 77.6884 222.68 77.2104C222.215 76.7327 221.982 76.052 221.982 75.1684V62.4497C221.982 61.5662 222.215 60.8916 222.68 60.4255C223.146 59.9598 223.797 59.727 224.633 59.727C225.492 59.727 226.149 59.9598 226.603 60.4255C227.057 60.8916 227.284 61.5662 227.284 62.4497V64.7427L226.89 63.3098C227.367 62.2111 228.108 61.3272 229.111 60.6583C230.114 59.9899 231.296 59.6553 232.658 59.6553C234.019 59.6553 235.154 59.9779 236.062 60.6229C236.969 61.2674 237.614 62.2589 237.996 63.5962H237.494C238.02 62.378 238.826 61.417 239.913 60.7123C241 60.0076 242.248 59.6553 243.657 59.6553C245.018 59.6553 246.135 59.924 247.007 60.4613C247.879 60.9987 248.529 61.811 248.959 62.8977C249.389 63.9844 249.604 65.3637 249.604 67.0356V75.1684C249.604 76.052 249.371 76.7327 248.905 77.2104C248.44 77.6884 247.777 77.927 246.917 77.927C246.033 77.927 245.359 77.6884 244.893 77.2104C244.427 76.7327 244.194 76.052 244.194 75.1684V67.2148C244.194 66.0445 244.009 65.1906 243.639 64.6532C243.269 64.1158 242.642 63.8472 241.758 63.8472C240.731 63.8472 239.931 64.2053 239.358 64.9219C238.784 65.6386 238.498 66.6536 238.498 67.9673V75.1684C238.498 76.052 238.265 76.7327 237.799 77.2104C237.333 77.6884 236.671 77.927 235.811 77.927C234.951 77.927 234.282 77.6884 233.804 77.2104C233.327 76.7327 233.088 76.052 233.088 75.1684V67.2148C233.088 66.0445 232.903 65.1906 232.533 64.6532C232.162 64.1158 231.535 63.8472 230.651 63.8472C229.624 63.8472 228.825 64.2053 228.251 64.9219C227.678 65.6386 227.391 66.6536 227.391 67.9673V75.1684C227.391 77.0076 226.496 77.927 224.704 77.927Z" fill="white"/>
<path d="M258.382 84.3775C257.761 84.3775 257.247 84.2102 256.841 83.876C256.435 83.5414 256.196 83.1058 256.125 82.568C256.053 82.0306 256.149 81.4635 256.411 80.8664L258.812 75.5639V77.7851L252.47 63.2396C252.231 62.6186 252.154 62.0396 252.237 61.5022C252.321 60.9644 252.583 60.5346 253.026 60.2123C253.467 59.8896 254.082 59.7285 254.871 59.7285C255.516 59.7285 256.035 59.8777 256.429 60.1765C256.823 60.4748 257.187 61.0423 257.522 61.878L261.749 72.6261H260.603L264.974 61.8422C265.308 61.0303 265.684 60.4748 266.102 60.1765C266.52 59.8777 267.087 59.7285 267.804 59.7285C268.425 59.7285 268.921 59.8896 269.291 60.2123C269.661 60.5346 269.888 60.9586 269.972 61.4841C270.055 62.0095 269.954 62.5827 269.667 63.2038L261.248 82.2993C260.889 83.1115 260.489 83.6609 260.047 83.9477C259.606 84.2341 259.05 84.3775 258.382 84.3775Z" fill="white"/>
<path fill-rule="evenodd" clip-rule="evenodd" d="M33.2664 33.9108C38.1525 29.025 44.7788 26.2803 51.6885 26.2803C58.5981 26.2803 65.2248 29.025 70.1105 33.9108L70.1109 33.9116C74.9971 38.7973 77.7418 45.424 77.7418 52.3333C77.7418 59.2429 74.9971 65.8696 70.1109 70.7553L51.6885 89.1778L33.266 70.7553C28.3802 65.8696 25.6355 59.2429 25.6355 52.3333C25.6355 45.424 28.3802 38.7973 33.266 33.9116L33.2664 33.9108ZM39.5361 40.1805L39.5353 40.1809C36.3126 43.404 34.5019 47.7755 34.5019 52.3333C34.5019 56.8914 36.3126 61.2629 39.5353 64.486L51.6885 76.6388L63.8416 64.486C67.0647 61.2629 68.8754 56.8914 68.8754 52.3333C68.8754 47.7755 67.0647 43.404 63.8416 40.1809L63.8408 40.1805C60.6181 36.9574 56.2466 35.1467 51.6885 35.1467C47.1304 35.1467 42.7592 36.9574 39.5361 40.1805Z" fill="white"/>
<path fill-rule="evenodd" clip-rule="evenodd" d="M36.8311 74.4564C35.101 72.7263 35.101 69.9168 36.8311 68.1867C38.5612 66.4566 41.3707 66.4566 43.1008 68.1867L64.3185 89.4044C66.0486 91.1345 66.0486 93.944 64.3185 95.6741C62.5884 97.4043 59.7789 97.4043 58.0488 95.6741L36.8311 74.4564Z" fill="white"/>
<path fill-rule="evenodd" clip-rule="evenodd" d="M51.6888 21.9142C51.5138 21.9142 50.6434 21.9142 49.7128 20.9801C49.4171 20.6833 49.1635 20.3387 48.9669 19.9686C48.7622 19.5835 48.6407 19.1575 48.5216 18.7377C48.502 18.6687 47.9819 15.826 47.8882 15.2443C47.8331 14.9036 47.4218 12.3543 47.31 10.9676C47.2206 9.85934 47.2838 9.07061 47.2969 8.906C47.406 7.54867 47.7148 6.3467 47.7707 6.12851C48.0933 4.87179 48.1033 4.87603 48.5039 3.64167C48.5702 3.43813 48.9356 2.31171 49.8924 1.35491C50.6222 0.625164 50.6889 0.69995 51.685 0.42432C51.6881 0.423164 52.5801 0.670271 52.5878 0.674126C53.545 1.17103 54.1757 2.19953 54.2755 2.36221C54.3769 2.5272 54.7539 3.14169 55.1865 4.60811C55.6147 6.06028 55.7655 6.81854 55.804 7.0136C56.1294 8.65081 56.1232 9.63267 56.122 9.86204C56.1074 12.2132 55.0029 17.9721 54.8692 18.6714C54.6082 20.0326 53.8118 20.8325 53.6645 20.9801C52.7339 21.9142 51.8635 21.9142 51.6888 21.9142Z" fill="#34B6A7"/>
<path fill-rule="evenodd" clip-rule="evenodd" d="M36.589 25.9602C36.4378 26.0477 35.6838 26.4829 34.4109 26.1391C34.0065 26.03 33.6145 25.8584 33.259 25.6364C32.889 25.4051 32.5709 25.0967 32.2579 24.7929C32.2066 24.7432 30.3351 22.5413 29.9627 22.0841C29.7449 21.8165 28.1138 19.8146 27.3239 18.6697C26.6921 17.7545 26.3525 17.0395 26.2819 16.8907C25.6975 15.6605 25.3637 14.4655 25.3032 14.2481C24.9543 12.9987 24.9651 12.9975 24.6949 11.7281C24.6505 11.5188 24.4038 10.3604 24.7542 9.05313C25.0946 7.78215 25.7041 7.4302 25.8444 7.34924C25.9843 7.26829 26.5938 6.91671 27.8648 7.2571C29.172 7.60752 30.0521 8.4001 30.2109 8.54351C31.1754 9.41203 31.1816 9.40316 32.0894 10.3303C32.3003 10.5458 33.5682 11.8407 34.4024 13.3063C35.5651 15.3494 37.4887 20.889 37.7219 21.5617C38.1768 22.8712 37.8869 23.9618 37.8333 24.1634C37.4945 25.4375 36.7405 25.8727 36.589 25.9602Z" fill="#F25849"/>
<path fill-rule="evenodd" clip-rule="evenodd" d="M25.5356 37.0128C25.4485 37.1643 25.0133 37.9183 23.7388 38.2572C23.3341 38.3647 22.9085 38.4122 22.4898 38.3975C22.0538 38.3821 21.6244 38.2742 21.2011 38.1678C21.1317 38.15 18.4101 37.179 17.8592 36.9693C17.5366 36.8467 15.1234 35.9284 13.8663 35.3321C12.8621 34.8552 12.2102 34.4057 12.0745 34.3124C10.9535 33.5391 10.0668 32.671 9.90569 32.5133C8.97896 31.6055 8.98744 31.5993 8.11892 30.6348C7.9759 30.476 7.18293 29.5959 6.8329 28.2887C6.56576 27.2918 6.66367 27.2717 6.92273 26.2714C6.92388 26.2683 7.58385 25.6191 7.59079 25.6145C8.49979 25.0339 9.70562 25.0015 9.89644 24.9965C10.0903 24.9915 10.8108 24.9722 12.2969 25.3307C13.7691 25.6862 14.5008 25.9348 14.6889 25.9988C16.2698 26.5354 17.1168 27.0319 17.3149 27.1476C19.3434 28.3357 23.7789 32.1714 24.3175 32.6371C25.366 33.5441 25.6601 34.6335 25.7145 34.8348C26.0584 36.1077 25.6231 36.8617 25.5356 37.0128Z" fill="#F2B706"/>
<path fill-rule="evenodd" clip-rule="evenodd" d="M21.4899 52.1116C21.4899 52.2866 21.4899 53.1571 20.5558 54.0877C20.259 54.3833 19.9143 54.637 19.5443 54.8336C19.1588 55.0383 18.7332 55.1597 18.3134 55.2788C18.2444 55.2985 15.4017 55.8185 14.82 55.9122C14.4792 55.9673 11.9299 56.3787 10.5433 56.4905C9.43501 56.5799 8.64629 56.5167 8.48168 56.5036C7.12435 56.3945 5.92237 56.0857 5.7038 56.0298C4.44708 55.7071 4.45171 55.6971 3.21735 55.2966C3.01381 55.2303 1.88739 54.8644 0.930588 53.9076C5.51456e-07 52.977 0 52.2735 0 52.1116C0 51.9501 5.51456e-07 51.2462 0.930588 50.3156C1.88739 49.3588 3.01381 48.9929 3.21735 48.927C4.45171 48.5261 4.44708 48.5165 5.7038 48.1938C5.996 48.1186 7.75155 47.668 9.43771 47.6784C11.7889 47.693 17.5478 48.7971 18.2467 48.9313C19.6083 49.1922 20.4082 49.9887 20.5558 50.1359C21.4899 51.0665 21.4899 51.937 21.4899 52.1116Z" fill="#34546D"/>
<path fill-rule="evenodd" clip-rule="evenodd" d="M25.5356 67.2122C25.6231 67.3637 26.0584 68.1173 25.7145 69.3902C25.6054 69.7946 25.4339 70.1871 25.2118 70.5421C24.9805 70.9122 24.6721 71.2302 24.3684 71.5432C24.3186 71.5945 22.1167 73.4661 21.6599 73.8385C21.3919 74.0567 19.3901 75.6873 18.2451 76.4776C17.3303 77.109 16.6153 77.4486 16.4661 77.5196C15.2363 78.1036 14.0409 78.4374 13.8239 78.498C12.5741 78.8468 12.5729 78.836 11.3039 79.1063C11.0942 79.151 9.93576 79.3973 8.62893 79.0473C7.63204 78.7801 7.66327 78.6849 6.92658 77.9606C6.92427 77.9579 6.6922 77.062 6.69182 77.0535C6.64363 75.976 7.21879 74.9155 7.30977 74.7479C7.4019 74.5771 7.74538 73.9437 8.79932 72.8362C9.84286 71.7391 10.4242 71.2294 10.5738 71.0984C11.8289 69.9978 12.6824 69.5124 12.8817 69.3987C14.9249 68.2361 20.4644 66.3128 21.1371 66.0792C22.4467 65.6243 23.5372 65.9146 23.7388 65.9682C25.0133 66.3066 25.4485 67.0607 25.5356 67.2122Z" fill="#84C1D9"/>
<path fill-rule="evenodd" clip-rule="evenodd" d="M77.8413 67.212C77.9288 67.0605 78.364 66.3065 79.6385 65.968C80.0432 65.8601 80.4684 65.8127 80.8871 65.8273C81.3235 65.8427 81.7529 65.9507 82.1762 66.0574C82.2456 66.0748 84.9672 67.0459 85.5181 67.2556C85.8407 67.3782 88.2539 68.2964 89.5106 68.8928C90.5152 69.3696 91.1667 69.8191 91.3028 69.9128C92.4238 70.6857 93.3105 71.5539 93.4716 71.7119C94.3983 72.6194 94.3895 72.6259 95.2584 73.59C95.4014 73.7492 96.1944 74.6289 96.5444 75.9362C96.8115 76.9331 96.7136 76.9531 96.4542 77.9535C96.4534 77.9569 95.7934 78.6061 95.7865 78.6103C94.8775 79.1909 93.6713 79.2233 93.4805 79.2283C93.287 79.2337 92.5665 79.253 91.0804 78.8941C89.6082 78.5386 88.8761 78.29 88.688 78.2264C87.1075 77.6894 86.2601 77.1933 86.0624 77.0772C84.0335 75.8891 79.598 72.0534 79.0598 71.5878C78.0113 70.6811 77.7168 69.5913 77.6624 69.3901C77.3186 68.1172 77.7542 67.3635 77.8413 67.212Z" fill="#B174D0"/>
<path fill-rule="evenodd" clip-rule="evenodd" d="M81.887 52.1123C81.887 51.9376 81.887 51.0672 82.8215 50.1366C83.1183 49.8409 83.4629 49.5869 83.8326 49.3907C84.2181 49.1856 84.6441 49.0645 85.0639 48.945C85.1325 48.9258 87.9752 48.4057 88.5573 48.3117C88.898 48.2569 91.4469 47.8452 92.8336 47.7334C93.9419 47.644 94.731 47.7076 94.8952 47.7207C96.2525 47.8298 97.4549 48.1382 97.6731 48.1945C98.9298 48.5171 98.9252 48.5268 100.16 48.9277C100.363 48.9936 101.49 49.3594 102.447 50.3162C103.176 51.046 103.102 51.1127 103.377 52.1084C103.378 52.1119 103.131 53.0039 103.127 53.0116C102.63 53.9684 101.602 54.5995 101.439 54.6993C101.274 54.8007 100.66 55.1777 99.1935 55.6103C97.7409 56.0385 96.9827 56.1893 96.788 56.2278C95.1504 56.5532 94.1685 56.547 93.9396 56.5455C91.5884 56.5308 85.8291 55.4268 85.1302 55.293C83.7686 55.032 82.9691 54.2352 82.8215 54.0883C81.887 53.1577 81.887 52.2873 81.887 52.1123Z" fill="#D96C3A"/>
<path fill-rule="evenodd" clip-rule="evenodd" d="M77.8413 37.0131C77.7542 36.862 77.3186 36.108 77.6624 34.8351C77.7719 34.4307 77.9431 34.0386 78.1655 33.6832C78.3968 33.3131 78.7048 32.9951 79.009 32.6821C79.0587 32.6308 81.2606 30.7592 81.7174 30.3868C81.985 30.169 83.9869 28.538 85.1318 27.7477C86.047 27.1163 86.7621 26.7767 86.9109 26.7061C88.141 26.1217 89.3364 25.7879 89.5534 25.7273C90.8032 25.3785 90.804 25.3893 92.0734 25.119C92.2827 25.0743 93.4415 24.828 94.7484 25.178C95.7453 25.4452 95.7137 25.5404 96.4503 26.2651C96.4527 26.2674 96.6851 27.1637 96.6855 27.1718C96.7337 28.2493 96.1585 29.3098 96.0675 29.4778C95.975 29.6482 95.6315 30.2816 94.578 31.3895C93.5344 32.4866 92.9527 32.9963 92.8035 33.1269C91.548 34.2275 90.6949 34.7133 90.4956 34.8266C88.4521 35.9892 82.9125 37.9125 82.2402 38.1461C80.9307 38.601 79.8397 38.3111 79.6385 38.2575C78.364 37.9187 77.9288 37.1646 77.8413 37.0131Z" fill="#6A4C93"/>
<path fill-rule="evenodd" clip-rule="evenodd" d="M66.7879 25.9587C66.6364 25.8712 65.8828 25.436 65.5439 24.1619C65.4364 23.7567 65.3886 23.3315 65.4036 22.9129C65.419 22.4769 65.5266 22.0474 65.6334 21.6242C65.6507 21.5548 66.6218 18.8328 66.8315 18.2819C66.9545 17.9593 67.8723 15.5461 68.4691 14.2893C68.9455 13.2851 69.395 12.6333 69.4887 12.4976C70.2616 11.3765 71.1302 10.4899 71.2878 10.3288C72.1957 9.40164 72.2018 9.41051 73.166 8.54198C73.3252 8.39858 74.2053 7.606 75.5121 7.25558C76.509 6.98843 76.5294 7.08674 77.5294 7.34579C77.5329 7.34656 78.182 8.00692 78.1867 8.01386C78.7668 8.92285 78.7992 10.1287 78.8042 10.3195C78.8096 10.5134 78.8289 11.2339 78.47 12.72C78.115 14.1918 77.8663 14.9239 77.8023 15.112C77.2653 16.6929 76.7692 17.5398 76.6532 17.7376C75.4651 19.7665 71.6294 24.202 71.1637 24.7405C70.257 25.7891 69.1676 26.0832 68.9664 26.1376C67.6931 26.4814 66.9394 26.0462 66.7879 25.9587Z" fill="#EC5B88"/>
</svg>
