<svg width="189" height="82" viewBox="0 0 189 82" fill="none" xmlns="http://www.w3.org/2000/svg">
<mask id="mask0_2531_19234" style="mask-type:luminance" maskUnits="userSpaceOnUse" x="0" y="0" width="189" height="82">
<path d="M188.741 0H0V81.339H188.741V0Z" fill="white"/>
</mask>
<g mask="url(#mask0_2531_19234)">
<path d="M93.543 40.4232H96.5285V30.9688H104.222C109.657 30.9688 113.906 27.4857 113.906 22.548C113.906 17.6103 109.657 14.1272 104.222 14.1272H93.543V40.4232ZM96.5285 28.1364V16.9596H103.686C107.973 16.9596 110.882 19.0266 110.882 22.548C110.882 26.0695 107.973 28.1364 103.686 28.1364H96.5285Z" fill="#172840"/>
<path d="M133.858 40.4232H137.112L125.514 14.1272H122.26L110.663 40.4232H113.916L116.557 34.452H131.217L133.858 40.4232ZM117.782 31.6196L123.906 17.8017L129.992 31.6196H117.782Z" fill="#172840"/>
<path d="M161.624 40.4232H164.878L153.281 14.1272H150.027L138.429 40.4232H141.682L144.324 34.452H158.984L161.624 40.4232ZM145.549 31.6196L151.673 17.8017L157.759 31.6196H145.549Z" fill="#172840"/>
<path d="M166.467 40.4232H169.452V19.0266L185.759 40.4232H188.744V14.1272H185.759V35.5238L169.452 14.1272H166.467V40.4232Z" fill="#172840"/>
<path d="M93.5359 53.3298H94.4567V50.4141H96.8294C98.5057 50.4141 99.816 49.3398 99.816 47.817C99.816 46.2942 98.5057 45.22 96.8294 45.22H93.5359V53.3298ZM94.4567 49.5405V46.0935H96.6641C97.9863 46.0935 98.8834 46.731 98.8834 47.817C98.8834 48.9031 97.9863 49.5405 96.6641 49.5405H94.4567Z" fill="#172840"/>
<path d="M103.582 47.085C102.992 47.085 102.26 47.2384 101.386 47.6752L101.741 48.3953C102.295 48.112 102.909 47.8405 103.523 47.8405C104.845 47.8405 105.176 48.7849 105.176 49.6112V49.8355C104.55 49.6348 103.854 49.4932 103.192 49.4932C101.882 49.4932 100.796 50.3077 100.796 51.5236C100.796 52.7277 101.741 53.4714 103.027 53.4714C103.83 53.4714 104.739 53.0936 105.176 52.3735V53.3297H106.061V49.6112C106.061 48.1356 105.247 47.085 103.582 47.085ZM103.181 52.6922C102.319 52.6922 101.658 52.2437 101.658 51.4881C101.658 50.7563 102.425 50.2369 103.334 50.2369C103.995 50.2369 104.621 50.3313 105.176 50.4847V51.4173C104.94 52.2791 103.983 52.6922 103.181 52.6922Z" fill="#172840"/>
<path d="M110.771 47.085C109.909 47.085 109.118 47.5572 108.764 48.2064V47.2266H107.879V53.3297H108.764V49.4459C108.764 48.596 109.626 47.8759 110.653 47.8759C111.55 47.8759 112.176 48.5724 112.176 49.564V53.3297H113.061V49.4459C113.061 48.0648 112.117 47.085 110.771 47.085Z" fill="#172840"/>
<path d="M117.676 49.6938H114.619V50.5556H117.676V49.6938Z" fill="#172840"/>
<path d="M125.869 53.3298H126.873L123.296 45.22H122.292L118.716 53.3298H119.719L120.534 51.4883H125.055L125.869 53.3298ZM120.911 50.6148L122.8 46.3532L124.677 50.6148H120.911Z" fill="#172840"/>
<path d="M129.529 46.3885C129.529 45.94 129.835 45.6212 130.19 45.6212C130.461 45.6212 130.697 45.7275 130.827 45.8691L131.264 45.2199C130.945 44.972 130.544 44.8303 130.131 44.8303C129.257 44.8303 128.643 45.4796 128.643 46.3885V47.2267H127.687V48.0176H128.643V53.3297H129.529V48.0176H131.028V47.2267H129.529V46.3885Z" fill="#172840"/>
<path d="M133.259 48.4189V47.2266H132.374V53.3297H133.259V49.9181C133.259 48.7259 134.239 47.8759 135.62 47.8759V47.085C134.498 47.085 133.625 47.6044 133.259 48.4189Z" fill="#172840"/>
<path d="M137.284 46.1171C137.603 46.1171 137.863 45.8456 137.863 45.5269C137.863 45.22 137.603 44.9485 137.284 44.9485C136.954 44.9485 136.694 45.22 136.694 45.5269C136.694 45.8456 136.954 46.1171 137.284 46.1171ZM136.836 53.3299H137.721V47.2268H136.836V53.3299Z" fill="#172840"/>
<path d="M142.338 53.4714C143.187 53.4714 143.966 53.1172 144.544 52.5388L143.931 51.9367C143.518 52.3971 142.951 52.6804 142.338 52.6804C141.121 52.6804 140.106 51.5826 140.106 50.2723C140.106 48.9737 141.121 47.8759 142.338 47.8759C142.94 47.8759 143.494 48.1474 143.895 48.5842L144.509 47.9821C143.931 47.4273 143.164 47.085 142.338 47.085C140.626 47.085 139.174 48.537 139.174 50.2723C139.174 52.0076 140.626 53.4714 142.338 53.4714Z" fill="#172840"/>
<path d="M148.381 47.085C147.79 47.085 147.059 47.2384 146.185 47.6752L146.539 48.3953C147.094 48.112 147.708 47.8405 148.322 47.8405C149.644 47.8405 149.975 48.7849 149.975 49.6112V49.8355C149.349 49.6348 148.652 49.4932 147.991 49.4932C146.681 49.4932 145.595 50.3077 145.595 51.5236C145.595 52.7277 146.539 53.4714 147.826 53.4714C148.628 53.4714 149.538 53.0936 149.975 52.3735V53.3297H150.86V49.6112C150.86 48.1356 150.045 47.085 148.381 47.085ZM147.979 52.6922C147.118 52.6922 146.457 52.2437 146.457 51.4881C146.457 50.7563 147.224 50.2369 148.133 50.2369C148.794 50.2369 149.42 50.3313 149.975 50.4847V51.4173C149.738 52.2791 148.782 52.6922 147.979 52.6922Z" fill="#172840"/>
<path d="M155.57 47.085C154.708 47.085 153.917 47.5572 153.563 48.2064V47.2266H152.677V53.3297H153.563V49.4459C153.563 48.596 154.425 47.8759 155.452 47.8759C156.349 47.8759 156.975 48.5724 156.975 49.564V53.3297H157.86V49.4459C157.86 48.0648 156.916 47.085 155.57 47.085Z" fill="#172840"/>
<path d="M100.69 66.0254H101.693L98.1166 57.9155H97.1132L93.5364 66.0254H94.5398L95.3543 64.1839H99.8755L100.69 66.0254ZM95.7321 63.3103L97.6208 59.0488L99.4978 63.3103H95.7321Z" fill="#172840"/>
<path d="M107.713 59.9224V60.973C107.241 60.2294 106.462 59.7808 105.494 59.7808C103.853 59.7808 102.685 60.973 102.685 62.6729C102.685 64.3728 103.853 65.5769 105.494 65.5769C106.462 65.5769 107.241 65.1283 107.713 64.3846V65.3762C107.713 66.5684 106.887 67.2651 105.482 67.2651C104.727 67.2651 103.995 66.9933 103.523 66.5448L103.133 67.2415C103.688 67.7137 104.609 68.0559 105.6 68.0559C107.359 68.0559 108.599 66.9461 108.599 65.3762V59.9224H107.713ZM105.659 64.786C104.467 64.786 103.617 63.9124 103.617 62.6729C103.617 61.4452 104.467 60.5717 105.659 60.5717C106.863 60.5717 107.713 61.4452 107.713 62.6729C107.713 63.9124 106.863 64.786 105.659 64.786Z" fill="#172840"/>
<path d="M113.226 65.3762C112.022 65.3762 111.184 64.5027 111.054 63.3104H116.048C116.048 61.1737 114.997 59.7808 113.155 59.7808C111.515 59.7808 110.145 61.1383 110.145 62.9563C110.145 64.8332 111.609 66.167 113.238 66.167C114.088 66.167 115.162 65.8012 115.694 65.2228L115.15 64.6443C114.773 65.0575 113.946 65.3762 113.226 65.3762ZM113.191 60.5717C114.407 60.5717 115.056 61.4216 115.174 62.5195H111.066C111.231 61.339 112.105 60.5717 113.191 60.5717Z" fill="#172840"/>
<path d="M120.403 59.7808C119.542 59.7808 118.751 60.2529 118.397 60.9022V59.9224H117.511V66.0254H118.397V62.1417C118.397 61.2918 119.258 60.5717 120.285 60.5717C121.183 60.5717 121.808 61.2682 121.808 62.2598V66.0254H122.694V62.1417C122.694 60.7605 121.749 59.7808 120.403 59.7808Z" fill="#172840"/>
<path d="M127.321 66.167C128.171 66.167 128.95 65.8131 129.529 65.2346L128.915 64.6325C128.502 65.0929 127.935 65.3762 127.321 65.3762C126.105 65.3762 125.09 64.2784 125.09 62.9681C125.09 61.6695 126.105 60.5717 127.321 60.5717C127.923 60.5717 128.478 60.8432 128.879 61.28L129.493 60.6779C128.915 60.1231 128.147 59.7808 127.321 59.7808C125.609 59.7808 124.157 61.2327 124.157 62.9681C124.157 64.7033 125.609 66.167 127.321 66.167Z" fill="#172840"/>
<path d="M131.795 68.1502C132.633 68.1386 133.224 67.7489 133.649 66.7102L136.435 59.9224H135.478L133.46 64.9984L131.323 59.9224H130.343L132.999 66.049L132.645 66.8046C132.409 67.2179 132.149 67.3475 131.76 67.3475C131.5 67.3475 131.252 67.3003 131.04 67.1943L130.827 67.9495C131.111 68.0795 131.441 68.1502 131.795 68.1502Z" fill="#172840"/>
<path d="M141.522 66.0254H142.443V59.4265L147.472 66.0254H148.392V57.9155H147.472V64.5144L142.443 57.9155H141.522V66.0254Z" fill="#172840"/>
<path d="M153.15 65.3762C151.947 65.3762 151.108 64.5027 150.978 63.3104H155.972C155.972 61.1737 154.921 59.7808 153.079 59.7808C151.438 59.7808 150.07 61.1383 150.07 62.9563C150.07 64.8332 151.533 66.167 153.162 66.167C154.012 66.167 155.087 65.8012 155.617 65.2228L155.075 64.6443C154.697 65.0575 153.871 65.3762 153.15 65.3762ZM153.115 60.5717C154.331 60.5717 154.98 61.4216 155.098 62.5195H150.99C151.155 61.339 152.029 60.5717 153.115 60.5717Z" fill="#172840"/>
<path d="M160.103 65.1283C159.973 65.27 159.737 65.3762 159.465 65.3762C159.111 65.3762 158.804 65.0575 158.804 64.6089V60.7133H160.303V59.9224H158.804V58.2461H157.919V59.9224H156.963V60.7133H157.919V64.6089C157.919 65.5179 158.533 66.167 159.407 66.167C159.82 66.167 160.221 66.0254 160.54 65.7775L160.103 65.1283Z" fill="#172840"/>
<path d="M163.35 66.0254H164.188L165.829 61.1501L167.445 66.0254H168.284L170.338 59.9224H169.394L167.87 64.845L166.206 59.9224H165.439L163.775 64.845L162.252 59.9224H161.307L163.35 66.0254Z" fill="#172840"/>
<path d="M174.221 66.167C175.933 66.167 177.373 64.7033 177.373 62.9681C177.373 61.2327 175.933 59.7808 174.221 59.7808C172.509 59.7808 171.057 61.2327 171.057 62.9681C171.057 64.7033 172.509 66.167 174.221 66.167ZM174.221 65.3762C173.006 65.3762 171.99 64.2784 171.99 62.9681C171.99 61.6695 173.006 60.5717 174.221 60.5717C175.425 60.5717 176.441 61.6695 176.441 62.9681C176.441 64.2784 175.425 65.3762 174.221 65.3762Z" fill="#172840"/>
<path d="M179.805 61.1147V59.9224H178.92V66.0254H179.805V62.6139C179.805 61.4216 180.785 60.5717 182.166 60.5717V59.7808C181.044 59.7808 180.171 60.3002 179.805 61.1147Z" fill="#172840"/>
<path d="M188.742 59.9224H187.608L184.268 63.2986V57.7739H183.382V66.0254H184.268V64.4082L185.365 63.3222L187.478 66.0254H188.588L185.991 62.7201L188.742 59.9224Z" fill="#172840"/>
<path d="M42.6268 58.6518L42.6217 58.6568L39.8264 58.3819L39.0168 58.3055L39.0117 58.2852C39.0525 58.2953 39.0932 58.3055 39.1339 58.3106L39.8264 58.3768L42.6268 58.6518Z" fill="#172840"/>
<path d="M24.9082 34.4663C24.8979 34.4868 24.8928 34.5073 24.8928 34.5277L24.8877 34.4868L24.9082 34.4663Z" fill="#172840"/>
<path fill-rule="evenodd" clip-rule="evenodd" d="M10.0355 65.561L9.9999 65.7035L10.1068 65.6424C10.0814 65.617 10.0559 65.5864 10.0355 65.561ZM9.35836 64.731L9.19033 64.8278C9.18524 64.8329 9.18015 64.8328 9.17506 64.843C9.24125 64.7972 9.31253 64.7717 9.38891 64.7616C9.37363 64.7514 9.36854 64.7412 9.35836 64.731ZM8.95103 65.0976C8.95103 65.0976 8.95103 65.1027 8.94594 65.1078C8.93066 65.1434 8.92048 65.174 8.91029 65.2096V65.23C8.9052 65.2605 8.90011 65.286 8.90011 65.3166L8.96121 65.0823L8.9663 65.0518C8.95612 65.0671 8.95103 65.0823 8.95103 65.0976ZM8.90011 65.342V65.3166C8.89502 65.3216 8.89502 65.3267 8.89502 65.3318V65.3369C8.89502 65.3777 8.90011 65.4184 8.91539 65.4591C8.9052 65.4235 8.90011 65.3827 8.90011 65.342ZM69.312 16.6966C69.3222 16.7119 69.3222 16.7221 69.3273 16.7374C69.3323 16.7272 69.3324 16.717 69.3324 16.7017C69.3273 16.7017 69.3222 16.6966 69.312 16.6966ZM56.3844 5.84127C56.364 5.826 56.3386 5.81072 56.3131 5.80054C56.3182 5.80563 56.3182 5.80563 56.3233 5.81072C56.3488 5.8209 56.3691 5.83618 56.3946 5.85145C56.3946 5.84636 56.3895 5.84636 56.3844 5.84127Z" fill="#172840"/>
<path fill-rule="evenodd" clip-rule="evenodd" d="M75.7325 52.0631L68.8741 50.8258C68.8843 50.8818 68.8843 50.9429 68.8843 50.9989C68.8843 51.3451 68.8283 51.671 68.7214 51.9816L75.3761 53.1832C74.0319 57.2209 72.0258 60.9632 69.4851 64.2728L66.868 53.8757C66.5422 53.9928 66.1959 54.059 65.8293 54.059C65.7886 54.059 65.7479 54.059 65.7122 54.0539L68.37 64.619L58.9404 59.1761C58.7571 59.5274 58.5025 59.838 58.197 60.0926L67.036 65.1944L54.1085 64.7565C54.251 65.1078 54.3274 65.4897 54.3274 65.8868V65.9327L67.7489 66.3807C65.0045 69.4764 61.7612 72.1241 58.1512 74.1964L53.3855 68.0966C53.1054 68.3665 52.7694 68.5803 52.3977 68.728L57.1176 74.7666C52.0515 77.4652 46.303 79.0538 40.2033 79.2065L48.9863 67.9133C48.7063 67.5976 48.4924 67.2259 48.3651 66.8186L39.8265 77.8012V67.73C39.6178 67.7707 39.4039 67.7962 39.185 67.7962C39.0068 67.7962 38.8286 67.7809 38.6605 67.7504V77.8165L30.6769 67.4194C30.4122 67.7045 30.0914 67.9388 29.735 68.1017L38.2634 79.2065C32.2299 79.0487 26.5425 77.4906 21.5171 74.8379L26.8939 67.954C26.5527 67.7555 26.2574 67.4907 26.0232 67.1801L20.4835 74.2727C16.6292 72.0833 13.1873 69.2422 10.3207 65.897L25.4122 65.6577C25.402 65.5508 25.3969 65.4439 25.3969 65.3318C25.3969 65.0416 25.4377 64.7565 25.514 64.4917L11.7311 64.7158L20.1526 59.9042C19.9082 59.5987 19.73 59.2423 19.6281 58.8604L10.3869 64.1404L12.9021 54.0539C12.4999 54.0335 12.118 53.9368 11.7718 53.7789L9.12415 64.4255C6.66491 61.2484 4.69446 57.674 3.32991 53.8146L10.2036 52.0936C10.0712 51.7525 9.99991 51.3859 9.99991 50.9989V50.948L2.95823 52.7046C1.89917 49.3798 1.28309 45.8564 1.18126 42.2057L10.4632 49.395C10.6669 49.059 10.9368 48.7637 11.2524 48.5346L2.46434 41.7271L12.5406 41.7831C12.4999 41.5743 12.4744 41.3605 12.4744 41.1364C12.4744 40.9582 12.4897 40.7851 12.5203 40.6171L2.46434 40.5662L11.2117 33.8758C10.9011 33.6416 10.6313 33.3462 10.4327 33.0051L1.18126 40.0774C1.29327 36.0193 2.04174 32.1141 3.32991 28.4685L10.0406 30.9735C10.0967 30.5764 10.2341 30.2047 10.4327 29.8788L3.73215 27.3789C5.02541 24.0387 6.78202 20.9227 8.9154 18.1172L11.6801 28.718C12.0162 28.5397 12.393 28.4328 12.7952 28.3972L10.0865 17.995L19.7147 23.5296C19.8522 23.1579 20.0609 22.8218 20.3308 22.5418L11.059 17.2109L24.9438 17.5113C24.8878 17.2822 24.8572 17.0429 24.8572 16.7985C24.8572 16.6457 24.8674 16.498 24.8929 16.3504L10.6109 16.0398C13.5691 12.6691 17.1129 9.82802 21.0792 7.66408L25.6362 14.7669C25.8908 14.4716 26.2065 14.2323 26.5629 14.0592L22.1128 7.12946C26.8989 4.70584 32.2604 3.27 37.9324 3.08161L29.5771 14.2374C29.9081 14.4512 30.1983 14.7313 30.4172 15.0571L38.6605 4.04902V14.4105C38.8489 14.3748 39.0475 14.3545 39.2461 14.3545C39.4447 14.3545 39.6381 14.3748 39.8265 14.4105V3.89118L48.1208 14.7516C48.3397 14.4258 48.6299 14.1508 48.9609 13.937L40.6768 3.0867C45.8703 3.27509 50.804 4.50727 55.2643 6.58465L51.6849 13.6518C52.0566 13.7842 52.3926 13.9981 52.6777 14.2628L56.3131 7.09381C60.7276 9.30867 64.6532 12.3636 67.8864 16.0449L53.6553 16.3504C53.6655 16.4013 53.6655 16.4573 53.6655 16.5082C53.6655 16.8596 53.6044 17.2007 53.4924 17.5164L67.0106 17.2262L58.2581 22.2821C58.5636 22.5367 58.8131 22.8473 58.9964 23.1986L68.37 17.7862L65.6664 28.4837C65.8293 28.4532 65.9974 28.4379 66.1705 28.4379C66.4047 28.4379 66.6338 28.4634 66.8528 28.5143L69.5055 18.0255C71.7916 21.0092 73.645 24.3442 74.9688 27.9338L68.7519 29.8687C68.9607 30.1945 69.1083 30.5611 69.1745 30.9532L75.3608 29.0285C76.5115 32.4654 77.1887 36.1161 77.3058 39.9094L68.6654 33.2546C68.4362 33.5805 68.146 33.8554 67.8151 34.0642L76.2417 40.556H66.2214C66.257 40.7444 66.2774 40.9379 66.2774 41.1364C66.2774 41.335 66.257 41.5285 66.2214 41.7169H76.2264L67.4485 48.4124C67.7896 48.6211 68.0798 48.8961 68.309 49.2219L77.3058 42.3635C77.1989 45.724 76.6592 48.9775 75.7325 52.0631ZM9.99991 65.7035L10.0356 65.561C10.0559 65.5864 10.0814 65.617 10.1068 65.6424L9.99991 65.7035ZM9.17507 64.843C9.18016 64.8329 9.18525 64.8329 9.19035 64.8278L9.35837 64.731C9.36855 64.7412 9.37364 64.7514 9.38892 64.7616C9.31254 64.7718 9.24126 64.7972 9.17507 64.843ZM8.96123 65.0824L8.90013 65.3166V65.342C8.90013 65.3828 8.90522 65.4235 8.9154 65.4591C8.90013 65.4184 8.89503 65.3777 8.89503 65.3369V65.3318C8.89503 65.3267 8.89504 65.3217 8.90013 65.3166C8.90013 65.286 8.90521 65.2606 8.91031 65.23V65.2096C8.9154 65.174 8.92558 65.1384 8.94595 65.1078C8.95104 65.1027 8.95104 65.0976 8.95104 65.0976C8.95104 65.0824 8.95613 65.0671 8.96631 65.0518L8.96123 65.0824ZM69.3324 16.7017C69.3324 16.717 69.3324 16.7272 69.3273 16.7374C69.3222 16.7221 69.3222 16.7119 69.312 16.6966C69.3222 16.6966 69.3273 16.7017 69.3324 16.7017ZM76.3028 28.219C76.3028 28.2088 76.3028 28.2037 76.2977 28.1935C76.2824 28.1375 76.262 28.0815 76.2366 28.0306C72.7896 18.2903 65.59 10.3219 56.3844 5.84127C56.3895 5.84637 56.3946 5.84637 56.3946 5.85146C56.3691 5.83618 56.3488 5.82091 56.3233 5.81072C56.3182 5.80563 56.3182 5.80563 56.3131 5.80054H56.308C56.303 5.79545 56.2928 5.79036 56.2877 5.79036C51.135 3.30055 45.3509 1.89526 39.2461 1.89526C17.5864 1.89526 0.0050916 19.4716 0 41.1313V41.1364C0 55.8309 8.09565 68.6465 20.0609 75.3725H20.066C20.2442 75.4744 20.4275 75.5762 20.6057 75.6729C26.1505 78.677 32.4997 80.3827 39.2461 80.3827C56.7968 80.3827 71.6694 68.8349 76.6796 52.9286C76.6948 52.8981 76.705 52.8624 76.7101 52.8268C77.8659 49.1354 78.4871 45.2046 78.4871 41.1364C78.4871 36.61 77.7182 32.2617 76.3028 28.219Z" fill="#172840"/>
<path fill-rule="evenodd" clip-rule="evenodd" d="M51.2011 43.5446L50.3356 44.843C50.2083 44.8023 50.081 44.7768 49.9486 44.7615C49.806 44.7361 49.6584 44.7259 49.5107 44.7259C49.3274 44.7259 49.1492 44.7412 48.9812 44.7717L50.4119 42.623C50.5545 42.8725 50.7225 43.0966 50.9262 43.2951V43.3002C51.0128 43.3868 51.1044 43.4683 51.2011 43.5446Z" fill="#172840"/>
<path fill-rule="evenodd" clip-rule="evenodd" d="M36.909 46.1721C36.5984 46.2027 36.3081 46.2791 36.0383 46.3962C35.9568 46.4318 35.8754 46.4725 35.799 46.5133L34.3937 42.053L32.5862 41.9817C32.632 41.829 32.6676 41.6711 32.688 41.5082C32.7135 41.3656 32.7237 41.218 32.7237 41.0703C32.7237 40.9889 32.7186 40.9074 32.7135 40.8259L34.8519 40.9074C35.0963 40.9176 35.3102 41.0805 35.3815 41.3147L36.909 46.1721Z" fill="#172840"/>
<path fill-rule="evenodd" clip-rule="evenodd" d="M56.3953 5.85196C56.3696 5.83652 56.349 5.82108 56.3232 5.81079C56.3438 5.82108 56.3644 5.83137 56.385 5.84166C56.3901 5.84681 56.3953 5.84681 56.3953 5.85196Z" fill="#172840"/>
<path fill-rule="evenodd" clip-rule="evenodd" d="M57.2854 56.167C57.3109 56.1823 57.3363 56.1975 57.3567 56.2179L57.4229 56.0601L57.2854 56.167Z" fill="#172840"/>
<path fill-rule="evenodd" clip-rule="evenodd" d="M62.3875 38.1988C62.0053 38.3057 61.6542 38.489 61.3488 38.7333L56.7509 27.6333C57.148 27.5772 57.5197 27.4453 57.8507 27.2416L62.3875 38.1988Z" fill="#172840"/>
<path fill-rule="evenodd" clip-rule="evenodd" d="M53.8236 22.8166C53.5941 23.1272 53.4213 23.4835 53.3295 23.8709L41.7968 19.0895C42.0108 18.7688 42.1634 18.4072 42.24 18.0205L53.8236 22.8166Z" fill="#172840"/>
<path fill-rule="evenodd" clip-rule="evenodd" d="M36.6951 19.0894L25.4933 23.7331C25.3813 23.3513 25.1932 22.9999 24.9485 22.6995L36.252 18.0153C36.3286 18.4074 36.4813 18.7691 36.6951 19.0894Z" fill="#172840"/>
<path fill-rule="evenodd" clip-rule="evenodd" d="M21.7666 27.5674L17.2045 38.5859C16.8836 38.372 16.522 38.219 16.1302 38.1378L20.7226 27.053C21.0283 27.2876 21.3845 27.4654 21.7666 27.5674Z" fill="#172840"/>
<path fill-rule="evenodd" clip-rule="evenodd" d="M63.0339 49.772C62.876 50.1233 62.7844 50.5052 62.7793 50.9125L59.7803 50.3677L57.8099 55.1233C57.4789 54.9196 57.1123 54.7821 56.7152 54.7261L58.6042 50.1589L52.3008 49.0235C52.4586 48.6773 52.5503 48.2903 52.5605 47.8881L59.0624 49.0592L61.3435 43.5449C61.649 43.7893 62.0054 43.9726 62.3872 44.0795L60.2386 49.2679L63.0339 49.772Z" fill="#172840"/>
<path fill-rule="evenodd" clip-rule="evenodd" d="M53.7418 59.492L42.1991 64.268C42.1431 63.8757 42.0058 63.5038 41.8072 63.1782L53.2684 58.4277C53.3547 58.8146 53.5181 59.1763 53.7418 59.492Z" fill="#172840"/>
<path fill-rule="evenodd" clip-rule="evenodd" d="M36.5882 63.1374C36.3847 63.4635 36.2419 63.8298 36.1757 64.2221L25.1575 59.6598C25.361 59.3391 25.5087 58.9726 25.5752 58.5756L36.5882 63.1374Z" fill="#172840"/>
<path fill-rule="evenodd" clip-rule="evenodd" d="M21.9091 55.052C21.5224 55.1334 21.1605 55.291 20.8448 55.5152L16.1301 44.1356C16.5223 44.0593 16.8839 43.9065 17.2044 43.6924L21.9091 55.052Z" fill="#172840"/>
<path fill-rule="evenodd" clip-rule="evenodd" d="M39.8264 20.4084V27.1294C39.638 27.0938 39.4445 27.0734 39.2459 27.0734C39.0474 27.0734 38.8488 27.0938 38.6604 27.1294V20.4084C38.8488 20.4441 39.0474 20.4645 39.2459 20.4645C39.4445 20.4645 39.638 20.4441 39.8264 20.4084Z" fill="#172840"/>
<path fill-rule="evenodd" clip-rule="evenodd" d="M60.1675 41.1366C60.1675 41.3352 60.1878 41.5287 60.2235 41.717H56.084C56.1196 41.5287 56.14 41.3352 56.14 41.1366C56.14 40.938 56.1196 40.7445 56.084 40.5562H60.2235C60.1878 40.7445 60.1675 40.938 60.1675 41.1366Z" fill="#172840"/>
<path fill-rule="evenodd" clip-rule="evenodd" d="M18.5078 41.8137C18.5587 41.5948 18.5842 41.3708 18.5842 41.1365C18.5842 40.9685 18.5689 40.8107 18.5435 40.6528L26.634 40.6936C26.6187 40.8158 26.6086 40.9431 26.6086 41.0703C26.6086 41.3402 26.6442 41.605 26.7155 41.8545L18.5078 41.8137Z" fill="#172840"/>
<path fill-rule="evenodd" clip-rule="evenodd" d="M20.6056 75.673C20.4682 75.6882 20.3307 75.6475 20.2187 75.5559C20.1525 75.5049 20.1016 75.4438 20.0659 75.3726C20.2441 75.4744 20.4274 75.5762 20.6056 75.673Z" fill="#172840"/>
<path fill-rule="evenodd" clip-rule="evenodd" d="M63.9409 51.0906V51.1218L63.9097 51.1166L63.9409 51.0906Z" fill="#172840"/>
<path fill-rule="evenodd" clip-rule="evenodd" d="M76.2977 28.1934C76.2824 28.1374 76.262 28.0814 76.2366 28.0305C76.2569 28.0611 76.2722 28.0967 76.2824 28.1324C76.2875 28.1527 76.2926 28.1731 76.2977 28.1934Z" fill="#172840"/>
<path fill-rule="evenodd" clip-rule="evenodd" d="M56.3942 5.85141C56.3689 5.83619 56.3484 5.82097 56.3231 5.81056C56.3178 5.80548 56.3178 5.80548 56.313 5.80068C56.3386 5.81066 56.3639 5.82588 56.3842 5.84154C56.3894 5.84661 56.3942 5.84661 56.3942 5.85141Z" fill="#172840"/>
<path fill-rule="evenodd" clip-rule="evenodd" d="M8.91514 65.4592C8.89987 65.4185 8.89478 65.3777 8.89478 65.337V65.3319C8.89478 65.3268 8.89478 65.3217 8.89987 65.3167V65.3421C8.89987 65.3828 8.90496 65.4236 8.91514 65.4592Z" fill="#172840"/>
<path fill-rule="evenodd" clip-rule="evenodd" d="M8.96634 65.052L8.96125 65.0826L8.90015 65.3168C8.90015 65.2862 8.90524 65.2608 8.91033 65.2302V65.2098C8.92051 65.1742 8.9307 65.1437 8.94597 65.108C8.95106 65.1029 8.95106 65.0978 8.95106 65.0978C8.95106 65.0826 8.95615 65.0673 8.96634 65.052Z" fill="#172840"/>
<path fill-rule="evenodd" clip-rule="evenodd" d="M9.38879 64.7616C9.31231 64.772 9.2413 64.7973 9.17496 64.843C9.18012 64.8327 9.18495 64.8327 9.19026 64.8278L9.35819 64.731C9.3685 64.741 9.37365 64.7516 9.38879 64.7616Z" fill="#172840"/>
<path fill-rule="evenodd" clip-rule="evenodd" d="M10.1069 65.6425L10 65.7036L10.0356 65.561C10.056 65.5865 10.0815 65.617 10.1069 65.6425Z" fill="#172840"/>
<path fill-rule="evenodd" clip-rule="evenodd" d="M35.0914 51.3605L25.4072 56.9002H25.4021C25.2595 56.5336 25.0406 56.2026 24.7708 55.9226L34.4346 50.3931C34.5925 50.7597 34.8165 51.0855 35.0914 51.3605Z" fill="#172840"/>
<path fill-rule="evenodd" clip-rule="evenodd" d="M30.1574 28.1885L29.3888 29.0895L24.9487 26.5384C25.1933 26.2384 25.3814 25.8869 25.4934 25.51L30.1574 28.1885Z" fill="#172840"/>
<path fill-rule="evenodd" clip-rule="evenodd" d="M36.6544 28.5144C36.5373 28.6926 36.4456 28.8861 36.3743 29.0898C36.2929 29.3087 36.2368 29.5327 36.2114 29.772L34.8927 28.2751L31.1911 28.769L26.0893 34.7669L26.909 39.1508L27.1636 39.3188C26.9854 39.5683 26.8479 39.8433 26.7563 40.1386C26.7257 40.22 26.7054 40.3066 26.685 40.3932L26.0638 39.9858C25.9314 39.8993 25.8398 39.7618 25.8092 39.604L24.8978 34.7058C24.8877 34.6447 24.8826 34.5836 24.8928 34.5276C24.8928 34.5072 24.8978 34.4869 24.908 34.4665C24.9233 34.3749 24.964 34.2934 25.0251 34.2221L29.3886 29.0898L30.1575 28.1885L30.4528 27.8423C30.5444 27.7303 30.6768 27.659 30.8194 27.6437L35.0505 27.0786C35.2389 27.0531 35.4324 27.1244 35.5648 27.272L36.6544 28.5144Z" fill="#172840"/>
<path fill-rule="evenodd" clip-rule="evenodd" d="M53.6549 56.1265C53.4415 56.4574 53.2987 56.8292 53.2325 57.2259L47.2042 53.7437L47.978 52.8522L53.6549 56.1265Z" fill="#172840"/>
<path fill-rule="evenodd" clip-rule="evenodd" d="M48.5689 50.6885L48.131 52.5724C48.1106 52.664 48.0648 52.7506 48.0037 52.8219L47.9782 52.8524L47.2043 53.7435L43.131 58.4532C43.0088 58.6009 42.8204 58.6722 42.632 58.6518H42.627L39.8266 58.3768L39.1341 58.3107C39.0934 58.3056 39.0526 58.2954 39.0119 58.2852C38.8643 58.2343 38.737 58.1325 38.6708 57.9899V57.9848C38.6504 57.9441 38.6351 57.9033 38.625 57.8626L37.3521 52.2414C37.4488 52.2414 37.5455 52.2313 37.6372 52.216C37.9376 52.1803 38.2176 52.0989 38.4824 51.9818L39.6636 57.1956L42.4487 57.4654L47.0312 52.1702L47.5149 50.0928C47.7135 50.2659 47.9375 50.4135 48.1768 50.5307C48.3041 50.5918 48.4314 50.6427 48.5689 50.6885Z" fill="#172840"/>
<path fill-rule="evenodd" clip-rule="evenodd" d="M53.706 26.2485L45.8496 30.7852L45.254 29.7874L53.2835 25.1543C53.3498 25.5511 53.4974 25.9227 53.706 26.2485Z" fill="#172840"/>
<path fill-rule="evenodd" clip-rule="evenodd" d="M53.482 38.1121C53.3496 38.0918 53.2172 38.0816 53.0849 38.0816C52.8405 38.0816 52.6012 38.1121 52.372 38.1682H52.3669C51.8832 38.2802 51.4454 38.5144 51.0839 38.8301L49.7346 38.9166C49.5207 38.9319 49.312 38.8199 49.2 38.6366L44.368 30.5664L42.2041 30.8769C42.2703 30.6376 42.3008 30.3881 42.3008 30.1285C42.3008 30.0928 42.3008 30.0572 42.2958 30.0266C42.2958 29.9146 42.2856 29.8026 42.2652 29.6957L44.5819 29.3596C44.8161 29.3291 45.0452 29.436 45.1623 29.6397L45.254 29.7873L45.8497 30.7853L50.0146 37.7303L52.8354 37.5521C53.095 37.5368 53.3343 37.6946 53.4209 37.939L53.482 38.1121Z" fill="#172840"/>
<path fill-rule="evenodd" clip-rule="evenodd" d="M55.0045 21.8496C54.6431 22.0121 54.3273 22.2467 54.0627 22.5318L51.654 19.38C52.0261 19.2475 52.367 19.039 52.6521 18.7741L55.0045 21.8496Z" fill="#172840"/>
<path fill-rule="evenodd" clip-rule="evenodd" d="M65.361 34.4358L64.3783 38.3105C64.027 38.1631 63.6451 38.0867 63.243 38.0814L64.2969 33.9011C64.6076 34.1506 64.9687 34.3341 65.361 34.4358Z" fill="#172840"/>
<path fill-rule="evenodd" clip-rule="evenodd" d="M69.3324 16.7019C69.3324 16.7171 69.3324 16.7273 69.3273 16.7375C69.3222 16.7222 69.3222 16.7121 69.312 16.6968C69.3222 16.6968 69.3273 16.7019 69.3324 16.7019Z" fill="#172840"/>
<path fill-rule="evenodd" clip-rule="evenodd" d="M57.4231 56.0601L57.3569 56.2179C57.3366 56.1975 57.3111 56.1823 57.2856 56.167L57.4231 56.0601Z" fill="#172840"/>
<path fill-rule="evenodd" clip-rule="evenodd" d="M63.4568 52.9287L58.9657 56.3505C58.7876 55.9991 58.5378 55.683 58.2428 55.4335L62.9014 51.8796C63.0184 52.2667 63.2071 52.6229 63.4568 52.9287Z" fill="#172840"/>
<path fill-rule="evenodd" clip-rule="evenodd" d="M63.9409 51.0906V51.1218L63.9097 51.1166L63.9409 51.0906Z" fill="#172840"/>
<path fill-rule="evenodd" clip-rule="evenodd" d="M48.518 64.5681C48.3499 64.9195 48.243 65.3115 48.2277 65.7239L42.1382 65.5203C42.2044 65.2708 42.24 65.0111 42.24 64.7412C42.24 64.614 42.2298 64.4867 42.2146 64.3594L48.518 64.5681Z" fill="#172840"/>
<path fill-rule="evenodd" clip-rule="evenodd" d="M27.0059 62.6383C26.6595 62.8268 26.3543 63.0762 26.1045 63.3765L24.0526 60.7085C24.3935 60.5152 24.6992 60.2606 24.9434 59.9604L27.0059 62.6383Z" fill="#172840"/>
<path fill-rule="evenodd" clip-rule="evenodd" d="M8.91514 65.4591C8.89987 65.4183 8.89478 65.3776 8.89478 65.3369V65.3318H8.89987V65.342C8.89987 65.3827 8.90496 65.4234 8.91514 65.4591Z" fill="#172840"/>
<path fill-rule="evenodd" clip-rule="evenodd" d="M9.38879 64.7616C9.31231 64.772 9.2413 64.7973 9.17496 64.843C9.18012 64.8327 9.18495 64.8327 9.19026 64.8278L9.35819 64.731C9.3685 64.741 9.37365 64.7516 9.38879 64.7616Z" fill="#172840"/>
<path fill-rule="evenodd" clip-rule="evenodd" d="M15.3564 44.1863L14.3483 48.2342C14.0068 48.0715 13.625 47.9696 13.2227 47.9544L14.2308 43.9065C14.5723 44.0692 14.9541 44.1711 15.3564 44.1863Z" fill="#172840"/>
<path fill-rule="evenodd" clip-rule="evenodd" d="M20.4476 26.8138L15.8908 30.3014C15.743 29.9349 15.5244 29.604 15.2493 29.3241L19.7758 25.8616C19.9333 26.2232 20.1628 26.549 20.4476 26.8138Z" fill="#172840"/>
<path fill-rule="evenodd" clip-rule="evenodd" d="M36.1909 17.4096C36.1909 17.5267 36.196 17.6438 36.2113 17.7558L30.8499 17.6387C30.9262 17.3739 30.967 17.0888 30.967 16.7986C30.967 16.6917 30.9619 16.5847 30.9517 16.4829L36.303 16.5949C36.2266 16.8546 36.1909 17.1295 36.1909 17.4096Z" fill="#172840"/>
<path fill-rule="evenodd" clip-rule="evenodd" d="M42.2806 17.7556C42.2959 17.6436 42.301 17.5264 42.301 17.4093C42.301 17.1293 42.2653 16.8544 42.189 16.5947L47.5555 16.4827V16.5081C47.5555 16.9053 47.6319 17.2871 47.7745 17.6385L42.2806 17.7556Z" fill="#172840"/>
<path fill-rule="evenodd" clip-rule="evenodd" d="M69.3324 16.7019C69.3324 16.7171 69.3324 16.7273 69.3273 16.7375C69.3222 16.7222 69.3222 16.7121 69.312 16.6968C69.3222 16.6968 69.3273 16.7019 69.3324 16.7019Z" fill="#172840"/>
<path fill-rule="evenodd" clip-rule="evenodd" d="M36.8021 17.7914L36.8479 17.771H36.8021C36.797 17.7761 36.8021 17.7863 36.8021 17.7914ZM41.6391 17.771L41.69 17.7914C41.69 17.7863 41.6951 17.7761 41.6951 17.771H41.6391Z" fill="#172840"/>
<path fill-rule="evenodd" clip-rule="evenodd" d="M36.8021 17.7914L36.8479 17.771H36.8021C36.797 17.7761 36.8021 17.7863 36.8021 17.7914ZM41.6391 17.771L41.69 17.7914C41.69 17.7863 41.6951 17.7761 41.6951 17.771H41.6391Z" fill="#172840"/>
<path fill-rule="evenodd" clip-rule="evenodd" d="M41.6898 17.7913L41.6389 17.771H41.6949C41.6949 17.7761 41.6898 17.7862 41.6898 17.7913ZM41.1247 17.5571C41.1247 17.6335 41.1145 17.7048 41.0992 17.7812C41.033 18.0968 40.8905 18.3922 40.6817 18.6315C40.4628 18.8962 40.1675 19.0999 39.8263 19.2068C39.643 19.2679 39.4495 19.2985 39.2459 19.2985C39.0422 19.2985 38.8436 19.2679 38.6603 19.2017C38.3243 19.0948 38.029 18.8962 37.805 18.6315C37.6013 18.3922 37.4536 18.0968 37.3925 17.7812C37.3722 17.7048 37.362 17.6335 37.362 17.5571C37.3518 17.5062 37.3518 17.4604 37.3518 17.4095C37.3518 17.1294 37.4129 16.8647 37.5249 16.6254C37.7388 16.1467 38.1512 15.7751 38.6603 15.6121C38.8436 15.5459 39.0422 15.5154 39.2459 15.5154C39.4495 15.5154 39.643 15.5459 39.8263 15.607C40.3355 15.77 40.7479 16.1467 40.9618 16.6254C41.0738 16.8647 41.1349 17.1294 41.1349 17.4095C41.1349 17.4604 41.1349 17.5062 41.1247 17.5571ZM36.8019 17.7913C36.8019 17.7862 36.7968 17.7761 36.8019 17.771H36.8477L36.8019 17.7913ZM42.1888 16.5948C41.8833 15.4848 40.9668 14.6294 39.8263 14.4105C39.6379 14.3749 39.4445 14.3545 39.2459 14.3545C39.0473 14.3545 38.8487 14.3749 38.6603 14.4105C37.5198 14.6345 36.6084 15.4899 36.3029 16.5948C36.2266 16.8545 36.1909 17.1294 36.1909 17.4095C36.1909 17.5266 36.196 17.6437 36.2113 17.7557C36.2215 17.8423 36.2317 17.9288 36.252 18.0154C36.3284 18.4074 36.4811 18.7689 36.695 19.0897C37.138 19.7618 37.8406 20.2506 38.6603 20.4084C38.8487 20.4441 39.0473 20.4644 39.2459 20.4644C39.4445 20.4644 39.6379 20.4441 39.8263 20.4084C40.6461 20.2506 41.3538 19.7618 41.7968 19.0897C42.0106 18.7689 42.1634 18.4074 42.2397 18.0205C42.255 17.9339 42.2703 17.8473 42.2805 17.7557C42.2958 17.6437 42.3008 17.5266 42.3008 17.4095C42.3008 17.1294 42.2652 16.8545 42.1888 16.5948Z" fill="#172840"/>
<path fill-rule="evenodd" clip-rule="evenodd" d="M63.8286 29.5273C63.5737 29.828 63.3803 30.1742 63.2579 30.5559L58.406 26.8185C58.6907 26.5538 58.9201 26.2279 59.078 25.872L63.8286 29.5273Z" fill="#172840"/>
<path fill-rule="evenodd" clip-rule="evenodd" d="M65.3866 47.9796C64.9891 48.0303 64.6176 48.1681 64.2866 48.3666L63.2379 44.1964C63.6397 44.1966 64.0266 44.115 64.3784 43.9673L65.3866 47.9796Z" fill="#172840"/>
<path fill-rule="evenodd" clip-rule="evenodd" d="M54.8005 60.4337L52.6722 63.173C52.3058 62.9799 51.8934 62.8626 51.4554 62.8421L53.8994 59.6956C54.149 59.9959 54.4546 60.2507 54.8005 60.4337Z" fill="#172840"/>
<path fill-rule="evenodd" clip-rule="evenodd" d="M8.961 65.0825L8.8999 65.3167C8.8999 65.2862 8.90499 65.2607 8.91009 65.2302V65.2098C8.92027 65.1742 8.93045 65.1436 8.94573 65.108C8.95082 65.1029 8.95082 65.0978 8.95082 65.0978C8.95082 65.0927 8.95591 65.0876 8.961 65.0825Z" fill="#172840"/>
<path fill-rule="evenodd" clip-rule="evenodd" d="M10.1069 65.6425L10 65.7036L10.0356 65.561C10.056 65.5865 10.0815 65.617 10.1069 65.6425Z" fill="#172840"/>
<path fill-rule="evenodd" clip-rule="evenodd" d="M31.4966 65.561C31.5017 65.4846 31.5068 65.4082 31.5068 65.3319C31.5068 65.006 31.4559 64.6954 31.3643 64.4001L36.1605 64.3237C36.1402 64.4612 36.13 64.5987 36.13 64.7412C36.13 64.9958 36.1605 65.2453 36.2216 65.4846L31.4966 65.561Z" fill="#172840"/>
<path fill-rule="evenodd" clip-rule="evenodd" d="M20.555 55.7394C20.2595 55.9935 20.0152 56.3094 19.8421 56.6606L15.2596 53.1121C15.5294 52.8316 15.7484 52.4957 15.8909 52.1294L20.555 55.7394Z" fill="#172840"/>
<path fill-rule="evenodd" clip-rule="evenodd" d="M15.3204 38.0917C14.9183 38.1167 14.5413 38.2187 14.2005 38.3868L13.1818 34.4916C13.5891 34.4765 13.9713 34.3851 14.3173 34.2269L15.3204 38.0917Z" fill="#172840"/>
<path fill-rule="evenodd" clip-rule="evenodd" d="M26.9448 19.6956L24.8114 22.5469C24.5466 22.2617 24.231 22.0223 23.8693 21.8598L25.9264 19.1155C26.2217 19.3752 26.5682 19.5734 26.9448 19.6956Z" fill="#172840"/>
<path fill-rule="evenodd" clip-rule="evenodd" d="M39.8264 58.3818V61.7525C39.6176 61.7117 39.4038 61.6863 39.1848 61.6863C39.0066 61.6863 38.8284 61.7015 38.6604 61.7321V58.0763C38.6604 58.0458 38.6604 58.0203 38.6706 57.9897C38.7368 58.1323 38.8641 58.2341 39.0117 58.2851L39.0168 58.3054L39.8264 58.3818Z" fill="#172840"/>
<path fill-rule="evenodd" clip-rule="evenodd" d="M39.8264 58.3768V58.3819L39.0168 58.3055L39.0117 58.2852C39.0525 58.2953 39.0932 58.3055 39.1339 58.3106L39.8264 58.3768Z" fill="#172840"/>
<path fill-rule="evenodd" clip-rule="evenodd" d="M29.6178 17.613C29.3123 18.2495 28.6657 18.6874 27.9121 18.6874C27.8459 18.6874 27.7747 18.6823 27.7085 18.6772C27.2961 18.6314 26.9193 18.4532 26.6291 18.1782C26.4356 18.0051 26.2777 17.7862 26.1759 17.5367H26.1708C26.0741 17.3075 26.0232 17.0581 26.0232 16.7984C26.0232 16.6558 26.0384 16.5133 26.069 16.3758C26.1148 16.1721 26.1963 15.9837 26.3032 15.8106C26.5069 15.4695 26.8225 15.1996 27.1942 15.0469C27.4132 14.9552 27.6576 14.9043 27.9121 14.9043C28.2635 14.9043 28.5995 15.001 28.8795 15.1742C29.2258 15.3778 29.5058 15.6935 29.6637 16.0703C29.7095 16.1925 29.7502 16.3249 29.7706 16.4572C29.796 16.5693 29.8062 16.6813 29.8062 16.7984C29.8062 17.0886 29.74 17.3686 29.6178 17.613ZM30.9518 16.4827C30.8958 15.9532 30.7074 15.4695 30.4172 15.057C30.1983 14.7312 29.908 14.4511 29.5771 14.2373C29.0985 13.9216 28.5282 13.7434 27.9121 13.7434C27.4284 13.7434 26.9702 13.8554 26.5629 14.0591C26.2065 14.2322 25.8908 14.4715 25.6362 14.7668C25.2441 15.1996 24.9794 15.7444 24.8928 16.3503C24.8674 16.498 24.8572 16.6456 24.8572 16.7984C24.8572 17.0428 24.8877 17.2821 24.9437 17.5112C25.0914 18.1477 25.4478 18.7077 25.9264 19.1151C26.2217 19.3747 26.568 19.5733 26.9447 19.6955C27.2502 19.7974 27.5761 19.8534 27.9121 19.8534C29.3123 19.8534 30.4885 18.9165 30.85 17.6385C30.9264 17.3737 30.9671 17.0886 30.9671 16.7984C30.9671 16.6915 30.962 16.5845 30.9518 16.4827Z" fill="#172840"/>
<path fill-rule="evenodd" clip-rule="evenodd" d="M15.6517 42.99L15.6674 43.0266H15.6465L15.6517 42.99Z" fill="#172840"/>
<path fill-rule="evenodd" clip-rule="evenodd" d="M15.6672 39.2527L15.6416 39.3141L15.6262 39.2527H15.6672Z" fill="#172840"/>
<path fill-rule="evenodd" clip-rule="evenodd" d="M17.2961 41.8035C17.1841 42.109 16.9906 42.3789 16.7462 42.5825C16.4509 42.832 16.0741 42.995 15.6668 43.0255H15.6464C15.6057 43.0306 15.5701 43.0306 15.5293 43.0306C15.1627 43.0306 14.8114 42.9237 14.5212 42.7353C14.1699 42.5163 13.8949 42.1854 13.7524 41.7882C13.676 41.5846 13.6353 41.3656 13.6353 41.1365C13.6353 40.9583 13.6607 40.7903 13.7065 40.6274C13.8338 40.1793 14.119 39.7974 14.5008 39.5479C14.7961 39.3595 15.1525 39.2475 15.5293 39.2475C15.5599 39.2475 15.5955 39.2475 15.6261 39.2526H15.6668C16.0741 39.2832 16.4509 39.441 16.7462 39.6905C17.0364 39.9349 17.2554 40.2659 17.3521 40.6477C17.3979 40.8056 17.4183 40.9685 17.4183 41.1365C17.4183 41.3707 17.3776 41.5948 17.2961 41.8035ZM18.5436 40.6528C18.4061 39.7872 17.9071 39.0439 17.2045 38.5856C16.8837 38.3718 16.5222 38.219 16.1301 38.1376C15.9367 38.1019 15.733 38.0815 15.5293 38.0815C15.458 38.0815 15.3868 38.0815 15.3206 38.0917C14.9183 38.1172 14.5416 38.219 14.2004 38.387C13.3298 38.8096 12.6882 39.6345 12.5202 40.6172C12.4896 40.7852 12.4744 40.9583 12.4744 41.1365C12.4744 41.3606 12.4998 41.5744 12.5406 41.7832H12.5456C12.7442 42.7251 13.3807 43.5092 14.231 43.9064C14.5721 44.0693 14.954 44.1711 15.3562 44.1864C15.4122 44.1966 15.4682 44.1966 15.5293 44.1966C15.733 44.1966 15.9367 44.1762 16.1301 44.1355C16.5222 44.0591 16.8837 43.9064 17.2045 43.6925C17.8511 43.2699 18.3297 42.5978 18.5079 41.8137C18.5588 41.5948 18.5843 41.3707 18.5843 41.1365C18.5843 40.9685 18.569 40.8107 18.5436 40.6528Z" fill="#172840"/>
<path fill-rule="evenodd" clip-rule="evenodd" d="M24.6077 59.4309C24.6026 59.4461 24.5924 59.4614 24.5771 59.4767L24.5059 59.3901L24.6077 59.4309Z" fill="#172840"/>
<path fill-rule="evenodd" clip-rule="evenodd" d="M24.5059 59.3899L24.5771 59.4765C24.5924 59.4612 24.6026 59.4459 24.6077 59.4306L24.5059 59.3899Z" fill="#172840"/>
<path fill-rule="evenodd" clip-rule="evenodd" d="M24.5771 59.4764L24.5058 59.3898L24.6077 59.4305C24.6026 59.4458 24.5924 59.4611 24.5771 59.4764ZM24.4549 58.1118C24.4447 58.4326 24.3531 58.7279 24.2004 58.9876C24.1596 59.064 24.1087 59.1352 24.0527 59.2014C23.8643 59.4458 23.6148 59.6444 23.3297 59.7717C23.0955 59.8735 22.8358 59.9295 22.5659 59.9295C22.0161 59.9295 21.5171 59.6902 21.1759 59.3134C20.9112 59.0283 20.7381 58.6617 20.6922 58.2544C20.6821 58.1831 20.677 58.1118 20.677 58.0354C20.677 57.8063 20.7177 57.5925 20.789 57.3939C20.8959 57.0986 21.0741 56.8338 21.3083 56.6352C21.3694 56.5741 21.4356 56.5232 21.5018 56.4774C21.7513 56.3043 22.0517 56.1923 22.3674 56.1566C22.4336 56.1515 22.4998 56.1465 22.5659 56.1465C22.9936 56.1465 23.3908 56.289 23.7065 56.5283C24.0221 56.7676 24.2615 57.0986 24.3786 57.4855C24.4295 57.6587 24.46 57.842 24.46 58.0354C24.46 58.0609 24.46 58.0864 24.4549 58.1118ZM25.4071 56.9H25.402C25.2594 56.5334 25.0405 56.2025 24.7706 55.9224C24.2156 55.342 23.4315 54.9805 22.5659 54.9805C22.3419 54.9805 22.1179 55.0059 21.9091 55.0518C21.5222 55.1332 21.1607 55.2911 20.845 55.5151C20.7432 55.5813 20.6464 55.6577 20.5548 55.7391C20.2595 55.9937 20.0151 56.3094 19.8419 56.6607C19.6281 57.0731 19.511 57.5416 19.511 58.0354C19.511 58.3206 19.5517 58.6006 19.6281 58.8603C19.7299 59.2422 19.9081 59.5986 20.1525 59.9041C20.7075 60.6271 21.5833 61.0904 22.5659 61.0904C23.1057 61.0904 23.6148 60.9529 24.0527 60.7085C24.3938 60.5151 24.6993 60.2605 24.9437 59.9601C25.0201 59.8684 25.0914 59.7666 25.1576 59.6597C25.3612 59.3389 25.5089 58.9723 25.5751 58.5752C25.6107 58.402 25.626 58.2187 25.626 58.0354C25.626 57.6332 25.5496 57.2513 25.4071 56.9Z" fill="#172840"/>
<path fill-rule="evenodd" clip-rule="evenodd" d="M41.0789 64.7413C41.0789 65.0009 41.028 65.2504 40.9313 65.4795C40.7225 65.9632 40.3254 66.3451 39.8264 66.5233C39.6278 66.5946 39.4089 66.6353 39.1848 66.6353C39.0015 66.6353 38.8284 66.6099 38.6604 66.559C38.1054 66.4011 37.6574 65.9887 37.4384 65.4643C37.3468 65.2402 37.2959 64.9958 37.2959 64.7413C37.2959 64.726 37.2959 64.7056 37.301 64.6903C37.301 64.558 37.3162 64.4307 37.3468 64.3034C37.4079 64.0386 37.525 63.7993 37.6879 63.5905C37.9272 63.2749 38.2684 63.0356 38.6604 62.9235C38.8284 62.8726 39.0015 62.8472 39.1848 62.8472C39.4089 62.8472 39.6278 62.8879 39.8264 62.9592C40.1879 63.0916 40.4985 63.3258 40.7123 63.6313C40.8651 63.8349 40.972 64.0692 41.028 64.3187C41.0636 64.451 41.0789 64.5936 41.0789 64.7362V64.7413ZM42.2143 64.3594C42.2143 64.3288 42.2093 64.3034 42.1991 64.2728V64.2677C42.1431 63.8757 42.0056 63.504 41.807 63.1781C41.3844 62.4602 40.6716 61.9358 39.8264 61.7525C39.6176 61.7117 39.4038 61.6863 39.1848 61.6863C39.0066 61.6863 38.8284 61.7016 38.6604 61.7321C37.7847 61.8849 37.0362 62.4093 36.5881 63.1374C36.3845 63.4633 36.2419 63.8299 36.1757 64.2219C36.1706 64.2525 36.1604 64.2881 36.1604 64.3237C36.1401 64.4612 36.1299 64.5987 36.1299 64.7413C36.1299 64.9958 36.1604 65.2453 36.2215 65.4846C36.5118 66.6455 37.469 67.5416 38.6604 67.7504C38.8284 67.781 39.0066 67.7962 39.1848 67.7962C39.4038 67.7962 39.6176 67.7708 39.8264 67.73C40.9567 67.4856 41.8478 66.6252 42.138 65.5203C42.2042 65.2708 42.2398 65.0111 42.2398 64.7413C42.2398 64.614 42.2296 64.4867 42.2143 64.3594Z" fill="#172840"/>
<path fill-rule="evenodd" clip-rule="evenodd" d="M54.3579 57.8777L54.4597 57.9337L54.3681 57.9744C54.363 57.9439 54.3579 57.9133 54.3579 57.8777Z" fill="#172840"/>
<path fill-rule="evenodd" clip-rule="evenodd" d="M57.4231 56.0601L57.3569 56.2179C57.3366 56.1975 57.3111 56.1823 57.2856 56.167L57.4231 56.0601Z" fill="#172840"/>
<path fill-rule="evenodd" clip-rule="evenodd" d="M57.2854 56.167C57.3109 56.1823 57.3363 56.1975 57.3567 56.2179L57.4229 56.0601L57.2854 56.167Z" fill="#172840"/>
<path fill-rule="evenodd" clip-rule="evenodd" d="M57.9321 58.5957C57.7438 58.9623 57.4433 59.2627 57.0717 59.4409C56.8222 59.5631 56.5421 59.6344 56.2417 59.6344C55.9922 59.6344 55.7529 59.5834 55.534 59.4969C55.2743 59.39 55.0452 59.2321 54.8619 59.0285C54.7753 58.9419 54.7041 58.8452 54.643 58.7433C54.4953 58.5142 54.4037 58.2545 54.368 57.9745C54.3629 57.9439 54.3578 57.9134 54.3578 57.8778C54.3527 57.8319 54.3527 57.7861 54.3527 57.7403C54.3527 57.3533 54.4648 57.002 54.6633 56.7067C54.9994 56.1924 55.5798 55.8513 56.2417 55.8513H56.2519C56.6338 55.8513 56.9902 55.9684 57.2855 56.167L57.423 56.06L57.3568 56.2179C57.6572 56.4317 57.8863 56.727 58.0136 57.0784C58.0951 57.282 58.1358 57.5061 58.1358 57.7403C58.1358 58.0509 58.0594 58.3411 57.9321 58.5957ZM58.9657 56.3503C58.7875 55.9989 58.538 55.6833 58.2427 55.4338C58.1103 55.3116 57.9627 55.2097 57.8099 55.1232C57.479 54.9195 57.1124 54.782 56.7152 54.726C56.5625 54.6955 56.4047 54.6853 56.2417 54.6853C55.1521 54.6853 54.1898 55.2607 53.6552 56.1262C53.4413 56.4572 53.2988 56.8289 53.2326 57.226C53.202 57.394 53.1868 57.5672 53.1868 57.7403C53.1868 57.9745 53.2122 58.2036 53.2682 58.4276C53.3548 58.8146 53.5177 59.1761 53.7418 59.4918C53.7927 59.5631 53.8436 59.6293 53.8996 59.6955C54.1491 59.9959 54.4546 60.2505 54.8008 60.4337C55.2285 60.6629 55.7173 60.7953 56.2417 60.7953C56.9851 60.7953 57.6623 60.5305 58.1918 60.0926H58.1969C58.5024 59.838 58.757 59.5274 58.9403 59.1761C59.1745 58.7484 59.3018 58.2596 59.3018 57.7403C59.3018 57.2413 59.1796 56.7678 58.9657 56.3503Z" fill="#172840"/>
<path fill-rule="evenodd" clip-rule="evenodd" d="M58.1104 25.1233C58.0035 25.5153 57.7744 25.8565 57.4689 26.0958C57.4434 26.1161 57.4231 26.1365 57.3976 26.1518C57.087 26.3809 56.7051 26.5133 56.2876 26.5133C55.6308 26.5133 55.0555 26.1772 54.7194 25.6681C54.5157 25.3677 54.3986 25.0061 54.3986 24.6192C54.3986 24.5835 54.3986 24.5428 54.4037 24.5072C54.4037 24.4461 54.4139 24.385 54.4241 24.3239C54.4699 24.0133 54.5972 23.7231 54.7856 23.4787C54.8314 23.4125 54.8874 23.3463 54.9485 23.2852C55.1624 23.0662 55.4322 22.9033 55.7326 22.8117C55.9058 22.7556 56.0941 22.7251 56.2876 22.7251C56.5931 22.7251 56.8833 22.7964 57.1379 22.9288C57.5045 23.1121 57.8049 23.4125 57.9831 23.7842C58.1104 24.0336 58.1817 24.3188 58.1817 24.6192C58.1817 24.7923 58.1562 24.9654 58.1104 25.1233ZM58.9964 23.1986C58.8131 22.8473 58.5636 22.5367 58.2581 22.2821C57.7286 21.8341 57.0412 21.5642 56.2876 21.5642C55.8294 21.5642 55.3915 21.666 55.0045 21.8493C54.643 22.0123 54.3274 22.2465 54.0626 22.5316C53.976 22.6182 53.8946 22.7149 53.8233 22.8167C53.5942 23.1273 53.4211 23.4838 53.3294 23.8707C53.2632 24.11 53.2327 24.3595 53.2327 24.6192C53.2327 24.8025 53.2479 24.9807 53.2836 25.1538C53.3498 25.551 53.4974 25.9226 53.7062 26.2485C54.2459 27.1039 55.2031 27.6742 56.2876 27.6742C56.4455 27.6742 56.5982 27.664 56.751 27.6334C57.1481 27.5774 57.5198 27.445 57.8507 27.2414C58.0544 27.1243 58.2377 26.9817 58.4057 26.8188C58.6909 26.554 58.92 26.2281 59.0778 25.8717C59.2509 25.4899 59.3477 25.0672 59.3477 24.6192C59.3477 24.1049 59.2204 23.6212 58.9964 23.1986Z" fill="#172840"/>
<path fill-rule="evenodd" clip-rule="evenodd" d="M67.7437 32.5416C67.5197 32.8827 67.1836 33.1424 66.7916 33.2799C66.5981 33.3512 66.3893 33.3868 66.1704 33.3868C65.9871 33.3868 65.814 33.3613 65.646 33.3104C65.2285 33.1933 64.872 32.9336 64.6276 32.5874C64.4087 32.2768 64.2763 31.9 64.2763 31.4927C64.2763 31.4418 64.2763 31.396 64.2865 31.3451C64.3171 30.9225 64.4902 30.5406 64.7549 30.2402C64.9179 30.0569 65.1164 29.9041 65.3354 29.8023V29.7972C65.5849 29.675 65.87 29.6037 66.1704 29.6037C66.3079 29.6037 66.4403 29.619 66.5676 29.6445C66.9647 29.731 67.316 29.9398 67.5757 30.2351C67.8405 30.5253 68.0085 30.897 68.0492 31.3043C68.0543 31.3654 68.0594 31.4316 68.0594 31.4927C68.0594 31.8797 67.9423 32.2412 67.7437 32.5416ZM69.1745 30.953C69.1083 30.561 68.9606 30.1944 68.7518 29.8685C68.3343 29.1964 67.6521 28.6974 66.8527 28.5141C66.6337 28.4632 66.4046 28.4377 66.1704 28.4377C65.9973 28.4377 65.8293 28.453 65.6663 28.4836C64.9281 28.6007 64.2865 28.9825 63.8283 29.5274C63.5737 29.8278 63.3802 30.174 63.258 30.5559C63.1613 30.8512 63.1104 31.1669 63.1104 31.4927C63.1104 32.4754 63.5737 33.3512 64.2967 33.9011C64.6073 34.1505 64.9688 34.3338 65.3608 34.4357C65.6205 34.5121 65.8904 34.5477 66.1704 34.5477C66.7763 34.5477 67.3415 34.3746 67.815 34.064C68.1459 33.8552 68.4362 33.5803 68.6653 33.2544C69.0217 32.7554 69.2254 32.1495 69.2254 31.4927C69.2254 31.3094 69.2101 31.1261 69.1745 30.953Z" fill="#172840"/>
<path fill-rule="evenodd" clip-rule="evenodd" d="M63.9097 51.1166L63.9409 51.1218V51.0906L63.9097 51.1166Z" fill="#172840"/>
<path fill-rule="evenodd" clip-rule="evenodd" d="M63.9097 51.1166L63.9409 51.1218V51.0906L63.9097 51.1166Z" fill="#172840"/>
<path fill-rule="evenodd" clip-rule="evenodd" d="M67.5554 51.7728C67.3619 52.2004 67.0106 52.5467 66.5829 52.7402C66.3538 52.8369 66.0992 52.8929 65.8294 52.8929C65.6868 52.8929 65.5442 52.8776 65.4119 52.842C64.9994 52.7554 64.643 52.5263 64.3834 52.2157C64.1237 51.9153 63.9658 51.5385 63.9404 51.121L63.9098 51.1159L63.9404 51.0905C63.9353 51.0599 63.9353 51.0294 63.9353 50.9988C63.9353 50.6271 64.0422 50.2809 64.2306 49.9907C64.3274 49.8328 64.4496 49.6903 64.587 49.5732C64.8823 49.3186 65.2591 49.1506 65.6715 49.12C65.7225 49.1098 65.7734 49.1098 65.8294 49.1098C66.033 49.1098 66.2316 49.1404 66.4098 49.2066C66.8121 49.3288 67.1532 49.5884 67.3823 49.9296C67.5249 50.1282 67.6267 50.3624 67.6776 50.6119C67.7031 50.7341 67.7184 50.8664 67.7184 50.9988C67.7184 51.2738 67.6573 51.5385 67.5554 51.7728ZM68.8742 50.8257C68.8436 50.23 68.6399 49.6801 68.309 49.2218C68.0799 48.896 67.7896 48.621 67.4485 48.4123C66.9801 48.117 66.4251 47.9438 65.8294 47.9438C65.6766 47.9438 65.529 47.954 65.3864 47.9795C64.9893 48.0304 64.6176 48.1679 64.2866 48.3665C63.7316 48.6821 63.2938 49.176 63.0341 49.7717C62.8762 50.1231 62.7846 50.5049 62.7795 50.9123C62.7744 50.9428 62.7744 50.9683 62.7744 50.9988C62.7744 51.3043 62.8202 51.5996 62.9017 51.8797C63.0188 52.2666 63.2072 52.6231 63.4567 52.9285C63.9964 53.5905 64.8009 54.0232 65.7123 54.0538C65.7479 54.0589 65.7886 54.0589 65.8294 54.0589C66.196 54.0589 66.5422 53.9927 66.8681 53.8756C67.7387 53.5599 68.4261 52.8624 68.7214 51.9815C68.8283 51.6709 68.8843 51.3451 68.8843 50.9988C68.8843 50.9428 68.8843 50.8817 68.8742 50.8257Z" fill="#172840"/>
<path fill-rule="evenodd" clip-rule="evenodd" d="M53.1666 65.8921C53.1666 66.386 52.9731 66.834 52.6625 67.1701C52.3926 67.4603 52.0362 67.6691 51.634 67.7455C51.5169 67.7709 51.3947 67.7811 51.2725 67.7811C50.6309 67.7811 50.0607 67.4603 49.7196 66.9664C49.5057 66.6609 49.3835 66.2892 49.3835 65.887C49.3835 65.8463 49.3835 65.8055 49.3886 65.7648C49.3937 65.6528 49.409 65.5408 49.4395 65.4389C49.5108 65.1233 49.6686 64.8432 49.8825 64.6141C50.02 64.4563 50.1931 64.3239 50.3815 64.222C50.6462 64.0795 50.9517 63.998 51.2725 63.998C51.5067 63.998 51.7256 64.0387 51.9344 64.1202C52.2603 64.2373 52.5454 64.4461 52.7541 64.7159C53.0138 65.0367 53.1666 65.444 53.1666 65.887V65.8921ZM54.1085 64.7567C53.8336 64.0693 53.3244 63.5092 52.6727 63.1732C52.3061 62.9797 51.8937 62.8626 51.4558 62.8422C51.3947 62.832 51.3336 62.832 51.2725 62.832C50.0607 62.832 49.0118 63.5398 48.5179 64.5683C48.3499 64.9196 48.243 65.3117 48.2277 65.7241C48.2175 65.775 48.2175 65.831 48.2175 65.887C48.2175 66.2129 48.2684 66.5235 48.3652 66.8188C48.4925 67.2261 48.7063 67.5978 48.9864 67.9135C49.5464 68.5448 50.3611 68.942 51.2725 68.942C51.6696 68.942 52.0515 68.8656 52.3977 68.7281C52.7694 68.5805 53.1055 68.3666 53.3855 68.0968C53.9558 67.5469 54.3122 66.7831 54.3275 65.9328V65.887C54.3275 65.4899 54.2511 65.108 54.1085 64.7567Z" fill="#172840"/>
<path fill-rule="evenodd" clip-rule="evenodd" d="M38.2123 50.8056C37.9628 50.9583 37.6777 51.0551 37.3722 51.0755C37.3264 51.0805 37.2856 51.0805 37.2398 51.0805C37.1889 51.0805 37.138 51.0805 37.0871 51.0704C36.7459 51.0449 36.4302 50.9278 36.1655 50.7445C35.8396 50.5154 35.5901 50.1895 35.4628 49.8076C35.3916 49.6142 35.3559 49.4105 35.3559 49.1966C35.3559 48.5602 35.6716 48.0001 36.1553 47.6539C36.2266 47.603 36.308 47.5571 36.3895 47.5164C36.6441 47.384 36.9343 47.3127 37.2398 47.3127H37.2653C38.2938 47.328 39.1186 48.1681 39.1186 49.1966C39.1186 49.8789 38.7571 50.4746 38.2123 50.8056ZM37.2398 46.1519C37.1278 46.1519 37.0158 46.1569 36.9089 46.1722C36.5983 46.2028 36.308 46.2791 36.0382 46.3963C35.9567 46.4319 35.8753 46.4726 35.7989 46.5134C34.8417 47.0276 34.1899 48.0358 34.1899 49.1966C34.1899 49.6193 34.2765 50.0266 34.4343 50.3932C34.5922 50.7598 34.8162 51.0856 35.0912 51.3606C35.6461 51.9105 36.3997 52.2465 37.2398 52.2465C37.2755 52.2465 37.3162 52.2465 37.3518 52.2414C37.4486 52.2414 37.5453 52.2313 37.637 52.216C37.9374 52.1803 38.2174 52.0989 38.4822 51.9818V51.9767C39.5463 51.5032 40.2846 50.4339 40.2846 49.1966C40.2846 47.5164 38.92 46.1519 37.2398 46.1519Z" fill="#172840"/>
<path fill-rule="evenodd" clip-rule="evenodd" d="M31.5169 41.4624C31.4813 41.6304 31.4253 41.7883 31.3489 41.9359C31.0332 42.5469 30.3968 42.9644 29.6636 42.9644C28.905 42.9644 28.2481 42.5113 27.9528 41.8647H27.9477C27.8408 41.6355 27.7797 41.386 27.7746 41.1162V41.0704C27.7746 40.9889 27.7797 40.9074 27.7899 40.826C27.795 40.7801 27.8001 40.7394 27.8103 40.6987C27.8663 40.4237 27.9783 40.1742 28.1361 39.9604C28.4824 39.4869 29.0373 39.1814 29.6636 39.1814C30.6157 39.1814 31.3947 39.8738 31.5322 40.7801C31.5475 40.8718 31.5577 40.9736 31.5577 41.0704C31.5577 41.2027 31.5424 41.3351 31.5169 41.4624ZM32.7135 40.826C32.5862 39.2526 31.2726 38.0154 29.6636 38.0154C28.63 38.0154 27.7186 38.5296 27.1636 39.3188C26.9854 39.5683 26.8479 39.8433 26.7563 40.1386C26.7257 40.2201 26.7054 40.3066 26.685 40.3932C26.6596 40.4899 26.6443 40.5917 26.6341 40.6936C26.6188 40.8158 26.6086 40.9431 26.6086 41.0704C26.6086 41.3402 26.6443 41.605 26.7156 41.8545C27.0567 43.163 28.2481 44.1253 29.6636 44.1253C31.0383 44.1253 32.1992 43.2241 32.5862 41.9818C32.632 41.829 32.6677 41.6712 32.688 41.5082C32.7135 41.3657 32.7237 41.218 32.7237 41.0704C32.7237 40.9889 32.7186 40.9074 32.7135 40.826Z" fill="#172840"/>
<path fill-rule="evenodd" clip-rule="evenodd" d="M41.13 30.1947C41.1249 30.5103 41.0333 30.8107 40.8805 31.0704C40.5598 31.6407 39.9488 32.0225 39.2461 32.0225C38.7268 32.0225 38.2533 31.8087 37.9121 31.4727C37.5863 31.1468 37.3724 30.7038 37.3571 30.2099C37.352 30.1845 37.352 30.1539 37.352 30.1285C37.352 29.8892 37.3979 29.66 37.4793 29.4462C37.683 28.9167 38.1158 28.5042 38.6606 28.3311C38.8439 28.2649 39.0425 28.2344 39.2461 28.2344C39.4498 28.2344 39.6433 28.2649 39.8266 28.326C40.5038 28.545 41.0129 29.1407 41.1147 29.8637C41.13 29.9503 41.1351 30.0368 41.1351 30.1285C41.1351 30.1488 41.1351 30.1743 41.13 30.1947ZM42.296 30.0266C42.296 29.9146 42.2858 29.8026 42.2654 29.6957C42.0872 28.4075 41.0944 27.3739 39.8266 27.1295C39.6382 27.0939 39.4447 27.0735 39.2461 27.0735C39.0476 27.0735 38.849 27.0939 38.6606 27.1295C37.8154 27.2924 37.0924 27.8067 36.6545 28.5144C36.5374 28.6926 36.4457 28.8861 36.3745 29.0898C36.293 29.3087 36.237 29.5327 36.2115 29.772C36.1963 29.8892 36.1912 30.0063 36.1912 30.1285C36.1912 31.8138 37.5608 33.1834 39.2461 33.1834C40.6718 33.1834 41.8734 32.2008 42.2043 30.8769C42.2705 30.6376 42.3011 30.3881 42.3011 30.1285C42.3011 30.0928 42.3011 30.0572 42.296 30.0266Z" fill="#172840"/>
<path fill-rule="evenodd" clip-rule="evenodd" d="M51.0994 48.8045C50.7633 49.3289 50.1778 49.6751 49.5108 49.6751C49.2715 49.6751 49.0423 49.6293 48.8336 49.5478C48.6961 49.4969 48.5688 49.4307 48.4517 49.3493C48.1971 49.1762 47.9884 48.947 47.8407 48.6721C47.6982 48.4073 47.6167 48.1069 47.6167 47.781C47.6167 47.1497 47.9273 46.5896 48.4008 46.2485C48.6452 46.0703 48.9354 45.9481 49.246 45.9073C49.3326 45.8921 49.4191 45.887 49.5108 45.887C49.5668 45.887 49.6228 45.887 49.6788 45.8971C50.6106 45.9786 51.3437 46.7373 51.3947 47.6741C51.3998 47.7098 51.3998 47.7454 51.3998 47.781C51.3998 48.1578 51.2928 48.5092 51.0994 48.8045ZM50.3356 44.8432C50.2083 44.8024 50.081 44.777 49.9487 44.7617C49.8061 44.7363 49.6584 44.7261 49.5108 44.7261C49.3275 44.7261 49.1493 44.7413 48.9812 44.7719V44.777C47.5454 45.0214 46.4558 46.279 46.4558 47.781C46.4558 48.7026 46.8682 49.5326 47.5149 50.0876V50.0926C47.7134 50.2658 47.9375 50.4134 48.1768 50.5305C48.3041 50.5916 48.4314 50.6425 48.5688 50.6884C48.8641 50.7851 49.1798 50.836 49.5108 50.836C50.7531 50.836 51.8224 50.0926 52.301 49.0234C52.4588 48.6772 52.5505 48.2902 52.5606 47.888C52.5657 47.8523 52.5657 47.8167 52.5657 47.781C52.5657 46.3809 51.6187 45.1996 50.3356 44.8432Z" fill="#172840"/>
<path fill-rule="evenodd" clip-rule="evenodd" d="M54.8823 41.717C54.6379 42.4807 53.9251 43.0306 53.085 43.0306C52.6166 43.0306 52.1787 42.8575 51.8477 42.5673C51.7561 42.4858 51.6644 42.3942 51.5881 42.2974C51.3946 42.0479 51.2622 41.7424 51.2164 41.4166C51.196 41.3249 51.1909 41.2333 51.1909 41.1365C51.1909 40.2506 51.8019 39.5123 52.6217 39.3086V39.3035C52.7693 39.2679 52.9272 39.2475 53.085 39.2475C53.2326 39.2475 53.3752 39.2628 53.5127 39.2984C53.6349 39.3239 53.7571 39.3646 53.8691 39.4206C54.3477 39.6396 54.7194 40.0469 54.8823 40.5561C54.9434 40.7394 54.974 40.9329 54.974 41.1365C54.974 41.3402 54.9434 41.5337 54.8823 41.717ZM56.0839 40.5561C55.8395 39.273 54.7856 38.275 53.4821 38.1121C53.3498 38.0917 53.2174 38.0815 53.085 38.0815C52.8406 38.0815 52.6013 38.1121 52.3722 38.1681H52.3671C51.8834 38.2801 51.4455 38.5143 51.084 38.83C50.4374 39.3901 50.03 40.2149 50.03 41.1365C50.03 41.6762 50.1675 42.1803 50.4119 42.6182V42.6233C50.5545 42.8728 50.7225 43.0968 50.9262 43.2954V43.3005C51.0127 43.387 51.1044 43.4685 51.2011 43.5449C51.7204 43.9522 52.3722 44.1966 53.085 44.1966C54.5717 44.1966 55.8141 43.1324 56.0839 41.717C56.1196 41.5286 56.14 41.3351 56.14 41.1365C56.14 40.9379 56.1196 40.7445 56.0839 40.5561Z" fill="#172840"/>
<path fill-rule="evenodd" clip-rule="evenodd" d="M41.1351 17.4097C41.1351 17.4606 41.1351 17.5065 41.1249 17.5574C41.1249 17.6337 41.1147 17.705 41.0995 17.7814C41.0333 18.0971 40.8907 18.3924 40.682 18.6317C40.463 18.8965 40.1677 19.1001 39.8266 19.2071C39.6433 19.2682 39.4498 19.2987 39.2461 19.2987C39.0425 19.2987 38.8439 19.2682 38.6606 19.202C38.3245 19.095 38.0292 18.8965 37.8052 18.6317C37.6015 18.3924 37.4539 18.0971 37.3928 17.7814C37.3724 17.705 37.3622 17.6337 37.3622 17.5574C37.3521 17.5065 37.3521 17.4606 37.3521 17.4097C37.3521 17.1297 37.4131 16.8649 37.5252 16.6256C37.739 16.147 38.1514 15.7753 38.6606 15.6124C38.8439 15.5462 39.0425 15.5156 39.2461 15.5156C39.4498 15.5156 39.6433 15.5462 39.8266 15.6073C40.3357 15.7702 40.7481 16.147 40.962 16.6256C41.074 16.8649 41.1351 17.1297 41.1351 17.4097Z" fill="#172840"/>
<path fill-rule="evenodd" clip-rule="evenodd" d="M29.8063 16.7986C29.8063 17.0888 29.7401 17.3689 29.6179 17.6133C29.3124 18.2497 28.6657 18.6876 27.9122 18.6876C27.846 18.6876 27.7747 18.6825 27.7085 18.6774C27.2961 18.6316 26.9193 18.4534 26.6291 18.1785C26.4356 18.0053 26.2778 17.7864 26.1759 17.5369H26.1708C26.0741 17.3078 26.0232 17.0583 26.0232 16.7986C26.0232 16.6561 26.0385 16.5135 26.069 16.376C26.1148 16.1724 26.1963 15.984 26.3032 15.8109C26.5069 15.4697 26.8226 15.1999 27.1943 15.0471C27.4132 14.9555 27.6576 14.9045 27.9122 14.9045C28.2635 14.9045 28.5995 15.0013 28.8796 15.1744C29.2258 15.3781 29.5058 15.6937 29.6637 16.0705C29.7095 16.1927 29.7502 16.3251 29.7706 16.4575C29.7961 16.5695 29.8063 16.6815 29.8063 16.7986Z" fill="#172840"/>
<path fill-rule="evenodd" clip-rule="evenodd" d="M14.9081 51.3708C14.8317 51.773 14.6229 52.1294 14.3327 52.3942C14.0272 52.6742 13.6301 52.8575 13.1922 52.8881C13.1464 52.8932 13.1005 52.8932 13.0547 52.8932C12.6932 52.8932 12.3521 52.7913 12.0619 52.608C11.7513 52.4196 11.5018 52.1396 11.3439 51.8086C11.2268 51.5642 11.1606 51.2893 11.1606 50.9991C11.1606 50.882 11.1708 50.7649 11.1963 50.6528C11.2268 50.4594 11.293 50.2761 11.3847 50.108C11.5731 49.7567 11.8735 49.4716 12.235 49.2985C12.4488 49.1966 12.683 49.1304 12.9325 49.1152C12.9733 49.1101 13.014 49.1101 13.0547 49.1101C13.4213 49.1101 13.7675 49.217 14.0578 49.4003C14.5924 49.7313 14.9488 50.3219 14.9488 50.9991C14.9488 51.1264 14.9386 51.2486 14.9081 51.3708ZM14.348 48.2343C14.0068 48.0714 13.625 47.9695 13.2227 47.9543C13.1667 47.9441 13.1107 47.9441 13.0547 47.9441C12.3775 47.9441 11.7564 48.163 11.2523 48.5347C10.9366 48.7638 10.6668 49.0592 10.4631 49.3952C10.1729 49.8484 10.0099 50.3779 9.99976 50.9482V50.9991C9.99976 51.386 10.071 51.7526 10.2034 52.0938C10.4886 52.8371 11.0537 53.443 11.7716 53.7791C12.1179 53.9369 12.4997 54.0337 12.902 54.054C12.9529 54.0591 13.0038 54.0591 13.0547 54.0591C13.9203 54.0591 14.7044 53.6976 15.2594 53.1121C15.5292 52.8321 15.7482 52.496 15.8907 52.1294C16.0333 51.7781 16.1097 51.3962 16.1097 50.9991C16.1097 49.7771 15.3867 48.718 14.348 48.2343Z" fill="#172840"/>
<path fill-rule="evenodd" clip-rule="evenodd" d="M14.9488 50.9989C14.9488 51.1261 14.9386 51.2483 14.9081 51.3705C14.8317 51.7728 14.6229 52.1292 14.3327 52.394C14.0272 52.674 13.6301 52.8573 13.1922 52.8878C13.1464 52.8929 13.1005 52.8929 13.0547 52.8929C12.6932 52.8929 12.3521 52.7911 12.0619 52.6078C11.7513 52.4194 11.5018 52.1394 11.3439 51.8084C11.2268 51.564 11.1606 51.2891 11.1606 50.9989C11.1606 50.8817 11.1708 50.7646 11.1963 50.6526C11.2268 50.4591 11.293 50.2758 11.3847 50.1078C11.5731 49.7565 11.8735 49.4714 12.235 49.2983C12.4488 49.1964 12.683 49.1302 12.9325 49.115C12.9733 49.1099 13.014 49.1099 13.0547 49.1099C13.4213 49.1099 13.7675 49.2168 14.0578 49.4001C14.5924 49.731 14.9488 50.3217 14.9488 50.9989Z" fill="#172840"/>
<path fill-rule="evenodd" clip-rule="evenodd" d="M58.1358 57.7403C58.1358 58.0509 58.0595 58.3411 57.9322 58.5957C57.7438 58.9623 57.4434 59.2627 57.0717 59.4409C56.8222 59.5631 56.5422 59.6344 56.2418 59.6344C55.9923 59.6344 55.753 59.5835 55.534 59.4969C55.2744 59.39 55.0452 59.2322 54.8619 59.0285C54.7754 58.9419 54.7041 58.8452 54.643 58.7434C54.4953 58.5142 54.4037 58.2546 54.3681 57.9745L54.4597 57.9338L54.3579 57.8778C54.3528 57.832 54.3528 57.7861 54.3528 57.7403C54.3528 57.3533 54.4648 57.002 54.6634 56.7067C54.9994 56.1925 55.5799 55.8513 56.2418 55.8513H56.252C56.6338 55.8513 56.9902 55.9684 57.2855 56.167C57.311 56.1823 57.3365 56.1975 57.3568 56.2179C57.6572 56.4318 57.8864 56.7271 58.0136 57.0784C58.0951 57.2821 58.1358 57.5061 58.1358 57.7403Z" fill="#172840"/>
<path fill-rule="evenodd" clip-rule="evenodd" d="M53.1666 65.8868V65.8919C53.1666 66.3858 52.9731 66.8338 52.6625 67.1699C52.3927 67.4601 52.0363 67.6689 51.634 67.7452C51.5169 67.7707 51.3947 67.7809 51.2725 67.7809C50.631 67.7809 50.0607 67.4601 49.7196 66.9662C49.5057 66.6607 49.3835 66.289 49.3835 65.8868C49.3835 65.8461 49.3835 65.8053 49.3886 65.7646C49.3937 65.6526 49.409 65.5406 49.4396 65.4387C49.5108 65.1231 49.6687 64.843 49.8825 64.6139C50.02 64.456 50.1931 64.3237 50.3815 64.2218C50.6463 64.0793 50.9518 63.9978 51.2725 63.9978C51.5067 63.9978 51.7257 64.0385 51.9344 64.12C52.2603 64.2371 52.5454 64.4459 52.7542 64.7157C53.0139 65.0365 53.1666 65.4438 53.1666 65.8868Z" fill="#172840"/>
<path fill-rule="evenodd" clip-rule="evenodd" d="M30.3254 65.5765C30.2847 65.9125 30.1523 66.2231 29.9537 66.4828C29.7144 66.7934 29.3835 67.0276 28.9965 67.1447C28.8234 67.1956 28.6401 67.2262 28.4517 67.2262C28.1513 67.2262 27.8712 67.1549 27.6167 67.0276C27.2552 66.8545 26.9599 66.5642 26.7816 66.2078C26.6849 66.0347 26.6187 65.8412 26.5882 65.6376C26.5729 65.5357 26.5627 65.4339 26.5627 65.3321C26.5627 65.0215 26.6391 64.7313 26.7715 64.4716C26.7918 64.4309 26.8173 64.385 26.8427 64.3443C27.0515 64.0083 27.357 63.7384 27.7287 63.5856C27.9527 63.494 28.1971 63.4431 28.4517 63.4431C29.1645 63.4431 29.7857 63.8402 30.1116 64.4207C30.2592 64.6905 30.3458 65.0011 30.3458 65.3321C30.3458 65.4135 30.3407 65.495 30.3254 65.5765ZM31.3641 64.4003H31.359C30.9669 63.1732 29.8111 62.2771 28.4517 62.2771C27.9273 62.2771 27.4334 62.4095 27.0057 62.6386C26.6594 62.827 26.354 63.0765 26.1045 63.3769C25.8346 63.6977 25.6309 64.0795 25.5138 64.492C25.4375 64.7567 25.3967 65.0419 25.3967 65.3321C25.3967 65.4441 25.4018 65.551 25.412 65.6579C25.4731 66.2282 25.692 66.7526 26.023 67.1803C26.2572 67.4909 26.5525 67.7557 26.8937 67.9543C27.3468 68.2292 27.8814 68.3871 28.4517 68.3871C28.9099 68.3871 29.3427 68.2852 29.7297 68.1019H29.7348C30.0912 67.939 30.412 67.7048 30.6767 67.4196C31.1451 66.9308 31.4456 66.2842 31.4965 65.5612C31.5016 65.4848 31.5067 65.4084 31.5067 65.3321C31.5067 65.0062 31.4557 64.6956 31.3641 64.4003Z" fill="#172840"/>
<path fill-rule="evenodd" clip-rule="evenodd" d="M30.3458 65.3321C30.3458 65.4136 30.3407 65.495 30.3254 65.5765C30.2847 65.9126 30.1523 66.2231 29.9538 66.4828C29.7144 66.7934 29.3835 67.0276 28.9965 67.1447C28.8234 67.1956 28.6401 67.2262 28.4517 67.2262C28.1513 67.2262 27.8713 67.1549 27.6167 67.0276C27.2552 66.8545 26.9599 66.5643 26.7817 66.2079C26.6849 66.0348 26.6188 65.8413 26.5882 65.6376C26.5729 65.5358 26.5627 65.4339 26.5627 65.3321C26.5627 65.0215 26.6391 64.7313 26.7715 64.4716C26.7919 64.4309 26.8173 64.3851 26.8428 64.3443C27.0515 64.0083 27.357 63.7384 27.7287 63.5857C27.9528 63.494 28.1971 63.4431 28.4517 63.4431C29.1646 63.4431 29.7857 63.8403 30.1116 64.4207C30.2592 64.6906 30.3458 65.0012 30.3458 65.3321Z" fill="#172840"/>
<path fill-rule="evenodd" clip-rule="evenodd" d="M41.1351 30.1285C41.1351 30.1488 41.1351 30.1743 41.13 30.1947C41.1249 30.5103 41.0333 30.8107 40.8805 31.0704C40.5598 31.6407 39.9488 32.0225 39.2461 32.0225C38.7268 32.0225 38.2533 31.8087 37.9121 31.4726C37.5863 31.1468 37.3724 30.7038 37.3571 30.2099C37.3521 30.1845 37.3521 30.1539 37.3521 30.1285C37.3521 29.8892 37.3979 29.66 37.4793 29.4462C37.683 28.9167 38.1158 28.5042 38.6606 28.3311C38.8439 28.2649 39.0425 28.2344 39.2461 28.2344C39.4498 28.2344 39.6433 28.2649 39.8266 28.326C40.5038 28.545 41.0129 29.1407 41.1147 29.8637C41.13 29.9503 41.1351 30.0368 41.1351 30.1285Z" fill="#172840"/>
<path fill-rule="evenodd" clip-rule="evenodd" d="M51.3995 47.781C51.3995 48.1578 51.2926 48.5092 51.0991 48.8045C50.7631 49.3289 50.1775 49.6751 49.5105 49.6751C49.2712 49.6751 49.0421 49.6293 48.8333 49.5478C48.6959 49.4969 48.5686 49.4307 48.4515 49.3493C48.1969 49.1762 47.9881 48.947 47.8405 48.6721C47.6979 48.4073 47.6165 48.1069 47.6165 47.781C47.6165 47.1497 47.927 46.5896 48.4006 46.2485C48.645 46.0703 48.9352 45.9481 49.2458 45.9073C49.3323 45.8921 49.4189 45.887 49.5105 45.887C49.5665 45.887 49.6225 45.887 49.6786 45.8971C50.6103 45.9786 51.3435 46.7373 51.3944 47.6741C51.3995 47.7098 51.3995 47.7454 51.3995 47.781Z" fill="#172840"/>
<path fill-rule="evenodd" clip-rule="evenodd" d="M54.974 41.1366C54.974 41.3402 54.9434 41.5337 54.8823 41.717C54.6379 42.4807 53.9251 43.0306 53.085 43.0306C52.6166 43.0306 52.1787 42.8575 51.8477 42.5673C51.7561 42.4858 51.6644 42.3942 51.5881 42.2974C51.3946 42.048 51.2622 41.7425 51.2164 41.4166C51.196 41.3249 51.1909 41.2333 51.1909 41.1366C51.1909 40.2506 51.8019 39.5123 52.6217 39.3087V39.3036C52.7693 39.2679 52.9272 39.2476 53.085 39.2476C53.2327 39.2476 53.3752 39.2628 53.5127 39.2985C53.6349 39.3239 53.7571 39.3647 53.8691 39.4207C54.3477 39.6396 54.7194 40.0469 54.8823 40.5561C54.9434 40.7394 54.974 40.9329 54.974 41.1366Z" fill="#172840"/>
<path fill-rule="evenodd" clip-rule="evenodd" d="M24.4346 24.8992C24.3786 25.3015 24.1902 25.6681 23.9203 25.943C23.5792 26.2943 23.0955 26.5133 22.5659 26.5133C22.4488 26.5133 22.3317 26.5031 22.2197 26.4776C21.9091 26.4216 21.6291 26.2892 21.3898 26.0958C21.3185 26.0448 21.2523 25.9837 21.1912 25.9175C20.9825 25.6986 20.8246 25.4237 20.7482 25.1182C20.7024 24.9603 20.677 24.7923 20.677 24.6192C20.677 24.4461 20.7024 24.278 20.7482 24.1202C20.8501 23.7282 21.0792 23.387 21.3847 23.1426C21.7106 22.8829 22.123 22.7251 22.5659 22.7251C22.7696 22.7251 22.9682 22.7556 23.1515 22.8167C23.3908 22.8931 23.6046 23.0204 23.793 23.1783C23.905 23.275 24.0069 23.3819 24.0934 23.5041C24.2411 23.7027 24.348 23.9318 24.404 24.1813V24.1864C24.4397 24.329 24.46 24.4664 24.46 24.6192C24.46 24.7159 24.4549 24.8076 24.4346 24.8992ZM25.4936 23.7332C25.3816 23.3514 25.1932 23 24.9488 22.6996C24.903 22.6487 24.8572 22.5978 24.8113 22.5469C24.5466 22.2618 24.2309 22.0225 23.8694 21.8595C23.4773 21.666 23.0344 21.5642 22.5659 21.5642C21.6851 21.5642 20.8857 21.941 20.3307 22.5418C20.0609 22.8218 19.8521 23.1579 19.7147 23.5296C19.5823 23.8656 19.511 24.2373 19.511 24.6192C19.511 25.0622 19.6026 25.4848 19.7757 25.8615C19.9336 26.223 20.1627 26.5489 20.4478 26.8137C20.5344 26.9002 20.626 26.9817 20.7228 27.053C21.0283 27.2872 21.3847 27.4654 21.7666 27.5672C22.0211 27.6385 22.291 27.6742 22.5659 27.6742C23.5283 27.6742 24.3887 27.2312 24.9488 26.5387C25.1932 26.2383 25.3816 25.887 25.4936 25.5102C25.5802 25.2251 25.626 24.9298 25.626 24.6192C25.626 24.3137 25.5802 24.0133 25.4936 23.7332Z" fill="#172840"/>
<path fill-rule="evenodd" clip-rule="evenodd" d="M24.4598 24.6192C24.4598 24.7159 24.4547 24.8076 24.4344 24.8992C24.3784 25.3015 24.19 25.6681 23.9201 25.943C23.579 26.2943 23.0953 26.5133 22.5657 26.5133C22.4486 26.5133 22.3315 26.5031 22.2195 26.4776C21.9089 26.4216 21.6289 26.2892 21.3896 26.0958C21.3183 26.0448 21.2521 25.9837 21.191 25.9175C20.9823 25.6986 20.8244 25.4237 20.748 25.1182C20.7022 24.9603 20.6768 24.7923 20.6768 24.6192C20.6768 24.4461 20.7022 24.278 20.748 24.1202C20.8499 23.7281 21.079 23.387 21.3845 23.1426C21.7104 22.8829 22.1228 22.7251 22.5657 22.7251C22.7694 22.7251 22.968 22.7556 23.1513 22.8167C23.3906 22.8931 23.6044 23.0204 23.7928 23.1783C23.9048 23.275 24.0067 23.3819 24.0932 23.5041C24.2409 23.7027 24.3478 23.9318 24.4038 24.1813V24.1864C24.4395 24.329 24.4598 24.4664 24.4598 24.6192Z" fill="#172840"/>
<path fill-rule="evenodd" clip-rule="evenodd" d="M68.0594 31.4928C68.0594 31.8797 67.9423 32.2412 67.7437 32.5416C67.5197 32.8828 67.1837 33.1424 66.7916 33.2799C66.5981 33.3512 66.3894 33.3868 66.1704 33.3868C65.9871 33.3868 65.814 33.3614 65.646 33.3105C65.2285 33.1934 64.8721 32.9337 64.6277 32.5875C64.4087 32.2769 64.2764 31.9001 64.2764 31.4928C64.2764 31.4418 64.2764 31.396 64.2866 31.3451C64.3171 30.9225 64.4902 30.5406 64.755 30.2402C64.9179 30.0569 65.1165 29.9042 65.3354 29.8023V29.7972C65.5849 29.675 65.87 29.6038 66.1704 29.6038C66.3079 29.6038 66.4403 29.619 66.5676 29.6445C66.9647 29.7311 67.3161 29.9398 67.5757 30.2351C67.8405 30.5253 68.0085 30.897 68.0492 31.3044C68.0543 31.3655 68.0594 31.4317 68.0594 31.4928Z" fill="#172840"/>
<path fill-rule="evenodd" clip-rule="evenodd" d="M67.7184 50.9989C67.7184 51.2738 67.6573 51.5386 67.5554 51.7728C67.362 52.2005 67.0106 52.5467 66.5829 52.7402C66.3538 52.8369 66.0992 52.8929 65.8294 52.8929C65.6868 52.8929 65.5442 52.8777 65.4119 52.842C64.9994 52.7555 64.643 52.5263 64.3834 52.2158C64.1237 51.9153 63.9659 51.5386 63.9404 51.1211V51.0905C63.9353 51.06 63.9353 51.0294 63.9353 50.9989C63.9353 50.6272 64.0422 50.2809 64.2306 49.9907C64.3274 49.8329 64.4496 49.6903 64.587 49.5732C64.8823 49.3186 65.2591 49.1506 65.6715 49.12C65.7225 49.1099 65.7734 49.1099 65.8294 49.1099C66.033 49.1099 66.2316 49.1404 66.4098 49.2066C66.8121 49.3288 67.1532 49.5885 67.3823 49.9296C67.5249 50.1282 67.6267 50.3624 67.6776 50.6119C67.7031 50.7341 67.7184 50.8665 67.7184 50.9989Z" fill="#172840"/>
<path fill-rule="evenodd" clip-rule="evenodd" d="M16.1097 31.4419C16.1097 32.6792 15.3714 33.7434 14.3174 34.2271C13.9712 34.3849 13.5893 34.4765 13.182 34.4918C13.1413 34.4969 13.1005 34.4969 13.0547 34.4969C12.3623 34.4969 11.7207 34.2678 11.2116 33.8757C10.901 33.6415 10.6311 33.3462 10.4325 33.0051C10.1576 32.5519 9.99976 32.0122 9.99976 31.4419C9.99976 31.2841 10.0099 31.1263 10.0405 30.9735C10.0965 30.5764 10.234 30.2047 10.4325 29.8788C10.7279 29.3798 11.1606 28.9776 11.68 28.7179C12.016 28.5397 12.3928 28.4328 12.795 28.3971C12.8765 28.3921 12.9682 28.387 13.0547 28.387C13.9152 28.387 14.6993 28.7434 15.2492 29.3238C15.5241 29.6039 15.7431 29.9348 15.8907 30.3014C16.0333 30.6527 16.1097 31.0397 16.1097 31.4419Z" fill="#172840"/>
<path fill-rule="evenodd" clip-rule="evenodd" d="M31.5577 41.0701C31.5577 41.2025 31.5424 41.3349 31.517 41.4622C31.4813 41.6302 31.4253 41.7881 31.349 41.9357C31.0333 42.5467 30.3968 42.9642 29.6636 42.9642C28.905 42.9642 28.2482 42.5111 27.9529 41.8644H27.9478C27.8408 41.6353 27.7797 41.3858 27.7747 41.116V41.0701C27.7747 40.9887 27.7797 40.9072 27.7899 40.8257C27.795 40.7799 27.8001 40.7392 27.8103 40.6985C27.8663 40.4235 27.9783 40.174 28.1362 39.9602C28.4824 39.4866 29.0374 39.1812 29.6636 39.1812C30.6158 39.1812 31.3948 39.8736 31.5323 40.7799C31.5475 40.8716 31.5577 40.9734 31.5577 41.0701Z" fill="#172840"/>
<path fill-rule="evenodd" clip-rule="evenodd" d="M17.4183 41.1366C17.4183 41.3708 17.3776 41.5948 17.2961 41.8036C17.1841 42.1091 16.9906 42.3789 16.7462 42.5826C16.4509 42.8321 16.0741 42.995 15.6668 43.0255L15.6515 42.9899L15.6464 43.0255C15.6057 43.0306 15.5701 43.0306 15.5293 43.0306C15.1627 43.0306 14.8114 42.9237 14.5212 42.7353C14.1699 42.5164 13.8949 42.1854 13.7524 41.7883C13.676 41.5846 13.6353 41.3657 13.6353 41.1366C13.6353 40.9583 13.6607 40.7903 13.7065 40.6274C13.8338 40.1793 14.119 39.7975 14.5008 39.548C14.7961 39.3596 15.1526 39.2476 15.5293 39.2476C15.5599 39.2476 15.5955 39.2476 15.6261 39.2527L15.6413 39.3137L15.6668 39.2527C16.0741 39.2832 16.4509 39.441 16.7462 39.6905C17.0364 39.9349 17.2554 40.2659 17.3521 40.6478C17.3979 40.8056 17.4183 40.9685 17.4183 41.1366Z" fill="#172840"/>
<path fill-rule="evenodd" clip-rule="evenodd" d="M24.4601 58.0357C24.4601 58.0612 24.4601 58.0866 24.455 58.1121C24.4448 58.4329 24.3531 58.7282 24.2004 58.9879C24.1597 59.0642 24.1087 59.1355 24.0527 59.2017C23.8643 59.4461 23.6149 59.6447 23.3297 59.772C23.0955 59.8738 22.8358 59.9298 22.566 59.9298C22.0161 59.9298 21.5171 59.6905 21.176 59.3137C20.9112 59.0286 20.7381 58.662 20.6923 58.2547C20.6821 58.1834 20.677 58.1121 20.677 58.0357C20.677 57.8066 20.7177 57.5928 20.789 57.3942C20.8959 57.0989 21.0741 56.8341 21.3084 56.6355C21.3695 56.5744 21.4357 56.5235 21.5018 56.4777C21.7513 56.3046 22.0517 56.1926 22.3674 56.1569C22.4336 56.1518 22.4998 56.1467 22.566 56.1467C22.9937 56.1467 23.3908 56.2893 23.7065 56.5286C24.0222 56.7679 24.2615 57.0989 24.3786 57.4858C24.4295 57.6589 24.4601 57.8422 24.4601 58.0357Z" fill="#172840"/>
<path fill-rule="evenodd" clip-rule="evenodd" d="M41.079 64.7362V64.7413C41.079 65.0009 41.028 65.2504 40.9313 65.4795C40.7225 65.9632 40.3254 66.3451 39.8264 66.5233C39.6279 66.5946 39.4089 66.6353 39.1849 66.6353C39.0016 66.6353 38.8285 66.6099 38.6604 66.559C38.1055 66.4011 37.6574 65.9887 37.4385 65.4643C37.3468 65.2402 37.2959 64.9958 37.2959 64.7413C37.2959 64.726 37.2959 64.7056 37.301 64.6903C37.301 64.558 37.3163 64.4307 37.3468 64.3034C37.4079 64.0386 37.525 63.7993 37.688 63.5905C37.9273 63.2749 38.2684 63.0356 38.6604 62.9235C38.8285 62.8726 39.0016 62.8472 39.1849 62.8472C39.4089 62.8472 39.6279 62.8879 39.8264 62.9592C40.1879 63.0916 40.4985 63.3258 40.7124 63.6313C40.8651 63.8349 40.972 64.0692 41.028 64.3186C41.0637 64.451 41.079 64.5936 41.079 64.7362Z" fill="#172840"/>
<path fill-rule="evenodd" clip-rule="evenodd" d="M65.0249 41.717C64.8721 42.1956 64.531 42.5927 64.088 42.8218C63.8283 42.9542 63.5381 43.0306 63.2224 43.0306C63.1257 43.0306 63.029 43.0255 62.9373 43.0051C62.9017 43.0051 62.8711 43.0001 62.8406 42.9899H62.8355C62.4332 42.9084 62.0768 42.6946 61.8172 42.3992C61.644 42.2058 61.5066 41.9715 61.4251 41.717C61.364 41.5337 61.3335 41.3402 61.3335 41.1365C61.3335 40.9329 61.364 40.7394 61.4251 40.5561C61.5066 40.3015 61.644 40.0724 61.8223 39.8789C62.0768 39.5836 62.4332 39.3697 62.8355 39.2832H62.8406C62.8762 39.2781 62.9068 39.273 62.9424 39.2679C63.0341 39.2526 63.1257 39.2475 63.2224 39.2475C63.5381 39.2475 63.8283 39.3239 64.088 39.4614C64.531 39.6854 64.867 40.0775 65.0249 40.5561C65.086 40.7394 65.1165 40.9329 65.1165 41.1365C65.1165 41.3402 65.086 41.5337 65.0249 41.717ZM66.2214 40.5561C66.0279 39.5377 65.3202 38.6976 64.3782 38.3107C64.0269 38.163 63.645 38.0866 63.2428 38.0815H63.2224C62.9322 38.0815 62.6522 38.1223 62.3874 38.1987C62.0055 38.3056 61.6542 38.4889 61.3487 38.7333C60.7734 39.1712 60.3661 39.8178 60.2235 40.5561C60.1878 40.7445 60.1675 40.9379 60.1675 41.1365C60.1675 41.3351 60.1878 41.5286 60.2235 41.717C60.3661 42.4552 60.7734 43.1019 61.3436 43.5449C61.6491 43.7893 62.0055 43.9726 62.3874 44.0795C62.6522 44.1559 62.9322 44.1966 63.2224 44.1966H63.2377C63.64 44.1966 64.0269 44.1151 64.3782 43.9675C65.3202 43.5805 66.0279 42.7404 66.2214 41.717C66.257 41.5286 66.2774 41.3351 66.2774 41.1365C66.2774 40.9379 66.257 40.7445 66.2214 40.5561Z" fill="#172840"/>
<path fill-rule="evenodd" clip-rule="evenodd" d="M65.1163 41.1366C65.1163 41.3402 65.0858 41.5337 65.0247 41.717C64.8719 42.1956 64.5308 42.5928 64.0878 42.8219C63.8281 42.9543 63.5379 43.0306 63.2222 43.0306C63.1255 43.0306 63.0288 43.0255 62.9371 43.0052C62.9015 43.0052 62.8709 43.0001 62.8404 42.9899H62.8353C62.433 42.9084 62.0766 42.6946 61.817 42.3993C61.6438 42.2058 61.5064 41.9716 61.4249 41.717C61.3638 41.5337 61.3333 41.3402 61.3333 41.1366C61.3333 40.9329 61.3638 40.7394 61.4249 40.5561C61.5064 40.3015 61.6438 40.0724 61.822 39.8789C62.0766 39.5836 62.433 39.3698 62.8353 39.2832H62.8404C62.876 39.2781 62.9066 39.273 62.9422 39.2679C63.0338 39.2527 63.1255 39.2476 63.2222 39.2476C63.5379 39.2476 63.8281 39.3239 64.0878 39.4614C64.5308 39.6854 64.8668 40.0775 65.0247 40.5561C65.0858 40.7394 65.1163 40.9329 65.1163 41.1366Z" fill="#172840"/>
<path fill-rule="evenodd" clip-rule="evenodd" d="M58.1817 24.6194C58.1817 24.7925 58.1563 24.9657 58.1105 25.1235C58.0035 25.5156 57.7744 25.8567 57.4689 26.096C57.4435 26.1164 57.4231 26.1367 57.3976 26.152C57.087 26.3811 56.7052 26.5135 56.2877 26.5135C55.6308 26.5135 55.0555 26.1775 54.7195 25.6683C54.5158 25.3679 54.3987 25.0064 54.3987 24.6194C54.3987 24.5838 54.3987 24.5431 54.4038 24.5074C54.4038 24.4463 54.414 24.3852 54.4241 24.3241C54.47 24.0135 54.5973 23.7233 54.7856 23.4789C54.8315 23.4127 54.8875 23.3465 54.9486 23.2854C55.1624 23.0665 55.4323 22.9035 55.7327 22.8119C55.9058 22.7559 56.0942 22.7253 56.2877 22.7253C56.5932 22.7253 56.8834 22.7966 57.138 22.929C57.5046 23.1123 57.805 23.4127 57.9832 23.7844C58.1105 24.0339 58.1817 24.319 58.1817 24.6194Z" fill="#172840"/>
<path fill-rule="evenodd" clip-rule="evenodd" d="M52.1939 17.547H52.1888C52.1175 17.654 52.036 17.7558 51.9444 17.8474C51.6643 18.1275 51.2977 18.321 50.8904 18.377C50.7988 18.3973 50.7071 18.4024 50.6104 18.4024C49.979 18.4024 49.4189 18.0918 49.0778 17.6132C48.8487 17.3026 48.7163 16.9208 48.7163 16.5083C48.7163 16.4931 48.7163 16.4727 48.7214 16.4574C48.7214 16.2028 48.7825 15.9635 48.8792 15.7446C49.0422 15.378 49.3171 15.0674 49.6684 14.8688C49.9434 14.7059 50.2692 14.6143 50.6104 14.6143C50.7988 14.6143 50.9821 14.6448 51.1552 14.6957C51.5472 14.8128 51.8833 15.0521 52.1175 15.3729C52.3364 15.658 52.4688 15.9992 52.4943 16.376C52.4994 16.4167 52.4994 16.4625 52.4994 16.5083C52.4994 16.8953 52.3874 17.2466 52.1939 17.547ZM53.6552 16.3505C53.6195 15.5257 53.2478 14.7874 52.6776 14.2629C52.3924 13.9982 52.0564 13.7843 51.6847 13.6519C51.3487 13.5196 50.9872 13.4534 50.6104 13.4534C49.9994 13.4534 49.4342 13.6316 48.9607 13.9371C48.6297 14.1509 48.3395 14.4259 48.1206 14.7517C47.7642 15.2405 47.5605 15.8413 47.5554 16.4829V16.5083C47.5554 16.9055 47.6318 17.2874 47.7744 17.6387C48.2224 18.769 49.3273 19.5633 50.6104 19.5633C50.977 19.5633 51.3283 19.4971 51.6542 19.38C52.0258 19.2476 52.367 19.0389 52.6521 18.7741C53.0289 18.4381 53.3242 18.0053 53.4922 17.5165C53.6042 17.2008 53.6653 16.8597 53.6653 16.5083C53.6653 16.4574 53.6653 16.4014 53.6552 16.3505Z" fill="#172840"/>
<path fill-rule="evenodd" clip-rule="evenodd" d="M52.4994 16.5083C52.4994 16.8953 52.3874 17.2466 52.1939 17.547H52.1888C52.1175 17.654 52.036 17.7558 51.9444 17.8474C51.6643 18.1275 51.2978 18.321 50.8904 18.377C50.7988 18.3973 50.7071 18.4024 50.6104 18.4024C49.979 18.4024 49.4189 18.0918 49.0778 17.6132C48.8487 17.3026 48.7163 16.9208 48.7163 16.5083C48.7163 16.4931 48.7163 16.4727 48.7214 16.4574C48.7214 16.2028 48.7825 15.9635 48.8792 15.7446C49.0422 15.378 49.3171 15.0674 49.6684 14.8688C49.9434 14.7059 50.2692 14.6143 50.6104 14.6143C50.7988 14.6143 50.9821 14.6448 51.1552 14.6957C51.5472 14.8128 51.8833 15.0521 52.1175 15.3729C52.3364 15.658 52.4688 15.9992 52.4943 16.376C52.4994 16.4167 52.4994 16.4625 52.4994 16.5083Z" fill="#172840"/>
<path fill-rule="evenodd" clip-rule="evenodd" d="M39.1187 49.1966C39.1187 49.8789 38.7571 50.4746 38.2123 50.8056C37.9629 50.9583 37.6777 51.0551 37.3722 51.0755C37.3264 51.0805 37.2857 51.0805 37.2398 51.0805C37.1889 51.0805 37.138 51.0805 37.0871 51.0704C36.746 51.0449 36.4303 50.9278 36.1655 50.7445C35.8397 50.5154 35.5902 50.1895 35.4629 49.8076C35.3916 49.6142 35.356 49.4105 35.356 49.1966C35.356 48.5602 35.6716 48.0001 36.1553 47.6539C36.2266 47.603 36.3081 47.5571 36.3896 47.5164C36.6441 47.384 36.9344 47.3127 37.2398 47.3127H37.2653C38.2938 47.328 39.1187 48.1681 39.1187 49.1966Z" fill="#172840"/>
</g>
</svg>
