<svg width="240" height="104" viewBox="0 0 240 104" fill="none" xmlns="http://www.w3.org/2000/svg">
<mask id="mask0_2527_17562" style="mask-type:luminance" maskUnits="userSpaceOnUse" x="0" y="0" width="240" height="104">
<path d="M239.671 3.8147e-06H0V103.288H239.671V3.8147e-06Z" fill="white"/>
</mask>
<g mask="url(#mask0_2527_17562)">
<path d="M118.784 51.3313H122.576V39.3257H132.345C139.247 39.3257 144.642 34.9027 144.642 28.6326C144.642 22.3625 139.247 17.9395 132.345 17.9395H118.784V51.3313ZM122.576 35.729V21.5363H131.665C137.108 21.5363 140.803 24.1609 140.803 28.6326C140.803 33.1043 137.108 35.729 131.665 35.729H122.576Z" fill="white"/>
<path d="M169.979 51.3313H174.11L159.383 17.9395H155.251L140.524 51.3313H144.655L148.009 43.7488H166.625L169.979 51.3313ZM149.564 40.152L157.341 22.6056L165.069 40.152H149.564Z" fill="white"/>
<path d="M205.237 51.3313H209.369L194.642 17.9395H190.51L175.783 51.3313H179.914L183.268 43.7488H201.884L205.237 51.3313ZM184.824 40.152L192.6 22.6056L200.329 40.152H184.824Z" fill="white"/>
<path d="M211.386 51.3313H215.178V24.1609L235.884 51.3313H239.674V17.9395H235.884V45.1098L215.178 17.9395H211.386V51.3313Z" fill="white"/>
<path d="M118.776 67.7205H119.945V64.0179H122.958C125.086 64.0179 126.75 62.6538 126.75 60.7201C126.75 58.7863 125.086 57.4222 122.958 57.4222H118.776V67.7205ZM119.945 62.9086V58.5315H122.748C124.427 58.5315 125.566 59.341 125.566 60.7201C125.566 62.0992 124.427 62.9086 122.748 62.9086H119.945Z" fill="white"/>
<path d="M131.533 59.7906C130.783 59.7906 129.854 59.9855 128.744 60.5402L129.194 61.4546C129.899 61.0948 130.678 60.75 131.458 60.75C133.136 60.75 133.556 61.9492 133.556 62.9986V63.2834C132.762 63.0285 131.877 62.8487 131.038 62.8487C129.374 62.8487 127.995 63.883 127.995 65.427C127.995 66.956 129.194 67.9004 130.828 67.9004C131.847 67.9004 133.002 67.4207 133.556 66.5063V67.7205H134.68V62.9986C134.68 61.1248 133.646 59.7906 131.533 59.7906ZM131.023 66.911C129.929 66.911 129.089 66.3414 129.089 65.382C129.089 64.4526 130.064 63.7931 131.218 63.7931C132.057 63.7931 132.852 63.913 133.556 64.1078V65.2921C133.256 66.3863 132.042 66.911 131.023 66.911Z" fill="white"/>
<path d="M140.662 59.7906C139.567 59.7906 138.563 60.3903 138.113 61.2147V59.9705H136.989V67.7205H138.113V62.7887C138.113 61.7094 139.207 60.795 140.512 60.795C141.651 60.795 142.445 61.6794 142.445 62.9386V67.7205H143.57V62.7887C143.57 61.0349 142.37 59.7906 140.662 59.7906Z" fill="white"/>
<path d="M149.43 63.1035H145.548V64.1978H149.43V63.1035Z" fill="white"/>
<path d="M159.834 67.7205H161.108L156.566 57.4222H155.292L150.75 67.7205H152.024L153.058 65.382H158.8L159.834 67.7205ZM153.538 64.2728L155.936 58.8613L158.32 64.2728H153.538Z" fill="white"/>
<path d="M164.481 58.9062C164.481 58.3366 164.87 57.9319 165.32 57.9319C165.665 57.9319 165.965 58.0668 166.129 58.2466L166.684 57.4222C166.279 57.1074 165.77 56.9275 165.245 56.9275C164.136 56.9275 163.356 57.752 163.356 58.9062V59.9705H162.142V60.9749H163.356V67.7205H164.481V60.9749H166.384V59.9705H164.481V58.9062Z" fill="white"/>
<path d="M169.217 61.4845V59.9705H168.093V67.7205H169.217V63.3883C169.217 61.8743 170.462 60.795 172.216 60.795V59.7906C170.791 59.7906 169.682 60.4502 169.217 61.4845Z" fill="white"/>
<path d="M174.329 58.5614C174.734 58.5614 175.064 58.2167 175.064 57.8119C175.064 57.4222 174.734 57.0774 174.329 57.0774C173.91 57.0774 173.58 57.4222 173.58 57.8119C173.58 58.2167 173.91 58.5614 174.329 58.5614ZM173.76 67.7205H174.884V59.9705H173.76V67.7205Z" fill="white"/>
<path d="M180.746 67.9004C181.825 67.9004 182.814 67.4506 183.548 66.7161L182.77 65.9516C182.244 66.5362 181.525 66.896 180.746 66.896C179.201 66.896 177.912 65.5019 177.912 63.838C177.912 62.1891 179.201 60.795 180.746 60.795C181.51 60.795 182.215 61.1398 182.724 61.6944L183.504 60.9299C182.77 60.2254 181.795 59.7906 180.746 59.7906C178.572 59.7906 176.728 61.6345 176.728 63.838C176.728 66.0416 178.572 67.9004 180.746 67.9004Z" fill="white"/>
<path d="M188.42 59.7906C187.67 59.7906 186.741 59.9855 185.631 60.5402L186.081 61.4546C186.786 61.0948 187.565 60.75 188.345 60.75C190.024 60.75 190.444 61.9492 190.444 62.9986V63.2834C189.649 63.0285 188.765 62.8487 187.925 62.8487C186.261 62.8487 184.882 63.883 184.882 65.427C184.882 66.956 186.081 67.9004 187.716 67.9004C188.734 67.9004 189.889 67.4207 190.444 66.5063V67.7205H191.568V62.9986C191.568 61.1248 190.533 59.7906 188.42 59.7906ZM187.91 66.911C186.816 66.911 185.977 66.3414 185.977 65.382C185.977 64.4526 186.95 63.7931 188.105 63.7931C188.945 63.7931 189.739 63.913 190.444 64.1078V65.2921C190.144 66.3863 188.929 66.911 187.91 66.911Z" fill="white"/>
<path d="M197.549 59.7906C196.455 59.7906 195.451 60.3903 195 61.2147V59.9705H193.876V67.7205H195V62.7887C195 61.7094 196.095 60.795 197.399 60.795C198.538 60.795 199.333 61.6794 199.333 62.9386V67.7205H200.457V62.7887C200.457 61.0349 199.258 59.7906 197.549 59.7906Z" fill="white"/>
<path d="M127.86 83.842H129.135L124.593 73.5438H123.318L118.776 83.842H120.051L121.085 81.5036H126.826L127.86 83.842ZM121.565 80.3944L123.963 74.9829L126.346 80.3944H121.565Z" fill="white"/>
<path d="M136.779 76.0922V77.4263C136.179 76.4819 135.19 75.9123 133.961 75.9123C131.877 75.9123 130.393 77.4263 130.393 79.5849C130.393 81.7435 131.877 83.2725 133.961 83.2725C135.19 83.2725 136.179 82.7028 136.779 81.7585V83.0176C136.779 84.5315 135.73 85.4162 133.946 85.4162C132.986 85.4162 132.057 85.0711 131.457 84.5015L130.963 85.3863C131.667 85.9858 132.836 86.4204 134.096 86.4204C136.329 86.4204 137.903 85.0112 137.903 83.0176V76.0922H136.779ZM134.171 82.2681C132.657 82.2681 131.577 81.1588 131.577 79.5849C131.577 78.0259 132.657 76.9166 134.171 76.9166C135.7 76.9166 136.779 78.0259 136.779 79.5849C136.779 81.1588 135.7 82.2681 134.171 82.2681Z" fill="white"/>
<path d="M143.779 83.0176C142.25 83.0176 141.186 81.9084 141.021 80.3944H147.362C147.362 77.6811 146.028 75.9123 143.689 75.9123C141.606 75.9123 139.867 77.6362 139.867 79.9447C139.867 82.3281 141.726 84.0218 143.794 84.0218C144.874 84.0218 146.238 83.5572 146.912 82.8228L146.223 82.0883C145.743 82.6129 144.694 83.0176 143.779 83.0176ZM143.734 76.9166C145.278 76.9166 146.103 77.9959 146.253 79.39H141.036C141.246 77.891 142.355 76.9166 143.734 76.9166Z" fill="white"/>
<path d="M152.893 75.9123C151.799 75.9123 150.795 76.5119 150.345 77.3364V76.0922H149.221V83.842H150.345V78.9103C150.345 77.831 151.439 76.9166 152.743 76.9166C153.883 76.9166 154.677 77.801 154.677 79.0602V83.842H155.801V78.9103C155.801 77.1565 154.602 75.9123 152.893 75.9123Z" fill="white"/>
<path d="M161.678 84.0218C162.757 84.0218 163.746 83.5724 164.481 82.8378L163.701 82.0733C163.177 82.6579 162.457 83.0176 161.678 83.0176C160.134 83.0176 158.845 81.6236 158.845 79.9596C158.845 78.3107 160.134 76.9166 161.678 76.9166C162.442 76.9166 163.147 77.2614 163.656 77.8161L164.436 77.0515C163.701 76.347 162.727 75.9123 161.678 75.9123C159.504 75.9123 157.66 77.7561 157.66 79.9596C157.66 82.1632 159.504 84.0218 161.678 84.0218Z" fill="white"/>
<path d="M167.359 86.5402C168.423 86.5255 169.173 86.0306 169.713 84.7116L173.25 76.0922H172.036L169.473 82.538L166.76 76.0922H165.515L168.888 83.872L168.439 84.8315C168.139 85.3563 167.809 85.5209 167.314 85.5209C166.984 85.5209 166.67 85.461 166.4 85.3264L166.13 86.2854C166.49 86.4504 166.909 86.5402 167.359 86.5402Z" fill="white"/>
<path d="M179.711 83.842H180.88V75.4626L187.266 83.842H188.435V73.5438H187.266V81.9234L180.88 73.5438H179.711V83.842Z" fill="white"/>
<path d="M194.477 83.0176C192.948 83.0176 191.883 81.9084 191.718 80.3944H198.059C198.059 77.6811 196.725 75.9123 194.386 75.9123C192.303 75.9123 190.564 77.6362 190.564 79.9447C190.564 82.3281 192.423 84.0218 194.492 84.0218C195.571 84.0218 196.935 83.5572 197.609 82.8228L196.92 82.0883C196.44 82.6129 195.391 83.0176 194.477 83.0176ZM194.432 76.9166C195.976 76.9166 196.8 77.9959 196.95 79.39H191.733C191.943 77.891 193.053 76.9166 194.432 76.9166Z" fill="white"/>
<path d="M203.305 82.7028C203.14 82.8828 202.841 83.0176 202.495 83.0176C202.046 83.0176 201.656 82.6129 201.656 82.0433V77.0965H203.56V76.0922H201.656V73.9636H200.532V76.0922H199.318V77.0965H200.532V82.0433C200.532 83.1976 201.311 84.0218 202.421 84.0218C202.946 84.0218 203.455 83.842 203.86 83.5273L203.305 82.7028Z" fill="white"/>
<path d="M207.428 83.842H208.492L210.576 77.6512L212.629 83.842H213.694L216.302 76.0922H215.103L213.169 82.3431L211.056 76.0922H210.081L207.968 82.3431L206.034 76.0922H204.834L207.428 83.842Z" fill="white"/>
<path d="M221.233 84.0218C223.406 84.0218 225.236 82.1632 225.236 79.9596C225.236 77.7561 223.406 75.9123 221.233 75.9123C219.059 75.9123 217.216 77.7561 217.216 79.9596C217.216 82.1632 219.059 84.0218 221.233 84.0218ZM221.233 83.0176C219.689 83.0176 218.4 81.6236 218.4 79.9596C218.4 78.3107 219.689 76.9166 221.233 76.9166C222.762 76.9166 224.052 78.3107 224.052 79.9596C224.052 81.6236 222.762 83.0176 221.233 83.0176Z" fill="white"/>
<path d="M228.324 77.6062V76.0922H227.2V83.842H228.324V79.5099C228.324 77.9959 229.568 76.9166 231.322 76.9166V75.9123C229.898 75.9123 228.789 76.5718 228.324 77.6062Z" fill="white"/>
<path d="M239.672 76.0922H238.233L233.991 80.3794V73.364H232.866V83.842H233.991V81.7884L235.384 80.4093L238.067 83.842H239.477L236.179 79.6449L239.672 76.0922Z" fill="white"/>
<path d="M54.1293 74.4784L54.1229 74.4849L50.5733 74.1358L49.5453 74.0388L49.5388 74.0129C49.5905 74.0258 49.6423 74.0388 49.694 74.0452L50.5733 74.1293L54.1293 74.4784Z" fill="white"/>
<path d="M31.6291 43.767C31.6162 43.7928 31.6097 43.8187 31.6097 43.8446L31.6033 43.7928L31.6291 43.767Z" fill="white"/>
<path fill-rule="evenodd" clip-rule="evenodd" d="M12.7434 83.2522L12.6982 83.4333L12.834 83.3557C12.8016 83.3234 12.7693 83.2846 12.7434 83.2522ZM11.8835 82.1984L11.6702 82.3212C11.6637 82.3277 11.6572 82.3277 11.6508 82.3406C11.7348 82.2824 11.8253 82.2501 11.9223 82.2372C11.9029 82.2242 11.8965 82.2113 11.8835 82.1984ZM11.3663 82.6639C11.3663 82.6639 11.3663 82.6703 11.3598 82.6768C11.3404 82.7221 11.3275 82.7609 11.3146 82.8061V82.832C11.3081 82.8708 11.3016 82.9031 11.3016 82.9419L11.3792 82.6445L11.3857 82.6057C11.3728 82.6251 11.3663 82.6445 11.3663 82.6639ZM11.3016 82.9742V82.9419C11.2952 82.9484 11.2952 82.9548 11.2952 82.9613V82.9678C11.2952 83.0195 11.3016 83.0712 11.321 83.1229C11.3081 83.0777 11.3016 83.026 11.3016 82.9742ZM88.0151 21.2023C88.028 21.2217 88.028 21.2346 88.0345 21.254C88.041 21.2411 88.041 21.2282 88.041 21.2088C88.0345 21.2088 88.028 21.2023 88.0151 21.2023ZM71.5991 7.41773C71.5733 7.39833 71.5409 7.37894 71.5086 7.366C71.5151 7.37247 71.5151 7.37247 71.5216 7.37894C71.5539 7.39187 71.5797 7.41126 71.6121 7.43066C71.6121 7.42419 71.6056 7.42419 71.5991 7.41773Z" fill="white"/>
<path fill-rule="evenodd" clip-rule="evenodd" d="M96.1683 66.112L87.4592 64.5408C87.4721 64.6119 87.4721 64.6895 87.4721 64.7607C87.4721 65.2003 87.401 65.6141 87.2652 66.0085L95.7157 67.5344C94.0088 72.6616 91.4613 77.4137 88.2351 81.6164L84.9118 68.4137C84.498 68.5624 84.0583 68.6465 83.5928 68.6465C83.5411 68.6465 83.4894 68.6465 83.4441 68.64L86.8191 82.056L74.845 75.1443C74.6122 75.5905 74.2889 75.9849 73.901 76.3081L85.1251 82.7866L68.7092 82.2306C68.8902 82.6767 68.9872 83.1616 68.9872 83.6659V83.7241L86.0303 84.2931C82.5454 88.2242 78.4268 91.5863 73.8428 94.2177L67.7911 86.472C67.4355 86.8147 67.0087 87.0862 66.5367 87.2737L72.5303 94.9419C66.0971 98.3686 58.7975 100.386 51.0518 100.58L62.2048 86.2392C61.8492 85.8384 61.5777 85.3664 61.416 84.8491L50.5734 98.7953V86.0065C50.3083 86.0582 50.0367 86.0905 49.7587 86.0905C49.5324 86.0905 49.3061 86.0711 49.0928 86.0323V98.8147L38.9548 85.6121C38.6186 85.9742 38.2113 86.2716 37.7587 86.4785L48.5884 100.58C40.9268 100.379 33.7048 98.4009 27.3233 95.0324L34.1509 86.291C33.7177 86.0388 33.3427 85.7026 33.0453 85.3082L26.0108 94.3147C21.1164 91.5345 16.7457 87.9267 13.1056 83.6789L32.2695 83.375C32.2565 83.2392 32.2501 83.1034 32.2501 82.9612C32.2501 82.5927 32.3018 82.2306 32.3988 81.8944L14.8966 82.1789L25.5906 76.0689C25.2802 75.681 25.0539 75.2284 24.9246 74.7435L13.1897 81.4483L16.3836 68.64C15.8729 68.6141 15.388 68.4913 14.9483 68.2908L11.5862 81.8103C8.46337 77.7758 5.96122 73.237 4.22846 68.3361L12.9569 66.1507C12.7888 65.7176 12.6983 65.252 12.6983 64.7607V64.696L3.75648 66.9266C2.41165 62.7046 1.62932 58.2304 1.50001 53.5946L13.2867 62.724C13.5453 62.2973 13.888 61.9223 14.2888 61.6313L3.12932 52.9869L15.9246 53.058C15.8729 52.7929 15.8405 52.5214 15.8405 52.2369C15.8405 52.0106 15.8599 51.7907 15.8987 51.5774L3.12932 51.5127L14.2371 43.017C13.8427 42.7196 13.5 42.3446 13.2479 41.9114L1.50001 50.892C1.64225 45.739 2.59268 40.7799 4.22846 36.1506L12.75 39.3316C12.8211 38.8273 12.9957 38.3553 13.2479 37.9415L4.73923 34.7669C6.38148 30.5255 8.61209 26.5686 11.3211 23.0061L14.8319 36.4674C15.2586 36.2411 15.7371 36.1053 16.2479 36.06L12.8082 22.8509L25.0345 29.879C25.2091 29.407 25.4742 28.9803 25.8169 28.6247L14.0431 21.8552L31.6746 22.2367C31.6035 21.9457 31.5647 21.6419 31.5647 21.3315C31.5647 21.1375 31.5776 20.95 31.61 20.7625L13.4742 20.3681C17.2306 16.0879 21.7306 12.4802 26.7673 9.7323L32.5539 18.7518C32.8772 18.3767 33.2781 18.0729 33.7307 17.853L28.0798 9.05341C34.1574 5.97581 40.9656 4.15252 48.1682 3.9133L37.5583 18.0793C37.9785 18.3509 38.347 18.7065 38.6251 19.1203L49.0928 5.14175V18.2992C49.332 18.2539 49.5841 18.228 49.8363 18.228C50.0884 18.228 50.3341 18.2539 50.5734 18.2992V4.94132L61.1057 18.7324C61.3837 18.3186 61.7523 17.9694 62.1725 17.6979L51.6531 3.91976C58.2479 4.15899 64.513 5.72365 70.1768 8.3616L65.6316 17.3358C66.1036 17.5039 66.5303 17.7755 66.8923 18.1117L71.5087 9.00816C77.1143 11.8207 82.0993 15.7 86.2049 20.3746L68.1337 20.7625C68.1467 20.8272 68.1467 20.8983 68.1467 20.963C68.1467 21.4091 68.0691 21.8423 67.9268 22.2432L85.0928 21.8746L73.9786 28.2949C74.3665 28.6182 74.6833 29.0126 74.9161 29.4587L86.8191 22.5858L83.3859 36.17C83.5928 36.1312 83.8062 36.1118 84.026 36.1118C84.3234 36.1118 84.6144 36.1441 84.8924 36.2088L88.2609 22.8897C91.1639 26.6785 93.5174 30.9135 95.1984 35.4717L87.304 37.9286C87.5691 38.3424 87.7566 38.8079 87.8407 39.3058L95.6963 36.8618C97.1575 41.226 98.0174 45.8618 98.1661 50.6787L87.1941 42.2282C86.9032 42.642 86.5346 42.9911 86.1144 43.2562L96.8148 51.4998H84.0906C84.1359 51.739 84.1618 51.9847 84.1618 52.2369C84.1618 52.489 84.1359 52.7347 84.0906 52.9739H96.7954L85.6488 61.4762C86.082 61.7412 86.4506 62.0904 86.7415 62.5042L98.1661 53.7951C98.0303 58.0623 97.345 62.1938 96.1683 66.112ZM12.6983 83.4332L12.7436 83.2521C12.7694 83.2845 12.8017 83.3233 12.8341 83.3556L12.6983 83.4332ZM11.6509 82.3405C11.6573 82.3276 11.6638 82.3276 11.6703 82.3211L11.8836 82.1983C11.8966 82.2112 11.903 82.2241 11.9224 82.2371C11.8255 82.25 11.7349 82.2823 11.6509 82.3405ZM11.3793 82.6444L11.3017 82.9418V82.9741C11.3017 83.0259 11.3082 83.0776 11.3211 83.1228C11.3017 83.0711 11.2953 83.0194 11.2953 82.9677V82.9612C11.2953 82.9547 11.2953 82.9483 11.3017 82.9418C11.3017 82.903 11.3082 82.8707 11.3147 82.8319V82.806C11.3211 82.7608 11.3341 82.7155 11.3599 82.6767C11.3664 82.6702 11.3664 82.6638 11.3664 82.6638C11.3664 82.6444 11.3729 82.625 11.3858 82.6056L11.3793 82.6444ZM88.0411 21.2087C88.0411 21.2281 88.0411 21.241 88.0346 21.2539C88.0282 21.2345 88.0282 21.2216 88.0152 21.2022C88.0282 21.2022 88.0346 21.2087 88.0411 21.2087ZM96.8924 35.8338C96.8924 35.8208 96.8924 35.8144 96.8859 35.8014C96.8665 35.7303 96.8407 35.6592 96.8083 35.5945C92.4312 23.2259 83.2889 13.1073 71.5993 7.41763C71.6057 7.42409 71.6122 7.42409 71.6122 7.43056C71.5799 7.41116 71.554 7.39177 71.5217 7.37883C71.5152 7.37237 71.5152 7.37237 71.5087 7.3659H71.5023C71.4958 7.35944 71.4829 7.35297 71.4764 7.35297C64.9333 4.19131 57.5885 2.40682 49.8363 2.40682C22.3319 2.40682 0.00646553 24.7259 0 52.2304V52.2369C0 70.8965 10.2802 87.1703 25.4742 95.7113H25.4806C25.7069 95.8406 25.9397 95.9699 26.166 96.0927C33.207 99.9074 41.2695 102.073 49.8363 102.073C72.123 102.073 91.0088 87.4095 97.3708 67.2111C97.3902 67.1723 97.4032 67.1271 97.4096 67.0818C98.8773 62.3943 99.6661 57.4029 99.6661 52.2369C99.6661 46.489 98.6898 40.9674 96.8924 35.8338Z" fill="white"/>
<path fill-rule="evenodd" clip-rule="evenodd" d="M65.0172 55.295L63.9181 56.9437C63.7564 56.892 63.5948 56.8597 63.4267 56.8403C63.2457 56.808 63.0582 56.795 62.8707 56.795C62.6379 56.795 62.4116 56.8144 62.1982 56.8532L64.0151 54.1248C64.1961 54.4416 64.4095 54.7261 64.6681 54.9782V54.9847C64.778 55.0946 64.8944 55.198 65.0172 55.295Z" fill="white"/>
<path fill-rule="evenodd" clip-rule="evenodd" d="M46.8686 58.6314C46.4742 58.6702 46.1057 58.7672 45.763 58.9159C45.6596 58.9612 45.5561 59.0129 45.4591 59.0646L43.6747 53.4008L41.3794 53.3103C41.4376 53.1163 41.4828 52.9159 41.5087 52.709C41.541 52.5279 41.554 52.3404 41.554 52.1529C41.554 52.0495 41.5475 51.946 41.541 51.8426L44.2566 51.946C44.5669 51.959 44.8385 52.1659 44.929 52.4633L46.8686 58.6314Z" fill="white"/>
<path fill-rule="evenodd" clip-rule="evenodd" d="M71.612 7.4305C71.5797 7.4111 71.5538 7.39171 71.5215 7.37878C71.5473 7.39171 71.5732 7.40464 71.5991 7.41757C71.6055 7.42404 71.612 7.42404 71.612 7.4305Z" fill="white"/>
<path fill-rule="evenodd" clip-rule="evenodd" d="M72.7434 71.3232C72.7757 71.3426 72.8081 71.362 72.8339 71.3879L72.918 71.1875L72.7434 71.3232Z" fill="white"/>
<path fill-rule="evenodd" clip-rule="evenodd" d="M79.2224 48.5064C78.7372 48.6422 78.2912 48.875 77.9035 49.1852L72.0649 35.09C72.5692 35.0188 73.0411 34.8513 73.4615 34.5926L79.2224 48.5064Z" fill="white"/>
<path fill-rule="evenodd" clip-rule="evenodd" d="M68.3473 28.9736C68.0559 29.368 67.8365 29.8205 67.7199 30.3124L53.0753 24.2407C53.347 23.8335 53.5407 23.3743 53.6381 22.8833L68.3473 28.9736Z" fill="white"/>
<path fill-rule="evenodd" clip-rule="evenodd" d="M46.5968 24.2408L32.3723 30.1375C32.2301 29.6526 31.9912 29.2064 31.6805 28.825L46.0342 22.8768C46.1314 23.3748 46.3253 23.834 46.5968 24.2408Z" fill="white"/>
<path fill-rule="evenodd" clip-rule="evenodd" d="M27.6403 35.0062L21.8471 48.9979C21.4396 48.7263 20.9805 48.532 20.483 48.4289L26.3145 34.353C26.7027 34.6509 27.1551 34.8766 27.6403 35.0062Z" fill="white"/>
<path fill-rule="evenodd" clip-rule="evenodd" d="M80.0431 63.2025C79.8427 63.6487 79.7263 64.1336 79.7199 64.6508L75.9117 63.959L73.4095 69.9978C72.9893 69.7392 72.5237 69.5646 72.0194 69.4935L74.4181 63.6939L66.4138 62.2521C66.6142 61.8124 66.7306 61.3211 66.7436 60.8103L75 62.2973L77.8966 55.2952C78.2845 55.6055 78.7371 55.8383 79.222 55.974L76.4936 62.5624L80.0431 63.2025Z" fill="white"/>
<path fill-rule="evenodd" clip-rule="evenodd" d="M68.2436 75.5454L53.5861 81.6101C53.5151 81.1119 53.3407 80.6397 53.0884 80.2263L67.6424 74.1939C67.7519 74.6853 67.9594 75.1445 68.2436 75.5454Z" fill="white"/>
<path fill-rule="evenodd" clip-rule="evenodd" d="M46.4611 80.1745C46.2027 80.5886 46.0213 81.0538 45.9373 81.552L31.946 75.7585C32.2044 75.3513 32.3919 74.8859 32.4764 74.3818L46.4611 80.1745Z" fill="white"/>
<path fill-rule="evenodd" clip-rule="evenodd" d="M27.8211 69.9076C27.33 70.011 26.8705 70.2111 26.4696 70.4958L20.4827 56.0454C20.9808 55.9485 21.4399 55.7545 21.8469 55.4827L27.8211 69.9076Z" fill="white"/>
<path fill-rule="evenodd" clip-rule="evenodd" d="M50.5731 25.9157V34.4502C50.3339 34.405 50.0882 34.3791 49.8361 34.3791C49.5839 34.3791 49.3318 34.405 49.0925 34.4502V25.9157C49.3318 25.961 49.5839 25.9868 49.8361 25.9868C50.0882 25.9868 50.3339 25.961 50.5731 25.9157Z" fill="white"/>
<path fill-rule="evenodd" clip-rule="evenodd" d="M76.4031 52.237C76.4031 52.4891 76.429 52.7348 76.4742 52.9741H71.2178C71.263 52.7348 71.2889 52.4891 71.2889 52.237C71.2889 51.9848 71.263 51.7391 71.2178 51.4999H76.4742C76.429 51.7391 76.4031 51.9848 76.4031 52.237Z" fill="white"/>
<path fill-rule="evenodd" clip-rule="evenodd" d="M23.5022 53.0968C23.5669 52.8188 23.5992 52.5343 23.5992 52.2369C23.5992 52.0235 23.5798 51.8231 23.5475 51.6227L33.8212 51.6744C33.8018 51.8296 33.7889 51.9912 33.7889 52.1528C33.7889 52.4955 33.8341 52.8317 33.9246 53.1485L23.5022 53.0968Z" fill="white"/>
<path fill-rule="evenodd" clip-rule="evenodd" d="M26.1661 96.0928C25.9915 96.1122 25.8169 96.0605 25.6747 95.9441C25.5906 95.8795 25.526 95.8019 25.4807 95.7114C25.707 95.8407 25.9398 95.97 26.1661 96.0928Z" fill="white"/>
<path fill-rule="evenodd" clip-rule="evenodd" d="M81.1941 64.8772V64.9159L81.1553 64.9095L81.1941 64.8772Z" fill="white"/>
<path fill-rule="evenodd" clip-rule="evenodd" d="M96.8859 35.8015C96.8665 35.7304 96.8407 35.6592 96.8083 35.5946C96.8342 35.6334 96.8536 35.6786 96.8665 35.7239C96.873 35.7498 96.8795 35.7756 96.8859 35.8015Z" fill="white"/>
<path fill-rule="evenodd" clip-rule="evenodd" d="M71.6119 7.43046C71.5798 7.41114 71.5537 7.39181 71.5216 7.37858C71.5149 7.37214 71.5149 7.37214 71.5088 7.36604C71.5413 7.37872 71.5735 7.39805 71.5992 7.41792C71.6058 7.42436 71.6119 7.42436 71.6119 7.43046Z" fill="white"/>
<path fill-rule="evenodd" clip-rule="evenodd" d="M11.321 83.123C11.3016 83.0713 11.2952 83.0195 11.2952 82.9678V82.9614C11.2952 82.9549 11.2952 82.9484 11.3016 82.942V82.9743C11.3016 83.026 11.3081 83.0777 11.321 83.123Z" fill="white"/>
<path fill-rule="evenodd" clip-rule="evenodd" d="M11.3858 82.6057L11.3793 82.6445L11.3018 82.942C11.3018 82.9032 11.3082 82.8708 11.3147 82.832V82.8062C11.3276 82.7609 11.3406 82.7221 11.3599 82.6769C11.3664 82.6704 11.3664 82.6639 11.3664 82.6639C11.3664 82.6445 11.3729 82.6251 11.3858 82.6057Z" fill="white"/>
<path fill-rule="evenodd" clip-rule="evenodd" d="M11.9224 82.2371C11.8253 82.2504 11.7351 82.2825 11.6509 82.3405C11.6574 82.3274 11.6635 82.3274 11.6703 82.3211L11.8835 82.1982C11.8966 82.2109 11.9032 82.2244 11.9224 82.2371Z" fill="white"/>
<path fill-rule="evenodd" clip-rule="evenodd" d="M12.834 83.3557L12.6982 83.4333L12.7435 83.2523C12.7694 83.2846 12.8017 83.3234 12.834 83.3557Z" fill="white"/>
<path fill-rule="evenodd" clip-rule="evenodd" d="M44.5605 65.2198L32.263 72.2543H32.2566C32.0755 71.7888 31.7975 71.3685 31.4548 71.0129L43.7264 63.9913C43.9268 64.4568 44.2113 64.8706 44.5605 65.2198Z" fill="white"/>
<path fill-rule="evenodd" clip-rule="evenodd" d="M38.2952 35.7951L37.3191 36.9392L31.6809 33.6997C31.9915 33.3188 32.2304 32.8724 32.3727 32.3938L38.2952 35.7951Z" fill="white"/>
<path fill-rule="evenodd" clip-rule="evenodd" d="M46.5452 36.2088C46.3965 36.4351 46.2801 36.6808 46.1896 36.9394C46.0861 37.2174 46.015 37.5019 45.9827 37.8058L44.3081 35.9049L39.6077 36.5321L33.1292 44.1485L34.1702 49.7153L34.4935 49.9287C34.2672 50.2455 34.0926 50.5946 33.9762 50.9696C33.9374 51.0731 33.9116 51.183 33.8857 51.2929L33.0969 50.7757C32.9288 50.6658 32.8124 50.4912 32.7736 50.2908L31.6163 44.0709C31.6034 43.9933 31.5969 43.9157 31.6098 43.8446C31.6098 43.8187 31.6163 43.7929 31.6292 43.767C31.6486 43.6506 31.7003 43.5472 31.7779 43.4567L37.3189 36.9394L38.2952 35.795L38.6702 35.3553C38.7866 35.2131 38.9547 35.1226 39.1357 35.1032L44.5086 34.3855C44.7478 34.3532 44.9935 34.4437 45.1616 34.6312L46.5452 36.2088Z" fill="white"/>
<path fill-rule="evenodd" clip-rule="evenodd" d="M68.1334 71.2717C67.8624 71.692 67.6811 72.1641 67.597 72.6679L59.942 68.246L60.9246 67.114L68.1334 71.2717Z" fill="white"/>
<path fill-rule="evenodd" clip-rule="evenodd" d="M61.6747 64.3664L61.1187 66.7586C61.0928 66.875 61.0346 66.9849 60.957 67.0754L60.9247 67.1142L59.942 68.2457L54.7695 74.2263C54.6144 74.4138 54.3751 74.5044 54.1359 74.4785H54.1294L50.5734 74.1294L49.6941 74.0453C49.6424 74.0388 49.5906 74.0259 49.5389 74.013C49.3514 73.9483 49.1898 73.819 49.1057 73.638V73.6315C49.0799 73.5798 49.0605 73.5281 49.0475 73.4763L47.4312 66.3384C47.554 66.3384 47.6768 66.3254 47.7932 66.306C48.1747 66.2608 48.5303 66.1573 48.8665 66.0086L50.3665 72.6293L53.9031 72.972L59.7221 66.2478L60.3363 63.6099C60.5885 63.8297 60.873 64.0172 61.1769 64.1659C61.3385 64.2435 61.5001 64.3082 61.6747 64.3664Z" fill="white"/>
<path fill-rule="evenodd" clip-rule="evenodd" d="M68.1982 33.3314L58.2217 39.0923L57.4654 37.8253L67.6616 31.9419C67.7458 32.4458 67.9332 32.9177 68.1982 33.3314Z" fill="white"/>
<path fill-rule="evenodd" clip-rule="evenodd" d="M67.9137 48.3964C67.7456 48.3705 67.5775 48.3576 67.4094 48.3576C67.099 48.3576 66.7951 48.3964 66.5042 48.4675H66.4977C65.8835 48.6097 65.3275 48.9071 64.8684 49.308L63.155 49.4179C62.8835 49.4373 62.6184 49.2951 62.4762 49.0623L56.3404 38.8144L53.5925 39.2088C53.6766 38.9049 53.7154 38.5881 53.7154 38.2584C53.7154 38.2131 53.7154 38.1678 53.7089 38.1291C53.7089 37.9868 53.696 37.8446 53.6701 37.7088L56.6119 37.2821C56.9093 37.2433 57.2003 37.379 57.349 37.6377L57.4654 37.8252L58.2218 39.0924L63.5106 47.9114L67.0925 47.6851C67.4223 47.6657 67.7262 47.8662 67.8361 48.1765L67.9137 48.3964Z" fill="white"/>
<path fill-rule="evenodd" clip-rule="evenodd" d="M69.8472 27.7458C69.3883 27.9521 68.9872 28.25 68.6513 28.6121L65.5925 24.6097C66.065 24.4416 66.498 24.1767 66.86 23.8403L69.8472 27.7458Z" fill="white"/>
<path fill-rule="evenodd" clip-rule="evenodd" d="M82.998 43.7281L81.7502 48.6484C81.3041 48.4612 80.819 48.3642 80.3085 48.3575L81.6467 43.0492C82.0413 43.366 82.4998 43.599 82.998 43.7281Z" fill="white"/>
<path fill-rule="evenodd" clip-rule="evenodd" d="M88.041 21.2087C88.041 21.2281 88.041 21.241 88.0345 21.254C88.0281 21.2346 88.0281 21.2217 88.0151 21.2023C88.0281 21.2023 88.0345 21.2087 88.041 21.2087Z" fill="white"/>
<path fill-rule="evenodd" clip-rule="evenodd" d="M72.9182 71.1875L72.8342 71.3879C72.8083 71.3621 72.776 71.3427 72.7437 71.3233L72.9182 71.1875Z" fill="white"/>
<path fill-rule="evenodd" clip-rule="evenodd" d="M80.5803 67.2113L74.8773 71.5564C74.6511 71.1101 74.334 70.7088 73.9593 70.392L79.875 65.8791C80.0236 66.3707 80.2632 66.8229 80.5803 67.2113Z" fill="white"/>
<path fill-rule="evenodd" clip-rule="evenodd" d="M81.1941 64.8772V64.9159L81.1553 64.9095L81.1941 64.8772Z" fill="white"/>
<path fill-rule="evenodd" clip-rule="evenodd" d="M61.6101 81.9915C61.3967 82.4376 61.261 82.9354 61.2416 83.4591L53.5088 83.2005C53.5928 82.8837 53.6381 82.554 53.6381 82.2113C53.6381 82.0496 53.6252 81.888 53.6058 81.7264L61.6101 81.9915Z" fill="white"/>
<path fill-rule="evenodd" clip-rule="evenodd" d="M34.2932 79.5409C33.8534 79.7802 33.4657 80.0969 33.1486 80.4782L30.5429 77.0902C30.9759 76.8449 31.364 76.5216 31.6742 76.1403L34.2932 79.5409Z" fill="white"/>
<path fill-rule="evenodd" clip-rule="evenodd" d="M11.321 83.1228C11.3016 83.0711 11.2952 83.0194 11.2952 82.9676V82.9612H11.3016V82.9741C11.3016 83.0258 11.3081 83.0775 11.321 83.1228Z" fill="white"/>
<path fill-rule="evenodd" clip-rule="evenodd" d="M11.9224 82.2371C11.8253 82.2504 11.7351 82.2825 11.6509 82.3405C11.6574 82.3274 11.6635 82.3274 11.6703 82.3211L11.8835 82.1982C11.8966 82.2109 11.9032 82.2244 11.9224 82.2371Z" fill="white"/>
<path fill-rule="evenodd" clip-rule="evenodd" d="M19.5002 56.1096L18.22 61.2498C17.7864 61.0432 17.3016 60.9138 16.7907 60.8945L18.0709 55.7543C18.5045 55.9609 18.9893 56.0903 19.5002 56.1096Z" fill="white"/>
<path fill-rule="evenodd" clip-rule="evenodd" d="M25.965 34.0493L20.1786 38.478C19.991 38.0126 19.7134 37.5924 19.364 37.237L25.112 32.8401C25.312 33.2993 25.6034 33.713 25.965 34.0493Z" fill="white"/>
<path fill-rule="evenodd" clip-rule="evenodd" d="M45.9569 22.1074C45.9569 22.2561 45.9634 22.4048 45.9828 22.5471L39.1746 22.3984C39.2715 22.0622 39.3233 21.7001 39.3233 21.3316C39.3233 21.1958 39.3168 21.06 39.3039 20.9307L46.0991 21.0729C46.0022 21.4027 45.9569 21.7518 45.9569 22.1074Z" fill="white"/>
<path fill-rule="evenodd" clip-rule="evenodd" d="M53.6896 22.547C53.709 22.4048 53.7155 22.256 53.7155 22.1073C53.7155 21.7517 53.6702 21.4026 53.5732 21.0729L60.3879 20.9306V20.9629C60.3879 21.4673 60.4849 21.9522 60.6659 22.3983L53.6896 22.547Z" fill="white"/>
<path fill-rule="evenodd" clip-rule="evenodd" d="M88.041 21.2087C88.041 21.2281 88.041 21.241 88.0345 21.254C88.0281 21.2346 88.0281 21.2217 88.0151 21.2023C88.0281 21.2023 88.0345 21.2087 88.041 21.2087Z" fill="white"/>
<path fill-rule="evenodd" clip-rule="evenodd" d="M46.7326 22.5924L46.7908 22.5665H46.7326C46.7261 22.573 46.7326 22.5859 46.7326 22.5924ZM52.8749 22.5665L52.9395 22.5924C52.9395 22.5859 52.946 22.573 52.946 22.5665H52.8749Z" fill="white"/>
<path fill-rule="evenodd" clip-rule="evenodd" d="M46.7326 22.5924L46.7908 22.5665H46.7326C46.7261 22.573 46.7326 22.5859 46.7326 22.5924ZM52.8749 22.5665L52.9395 22.5924C52.9395 22.5859 52.946 22.573 52.946 22.5665H52.8749Z" fill="white"/>
<path fill-rule="evenodd" clip-rule="evenodd" d="M52.9396 22.5923L52.8749 22.5664H52.946C52.946 22.5729 52.9396 22.5858 52.9396 22.5923ZM52.2219 22.2948C52.2219 22.3918 52.209 22.4823 52.1896 22.5793C52.1055 22.9802 51.9245 23.3552 51.6594 23.6591C51.3814 23.9953 51.0064 24.2539 50.5732 24.3897C50.3404 24.4673 50.0947 24.5061 49.8361 24.5061C49.5775 24.5061 49.3253 24.4673 49.0926 24.3832C48.6658 24.2474 48.2908 23.9953 48.0064 23.6591C47.7477 23.3552 47.5602 22.9802 47.4827 22.5793C47.4568 22.4823 47.4439 22.3918 47.4439 22.2948C47.4309 22.2302 47.4309 22.172 47.4309 22.1073C47.4309 21.7517 47.5085 21.4155 47.6508 21.1117C47.9223 20.5039 48.446 20.0319 49.0926 19.825C49.3253 19.741 49.5775 19.7022 49.8361 19.7022C50.0947 19.7022 50.3404 19.741 50.5732 19.8185C51.2197 20.0254 51.7434 20.5039 52.015 21.1117C52.1572 21.4155 52.2348 21.7517 52.2348 22.1073C52.2348 22.172 52.2348 22.2302 52.2219 22.2948ZM46.7327 22.5923C46.7327 22.5858 46.7262 22.5729 46.7327 22.5664H46.7908L46.7327 22.5923ZM53.5732 21.0729C53.1852 19.6634 52.0215 18.5772 50.5732 18.2991C50.334 18.2539 50.0883 18.228 49.8361 18.228C49.5839 18.228 49.3318 18.2539 49.0926 18.2991C47.6443 18.5836 46.487 19.6698 46.099 21.0729C46.002 21.4026 45.9568 21.7517 45.9568 22.1073C45.9568 22.2561 45.9633 22.4048 45.9826 22.547C45.9956 22.6569 46.0085 22.7668 46.0344 22.8767C46.1314 23.3746 46.3253 23.8337 46.5969 24.241C47.1594 25.0944 48.0516 25.7151 49.0926 25.9156C49.3318 25.9608 49.5839 25.9867 49.8361 25.9867C50.0883 25.9867 50.334 25.9608 50.5732 25.9156C51.6141 25.7151 52.5128 25.0944 53.0753 24.241C53.3469 23.8337 53.5409 23.3746 53.6378 22.8832C53.6572 22.7733 53.6766 22.6634 53.6896 22.547C53.709 22.4048 53.7154 22.2561 53.7154 22.1073C53.7154 21.7517 53.6702 21.4026 53.5732 21.0729Z" fill="white"/>
<path fill-rule="evenodd" clip-rule="evenodd" d="M81.0521 37.4952C80.7284 37.877 80.4828 38.3166 80.3274 38.8013L74.1662 34.0555C74.5278 33.7194 74.8191 33.3055 75.0196 32.8535L81.0521 37.4952Z" fill="white"/>
<path fill-rule="evenodd" clip-rule="evenodd" d="M83.0306 60.9266C82.5259 60.991 82.0542 61.166 81.6338 61.4181L80.3021 56.1226C80.8123 56.1228 81.3037 56.0192 81.7504 55.8317L83.0306 60.9266Z" fill="white"/>
<path fill-rule="evenodd" clip-rule="evenodd" d="M69.5881 76.7413L66.8855 80.2198C66.4202 79.9745 65.8965 79.8256 65.3403 79.7995L68.4438 75.804C68.7608 76.1853 69.1488 76.5089 69.5881 76.7413Z" fill="white"/>
<path fill-rule="evenodd" clip-rule="evenodd" d="M11.3791 82.6446L11.3015 82.942C11.3015 82.9032 11.308 82.8709 11.3144 82.8321V82.8062C11.3274 82.7609 11.3403 82.7221 11.3597 82.6769C11.3662 82.6704 11.3662 82.664 11.3662 82.664C11.3662 82.6575 11.3726 82.651 11.3791 82.6446Z" fill="white"/>
<path fill-rule="evenodd" clip-rule="evenodd" d="M12.834 83.3557L12.6982 83.4333L12.7435 83.2523C12.7694 83.2846 12.8017 83.3234 12.834 83.3557Z" fill="white"/>
<path fill-rule="evenodd" clip-rule="evenodd" d="M39.9955 83.2523C40.002 83.1553 40.0084 83.0583 40.0084 82.9614C40.0084 82.5476 39.9438 82.1532 39.8274 81.7782L45.9179 81.6812C45.8921 81.8558 45.8791 82.0303 45.8791 82.2114C45.8791 82.5346 45.9179 82.8514 45.9955 83.1553L39.9955 83.2523Z" fill="white"/>
<path fill-rule="evenodd" clip-rule="evenodd" d="M26.1013 70.7804C25.7262 71.1031 25.416 71.5043 25.1962 71.9502L19.377 67.4441C19.7197 67.088 19.9977 66.6615 20.1788 66.1963L26.1013 70.7804Z" fill="white"/>
<path fill-rule="evenodd" clip-rule="evenodd" d="M19.4544 48.3705C18.9439 48.4023 18.4651 48.5319 18.0324 48.7453L16.7387 43.7991C17.256 43.7798 17.7413 43.6638 18.1807 43.4629L19.4544 48.3705Z" fill="white"/>
<path fill-rule="evenodd" clip-rule="evenodd" d="M34.2155 25.0103L31.5065 28.631C31.1702 28.2688 30.7694 27.9648 30.3101 27.7585L32.9224 24.2736C33.2973 24.6035 33.7373 24.8551 34.2155 25.0103Z" fill="white"/>
<path fill-rule="evenodd" clip-rule="evenodd" d="M50.5731 74.1358V78.416C50.308 78.3643 50.0365 78.332 49.7585 78.332C49.5322 78.332 49.3059 78.3514 49.0925 78.3902V73.7479C49.0925 73.7091 49.0925 73.6768 49.1055 73.638C49.1895 73.819 49.3512 73.9483 49.5387 74.013L49.5451 74.0389L50.5731 74.1358Z" fill="white"/>
<path fill-rule="evenodd" clip-rule="evenodd" d="M50.5733 74.1293V74.1358L49.5453 74.0388L49.5388 74.0129C49.5905 74.0258 49.6423 74.0388 49.694 74.0452L50.5733 74.1293Z" fill="white"/>
<path fill-rule="evenodd" clip-rule="evenodd" d="M37.61 22.366C37.222 23.1742 36.4009 23.7302 35.444 23.7302C35.36 23.7302 35.2694 23.7238 35.1854 23.7173C34.6617 23.6591 34.1832 23.4328 33.8147 23.0837C33.569 22.8638 33.3686 22.5858 33.2393 22.269H33.2328C33.11 21.9781 33.0453 21.6612 33.0453 21.3315C33.0453 21.1505 33.0647 20.9694 33.1035 20.7949C33.1617 20.5362 33.2651 20.297 33.4009 20.0772C33.6595 19.644 34.0604 19.3013 34.5324 19.1073C34.8104 18.991 35.1207 18.9263 35.444 18.9263C35.8901 18.9263 36.3169 19.0492 36.6725 19.269C37.1121 19.5276 37.4677 19.9285 37.6682 20.4069C37.7263 20.5621 37.7781 20.7302 37.8039 20.8983C37.8363 21.0405 37.8492 21.1828 37.8492 21.3315C37.8492 21.7 37.7651 22.0556 37.61 22.366ZM39.3039 20.9306C39.2328 20.2582 38.9936 19.644 38.6251 19.1203C38.347 18.7065 37.9785 18.3509 37.5582 18.0793C36.9505 17.6785 36.2263 17.4522 35.444 17.4522C34.8298 17.4522 34.2479 17.5944 33.7306 17.853C33.2781 18.0729 32.8772 18.3767 32.5539 18.7517C32.0561 19.3013 31.7199 19.9931 31.61 20.7625C31.5776 20.95 31.5647 21.1375 31.5647 21.3315C31.5647 21.6418 31.6035 21.9457 31.6746 22.2367C31.8621 23.0449 32.3147 23.7561 32.9225 24.2733C33.2975 24.6031 33.7371 24.8552 34.2156 25.0104C34.6035 25.1397 35.0173 25.2108 35.444 25.2108C37.222 25.2108 38.7156 24.0212 39.1746 22.3983C39.2716 22.0621 39.3233 21.7 39.3233 21.3315C39.3233 21.1957 39.3169 21.0599 39.3039 20.9306Z" fill="white"/>
<path fill-rule="evenodd" clip-rule="evenodd" d="M19.8751 54.5905L19.8945 54.6357H19.8687L19.8751 54.5905Z" fill="white"/>
<path fill-rule="evenodd" clip-rule="evenodd" d="M19.8945 49.8447L19.8622 49.9223L19.8428 49.8447H19.8945Z" fill="white"/>
<path fill-rule="evenodd" clip-rule="evenodd" d="M21.9632 53.0838C21.8209 53.4718 21.5753 53.8144 21.2649 54.0731C20.8899 54.3899 20.4115 54.5968 19.8942 54.6356H19.8684C19.8166 54.642 19.7714 54.642 19.7196 54.642C19.2541 54.642 18.808 54.5062 18.4395 54.267C17.9934 53.989 17.6442 53.5687 17.4632 53.0644C17.3662 52.8058 17.3145 52.5278 17.3145 52.2368C17.3145 52.0105 17.3468 51.7972 17.405 51.5903C17.5666 51.0213 17.9287 50.5364 18.4136 50.2196C18.7886 49.9804 19.2412 49.8381 19.7196 49.8381C19.7584 49.8381 19.8037 49.8381 19.8425 49.8446H19.8942C20.4115 49.8834 20.8899 50.0838 21.2649 50.4006C21.6334 50.711 21.9115 51.1312 22.0343 51.6161C22.0925 51.8166 22.1184 52.0235 22.1184 52.2368C22.1184 52.5343 22.0666 52.8187 21.9632 53.0838ZM23.5472 51.6226C23.3727 50.5235 22.7391 49.5795 21.8468 48.9976C21.4395 48.726 20.9804 48.5321 20.4826 48.4286C20.2369 48.3834 19.9783 48.3575 19.7196 48.3575C19.6291 48.3575 19.5386 48.3575 19.4546 48.3704C18.9438 48.4028 18.4653 48.5321 18.0321 48.7454C16.9265 49.2821 16.1119 50.3295 15.8985 51.5774C15.8597 51.7907 15.8403 52.0105 15.8403 52.2368C15.8403 52.5213 15.8727 52.7929 15.9244 53.058H15.9308C16.183 54.2541 16.9912 55.2498 18.0709 55.7541C18.5041 55.961 18.989 56.0903 19.4998 56.1097C19.5709 56.1226 19.6421 56.1226 19.7196 56.1226C19.9783 56.1226 20.2369 56.0968 20.4826 56.0451C20.9804 55.9481 21.4395 55.7541 21.8468 55.4825C22.6679 54.9459 23.2757 54.0925 23.502 53.0968C23.5666 52.8187 23.599 52.5343 23.599 52.2368C23.599 52.0235 23.5796 51.823 23.5472 51.6226Z" fill="white"/>
<path fill-rule="evenodd" clip-rule="evenodd" d="M31.248 75.4678C31.2415 75.4872 31.2286 75.5065 31.2092 75.5259L31.1187 75.416L31.248 75.4678Z" fill="white"/>
<path fill-rule="evenodd" clip-rule="evenodd" d="M31.1184 75.4159L31.2089 75.5258C31.2283 75.5064 31.2413 75.487 31.2477 75.4676L31.1184 75.4159Z" fill="white"/>
<path fill-rule="evenodd" clip-rule="evenodd" d="M31.2091 75.5258L31.1186 75.4159L31.2479 75.4676C31.2414 75.487 31.2285 75.5064 31.2091 75.5258ZM31.0539 73.793C31.041 74.2004 30.9246 74.5754 30.7306 74.9051C30.6789 75.0021 30.6143 75.0926 30.5431 75.1767C30.3039 75.487 29.9871 75.7392 29.625 75.9008C29.3276 76.0301 28.9979 76.1012 28.6552 76.1012C27.9569 76.1012 27.3233 75.7974 26.8901 75.3189C26.5539 74.9568 26.3341 74.4913 26.2759 73.9741C26.263 73.8835 26.2565 73.793 26.2565 73.696C26.2565 73.4051 26.3082 73.1335 26.3987 72.8814C26.5345 72.5064 26.7608 72.1702 27.0582 71.918C27.1358 71.8404 27.2198 71.7758 27.3039 71.7176C27.6207 71.4978 28.0022 71.3555 28.403 71.3103C28.4871 71.3038 28.5711 71.2973 28.6552 71.2973C29.1983 71.2973 29.7026 71.4784 30.1035 71.7822C30.5043 72.0861 30.8082 72.5064 30.9569 72.9978C31.0216 73.2176 31.0604 73.4504 31.0604 73.696C31.0604 73.7284 31.0604 73.7607 31.0539 73.793ZM32.263 72.2542H32.2565C32.0755 71.7887 31.7974 71.3684 31.4548 71.0128C30.75 70.2758 29.7543 69.8167 28.6552 69.8167C28.3707 69.8167 28.0862 69.849 27.8211 69.9072C27.3298 70.0107 26.8707 70.2111 26.4698 70.4956C26.3405 70.5796 26.2177 70.6766 26.1013 70.7801C25.7263 71.1034 25.416 71.5042 25.1961 71.9503C24.9246 72.4741 24.7759 73.0689 24.7759 73.696C24.7759 74.0581 24.8276 74.4137 24.9246 74.7435C25.0539 75.2284 25.2802 75.681 25.5905 76.0689C26.2953 76.987 27.4073 77.5754 28.6552 77.5754C29.3405 77.5754 29.9871 77.4008 30.5431 77.0905C30.9763 76.8448 31.3643 76.5215 31.6746 76.14C31.7716 76.0236 31.8621 75.8943 31.9461 75.7586C32.2048 75.3512 32.3923 74.8857 32.4763 74.3814C32.5216 74.1616 32.541 73.9288 32.541 73.696C32.541 73.1853 32.444 72.7004 32.263 72.2542Z" fill="white"/>
<path fill-rule="evenodd" clip-rule="evenodd" d="M52.1636 82.2113C52.1636 82.5411 52.099 82.8579 51.9761 83.1488C51.7111 83.7631 51.2067 84.248 50.5731 84.4743C50.321 84.5648 50.043 84.6165 49.7585 84.6165C49.5257 84.6165 49.3059 84.5842 49.0925 84.5195C48.3878 84.3191 47.8188 83.7954 47.5408 83.1294C47.4244 82.845 47.3598 82.5346 47.3598 82.2113C47.3598 82.1919 47.3598 82.1661 47.3662 82.1467C47.3662 81.9786 47.3856 81.8169 47.4244 81.6553C47.502 81.3191 47.6507 81.0152 47.8576 80.7501C48.1615 80.3493 48.5947 80.0454 49.0925 79.9031C49.3059 79.8385 49.5257 79.8061 49.7585 79.8061C50.043 79.8061 50.321 79.8579 50.5731 79.9484C51.0322 80.1165 51.4266 80.4139 51.6981 80.8018C51.8921 81.0605 52.0279 81.3579 52.099 81.6747C52.1442 81.8428 52.1636 82.0238 52.1636 82.2049V82.2113ZM53.6055 81.7264C53.6055 81.6876 53.599 81.6553 53.5861 81.6165V81.61C53.5149 81.1122 53.3404 80.6402 53.0882 80.2264C52.5516 79.3148 51.6464 78.6488 50.5731 78.4161C50.308 78.3643 50.0365 78.332 49.7585 78.332C49.5322 78.332 49.3059 78.3514 49.0925 78.3902C47.9804 78.5842 47.03 79.2501 46.461 80.1747C46.2024 80.5885 46.0214 81.054 45.9373 81.5518C45.9309 81.5906 45.9179 81.6359 45.9179 81.6812C45.8921 81.8557 45.8792 82.0303 45.8792 82.2113C45.8792 82.5346 45.9179 82.8514 45.9955 83.1553C46.3641 84.6295 47.5796 85.7674 49.0925 86.0325C49.3059 86.0713 49.5322 86.0907 49.7585 86.0907C50.0365 86.0907 50.308 86.0583 50.5731 86.0066C52.0085 85.6963 53.1399 84.6036 53.5085 83.2006C53.5925 82.8838 53.6378 82.554 53.6378 82.2113C53.6378 82.0497 53.6249 81.8881 53.6055 81.7264Z" fill="white"/>
<path fill-rule="evenodd" clip-rule="evenodd" d="M69.0259 73.4956L69.1552 73.5667L69.0388 73.6185C69.0323 73.5797 69.0259 73.5409 69.0259 73.4956Z" fill="white"/>
<path fill-rule="evenodd" clip-rule="evenodd" d="M72.9182 71.1875L72.8342 71.3879C72.8083 71.3621 72.776 71.3427 72.7437 71.3233L72.9182 71.1875Z" fill="white"/>
<path fill-rule="evenodd" clip-rule="evenodd" d="M72.7434 71.3232C72.7757 71.3426 72.8081 71.362 72.8339 71.3879L72.918 71.1875L72.7434 71.3232Z" fill="white"/>
<path fill-rule="evenodd" clip-rule="evenodd" d="M73.5647 74.4072C73.3255 74.8727 72.944 75.2542 72.472 75.4805C72.1552 75.6357 71.7996 75.7262 71.4181 75.7262C71.1013 75.7262 70.7974 75.6615 70.5194 75.5516C70.1897 75.4159 69.8987 75.2154 69.666 74.9568C69.5561 74.8469 69.4655 74.724 69.388 74.5947C69.2005 74.3038 69.0841 73.974 69.0388 73.6184C69.0324 73.5796 69.0259 73.5408 69.0259 73.4956C69.0194 73.4374 69.0194 73.3792 69.0194 73.321C69.0194 72.8296 69.1617 72.3835 69.4138 72.0085C69.8405 71.3555 70.5776 70.9223 71.4181 70.9223H71.4311C71.916 70.9223 72.3686 71.071 72.7436 71.3232L72.9181 71.1874L72.8341 71.3878C73.2156 71.6594 73.5065 72.0344 73.6681 72.4805C73.7716 72.7391 73.8233 73.0236 73.8233 73.321C73.8233 73.7154 73.7263 74.084 73.5647 74.4072ZM74.8772 71.5559C74.6509 71.1098 74.3341 70.7089 73.9591 70.3921C73.791 70.2369 73.6035 70.1076 73.4095 69.9977C72.9893 69.7391 72.5237 69.5645 72.0194 69.4934C71.8255 69.4546 71.625 69.4417 71.4181 69.4417C70.0345 69.4417 68.8125 70.1723 68.1336 71.2714C67.8621 71.6917 67.6811 72.1637 67.597 72.668C67.5582 72.8814 67.5388 73.1012 67.5388 73.321C67.5388 73.6184 67.5711 73.9094 67.6423 74.1939C67.7522 74.6852 67.9591 75.1443 68.2436 75.5452C68.3082 75.6357 68.3729 75.7197 68.444 75.8038C68.7608 76.1853 69.1487 76.5085 69.5884 76.7413C70.1315 77.0322 70.7522 77.2003 71.4181 77.2003C72.3621 77.2003 73.222 76.8641 73.8944 76.3081H73.9009C74.2888 75.9848 74.6121 75.5904 74.8449 75.1443C75.1423 74.6012 75.3039 73.9805 75.3039 73.321C75.3039 72.6874 75.1487 72.0861 74.8772 71.5559Z" fill="white"/>
<path fill-rule="evenodd" clip-rule="evenodd" d="M73.7909 31.9028C73.6551 32.4007 73.3642 32.8339 72.9762 33.1377C72.9439 33.1636 72.9181 33.1895 72.8857 33.2089C72.4913 33.4998 72.0064 33.6679 71.4762 33.6679C70.6422 33.6679 69.9116 33.2412 69.4849 32.5946C69.2262 32.2132 69.0775 31.7541 69.0775 31.2627C69.0775 31.2175 69.0775 31.1657 69.084 31.1205C69.084 31.0429 69.0969 30.9653 69.1099 30.8877C69.168 30.4933 69.3297 30.1248 69.5689 29.8144C69.6271 29.7304 69.6982 29.6463 69.7758 29.5688C70.0474 29.2907 70.39 29.0838 70.7715 28.9675C70.9913 28.8963 71.2306 28.8575 71.4762 28.8575C71.8642 28.8575 72.2327 28.9481 72.556 29.1162C73.0215 29.3489 73.403 29.7304 73.6293 30.2024C73.7909 30.5192 73.8814 30.8813 73.8814 31.2627C73.8814 31.4826 73.8491 31.7024 73.7909 31.9028ZM74.9159 29.4588C74.6831 29.0127 74.3663 28.6183 73.9784 28.295C73.306 27.7261 72.4331 27.3834 71.4762 27.3834C70.8943 27.3834 70.3383 27.5127 69.8469 27.7455C69.3879 27.9524 68.987 28.2498 68.6508 28.6118C68.5409 28.7218 68.4374 28.8446 68.3469 28.9739C68.056 29.3683 67.8361 29.8209 67.7198 30.3123C67.6357 30.6162 67.5969 30.933 67.5969 31.2627C67.5969 31.4955 67.6163 31.7218 67.6616 31.9416C67.7456 32.4459 67.9331 32.9179 68.1982 33.3317C68.8836 34.4179 70.0991 35.1421 71.4762 35.1421C71.6767 35.1421 71.8706 35.1291 72.0646 35.0903C72.5689 35.0192 73.0409 34.8511 73.4612 34.5925C73.7198 34.4438 73.9525 34.2627 74.1659 34.0558C74.528 33.7196 74.8189 33.3058 75.0193 32.8533C75.2392 32.3683 75.362 31.8317 75.362 31.2627C75.362 30.6097 75.2004 29.9955 74.9159 29.4588Z" fill="white"/>
<path fill-rule="evenodd" clip-rule="evenodd" d="M86.0238 41.3229C85.7393 41.7561 85.3126 42.0859 84.8147 42.2605C84.569 42.351 84.3039 42.3962 84.0259 42.3962C83.7932 42.3962 83.5733 42.3639 83.36 42.2992C82.8298 42.1505 82.3772 41.8208 82.0669 41.3811C81.7888 40.9867 81.6207 40.5083 81.6207 39.991C81.6207 39.9264 81.6207 39.8682 81.6337 39.8035C81.6725 39.2669 81.8923 38.782 82.2285 38.4005C82.4354 38.1678 82.6876 37.9738 82.9656 37.8445V37.838C83.2824 37.6828 83.6445 37.5923 84.0259 37.5923C84.2005 37.5923 84.3686 37.6117 84.5302 37.644C85.0345 37.754 85.4807 38.019 85.8104 38.3941C86.1466 38.7626 86.36 39.2346 86.4117 39.7518C86.4182 39.8294 86.4246 39.9135 86.4246 39.991C86.4246 40.4824 86.2759 40.9415 86.0238 41.3229ZM87.8406 39.3057C87.7565 38.8078 87.569 38.3423 87.3039 37.9285C86.7738 37.0751 85.9074 36.4415 84.8923 36.2087C84.6143 36.144 84.3233 36.1117 84.0259 36.1117C83.8061 36.1117 83.5927 36.1311 83.3858 36.1699C82.4483 36.3186 81.6337 36.8035 81.0518 37.4953C80.7285 37.8768 80.4828 38.3165 80.3276 38.8014C80.2048 39.1764 80.1401 39.5772 80.1401 39.991C80.1401 41.2389 80.7285 42.351 81.6466 43.0493C82.041 43.3661 82.5001 43.5988 82.9979 43.7281C83.3276 43.8251 83.6703 43.8704 84.0259 43.8704C84.7953 43.8704 85.513 43.6505 86.1143 43.2562C86.5345 42.9911 86.9031 42.6419 87.194 42.2281C87.6466 41.5945 87.9052 40.8251 87.9052 39.991C87.9052 39.7583 87.8858 39.5255 87.8406 39.3057Z" fill="white"/>
<path fill-rule="evenodd" clip-rule="evenodd" d="M81.1553 64.9094L81.1941 64.9158V64.877L81.1553 64.9094Z" fill="white"/>
<path fill-rule="evenodd" clip-rule="evenodd" d="M81.1553 64.9094L81.1941 64.9158V64.877L81.1553 64.9094Z" fill="white"/>
<path fill-rule="evenodd" clip-rule="evenodd" d="M85.7848 65.7434C85.5391 66.2866 85.0929 66.7262 84.5498 66.9719C84.2589 67.0947 83.9356 67.1659 83.5929 67.1659C83.4119 67.1659 83.2309 67.1465 83.0628 67.1012C82.5391 66.9913 82.0865 66.7003 81.7567 66.3059C81.427 65.9245 81.2266 65.446 81.1942 64.9159L81.1554 64.9094L81.1942 64.8771C81.1878 64.8383 81.1878 64.7995 81.1878 64.7607C81.1878 64.2887 81.3235 63.849 81.5628 63.4805C81.6856 63.2801 81.8408 63.099 82.0154 62.9503C82.3904 62.627 82.8688 62.4137 83.3925 62.3749C83.4572 62.362 83.5218 62.362 83.5929 62.362C83.8516 62.362 84.1037 62.4008 84.33 62.4848C84.8408 62.64 85.274 62.9697 85.5649 63.4029C85.746 63.6551 85.8753 63.9525 85.9399 64.2693C85.9723 64.4245 85.9917 64.5926 85.9917 64.7607C85.9917 65.1098 85.9141 65.446 85.7848 65.7434ZM87.4593 64.5409C87.4205 63.7844 87.1619 63.0861 86.7417 62.5042C86.4507 62.0904 86.0822 61.7413 85.649 61.4762C85.0541 61.1012 84.3494 60.8813 83.5929 60.8813C83.399 60.8813 83.2115 60.8943 83.0304 60.9266C82.5261 60.9913 82.0541 61.1658 81.6339 61.418C80.9291 61.8189 80.3731 62.446 80.0434 63.2025C79.8429 63.6486 79.7266 64.1335 79.7201 64.6508C79.7136 64.6896 79.7136 64.7219 79.7136 64.7607C79.7136 65.1486 79.7718 65.5236 79.8753 65.8792C80.024 66.3706 80.2632 66.8232 80.58 67.2111C81.2653 68.0517 82.2869 68.6012 83.4442 68.64C83.4895 68.6465 83.5412 68.6465 83.5929 68.6465C84.0585 68.6465 84.4981 68.5624 84.9119 68.4137C86.0175 68.0129 86.8904 67.1271 87.2654 66.0085C87.4011 65.6141 87.4723 65.2003 87.4723 64.7607C87.4723 64.6896 87.4723 64.612 87.4593 64.5409Z" fill="white"/>
<path fill-rule="evenodd" clip-rule="evenodd" d="M67.513 83.6725C67.513 84.2997 67.2673 84.8686 66.8729 85.2954C66.5302 85.6639 66.0777 85.929 65.5669 86.026C65.4182 86.0583 65.263 86.0712 65.1078 86.0712C64.2932 86.0712 63.569 85.6639 63.1358 85.0367C62.8643 84.6488 62.7091 84.1768 62.7091 83.666C62.7091 83.6143 62.7091 83.5626 62.7156 83.5109C62.7221 83.3686 62.7414 83.2264 62.7802 83.0971C62.8708 82.6962 63.0712 82.3406 63.3427 82.0497C63.5173 81.8492 63.7371 81.6811 63.9764 81.5518C64.3126 81.3708 64.7005 81.2673 65.1078 81.2673C65.4052 81.2673 65.6833 81.319 65.9484 81.4225C66.3621 81.5712 66.7242 81.8363 66.9893 82.179C67.319 82.5863 67.513 83.1035 67.513 83.666V83.6725ZM68.7091 82.2307C68.36 81.3578 67.7134 80.6466 66.8859 80.2199C66.4203 79.9742 65.8966 79.8255 65.3406 79.7996C65.263 79.7867 65.1854 79.7867 65.1078 79.7867C63.569 79.7867 62.2371 80.6854 61.61 81.9915C61.3966 82.4376 61.2608 82.9354 61.2414 83.4591C61.2285 83.5238 61.2285 83.5949 61.2285 83.666C61.2285 84.0798 61.2932 84.4742 61.416 84.8492C61.5777 85.3665 61.8492 85.8385 62.2048 86.2393C62.916 87.0411 63.9505 87.5454 65.1078 87.5454C65.6121 87.5454 66.0971 87.4484 66.5367 87.2738C67.0087 87.0863 67.4354 86.8148 67.791 86.4721C68.5152 85.7738 68.9678 84.804 68.9872 83.7242V83.666C68.9872 83.1617 68.8902 82.6768 68.7091 82.2307Z" fill="white"/>
<path fill-rule="evenodd" clip-rule="evenodd" d="M48.5235 64.5151C48.2067 64.7091 47.8447 64.8319 47.4567 64.8578C47.3985 64.8642 47.3468 64.8642 47.2886 64.8642C47.224 64.8642 47.1593 64.8642 47.0947 64.8513C46.6615 64.819 46.2606 64.6703 45.9244 64.4375C45.5106 64.1466 45.1938 63.7328 45.0322 63.2479C44.9416 63.0022 44.8964 62.7435 44.8964 62.472C44.8964 61.6638 45.2972 60.9526 45.9115 60.5129C46.002 60.4483 46.1054 60.3901 46.2089 60.3384C46.5322 60.1702 46.9007 60.0797 47.2886 60.0797H47.321C48.627 60.0991 49.6744 61.1659 49.6744 62.472C49.6744 63.3384 49.2153 64.0948 48.5235 64.5151ZM47.2886 58.6056C47.1464 58.6056 47.0041 58.612 46.8684 58.6314C46.474 58.6702 46.1054 58.7672 45.7628 58.9159C45.6593 58.9612 45.5559 59.0129 45.4589 59.0646C44.2434 59.7177 43.4158 60.9978 43.4158 62.472C43.4158 63.0086 43.5257 63.5259 43.7261 63.9914C43.9265 64.4569 44.211 64.8707 44.5602 65.2198C45.2649 65.9181 46.2218 66.3449 47.2886 66.3449C47.3339 66.3449 47.3856 66.3449 47.4309 66.3384C47.5537 66.3384 47.6766 66.3255 47.7929 66.3061C48.1744 66.2608 48.53 66.1574 48.8662 66.0086V66.0022C50.2175 65.4009 51.155 64.0431 51.155 62.472C51.155 60.3384 49.4222 58.6056 47.2886 58.6056Z" fill="white"/>
<path fill-rule="evenodd" clip-rule="evenodd" d="M40.0216 52.6507C39.9763 52.8641 39.9052 53.0645 39.8082 53.252C39.4074 54.0279 38.5992 54.558 37.6681 54.558C36.7048 54.558 35.8707 53.9826 35.4957 53.1615H35.4893C35.3535 52.8705 35.2759 52.5537 35.2694 52.211V52.1528C35.2694 52.0494 35.2759 51.946 35.2888 51.8425C35.2953 51.7843 35.3018 51.7326 35.3147 51.6809C35.3858 51.3317 35.528 51.0149 35.7285 50.7434C36.1681 50.1421 36.8729 49.7541 37.6681 49.7541C38.8772 49.7541 39.8664 50.6334 40.041 51.7843C40.0604 51.9007 40.0733 52.03 40.0733 52.1528C40.0733 52.321 40.0539 52.4891 40.0216 52.6507ZM41.541 51.8425C41.3793 49.8446 39.7112 48.2735 37.6681 48.2735C36.3556 48.2735 35.1983 48.9265 34.4936 49.9287C34.2673 50.2455 34.0927 50.5946 33.9763 50.9697C33.9375 51.0731 33.9117 51.183 33.8858 51.2929C33.8535 51.4158 33.8341 51.5451 33.8211 51.6744C33.8017 51.8296 33.7888 51.9912 33.7888 52.1528C33.7888 52.4955 33.8341 52.8317 33.9246 53.1485C34.3578 54.8102 35.8707 56.0322 37.6681 56.0322C39.4138 56.0322 40.888 54.8878 41.3793 53.3102C41.4375 53.1162 41.4828 52.9158 41.5087 52.7089C41.541 52.5279 41.5539 52.3403 41.5539 52.1528C41.5539 52.0494 41.5475 51.946 41.541 51.8425Z" fill="white"/>
<path fill-rule="evenodd" clip-rule="evenodd" d="M52.2286 38.3425C52.2221 38.7434 52.1057 39.1248 51.9118 39.4546C51.5045 40.1787 50.7286 40.6636 49.8363 40.6636C49.1769 40.6636 48.5756 40.3921 48.1424 39.9654C47.7286 39.5516 47.457 38.9891 47.4376 38.3619C47.4312 38.3296 47.4312 38.2908 47.4312 38.2584C47.4312 37.9546 47.4894 37.6636 47.5928 37.3921C47.8514 36.7196 48.401 36.1959 49.0928 35.9761C49.3256 35.8921 49.5777 35.8533 49.8363 35.8533C50.095 35.8533 50.3407 35.8921 50.5734 35.9696C51.4333 36.2477 52.0799 37.0041 52.2092 37.9222C52.2286 38.0322 52.2351 38.1421 52.2351 38.2584C52.2351 38.2843 52.2351 38.3166 52.2286 38.3425ZM53.7092 38.1291C53.7092 37.9869 53.6963 37.8447 53.6704 37.7089C53.4441 36.0731 52.1833 34.7606 50.5734 34.4502C50.3342 34.405 50.0885 34.3791 49.8363 34.3791C49.5842 34.3791 49.332 34.405 49.0928 34.4502C48.0195 34.6571 47.1014 35.3102 46.5454 36.2089C46.3967 36.4352 46.2803 36.6809 46.1898 36.9395C46.0863 37.2175 46.0152 37.502 45.9829 37.8059C45.9635 37.9546 45.957 38.1033 45.957 38.2584C45.957 40.3985 47.6963 42.1378 49.8363 42.1378C51.6467 42.1378 53.1726 40.8899 53.5928 39.2089C53.6769 38.905 53.7157 38.5882 53.7157 38.2584C53.7157 38.2132 53.7157 38.1679 53.7092 38.1291Z" fill="white"/>
<path fill-rule="evenodd" clip-rule="evenodd" d="M64.888 61.974C64.4613 62.6399 63.7178 63.0796 62.8708 63.0796C62.5669 63.0796 62.2759 63.0214 62.0109 62.9179C61.8363 62.8533 61.6746 62.7692 61.5259 62.6658C61.2027 62.4459 60.9376 62.155 60.7501 61.8059C60.569 61.4696 60.4656 61.0882 60.4656 60.6744C60.4656 59.8726 60.86 59.1614 61.4613 58.7282C61.7716 58.502 62.1402 58.3468 62.5346 58.2951C62.6445 58.2757 62.7544 58.2692 62.8708 58.2692C62.9419 58.2692 63.013 58.2692 63.0841 58.2821C64.2673 58.3856 65.1984 59.3489 65.263 60.5386C65.2695 60.5839 65.2695 60.6291 65.2695 60.6744C65.2695 61.1528 65.1337 61.599 64.888 61.974ZM63.9182 56.9438C63.7565 56.892 63.5949 56.8597 63.4268 56.8403C63.2458 56.808 63.0583 56.795 62.8708 56.795C62.638 56.795 62.4117 56.8144 62.1984 56.8532V56.8597C60.3751 57.17 58.9915 58.767 58.9915 60.6744C58.9915 61.8446 59.5152 62.8985 60.3363 63.6033V63.6097C60.5884 63.8296 60.8729 64.0171 61.1768 64.1658C61.3384 64.2434 61.5001 64.308 61.6746 64.3662C62.0497 64.4891 62.4505 64.5537 62.8708 64.5537C64.4484 64.5537 65.8061 63.6097 66.4139 62.252C66.6143 61.8123 66.7307 61.3209 66.7436 60.8102C66.7501 60.7649 66.7501 60.7196 66.7501 60.6744C66.7501 58.8964 65.5475 57.3963 63.9182 56.9438Z" fill="white"/>
<path fill-rule="evenodd" clip-rule="evenodd" d="M69.6919 52.974C69.3816 53.9439 68.4764 54.6421 67.4096 54.6421C66.8148 54.6421 66.2587 54.4223 65.8385 54.0538C65.7221 53.9503 65.6057 53.834 65.5087 53.7111C65.263 53.3943 65.0949 53.0064 65.0367 52.5926C65.0109 52.4762 65.0044 52.3598 65.0044 52.237C65.0044 51.112 65.7803 50.1744 66.8212 49.9158V49.9094C67.0087 49.8641 67.2092 49.8382 67.4096 49.8382C67.5971 49.8382 67.7781 49.8576 67.9527 49.9029C68.1079 49.9352 68.263 49.9869 68.4053 50.0581C69.013 50.3361 69.485 50.8533 69.6919 51.4999C69.7695 51.7326 69.8083 51.9783 69.8083 52.237C69.8083 52.4956 69.7695 52.7413 69.6919 52.974ZM71.2178 51.4999C70.9074 49.8706 69.5691 48.6033 67.9139 48.3964C67.7458 48.3706 67.5777 48.3576 67.4096 48.3576C67.0992 48.3576 66.7954 48.3964 66.5044 48.4675H66.498C65.8837 48.6098 65.3277 48.9072 64.8686 49.3081C64.0475 50.0193 63.5303 51.0667 63.5303 52.237C63.5303 52.9223 63.7048 53.5624 64.0152 54.1184V54.1249C64.1962 54.4417 64.4096 54.7262 64.6682 54.9784V54.9848C64.7781 55.0947 64.8945 55.1982 65.0173 55.2952C65.6768 55.8124 66.5044 56.1228 67.4096 56.1228C69.2975 56.1228 70.8751 54.7715 71.2178 52.974C71.263 52.7348 71.2889 52.4891 71.2889 52.237C71.2889 51.9848 71.263 51.7391 71.2178 51.4999Z" fill="white"/>
<path fill-rule="evenodd" clip-rule="evenodd" d="M18.931 65.2326C18.834 65.7434 18.5689 66.196 18.2004 66.5322C17.8125 66.8878 17.3082 67.1206 16.7521 67.1594C16.6939 67.1658 16.6357 67.1658 16.5776 67.1658C16.1185 67.1658 15.6853 67.0365 15.3168 66.8038C14.9224 66.5645 14.6056 66.2089 14.4051 65.7887C14.2564 65.4783 14.1724 65.1292 14.1724 64.7607C14.1724 64.6119 14.1853 64.4632 14.2176 64.321C14.2564 64.0753 14.3405 63.8425 14.4569 63.6292C14.6961 63.1831 15.0776 62.821 15.5366 62.6012C15.8082 62.4718 16.1056 62.3878 16.4224 62.3684C16.4741 62.3619 16.5258 62.3619 16.5776 62.3619C17.0431 62.3619 17.4827 62.4977 17.8513 62.7305C18.5301 63.1507 18.9827 63.9007 18.9827 64.7607C18.9827 64.9223 18.9698 65.0775 18.931 65.2326ZM18.2198 61.2499C17.7866 61.043 17.3017 60.9136 16.7909 60.8942C16.7198 60.8813 16.6487 60.8813 16.5776 60.8813C15.7176 60.8813 14.9288 61.1593 14.2888 61.6313C13.8879 61.9223 13.5452 62.2973 13.2866 62.724C12.9181 63.2994 12.7112 63.9719 12.6982 64.696V64.7607C12.6982 65.252 12.7888 65.7176 12.9569 66.1507C13.3189 67.0947 14.0366 67.8641 14.9482 68.2908C15.3879 68.4913 15.8728 68.6141 16.3836 68.64C16.4482 68.6465 16.5129 68.6465 16.5776 68.6465C17.6767 68.6465 18.6724 68.1874 19.3771 67.4439C19.7198 67.0883 19.9978 66.6615 20.1789 66.196C20.3599 65.7499 20.4569 65.265 20.4569 64.7607C20.4569 63.2089 19.5388 61.8641 18.2198 61.2499Z" fill="white"/>
<path fill-rule="evenodd" clip-rule="evenodd" d="M18.9827 64.7606C18.9827 64.9223 18.9698 65.0774 18.931 65.2326C18.834 65.7434 18.5689 66.196 18.2004 66.5322C17.8125 66.8878 17.3081 67.1206 16.7521 67.1594C16.6939 67.1658 16.6357 67.1658 16.5775 67.1658C16.1185 67.1658 15.6853 67.0365 15.3168 66.8037C14.9224 66.5645 14.6056 66.2089 14.4051 65.7887C14.2564 65.4783 14.1724 65.1292 14.1724 64.7606C14.1724 64.6119 14.1853 64.4632 14.2176 64.321C14.2564 64.0753 14.3405 63.8425 14.4568 63.6292C14.6961 63.183 15.0775 62.821 15.5366 62.6011C15.8081 62.4718 16.1056 62.3878 16.4224 62.3684C16.4741 62.3619 16.5258 62.3619 16.5775 62.3619C17.0431 62.3619 17.4827 62.4977 17.8512 62.7304C18.5301 63.1507 18.9827 63.9007 18.9827 64.7606Z" fill="white"/>
<path fill-rule="evenodd" clip-rule="evenodd" d="M38.5086 83.2716C38.4569 83.6983 38.2888 84.0927 38.0366 84.4225C37.7328 84.8169 37.3125 85.1143 36.8211 85.263C36.6013 85.3276 36.3685 85.3664 36.1293 85.3664C35.7479 85.3664 35.3922 85.2759 35.069 85.1143C34.6099 84.8944 34.2349 84.5259 34.0086 84.0733C33.8858 83.8535 33.8017 83.6078 33.7629 83.3492C33.7435 83.2199 33.7306 83.0906 33.7306 82.9612C33.7306 82.5668 33.8276 82.1983 33.9957 81.8686C34.0216 81.8168 34.0539 81.7586 34.0862 81.7069C34.3513 81.2802 34.7392 80.9375 35.2112 80.7436C35.4957 80.6272 35.806 80.5625 36.1293 80.5625C37.0345 80.5625 37.8233 81.0668 38.2371 81.8039C38.4246 82.1466 38.5345 82.541 38.5345 82.9612C38.5345 83.0647 38.528 83.1681 38.5086 83.2716ZM39.8276 81.778H39.8211C39.3233 80.2198 37.8556 79.0819 36.1293 79.0819C35.4634 79.0819 34.8362 79.25 34.2931 79.541C33.8535 79.7802 33.4655 80.097 33.1487 80.4785C32.806 80.8858 32.5474 81.3707 32.3987 81.8944C32.3017 82.2306 32.25 82.5927 32.25 82.9612C32.25 83.1035 32.2565 83.2393 32.2694 83.375C32.347 84.0992 32.625 84.7651 33.0453 85.3082C33.3427 85.7026 33.7177 86.0388 34.1509 86.291C34.7263 86.6401 35.4052 86.8406 36.1293 86.8406C36.7112 86.8406 37.2608 86.7113 37.7522 86.4785H37.7586C38.2112 86.2716 38.6185 85.9742 38.9548 85.6121C39.5496 84.9914 39.931 84.1703 39.9957 83.2522C40.0022 83.1552 40.0086 83.0582 40.0086 82.9612C40.0086 82.5474 39.944 82.153 39.8276 81.778Z" fill="white"/>
<path fill-rule="evenodd" clip-rule="evenodd" d="M38.5346 82.9613C38.5346 83.0648 38.5281 83.1682 38.5087 83.2717C38.457 83.6984 38.2889 84.0928 38.0368 84.4225C37.7329 84.8169 37.3126 85.1143 36.8212 85.2631C36.6014 85.3277 36.3686 85.3665 36.1294 85.3665C35.748 85.3665 35.3924 85.276 35.0691 85.1143C34.61 84.8945 34.235 84.526 34.0087 84.0734C33.8859 83.8536 33.8018 83.6079 33.763 83.3492C33.7436 83.2199 33.7307 83.0906 33.7307 82.9613C33.7307 82.5669 33.8277 82.1984 33.9958 81.8686C34.0217 81.8169 34.054 81.7587 34.0863 81.707C34.3514 81.2803 34.7393 80.9376 35.2113 80.7436C35.4958 80.6272 35.8061 80.5626 36.1294 80.5626C37.0346 80.5626 37.8234 81.0669 38.2372 81.804C38.4247 82.1467 38.5346 82.5411 38.5346 82.9613Z" fill="white"/>
<path fill-rule="evenodd" clip-rule="evenodd" d="M31.028 31.6183C30.9569 32.1291 30.7177 32.5946 30.375 32.9438C29.9418 33.3899 29.3276 33.6679 28.6552 33.6679C28.5065 33.6679 28.3578 33.655 28.2155 33.6227C27.8211 33.5515 27.4655 33.3834 27.1617 33.1378C27.0711 33.0731 26.9871 32.9955 26.9095 32.9115C26.6444 32.6334 26.444 32.2843 26.347 31.8964C26.2888 31.6959 26.2565 31.4826 26.2565 31.2627C26.2565 31.0429 26.2888 30.8295 26.347 30.6291C26.4763 30.1313 26.7673 29.6981 27.1552 29.3877C27.569 29.058 28.0927 28.8576 28.6552 28.8576C28.9138 28.8576 29.166 28.8963 29.3987 28.9739C29.7026 29.0709 29.9742 29.2326 30.2134 29.433C30.3556 29.5558 30.4849 29.6916 30.5949 29.8468C30.7824 30.0989 30.9181 30.3899 30.9893 30.7067V30.7132C31.0345 30.8942 31.0604 31.0688 31.0604 31.2627C31.0604 31.3856 31.0539 31.502 31.028 31.6183ZM32.3729 30.1377C32.2306 29.6528 31.9914 29.2067 31.6811 28.8252C31.6229 28.7606 31.5647 28.6959 31.5065 28.6313C31.1703 28.2692 30.7694 27.9653 30.3104 27.7584C29.8125 27.5127 29.25 27.3834 28.6552 27.3834C27.5367 27.3834 26.5216 27.8619 25.8168 28.6248C25.4742 28.9804 25.2091 29.4071 25.0345 29.8791C24.8664 30.3058 24.7759 30.7778 24.7759 31.2627C24.7759 31.8252 24.8923 32.3619 25.1121 32.8403C25.3125 33.2994 25.6035 33.7132 25.9655 34.0494C26.0755 34.1593 26.1918 34.2628 26.3147 34.3533C26.7026 34.6507 27.1552 34.877 27.6401 35.0063C27.9634 35.0968 28.3061 35.1421 28.6552 35.1421C29.8772 35.1421 30.9699 34.5796 31.6811 33.7003C31.9914 33.3188 32.2306 32.8727 32.3729 32.3942C32.4828 32.0321 32.541 31.6571 32.541 31.2627C32.541 30.8748 32.4828 30.4933 32.3729 30.1377Z" fill="white"/>
<path fill-rule="evenodd" clip-rule="evenodd" d="M31.0602 31.2626C31.0602 31.3855 31.0538 31.5019 31.0279 31.6182C30.9568 32.129 30.7176 32.5945 30.3749 32.9437C29.9417 33.3898 29.3275 33.6678 28.6551 33.6678C28.5064 33.6678 28.3576 33.6549 28.2154 33.6226C27.821 33.5514 27.4654 33.3833 27.1615 33.1377C27.071 33.073 26.987 32.9954 26.9094 32.9114C26.6443 32.6333 26.4438 32.2842 26.3469 31.8963C26.2887 31.6958 26.2563 31.4825 26.2563 31.2626C26.2563 31.0428 26.2887 30.8294 26.3469 30.629C26.4762 30.1312 26.7671 29.698 27.1551 29.3876C27.5688 29.0579 28.0926 28.8575 28.6551 28.8575C28.9137 28.8575 29.1658 28.8962 29.3986 28.9738C29.7025 29.0708 29.974 29.2325 30.2132 29.4329C30.3555 29.5557 30.4848 29.6915 30.5947 29.8467C30.7822 30.0988 30.918 30.3898 30.9891 30.7066V30.7131C31.0344 30.8941 31.0602 31.0687 31.0602 31.2626Z" fill="white"/>
<path fill-rule="evenodd" clip-rule="evenodd" d="M20.4569 39.9265C20.4569 41.4977 19.5194 42.849 18.181 43.4632C17.7414 43.6636 17.2564 43.78 16.7392 43.7994C16.6875 43.8059 16.6357 43.8059 16.5776 43.8059C15.6982 43.8059 14.8836 43.5149 14.237 43.0171C13.8426 42.7197 13.5 42.3447 13.2478 41.9115C12.8987 41.336 12.6982 40.6507 12.6982 39.9265C12.6982 39.7261 12.7112 39.5257 12.75 39.3317C12.8211 38.8274 12.9957 38.3554 13.2478 37.9416C13.6228 37.308 14.1724 36.7972 14.8319 36.4675C15.2586 36.2412 15.737 36.1054 16.2478 36.0601C16.3513 36.0537 16.4676 36.0472 16.5776 36.0472C17.6702 36.0472 18.6659 36.4998 19.3642 37.2369C19.7133 37.5925 19.9914 38.0127 20.1789 38.4783C20.3599 38.9244 20.4569 39.4158 20.4569 39.9265Z" fill="white"/>
<path fill-rule="evenodd" clip-rule="evenodd" d="M82.5714 52.974C82.3775 53.5818 81.9443 54.0861 81.3818 54.3771C81.052 54.5452 80.6835 54.6422 80.2826 54.6422C80.1598 54.6422 80.0369 54.6357 79.9206 54.6098C79.8753 54.6098 79.8365 54.6034 79.7977 54.5904H79.7913C79.2805 54.487 78.8279 54.2154 78.4982 53.8404C78.2783 53.5947 78.1038 53.2973 78.0003 52.974C77.9227 52.7413 77.8839 52.4956 77.8839 52.237C77.8839 51.9783 77.9227 51.7327 78.0003 51.4999C78.1038 51.1766 78.2783 50.8857 78.5046 50.64C78.8279 50.265 79.2805 49.9934 79.7913 49.8835H79.7977C79.843 49.877 79.8818 49.8706 79.927 49.8641C80.0434 49.8447 80.1598 49.8382 80.2826 49.8382C80.6835 49.8382 81.052 49.9352 81.3818 50.1098C81.9443 50.3943 82.371 50.8921 82.5714 51.4999C82.649 51.7327 82.6878 51.9783 82.6878 52.237C82.6878 52.4956 82.649 52.7413 82.5714 52.974ZM84.0908 51.4999C83.8451 50.2068 82.9464 49.14 81.7503 48.6486C81.3042 48.4611 80.8193 48.3641 80.3085 48.3576H80.2826C79.9141 48.3576 79.5585 48.4094 79.2223 48.5063C78.7374 48.6421 78.2913 48.8749 77.9033 49.1852C77.1727 49.7413 76.6555 50.5624 76.4744 51.4999C76.4292 51.7391 76.4033 51.9848 76.4033 52.237C76.4033 52.4891 76.4292 52.7348 76.4744 52.974C76.6555 53.9115 77.1727 54.7327 77.8969 55.2952C78.2848 55.6055 78.7374 55.8383 79.2223 55.9741C79.5585 56.071 79.9141 56.1228 80.2826 56.1228H80.302C80.8128 56.1228 81.3042 56.0193 81.7503 55.8318C82.9464 55.3404 83.8451 54.2736 84.0908 52.974C84.1361 52.7348 84.162 52.4891 84.162 52.237C84.162 51.9848 84.1361 51.7391 84.0908 51.4999Z" fill="white"/>
<path fill-rule="evenodd" clip-rule="evenodd" d="M82.6877 52.2369C82.6877 52.4955 82.6489 52.7412 82.5713 52.974C82.3773 53.5818 81.9441 54.0861 81.3816 54.377C81.0519 54.5451 80.6834 54.6421 80.2825 54.6421C80.1597 54.6421 80.0368 54.6356 79.9204 54.6098C79.8752 54.6098 79.8364 54.6033 79.7976 54.5904H79.7911C79.2803 54.4869 78.8278 54.2154 78.498 53.8404C78.2782 53.5947 78.1036 53.2973 78.0002 52.974C77.9226 52.7412 77.8838 52.4955 77.8838 52.2369C77.8838 51.9783 77.9226 51.7326 78.0002 51.4998C78.1036 51.1766 78.2782 50.8856 78.5045 50.6399C78.8278 50.2649 79.2803 49.9934 79.7911 49.8835H79.7976C79.8428 49.877 79.8816 49.8705 79.9269 49.8641C80.0433 49.8447 80.1597 49.8382 80.2825 49.8382C80.6834 49.8382 81.0519 49.9352 81.3816 50.1097C81.9441 50.3942 82.3709 50.8921 82.5713 51.4998C82.6489 51.7326 82.6877 51.9783 82.6877 52.2369Z" fill="white"/>
<path fill-rule="evenodd" clip-rule="evenodd" d="M66.2783 22.282H66.2718C66.1813 22.4177 66.0778 22.547 65.9615 22.6634C65.6059 23.019 65.1403 23.2647 64.6231 23.3358C64.5067 23.3617 64.3903 23.3682 64.2675 23.3682C63.4658 23.3682 62.7546 22.9738 62.3214 22.366C62.0304 21.9716 61.8623 21.4867 61.8623 20.963C61.8623 20.9436 61.8623 20.9177 61.8688 20.8983C61.8688 20.575 61.9464 20.2712 62.0692 19.9931C62.2761 19.5276 62.6253 19.1332 63.0714 18.8811C63.4205 18.6742 63.8343 18.5578 64.2675 18.5578C64.5067 18.5578 64.7395 18.5966 64.9593 18.6612C65.4572 18.81 65.8839 19.1138 66.1813 19.5212C66.4593 19.8832 66.6274 20.3164 66.6597 20.7949C66.6662 20.8466 66.6662 20.9048 66.6662 20.963C66.6662 21.4544 66.524 21.9005 66.2783 22.282ZM68.1339 20.7626C68.0886 19.7151 67.6166 18.7776 66.8925 18.1117C66.5304 17.7755 66.1037 17.5039 65.6317 17.3358C65.205 17.1677 64.7459 17.0836 64.2675 17.0836C63.4916 17.0836 62.774 17.3099 62.1727 17.6979C61.7524 17.9694 61.3839 18.3186 61.1059 18.7324C60.6533 19.3531 60.3946 20.116 60.3882 20.9307V20.963C60.3882 21.4673 60.4852 21.9522 60.6662 22.3983C61.2352 23.8337 62.6382 24.8423 64.2675 24.8423C64.733 24.8423 65.1791 24.7583 65.5929 24.6096C66.0649 24.4415 66.4981 24.1764 66.8602 23.8402C67.3386 23.4134 67.7136 22.8639 67.927 22.2432C68.0692 21.8423 68.1468 21.4091 68.1468 20.963C68.1468 20.8983 68.1468 20.8272 68.1339 20.7626Z" fill="white"/>
<path fill-rule="evenodd" clip-rule="evenodd" d="M66.6662 20.963C66.6662 21.4544 66.5239 21.9005 66.2783 22.282H66.2718C66.1813 22.4178 66.0778 22.5471 65.9614 22.6635C65.6058 23.0191 65.1403 23.2648 64.6231 23.3359C64.5067 23.3617 64.3903 23.3682 64.2675 23.3682C63.4658 23.3682 62.7545 22.9738 62.3214 22.3661C62.0304 21.9717 61.8623 21.4867 61.8623 20.963C61.8623 20.9436 61.8623 20.9178 61.8688 20.8984C61.8688 20.5751 61.9464 20.2712 62.0692 19.9932C62.2761 19.5277 62.6252 19.1333 63.0714 18.8811C63.4205 18.6742 63.8343 18.5578 64.2675 18.5578C64.5067 18.5578 64.7395 18.5966 64.9593 18.6613C65.4571 18.81 65.8839 19.1139 66.1813 19.5212C66.4593 19.8833 66.6274 20.3165 66.6597 20.7949C66.6662 20.8466 66.6662 20.9048 66.6662 20.963Z" fill="white"/>
</g>
</svg>
