<?xml version="1.0" encoding="UTF-8" standalone="yes"?>
<svg width="100" height="100" fill="none" version="1.2" baseProfile="tiny-ps" xmlns="http://www.w3.org/2000/svg">
  <title>bimi-svg-tiny-12-ps</title>
  <path fill="#172840" d="m54.205 72.172-.006.007-3.555-.35-1.03-.097-.006-.026q.078.021.156.033l.88.084zM31.674 41.418a.2.2 0 0 0-.02.079l-.006-.053z"/>
  <path fill="#172840" fill-rule="evenodd" d="m12.761 80.959-.045.18.136-.077a1 1 0 0 1-.09-.103m-.86-1.056-.214.123c-.007.007-.013.007-.02.02a.6.6 0 0 1 .272-.104c-.02-.013-.026-.026-.039-.039m-.519.466q.002.002-.006.013c-.02.046-.033.084-.046.13v.026c-.006.039-.013.07-.013.11l.078-.298.007-.039a.1.1 0 0 0-.02.058m-.065.311v-.032q-.008.01-.006.02v.006q-.002.077.026.155a.6.6 0 0 1-.02-.149M88.14 18.822c.013.02.013.032.019.052q.009-.018.007-.046c-.007 0-.013-.006-.026-.006M71.699 5.018a.4.4 0 0 0-.09-.052l.013.013c.032.013.058.032.09.052 0-.007-.006-.007-.012-.013"/>
  <path fill="#172840" fill-rule="evenodd" d="m96.303 63.794-8.721-1.573c.013.071.013.149.013.22q-.002.659-.207 1.25l8.462 1.528a48.1 48.1 0 0 1-7.491 14.101L85.03 66.1a3.9 3.9 0 0 1-1.32.232q-.081.001-.15-.006l3.38 13.435-11.991-6.922a3.8 3.8 0 0 1-.945 1.166l11.24 6.487-16.44-.557c.182.447.279.933.279 1.438v.058l17.067.57a48.8 48.8 0 0 1-12.205 9.938l-6.06-7.756a3.9 3.9 0 0 1-1.256.803l6.002 7.679a48.2 48.2 0 0 1-21.509 5.645l11.17-14.36a3.8 3.8 0 0 1-.79-1.392L50.643 96.523V83.717a4.3 4.3 0 0 1-.816.084 4 4 0 0 1-.666-.058v12.8L39.01 83.322c-.337.362-.745.66-1.198.867L48.657 98.31a48.2 48.2 0 0 1-21.295-5.555l6.837-8.754a3.8 3.8 0 0 1-1.107-.984l-7.045 9.02a48.7 48.7 0 0 1-12.923-10.651l19.19-.305a4 4 0 0 1-.019-.414c0-.369.052-.732.15-1.068l-17.527.285 10.709-6.119a3.6 3.6 0 0 1-.667-1.327l-11.752 6.714 3.199-12.826a3.9 3.9 0 0 1-1.438-.35l-3.367 13.539a48.4 48.4 0 0 1-7.368-13.493l8.741-2.189a3.8 3.8 0 0 1-.259-1.392v-.065L3.762 64.61a48.4 48.4 0 0 1-2.26-13.35l11.803 9.142a3.8 3.8 0 0 1 1.004-1.095L3.134 50.651l12.813.071a4.3 4.3 0 0 1-.084-.822q0-.34.058-.66l-12.787-.065 11.123-8.508a3.8 3.8 0 0 1-.99-1.107L1.502 48.553a48.3 48.3 0 0 1 2.732-14.762l8.534 3.186c.071-.506.246-.978.498-1.393l-8.52-3.179a48.3 48.3 0 0 1 6.591-11.777l3.516 13.48a3.7 3.7 0 0 1 1.418-.408l-3.445-13.227L25.07 27.51c.174-.473.44-.9.783-1.256l-11.79-6.78 17.656.383a3.8 3.8 0 0 1-.11-.907q-.002-.29.045-.57l-18.16-.395a48.8 48.8 0 0 1 13.31-10.65l5.796 9.032c.323-.376.725-.68 1.178-.9l-5.659-8.812a47.95 47.95 0 0 1 20.117-5.147L37.61 15.694c.42.272.79.629 1.068 1.043L49.162 2.739v13.176c.24-.046.492-.072.744-.072q.38.002.738.072V2.538l10.548 13.81a3.7 3.7 0 0 1 1.068-1.036L51.726 1.515a48 48 0 0 1 18.55 4.448l-4.552 8.987c.472.168.9.44 1.262.777L71.61 6.61a48.65 48.65 0 0 1 14.717 11.382l-18.097.388c.013.065.013.136.013.201 0 .447-.077.88-.22 1.282l17.19-.369-11.13 6.43c.389.323.706.718.94 1.165l11.919-6.883-3.438 13.603q.31-.057.64-.058.45 0 .868.097l3.374-13.337a48 48 0 0 1 6.947 12.6l-7.905 2.46c.265.414.453.88.537 1.379l7.867-2.448a48.2 48.2 0 0 1 2.473 13.836l-10.987-8.462c-.292.414-.66.764-1.082 1.03l10.716 8.255H84.209q.069.36.07.738-.001.378-.07.738H96.93L85.77 59.152a3.7 3.7 0 0 1 1.094 1.03l11.44-8.722a48.2 48.2 0 0 1-2 12.334M12.716 81.14l.045-.182c.026.033.059.072.091.104zm-1.049-1.094c.007-.013.013-.013.02-.02l.213-.123c.013.013.02.026.04.039a.6.6 0 0 0-.273.104m-.272.304-.077.298v.032q0 .08.019.149a.4.4 0 0 1-.026-.155v-.007q-.002-.01.007-.02c0-.038.006-.07.013-.11v-.025a.3.3 0 0 1 .045-.13q.007-.011.006-.013 0-.03.02-.058zm76.77-61.522c0 .02 0 .032-.007.046-.006-.02-.006-.033-.02-.052.014 0 .02.006.027.006m8.863 14.646c0-.013 0-.02-.006-.033a1 1 0 0 0-.078-.207C92.561 20.848 83.406 10.715 71.7 5.018c.006.006.013.006.013.013-.033-.02-.059-.04-.09-.052l-.014-.013h-.006A49.694 49.694 0 0 0 49.907 0C22.362 0 .006 22.35 0 49.893v.007c0 18.685 10.295 34.982 25.51 43.535h.006a49.61 49.61 0 0 0 24.39 6.371c22.318 0 41.23-14.684 47.601-34.911a.4.4 0 0 0 .04-.13A49.7 49.7 0 0 0 99.805 49.9c0-5.756-.978-11.285-2.778-16.426"/>
  <path fill="#172840" fill-rule="evenodd" d="m65.109 52.962-1.101 1.651a2.6 2.6 0 0 0-.492-.103 3.773 3.773 0 0 0-1.23.013l1.82-2.733c.18.318.394.602.653.855v.006q.165.165.35.311M46.934 56.303a3.7 3.7 0 0 0-1.411.434l-1.787-5.672-2.299-.09a3.7 3.7 0 0 0 .13-.602q.046-.275.045-.557-.001-.155-.013-.311l2.72.104c.31.012.582.22.673.517zM71.712 5.03c-.032-.019-.058-.038-.09-.051l.077.039c.007.006.013.006.013.013M72.846 69.012q.05.028.09.065l.084-.2zM79.333 46.164c-.486.136-.932.37-1.32.68l-5.847-14.115a3.6 3.6 0 0 0 1.399-.499zM68.443 26.604a3.7 3.7 0 0 0-.628 1.34l-14.665-6.08c.272-.408.466-.868.564-1.36zM46.662 21.865 32.418 27.77a3.8 3.8 0 0 0-.693-1.314L46.1 20.499c.097.498.291.958.563 1.366M27.679 32.645l-5.801 14.011a3.9 3.9 0 0 0-1.366-.57l5.84-14.095c.388.298.841.524 1.327.654M80.156 60.88c-.201.447-.318.933-.324 1.451l-3.814-.693-2.505 6.048a3.6 3.6 0 0 0-1.392-.505l2.402-5.808-8.016-1.444c.2-.44.317-.932.33-1.444l8.268 1.49 2.901-7.013c.388.311.842.544 1.327.68l-2.732 6.598zM68.34 73.24 53.66 79.316a3.7 3.7 0 0 0-.498-1.386l14.574-6.041c.11.491.318.951.602 1.353M46.526 77.877c-.258.414-.44.88-.524 1.379l-14.01-5.802c.258-.408.446-.874.53-1.38zM27.86 67.595a3.6 3.6 0 0 0-1.353.59l-5.995-14.472a3.7 3.7 0 0 0 1.366-.563zM50.644 23.542v8.546a4 4 0 0 0-1.483 0v-8.546a3.965 3.965 0 0 0 1.483 0M76.51 49.9q.001.378.072.738h-5.264q.069-.36.07-.738-.001-.38-.07-.738h5.264q-.07.36-.072.738M23.535 50.76a3.8 3.8 0 0 0 .046-1.475l10.288.052q-.032.234-.033.479c0 .343.046.68.136.997zM26.203 93.817a.66.66 0 0 1-.492-.149.7.7 0 0 1-.194-.233c.226.13.46.26.686.382M81.309 62.558v.04l-.04-.007zM97.021 33.44a1 1 0 0 0-.077-.206.5.5 0 0 1 .058.13z"/>
  <path fill="#172840" fill-rule="evenodd" d="M71.712 5.03c-.032-.019-.058-.038-.09-.051l-.012-.013a.4.4 0 0 1 .09.052c.006.007.012.007.012.013M11.337 80.829a.4.4 0 0 1-.026-.155v-.007q-.002-.01.007-.02v.033a.6.6 0 0 0 .019.148"/>
  <path fill="#172840" fill-rule="evenodd" d="m11.402 80.311-.007.04-.077.297c0-.039.006-.071.013-.11v-.026a1 1 0 0 1 .045-.13q.008-.011.006-.013 0-.028.02-.058M11.939 79.942a.6.6 0 0 0-.272.104c.007-.014.013-.014.02-.02l.213-.123c.013.013.02.026.039.039M12.851 81.062l-.135.077.045-.18c.026.032.058.07.09.103M44.623 62.9l-12.315 7.045h-.006a3.8 3.8 0 0 0-.803-1.243l12.289-7.031c.2.466.485.88.835 1.23M38.35 33.435l-.978 1.146-5.646-3.244c.31-.382.55-.829.692-1.308z"/>
  <path fill="#172840" fill-rule="evenodd" d="M46.61 33.85a3.3 3.3 0 0 0-.356.73 3.5 3.5 0 0 0-.207.869l-1.677-1.904-4.707.628-6.487 7.627 1.042 5.575.324.213a3.7 3.7 0 0 0-.518 1.043c-.04.103-.065.213-.09.324l-.79-.518a.75.75 0 0 1-.325-.486l-1.158-6.229a.7.7 0 0 1-.007-.226q0-.039.02-.078a.63.63 0 0 1 .148-.31l5.55-6.527.977-1.146.375-.44a.7.7 0 0 1 .467-.253l5.38-.719a.75.75 0 0 1 .654.246zM68.229 68.961c-.271.421-.453.894-.537 1.398l-7.666-4.428.984-1.134z"/>
  <path fill="#172840" fill-rule="evenodd" d="m61.761 62.046-.556 2.396a.74.74 0 0 1-.162.317l-.033.039-.984 1.133-5.18 5.989a.72.72 0 0 1-.634.252h-.007l-3.56-.35-.881-.083q-.078-.012-.156-.033a.73.73 0 0 1-.433-.375v-.007a.8.8 0 0 1-.058-.155l-1.62-7.148q.188-.002.363-.032a3.7 3.7 0 0 0 1.075-.298l1.502 6.63 3.542.343 5.827-6.734.615-2.641a3.9 3.9 0 0 0 1.34.757M68.294 30.968l-9.99 5.769-.758-1.269 10.21-5.892c.085.505.272.978.538 1.392"/>
  <path fill="#172840" fill-rule="evenodd" d="M68.009 46.054a3.3 3.3 0 0 0-.505-.039q-.468.002-.907.11h-.006a3.8 3.8 0 0 0-1.632.842l-1.716.11a.75.75 0 0 1-.68-.356L56.42 36.459l-2.751.394q.125-.456.123-.951.002-.07-.007-.13a2.3 2.3 0 0 0-.039-.42l2.946-.428a.735.735 0 0 1 .738.356l.117.188.757 1.269 5.297 8.831 3.587-.226c.33-.02.634.181.744.492zM69.945 25.374a3.7 3.7 0 0 0-1.197.868l-3.064-4.008a3.7 3.7 0 0 0 1.27-.77zM83.114 41.38l-1.249 4.926a3.85 3.85 0 0 0-1.444-.29l1.34-5.317a3.6 3.6 0 0 0 1.353.68M88.165 18.828q.002.029-.007.047c-.006-.02-.006-.033-.02-.053.014 0 .02.006.027.006M73.02 68.877l-.084.2a.5.5 0 0 0-.09-.065zM80.693 64.895l-5.71 4.351a3.8 3.8 0 0 0-.92-1.166l5.924-4.519c.149.492.389.945.706 1.334M81.309 62.558v.04l-.04-.007zM61.697 79.696a3.7 3.7 0 0 0-.37 1.47l-7.743-.26a3.9 3.9 0 0 0 .097-1.476zM34.341 77.242a3.9 3.9 0 0 0-1.146.939l-2.609-3.393c.434-.246.822-.57 1.133-.951zM11.337 80.828a.4.4 0 0 1-.026-.154v-.007h.007v.013a.6.6 0 0 0 .019.148M11.939 79.942a.6.6 0 0 0-.272.104c.007-.014.013-.014.02-.02l.213-.123c.013.013.02.026.039.039M19.528 53.778l-1.282 5.148a3.65 3.65 0 0 0-1.431-.356l1.281-5.148c.434.207.92.337 1.431.356M26.002 31.687l-5.795 4.435a3.8 3.8 0 0 0-.816-1.243l5.756-4.403c.2.46.492.874.855 1.21M46.021 19.728q-.001.226.026.44l-6.818-.148a3.9 3.9 0 0 0 .13-1.47l6.805.142c-.098.33-.143.68-.143 1.036M53.765 20.168q.028-.215.026-.44a3.7 3.7 0 0 0-.143-1.036l6.825-.142v.032c0 .505.097.99.278 1.437z"/>
  <path fill="#172840" fill-rule="evenodd" d="M88.165 18.828q.002.029-.007.047c-.006-.02-.006-.033-.02-.053.014 0 .02.006.027.006M46.798 20.214l.059-.026h-.059c-.006.006 0 .02 0 .026m6.151-.026.065.026c0-.007.006-.02.006-.026z"/>
  <path fill="#172840" fill-rule="evenodd" d="m46.798 20.214.059-.026h-.059c-.006.006 0 .02 0 .026m6.151-.026.065.026c0-.007.006-.02.006-.026z"/>
  <path fill="#172840" fill-rule="evenodd" d="m53.014 20.214-.065-.026h.071c0 .006-.006.02-.006.026m-.719-.298c0 .097-.013.188-.032.285a2.4 2.4 0 0 1-.531 1.081 2.3 2.3 0 0 1-1.088.732q-.35.116-.738.116c-.259 0-.511-.039-.745-.123a2.36 2.36 0 0 1-1.087-.725 2.4 2.4 0 0 1-.525-1.081 1 1 0 0 1-.039-.285c-.013-.065-.013-.123-.013-.188 0-.356.078-.693.22-.997a2.38 2.38 0 0 1 1.444-1.289c.233-.084.486-.122.745-.122q.389 0 .738.116a2.38 2.38 0 0 1 1.444 1.295c.142.304.22.641.22.997 0 .065 0 .123-.013.188m-5.497.298c0-.007-.006-.02 0-.026h.058zm6.85-1.522a3.885 3.885 0 0 0-4.487-2.777 3.897 3.897 0 0 0-3.114 4.253c.013.11.026.22.052.33.097.5.291.959.563 1.367a3.88 3.88 0 0 0 3.982 1.677 3.89 3.89 0 0 0 3.07-3.037q.03-.163.05-.337.029-.215.027-.44c0-.356-.046-.706-.143-1.036M81.166 35.137c-.324.383-.57.823-.726 1.308l-6.17-4.753c.363-.336.654-.75.855-1.203zM83.147 58.602c-.505.064-.978.24-1.399.492l-1.333-5.303c.51 0 1.003-.104 1.45-.292zM69.686 74.439l-2.707 3.483a3.7 3.7 0 0 0-1.547-.421L68.54 73.5c.317.382.706.706 1.146.939M11.395 80.35l-.078.298c0-.039.007-.071.013-.11v-.026c.013-.045.026-.084.046-.13q.007-.011.006-.013c0-.006.007-.013.013-.019M12.851 81.062l-.135.077.045-.18c.026.032.058.07.09.103M40.052 80.959c.006-.097.013-.195.013-.292 0-.414-.065-.81-.181-1.185l6.099-.097q-.04.261-.04.531 0 .487.117.946zM26.138 68.47a3.7 3.7 0 0 0-.907 1.17l-5.827-4.512c.343-.357.622-.784.803-1.25zM19.482 46.028c-.511.032-.99.162-1.424.375l-1.296-4.953a3.8 3.8 0 0 0 1.444-.337zM34.264 22.635l-2.713 3.626a3.7 3.7 0 0 0-1.198-.874l2.615-3.49c.376.33.817.583 1.295.738M50.644 71.83v4.286a4.3 4.3 0 0 0-.816-.085c-.226 0-.453.02-.667.059v-4.65c0-.038 0-.07.013-.11.084.182.246.312.434.376l.007.026z"/>
  <path fill="#172840" fill-rule="evenodd" d="M50.644 71.823v.006l-1.03-.097-.006-.026q.078.021.156.033zM37.662 19.987a2.4 2.4 0 0 1-2.428 1.353 2.37 2.37 0 0 1-1.372-.634 2.2 2.2 0 0 1-.576-.816h-.007a2.4 2.4 0 0 1-.188-.939q0-.273.059-.537c.058-.26.162-.499.297-.719.26-.434.66-.777 1.133-.971.279-.117.59-.181.913-.181.447 0 .874.123 1.23.343.44.259.797.66.998 1.14.058.155.11.323.136.491a2.32 2.32 0 0 1-.194 1.47m1.697-1.437a3.83 3.83 0 0 0-.68-1.813 3.7 3.7 0 0 0-1.068-1.042 3.8 3.8 0 0 0-2.118-.629c-.615 0-1.197.143-1.715.402-.454.22-.855.524-1.179.9a3.8 3.8 0 0 0-.945 2.013 3.3 3.3 0 0 0-.045.57q.001.468.11.907c.188.809.64 1.521 1.25 2.04.375.33.815.582 1.294.737a3.879 3.879 0 0 0 5.115-3.684 4 4 0 0 0-.02-.401M19.903 52.257l.02.046h-.027zM19.923 47.504l-.033.079-.02-.079z"/>
  <path fill="#172840" fill-rule="evenodd" d="M21.994 50.748a2.413 2.413 0 0 1-2.072 1.554h-.026c-.051.006-.097.006-.148.006a2.36 2.36 0 0 1-1.282-.375 2.36 2.36 0 0 1-.978-1.205 2.35 2.35 0 0 1-.058-1.476 2.44 2.44 0 0 1 1.01-1.372c.375-.24.828-.382 1.308-.382a1 1 0 0 1 .123.006h.051c.518.039.997.24 1.373.557.369.31.647.732.77 1.217q.087.3.085.622 0 .449-.156.848m1.587-1.463a3.86 3.86 0 0 0-1.703-2.629 3.9 3.9 0 0 0-1.366-.57 4.3 4.3 0 0 0-.764-.071c-.091 0-.182 0-.266.013-.511.032-.99.162-1.424.376a3.89 3.89 0 0 0-2.195 3.496c0 .285.032.557.084.822h.006a3.87 3.87 0 0 0 2.143 2.7c.434.207.92.337 1.431.356.072.013.143.013.22.013.26 0 .518-.026.765-.078a3.75 3.75 0 0 0 1.366-.563 3.89 3.89 0 0 0 1.754-3.25c0-.214-.02-.415-.052-.615M31.291 73.163a.15.15 0 0 1-.038.058l-.09-.11z"/>
  <path fill="#172840" fill-rule="evenodd" d="m31.162 73.111.09.11a.2.2 0 0 0 .039-.058z"/>
  <path fill="#172840" fill-rule="evenodd" d="m31.253 73.221-.09-.11.129.052a.2.2 0 0 1-.04.058m-.156-1.735c-.013.408-.13.783-.323 1.114a1.6 1.6 0 0 1-.188.272c-.24.31-.557.563-.92.725-.297.13-.628.2-.97.2-.7 0-1.335-.304-1.768-.783a2.36 2.36 0 0 1-.615-1.347 2 2 0 0 1-.02-.278c0-.291.052-.563.143-.816a2.3 2.3 0 0 1 .66-.965q.118-.114.246-.2a2.4 2.4 0 0 1 1.353-.421c.544 0 1.05.181 1.45.486a2.4 2.4 0 0 1 .959 1.916q.002.048-.007.097m1.211-1.54h-.006a3.8 3.8 0 0 0-.803-1.244 3.87 3.87 0 0 0-3.639-1.107 3.6 3.6 0 0 0-1.353.589q-.195.127-.37.285a3.7 3.7 0 0 0-.906 1.172 3.8 3.8 0 0 0-.42 1.748c0 .362.051.719.148 1.049.13.485.357.939.667 1.327a3.86 3.86 0 0 0 3.07 1.509c.686 0 1.333-.175 1.89-.486.434-.246.822-.57 1.133-.952a3 3 0 0 0 .272-.382c.259-.408.447-.874.53-1.379a3.823 3.823 0 0 0-.214-2.13M52.237 79.916c0 .33-.065.648-.188.939a2.42 2.42 0 0 1-2.22 1.47 2.413 2.413 0 0 1-2.22-1.49 2.4 2.4 0 0 1-.183-.919c0-.02 0-.045.007-.065q0-.25.058-.492a2.3 2.3 0 0 1 .434-.906 2.38 2.38 0 0 1 1.236-.848q.32-.097.667-.097c.285 0 .563.051.816.142.46.168.855.466 1.127.855.194.259.33.556.401.874.045.168.065.35.065.53zm1.444-.485a.3.3 0 0 0-.02-.11v-.007a3.7 3.7 0 0 0-.498-1.385 3.87 3.87 0 0 0-2.519-1.813 4.3 4.3 0 0 0-.816-.085 3.88 3.88 0 0 0-3.302 1.845c-.259.415-.44.881-.524 1.38-.007.039-.02.084-.02.13q-.038.26-.038.53 0 .487.116.946a3.896 3.896 0 0 0 4.584 2.855 3.89 3.89 0 0 0 3.037-4.286M69.123 71.188l.129.071-.117.052a1 1 0 0 1-.012-.123M73.02 68.877l-.084.2a.5.5 0 0 0-.09-.065z"/>
  <path fill="#172840" fill-rule="evenodd" d="M72.846 69.012q.05.028.09.065l.084-.2z"/>
  <path fill="#172840" fill-rule="evenodd" d="M73.668 72.101c-.24.466-.622.848-1.095 1.075a2.39 2.39 0 0 1-2.81-.524c-.11-.11-.2-.234-.278-.363a2.3 2.3 0 0 1-.35-.978c-.006-.039-.012-.077-.012-.123q-.009-.087-.007-.175c0-.492.142-.938.395-1.314a2.4 2.4 0 0 1 2.007-1.088h.013c.486 0 .939.15 1.314.402l.175-.136-.084.2a2.3 2.3 0 0 1 .835 1.095c.104.259.156.544.156.841 0 .395-.097.764-.26 1.088m1.314-2.855a3.8 3.8 0 0 0-.92-1.165 3 3 0 0 0-.55-.395 3.6 3.6 0 0 0-1.392-.506 3 3 0 0 0-.602-.051c-1.385 0-2.61.731-3.289 1.832-.272.42-.453.894-.537 1.398a3.7 3.7 0 0 0-.059.654q-.001.447.104.875a3.76 3.76 0 0 0 .803 1.612 3.863 3.863 0 0 0 2.978 1.398c.945 0 1.807-.336 2.48-.893h.006c.389-.324.713-.719.946-1.166a3.872 3.872 0 0 0 .032-3.593M73.895 29.537a2.36 2.36 0 0 1-.816 1.237c-.033.026-.058.052-.09.071a2.36 2.36 0 0 1-1.412.46 2.38 2.38 0 0 1-1.995-1.075 2.37 2.37 0 0 1-.407-1.334c0-.045 0-.097.006-.142 0-.078.013-.156.026-.233.058-.395.22-.764.46-1.075.058-.084.13-.168.207-.246a2.35 2.35 0 0 1 .997-.602c.22-.071.46-.11.706-.11.388 0 .757.09 1.08.259.467.233.85.615 1.076 1.087a2.33 2.33 0 0 1 .162 1.703m1.126-2.447a3.8 3.8 0 0 0-.939-1.166 3.86 3.86 0 0 0-2.505-.912c-.583 0-1.14.129-1.632.362-.46.207-.861.505-1.198.868q-.166.167-.304.362a3.7 3.7 0 0 0-.628 1.34 3.6 3.6 0 0 0-.123.952q-.001.35.065.68c.084.505.272.978.537 1.392a3.88 3.88 0 0 0 3.283 1.813c.2 0 .395-.013.589-.052a3.6 3.6 0 0 0 1.398-.498 3.6 3.6 0 0 0 .706-.538c.363-.336.654-.75.855-1.204a3.8 3.8 0 0 0 .343-1.593c0-.654-.162-1.269-.447-1.806M86.144 38.97a2.4 2.4 0 0 1-1.21.94c-.246.09-.512.135-.79.135q-.349 0-.667-.097a2.37 2.37 0 0 1-1.295-.92 2.4 2.4 0 0 1-.447-1.391c0-.065 0-.123.013-.188a2.38 2.38 0 0 1 1.334-1.962v-.006a2.4 2.4 0 0 1 1.567-.194c.505.11.951.375 1.282.75a2.36 2.36 0 0 1 .615 1.6c0 .492-.15.952-.402 1.334m1.82-2.02a3.7 3.7 0 0 0-.538-1.379 3.87 3.87 0 0 0-3.282-1.819q-.33 0-.641.058a3.83 3.83 0 0 0-2.338 1.328c-.323.382-.57.822-.725 1.308a3.8 3.8 0 0 0-.187 1.19c0 1.25.589 2.364 1.508 3.063.395.318.855.55 1.353.68q.496.144 1.03.143c.77 0 1.489-.22 2.091-.615.42-.266.79-.616 1.081-1.03a3.83 3.83 0 0 0 .648-2.927M81.269 62.591l.04.007v-.04z"/>
  <path fill="#172840" fill-rule="evenodd" d="m81.269 62.591.04.007v-.04z"/>
  <path fill="#172840" fill-rule="evenodd" d="M85.905 63.425a2.5 2.5 0 0 1-1.237 1.23 2.5 2.5 0 0 1-.958.195c-.181 0-.362-.02-.53-.065a2.33 2.33 0 0 1-1.309-.796 2.33 2.33 0 0 1-.563-1.392l-.039-.007.04-.032q-.009-.06-.007-.117c0-.473.136-.913.375-1.282a2.384 2.384 0 0 1 1.832-1.107c.065-.013.13-.013.201-.013.26 0 .512.039.738.123.512.155.946.486 1.237.92.181.252.31.55.376.867.032.155.051.324.051.492 0 .35-.077.686-.207.984m1.677-1.204a3.8 3.8 0 0 0-.719-2.04 3.7 3.7 0 0 0-1.094-1.029 3.85 3.85 0 0 0-2.059-.596 3 3 0 0 0-.563.046 3.6 3.6 0 0 0-1.399.492 3.8 3.8 0 0 0-1.592 1.787c-.201.447-.318.932-.324 1.45-.007.039-.007.071-.007.11a3.886 3.886 0 0 0 3.736 3.885q.07.007.15.006a3.883 3.883 0 0 0 3.678-2.642q.204-.59.206-1.249c0-.071 0-.149-.013-.22M67.608 81.38c0 .627-.246 1.197-.641 1.624a2.403 2.403 0 0 1-4.17-1.631q-.002-.078.007-.156c.006-.142.026-.284.064-.414a2.27 2.27 0 0 1 .564-1.049c.175-.2.395-.369.634-.498a2.4 2.4 0 0 1 1.975-.13c.415.15.777.415 1.043.758.33.408.524.926.524 1.489zm1.198-1.444a3.88 3.88 0 0 0-1.826-2.014 3.7 3.7 0 0 0-1.547-.42c-.078-.014-.156-.014-.234-.014-1.54 0-2.874.9-3.502 2.208a3.7 3.7 0 0 0-.37 1.47c-.012.065-.012.136-.012.207q.001.622.187 1.185a3.87 3.87 0 0 0 3.697 2.7 3.88 3.88 0 0 0 3.885-3.827v-.058c0-.505-.097-.99-.278-1.437M48.592 62.195a2.34 2.34 0 0 1-1.237.35c-.065 0-.13 0-.194-.013a2.37 2.37 0 0 1-2.066-1.606 2.2 2.2 0 0 1-.136-.777c0-.81.402-1.521 1.017-1.962.09-.064.194-.123.298-.174a2.34 2.34 0 0 1 1.081-.26h.032a2.395 2.395 0 0 1 1.205 4.442m-1.237-5.918c-.142 0-.285.007-.42.026a3.7 3.7 0 0 0-1.412.434 3.87 3.87 0 0 0-.9 6.164 3.86 3.86 0 0 0 2.732 1.127c.045 0 .097 0 .142-.007q.186-.002.363-.032a3.7 3.7 0 0 0 1.075-.298v-.007a3.87 3.87 0 0 0 2.292-3.535 3.874 3.874 0 0 0-3.872-3.872M40.078 50.314a2.411 2.411 0 0 1-2.357 1.91c-.965 0-1.8-.576-2.175-1.398h-.007a2.3 2.3 0 0 1-.22-.952v-.058a2.5 2.5 0 0 1 .045-.473 2.4 2.4 0 0 1 .415-.939 2.4 2.4 0 0 1 1.942-.99c1.21 0 2.202.88 2.376 2.033a2.3 2.3 0 0 1-.02.867m1.521-.81a3.89 3.89 0 0 0-3.878-3.573 3.88 3.88 0 0 0-3.179 1.657 3.7 3.7 0 0 0-.518 1.043 3 3 0 0 0-.09.324 2.5 2.5 0 0 0-.065.382q-.032.234-.033.479c0 .343.046.68.136.997a3.87 3.87 0 0 0 3.75 2.887 3.89 3.89 0 0 0 3.715-2.725q.09-.292.13-.602.047-.275.045-.557-.001-.156-.013-.311M52.302 35.986a2.3 2.3 0 0 1-.317 1.114 2.38 2.38 0 0 1-2.079 1.21 2.42 2.42 0 0 1-1.696-.699 2.37 2.37 0 0 1-.706-1.606c-.006-.032-.006-.07-.006-.103 0-.305.058-.596.162-.868a2.38 2.38 0 0 1 1.502-1.418 2.2 2.2 0 0 1 .744-.123q.389 0 .739.117a2.41 2.41 0 0 1 1.638 1.955q.027.163.026.337c0 .026 0 .058-.007.084m1.483-.214c0-.142-.013-.285-.04-.42a3.88 3.88 0 0 0-4.583-3.264 3.87 3.87 0 0 0-2.551 1.761 3.3 3.3 0 0 0-.356.732 3.5 3.5 0 0 0-.207.868q-.028.22-.026.453a3.89 3.89 0 0 0 3.884 3.885c1.813 0 3.341-1.25 3.762-2.933q.124-.457.123-.952.002-.07-.006-.13M64.98 59.65a2.395 2.395 0 0 1-3.368.693 2.4 2.4 0 0 1-.777-.86 2.4 2.4 0 0 1 .712-3.082 2.35 2.35 0 0 1 1.075-.435q.163-.027.337-.026c.071 0 .142 0 .214.014a2.4 2.4 0 0 1 2.182 2.26q.007.067.006.135c0 .48-.136.926-.382 1.302m-.972-5.037a2.6 2.6 0 0 0-.492-.103 3.773 3.773 0 0 0-1.23.013v.006a3.876 3.876 0 0 0-1.865 6.753v.007a3.9 3.9 0 0 0 1.34.757q.565.186 1.198.188c1.58 0 2.94-.946 3.548-2.305.2-.44.317-.933.33-1.444q.009-.067.007-.136a3.88 3.88 0 0 0-2.836-3.736M69.79 50.638a2.4 2.4 0 0 1-3.86 1.081 3 3 0 0 1-.33-.343 2.4 2.4 0 0 1-.472-1.12 1.6 1.6 0 0 1-.032-.356c0-1.127.777-2.066 1.819-2.325v-.006c.188-.045.388-.071.59-.071q.28-.001.543.065c.156.032.31.084.453.155a2.39 2.39 0 0 1 1.405 2.182q0 .389-.116.738m1.528-1.476a3.87 3.87 0 0 0-3.309-3.108 3.3 3.3 0 0 0-.505-.039c-.31 0-.615.039-.906.11h-.007a3.8 3.8 0 0 0-1.631.842 3.87 3.87 0 0 0-1.34 2.933c0 .686.174 1.327.485 1.884v.006c.181.318.395.603.654.855v.006q.165.165.35.311c.66.518 1.489.83 2.395.83A3.884 3.884 0 0 0 71.39 49.9q-.002-.38-.071-.738"/>
  <path fill="#fff" d="M63.62 49.9c0 .686.174 1.327.485 1.884v.006l-1.82 2.733v.006a3.876 3.876 0 0 0-1.864 6.753v.007l-.615 2.641-5.827 6.734-3.542-.343-1.502-6.63v-.007a3.87 3.87 0 0 0 2.292-3.535 3.874 3.874 0 0 0-3.872-3.872c-.142 0-.285.007-.42.026l-1.943-6.177a.74.74 0 0 0-.673-.518l-2.72-.103a3.89 3.89 0 0 0-3.878-3.574 3.88 3.88 0 0 0-3.179 1.657l-.324-.213-1.042-5.575 6.487-7.627 4.708-.628 1.676 1.903a3.888 3.888 0 0 0 3.859 4.338c1.813 0 3.341-1.25 3.762-2.933l2.752-.395 6.144 10.263a.75.75 0 0 0 .68.356l1.716-.11a3.87 3.87 0 0 0-1.34 2.933"/>
  <path fill="#F2B706" fill-rule="evenodd" d="M52.308 19.728c0 .065 0 .123-.013.188 0 .097-.013.188-.032.285a2.4 2.4 0 0 1-.53 1.081 2.3 2.3 0 0 1-1.088.732q-.35.116-.739.116a2.2 2.2 0 0 1-.744-.123 2.382 2.382 0 0 1-1.612-1.806 1 1 0 0 1-.04-.285c-.012-.065-.012-.123-.012-.188 0-.356.078-.693.22-.997a2.38 2.38 0 0 1 1.444-1.288c.233-.085.485-.123.744-.123q.389 0 .739.116a2.38 2.38 0 0 1 1.443 1.295c.143.304.22.641.22.997M37.902 18.951c0 .37-.084.725-.24 1.036a2.4 2.4 0 0 1-2.427 1.353 2.37 2.37 0 0 1-1.373-.634 2.2 2.2 0 0 1-.576-.816h-.007a2.481 2.481 0 0 1-.13-1.476c.059-.26.163-.499.299-.719.259-.434.66-.777 1.133-.971.278-.116.589-.181.913-.181.446 0 .874.123 1.23.343.44.259.796.66.997 1.14.058.155.11.323.136.491q.046.213.045.434M18.957 62.914a2.36 2.36 0 0 1-.731 1.301c-.389.356-.894.59-1.45.628q-.088.009-.175.007c-.46 0-.894-.13-1.263-.363a2.4 2.4 0 0 1-.913-1.016 2.4 2.4 0 0 1-.233-1.03q-.002-.225.045-.44c.04-.246.123-.48.24-.693a2.41 2.41 0 0 1 1.968-1.263q.078-.008.155-.006c.467 0 .907.136 1.276.369a2.38 2.38 0 0 1 1.133 2.033c0 .162-.013.317-.052.473m-.712-3.989a3.6 3.6 0 0 0-1.43-.356c-.072-.013-.143-.013-.215-.013-.86 0-1.65.279-2.292.751a3.8 3.8 0 0 0-1.003 1.095 3.76 3.76 0 0 0-.59 1.974v.065a3.922 3.922 0 0 0 2.253 3.535c.441.2.927.324 1.438.35q.098.008.195.006c1.1 0 2.097-.46 2.803-1.204.343-.356.622-.783.803-1.25.181-.446.278-.932.278-1.437 0-1.554-.92-2.9-2.24-3.516"/>
  <path fill="#F2B706" fill-rule="evenodd" d="M19.01 62.441c0 .162-.014.317-.053.473a2.36 2.36 0 0 1-.731 1.301c-.389.356-.894.59-1.45.628q-.088.009-.175.007c-.46 0-.894-.13-1.263-.363a2.4 2.4 0 0 1-.913-1.016 2.4 2.4 0 0 1-.233-1.03q-.002-.225.045-.44a2.2 2.2 0 0 1 .24-.693 2.41 2.41 0 0 1 1.968-1.263q.078-.008.156-.006c.466 0 .906.136 1.275.369a2.38 2.38 0 0 1 1.133 2.033M73.927 71.014a2.408 2.408 0 0 1-1.353 2.163 2.39 2.39 0 0 1-2.81-.525c-.11-.11-.201-.234-.279-.363a2.3 2.3 0 0 1-.35-.978l.117-.052-.13-.07q-.007-.088-.006-.175c0-.493.143-.94.395-1.315a2.4 2.4 0 0 1 2.007-1.088h.013c.486 0 .94.15 1.315.402q.05.028.09.065a2.3 2.3 0 0 1 .835 1.094c.104.259.156.544.156.841M67.608 81.373v.006c0 .628-.246 1.198-.641 1.625a2.402 2.402 0 0 1-4.17-1.631q-.002-.078.007-.156a1.7 1.7 0 0 1 .064-.414c.09-.401.292-.757.563-1.049a2.391 2.391 0 0 1 2.61-.628c.414.149.777.414 1.042.758.33.407.525.925.525 1.489M38.562 80.978c-.051.427-.22.822-.472 1.152a2.42 2.42 0 0 1-1.91.946c-.382 0-.738-.091-1.062-.253a2.3 2.3 0 0 1-1.062-1.042 2.1 2.1 0 0 1-.246-.726 2.396 2.396 0 0 1 .324-1.644 2.4 2.4 0 0 1 1.126-.965 2.424 2.424 0 0 1 3.03 1.062c.188.343.298.738.298 1.159 0 .104-.006.207-.026.31m1.321-1.496h-.006a3.89 3.89 0 0 0-5.536-2.24 3.92 3.92 0 0 0-1.897 2.357c-.097.336-.149.699-.149 1.068q0 .212.02.414c.077.726.355 1.392.776 1.936.298.395.674.732 1.108.984.576.35 1.256.55 1.98.55.584 0 1.134-.129 1.626-.362h.006a3.8 3.8 0 0 0 1.198-.867 3.78 3.78 0 0 0 1.043-2.364c.006-.097.013-.194.013-.291 0-.414-.065-.81-.182-1.185"/>
  <path fill="#F2B706" fill-rule="evenodd" d="M38.589 80.667q.001.155-.026.311c-.052.427-.22.822-.473 1.153a2.42 2.42 0 0 1-1.91.945c-.382 0-.738-.09-1.062-.253a2.3 2.3 0 0 1-1.062-1.042 2.1 2.1 0 0 1-.246-.725 2.395 2.395 0 0 1 .324-1.645 2.4 2.4 0 0 1 1.127-.965 2.424 2.424 0 0 1 3.03 1.062c.188.343.298.738.298 1.16M52.308 35.902c0 .026 0 .058-.006.084a2.3 2.3 0 0 1-.317 1.114 2.38 2.38 0 0 1-2.079 1.21 2.42 2.42 0 0 1-1.696-.699 2.37 2.37 0 0 1-.706-1.606c-.006-.032-.006-.07-.006-.103 0-.305.058-.596.162-.868a2.38 2.38 0 0 1 1.502-1.418 2.2 2.2 0 0 1 .744-.123q.389 0 .739.117a2.41 2.41 0 0 1 1.637 1.955c.02.11.026.22.026.337M65.36 58.35c0 .478-.135.925-.381 1.3a2.394 2.394 0 0 1-3.367.693 2.4 2.4 0 0 1-.777-.86 2.4 2.4 0 0 1 .712-3.082c.311-.227.68-.383 1.075-.435q.163-.027.337-.026c.07 0 .142 0 .213.014a2.4 2.4 0 0 1 2.182 2.26q.009.067.007.135M69.906 49.9q0 .389-.116.738a2.4 2.4 0 0 1-3.86 1.081 3 3 0 0 1-.33-.343 2.4 2.4 0 0 1-.472-1.12 1.6 1.6 0 0 1-.032-.356c0-1.127.777-2.066 1.819-2.325v-.006c.188-.045.388-.071.59-.071q.28-.001.543.065c.156.032.31.084.453.155a2.39 2.39 0 0 1 1.405 2.182"/>
  <path fill="#84C1D9" fill-rule="evenodd" d="M31.072 29.253a2.4 2.4 0 0 1-2.376 2.052q-.226.001-.441-.045a2.3 2.3 0 0 1-1.055-.486 2.282 2.282 0 0 1-.816-1.243 2.3 2.3 0 0 1 0-1.27c.13-.498.42-.931.81-1.242a2.41 2.41 0 0 1 2.246-.415 2.42 2.42 0 0 1 1.198.874c.188.253.323.544.395.861v.007c.045.181.07.356.07.55 0 .123-.006.24-.032.357m1.346-1.483a3.8 3.8 0 0 0-.693-1.315l-.174-.194a3.7 3.7 0 0 0-1.198-.874 3.7 3.7 0 0 0-1.658-.375c-1.12 0-2.136.479-2.842 1.243a3.6 3.6 0 0 0-.784 1.256c-.168.427-.258.9-.258 1.385 0 .564.116 1.101.336 1.58.2.46.492.874.855 1.21q.165.168.35.305c.388.298.841.525 1.327.654a3.89 3.89 0 0 0 4.74-2.616 3.87 3.87 0 0 0 0-2.26"/>
  <path fill="#84C1D9" fill-rule="evenodd" d="M31.104 28.896c0 .123-.007.24-.033.356a2.4 2.4 0 0 1-2.376 2.052q-.225.002-.44-.044a2.3 2.3 0 0 1-1.055-.486 2.281 2.281 0 0 1-.816-1.243 2.28 2.28 0 0 1 0-1.27c.13-.498.42-.932.809-1.242a2.41 2.41 0 0 1 2.247-.415 2.4 2.4 0 0 1 1.197.874c.188.253.324.544.395.861v.007c.046.181.072.356.072.55M86.546 37.637a2.395 2.395 0 0 1-1.612 2.273c-.246.09-.512.136-.79.136q-.348 0-.667-.098a2.37 2.37 0 0 1-1.295-.92 2.4 2.4 0 0 1-.447-1.391c0-.065 0-.123.013-.188a2.38 2.38 0 0 1 1.334-1.962v-.006a2.4 2.4 0 0 1 1.567-.194c.505.11.952.375 1.282.75a2.36 2.36 0 0 1 .615 1.6M86.112 62.441c0 .35-.078.686-.207.984a2.5 2.5 0 0 1-1.237 1.23 2.5 2.5 0 0 1-.958.195c-.181 0-.362-.02-.53-.065a2.33 2.33 0 0 1-1.309-.796 2.33 2.33 0 0 1-.563-1.392v-.04q-.009-.057-.007-.116c0-.473.136-.913.376-1.282a2.384 2.384 0 0 1 1.832-1.107c.065-.013.13-.013.201-.013.259 0 .512.039.738.123.512.155.946.486 1.237.92.181.252.31.55.375.867.033.155.052.324.052.492M20.485 37.572a3.9 3.9 0 0 1-2.279 3.542c-.44.2-.926.317-1.444.337q-.075.007-.162.006a3.83 3.83 0 0 1-2.343-.79 3.8 3.8 0 0 1-.99-1.107 3.83 3.83 0 0 1-.551-1.988c0-.2.013-.401.052-.595.07-.505.246-.978.498-1.392a3.83 3.83 0 0 1 1.586-1.477 3.7 3.7 0 0 1 1.749-.42c1.094 0 2.09.453 2.79 1.19a3.8 3.8 0 0 1 1.094 2.694M40.13 49.816q-.002.253-.052.498a2.412 2.412 0 0 1-2.357 1.91c-.965 0-1.8-.576-2.176-1.398h-.006a2.3 2.3 0 0 1-.22-.952v-.058a2.5 2.5 0 0 1 .045-.473 2.4 2.4 0 0 1 .415-.939 2.4 2.4 0 0 1 1.942-.99c1.21 0 2.201.88 2.376 2.033.02.116.032.246.032.369"/>
  <path fill="#F25849" fill-rule="evenodd" d="M22.15 49.9q0 .449-.156.848a2.413 2.413 0 0 1-2.072 1.554l-.02-.045-.006.045c-.051.006-.097.006-.149.006a2.36 2.36 0 0 1-1.281-.375 2.36 2.36 0 0 1-.978-1.204 2.35 2.35 0 0 1-.058-1.477 2.44 2.44 0 0 1 1.01-1.372c.375-.24.828-.382 1.307-.382.04 0 .085 0 .124.006l.019.078.032-.078c.518.04.997.24 1.373.557.369.31.647.732.77 1.217q.087.301.085.622M31.104 71.39q.002.048-.007.096c-.013.408-.13.784-.324 1.114a1.6 1.6 0 0 1-.187.272c-.24.31-.557.563-.92.725-.297.13-.628.2-.97.2-.7 0-1.335-.304-1.769-.783a2.36 2.36 0 0 1-.614-1.346 2 2 0 0 1-.02-.279c0-.291.052-.563.143-.816a2.3 2.3 0 0 1 .66-.964q.118-.115.246-.201c.317-.22.7-.363 1.1-.408.085-.006.169-.013.253-.013.544 0 1.049.181 1.45.486a2.4 2.4 0 0 1 .959 1.916M52.237 79.91v.006c0 .33-.065.648-.188.939a2.42 2.42 0 0 1-2.22 1.47q-.35 0-.667-.097a2.41 2.41 0 0 1-1.554-1.392 2.4 2.4 0 0 1-.181-.92c0-.02 0-.045.006-.065q0-.25.058-.492c.078-.336.227-.64.434-.906a2.38 2.38 0 0 1 1.237-.848q.318-.097.666-.097c.285 0 .564.051.816.142.46.168.855.466 1.127.855.194.259.33.556.401.874.046.168.065.35.065.53M82.687 50.638a2.402 2.402 0 0 1-2.292 1.67 1.7 1.7 0 0 1-.363-.032.4.4 0 0 1-.123-.02h-.006a2.35 2.35 0 0 1-1.295-.75 2.4 2.4 0 0 1-.615-1.606q0-.39.117-.738c.103-.324.278-.615.505-.861a2.36 2.36 0 0 1 1.288-.758h.006c.046-.006.085-.013.13-.02.117-.019.233-.025.356-.025.401 0 .77.097 1.1.272a2.394 2.394 0 0 1 1.192 2.868m1.522-1.476a3.89 3.89 0 0 0-3.788-3.147h-.026a3.83 3.83 0 0 0-2.383.829 3.82 3.82 0 0 0-1.43 2.318q-.07.36-.072.738.001.378.072.738c.18.939.699 1.761 1.424 2.324.388.311.842.544 1.327.68.337.097.693.15 1.062.15h.02c.51 0 1.003-.105 1.45-.292a3.886 3.886 0 0 0 2.344-4.338"/>
  <path fill="#F25849" fill-rule="evenodd" d="M82.804 49.9q0 .389-.117.738a2.401 2.401 0 0 1-2.292 1.67c-.123 0-.246-.006-.362-.032a.4.4 0 0 1-.123-.02h-.007a2.35 2.35 0 0 1-1.295-.75 2.4 2.4 0 0 1-.615-1.606q0-.39.117-.738c.103-.324.278-.615.505-.861a2.36 2.36 0 0 1 1.288-.758h.007l.13-.02q.172-.027.355-.025c.402 0 .77.097 1.1.272a2.39 2.39 0 0 1 1.309 2.13M73.985 28.896c0 .22-.032.44-.09.641a2.36 2.36 0 0 1-.816 1.237c-.032.026-.058.052-.09.071a2.36 2.36 0 0 1-1.412.46 2.38 2.38 0 0 1-1.994-1.075 2.37 2.37 0 0 1-.408-1.334c0-.045 0-.097.006-.142 0-.078.013-.156.026-.233.058-.395.22-.764.46-1.075.058-.084.13-.169.207-.246a2.35 2.35 0 0 1 .997-.602 2.3 2.3 0 0 1 .706-.11c.388 0 .757.09 1.081.259.466.233.848.615 1.075 1.087.162.318.252.68.252 1.062M66.371 19.903h-.006q-.135.205-.311.382a2.35 2.35 0 0 1-1.34.673 1.6 1.6 0 0 1-.356.033 2.39 2.39 0 0 1-1.95-1.004 2.36 2.36 0 0 1-.459-1.405c0-.02 0-.045.007-.065 0-.323.077-.628.2-.906a2.4 2.4 0 0 1 1.004-1.114c.35-.207.764-.323 1.198-.323.24 0 .472.038.692.103.499.15.926.453 1.224.861a2.33 2.33 0 0 1 .486 1.444c0 .492-.143.939-.389 1.32m1.859-1.522a3.83 3.83 0 0 0-1.244-2.654 3.7 3.7 0 0 0-1.262-.777 3.7 3.7 0 0 0-1.366-.253c-.777 0-1.496.227-2.098.615-.421.272-.79.622-1.068 1.036a3.78 3.78 0 0 0-.72 2.202v.032c0 .505.098.99.28 1.438a3.88 3.88 0 0 0 4.933 2.214 3.7 3.7 0 0 0 1.269-.77c.48-.428.855-.978 1.068-1.6.143-.401.22-.835.22-1.282 0-.065 0-.136-.013-.2"/>
  <path fill="#F25849" fill-rule="evenodd" d="M66.76 18.582c0 .492-.143.939-.389 1.321h-.006c-.09.136-.194.266-.311.382a2.35 2.35 0 0 1-1.34.673 1.6 1.6 0 0 1-.356.033 2.39 2.39 0 0 1-1.95-1.004 2.36 2.36 0 0 1-.459-1.405c0-.02 0-.045.007-.065a2.394 2.394 0 0 1 1.204-2.02c.35-.207.764-.323 1.198-.323.24 0 .472.038.692.103.499.15.926.453 1.224.861.278.363.447.797.48 1.276q.007.08.006.168M49.744 60.15c0 .867-.46 1.624-1.152 2.045a2.34 2.34 0 0 1-1.069.343c-.058.007-.11.007-.168.007-.065 0-.13 0-.194-.013a2.37 2.37 0 0 1-2.065-1.606 2.2 2.2 0 0 1-.136-.777c0-.81.401-1.521 1.016-1.962.09-.064.194-.123.298-.174a2.34 2.34 0 0 1 1.081-.26h.033a2.395 2.395 0 0 1 2.356 2.396"/>
</svg>