<?xml version="1.0" encoding="UTF-8"?>
<svg width="44px" height="71px" viewBox="0 0 44 71" version="1.1" xmlns="http://www.w3.org/2000/svg" xmlns:xlink="http://www.w3.org/1999/xlink">
    <title>Group</title>
    <g id="Page-1" stroke="none" stroke-width="1" fill="none" fill-rule="evenodd">
        <g id="Group" fill="#FFFFFE">
            <polygon id="Fill-26" points="17.3085436 9 23 0 0.00084845802 0 0 3.49892199"></polygon>
            <path d="M28,13.1919171 L44,18 C43.6926591,15.6331071 42.957533,13.3894984 41.7896376,11.2699903 C40.2055861,8.39608103 37.8972069,6.07980813 34.8653307,4.3195387 C32.8825667,3.169975 30.6381476,2.39761188 28.1345655,2 L28,13.1919171 Z" id="Fill-27"></path>
            <polygon id="Fill-29" points="10 19.7493382 0.00808996036 4 0 36"></polygon>
            <g id="Group-34" transform="translate(0, 18)">
                <path d="M27.5848286,6.54969645 L27.4151087,20.94132 C30.1130693,20.5545696 32.5192455,19.7342914 34.6311291,18.4804852 C37.6852506,16.6661833 40.0103291,14.2905506 41.6063647,11.3494102 C43.2015642,8.40910524 44,5.24827736 44,1.86776193 C44,1.23709992 43.9724101,0.614791045 43.9172302,0 L27.5848286,6.54969645 Z" id="Fill-30"></path>
                <path d="M16.8407252,10.8584127 L0.0100327013,17.6077492 L0,53 L14.6661372,21.2012697 L23.6261755,21.2012697 C23.7030928,21.2012697 23.7791742,21.1987637 23.8560915,21.1979284 L16.8407252,10.8584127 Z" id="Fill-32"></path>
            </g>
        </g>
    </g>
</svg>