<svg width="135" height="135" viewBox="0 0 135 135" fill="none" xmlns="http://www.w3.org/2000/svg">
<g clip-path="url(#clip0_1925_9741)">
<path d="M9.60521 38.6326C32.3724 35.7293 57.253 39.711 75.3181 54.9921C91.8845 69.0021 100.33 91.0717 93.4337 111.879C90.0749 106.836 87.096 101.543 84.4744 96.0695C81.6951 90.2711 73.0921 95.186 75.8521 100.942C80.3111 110.241 85.8451 118.832 92.2759 126.902C93.5283 128.473 96.6117 128.855 98.2449 127.735C106.597 122.03 114.941 116.326 123.289 110.625C128.516 107.052 123.606 98.3644 118.342 101.96C113.511 105.261 108.683 108.558 103.86 111.859C110.334 88.7189 100.591 63.4553 82.3199 47.998C61.2611 30.186 33.6086 25.6247 7.04563 29.0106C0.71043 29.8212 3.34996 39.4321 9.60903 38.6364L9.60521 38.6326Z" fill="#172840"/>
</g>
<defs>
<clipPath id="clip0_1925_9741">
<rect width="141" height="49" fill="white" transform="translate(99.7021 134.35) rotate(-135)"/>
</clipPath>
</defs>
</svg>
