<svg width="240" height="100" viewBox="0 0 240 100" fill="none" xmlns="http://www.w3.org/2000/svg">
<path d="M118.94 48.9929H122.737V36.9706H132.52C139.432 36.9706 144.835 32.5414 144.835 26.2625C144.835 19.9836 139.432 15.5544 132.52 15.5544H118.94V48.9929ZM122.737 33.3688V19.1562H131.839C137.29 19.1562 140.989 21.7846 140.989 26.2625C140.989 30.7404 137.29 33.3688 131.839 33.3688H122.737Z" fill="white"/>
<path d="M170.206 48.9929H174.343L159.595 15.5544H155.458L140.71 48.9929H144.847L148.206 41.3999H166.848L170.206 48.9929ZM149.763 37.798L157.551 20.227L165.29 37.798H149.763Z" fill="white"/>
<path d="M205.514 48.9929H209.651L194.904 15.5544H190.767L176.019 48.9929H180.155L183.515 41.3999H202.156L205.514 48.9929ZM185.072 37.798L192.859 20.227L200.599 37.798H185.072Z" fill="white"/>
<path d="M211.672 48.9929H215.469V21.7846L236.204 48.9929H240V15.5544H236.204V42.7627L215.469 15.5544H211.672V48.9929Z" fill="white"/>
<path d="M118.932 65.4051H120.103V61.6974H123.12C125.251 61.6974 126.918 60.3314 126.918 58.3949C126.918 56.4585 125.251 55.0925 123.12 55.0925H118.932V65.4051ZM120.103 60.5866V56.2033H122.91C124.591 56.2033 125.732 57.0139 125.732 58.3949C125.732 59.776 124.591 60.5866 122.91 60.5866H120.103Z" fill="#F25849"/>
<path d="M131.706 57.4642C130.955 57.4642 130.024 57.6593 128.914 58.2148L129.364 59.1304C130.069 58.7702 130.85 58.4249 131.631 58.4249C133.312 58.4249 133.732 59.6258 133.732 60.6766V60.9618C132.937 60.7066 132.051 60.5265 131.21 60.5265C129.544 60.5265 128.163 61.5622 128.163 63.1084C128.163 64.6395 129.364 65.5853 131 65.5853C132.021 65.5853 133.177 65.1049 133.732 64.1892V65.4051H134.858V60.6766C134.858 58.8002 133.822 57.4642 131.706 57.4642ZM131.195 64.5945C130.099 64.5945 129.259 64.0241 129.259 63.0633C129.259 62.1327 130.235 61.4722 131.39 61.4722C132.231 61.4722 133.027 61.5923 133.732 61.7874V62.9733C133.432 64.0691 132.216 64.5945 131.195 64.5945Z" fill="#F25849"/>
<path d="M140.848 57.4642C139.752 57.4642 138.746 58.0647 138.296 58.8902V57.6443H137.17V65.4051H138.296V60.4664C138.296 59.3856 139.392 58.4699 140.697 58.4699C141.838 58.4699 142.634 59.3556 142.634 60.6166V65.4051H143.76V60.4664C143.76 58.7101 142.559 57.4642 140.848 57.4642Z" fill="#F25849"/>
<path d="M149.629 60.7817H145.741V61.8775H149.629V60.7817Z" fill="#F25849"/>
<path d="M160.047 65.4051H161.323L156.775 55.0925H155.499L150.95 65.4051H152.226L153.262 63.0634H159.011L160.047 65.4051ZM153.742 61.9526L156.144 56.5335L158.531 61.9526H153.742Z" fill="#F25849"/>
<path d="M164.7 56.5785C164.7 56.0081 165.09 55.6028 165.541 55.6028C165.886 55.6028 166.186 55.7379 166.351 55.918L166.907 55.0924C166.502 54.7772 165.991 54.5971 165.466 54.5971C164.355 54.5971 163.574 55.4227 163.574 56.5785V57.6443H162.358V58.6501H163.574V65.4051H164.7V58.6501H166.607V57.6443H164.7V56.5785Z" fill="#F25849"/>
<path d="M169.444 59.1604V57.6443H168.318V65.4051H169.444V61.0669C169.444 59.5508 170.69 58.4699 172.446 58.4699V57.4642C171.02 57.4642 169.91 58.1247 169.444 59.1604Z" fill="#F25849"/>
<path d="M174.563 56.2333C174.968 56.2333 175.299 55.888 175.299 55.4827C175.299 55.0924 174.968 54.7472 174.563 54.7472C174.143 54.7472 173.812 55.0924 173.812 55.4827C173.812 55.888 174.143 56.2333 174.563 56.2333ZM173.993 65.4051H175.118V57.6443H173.993V65.4051Z" fill="#F25849"/>
<path d="M180.988 65.5853C182.068 65.5853 183.06 65.1349 183.795 64.3993L183.015 63.6338C182.489 64.2192 181.768 64.5795 180.988 64.5795C179.441 64.5795 178.151 63.1835 178.151 61.5172C178.151 59.866 179.441 58.4699 180.988 58.4699C181.754 58.4699 182.459 58.8152 182.969 59.3706L183.75 58.605C183.015 57.8995 182.039 57.4642 180.988 57.4642C178.811 57.4642 176.965 59.3106 176.965 61.5172C176.965 63.7239 178.811 65.5853 180.988 65.5853Z" fill="#F25849"/>
<path d="M188.674 57.4642C187.923 57.4642 186.992 57.6593 185.881 58.2148L186.332 59.1304C187.037 58.7702 187.818 58.4249 188.599 58.4249C190.28 58.4249 190.7 59.6258 190.7 60.6766V60.9618C189.904 60.7066 189.019 60.5265 188.178 60.5265C186.512 60.5265 185.131 61.5622 185.131 63.1084C185.131 64.6395 186.332 65.5853 187.968 65.5853C188.988 65.5853 190.145 65.1049 190.7 64.1892V65.4051H191.826V60.6766C191.826 58.8002 190.79 57.4642 188.674 57.4642ZM188.163 64.5945C187.068 64.5945 186.227 64.0241 186.227 63.0633C186.227 62.1327 187.202 61.4722 188.358 61.4722C189.199 61.4722 189.995 61.5923 190.7 61.7874V62.9733C190.4 64.0691 189.184 64.5945 188.163 64.5945Z" fill="#F25849"/>
<path d="M197.816 57.4642C196.72 57.4642 195.714 58.0647 195.263 58.8902V57.6443H194.138V65.4051H195.263V60.4664C195.263 59.3856 196.36 58.4699 197.665 58.4699C198.806 58.4699 199.602 59.3556 199.602 60.6166V65.4051H200.728V60.4664C200.728 58.7101 199.527 57.4642 197.816 57.4642Z" fill="#F25849"/>
<path d="M128.028 81.5493H129.304L124.756 71.2367H123.48L118.932 81.5493H120.208L121.243 79.2076H126.993L128.028 81.5493ZM121.724 78.0968L124.126 72.6777L126.512 78.0968H121.724Z" fill="#F25849"/>
<path d="M136.959 73.7885V75.1245C136.359 74.1789 135.368 73.6084 134.137 73.6084C132.051 73.6084 130.564 75.1245 130.564 77.2862C130.564 79.4478 132.051 80.9789 134.137 80.9789C135.368 80.9789 136.359 80.4085 136.959 79.4628V80.7237C136.959 82.2397 135.908 83.1257 134.122 83.1257C133.161 83.1257 132.231 82.7801 131.63 82.2097L131.135 83.0957C131.84 83.6961 133.011 84.1313 134.272 84.1313C136.509 84.1313 138.085 82.7201 138.085 80.7237V73.7885H136.959ZM134.347 79.9732C132.831 79.9732 131.75 78.8623 131.75 77.2862C131.75 75.725 132.831 74.6142 134.347 74.6142C135.878 74.6142 136.959 75.725 136.959 77.2862C136.959 78.8623 135.878 79.9732 134.347 79.9732Z" fill="#F25849"/>
<path d="M143.97 80.7237C142.439 80.7237 141.373 79.6129 141.208 78.0968H147.557C147.557 75.3797 146.221 73.6084 143.88 73.6084C141.793 73.6084 140.052 75.3347 140.052 77.6465C140.052 80.0332 141.913 81.7293 143.985 81.7293C145.066 81.7293 146.432 81.2641 147.107 80.5286L146.416 79.793C145.936 80.3184 144.885 80.7237 143.97 80.7237ZM143.925 74.6142C145.471 74.6142 146.296 75.695 146.446 77.091H141.223C141.433 75.5899 142.544 74.6142 143.925 74.6142Z" fill="#F25849"/>
<path d="M153.097 73.6084C152.001 73.6084 150.995 74.2089 150.545 75.0345V73.7885H149.419V81.5493H150.545V76.6107C150.545 75.5299 151.641 74.6142 152.947 74.6142C154.087 74.6142 154.883 75.4998 154.883 76.7608V81.5493H156.009V76.6107C156.009 74.8543 154.808 73.6084 153.097 73.6084Z" fill="#F25849"/>
<path d="M161.893 81.7293C162.974 81.7293 163.965 81.2793 164.7 80.5436L163.92 79.778C163.394 80.3635 162.674 80.7237 161.893 80.7237C160.347 80.7237 159.056 79.3277 159.056 77.6615C159.056 76.0102 160.347 74.6142 161.893 74.6142C162.659 74.6142 163.364 74.9594 163.875 75.5149L164.655 74.7493C163.92 74.0437 162.944 73.6084 161.893 73.6084C159.717 73.6084 157.87 75.4548 157.87 77.6615C157.87 79.8681 159.717 81.7293 161.893 81.7293Z" fill="#F25849"/>
<path d="M167.583 84.2513C168.648 84.2365 169.399 83.7409 169.939 82.4201L173.482 73.7886H172.266L169.699 80.2434L166.982 73.7886H165.736L169.114 81.5793L168.664 82.5401C168.363 83.0657 168.033 83.2305 167.538 83.2305C167.207 83.2305 166.892 83.1705 166.622 83.0357L166.352 83.9961C166.712 84.1613 167.132 84.2513 167.583 84.2513Z" fill="#F25849"/>
<path d="M179.951 81.5493H181.122V73.1581L187.517 81.5493H188.687V71.2367H187.517V79.628L181.122 71.2367H179.951V81.5493Z" fill="#F25849"/>
<path d="M194.738 80.7237C193.207 80.7237 192.141 79.6129 191.976 78.0968H198.326C198.326 75.3797 196.989 73.6084 194.647 73.6084C192.561 73.6084 190.82 75.3347 190.82 77.6465C190.82 80.0332 192.681 81.7293 194.753 81.7293C195.834 81.7293 197.2 81.2641 197.875 80.5286L197.185 79.793C196.704 80.3184 195.654 80.7237 194.738 80.7237ZM194.693 74.6142C196.239 74.6142 197.065 75.695 197.214 77.091H191.991C192.201 75.5899 193.312 74.6142 194.693 74.6142Z" fill="#F25849"/>
<path d="M203.579 80.4085C203.413 80.5886 203.114 80.7237 202.768 80.7237C202.318 80.7237 201.927 80.3184 201.927 79.748V74.7943H203.833V73.7885H201.927V71.657H200.801V73.7885H199.586V74.7943H200.801V79.748C200.801 80.9039 201.582 81.7293 202.693 81.7293C203.219 81.7293 203.729 81.5493 204.135 81.2341L203.579 80.4085Z" fill="#F25849"/>
<path d="M207.708 81.5493H208.773L210.86 75.3498L212.916 81.5493H213.983L216.594 73.7886H215.393L213.456 80.0483L211.34 73.7886H210.364L208.248 80.0483L206.311 73.7886H205.11L207.708 81.5493Z" fill="#F25849"/>
<path d="M221.532 81.7293C223.708 81.7293 225.54 79.8681 225.54 77.6615C225.54 75.4548 223.708 73.6084 221.532 73.6084C219.355 73.6084 217.509 75.4548 217.509 77.6615C217.509 79.8681 219.355 81.7293 221.532 81.7293ZM221.532 80.7237C219.986 80.7237 218.695 79.3277 218.695 77.6615C218.695 76.0102 219.986 74.6142 221.532 74.6142C223.063 74.6142 224.355 76.0102 224.355 77.6615C224.355 79.3277 223.063 80.7237 221.532 80.7237Z" fill="#F25849"/>
<path d="M228.633 75.3047V73.7885H227.507V81.5493H228.633V77.2111C228.633 75.695 229.878 74.6142 231.635 74.6142V73.6084C230.208 73.6084 229.098 74.2689 228.633 75.3047Z" fill="#F25849"/>
<path d="M239.997 73.7885H238.556L234.307 78.0817V71.0565H233.182V81.5492H234.307V79.4928L235.703 78.1117L238.39 81.5492H239.802L236.499 77.3462L239.997 73.7885Z" fill="#F25849"/>
<path d="M54.2054 72.1724L54.1989 72.1789L50.6443 71.8293L49.6149 71.7321L49.6084 71.7062C49.6602 71.7192 49.712 71.7321 49.7638 71.7386L50.6443 71.8228L54.2054 72.1724Z" fill="white"/>
<path d="M31.6737 41.4181C31.6606 41.4443 31.654 41.4706 31.654 41.4968L31.6475 41.4443L31.6737 41.4181Z" fill="white"/>
<path fill-rule="evenodd" clip-rule="evenodd" d="M12.7609 80.9585L12.7155 81.1398L12.8515 81.0621C12.8191 81.0298 12.7868 80.9909 12.7609 80.9585ZM11.8997 79.9032L11.6861 80.0262C11.6796 80.0327 11.6731 80.0327 11.6666 80.0456C11.7508 79.9874 11.8415 79.955 11.9386 79.942C11.9192 79.9291 11.9127 79.9161 11.8997 79.9032ZM11.3818 80.3694C11.3818 80.3694 11.3818 80.3758 11.3753 80.3823C11.3559 80.4276 11.3429 80.4665 11.33 80.5118V80.5377C11.3235 80.5766 11.317 80.6089 11.317 80.6478L11.3947 80.3499L11.4012 80.3111C11.3882 80.3305 11.3818 80.3499 11.3818 80.3694ZM11.317 80.6801V80.6478C11.3105 80.6543 11.3105 80.6607 11.3105 80.6672V80.6737C11.3105 80.7255 11.317 80.7773 11.3364 80.8291C11.3235 80.7837 11.317 80.7319 11.317 80.6801ZM88.1382 18.8218C88.1511 18.8412 88.1511 18.8542 88.1576 18.8736C88.1641 18.8607 88.1641 18.8477 88.1641 18.8283C88.1576 18.8283 88.1511 18.8218 88.1382 18.8218ZM71.6992 5.01795C71.6733 4.99853 71.6409 4.97911 71.6085 4.96616C71.615 4.97263 71.615 4.97263 71.6215 4.97911C71.6538 4.99205 71.6797 5.01148 71.7121 5.0309C71.7121 5.02443 71.7056 5.02443 71.6992 5.01795Z" fill="white"/>
<path fill-rule="evenodd" clip-rule="evenodd" d="M96.3032 63.7943L87.5819 62.2209C87.5949 62.2921 87.5949 62.3698 87.5949 62.4411C87.5949 62.8813 87.5237 63.2957 87.3877 63.6907L95.85 65.2187C94.1407 70.353 91.5897 75.1119 88.3589 79.3204L85.031 66.0992C84.6166 66.2481 84.1763 66.3323 83.7101 66.3323C83.6583 66.3323 83.6065 66.3323 83.5612 66.3258L86.941 79.7606L74.95 72.8393C74.7169 73.286 74.3932 73.681 74.0047 74.0047L85.2446 80.4922L68.8056 79.9354C68.9869 80.3822 69.084 80.8678 69.084 81.3728V81.4311L86.1511 82.0008C82.6612 85.9374 78.5369 89.3042 73.9464 91.9394L67.8862 84.1828C67.5301 84.5259 67.1028 84.7979 66.6301 84.9856L72.6321 92.6645C66.1899 96.096 58.88 98.1161 51.1235 98.3104L62.2922 83.9497C61.9361 83.5483 61.6641 83.0756 61.5023 82.5576L50.6443 96.5234V83.7166C50.3789 83.7684 50.107 83.8008 49.8285 83.8008C49.6019 83.8008 49.3753 83.7813 49.1617 83.7425V96.5428L39.0095 83.3217C38.6728 83.6842 38.2649 83.9821 37.8117 84.1893L48.6566 98.3104C40.9842 98.1096 33.7521 96.1284 27.3617 92.7551L34.1989 84.0015C33.7651 83.749 33.3895 83.4123 33.0917 83.0173L26.0473 92.0365C21.1461 89.2524 16.7692 85.6396 13.124 81.3857L32.3147 81.0814C32.3018 80.9455 32.2953 80.8095 32.2953 80.6671C32.2953 80.298 32.3471 79.9354 32.4442 79.5988L14.9175 79.8836L25.6265 73.7651C25.3157 73.3767 25.0891 72.9234 24.9596 72.4379L13.2082 79.152L16.4066 66.3258C15.8952 66.2999 15.4096 66.1769 14.9693 65.9762L11.6025 79.5146C8.47525 75.4744 5.96959 70.9293 4.2344 66.0215L12.9751 63.8331C12.8068 63.3993 12.7161 62.9331 12.7161 62.4411V62.3763L3.76175 64.6101C2.41504 60.3821 1.6316 55.9017 1.50211 51.2594L13.3053 60.4016C13.5643 59.9742 13.9074 59.5987 14.3089 59.3074L3.13371 50.6508L15.9469 50.722C15.8952 50.4566 15.8628 50.1846 15.8628 49.8998C15.8628 49.6731 15.8822 49.453 15.921 49.2394L3.13371 49.1746L14.2571 40.667C13.8621 40.3691 13.519 39.9936 13.2665 39.5598L1.50211 48.553C1.64455 43.3928 2.59632 38.4268 4.2344 33.7909L12.7679 36.9765C12.8391 36.4714 13.014 35.9988 13.2665 35.5844L4.74588 32.4054C6.39043 28.158 8.62418 24.1956 11.337 20.6281L14.8527 34.1082C15.2801 33.8816 15.7592 33.7456 16.2707 33.7003L12.8262 20.4727L25.0697 27.5106C25.2445 27.0379 25.5099 26.6106 25.8531 26.2545L14.0628 19.4756L31.7191 19.8576C31.6479 19.5662 31.609 19.2619 31.609 18.9512C31.609 18.7569 31.622 18.5692 31.6543 18.3814L13.4931 17.9864C17.2548 13.7003 21.7611 10.0874 26.8049 7.33572L32.5996 16.3678C32.9234 15.9923 33.3248 15.688 33.778 15.4678L28.1192 6.65589C34.2053 3.57398 41.0231 1.74814 48.2358 1.50858L37.611 15.6944C38.0318 15.9664 38.4009 16.3225 38.6793 16.7368L49.1617 2.73876V15.9146C49.4012 15.8692 49.6537 15.8434 49.9062 15.8434C50.1587 15.8434 50.4048 15.8692 50.6443 15.9146V2.53804L61.1915 16.3484C61.4699 15.934 61.8389 15.5844 62.2598 15.3124L51.7256 1.51506C58.3297 1.75462 64.6036 3.32147 70.2753 5.96311L65.7237 14.9499C66.1963 15.1182 66.6237 15.3901 66.9862 15.7268L71.6091 6.61057C77.2226 9.42702 82.2145 13.3118 86.3259 17.9929L68.2294 18.3814C68.2423 18.4461 68.2423 18.5174 68.2423 18.5821C68.2423 19.0289 68.1646 19.4627 68.0222 19.8641L85.2122 19.495L74.0824 25.9243C74.4709 26.248 74.7881 26.643 75.0212 27.0897L86.941 20.2072L83.5029 33.8104C83.7101 33.7715 83.9238 33.7521 84.1439 33.7521C84.4418 33.7521 84.7331 33.7845 85.0115 33.8492L88.3848 20.5115C91.2919 24.3057 93.6487 28.5465 95.332 33.1111L87.4266 35.5715C87.692 35.9858 87.8798 36.452 87.9639 36.9506L95.8306 34.5032C97.2939 38.8735 98.155 43.5158 98.3039 48.3394L87.3165 39.8771C87.0251 40.2915 86.6561 40.6411 86.2352 40.9065L96.9507 49.1617H84.2087C84.254 49.4012 84.2799 49.6473 84.2799 49.8998C84.2799 50.1523 84.254 50.3983 84.2087 50.6379H96.9313L85.7691 59.152C86.2029 59.4174 86.5719 59.7671 86.8633 60.1814L98.3039 51.4601C98.1679 55.7334 97.4816 59.8706 96.3032 63.7943ZM12.7161 81.1397L12.7614 80.9584C12.7873 80.9908 12.8197 81.0296 12.8521 81.062L12.7161 81.1397ZM11.6672 80.0455C11.6737 80.0326 11.6802 80.0326 11.6867 80.0261L11.9003 79.9031C11.9133 79.916 11.9197 79.929 11.9392 79.9419C11.842 79.9549 11.7514 79.9872 11.6672 80.0455ZM11.3953 80.3498L11.3176 80.6476V80.68C11.3176 80.7318 11.3241 80.7836 11.337 80.8289C11.3176 80.7771 11.3111 80.7253 11.3111 80.6735V80.6671C11.3111 80.6606 11.3111 80.6541 11.3176 80.6476C11.3176 80.6088 11.3241 80.5764 11.3306 80.5376V80.5117C11.337 80.4664 11.35 80.421 11.3759 80.3822C11.3824 80.3757 11.3824 80.3692 11.3824 80.3692C11.3824 80.3498 11.3888 80.3304 11.4018 80.311L11.3953 80.3498ZM88.1647 18.8281C88.1647 18.8476 88.1647 18.8605 88.1582 18.8735C88.1517 18.854 88.1517 18.8411 88.1388 18.8217C88.1517 18.8217 88.1582 18.8281 88.1647 18.8281ZM97.0284 33.4737C97.0284 33.4607 97.0284 33.4543 97.0219 33.4413C97.0025 33.3701 96.9766 33.2989 96.9442 33.2341C92.5609 20.8482 83.4058 10.7155 71.6997 5.01782C71.7062 5.02429 71.7127 5.02429 71.7127 5.03077C71.6803 5.01134 71.6544 4.99192 71.6221 4.97897C71.6156 4.97249 71.6156 4.97249 71.6091 4.96602H71.6026C71.5962 4.95954 71.5832 4.95307 71.5767 4.95307C65.0244 1.78699 57.6693 0 49.9062 0C22.3633 0 0.0064746 22.3503 0 49.8933V49.8998C0 68.5855 10.2946 84.882 25.5099 93.435H25.5164C25.743 93.5645 25.9761 93.694 26.2027 93.817C33.2536 97.637 41.3274 99.806 49.9062 99.806C72.2242 99.806 91.1365 85.1216 97.5075 64.8949C97.5269 64.8561 97.5399 64.8108 97.5464 64.7654C99.0161 60.0714 99.806 55.073 99.806 49.8998C99.806 44.1438 98.8283 38.6145 97.0284 33.4737Z" fill="white"/>
<path fill-rule="evenodd" clip-rule="evenodd" d="M65.1091 52.9622L64.0084 54.6132C63.8465 54.5614 63.6846 54.529 63.5163 54.5096C63.335 54.4772 63.1473 54.4643 62.9595 54.4643C62.7264 54.4643 62.4998 54.4837 62.2861 54.5226L64.1055 51.7903C64.2868 52.1075 64.5004 52.3924 64.7594 52.6449V52.6514C64.8695 52.7615 64.986 52.8651 65.1091 52.9622Z" fill="white"/>
<path fill-rule="evenodd" clip-rule="evenodd" d="M46.9344 56.3033C46.5395 56.3422 46.1704 56.4393 45.8273 56.5882C45.7237 56.6335 45.6201 56.6853 45.523 56.7371L43.736 51.0654L41.4375 50.9747C41.4958 50.7805 41.5411 50.5798 41.567 50.3726C41.5994 50.1913 41.6123 50.0035 41.6123 49.8158C41.6123 49.7122 41.6058 49.6086 41.5994 49.505L44.3187 49.6086C44.6295 49.6215 44.9014 49.8287 44.9921 50.1265L46.9344 56.3033Z" fill="white"/>
<path fill-rule="evenodd" clip-rule="evenodd" d="M71.7124 5.03051C71.6801 5.01116 71.6543 4.99181 71.6221 4.97891C71.6479 4.99181 71.6737 5.00471 71.6995 5.01761C71.7059 5.02406 71.7124 5.02406 71.7124 5.03051Z" fill="white"/>
<path fill-rule="evenodd" clip-rule="evenodd" d="M72.8457 69.0123C72.878 69.0317 72.9102 69.051 72.936 69.0768L73.0198 68.8769L72.8457 69.0123Z" fill="white"/>
<path fill-rule="evenodd" clip-rule="evenodd" d="M79.3339 46.164C78.848 46.3 78.4014 46.5331 78.0131 46.8438L72.1667 32.7286C72.6717 32.6573 73.1443 32.4895 73.5653 32.2304L79.3339 46.164Z" fill="white"/>
<path fill-rule="evenodd" clip-rule="evenodd" d="M68.4428 26.6039C68.151 26.9988 67.9313 27.452 67.8146 27.9445L53.1496 21.8635C53.4217 21.4557 53.6157 20.9959 53.7131 20.5041L68.4428 26.6039Z" fill="white"/>
<path fill-rule="evenodd" clip-rule="evenodd" d="M46.6618 21.8646L32.4175 27.77C32.2751 27.2844 32.0359 26.8376 31.7248 26.4556L46.0984 20.4987C46.1957 20.9973 46.3899 21.4572 46.6618 21.8646Z" fill="white"/>
<path fill-rule="evenodd" clip-rule="evenodd" d="M27.6792 32.645L21.8783 46.6565C21.4703 46.3845 21.0105 46.1899 20.5123 46.0867L26.3516 31.9909C26.7404 32.2892 27.1933 32.5153 27.6792 32.645Z" fill="white"/>
<path fill-rule="evenodd" clip-rule="evenodd" d="M80.1553 60.8808C79.9546 61.3275 79.838 61.8131 79.8316 62.3311L76.018 61.6383L73.5124 67.6856C73.0915 67.4266 72.6253 67.2518 72.1203 67.1806L74.5224 61.3728L66.5068 59.929C66.7075 59.4887 66.8241 58.9967 66.837 58.4852L75.1051 59.9743L78.0057 52.9623C78.3942 53.2731 78.8474 53.5062 79.333 53.6422L76.6007 60.2398L80.1553 60.8808Z" fill="white"/>
<path fill-rule="evenodd" clip-rule="evenodd" d="M68.3395 73.2409L53.6617 79.3145C53.5906 78.8156 53.4159 78.3427 53.1634 77.9287L67.7375 71.8875C67.8472 72.3795 68.055 72.8394 68.3395 73.2409Z" fill="white"/>
<path fill-rule="evenodd" clip-rule="evenodd" d="M46.5261 77.8765C46.2673 78.2912 46.0857 78.757 46.0016 79.2559L31.9909 73.4535C32.2496 73.0456 32.4374 72.5796 32.5219 72.0747L46.5261 77.8765Z" fill="white"/>
<path fill-rule="evenodd" clip-rule="evenodd" d="M27.8602 67.5952C27.3685 67.6987 26.9083 67.8991 26.5069 68.1842L20.512 53.7134C21.0108 53.6163 21.4705 53.422 21.8781 53.1498L27.8602 67.5952Z" fill="white"/>
<path fill-rule="evenodd" clip-rule="evenodd" d="M50.6438 23.5418V32.0883C50.4043 32.0429 50.1582 32.017 49.9057 32.017C49.6532 32.017 49.4007 32.0429 49.1611 32.0883V23.5418C49.4007 23.5871 49.6532 23.613 49.9057 23.613C50.1582 23.613 50.4043 23.5871 50.6438 23.5418Z" fill="white"/>
<path fill-rule="evenodd" clip-rule="evenodd" d="M76.51 49.8999C76.51 50.1524 76.5359 50.3984 76.5812 50.638H71.3174C71.3627 50.3984 71.3886 50.1524 71.3886 49.8999C71.3886 49.6474 71.3627 49.4013 71.3174 49.1618H76.5812C76.5359 49.4013 76.51 49.6474 76.51 49.8999Z" fill="white"/>
<path fill-rule="evenodd" clip-rule="evenodd" d="M23.5352 50.7609C23.5999 50.4825 23.6323 50.1976 23.6323 49.8998C23.6323 49.6861 23.6129 49.4854 23.5805 49.2847L33.8686 49.3365C33.8492 49.4919 33.8362 49.6538 33.8362 49.8156C33.8362 50.1588 33.8816 50.4954 33.9722 50.8127L23.5352 50.7609Z" fill="white"/>
<path fill-rule="evenodd" clip-rule="evenodd" d="M26.2029 93.8171C26.0281 93.8365 25.8533 93.7847 25.7108 93.6682C25.6267 93.6034 25.5619 93.5257 25.5166 93.4351C25.7432 93.5646 25.9763 93.6941 26.2029 93.8171Z" fill="white"/>
<path fill-rule="evenodd" clip-rule="evenodd" d="M81.3085 62.5577V62.5976L81.2686 62.591L81.3085 62.5577Z" fill="white"/>
<path fill-rule="evenodd" clip-rule="evenodd" d="M97.0217 33.4406C97.0024 33.3696 96.9766 33.2987 96.9443 33.2342C96.9701 33.2729 96.9895 33.318 97.0024 33.3632C97.0088 33.389 97.0153 33.4148 97.0217 33.4406Z" fill="white"/>
<path fill-rule="evenodd" clip-rule="evenodd" d="M71.712 5.03071C71.6799 5.01144 71.654 4.99216 71.6219 4.97896C71.6153 4.97253 71.6153 4.97253 71.6092 4.96645C71.6416 4.9791 71.6737 4.99838 71.6993 5.0182C71.7059 5.02463 71.712 5.02463 71.712 5.03071Z" fill="white"/>
<path fill-rule="evenodd" clip-rule="evenodd" d="M11.3373 80.8285C11.318 80.7769 11.3115 80.7253 11.3115 80.6737V80.6672C11.3115 80.6608 11.3115 80.6543 11.318 80.6479V80.6801C11.318 80.7317 11.3244 80.7833 11.3373 80.8285Z" fill="white"/>
<path fill-rule="evenodd" clip-rule="evenodd" d="M11.4016 80.3112L11.3951 80.3501L11.3174 80.6479C11.3174 80.609 11.3239 80.5767 11.3303 80.5378V80.5119C11.3433 80.4666 11.3562 80.4278 11.3757 80.3824C11.3821 80.376 11.3821 80.3695 11.3821 80.3695C11.3821 80.3501 11.3886 80.3306 11.4016 80.3112Z" fill="white"/>
<path fill-rule="evenodd" clip-rule="evenodd" d="M11.9395 79.9419C11.8422 79.9552 11.7519 79.9874 11.6676 80.0455C11.6741 80.0324 11.6803 80.0324 11.687 80.0261L11.9006 79.903C11.9137 79.9157 11.9202 79.9292 11.9395 79.9419Z" fill="white"/>
<path fill-rule="evenodd" clip-rule="evenodd" d="M12.8513 81.0618L12.7158 81.1392L12.761 80.9586C12.7868 80.9909 12.819 81.0296 12.8513 81.0618Z" fill="white"/>
<path fill-rule="evenodd" clip-rule="evenodd" d="M44.623 62.9009L32.3083 69.9452H32.3019C32.1206 69.4791 31.8422 69.0582 31.499 68.7021L43.7878 61.6707C43.9885 62.1369 44.2734 62.5512 44.623 62.9009Z" fill="white"/>
<path fill-rule="evenodd" clip-rule="evenodd" d="M38.3486 33.4352L37.3712 34.5809L31.7253 31.3368C32.0363 30.9553 32.2754 30.5083 32.4179 30.029L38.3486 33.4352Z" fill="white"/>
<path fill-rule="evenodd" clip-rule="evenodd" d="M46.6108 33.8493C46.4619 34.0759 46.3454 34.3219 46.2547 34.5809C46.1512 34.8593 46.0799 35.1442 46.0476 35.4485L44.3706 33.5449L39.6636 34.173L33.1761 41.8001L34.2185 47.3747L34.5422 47.5884C34.3156 47.9056 34.1408 48.2552 34.0242 48.6308C33.9854 48.7344 33.9595 48.8444 33.9336 48.9545L33.1437 48.4365C32.9753 48.3265 32.8588 48.1517 32.8199 47.9509L31.661 41.7224C31.648 41.6447 31.6416 41.567 31.6545 41.4958C31.6545 41.4699 31.661 41.444 31.6739 41.4181C31.6934 41.3015 31.7452 41.1979 31.8229 41.1073L37.3716 34.5809L38.3493 33.4349L38.7248 32.9946C38.8413 32.8522 39.0097 32.7615 39.191 32.7421L44.5713 32.0234C44.8109 31.991 45.0569 32.0817 45.2253 32.2695L46.6108 33.8493Z" fill="white"/>
<path fill-rule="evenodd" clip-rule="evenodd" d="M68.2288 68.9612C67.9574 69.3821 67.7759 69.8548 67.6917 70.3594L60.0261 65.9307L61.01 64.7971L68.2288 68.9612Z" fill="white"/>
<path fill-rule="evenodd" clip-rule="evenodd" d="M61.7616 62.0462L61.2048 64.4418C61.1789 64.5583 61.1206 64.6684 61.0429 64.7591L61.0105 64.7979L60.0264 65.931L54.8467 71.92C54.6913 72.1077 54.4518 72.1984 54.2122 72.1725H54.2057L50.6447 71.8228L49.7642 71.7387C49.7124 71.7322 49.6606 71.7192 49.6088 71.7063C49.421 71.6416 49.2591 71.5121 49.175 71.3308V71.3243C49.1491 71.2725 49.1296 71.2207 49.1167 71.1689L47.498 64.0209C47.6211 64.0209 47.7441 64.008 47.8606 63.9886C48.2426 63.9433 48.5987 63.8397 48.9354 63.6907L50.4375 70.3207L53.9791 70.6639L59.8063 63.9303L60.4214 61.2887C60.6739 61.5088 60.9587 61.6966 61.2631 61.8455C61.4249 61.9232 61.5868 61.9879 61.7616 62.0462Z" fill="white"/>
<path fill-rule="evenodd" clip-rule="evenodd" d="M68.2931 30.9678L58.3027 36.7368L57.5454 35.468L67.7558 29.5764C67.8401 30.081 68.0278 30.5536 68.2931 30.9678Z" fill="white"/>
<path fill-rule="evenodd" clip-rule="evenodd" d="M68.0092 46.0539C67.8409 46.028 67.6725 46.015 67.5042 46.015C67.1934 46.015 66.8891 46.0539 66.5977 46.1251H66.5913C65.9762 46.2676 65.4194 46.5654 64.9597 46.9668L63.2439 47.0769C62.972 47.0963 62.7065 46.9539 62.5641 46.7208L56.4197 36.4585L53.668 36.8535C53.7521 36.5492 53.791 36.2319 53.791 35.9017C53.791 35.8564 53.791 35.8111 53.7845 35.7722C53.7845 35.6298 53.7716 35.4873 53.7457 35.3514L56.6916 34.9241C56.9894 34.8852 57.2808 35.0212 57.4297 35.2802L57.5463 35.4679L58.3038 36.7369L63.6 45.5683L67.1869 45.3417C67.5171 45.3223 67.8214 45.523 67.9315 45.8338L68.0092 46.0539Z" fill="white"/>
<path fill-rule="evenodd" clip-rule="evenodd" d="M69.9453 25.3744C69.4857 25.581 69.0841 25.8794 68.7477 26.2419L65.6846 22.234C66.1578 22.0656 66.5914 21.8004 66.9539 21.4635L69.9453 25.3744Z" fill="white"/>
<path fill-rule="evenodd" clip-rule="evenodd" d="M83.1139 41.3792L81.8647 46.3065C81.418 46.1191 80.9323 46.0219 80.421 46.0151L81.7607 40.6992C82.1559 41.0166 82.615 41.25 83.1139 41.3792Z" fill="white"/>
<path fill-rule="evenodd" clip-rule="evenodd" d="M88.1652 18.8284C88.1652 18.8483 88.1652 18.8615 88.1586 18.8748C88.1519 18.8549 88.1519 18.8417 88.1387 18.8218C88.1519 18.8218 88.1586 18.8284 88.1652 18.8284Z" fill="white"/>
<path fill-rule="evenodd" clip-rule="evenodd" d="M73.0198 68.8769L72.936 69.0769C72.9102 69.0511 72.878 69.0317 72.8457 69.0124L73.0198 68.8769Z" fill="white"/>
<path fill-rule="evenodd" clip-rule="evenodd" d="M80.6934 64.8953L74.983 69.2472C74.7566 68.8003 74.4391 68.3984 74.0639 68.0811L79.9873 63.5611C80.136 64.0534 80.376 64.5063 80.6934 64.8953Z" fill="white"/>
<path fill-rule="evenodd" clip-rule="evenodd" d="M81.3085 62.5577V62.5976L81.2686 62.591L81.3085 62.5577Z" fill="white"/>
<path fill-rule="evenodd" clip-rule="evenodd" d="M61.6967 79.696C61.483 80.1427 61.347 80.6413 61.3276 81.1657L53.584 80.9068C53.6682 80.5895 53.7135 80.2593 53.7135 79.9161C53.7135 79.7543 53.7005 79.5924 53.6811 79.4305L61.6967 79.696Z" fill="white"/>
<path fill-rule="evenodd" clip-rule="evenodd" d="M34.3411 77.242C33.9007 77.4816 33.5125 77.7988 33.1949 78.1806L30.5857 74.7878C31.0192 74.5421 31.4079 74.2183 31.7185 73.8365L34.3411 77.242Z" fill="white"/>
<path fill-rule="evenodd" clip-rule="evenodd" d="M11.3373 80.8283C11.318 80.7767 11.3115 80.7251 11.3115 80.6735V80.6671H11.318V80.68C11.318 80.7316 11.3244 80.7832 11.3373 80.8283Z" fill="white"/>
<path fill-rule="evenodd" clip-rule="evenodd" d="M11.9395 79.9419C11.8422 79.9552 11.7519 79.9874 11.6676 80.0455C11.6741 80.0324 11.6803 80.0324 11.687 80.0261L11.9006 79.903C11.9137 79.9157 11.9202 79.9292 11.9395 79.9419Z" fill="white"/>
<path fill-rule="evenodd" clip-rule="evenodd" d="M19.5278 53.7781L18.2463 58.9256C17.812 58.7187 17.3265 58.5891 16.8149 58.5697L18.0965 53.4222C18.5307 53.6291 19.0162 53.7588 19.5278 53.7781Z" fill="white"/>
<path fill-rule="evenodd" clip-rule="evenodd" d="M26.0017 31.6869L20.2078 36.1225C20.0199 35.6564 19.742 35.2356 19.3921 34.8797L25.1477 30.4759C25.3479 30.9358 25.6397 31.3501 26.0017 31.6869Z" fill="white"/>
<path fill-rule="evenodd" clip-rule="evenodd" d="M46.0213 19.7282C46.0213 19.8771 46.0278 20.026 46.0472 20.1685L39.2295 20.0195C39.3266 19.6829 39.3784 19.3203 39.3784 18.9512C39.3784 18.8153 39.3719 18.6793 39.359 18.5498L46.1638 18.6922C46.0667 19.0225 46.0213 19.3721 46.0213 19.7282Z" fill="white"/>
<path fill-rule="evenodd" clip-rule="evenodd" d="M53.765 20.1683C53.7844 20.0259 53.7909 19.877 53.7909 19.7281C53.7909 19.372 53.7456 19.0223 53.6484 18.6921L60.4727 18.5497V18.5821C60.4727 19.0871 60.5698 19.5727 60.7511 20.0194L53.765 20.1683Z" fill="white"/>
<path fill-rule="evenodd" clip-rule="evenodd" d="M88.1652 18.8284C88.1652 18.8483 88.1652 18.8615 88.1586 18.8748C88.1519 18.8549 88.1519 18.8417 88.1387 18.8218C88.1519 18.8218 88.1586 18.8284 88.1652 18.8284Z" fill="white"/>
<path fill-rule="evenodd" clip-rule="evenodd" d="M46.7978 20.2138L46.8561 20.1879H46.7978C46.7913 20.1944 46.7978 20.2074 46.7978 20.2138ZM52.9487 20.1879L53.0134 20.2138C53.0134 20.2074 53.0199 20.1944 53.0199 20.1879H52.9487Z" fill="white"/>
<path fill-rule="evenodd" clip-rule="evenodd" d="M46.7978 20.2138L46.8561 20.1879H46.7978C46.7913 20.1944 46.7978 20.2074 46.7978 20.2138ZM52.9487 20.1879L53.0134 20.2138C53.0134 20.2074 53.0199 20.1944 53.0199 20.1879H52.9487Z" fill="white"/>
<path fill-rule="evenodd" clip-rule="evenodd" d="M53.0141 20.2137L52.9493 20.1878H53.0205C53.0205 20.1943 53.0141 20.2072 53.0141 20.2137ZM52.2954 19.9158C52.2954 20.013 52.2824 20.1036 52.263 20.2007C52.1788 20.6022 51.9975 20.9777 51.7321 21.282C51.4537 21.6187 51.0781 21.8777 50.6444 22.0136C50.4113 22.0913 50.1652 22.1302 49.9062 22.1302C49.6473 22.1302 49.3948 22.0913 49.1617 22.0071C48.7343 21.8712 48.3588 21.6187 48.0739 21.282C47.8149 20.9777 47.6272 20.6022 47.5495 20.2007C47.5236 20.1036 47.5106 20.013 47.5106 19.9158C47.4977 19.8511 47.4977 19.7928 47.4977 19.7281C47.4977 19.372 47.5754 19.0353 47.7178 18.731C47.9898 18.1224 48.5142 17.6497 49.1617 17.4425C49.3948 17.3584 49.6473 17.3195 49.9062 17.3195C50.1652 17.3195 50.4113 17.3584 50.6444 17.4361C51.2918 17.6433 51.8163 18.1224 52.0882 18.731C52.2306 19.0353 52.3083 19.372 52.3083 19.7281C52.3083 19.7928 52.3083 19.8511 52.2954 19.9158ZM46.7984 20.2137C46.7984 20.2072 46.792 20.1943 46.7984 20.1878H46.8567L46.7984 20.2137ZM53.6486 18.6921C53.2601 17.2807 52.0947 16.193 50.6444 15.9145C50.4048 15.8692 50.1588 15.8433 49.9062 15.8433C49.6537 15.8433 49.4012 15.8692 49.1617 15.9145C47.7114 16.1994 46.5524 17.2872 46.1639 18.6921C46.0668 19.0224 46.0215 19.372 46.0215 19.7281C46.0215 19.877 46.028 20.0259 46.0474 20.1684C46.0603 20.2784 46.0733 20.3885 46.0992 20.4986C46.1963 20.9971 46.3905 21.4568 46.6625 21.8647C47.2258 22.7194 48.1193 23.3409 49.1617 23.5416C49.4012 23.5869 49.6537 23.6128 49.9062 23.6128C50.1588 23.6128 50.4048 23.5869 50.6444 23.5416C51.6868 23.3409 52.5867 22.7194 53.15 21.8647C53.422 21.4568 53.6162 20.9971 53.7133 20.505C53.7327 20.395 53.7522 20.2849 53.7651 20.1684C53.7845 20.0259 53.791 19.877 53.791 19.7281C53.791 19.372 53.7457 19.0224 53.6486 18.6921Z" fill="white"/>
<path fill-rule="evenodd" clip-rule="evenodd" d="M81.1658 35.1374C80.8416 35.5198 80.5957 35.96 80.4401 36.4454L74.2704 31.6925C74.6325 31.3559 74.9242 30.9415 75.1249 30.4888L81.1658 35.1374Z" fill="white"/>
<path fill-rule="evenodd" clip-rule="evenodd" d="M83.1469 58.6017C82.6414 58.6661 82.1691 58.8413 81.7481 59.0939L80.4147 53.7908C80.9256 53.791 81.4177 53.6872 81.865 53.4994L83.1469 58.6017Z" fill="white"/>
<path fill-rule="evenodd" clip-rule="evenodd" d="M69.6858 74.4387L66.9799 77.9224C66.514 77.6768 65.9896 77.5276 65.4327 77.5015L68.54 73.4999C68.8574 73.8818 69.246 74.2059 69.6858 74.4387Z" fill="white"/>
<path fill-rule="evenodd" clip-rule="evenodd" d="M11.3951 80.35L11.3174 80.6479C11.3174 80.609 11.3239 80.5766 11.3303 80.5378V80.5119C11.3433 80.4666 11.3562 80.4277 11.3757 80.3824C11.3821 80.3759 11.3821 80.3695 11.3821 80.3695C11.3821 80.363 11.3886 80.3565 11.3951 80.35Z" fill="white"/>
<path fill-rule="evenodd" clip-rule="evenodd" d="M12.8513 81.0618L12.7158 81.1392L12.761 80.9586C12.7868 80.9909 12.819 81.0296 12.8513 81.0618Z" fill="white"/>
<path fill-rule="evenodd" clip-rule="evenodd" d="M40.0521 80.9586C40.0586 80.8615 40.0651 80.7643 40.0651 80.6672C40.0651 80.2529 40.0003 79.8579 39.8838 79.4824L45.9829 79.3853C45.957 79.5601 45.944 79.7349 45.944 79.9162C45.944 80.2399 45.9829 80.5572 46.0606 80.8615L40.0521 80.9586Z" fill="white"/>
<path fill-rule="evenodd" clip-rule="evenodd" d="M26.1376 68.4692C25.7619 68.7924 25.4513 69.1941 25.2312 69.6407L19.404 65.1279C19.7472 64.7712 20.0255 64.3441 20.2068 63.8782L26.1376 68.4692Z" fill="white"/>
<path fill-rule="evenodd" clip-rule="evenodd" d="M19.482 46.028C18.9708 46.0598 18.4913 46.1896 18.058 46.4033L16.7627 41.45C17.2806 41.4307 17.7666 41.3145 18.2066 41.1133L19.482 46.028Z" fill="white"/>
<path fill-rule="evenodd" clip-rule="evenodd" d="M34.2632 22.6353L31.551 26.2616C31.2143 25.8988 30.813 25.5944 30.3532 25.3877L32.9684 21.8974C33.3438 22.2278 33.7843 22.4799 34.2632 22.6353Z" fill="white"/>
<path fill-rule="evenodd" clip-rule="evenodd" d="M50.6438 71.8294V76.1156C50.3784 76.0638 50.1064 76.0314 49.828 76.0314C49.6014 76.0314 49.3748 76.0509 49.1611 76.0897V71.4409C49.1611 71.4021 49.1611 71.3697 49.1741 71.3309C49.2583 71.5122 49.4201 71.6417 49.6079 71.7064L49.6144 71.7323L50.6438 71.8294Z" fill="white"/>
<path fill-rule="evenodd" clip-rule="evenodd" d="M50.6443 71.8228V71.8293L49.6149 71.7321L49.6084 71.7062C49.6602 71.7192 49.712 71.7321 49.7638 71.7386L50.6443 71.8228Z" fill="white"/>
<path fill-rule="evenodd" clip-rule="evenodd" d="M37.6622 19.9871C37.2737 20.7965 36.4514 21.3533 35.4932 21.3533C35.409 21.3533 35.3183 21.3468 35.2342 21.3403C34.7097 21.2821 34.2306 21.0554 33.8616 20.7058C33.6155 20.4857 33.4148 20.2073 33.2853 19.89H33.2788C33.1558 19.5987 33.0911 19.2814 33.0911 18.9512C33.0911 18.7699 33.1105 18.5886 33.1494 18.4138C33.2076 18.1548 33.3112 17.9153 33.4472 17.6951C33.7062 17.2613 34.1076 16.9182 34.5802 16.7239C34.8586 16.6074 35.1694 16.5426 35.4932 16.5426C35.9399 16.5426 36.3672 16.6657 36.7233 16.8858C37.1636 17.1448 37.5197 17.5462 37.7204 18.0253C37.7787 18.1807 37.8305 18.3491 37.8564 18.5174C37.8888 18.6598 37.9017 18.8023 37.9017 18.9512C37.9017 19.3203 37.8175 19.6764 37.6622 19.9871ZM39.3585 18.5498C39.2873 17.8764 39.0477 17.2613 38.6787 16.7369C38.4003 16.3225 38.0312 15.9664 37.6104 15.6945C37.0017 15.293 36.2766 15.0664 35.4932 15.0664C34.8781 15.0664 34.2954 15.2089 33.7774 15.4679C33.3242 15.688 32.9227 15.9923 32.599 16.3678C32.1005 16.9182 31.7638 17.611 31.6537 18.3814C31.6213 18.5692 31.6084 18.757 31.6084 18.9512C31.6084 19.262 31.6472 19.5663 31.7185 19.8576C31.9062 20.667 32.3595 21.3792 32.9681 21.8971C33.3436 22.2273 33.7839 22.4799 34.263 22.6352C34.6515 22.7647 35.0658 22.836 35.4932 22.836C37.2737 22.836 38.7693 21.6446 39.229 20.0195C39.3261 19.6828 39.3779 19.3203 39.3779 18.9512C39.3779 18.8152 39.3714 18.6793 39.3585 18.5498Z" fill="white"/>
<path fill-rule="evenodd" clip-rule="evenodd" d="M19.9031 52.2567L19.9231 52.3032H19.8965L19.9031 52.2567Z" fill="white"/>
<path fill-rule="evenodd" clip-rule="evenodd" d="M19.9226 47.5042L19.8898 47.5829L19.8701 47.5042H19.9226Z" fill="white"/>
<path fill-rule="evenodd" clip-rule="evenodd" d="M21.9938 50.7479C21.8513 51.1364 21.6053 51.4796 21.2945 51.7386C20.919 52.0558 20.4398 52.263 19.9219 52.3019H19.896C19.8442 52.3083 19.7989 52.3083 19.7471 52.3083C19.2809 52.3083 18.8341 52.1724 18.4651 51.9328C18.0183 51.6544 17.6687 51.2335 17.4874 50.7285C17.3903 50.4695 17.3385 50.1911 17.3385 49.8998C17.3385 49.6732 17.3709 49.4595 17.4292 49.2523C17.591 48.6826 17.9536 48.197 18.4392 47.8797C18.8147 47.6401 19.2679 47.4977 19.7471 47.4977C19.7859 47.4977 19.8312 47.4977 19.8701 47.5042H19.9219C20.4398 47.543 20.919 47.7437 21.2945 48.061C21.6635 48.3718 21.942 48.7926 22.065 49.2782C22.1232 49.4789 22.1491 49.6861 22.1491 49.8998C22.1491 50.1976 22.0973 50.4825 21.9938 50.7479ZM23.58 49.2847C23.4052 48.184 22.7707 47.2387 21.8772 46.656C21.4693 46.3841 21.0096 46.1898 20.5111 46.0862C20.265 46.0409 20.0061 46.015 19.7471 46.015C19.6564 46.015 19.5658 46.015 19.4816 46.028C18.9701 46.0603 18.491 46.1898 18.0572 46.4035C16.95 46.9409 16.1342 47.9898 15.9206 49.2394C15.8817 49.453 15.8623 49.6732 15.8623 49.8998C15.8623 50.1847 15.8947 50.4566 15.9465 50.7221H15.9529C16.2055 51.9199 17.0148 52.9169 18.096 53.422C18.5298 53.6291 19.0154 53.7586 19.5269 53.7781C19.5982 53.791 19.6694 53.791 19.7471 53.791C20.0061 53.791 20.265 53.7651 20.5111 53.7133C21.0096 53.6162 21.4693 53.422 21.8772 53.15C22.6995 52.6126 23.3081 51.758 23.5347 50.7609C23.5995 50.4825 23.6318 50.1976 23.6318 49.8998C23.6318 49.6861 23.6124 49.4854 23.58 49.2847Z" fill="white"/>
<path fill-rule="evenodd" clip-rule="evenodd" d="M31.2911 73.163C31.2847 73.1823 31.2718 73.2017 31.2524 73.221L31.1621 73.1114L31.2911 73.163Z" fill="white"/>
<path fill-rule="evenodd" clip-rule="evenodd" d="M31.1621 73.1113L31.2524 73.2209C31.2718 73.2016 31.2847 73.1822 31.2911 73.1629L31.1621 73.1113Z" fill="white"/>
<path fill-rule="evenodd" clip-rule="evenodd" d="M31.2528 73.2213L31.1621 73.1112L31.2916 73.163C31.2851 73.1824 31.2722 73.2018 31.2528 73.2213ZM31.0974 71.4861C31.0844 71.894 30.9679 72.2695 30.7737 72.5997C30.7219 72.6968 30.6571 72.7875 30.5859 72.8716C30.3463 73.1824 30.0291 73.4349 29.6665 73.5968C29.3687 73.7263 29.0385 73.7975 28.6953 73.7975C27.9961 73.7975 27.3615 73.4932 26.9277 73.0141C26.5911 72.6515 26.3709 72.1853 26.3127 71.6674C26.2997 71.5767 26.2932 71.4861 26.2932 71.3889C26.2932 71.0976 26.345 70.8257 26.4357 70.5731C26.5716 70.1976 26.7982 69.8609 27.0961 69.6084C27.1738 69.5307 27.2579 69.466 27.3421 69.4077C27.6594 69.1876 28.0414 69.0451 28.4428 68.9998C28.527 68.9933 28.6111 68.9869 28.6953 68.9869C29.2392 68.9869 29.7442 69.1682 30.1456 69.4725C30.547 69.7768 30.8514 70.1976 31.0003 70.6897C31.065 70.9098 31.1039 71.1429 31.1039 71.3889C31.1039 71.4213 31.1039 71.4537 31.0974 71.4861ZM32.3081 69.9451H32.3017C32.1204 69.4789 31.842 69.0581 31.4988 68.702C30.7931 67.9639 29.796 67.5042 28.6953 67.5042C28.4104 67.5042 28.1255 67.5366 27.8601 67.5948C27.368 67.6984 26.9083 67.8991 26.5069 68.184C26.3774 68.2682 26.2544 68.3653 26.1378 68.4689C25.7623 68.7926 25.4515 69.1941 25.2314 69.6408C24.9595 70.1652 24.8105 70.7609 24.8105 71.3889C24.8105 71.7515 24.8623 72.1076 24.9595 72.4378C25.089 72.9234 25.3156 73.3766 25.6263 73.7651C26.3321 74.6845 27.4457 75.2737 28.6953 75.2737C29.3816 75.2737 30.0291 75.0989 30.5859 74.7881C31.0197 74.5421 31.4082 74.2183 31.7189 73.8363C31.8161 73.7198 31.9067 73.5903 31.9909 73.4543C32.2499 73.0464 32.4376 72.5803 32.5218 72.0753C32.5671 71.8551 32.5865 71.622 32.5865 71.3889C32.5865 70.8774 32.4894 70.3919 32.3081 69.9451Z" fill="white"/>
<path fill-rule="evenodd" clip-rule="evenodd" d="M52.2367 79.9162C52.2367 80.2464 52.1719 80.5637 52.0489 80.855C51.7835 81.4701 51.2784 81.9557 50.6439 82.1823C50.3914 82.273 50.113 82.3247 49.8281 82.3247C49.595 82.3247 49.3749 82.2924 49.1612 82.2276C48.4555 82.0269 47.8857 81.5025 47.6073 80.8356C47.4908 80.5507 47.426 80.2399 47.426 79.9162C47.426 79.8968 47.426 79.8709 47.4325 79.8514C47.4325 79.6831 47.4519 79.5212 47.4908 79.3594C47.5685 79.0227 47.7174 78.7184 47.9246 78.4529C48.2289 78.0515 48.6627 77.7472 49.1612 77.6048C49.3749 77.54 49.595 77.5076 49.8281 77.5076C50.113 77.5076 50.3914 77.5594 50.6439 77.6501C51.1036 77.8184 51.4986 78.1163 51.7705 78.5047C51.9647 78.7637 52.1007 79.0615 52.1719 79.3788C52.2172 79.5471 52.2367 79.7284 52.2367 79.9097V79.9162ZM53.6805 79.4306C53.6805 79.3918 53.674 79.3594 53.6611 79.3205V79.3141C53.5899 78.8155 53.4151 78.3429 53.1625 77.9285C52.6251 77.0156 51.7187 76.3487 50.6439 76.1156C50.3785 76.0638 50.1065 76.0314 49.8281 76.0314C49.6015 76.0314 49.3749 76.0509 49.1612 76.0897C48.0476 76.2839 47.0958 76.9508 46.5261 77.8767C46.2671 78.2911 46.0858 78.7572 46.0016 79.2558C45.9952 79.2946 45.9822 79.34 45.9822 79.3853C45.9563 79.5601 45.9434 79.7349 45.9434 79.9162C45.9434 80.2399 45.9822 80.5572 46.0599 80.8615C46.429 82.3377 47.6462 83.4772 49.1612 83.7427C49.3749 83.7815 49.6015 83.801 49.8281 83.801C50.1065 83.801 50.3785 83.7686 50.6439 83.7168C52.0813 83.406 53.2143 82.3118 53.5834 80.9068C53.6676 80.5896 53.7129 80.2593 53.7129 79.9162C53.7129 79.7543 53.6999 79.5925 53.6805 79.4306Z" fill="white"/>
<path fill-rule="evenodd" clip-rule="evenodd" d="M69.123 71.1882L69.252 71.2591L69.1359 71.3107C69.1295 71.272 69.123 71.2333 69.123 71.1882Z" fill="white"/>
<path fill-rule="evenodd" clip-rule="evenodd" d="M73.0198 68.8769L72.936 69.0769C72.9102 69.0511 72.878 69.0317 72.8457 69.0124L73.0198 68.8769Z" fill="white"/>
<path fill-rule="evenodd" clip-rule="evenodd" d="M72.8457 69.0123C72.878 69.0317 72.9102 69.051 72.936 69.0768L73.0198 68.8769L72.8457 69.0123Z" fill="white"/>
<path fill-rule="evenodd" clip-rule="evenodd" d="M73.6681 72.1012C73.4286 72.5674 73.0466 72.9494 72.5739 73.176C72.2567 73.3314 71.9006 73.422 71.5186 73.422C71.2013 73.422 70.897 73.3573 70.6186 73.2472C70.2884 73.1113 69.997 72.9105 69.7639 72.6516C69.6539 72.5415 69.5632 72.4185 69.4855 72.289C69.2978 71.9976 69.1812 71.6674 69.1359 71.3113C69.1294 71.2725 69.1229 71.2336 69.1229 71.1883C69.1165 71.13 69.1165 71.0718 69.1165 71.0135C69.1165 70.5214 69.2589 70.0747 69.5114 69.6991C69.9387 69.0452 70.6769 68.6114 71.5186 68.6114H71.5315C72.0171 68.6114 72.4703 68.7603 72.8458 69.0128L73.0207 68.8769L72.9365 69.0776C73.3185 69.3495 73.6098 69.725 73.7717 70.1718C73.8753 70.4308 73.9271 70.7157 73.9271 71.0135C73.9271 71.4084 73.83 71.7775 73.6681 72.1012ZM74.9825 69.2459C74.7559 68.7992 74.4386 68.3977 74.0631 68.0805C73.8947 67.9251 73.707 67.7956 73.5127 67.6855C73.0919 67.4266 72.6257 67.2517 72.1207 67.1805C71.9264 67.1417 71.7257 67.1287 71.5186 67.1287C70.133 67.1287 68.9093 67.8604 68.2295 68.961C67.9575 69.3819 67.7762 69.8545 67.6921 70.3595C67.6532 70.5732 67.6338 70.7933 67.6338 71.0135C67.6338 71.3113 67.6662 71.6027 67.7374 71.8876C67.8475 72.3796 68.0546 72.8393 68.3395 73.2407C68.4043 73.3314 68.469 73.4156 68.5402 73.4997C68.8575 73.8817 69.246 74.2055 69.6862 74.4385C70.2301 74.7299 70.8517 74.8982 71.5186 74.8982C72.4638 74.8982 73.325 74.5616 73.9983 74.0048H74.0048C74.3933 73.681 74.717 73.2861 74.9501 72.8393C75.2479 72.2955 75.4098 71.6739 75.4098 71.0135C75.4098 70.379 75.2544 69.7768 74.9825 69.2459Z" fill="white"/>
<path fill-rule="evenodd" clip-rule="evenodd" d="M73.8951 29.5373C73.7591 30.0358 73.4677 30.4696 73.0793 30.7739C73.0469 30.7998 73.021 30.8257 72.9886 30.8451C72.5937 31.1365 72.1081 31.3048 71.5771 31.3048C70.7419 31.3048 70.0103 30.8775 69.583 30.23C69.324 29.848 69.1751 29.3883 69.1751 28.8963C69.1751 28.8509 69.1751 28.7991 69.1815 28.7538C69.1815 28.6761 69.1945 28.5984 69.2074 28.5207C69.2657 28.1258 69.4276 27.7567 69.6671 27.446C69.7254 27.3618 69.7966 27.2776 69.8743 27.1999C70.1463 26.9215 70.4894 26.7143 70.8714 26.5978C71.0915 26.5266 71.3311 26.4877 71.5771 26.4877C71.9656 26.4877 72.3347 26.5784 72.6584 26.7467C73.1246 26.9798 73.5066 27.3618 73.7332 27.8344C73.8951 28.1517 73.9857 28.5143 73.9857 28.8963C73.9857 29.1164 73.9533 29.3365 73.8951 29.5373ZM75.0216 27.0899C74.7885 26.6431 74.4713 26.2482 74.0828 25.9244C73.4095 25.3547 72.5354 25.0115 71.5771 25.0115C70.9944 25.0115 70.4376 25.141 69.9455 25.3741C69.4858 25.5813 69.0844 25.8791 68.7477 26.2417C68.6377 26.3517 68.5341 26.4748 68.4434 26.6043C68.1521 26.9992 67.9319 27.4524 67.8154 27.9445C67.7312 28.2488 67.6924 28.5661 67.6924 28.8963C67.6924 29.1294 67.7118 29.356 67.7571 29.5761C67.8413 30.0811 68.0291 30.5538 68.2945 30.9681C68.9808 32.0559 70.1981 32.781 71.5771 32.781C71.7779 32.781 71.9721 32.7681 72.1663 32.7292C72.6714 32.658 73.144 32.4897 73.5648 32.2307C73.8238 32.0818 74.0569 31.9005 74.2706 31.6933C74.6332 31.3566 74.9245 30.9422 75.1252 30.489C75.3454 30.0034 75.4684 29.466 75.4684 28.8963C75.4684 28.2423 75.3065 27.6272 75.0216 27.0899Z" fill="white"/>
<path fill-rule="evenodd" clip-rule="evenodd" d="M86.1448 38.9706C85.8599 39.4044 85.4326 39.7346 84.9341 39.9094C84.688 40.0001 84.4226 40.0454 84.1442 40.0454C83.9111 40.0454 83.6909 40.013 83.4773 39.9483C82.9464 39.7994 82.4931 39.4691 82.1824 39.0289C81.904 38.6339 81.7356 38.1548 81.7356 37.6368C81.7356 37.5721 81.7356 37.5138 81.7486 37.4491C81.7874 36.9117 82.0075 36.4261 82.3442 36.0441C82.5514 35.811 82.8039 35.6168 83.0823 35.4873V35.4808C83.3996 35.3254 83.7622 35.2348 84.1442 35.2348C84.319 35.2348 84.4873 35.2542 84.6492 35.2866C85.1542 35.3966 85.601 35.6621 85.9312 36.0376C86.2678 36.4067 86.4815 36.8793 86.5333 37.3973C86.5398 37.475 86.5462 37.5591 86.5462 37.6368C86.5462 38.1289 86.3973 38.5886 86.1448 38.9706ZM87.9642 36.9505C87.88 36.452 87.6922 35.9858 87.4268 35.5714C86.8959 34.7168 86.0283 34.0823 85.0118 33.8492C84.7334 33.7844 84.442 33.7521 84.1442 33.7521C83.924 33.7521 83.7104 33.7715 83.5032 33.8103C82.5644 33.9593 81.7486 34.4449 81.1658 35.1376C80.8421 35.5196 80.5961 35.9599 80.4407 36.4455C80.3177 36.821 80.2529 37.2225 80.2529 37.6368C80.2529 38.8864 80.8421 40.0001 81.7615 40.6993C82.1565 41.0166 82.6162 41.2497 83.1147 41.3792C83.4449 41.4763 83.7881 41.5216 84.1442 41.5216C84.9146 41.5216 85.6333 41.3015 86.2355 40.9065C86.6563 40.6411 87.0254 40.2914 87.3167 39.877C87.7699 39.2425 88.0289 38.4721 88.0289 37.6368C88.0289 37.4038 88.0095 37.1707 87.9642 36.9505Z" fill="white"/>
<path fill-rule="evenodd" clip-rule="evenodd" d="M81.2686 62.591L81.3085 62.5976V62.5577L81.2686 62.591Z" fill="white"/>
<path fill-rule="evenodd" clip-rule="evenodd" d="M81.2686 62.591L81.3085 62.5976V62.5577L81.2686 62.591Z" fill="white"/>
<path fill-rule="evenodd" clip-rule="evenodd" d="M85.9048 63.4252C85.6588 63.9691 85.2121 64.4094 84.6682 64.6554C84.3768 64.7784 84.0531 64.8496 83.71 64.8496C83.5287 64.8496 83.3474 64.8302 83.179 64.7849C82.6546 64.6748 82.2014 64.3835 81.8712 63.9885C81.541 63.6065 81.3403 63.1274 81.3079 62.5965L81.269 62.59L81.3079 62.5576C81.3014 62.5188 81.3014 62.4799 81.3014 62.4411C81.3014 61.9685 81.4374 61.5282 81.6769 61.1591C81.7999 60.9584 81.9553 60.7771 82.1302 60.6282C82.5057 60.3045 82.9848 60.0908 83.5092 60.052C83.574 60.039 83.6387 60.039 83.71 60.039C83.9689 60.039 84.2215 60.0779 84.4481 60.162C84.9596 60.3174 85.3934 60.6476 85.6847 61.0814C85.866 61.3339 85.9955 61.6318 86.0602 61.949C86.0926 62.1044 86.112 62.2728 86.112 62.4411C86.112 62.7907 86.0343 63.1274 85.9048 63.4252ZM87.5818 62.221C87.5429 61.4634 87.2839 60.7642 86.8631 60.1815C86.5717 59.7671 86.2027 59.4175 85.7689 59.152C85.1732 58.7765 84.4675 58.5563 83.71 58.5563C83.5157 58.5563 83.328 58.5693 83.1467 58.6017C82.6416 58.6664 82.169 58.8412 81.7482 59.0937C81.0424 59.4952 80.4856 60.1232 80.1554 60.8807C79.9547 61.3275 79.8381 61.8131 79.8317 62.331C79.8252 62.3699 79.8252 62.4022 79.8252 62.4411C79.8252 62.8296 79.8835 63.2051 79.9871 63.5612C80.136 64.0533 80.3755 64.5065 80.6928 64.895C81.3791 65.7367 82.4021 66.287 83.561 66.3259C83.6064 66.3323 83.6582 66.3323 83.71 66.3323C84.1761 66.3323 84.6164 66.2482 85.0308 66.0992C86.1379 65.6978 87.012 64.8108 87.3875 63.6907C87.5235 63.2957 87.5947 62.8814 87.5947 62.4411C87.5947 62.3699 87.5947 62.2922 87.5818 62.221Z" fill="white"/>
<path fill-rule="evenodd" clip-rule="evenodd" d="M67.6078 81.3794C67.6078 82.0074 67.3617 82.5772 66.9668 83.0045C66.6236 83.3736 66.1704 83.639 65.6589 83.7362C65.51 83.7685 65.3546 83.7815 65.1992 83.7815C64.3834 83.7815 63.6583 83.3736 63.2245 82.7455C62.9525 82.3571 62.7971 81.8844 62.7971 81.3729C62.7971 81.3211 62.7971 81.2693 62.8036 81.2175C62.8101 81.0751 62.8295 80.9326 62.8684 80.8032C62.959 80.4017 63.1597 80.0456 63.4316 79.7543C63.6065 79.5536 63.8266 79.3852 64.0662 79.2557C64.4028 79.0744 64.7913 78.9708 65.1992 78.9708C65.497 78.9708 65.7755 79.0226 66.0409 79.1262C66.4553 79.2751 66.8179 79.5406 67.0833 79.8838C67.4135 80.2917 67.6078 80.8096 67.6078 81.3729V81.3794ZM68.8056 79.9356C68.4559 79.0615 67.8085 78.3493 66.9797 77.922C66.5136 77.6759 65.9891 77.527 65.4323 77.5011C65.3546 77.4882 65.2769 77.4882 65.1992 77.4882C63.6583 77.4882 62.3245 78.3881 61.6965 79.696C61.4828 80.1427 61.3468 80.6413 61.3274 81.1657C61.3145 81.2305 61.3145 81.3017 61.3145 81.3729C61.3145 81.7873 61.3792 82.1822 61.5022 82.5578C61.6641 83.0757 61.936 83.5484 62.2921 83.9498C63.0043 84.7527 64.0403 85.2577 65.1992 85.2577C65.7042 85.2577 66.1898 85.1606 66.6301 84.9857C67.1027 84.798 67.5301 84.5261 67.8862 84.1829C68.6113 83.4836 69.0646 82.5125 69.084 81.4312V81.3729C69.084 80.8679 68.9869 80.3823 68.8056 79.9356Z" fill="white"/>
<path fill-rule="evenodd" clip-rule="evenodd" d="M48.5915 62.1952C48.2742 62.3894 47.9117 62.5124 47.5232 62.5383C47.4649 62.5448 47.4131 62.5448 47.3548 62.5448C47.2901 62.5448 47.2254 62.5448 47.1606 62.5319C46.7268 62.4995 46.3254 62.3506 45.9887 62.1175C45.5743 61.8261 45.2571 61.4118 45.0952 60.9262C45.0046 60.6801 44.9592 60.4211 44.9592 60.1492C44.9592 59.3399 45.3607 58.6277 45.9758 58.1874C46.0664 58.1227 46.17 58.0644 46.2736 58.0126C46.5973 57.8443 46.9664 57.7536 47.3548 57.7536H47.3872C48.6951 57.773 49.744 58.8413 49.744 60.1492C49.744 61.0168 49.2843 61.7743 48.5915 62.1952ZM47.3548 56.2774C47.2124 56.2774 47.07 56.2839 46.934 56.3033C46.539 56.3422 46.17 56.4393 45.8268 56.5882C45.7232 56.6335 45.6197 56.6853 45.5225 56.7371C44.3053 57.391 43.4766 58.673 43.4766 60.1492C43.4766 60.6866 43.5866 61.2046 43.7873 61.6707C43.9881 62.1369 44.2729 62.5513 44.6226 62.9009C45.3283 63.6002 46.2865 64.0275 47.3548 64.0275C47.4002 64.0275 47.452 64.0275 47.4973 64.021C47.6203 64.021 47.7433 64.0081 47.8599 63.9887C48.2419 63.9433 48.598 63.8397 48.9347 63.6908V63.6843C50.2878 63.0822 51.2267 61.7225 51.2267 60.1492C51.2267 58.0126 49.4915 56.2774 47.3548 56.2774Z" fill="white"/>
<path fill-rule="evenodd" clip-rule="evenodd" d="M40.0775 50.3142C40.0321 50.5278 39.9609 50.7286 39.8638 50.9163C39.4624 51.6933 38.653 52.2242 37.7207 52.2242C36.756 52.2242 35.9208 51.648 35.5452 50.8257H35.5388C35.4028 50.5343 35.3251 50.2171 35.3186 49.8739V49.8156C35.3186 49.712 35.3251 49.6085 35.338 49.5049C35.3445 49.4466 35.351 49.3948 35.3639 49.343C35.4352 48.9934 35.5776 48.6761 35.7783 48.4042C36.2186 47.802 36.9243 47.4136 37.7207 47.4136C38.9314 47.4136 39.9221 48.2941 40.0969 49.4466C40.1163 49.5631 40.1293 49.6926 40.1293 49.8156C40.1293 49.984 40.1098 50.1523 40.0775 50.3142ZM41.599 49.5049C41.4371 47.5042 39.7667 45.9309 37.7207 45.9309C36.4064 45.9309 35.2474 46.5848 34.5417 47.5884C34.3151 47.9056 34.1402 48.2553 34.0237 48.6308C33.9849 48.7344 33.959 48.8444 33.9331 48.9545C33.9007 49.0775 33.8813 49.207 33.8683 49.3365C33.8489 49.4919 33.8359 49.6538 33.8359 49.8156C33.8359 50.1588 33.8813 50.4955 33.9719 50.8127C34.4057 52.4767 35.9208 53.7004 37.7207 53.7004C39.4688 53.7004 40.9451 52.5544 41.4371 50.9746C41.4954 50.7804 41.5407 50.5796 41.5666 50.3725C41.599 50.1912 41.6119 50.0034 41.6119 49.8156C41.6119 49.712 41.6055 49.6085 41.599 49.5049Z" fill="white"/>
<path fill-rule="evenodd" clip-rule="evenodd" d="M52.3018 35.986C52.2954 36.3874 52.1788 36.7694 51.9846 37.0997C51.5767 37.8248 50.7997 38.3104 49.9062 38.3104C49.2458 38.3104 48.6437 38.0385 48.2099 37.6111C47.7955 37.1968 47.5236 36.6335 47.5042 36.0054C47.4977 35.9731 47.4977 35.9342 47.4977 35.9019C47.4977 35.5975 47.556 35.3062 47.6596 35.0343C47.9185 34.3609 48.4689 33.8365 49.1617 33.6163C49.3948 33.5321 49.6473 33.4933 49.9062 33.4933C50.1652 33.4933 50.4113 33.5321 50.6444 33.6098C51.5055 33.8882 52.1529 34.6458 52.2824 35.5652C52.3018 35.6752 52.3083 35.7853 52.3083 35.9019C52.3083 35.9277 52.3083 35.9601 52.3018 35.986ZM53.7845 35.7724C53.7845 35.6299 53.7716 35.4875 53.7457 35.3515C53.5191 33.7134 52.2565 32.3991 50.6444 32.0883C50.4048 32.043 50.1588 32.0171 49.9062 32.0171C49.6537 32.0171 49.4012 32.043 49.1617 32.0883C48.0869 32.2955 47.1675 32.9494 46.6107 33.8494C46.4618 34.076 46.3452 34.322 46.2546 34.581C46.151 34.8594 46.0798 35.1443 46.0474 35.4486C46.028 35.5975 46.0215 35.7465 46.0215 35.9019C46.0215 38.0449 47.7632 39.7866 49.9062 39.7866C51.7191 39.7866 53.2471 38.537 53.668 36.8536C53.7522 36.5493 53.791 36.2321 53.791 35.9019C53.791 35.8565 53.791 35.8112 53.7845 35.7724Z" fill="white"/>
<path fill-rule="evenodd" clip-rule="evenodd" d="M64.9791 59.6505C64.5517 60.3173 63.8072 60.7576 62.959 60.7576C62.6547 60.7576 62.3633 60.6993 62.0979 60.5957C61.923 60.531 61.7612 60.4468 61.6123 60.3432C61.2885 60.1231 61.0231 59.8317 60.8353 59.4821C60.654 59.1454 60.5504 58.7634 60.5504 58.3491C60.5504 57.5462 60.9454 56.834 61.5475 56.4002C61.8583 56.1736 62.2273 56.0182 62.6223 55.9664C62.7324 55.947 62.8424 55.9405 62.959 55.9405C63.0302 55.9405 63.1014 55.9405 63.1726 55.9535C64.3575 56.057 65.2898 57.0218 65.3546 58.2131C65.3611 58.2584 65.3611 58.3037 65.3611 58.3491C65.3611 58.8282 65.2251 59.2749 64.9791 59.6505ZM64.0079 54.6132C63.846 54.5614 63.6841 54.529 63.5158 54.5096C63.3345 54.4772 63.1467 54.4643 62.959 54.4643C62.7259 54.4643 62.4993 54.4837 62.2856 54.5226V54.529C60.4598 54.8398 59.0742 56.439 59.0742 58.3491C59.0742 59.521 59.5987 60.5763 60.4209 61.2821V61.2885C60.6734 61.5087 60.9583 61.6964 61.2626 61.8453C61.4245 61.923 61.5864 61.9878 61.7612 62.0461C62.1367 62.1691 62.5381 62.2338 62.959 62.2338C64.5388 62.2338 65.8984 61.2885 66.5071 59.9289C66.7078 59.4886 66.8243 58.9965 66.8373 58.485C66.8437 58.4397 66.8437 58.3944 66.8437 58.3491C66.8437 56.5685 65.6395 55.0664 64.0079 54.6132Z" fill="white"/>
<path fill-rule="evenodd" clip-rule="evenodd" d="M69.7894 50.6379C69.4787 51.6091 68.5722 52.3084 67.5039 52.3084C66.9082 52.3084 66.3514 52.0883 65.9306 51.7192C65.814 51.6156 65.6975 51.4991 65.6004 51.376C65.3543 51.0588 65.186 50.6703 65.1277 50.2559C65.1018 50.1394 65.0953 50.0229 65.0953 49.8998C65.0953 48.7733 65.8723 47.8344 66.9147 47.5755V47.569C67.1025 47.5237 67.3032 47.4978 67.5039 47.4978C67.6917 47.4978 67.873 47.5172 68.0478 47.5625C68.2032 47.5949 68.3586 47.6467 68.501 47.7179C69.1096 47.9963 69.5822 48.5143 69.7894 49.1617C69.8671 49.3948 69.906 49.6409 69.906 49.8998C69.906 50.1588 69.8671 50.4049 69.7894 50.6379ZM71.3174 49.1617C71.0067 47.5301 69.6664 46.2611 68.0089 46.0539C67.8406 46.028 67.6722 46.0151 67.5039 46.0151C67.1931 46.0151 66.8888 46.0539 66.5975 46.1251H66.591C65.9759 46.2676 65.4191 46.5654 64.9594 46.9668C64.1371 47.679 63.6191 48.7279 63.6191 49.8998C63.6191 50.5861 63.794 51.2271 64.1047 51.7839V51.7904C64.286 52.1077 64.4997 52.3926 64.7587 52.6451V52.6515C64.8687 52.7616 64.9853 52.8652 65.1083 52.9623C65.7687 53.4803 66.5975 53.7911 67.5039 53.7911C69.3945 53.7911 70.9743 52.4379 71.3174 50.6379C71.3628 50.3984 71.3887 50.1523 71.3887 49.8998C71.3887 49.6473 71.3628 49.4013 71.3174 49.1617Z" fill="white"/>
<path fill-rule="evenodd" clip-rule="evenodd" d="M52.3087 19.7282C52.3087 19.7929 52.3087 19.8512 52.2957 19.9159C52.2957 20.013 52.2828 20.1037 52.2634 20.2008C52.1792 20.6022 51.9979 20.9778 51.7324 21.2821C51.454 21.6187 51.0785 21.8777 50.6447 22.0137C50.4116 22.0914 50.1656 22.1302 49.9066 22.1302C49.6476 22.1302 49.3951 22.0914 49.162 22.0072C48.7347 21.8713 48.3592 21.6187 48.0743 21.2821C47.8153 20.9778 47.6275 20.6022 47.5498 20.2008C47.5239 20.1037 47.511 20.013 47.511 19.9159C47.498 19.8512 47.498 19.7929 47.498 19.7282C47.498 19.3721 47.5757 19.0354 47.7182 18.7311C47.9901 18.1225 48.5146 17.6498 49.162 17.4426C49.3951 17.3585 49.6476 17.3196 49.9066 17.3196C50.1656 17.3196 50.4116 17.3585 50.6447 17.4362C51.2922 17.6433 51.8166 18.1225 52.0885 18.7311C52.231 19.0354 52.3087 19.3721 52.3087 19.7282Z" fill="#F2B706"/>
<path fill-rule="evenodd" clip-rule="evenodd" d="M37.9024 18.9513C37.9024 19.3203 37.8183 19.6764 37.6629 19.9872C37.2744 20.7965 36.4521 21.3534 35.4939 21.3534C35.4097 21.3534 35.3191 21.3469 35.2349 21.3404C34.7104 21.2821 34.2313 21.0555 33.8623 20.7059C33.6162 20.4858 33.4155 20.2073 33.286 19.8901H33.2796C33.1565 19.5987 33.0918 19.2815 33.0918 18.9513C33.0918 18.77 33.1112 18.5887 33.1501 18.4139C33.2083 18.1549 33.3119 17.9153 33.4479 17.6952C33.7069 17.2614 34.1083 16.9183 34.581 16.724C34.8594 16.6075 35.1701 16.5427 35.4939 16.5427C35.9406 16.5427 36.3679 16.6657 36.724 16.8859C37.1643 17.1449 37.5204 17.5463 37.7211 18.0254C37.7794 18.1808 37.8312 18.3491 37.8571 18.5175C37.8895 18.6599 37.9024 18.8024 37.9024 18.9513Z" fill="#F2B706"/>
<path fill-rule="evenodd" clip-rule="evenodd" d="M18.9573 62.9137C18.8602 63.4252 18.5948 63.8784 18.2257 64.2151C17.8372 64.5712 17.3322 64.8043 16.7754 64.8431C16.7171 64.8496 16.6589 64.8496 16.6006 64.8496C16.1409 64.8496 15.7071 64.7201 15.338 64.487C14.9431 64.2475 14.6258 63.8914 14.4251 63.4705C14.2762 63.1597 14.192 62.8101 14.192 62.4411C14.192 62.2922 14.205 62.1432 14.2374 62.0008C14.2762 61.7548 14.3604 61.5217 14.4769 61.308C14.7165 60.8613 15.0985 60.4987 15.5582 60.2785C15.8301 60.1491 16.1279 60.0649 16.4452 60.0455C16.497 60.039 16.5488 60.039 16.6006 60.039C17.0668 60.039 17.507 60.175 17.8761 60.408C18.5559 60.8289 19.0091 61.5799 19.0091 62.4411C19.0091 62.6029 18.9962 62.7583 18.9573 62.9137ZM18.2451 58.9254C17.8113 58.7182 17.3257 58.5887 16.8142 58.5693C16.743 58.5563 16.6718 58.5563 16.6006 58.5563C15.7395 58.5563 14.9496 58.8347 14.3086 59.3074C13.9071 59.5987 13.564 59.9742 13.305 60.4016C12.936 60.9778 12.7288 61.6512 12.7158 62.3763V62.4411C12.7158 62.9331 12.8065 63.3993 12.9748 63.8331C13.3374 64.7784 14.0561 65.5489 14.969 65.9762C15.4093 66.1769 15.8949 66.2999 16.4063 66.3258C16.4711 66.3323 16.5358 66.3323 16.6006 66.3323C17.7013 66.3323 18.6984 65.8726 19.4041 65.128C19.7472 64.7719 20.0256 64.3446 20.2069 63.8784C20.3882 63.4317 20.4853 62.9461 20.4853 62.4411C20.4853 60.8872 19.5659 59.5404 18.2451 58.9254Z" fill="#F2B706"/>
<path fill-rule="evenodd" clip-rule="evenodd" d="M19.0095 62.441C19.0095 62.6029 18.9965 62.7583 18.9577 62.9137C18.8606 63.4252 18.5951 63.8784 18.2261 64.2151C17.8376 64.5712 17.3326 64.8043 16.7757 64.8431C16.7175 64.8496 16.6592 64.8496 16.6009 64.8496C16.1412 64.8496 15.7074 64.7201 15.3384 64.487C14.9434 64.2475 14.6262 63.8914 14.4255 63.4705C14.2766 63.1597 14.1924 62.8101 14.1924 62.441C14.1924 62.2921 14.2053 62.1432 14.2377 62.0008C14.2766 61.7547 14.3607 61.5217 14.4773 61.308C14.7168 60.8612 15.0988 60.4987 15.5585 60.2785C15.8305 60.149 16.1283 60.0649 16.4455 60.0454C16.4973 60.039 16.5491 60.039 16.6009 60.039C17.0671 60.039 17.5074 60.1749 17.8764 60.408C18.5563 60.8289 19.0095 61.5799 19.0095 62.441Z" fill="#F2B706"/>
<path fill-rule="evenodd" clip-rule="evenodd" d="M73.9268 71.0135C73.9268 71.4084 73.8297 71.7775 73.6679 72.1012C73.4283 72.5674 73.0463 72.9494 72.5736 73.176C72.2564 73.3314 71.9003 73.422 71.5183 73.422C71.201 73.422 70.8967 73.3573 70.6183 73.2472C70.2881 73.1113 69.9968 72.9106 69.7637 72.6516C69.6536 72.5415 69.563 72.4185 69.4853 72.289C69.2975 71.9976 69.181 71.6674 69.1356 71.3113L69.2522 71.2595L69.1227 71.1883C69.1162 71.13 69.1162 71.0718 69.1162 71.0135C69.1162 70.5214 69.2587 70.0747 69.5112 69.6992C69.9385 69.0452 70.6766 68.6114 71.5183 68.6114H71.5312C72.0168 68.6114 72.4701 68.7603 72.8456 69.0128C72.878 69.0323 72.9103 69.0517 72.9362 69.0776C73.3182 69.3495 73.6096 69.7251 73.7714 70.1718C73.875 70.4308 73.9268 70.7157 73.9268 71.0135Z" fill="#F2B706"/>
<path fill-rule="evenodd" clip-rule="evenodd" d="M67.6075 81.3727V81.3792C67.6075 82.0073 67.3615 82.577 66.9665 83.0043C66.6234 83.3734 66.1701 83.6389 65.6586 83.736C65.5097 83.7684 65.3543 83.7813 65.199 83.7813C64.3832 83.7813 63.658 83.3734 63.2242 82.7454C62.9523 82.3569 62.7969 81.8842 62.7969 81.3727C62.7969 81.321 62.7969 81.2692 62.8033 81.2174C62.8098 81.0749 62.8292 80.9325 62.8681 80.803C62.9587 80.4016 63.1595 80.0455 63.4314 79.7541C63.6062 79.5534 63.8263 79.385 64.0659 79.2556C64.4026 79.0743 64.7911 78.9707 65.199 78.9707C65.4968 78.9707 65.7752 79.0225 66.0407 79.1261C66.455 79.275 66.8176 79.5404 67.0831 79.8836C67.4133 80.2915 67.6075 80.8095 67.6075 81.3727Z" fill="#F2B706"/>
<path fill-rule="evenodd" clip-rule="evenodd" d="M38.5623 80.9778C38.5105 81.4052 38.3422 81.8001 38.0897 82.1303C37.7854 82.5253 37.3645 82.8231 36.8725 82.972C36.6523 83.0368 36.4192 83.0756 36.1797 83.0756C35.7977 83.0756 35.4416 82.985 35.1178 82.8231C34.6582 82.603 34.2826 82.2339 34.056 81.7807C33.933 81.5605 33.8488 81.3145 33.81 81.0555C33.7906 80.926 33.7776 80.7965 33.7776 80.667C33.7776 80.2721 33.8747 79.903 34.0431 79.5728C34.069 79.521 34.1013 79.4628 34.1337 79.411C34.3992 78.9837 34.7876 78.6405 35.2603 78.4463C35.5452 78.3297 35.856 78.265 36.1797 78.265C37.0861 78.265 37.876 78.77 38.2904 79.5081C38.4782 79.8512 38.5882 80.2462 38.5882 80.667C38.5882 80.7706 38.5818 80.8742 38.5623 80.9778ZM39.8832 79.4822H39.8767C39.3781 77.9218 37.9084 76.7823 36.1797 76.7823C35.5128 76.7823 34.8848 76.9506 34.3409 77.242C33.9006 77.4815 33.5121 77.7988 33.1949 78.1808C32.8517 78.5887 32.5928 79.0743 32.4438 79.5987C32.3467 79.9354 32.2949 80.298 32.2949 80.667C32.2949 80.8095 32.3014 80.9455 32.3143 81.0814C32.392 81.8066 32.6704 82.4735 33.0913 83.0173C33.3891 83.4123 33.7647 83.749 34.1985 84.0015C34.7747 84.3511 35.4545 84.5518 36.1797 84.5518C36.7624 84.5518 37.3127 84.4223 37.8048 84.1892H37.8113C38.2645 83.982 38.6724 83.6842 39.0091 83.3216C39.6047 82.7001 39.9868 81.8778 40.0515 80.9584C40.058 80.8613 40.0644 80.7642 40.0644 80.667C40.0644 80.2527 39.9997 79.8577 39.8832 79.4822Z" fill="#F2B706"/>
<path fill-rule="evenodd" clip-rule="evenodd" d="M38.5889 80.6672C38.5889 80.7708 38.5825 80.8744 38.5631 80.978C38.5113 81.4053 38.3429 81.8003 38.0904 82.1305C37.7861 82.5254 37.3652 82.8233 36.8732 82.9722C36.653 83.0369 36.42 83.0758 36.1804 83.0758C35.7984 83.0758 35.4423 82.9851 35.1186 82.8233C34.6589 82.6031 34.2833 82.2341 34.0567 81.7808C33.9337 81.5607 33.8495 81.3147 33.8107 81.0557C33.7913 80.9262 33.7783 80.7967 33.7783 80.6672C33.7783 80.2723 33.8754 79.9032 34.0438 79.573C34.0697 79.5212 34.1021 79.4629 34.1344 79.4111C34.3999 78.9838 34.7884 78.6407 35.261 78.4464C35.5459 78.3299 35.8567 78.2651 36.1804 78.2651C37.0868 78.2651 37.8767 78.7702 38.2911 79.5083C38.4789 79.8514 38.5889 80.2464 38.5889 80.6672Z" fill="#F2B706"/>
<path fill-rule="evenodd" clip-rule="evenodd" d="M52.3087 35.9017C52.3087 35.9276 52.3087 35.96 52.3022 35.9859C52.2957 36.3873 52.1792 36.7693 51.9849 37.0995C51.577 37.8247 50.8001 38.3103 49.9066 38.3103C49.2462 38.3103 48.6441 38.0384 48.2103 37.611C47.7959 37.1967 47.5239 36.6334 47.5045 36.0053C47.498 35.973 47.498 35.9341 47.498 35.9017C47.498 35.5974 47.5563 35.3061 47.6599 35.0342C47.9189 34.3608 48.4692 33.8363 49.162 33.6162C49.3951 33.532 49.6476 33.4932 49.9066 33.4932C50.1656 33.4932 50.4116 33.532 50.6447 33.6097C51.5058 33.8881 52.1533 34.6457 52.2828 35.5651C52.3022 35.6751 52.3087 35.7852 52.3087 35.9017Z" fill="#F2B706"/>
<path fill-rule="evenodd" clip-rule="evenodd" d="M65.3604 58.3491C65.3604 58.8282 65.2245 59.2749 64.9784 59.6505C64.5511 60.3174 63.8065 60.7576 62.9584 60.7576C62.6541 60.7576 62.3627 60.6994 62.0972 60.5958C61.9224 60.531 61.7606 60.4468 61.6116 60.3433C61.2879 60.1231 61.0225 59.8318 60.8347 59.4821C60.6534 59.1455 60.5498 58.7634 60.5498 58.3491C60.5498 57.5462 60.9448 56.834 61.5469 56.4002C61.8577 56.1736 62.2267 56.0182 62.6217 55.9664C62.7317 55.947 62.8418 55.9405 62.9584 55.9405C63.0296 55.9405 63.1008 55.9405 63.172 55.9535C64.3569 56.0571 65.2892 57.0218 65.354 58.2131C65.3604 58.2584 65.3604 58.3038 65.3604 58.3491Z" fill="#F2B706"/>
<path fill-rule="evenodd" clip-rule="evenodd" d="M69.9063 49.8998C69.9063 50.1588 69.8675 50.4048 69.7898 50.6379C69.479 51.6091 68.5726 52.3084 67.5043 52.3084C66.9086 52.3084 66.3518 52.0882 65.9309 51.7192C65.8144 51.6156 65.6978 51.499 65.6007 51.376C65.3547 51.0588 65.1863 50.6703 65.1281 50.2559C65.1022 50.1394 65.0957 50.0228 65.0957 49.8998C65.0957 48.7732 65.8727 47.8344 66.9151 47.5754V47.569C67.1028 47.5236 67.3035 47.4977 67.5043 47.4977C67.692 47.4977 67.8733 47.5172 68.0481 47.5625C68.2035 47.5949 68.3589 47.6467 68.5013 47.7179C69.11 47.9963 69.5826 48.5143 69.7898 49.1617C69.8675 49.3948 69.9063 49.6408 69.9063 49.8998Z" fill="#F2B706"/>
<path fill-rule="evenodd" clip-rule="evenodd" d="M31.0715 29.2525C31.0003 29.764 30.7607 30.2301 30.4176 30.5798C29.9838 31.0265 29.3687 31.3049 28.6953 31.3049C28.5464 31.3049 28.3975 31.292 28.255 31.2596C27.8601 31.1884 27.504 31.02 27.1997 30.774C27.109 30.7092 27.0249 30.6316 26.9472 30.5474C26.6817 30.269 26.481 29.9193 26.3839 29.5309C26.3256 29.3302 26.2932 29.1165 26.2932 28.8964C26.2932 28.6762 26.3256 28.4626 26.3839 28.2618C26.5134 27.7633 26.8047 27.3295 27.1932 27.0187C27.6076 26.6885 28.132 26.4878 28.6953 26.4878C28.9543 26.4878 29.2068 26.5267 29.4399 26.6043C29.7442 26.7015 30.0161 26.8633 30.2557 27.064C30.3981 27.1871 30.5276 27.323 30.6377 27.4784C30.8255 27.7309 30.9614 28.0223 31.0326 28.3395V28.346C31.078 28.5273 31.1039 28.7021 31.1039 28.8964C31.1039 29.0194 31.0974 29.1359 31.0715 29.2525ZM32.4182 27.7698C32.2758 27.2842 32.0362 26.8374 31.7254 26.4554C31.6672 26.3907 31.6089 26.3259 31.5506 26.2612C31.2139 25.8986 30.8125 25.5943 30.3528 25.3871C29.8543 25.1411 29.291 25.0116 28.6953 25.0116C27.5752 25.0116 26.5587 25.4907 25.853 26.2547C25.5098 26.6108 25.2443 27.0381 25.0695 27.5108C24.9012 27.9381 24.8105 28.4108 24.8105 28.8964C24.8105 29.4596 24.9271 29.997 25.1472 30.4762C25.3479 30.9359 25.6393 31.3502 26.0019 31.6869C26.1119 31.797 26.2285 31.9006 26.3515 31.9912C26.74 32.2891 27.1932 32.5157 27.6788 32.6452C28.0025 32.7358 28.3457 32.7811 28.6953 32.7811C29.919 32.7811 31.0132 32.2178 31.7254 31.3373C32.0362 30.9553 32.2758 30.5085 32.4182 30.0294C32.5283 29.6668 32.5865 29.2913 32.5865 28.8964C32.5865 28.5079 32.5283 28.1259 32.4182 27.7698Z" fill="#84C1D9"/>
<path fill-rule="evenodd" clip-rule="evenodd" d="M31.1036 28.8962C31.1036 29.0192 31.0971 29.1358 31.0712 29.2523C31 29.7638 30.7604 30.23 30.4173 30.5796C29.9835 31.0264 29.3684 31.3048 28.695 31.3048C28.5461 31.3048 28.3972 31.2918 28.2548 31.2595C27.8598 31.1882 27.5037 31.0199 27.1994 30.7739C27.1088 30.7091 27.0246 30.6314 26.9469 30.5472C26.6814 30.2688 26.4807 29.9192 26.3836 29.5307C26.3253 29.33 26.293 29.1164 26.293 28.8962C26.293 28.6761 26.3253 28.4624 26.3836 28.2617C26.5131 27.7632 26.8045 27.3294 27.1929 27.0186C27.6073 26.6884 28.1318 26.4877 28.695 26.4877C28.954 26.4877 29.2065 26.5265 29.4396 26.6042C29.7439 26.7013 30.0159 26.8632 30.2554 27.0639C30.3979 27.1869 30.5274 27.3229 30.6374 27.4783C30.8252 27.7308 30.9612 28.0222 31.0324 28.3394V28.3459C31.0777 28.5272 31.1036 28.702 31.1036 28.8962Z" fill="#84C1D9"/>
<path fill-rule="evenodd" clip-rule="evenodd" d="M86.546 37.6369C86.546 38.129 86.3971 38.5887 86.1446 38.9707C85.8597 39.4045 85.4323 39.7347 84.9338 39.9095C84.6878 40.0001 84.4223 40.0455 84.1439 40.0455C83.9108 40.0455 83.6907 40.0131 83.477 39.9483C82.9461 39.7994 82.4929 39.4692 82.1821 39.0289C81.9037 38.634 81.7354 38.1549 81.7354 37.6369C81.7354 37.5722 81.7354 37.5139 81.7483 37.4491C81.7871 36.9118 82.0073 36.4262 82.344 36.0442C82.5512 35.8111 82.8037 35.6168 83.0821 35.4873V35.4809C83.3993 35.3255 83.7619 35.2348 84.1439 35.2348C84.3187 35.2348 84.4871 35.2543 84.6489 35.2866C85.1539 35.3967 85.6007 35.6622 85.9309 36.0377C86.2676 36.4067 86.4812 36.8794 86.533 37.3973C86.5395 37.475 86.546 37.5592 86.546 37.6369Z" fill="#84C1D9"/>
<path fill-rule="evenodd" clip-rule="evenodd" d="M86.1124 62.4411C86.1124 62.7907 86.0347 63.1274 85.9052 63.4252C85.6592 63.9691 85.2124 64.4094 84.6686 64.6554C84.3772 64.7784 84.0535 64.8496 83.7103 64.8496C83.529 64.8496 83.3477 64.8302 83.1794 64.7849C82.6549 64.6748 82.2017 64.3835 81.8715 63.9885C81.5413 63.6065 81.3406 63.1274 81.3082 62.5965V62.5576C81.3018 62.5188 81.3018 62.4799 81.3018 62.4411C81.3018 61.9684 81.4377 61.5282 81.6773 61.1591C81.8003 60.9584 81.9557 60.7771 82.1305 60.6282C82.506 60.3045 82.9852 60.0908 83.5096 60.052C83.5743 60.039 83.6391 60.039 83.7103 60.039C83.9693 60.039 84.2218 60.0778 84.4484 60.162C84.9599 60.3174 85.3937 60.6476 85.6851 61.0814C85.8664 61.3339 85.9958 61.6318 86.0606 61.949C86.093 62.1044 86.1124 62.2727 86.1124 62.4411Z" fill="#84C1D9"/>
<path fill-rule="evenodd" clip-rule="evenodd" d="M20.4853 37.5723C20.4853 39.1456 19.5465 40.4988 18.2063 41.1139C17.766 41.3146 17.2804 41.4311 16.7624 41.4505C16.7107 41.457 16.6589 41.457 16.6006 41.457C15.72 41.457 14.9042 41.1657 14.2568 40.6671C13.8618 40.3693 13.5187 39.9938 13.2662 39.56C12.9165 38.9837 12.7158 38.2974 12.7158 37.5723C12.7158 37.3715 12.7288 37.1708 12.7676 36.9766C12.8388 36.4716 13.0137 35.9989 13.2662 35.5846C13.6417 34.95 14.192 34.4386 14.8524 34.1083C15.2798 33.8817 15.7589 33.7458 16.2704 33.7004C16.374 33.694 16.4905 33.6875 16.6006 33.6875C17.6948 33.6875 18.6919 34.1407 19.3911 34.8788C19.7408 35.2349 20.0192 35.6558 20.2069 36.122C20.3882 36.5687 20.4853 37.0608 20.4853 37.5723Z" fill="#84C1D9"/>
<path fill-rule="evenodd" clip-rule="evenodd" d="M40.129 49.8157C40.129 49.984 40.1096 50.1524 40.0772 50.3142C40.0319 50.5279 39.9606 50.7286 39.8635 50.9164C39.4621 51.6933 38.6528 52.2242 37.7204 52.2242C36.7557 52.2242 35.9205 51.648 35.545 50.8257H35.5385C35.4025 50.5344 35.3248 50.2171 35.3184 49.874V49.8157C35.3184 49.7121 35.3248 49.6085 35.3378 49.5049C35.3443 49.4466 35.3507 49.3948 35.3637 49.343C35.4349 48.9934 35.5773 48.6762 35.7781 48.4042C36.2183 47.8021 36.9241 47.4136 37.7204 47.4136C38.9312 47.4136 39.9218 48.2942 40.0966 49.4466C40.116 49.5632 40.129 49.6927 40.129 49.8157Z" fill="#84C1D9"/>
<path fill-rule="evenodd" clip-rule="evenodd" d="M22.1495 49.8998C22.1495 50.1977 22.0977 50.4825 21.9941 50.748C21.8517 51.1365 21.6056 51.4796 21.2948 51.7386C20.9193 52.0559 20.4402 52.263 19.9222 52.3019L19.9028 52.2566L19.8963 52.3019C19.8445 52.3084 19.7992 52.3084 19.7474 52.3084C19.2812 52.3084 18.8345 52.1724 18.4654 51.9328C18.0187 51.6544 17.6691 51.2336 17.4878 50.7286C17.3907 50.4696 17.3389 50.1912 17.3389 49.8998C17.3389 49.6732 17.3712 49.4595 17.4295 49.2524C17.5914 48.6826 17.954 48.197 18.4395 47.8797C18.8151 47.6402 19.2683 47.4977 19.7474 47.4977C19.7863 47.4977 19.8316 47.4977 19.8704 47.5042L19.8899 47.5819L19.9222 47.5042C20.4402 47.5431 20.9193 47.7438 21.2948 48.061C21.6639 48.3718 21.9423 48.7927 22.0653 49.2783C22.1236 49.479 22.1495 49.6862 22.1495 49.8998Z" fill="#F25849"/>
<path fill-rule="evenodd" clip-rule="evenodd" d="M31.1036 71.3892C31.1036 71.4216 31.1036 71.4539 31.0971 71.4863C31.0842 71.8942 30.9676 72.2697 30.7734 72.5999C30.7216 72.6971 30.6568 72.7877 30.5856 72.8719C30.3461 73.1827 30.0288 73.4352 29.6662 73.597C29.3684 73.7265 29.0382 73.7978 28.695 73.7978C27.9958 73.7978 27.3613 73.4934 26.9275 73.0143C26.5908 72.6517 26.3707 72.1856 26.3124 71.6676C26.2994 71.577 26.293 71.4863 26.293 71.3892C26.293 71.0978 26.3448 70.8259 26.4354 70.5734C26.5714 70.1979 26.798 69.8612 27.0958 69.6087C27.1735 69.531 27.2577 69.4662 27.3419 69.408C27.6591 69.1878 28.0411 69.0454 28.4425 69.0001C28.5267 68.9936 28.6109 68.9871 28.695 68.9871C29.2389 68.9871 29.7439 69.1684 30.1454 69.4727C30.5468 69.777 30.8511 70.1979 31 70.6899C31.0648 70.9101 31.1036 71.1432 31.1036 71.3892Z" fill="#F25849"/>
<path fill-rule="evenodd" clip-rule="evenodd" d="M52.2374 79.9096V79.9161C52.2374 80.2463 52.1726 80.5636 52.0496 80.8549C51.7842 81.47 51.2791 81.9556 50.6446 82.1822C50.3921 82.2729 50.1137 82.3247 49.8288 82.3247C49.5957 82.3247 49.3756 82.2923 49.162 82.2276C48.4562 82.0268 47.8865 81.5024 47.608 80.8355C47.4915 80.5506 47.4268 80.2399 47.4268 79.9161C47.4268 79.8967 47.4268 79.8708 47.4332 79.8514C47.4332 79.683 47.4527 79.5212 47.4915 79.3593C47.5692 79.0226 47.7181 78.7183 47.9253 78.4529C48.2296 78.0514 48.6634 77.7471 49.162 77.6047C49.3756 77.5399 49.5957 77.5076 49.8288 77.5076C50.1137 77.5076 50.3921 77.5594 50.6446 77.65C51.1043 77.8183 51.4993 78.1162 51.7712 78.5047C51.9655 78.7636 52.1014 79.0615 52.1726 79.3787C52.218 79.5471 52.2374 79.7284 52.2374 79.9096Z" fill="#F25849"/>
<path fill-rule="evenodd" clip-rule="evenodd" d="M82.6865 50.6379C82.4923 51.2466 82.0585 51.7516 81.4952 52.0429C81.165 52.2113 80.796 52.3084 80.3945 52.3084C80.2715 52.3084 80.1485 52.3019 80.0319 52.276C79.9866 52.276 79.9478 52.2695 79.9089 52.2566H79.9025C79.391 52.153 78.9377 51.8811 78.6075 51.5055C78.3874 51.2595 78.2126 50.9617 78.109 50.6379C78.0313 50.4049 77.9924 50.1588 77.9924 49.8998C77.9924 49.6409 78.0313 49.3948 78.109 49.1617C78.2126 48.838 78.3874 48.5466 78.614 48.3006C78.9377 47.9251 79.391 47.6531 79.9025 47.5431H79.9089C79.9543 47.5366 79.9931 47.5301 80.0384 47.5237C80.155 47.5042 80.2715 47.4978 80.3945 47.4978C80.796 47.4978 81.165 47.5949 81.4952 47.7697C82.0585 48.0546 82.4858 48.5531 82.6865 49.1617C82.7642 49.3948 82.8031 49.6409 82.8031 49.8998C82.8031 50.1588 82.7642 50.4049 82.6865 50.6379ZM84.2081 49.1617C83.962 47.8668 83.0621 46.7985 81.8643 46.3064C81.4175 46.1187 80.9319 46.0216 80.4204 46.0151H80.3945C80.0255 46.0151 79.6694 46.0669 79.3327 46.164C78.8471 46.3 78.4003 46.533 78.0119 46.8438C77.2802 47.4006 76.7623 48.2229 76.581 49.1617C76.5357 49.4013 76.5098 49.6473 76.5098 49.8998C76.5098 50.1523 76.5357 50.3984 76.581 50.6379C76.7623 51.5768 77.2802 52.399 78.0054 52.9623C78.3939 53.2731 78.8471 53.5062 79.3327 53.6422C79.6694 53.7393 80.0255 53.7911 80.3945 53.7911H80.414C80.9254 53.7911 81.4175 53.6875 81.8643 53.4997C83.0621 53.0076 83.962 51.9393 84.2081 50.6379C84.2534 50.3984 84.2793 50.1523 84.2793 49.8998C84.2793 49.6473 84.2534 49.4013 84.2081 49.1617Z" fill="#F25849"/>
<path fill-rule="evenodd" clip-rule="evenodd" d="M82.8038 49.8998C82.8038 50.1588 82.7649 50.4048 82.6873 50.6379C82.493 51.2465 82.0592 51.7516 81.4959 52.0429C81.1657 52.2113 80.7967 52.3084 80.3952 52.3084C80.2722 52.3084 80.1492 52.3019 80.0327 52.276C79.9873 52.276 79.9485 52.2695 79.9096 52.2566H79.9032C79.3917 52.153 78.9385 51.881 78.6083 51.5055C78.3881 51.2595 78.2133 50.9617 78.1097 50.6379C78.032 50.4048 77.9932 50.1588 77.9932 49.8998C77.9932 49.6408 78.032 49.3948 78.1097 49.1617C78.2133 48.838 78.3881 48.5466 78.6147 48.3006C78.9385 47.9251 79.3917 47.6531 79.9032 47.5431H79.9096C79.955 47.5366 79.9938 47.5301 80.0391 47.5236C80.1557 47.5042 80.2722 47.4977 80.3952 47.4977C80.7967 47.4977 81.1657 47.5949 81.4959 47.7697C82.0592 48.0546 82.4865 48.5531 82.6873 49.1617C82.7649 49.3948 82.8038 49.6408 82.8038 49.8998Z" fill="#F25849"/>
<path fill-rule="evenodd" clip-rule="evenodd" d="M73.9854 28.8962C73.9854 29.1163 73.9531 29.3364 73.8948 29.5371C73.7588 30.0357 73.4675 30.4695 73.079 30.7738C73.0466 30.7997 73.0207 30.8256 72.9883 30.845C72.5934 31.1364 72.1078 31.3047 71.5769 31.3047C70.7417 31.3047 70.01 30.8774 69.5827 30.2299C69.3237 29.8479 69.1748 29.3882 69.1748 28.8962C69.1748 28.8508 69.1748 28.799 69.1813 28.7537C69.1813 28.676 69.1942 28.5983 69.2072 28.5206C69.2654 28.1257 69.4273 27.7566 69.6669 27.4459C69.7251 27.3617 69.7964 27.2775 69.8741 27.1998C70.146 26.9214 70.4891 26.7142 70.8712 26.5977C71.0913 26.5265 71.3308 26.4876 71.5769 26.4876C71.9654 26.4876 72.3344 26.5783 72.6581 26.7466C73.1243 26.9797 73.5063 27.3617 73.7329 27.8343C73.8948 28.1516 73.9854 28.5142 73.9854 28.8962Z" fill="#F25849"/>
<path fill-rule="evenodd" clip-rule="evenodd" d="M66.371 19.9029H66.3645C66.2739 20.0389 66.1703 20.1684 66.0538 20.2849C65.6977 20.641 65.2315 20.8871 64.7135 20.9583C64.597 20.9842 64.4804 20.9907 64.3574 20.9907C63.5546 20.9907 62.8424 20.5957 62.4086 19.9871C62.1172 19.5922 61.9489 19.1066 61.9489 18.5821C61.9489 18.5627 61.9489 18.5368 61.9553 18.5174C61.9553 18.1936 62.033 17.8893 62.1561 17.6109C62.3632 17.1448 62.7129 16.7498 63.1596 16.4973C63.5092 16.2901 63.9236 16.1736 64.3574 16.1736C64.597 16.1736 64.8301 16.2124 65.0502 16.2772C65.5487 16.4261 65.9761 16.7304 66.2739 17.1383C66.5523 17.5009 66.7206 17.9347 66.753 18.4138C66.7595 18.4656 66.7595 18.5238 66.7595 18.5821C66.7595 19.0742 66.6171 19.5209 66.371 19.9029ZM68.2292 18.3814C68.1839 17.3325 67.7113 16.3937 66.9861 15.7268C66.6235 15.3901 66.1962 15.1182 65.7236 14.9499C65.2962 14.7815 64.8365 14.6974 64.3574 14.6974C63.5805 14.6974 62.8618 14.924 62.2596 15.3124C61.8388 15.5844 61.4697 15.934 61.1913 16.3484C60.7381 16.9699 60.4791 17.7339 60.4727 18.5497V18.5821C60.4727 19.0871 60.5698 19.5727 60.7511 20.0195C61.3208 21.4568 62.7258 22.4669 64.3574 22.4669C64.8236 22.4669 65.2703 22.3827 65.6847 22.2338C66.1574 22.0655 66.5912 21.8 66.9537 21.4633C67.4329 21.036 67.8084 20.4857 68.022 19.8641C68.1645 19.4627 68.2422 19.0289 68.2422 18.5821C68.2422 18.5174 68.2422 18.4462 68.2292 18.3814Z" fill="#F25849"/>
<path fill-rule="evenodd" clip-rule="evenodd" d="M66.7598 18.5822C66.7598 19.0743 66.6174 19.521 66.3714 19.903H66.3649C66.2743 20.039 66.1707 20.1685 66.0541 20.285C65.698 20.6411 65.2318 20.8872 64.7139 20.9584C64.5973 20.9843 64.4808 20.9907 64.3578 20.9907C63.5549 20.9907 62.8427 20.5958 62.4089 19.9872C62.1176 19.5922 61.9492 19.1066 61.9492 18.5822C61.9492 18.5628 61.9492 18.5369 61.9557 18.5175C61.9557 18.1937 62.0334 17.8894 62.1564 17.611C62.3636 17.1448 62.7132 16.7499 63.16 16.4974C63.5096 16.2902 63.924 16.1736 64.3578 16.1736C64.5973 16.1736 64.8304 16.2125 65.0506 16.2772C65.5491 16.4262 65.9764 16.7305 66.2743 17.1384C66.5527 17.5009 66.721 17.9347 66.7534 18.4139C66.7598 18.4657 66.7598 18.5239 66.7598 18.5822Z" fill="#F25849"/>
<path fill-rule="evenodd" clip-rule="evenodd" d="M49.7437 60.1492C49.7437 61.0168 49.284 61.7744 48.5912 62.1952C48.274 62.3894 47.9114 62.5125 47.5229 62.5384C47.4647 62.5448 47.4129 62.5448 47.3546 62.5448C47.2898 62.5448 47.2251 62.5448 47.1603 62.5319C46.7266 62.4995 46.3251 62.3506 45.9884 62.1175C45.5741 61.8262 45.2568 61.4118 45.095 60.9262C45.0043 60.6802 44.959 60.4212 44.959 60.1492C44.959 59.3399 45.3604 58.6277 45.9755 58.1874C46.0661 58.1227 46.1697 58.0644 46.2733 58.0126C46.5971 57.8443 46.9661 57.7536 47.3546 57.7536H47.387C48.6948 57.7731 49.7437 58.8414 49.7437 60.1492Z" fill="#F25849"/>
</svg>
