<svg width="1728" height="64" viewBox="0 0 1728 64" fill="none" xmlns="http://www.w3.org/2000/svg">
<mask id="mask0_1903_1150" style="mask-type:luminance" maskUnits="userSpaceOnUse" x="-8" y="0" width="1742" height="64">
<path d="M1733.9 0H-8V64H1733.9V0Z" fill="white"/>
</mask>
<g mask="url(#mask0_1903_1150)">
<path d="M1233 68.5072L1294.93 -53.583L1348.08 74.1161C1348.08 74.1161 1293.96 69.2624 1233 68.5072Z" fill="#F15849"/>
<path d="M1077.18 83.9342L1115.92 -47.043L1191.4 69.375C1191.4 69.375 1145.14 71.7141 1077.18 83.9342Z" fill="#F15849"/>
<path d="M1501.2 55.8096C1478.19 48.3841 1457.37 43.3426 1433.67 39.4584L1439.27 14.3672C1464.34 18.4739 1483.43 23.097 1507.76 30.9491L1501.2 55.8096Z" fill="#F15849"/>
<path d="M1587.28 4.55566L1550.7 96.9724L1656.68 32.3391C1628.4 19.2556 1587.28 4.55566 1587.28 4.55566ZM1597.4 27.3037C1603.3 29.5305 1610.36 32.2411 1617.77 35.1925L1586.8 54.0849L1597.4 27.3037Z" fill="#F15849"/>
<path d="M1668.29 37.5215L1686.83 158.609L1734.83 71.369C1734.83 71.369 1696.77 50.1722 1668.29 37.5215ZM1690.97 68.2461C1698.15 71.9078 1704.94 75.4777 1710.61 78.5026L1696.48 104.19L1690.97 68.2461Z" fill="#F15849"/>
<path d="M824.253 34.2393C741.708 71.5709 681.417 113.838 681.417 113.838L751.323 216.615C817.911 173.701 877.397 146.042 877.397 146.042L824.253 34.2393ZM814.486 61.4818L850.137 136.478C830.008 146.622 795.67 164.751 757.116 188.634L710.109 119.522C730.643 106.404 768.275 83.6379 814.486 61.4818Z" fill="#F15849"/>
<path d="M1370.6 77.6043L1317.97 -51.6787C1317.97 -51.6787 1356.46 -49.5641 1387.86 -44.6145L1370.6 77.6043Z" fill="#F3B719"/>
<path d="M1542.05 119.859L1655.15 50.374L1676.04 180.52C1676.04 180.52 1609.98 142.225 1542.05 119.859Z" fill="#F3B719"/>
<path d="M892.098 139.503L924.527 12.5547L1031.49 92.4473C1031.49 92.4473 956.847 109.584 892.098 139.503Z" fill="#F3B719"/>
<path d="M1053.57 89.8717L1092.77 -43.7812C1092.77 -43.7812 1054.69 -38.0233 1023.93 -30.1161L1053.57 89.8717Z" fill="#F3B719"/>
<path d="M1407.92 -41.5713L1385.85 79.9249C1464.29 94.1738 1526.81 114.597 1526.81 114.597L1567.37 -2.02913C1481.34 -31.127 1407.92 -41.5713 1407.92 -41.5713ZM1424.45 -17.8905C1448.32 -13.4797 1491.76 -4.37844 1541.1 11.0625L1513.95 89.1507C1492.43 82.8437 1454.67 72.5362 1409.67 63.5227L1424.45 -17.8905Z" fill="#87C1D9"/>
<path d="M1229.47 -55.0771C1166.88 -55.0771 1142.47 -50.9215 1142.47 -50.9215L1214.55 68.8929L1274.44 -54.4403C1257.66 -54.8914 1242.71 -55.0771 1229.47 -55.0771ZM1229.48 -34.4907C1233.54 -34.4907 1237.69 -34.4723 1241.92 -34.4355L1212.63 25.885L1177.04 -33.2762C1189.97 -33.9518 1207.25 -34.4907 1229.48 -34.4907Z" fill="#87C1D9"/>
<path d="M912.886 -1.51465C883.27 8.2173 843.255 25.487 843.255 25.487L882.166 117.095L912.886 -1.51465ZM887.197 26.7954L878.078 61.9981L866.624 35.0271C872.566 32.588 879.682 29.7182 887.197 26.7954Z" fill="#87C1D9"/>
<path d="M996.778 -26.3301C996.778 -26.3301 954.379 -15.8286 924.919 -5.64969L1023.8 69.2851L996.778 -26.3301ZM984.42 -4.70671L992.26 23.0318L963.327 1.10633C971.008 -1.08989 978.318 -3.082 984.42 -4.70671Z" fill="#87C1D9"/>
<path d="M566.659 133.345C649.203 96.013 709.493 53.746 709.493 53.746L639.589 -49.0293C573.001 -6.11526 513.512 21.5416 513.512 21.5416L566.659 133.345ZM576.426 106.104L540.775 31.1062C560.902 20.964 595.24 2.83495 633.796 -21.05L680.801 48.0615C660.267 61.1797 622.636 83.9461 576.426 106.104Z" fill="#F15849"/>
<path d="M195.198 62.3672C218.224 62.3672 237.77 45.0648 239.708 22.1657C241.748 -1.98654 223.424 -23.218 198.778 -25.255C197.499 -25.3612 196.227 -25.4102 194.964 -25.4102C171.936 -25.4102 152.392 -8.10983 150.457 14.7892C148.414 38.9415 166.737 60.171 191.385 62.21C192.665 62.3161 193.938 62.3672 195.198 62.3672ZM195.198 46.7079C194.359 46.7079 193.507 46.6732 192.663 46.6017C184.699 45.9445 177.528 42.2746 172.473 36.2718C167.678 30.5791 165.379 23.419 165.995 16.1139C167.222 1.60987 179.945 -9.75291 194.964 -9.75291C195.804 -9.75291 196.656 -9.71617 197.499 -9.64677C205.463 -8.9875 212.634 -5.31965 217.69 0.685255C222.485 6.37787 224.786 13.534 224.168 20.8411C222.94 35.3471 210.218 46.7079 195.198 46.7079Z" fill="#F15849"/>
<path d="M248.432 -12.6465L259.091 58.0775C259.091 58.0775 290.372 54.2627 312.367 49.5518L248.432 -12.6465Z" fill="#F15849"/>
<path d="M354.108 -34.3887L373.63 34.5065C373.63 34.5065 343.443 43.3709 321.374 47.7491L354.108 -34.3887Z" fill="#F15849"/>
<path d="M573.495 46.6528C595.317 36.4127 613.888 25.9275 633.706 12.6543L647.394 34.5879C626.429 48.6286 609.4 58.2422 586.327 69.0702L573.495 46.6528Z" fill="#F3B719"/>
<path d="M498.814 28.0811L466.385 155.029L359.416 75.1365C359.416 75.1365 434.066 57.9994 498.814 28.0811Z" fill="#F3B719"/>
<path d="M195.119 32.7369C202.599 32.7369 208.949 27.1157 209.579 19.6759C210.242 11.8299 204.288 4.931 196.283 4.26969C195.865 4.23703 195.452 4.2207 195.044 4.2207C187.561 4.2207 181.211 9.84188 180.583 17.2796C179.92 25.1256 185.874 32.0225 193.881 32.6858C194.295 32.7205 194.708 32.7369 195.119 32.7369Z" fill="#F3B719"/>
<path d="M132.077 22.7275C132.549 49.1352 156.104 63.8026 156.104 63.8026C134.486 63.9087 110.251 62.333 92.5115 60.8613C92.5115 60.8613 43.2294 57.6772 3.85449 50.4048C3.85449 50.4048 29.6857 40.1361 34.928 14.2366C41.5951 -18.7128 21.0326 -36.0479 21.0326 -36.0479C21.0326 -36.0479 45.6035 -31.4656 74.7439 -28.5162L74.7866 -28.9877C81.4863 -28.1243 88.2795 -27.4181 94.9263 -26.8405C96.8391 -26.72 98.7498 -26.6119 100.656 -26.518L100.642 -26.3751C129.846 -24.1258 154.852 -24.2911 154.852 -24.2911C154.852 -24.2911 131.482 -10.8709 132.077 22.7275Z" fill="#F3B719"/>
<path d="M390.896 29.0751C390.896 29.0751 430.104 20.3188 518.763 -19.1131L479.738 -98.375C479.738 -98.375 436.362 -74.4921 366.083 -55.4793L390.896 29.0751ZM400.951 10.8563L384.483 -45.2636C425.872 -57.4286 456.545 -70.6365 473.064 -78.4559L498.658 -26.4754C449.321 -5.07651 417.365 5.82703 400.951 10.8563Z" fill="#F3B719"/>
<path d="M-17.0068 209.155L5.05991 87.6605C-73.3748 73.4116 -135.902 52.9863 -135.902 52.9863L-176.456 169.613C-90.431 198.71 -17.0068 209.155 -17.0068 209.155ZM-33.5426 185.474C-57.4062 181.065 -100.85 171.962 -150.19 156.521L-123.037 78.4347C-101.521 84.7397 -63.7603 95.0472 -18.7589 104.063L-33.5426 185.474Z" fill="#87C1D9"/>
<path d="M652.22 -57.7041L781.453 0.0282898C781.453 0.0282898 752.225 24.6092 726.095 42.3402L652.22 -57.7041Z" fill="#87C1D9"/>
<path d="M478.024 169.098C507.642 159.369 547.655 142.097 547.655 142.097L508.746 50.4883L478.024 169.098ZM503.715 140.788L512.834 105.588L524.288 132.557C518.344 134.996 511.23 137.866 503.715 140.788Z" fill="#87C1D9"/>
<path d="M-21.9828 44.4162C1.04127 44.4162 20.5895 27.1138 22.5246 4.21476C24.5674 -19.9375 6.24084 -41.169 -18.4033 -43.206C-19.6839 -43.3122 -20.9563 -43.3652 -22.2186 -43.3652C-45.2447 -43.3652 -64.7909 -26.0608 -66.726 -3.16177C-68.7688 20.9905 -50.4423 42.222 -25.7981 44.257C-24.5196 44.3652 -23.2451 44.4162 -21.9828 44.4162ZM-21.9828 28.7549C-22.8223 28.7549 -23.676 28.7202 -24.5196 28.6508C-32.4836 27.9915 -39.6528 24.3236 -44.7122 18.3187C-49.5052 12.6261 -51.8041 5.47003 -51.1862 -1.83709C-49.9605 -16.3432 -37.236 -27.7039 -22.2186 -27.7039C-21.3791 -27.7039 -20.5254 -27.6692 -19.6839 -27.5978C-11.7199 -26.9405 -4.54858 -23.2706 0.508705 -17.2678C5.30174 -11.5752 7.60273 -4.415 6.98479 2.89008C5.75909 17.3941 -6.96746 28.7549 -21.9828 28.7549Z" fill="#87C1D9"/>
<path d="M314.233 36.6373L350.088 -51.4932C350.088 -51.4932 297.446 -35.0501 246.084 -30.0964L314.233 36.6373ZM309.566 14.1097L273.968 -20.7502C294.653 -24.0506 313.931 -28.4471 328.377 -32.1252L309.566 14.1097Z" fill="#87C1D9"/>
</g>
</svg>
