<svg width="90" height="146" viewBox="0 0 90 146" fill="none" xmlns="http://www.w3.org/2000/svg">
<path d="M22.3227 106.184L50.7139 97.3247L25.2282 81.1975C25.2282 81.1975 24.3369 93.0303 22.3227 106.184Z" fill="#F15849"/>
<path d="M13.4525 139.174L42.9214 135.633L20.6518 115.11C20.6518 115.11 18.4986 124.988 13.4525 139.174Z" fill="#F3B719"/>
<path d="M25.2835 76.2196L51.1272 92.293C51.1272 92.293 52.0479 83.9278 52.1079 76.9827L25.2835 76.2196Z" fill="#F3B719"/>
<path d="M52.186 70.8158C52.186 66.1389 51.9382 52.5558 49.3844 36.7655L22.9275 41.2224C22.9275 41.2224 25.0754 55.4364 25.3309 72.8496L52.1716 72.5525C52.1716 72.5525 52.186 71.9415 52.186 70.8158ZM47.6858 68.1249L29.7011 68.324C29.3756 58.302 28.5136 49.7909 27.9294 44.9199L45.635 41.9368C47.1887 53.1122 47.5946 62.693 47.6858 68.1249Z" fill="#87C1D9"/>
<path d="M34.6198 48.894C35.391 54.1204 35.7292 58.79 35.7157 64.0359L41.2959 63.7505C41.3104 58.2012 41.0011 53.919 40.1852 48.3932L34.6198 48.894Z" fill="#F3B719"/>
<path d="M50.1665 101.768L21.5816 110.144L44.7005 130.06C44.7005 130.06 47.2872 122.568 50.1665 101.768ZM44.7185 108.029C43.7586 114.138 42.8691 118.701 42.1549 121.958L30.7406 112.126L44.7185 108.029Z" fill="#87C1D9"/>
<path d="M22.3434 37.7471L41.2812 15.9397L14.1182 6.67041C14.1182 6.67041 19.9721 22.2991 22.3434 37.7471Z" fill="#F15849"/>
<path d="M48.6836 32.2353C48.6836 32.2353 46.999 22.8418 45.2033 16.2729L27.56 36.7243L48.6836 32.2353ZM44.163 29.2297L38.0243 30.5338L43.1954 24.5397C43.5648 26.2484 43.8953 27.8727 44.163 29.2297Z" fill="#F3B719"/>
<path d="M44.5068 13.5812C42.8105 6.98388 39.6237 -1.98917 39.6237 -1.98917L19.2027 5.14827L44.5068 13.5812ZM38.718 7.56234L31.2125 5.06112L37.2208 2.96089C37.6664 4.29075 38.1897 5.88252 38.718 7.56234Z" fill="#F3B719"/>
<path d="M11.335 144.042L41.3945 140.501C41.3945 140.501 38.8001 148.49 36.0066 154.823L11.335 144.042Z" fill="#F15849"/>
<path d="M12.9439 3.60389L32.8006 -19.812C32.8006 -19.812 36.1535 -12.1341 38.2666 -5.53804L12.9439 3.60389Z" fill="#87C1D9"/>
<path d="M78.9839 145.095L53.5998 137.201C53.5998 137.201 50.2008 151.884 40.3312 171.55L64.041 183.725C64.041 183.725 69.9568 173.141 78.9839 145.095ZM73.3183 148.022C68.1999 163.456 64.2217 172.884 62.0278 177.66L46.2799 169.572C51.871 157.821 55.1006 148.218 56.6958 142.852L73.3183 148.022Z" fill="#F15849"/>
<path d="M84.1489 123.659C84.1489 116.682 78.9281 110.759 72.019 110.173C64.7311 109.554 58.3251 115.107 57.7106 122.575C57.6785 122.962 57.6627 123.348 57.6627 123.731C57.6627 130.708 62.8835 136.63 69.7931 137.217C77.0805 137.836 83.4866 132.283 84.1011 124.815C84.1331 124.427 84.1489 124.041 84.1489 123.659ZM79.4234 123.659C79.4234 123.913 79.413 124.172 79.3918 124.427C79.1931 126.841 78.086 129.013 76.2745 130.546C74.557 131.999 72.3974 132.695 70.1926 132.508C65.8161 132.136 62.3882 128.281 62.3882 123.731C62.3882 123.476 62.3986 123.218 62.4198 122.962C62.6185 120.549 63.7256 118.376 65.5371 116.844C67.2546 115.391 69.4147 114.694 71.6194 114.881C75.9955 115.253 79.4234 119.109 79.4234 123.659Z" fill="#87C1D9"/>
<path d="M75.208 123.683C75.208 121.416 73.5117 119.492 71.2672 119.301C68.8999 119.1 66.8189 120.904 66.6189 123.331C66.6085 123.456 66.6035 123.582 66.6035 123.706C66.6035 125.973 68.2999 127.897 70.5443 128.088C72.9116 128.289 74.9931 126.485 75.1927 124.058C75.203 123.932 75.208 123.807 75.208 123.683Z" fill="#F15849"/>
<path d="M89.5645 57.8499C89.5645 50.8723 84.3436 44.9496 77.4345 44.363C70.1471 43.7443 63.741 49.2968 63.1261 56.7652C63.0945 57.1527 63.0791 57.5383 63.0791 57.9208C63.0791 64.8983 68.2995 70.8206 75.2086 71.4072C82.4965 72.0258 88.9021 66.4739 89.517 59.0054C89.5491 58.6175 89.5645 58.2319 89.5645 57.8499ZM84.8394 57.8499C84.8394 58.1041 84.829 58.3624 84.8078 58.618C84.6091 61.0311 83.502 63.2041 81.6905 64.7362C79.973 66.1889 77.8129 66.8857 75.6086 66.6987C71.2321 66.3271 67.8038 62.4716 67.8038 57.9208C67.8038 57.6665 67.8146 57.4082 67.8358 57.1527C68.0345 54.7395 69.1416 52.5666 70.9531 51.0344C72.6706 49.5817 74.8302 48.8845 77.035 49.0719C81.4115 49.4435 84.8394 53.299 84.8394 57.8499Z" fill="#F15849"/>
<path d="M80.6245 57.8737C80.6245 55.6069 78.9286 53.6828 76.6837 53.4922C74.3164 53.2913 72.2349 55.0953 72.0354 57.5211C72.025 57.6475 72.02 57.7726 72.02 57.8968C72.02 60.1636 73.7164 62.0877 75.9608 62.2783C78.3281 62.4792 80.4091 60.6753 80.6092 58.249C80.6195 58.123 80.6245 57.9979 80.6245 57.8737Z" fill="#F3B719"/>
<path d="M77.6044 76.9762C85.5722 76.8335 89.998 69.6961 89.998 69.6961C90.03 76.2465 89.5546 83.5903 89.1103 88.9653C89.1103 88.9653 88.1495 103.899 85.9556 115.829C85.9556 115.829 82.8573 108.002 75.0425 106.414C65.1006 104.394 59.8698 110.625 59.8698 110.625C59.8698 110.625 61.2528 103.179 62.1428 94.3493L62.0001 94.3362C62.2611 92.3059 62.4742 90.2477 62.648 88.2333C62.6846 87.6539 62.7171 87.075 62.7455 86.4975L62.7889 86.5015C63.4675 77.6522 63.4174 70.0754 63.4174 70.0754C63.4174 70.0754 67.467 77.1568 77.6044 76.9762Z" fill="#F3B719"/>
<path d="M81.8018 21.7806L55.2099 10.916C55.2099 10.916 60.1711 26.8675 61.6661 42.4307L81.8018 21.7806ZM75.0042 23.1945L64.4862 33.9815C63.4902 27.7138 62.1636 21.8723 61.0538 17.4948L75.0042 23.1945Z" fill="#87C1D9"/>
<path d="M66.9316 41.719L88.271 38.489C88.271 38.489 87.1201 29.0106 85.6983 22.3455L66.9316 41.719Z" fill="#F15849"/>
<path d="M60.3707 9.6977L81.1584 3.7822C81.1584 3.7822 83.8331 12.9295 85.1538 19.6168L60.3707 9.6977Z" fill="#F15849"/>
<path d="M79.5195 -1.44877C79.5195 -1.44877 76.8773 -13.3299 64.9794 -40.1949L41.0641 -28.3697C41.0641 -28.3697 48.2703 -15.226 54.0068 6.06979L79.5195 -1.44877ZM74.0224 -4.49593L57.0892 0.494315C53.4189 -12.047 49.4338 -21.3416 47.0742 -26.3472L62.7584 -34.1023C69.2151 -19.1524 72.5048 -9.46946 74.0224 -4.49593Z" fill="#F3B719"/>
</svg>
