<svg width="237" height="109" fill="none" xmlns="http://www.w3.org/2000/svg"><path d="M119.037 16.498c2.745 0 5.129.457 7.151 1.372 2.023.915 3.579 2.214 4.672 3.897 1.092 1.682 1.638 3.675 1.638 5.977 0 2.273-.546 4.258-1.638 5.956-1.093 1.697-2.649 2.996-4.672 3.896-2.022.9-4.406 1.35-7.151 1.35h-6.243v8.547h-7.173V16.498h13.416zm-.398 16.604c2.154 0 3.793-.465 4.915-1.395 1.121-.93 1.683-2.25 1.683-3.963 0-1.741-.562-3.077-1.683-4.007-1.122-.93-2.761-1.395-4.915-1.395h-5.845v10.76h5.845zM156.453 40.85h-14.39l-2.746 6.643h-7.35l13.815-30.995h7.084l13.86 30.995h-7.528l-2.745-6.642zm-2.258-5.445-4.915-11.867-4.915 11.867h9.83zM191.389 40.85h-14.391l-2.745 6.643h-7.351l13.816-30.995h7.084l13.859 30.995h-7.527l-2.745-6.642zm-2.259-5.445-4.915-11.867-4.915 11.867h9.83zM233.321 16.498v30.995h-5.889l-15.454-18.819v18.819h-7.084V16.498h5.933l15.409 18.818V16.498h7.085z" fill="#172840"/><path d="M115.089 66.145h-5.562l-1.061 2.567h-2.842l5.34-11.98h2.738l5.358 11.98h-2.91l-1.061-2.567zm-.872-2.105-1.9-4.587-1.9 4.587h3.8zM131.211 68.712l-.017-7.188-3.525 5.921h-1.25l-3.509-5.767v7.034h-2.601v-11.98h2.294l4.484 7.445 4.416-7.446h2.276l.034 11.981h-2.602zM145.451 62.482c.685.217 1.221.58 1.609 1.087.388.508.582 1.132.582 1.874 0 1.05-.408 1.857-1.223 2.422-.817.565-2.006.847-3.569.847h-6.196v-11.98h5.853c1.461 0 2.582.279 3.364.838.781.56 1.172 1.318 1.172 2.276 0 .582-.139 1.101-.419 1.558a2.936 2.936 0 0 1-1.173 1.078zm-6.041-3.663v2.824h2.755c.685 0 1.204-.12 1.557-.359.355-.24.531-.593.531-1.061 0-.468-.176-.819-.531-1.053-.353-.234-.872-.35-1.557-.35h-2.755zm3.234 7.805c.73 0 1.281-.12 1.652-.36s.556-.61.556-1.112c0-.993-.736-1.489-2.208-1.489h-3.234v2.961h3.234zM157.637 66.145h-5.562l-1.061 2.567h-2.841l5.34-11.98h2.738l5.357 11.98h-2.91l-1.061-2.567zm-.872-2.105-1.9-4.587-1.9 4.587h3.8zM166.794 68.917a9.814 9.814 0 0 1-2.748-.385c-.884-.257-1.594-.59-2.13-1.001l.942-2.088c.513.376 1.123.679 1.831.907a6.874 6.874 0 0 0 2.122.342c.787 0 1.369-.117 1.746-.35.376-.234.565-.545.565-.933a.893.893 0 0 0-.334-.71 2.536 2.536 0 0 0-.856-.454c-.348-.114-.819-.24-1.412-.377-.913-.217-1.66-.433-2.242-.65a3.647 3.647 0 0 1-1.498-1.044c-.416-.48-.624-1.118-.624-1.917 0-.696.187-1.326.565-1.891.376-.565.943-1.013 1.702-1.344.759-.33 1.686-.496 2.781-.496.765 0 1.512.091 2.242.274.731.182 1.37.445 1.918.787l-.856 2.105c-1.107-.627-2.214-.941-3.321-.941-.776 0-1.349.125-1.72.376-.37.251-.556.582-.556.993 0 .41.214.716.642.916.428.2 1.081.396 1.96.59.912.217 1.66.434 2.242.65.581.217 1.081.56 1.497 1.027.417.468.625 1.102.625 1.9a3.28 3.28 0 0 1-.573 1.874c-.383.565-.956 1.013-1.721 1.344-.764.33-1.694.496-2.789.496zM177.714 68.917a9.792 9.792 0 0 1-2.747-.385c-.885-.257-1.595-.59-2.131-1.001l.941-2.088c.513.376 1.124.679 1.831.907a6.879 6.879 0 0 0 2.122.342c.787 0 1.37-.117 1.746-.35.377-.234.565-.545.565-.933a.89.89 0 0 0-.334-.71 2.517 2.517 0 0 0-.856-.454c-.348-.114-.818-.24-1.411-.377-.913-.217-1.661-.433-2.243-.65a3.65 3.65 0 0 1-1.497-1.044c-.416-.48-.625-1.118-.625-1.917 0-.696.189-1.326.565-1.891.376-.565.944-1.013 1.703-1.344.759-.33 1.686-.496 2.781-.496.765 0 1.512.091 2.243.274.73.182 1.368.445 1.916.787l-.855 2.105c-1.107-.627-2.214-.941-3.32-.941-.776 0-1.35.125-1.721.376s-.556.582-.556.993c0 .41.214.716.641.916.428.2 1.082.396 1.96.59.913.217 1.661.434 2.242.65.582.217 1.081.56 1.498 1.027.416.468.624 1.102.624 1.9 0 .685-.19 1.31-.573 1.874-.382.565-.955 1.013-1.719 1.344-.765.33-1.695.496-2.79.496zM192.587 66.145h-5.563l-1.061 2.567h-2.841l5.34-11.98h2.738l5.357 11.98h-2.909l-1.061-2.567zm-.874-2.105-1.899-4.587-1.9 4.587h3.799zM197.807 56.731h5.442c1.301 0 2.45.249 3.449.745.999.496 1.775 1.195 2.327 2.096.554.902.83 1.952.83 3.15s-.276 2.247-.83 3.149c-.552.901-1.328 1.6-2.327 2.097-.999.496-2.148.744-3.449.744h-5.442v-11.98zm5.305 9.705c1.198 0 2.154-.334 2.867-1.002.713-.667 1.07-1.571 1.07-2.712 0-1.141-.357-2.046-1.07-2.713-.713-.667-1.669-1.001-2.867-1.001h-2.533v7.428h2.533zM217.745 68.917c-1.243 0-2.364-.268-3.362-.804a5.962 5.962 0 0 1-2.345-2.217c-.565-.94-.848-2-.848-3.174 0-1.176.283-2.234.848-3.175a5.962 5.962 0 0 1 2.345-2.217c.998-.536 2.119-.804 3.362-.804 1.244 0 2.363.268 3.355.804a6.05 6.05 0 0 1 2.345 2.217c.571.941.856 2 .856 3.175 0 1.175-.285 2.233-.856 3.174a6.05 6.05 0 0 1-2.345 2.217c-.992.536-2.111.804-3.355.804zm0-2.362a3.8 3.8 0 0 0 1.918-.487 3.501 3.501 0 0 0 1.343-1.361c.325-.582.488-1.244.488-1.985 0-.742-.163-1.404-.488-1.986a3.5 3.5 0 0 0-1.343-1.36 3.8 3.8 0 0 0-1.918-.488c-.707 0-1.346.162-1.916.488a3.503 3.503 0 0 0-1.344 1.36c-.325.582-.488 1.244-.488 1.986 0 .741.163 1.403.488 1.985a3.504 3.504 0 0 0 1.344 1.36c.57.326 1.209.488 1.916.488zM234.022 68.712l-2.31-3.337h-2.55v3.337h-2.773v-11.98h5.186c1.061 0 1.982.176 2.763.53.783.354 1.384.856 1.806 1.506.423.65.634 1.42.634 2.31 0 .89-.214 1.658-.642 2.303-.428.644-1.036 1.138-1.823 1.48L237 68.712h-2.978zm-.051-7.633c0-.674-.217-1.19-.65-1.55-.434-.359-1.067-.538-1.9-.538h-2.259v4.176h2.259c.833 0 1.466-.183 1.9-.548.433-.365.65-.879.65-1.54zM110.811 75.518c1.061 0 1.982.176 2.763.53.782.354 1.384.856 1.806 1.506.422.65.633 1.42.633 2.31 0 .88-.211 1.647-.633 2.303-.422.656-1.024 1.158-1.806 1.506-.781.348-1.702.522-2.763.522h-2.414v3.303h-2.773v-11.98h5.187zm-.155 6.418c.833 0 1.466-.18 1.9-.54.434-.359.651-.87.651-1.531 0-.673-.217-1.19-.651-1.55-.434-.358-1.067-.538-1.9-.538h-2.259v4.159h2.259zM125.615 87.498l-2.311-3.337h-2.55v3.337h-2.772v-11.98h5.185c1.062 0 1.983.176 2.765.53.781.354 1.382.856 1.805 1.506.422.65.633 1.42.633 2.31 0 .89-.214 1.658-.642 2.303-.428.644-1.035 1.138-1.823 1.48l2.688 3.851h-2.978zm-.052-7.633c0-.673-.217-1.19-.65-1.55-.434-.358-1.067-.538-1.9-.538h-2.259v4.176h2.259c.833 0 1.466-.183 1.9-.548.433-.365.65-.878.65-1.54zM136.363 87.703c-1.244 0-2.365-.268-3.363-.805a5.974 5.974 0 0 1-2.345-2.216c-.564-.941-.847-2-.847-3.175 0-1.175.283-2.233.847-3.175A5.975 5.975 0 0 1 133 76.116c.998-.536 2.119-.805 3.363-.805 1.244 0 2.362.269 3.355.805a6.04 6.04 0 0 1 2.344 2.216c.571.942.856 2 .856 3.175 0 1.175-.285 2.234-.856 3.175a6.04 6.04 0 0 1-2.344 2.216c-.993.537-2.111.805-3.355.805zm0-2.362c.707 0 1.346-.163 1.917-.488a3.497 3.497 0 0 0 1.344-1.36c.325-.582.487-1.244.487-1.986 0-.741-.162-1.403-.487-1.985a3.498 3.498 0 0 0-1.344-1.36 3.804 3.804 0 0 0-1.917-.489c-.707 0-1.346.163-1.916.488a3.498 3.498 0 0 0-1.344 1.36c-.325.583-.488 1.245-.488 1.986 0 .742.163 1.404.488 1.986a3.497 3.497 0 0 0 1.344 1.36c.57.325 1.209.488 1.916.488zM153.102 81.319h2.533v4.86a7.251 7.251 0 0 1-2.259 1.13 8.773 8.773 0 0 1-2.585.394c-1.243 0-2.361-.265-3.354-.796a5.926 5.926 0 0 1-2.337-2.208c-.565-.941-.847-2.005-.847-3.192 0-1.186.282-2.25.847-3.192a5.905 5.905 0 0 1 2.354-2.208c1.004-.53 2.133-.796 3.389-.796 1.049 0 2.002.177 2.858.531a5.66 5.66 0 0 1 2.156 1.54l-1.78 1.643c-.855-.9-1.888-1.352-3.098-1.352-.764 0-1.442.16-2.036.48-.593.32-1.056.77-1.387 1.352-.33.582-.496 1.25-.496 2.002 0 .742.166 1.404.496 1.986a3.516 3.516 0 0 0 1.378 1.36c.588.325 1.258.488 2.012.488.798 0 1.517-.171 2.156-.513v-3.51zM165.835 87.498l-2.31-3.337h-2.551v3.337h-2.772v-11.98h5.186c1.061 0 1.983.176 2.764.53.782.354 1.384.856 1.806 1.506.422.65.633 1.42.633 2.31 0 .89-.214 1.658-.641 2.303-.429.644-1.036 1.138-1.823 1.48l2.687 3.851h-2.979zm-.051-7.633c0-.673-.216-1.19-.651-1.55-.433-.358-1.066-.538-1.899-.538h-2.26v4.176h2.26c.833 0 1.466-.183 1.899-.548.435-.365.651-.878.651-1.54zM178.672 84.93h-5.562l-1.061 2.568h-2.842l5.34-11.98h2.738l5.357 11.98h-2.909l-1.061-2.567zm-.873-2.104-1.899-4.587-1.9 4.587h3.799zM194.794 87.498l-.017-7.188-3.525 5.922h-1.25l-3.509-5.768v7.034h-2.601v-11.98h2.294l4.484 7.445 4.416-7.445h2.276l.034 11.98h-2.602z" fill="#fff"/><path fill-rule="evenodd" clip-rule="evenodd" d="M83.735 44.54c1.068.117 2.093.284 2.935.592 1.697.62 2.877 1.689 3.407 3.212.496 1.422.417 3.38-.38 5.591-.915 2.537-2.773 5.546-5.187 8.335-.333.384-.674.765-1.028 1.14-.222.237-.445.46-.665.677l-.047.047c-1.784 1.733-3.488 2.822-4.88 3.714-.803.514-1.521.798-1.814 1.363l-.005.009c-.005.017.001.037.001.059 0 .64.024 1.25.066 1.846v.002c.141 2.057.487 3.934.829 6.061a11.487 11.487 0 0 1 .128 1.21c.007.225.01.45.014.674 0 .044 0 .088-.002.133-.087 2.432-1.164 4.266-3.963 7.61-2.218 2.654-2.933 3.266-3.117 5.035v.002c-.141 1.342-.444 2.295-.899 3.08-.656 1.13-1.663 1.973-3.484 2.938-1.427.76-1.254 1.332-2.02 3.465-2.102 5.851-6.739 7.373-10.622 7.489l-.05.001c-.593.016-1.17 0-1.71-.041h-.001a19.056 19.056 0 0 1-2.988-.473l-.006-.001c-1.899-.464-3.031-1.489-3.934-3.217-.55-1.053-1.003-2.489-1.714-4.332l-.022-.057a37.954 37.954 0 0 0-.76-1.83c-.12-.271-.246-.55-.385-.837l-.004-.008a49.108 49.108 0 0 1-4.357-14.597c-.019-.137-.039-.278-.055-.413-.057-.464-.1-.896-.132-1.312l-.004-.059a26.293 26.293 0 0 1-.076-1.487 15.718 15.718 0 0 0 5.192-.945c-.003.641.017 1.319.079 2.078l.004.069c.027.324.06.661.105 1.021l.001.011.045.339.001.01a43.849 43.849 0 0 0 3.892 13.034 42.748 42.748 0 0 1 1.31 3.049c.53 1.367.892 2.495 1.276 3.389.213.494.3.919.771 1.036.494.118 1.258.272 2.156.34l.003.001c.22.017.446.027.68.031l.738-.114.366.075c2.003-.185 4.249-1.083 5.3-4.01v-.001c1.478-4.11 1.725-4.836 4.476-6.3l.003-.002c.685-.363 1.176-.529 1.423-.954.147-.253.178-.577.223-1.008.279-2.67.953-3.83 4.302-7.835 1.686-2.015 2.674-2.947 2.751-4.401a36.6 36.6 0 0 0-.01-.495 6.134 6.134 0 0 0-.065-.566c-.368-2.29-.73-4.314-.883-6.53-.049-.711-.077-1.44-.077-2.204a5.22 5.22 0 0 1 .636-2.557c.556-1.017 1.5-1.886 2.814-2.76 1.266-.844 2.988-1.787 4.787-3.525l.033-.033c.184-.18.37-.366.556-.563l.001-.002c.302-.32.595-.647.88-.977 1.947-2.248 3.489-4.648 4.226-6.693.284-.788.517-1.469.395-1.997a2.784 2.784 0 0 0-.313-.15c-.433-.159-.938-.25-1.47-.322-.827-.114-1.706-.18-2.563-.248a15.81 15.81 0 0 0 2.887-4.912zm-7.667 26.142a2.568 2.568 0 0 0-.14-.413l.14.413zm-5.055 1.246c.034.14.081.279.14.413l-.14-.413zM21.582 59.348c-1.547.407-2.968.961-4.059 1.245-1.637.428-2.63.44-3.505.206-1.059-.282-2.04-1.09-4.202-2.985-1.65-1.447-4.066-2.97-5.98-4.527C2.171 51.932.867 50.5.271 49.13l-.205-.672L0 47.532c.01-.445.082-.961.127-1.249H.126l.003-.031.19-4.423a34.449 34.449 0 0 0-.19-3.438c-.56-5.072 2.069-8.605 4.301-11.275 1.13-1.352 2.522-2.258 3.759-3.002a31.315 31.315 0 0 0 1.335-.874c.687-1.228 2.348-3.14 2.76-4.517l.414-.856.671-.712c.43-.346 1.197-.758 2.254-1.127 3.826-1.338 13.118-2.84 16.016-4.4 2.268-1.22 3.79-1.374 5.016-1.12.863.18 1.641.576 2.431 1.203.687.546 1.42 1.335 2.462 2.248h.001c1.363 1.197 2.346 2.952 3.332 4.565.493.807.857 1.67 1.648 1.912l.024.007c.154.042.327.036.525.004 2.882-.46 6.73-1.315 7.951-1.5l.258-.11c.867-.256 2.295-.39 3.07-.22.144.03.29.064.437.1 2.2.555 3.91.918 5.439 1.54l.064.026c1.528.631 2.912 1.493 4.364 2.985a15.723 15.723 0 0 0-6.819 1.648c-1.225-.443-2.604-.717-4.32-1.15h-.001a4.728 4.728 0 0 0-.136-.032l-.535.082c-.39.211-.83.32-1.273.313-.74.154-4.967 1.027-7.68 1.46a6.75 6.75 0 0 1-1.629.069l-.559.093-.43-.26a6.52 6.52 0 0 1-.27-.075l.075-.042-.149-.089.072.13c-1.64-.5-2.916-1.691-3.981-3.26-.944-1.387-1.66-3.184-2.91-4.28-1.154-1.012-1.77-1.904-2.54-2.272-.108-.053-.212.05-.381.11-.32.11-.676.278-1.09.5-1.79.963-5.78 1.976-9.691 2.897-2.82.663-6.45 1.732-7.527 2.054-.766 1.56-2.195 3.425-2.816 4.613-.382.729-1.043 1.411-1.96 2.03-1.013.683-2.567 1.31-3.686 2.649-1.48 1.77-3.492 4.003-3.121 7.364.153 1.392.212 2.781.221 4.04 0 .043 0 .087-.002.13l-.196 4.555a2.804 2.804 0 0 1-.01.144l-.035.323-.046.392c.401.623 1.111 1.214 1.886 1.844 1.963 1.597 4.435 3.168 6.126 4.65.948.831 1.85 1.603 2.12 1.833.18-.03.54-.097.841-.175 2.172-.567 5.408-1.752 8.66-1.85a15.814 15.814 0 0 0-3.287 5.642z" fill="#172840"/><path fill-rule="evenodd" clip-rule="evenodd" d="M60.775 61.99a12.15 12.15 0 0 1-4.957 5.402l-13.083 7.553c-5.848 3.376-13.35 1.371-16.73-4.483-3.38-5.853-1.365-13.353 4.483-16.73l11.352-6.554a11.85 11.85 0 0 0 .301 3.208c.214.956.554 1.89 1.002 2.804l-9.727 5.615c-3.043 1.757-4.088 5.666-2.325 8.72 1.764 3.054 5.672 4.104 8.715 2.347L52.89 62.32a6.402 6.402 0 0 0 2.424-2.485c.51-.943.772-2.004.767-3.081a6.24 6.24 0 0 0-.69-2.847 2.416 2.416 0 0 0-.162-.317c-1.416-2.454-4.23-3.608-6.856-3.056a6.246 6.246 0 0 1-.69-2.847 6.342 6.342 0 0 1 .783-3.09c4.645-.464 9.352 1.763 11.835 6.065.113.195.21.397.32.59.463.903.79 1.847 1.017 2.793.238 1.067.342 2.142.286 3.218a12.09 12.09 0 0 1-1.148 4.728z" fill="#fff"/><path fill-rule="evenodd" clip-rule="evenodd" d="M42.14 50.386a11.974 11.974 0 0 1-.31-3.203 12.465 12.465 0 0 1 1.148-4.73 12.213 12.213 0 0 1 4.972-5.408l14.815-8.554c5.866-3.386 13.353-1.372 16.732 4.48 3.38 5.855 1.38 13.346-4.485 16.733l-13.091 7.558a11.336 11.336 0 0 0-.294-3.212 11.956 11.956 0 0 0-1.006-2.8l11.462-6.619a6.384 6.384 0 0 0 2.339-8.729 6.382 6.382 0 0 0-8.728-2.338l-14.815 8.553a6.36 6.36 0 0 0-2.423 2.485 6.394 6.394 0 0 0-.772 3.082 6.65 6.65 0 0 0 .68 2.855l.176.306a6.391 6.391 0 0 0 6.848 3.063c.462.908.687 1.883.694 2.844a6.395 6.395 0 0 1-.771 3.082 12.236 12.236 0 0 1-11.847-6.059 8.158 8.158 0 0 1-.318-.588 11.97 11.97 0 0 1-1.006-2.801z" fill="#F25849"/><path fill-rule="evenodd" clip-rule="evenodd" d="m83.114 18.458-1.593-4.873h-5.124l4.155-3.011-1.593-4.873 4.155 3.012L87.237 5.7l-1.561 4.873 4.123 3.011h-5.123l-1.562 4.873z" fill="#fff"/><path fill-rule="evenodd" clip-rule="evenodd" d="M76.397 20.635v-.003L72.274 7.884V7.88L83.114 0l10.84 7.879v.005L89.8 20.632v.003H76.397zm6.717-2.177 1.562-4.873h5.123l-4.123-3.011L87.238 5.7l-4.124 3.012L78.959 5.7l1.593 4.873-4.155 3.011h5.124l1.593 4.873z" fill="#F2B706"/></svg>