<svg width="240" height="105" viewBox="0 0 240 105" fill="none" xmlns="http://www.w3.org/2000/svg">
<mask id="mask0_2167_10838" style="mask-type:luminance" maskUnits="userSpaceOnUse" x="0" y="0" width="240" height="104">
<path d="M239.671 0.658203H0V103.946H239.671V0.658203Z" fill="white"/>
</mask>
<g mask="url(#mask0_2167_10838)">
<path d="M118.784 51.9894H122.576V39.9839H132.345C139.247 39.9839 144.642 35.5608 144.642 29.2908C144.642 23.0207 139.247 18.5977 132.345 18.5977H118.784V51.9894ZM122.576 36.3871V22.1944H131.665C137.108 22.1944 140.803 24.8191 140.803 29.2908C140.803 33.7624 137.108 36.3871 131.665 36.3871H122.576Z" fill="white"/>
<path d="M169.979 51.9894H174.11L159.383 18.5977H155.251L140.524 51.9894H144.655L148.009 44.407H166.625L169.979 51.9894ZM149.564 40.8102L157.341 23.2637L165.069 40.8102H149.564Z" fill="white"/>
<path d="M205.237 51.9894H209.369L194.642 18.5977H190.51L175.783 51.9894H179.914L183.268 44.407H201.884L205.237 51.9894ZM184.824 40.8102L192.6 23.2637L200.329 40.8102H184.824Z" fill="white"/>
<path d="M211.386 51.9894H215.177V24.8191L235.884 51.9894H239.674V18.5977H235.884V45.7679L215.177 18.5977H211.386V51.9894Z" fill="white"/>
<path d="M118.776 68.3783H119.945V64.6758H122.958C125.086 64.6758 126.75 63.3117 126.75 61.3779C126.75 59.4442 125.086 58.0801 122.958 58.0801H118.776V68.3783ZM119.945 63.5665V59.1894H122.748C124.427 59.1894 125.566 59.9988 125.566 61.3779C125.566 62.757 124.427 63.5665 122.748 63.5665H119.945Z" fill="white"/>
<path d="M131.532 60.4492C130.783 60.4492 129.854 60.6441 128.744 61.1988L129.194 62.1132C129.899 61.7534 130.678 61.4086 131.458 61.4086C133.136 61.4086 133.556 62.6078 133.556 63.6572V63.942C132.762 63.6871 131.877 63.5072 131.038 63.5072C129.374 63.5072 127.995 64.5416 127.995 66.0855C127.995 67.6146 129.194 68.559 130.828 68.559C131.847 68.559 133.002 68.0793 133.556 67.1649V68.379H134.68V63.6572C134.68 61.7833 133.646 60.4492 131.532 60.4492ZM131.023 67.5696C129.928 67.5696 129.089 66.9999 129.089 66.0406C129.089 65.1112 130.063 64.4516 131.218 64.4516C132.057 64.4516 132.852 64.5715 133.556 64.7664V65.9507C133.256 67.0449 132.042 67.5696 131.023 67.5696Z" fill="white"/>
<path d="M140.661 60.4492C139.567 60.4492 138.563 61.0489 138.113 61.8733V60.6291H136.989V68.379H138.113V63.4473C138.113 62.368 139.207 61.4536 140.511 61.4536C141.651 61.4536 142.445 62.338 142.445 63.5972V68.379H143.569V63.4473C143.569 61.6934 142.37 60.4492 140.661 60.4492Z" fill="white"/>
<path d="M149.43 63.7617H145.548V64.856H149.43V63.7617Z" fill="white"/>
<path d="M159.834 68.3783H161.108L156.566 58.0801H155.292L150.75 68.3783H152.024L153.058 66.0399H158.799L159.834 68.3783ZM153.538 64.9306L155.936 59.5191L158.32 64.9306H153.538Z" fill="white"/>
<path d="M164.48 59.5646C164.48 58.995 164.87 58.5903 165.32 58.5903C165.665 58.5903 165.964 58.7252 166.129 58.905L166.684 58.0806C166.279 57.7658 165.77 57.5859 165.245 57.5859C164.136 57.5859 163.356 58.4104 163.356 59.5646V60.6289H162.142V61.6333H163.356V68.3789H164.48V61.6333H166.384V60.6289H164.48V59.5646Z" fill="white"/>
<path d="M169.217 62.1431V60.6291H168.093V68.379H169.217V64.0469C169.217 62.5329 170.462 61.4536 172.215 61.4536V60.4492C170.791 60.4492 169.682 61.1088 169.217 62.1431Z" fill="white"/>
<path d="M174.329 59.2203C174.734 59.2203 175.064 58.8756 175.064 58.4708C175.064 58.0811 174.734 57.7363 174.329 57.7363C173.909 57.7363 173.58 58.0811 173.58 58.4708C173.58 58.8756 173.909 59.2203 174.329 59.2203ZM173.759 68.3793H174.884V60.6294H173.759V68.3793Z" fill="white"/>
<path d="M180.746 68.559C181.824 68.559 182.814 68.1092 183.548 67.3747L182.77 66.6102C182.244 67.1948 181.525 67.5546 180.746 67.5546C179.201 67.5546 177.912 66.1605 177.912 64.4966C177.912 62.8477 179.201 61.4536 180.746 61.4536C181.51 61.4536 182.215 61.7984 182.724 62.353L183.504 61.5885C182.77 60.884 181.795 60.4492 180.746 60.4492C178.572 60.4492 176.728 62.293 176.728 64.4966C176.728 66.7002 178.572 68.559 180.746 68.559Z" fill="white"/>
<path d="M188.42 60.4492C187.67 60.4492 186.741 60.6441 185.631 61.1988L186.081 62.1132C186.786 61.7534 187.565 61.4086 188.345 61.4086C190.024 61.4086 190.444 62.6078 190.444 63.6572V63.942C189.649 63.6871 188.765 63.5072 187.925 63.5072C186.261 63.5072 184.882 64.5416 184.882 66.0855C184.882 67.6146 186.081 68.559 187.716 68.559C188.734 68.559 189.889 68.0793 190.444 67.1649V68.379H191.568V63.6572C191.568 61.7833 190.533 60.4492 188.42 60.4492ZM187.91 67.5696C186.816 67.5696 185.977 66.9999 185.977 66.0406C185.977 65.1112 186.95 64.4516 188.105 64.4516C188.945 64.4516 189.739 64.5715 190.444 64.7664V65.9507C190.144 67.0449 188.929 67.5696 187.91 67.5696Z" fill="white"/>
<path d="M197.549 60.4492C196.455 60.4492 195.45 61.0489 195 61.8733V60.6291H193.876V68.379H195V63.4473C195 62.368 196.095 61.4536 197.399 61.4536C198.538 61.4536 199.333 62.338 199.333 63.5972V68.379H200.457V63.4473C200.457 61.6934 199.258 60.4492 197.549 60.4492Z" fill="white"/>
<path d="M127.86 84.4994H129.135L124.592 74.2012H123.318L118.776 84.4994H120.05L121.085 82.161H126.826L127.86 84.4994ZM121.564 81.0517L123.963 75.6402L126.346 81.0517H121.564Z" fill="white"/>
<path d="M136.779 76.7502V78.0843C136.179 77.14 135.19 76.5703 133.961 76.5703C131.877 76.5703 130.393 78.0843 130.393 80.2429C130.393 82.4015 131.877 83.9305 133.961 83.9305C135.19 83.9305 136.179 83.3609 136.779 82.4165V83.6757C136.779 85.1895 135.73 86.0742 133.946 86.0742C132.986 86.0742 132.057 85.7291 131.457 85.1595L130.963 86.0443C131.667 86.6438 132.836 87.0784 134.096 87.0784C136.329 87.0784 137.903 85.6692 137.903 83.6757V76.7502H136.779ZM134.171 82.9261C132.657 82.9261 131.577 81.8169 131.577 80.2429C131.577 78.6839 132.657 77.5747 134.171 77.5747C135.7 77.5747 136.779 78.6839 136.779 80.2429C136.779 81.8169 135.7 82.9261 134.171 82.9261Z" fill="white"/>
<path d="M143.779 83.6757C142.25 83.6757 141.186 82.5664 141.021 81.0524H147.362C147.362 78.3392 146.028 76.5703 143.689 76.5703C141.606 76.5703 139.867 78.2942 139.867 80.6027C139.867 82.9861 141.726 84.6798 143.794 84.6798C144.874 84.6798 146.238 84.2153 146.912 83.4808L146.223 82.7463C145.743 83.2709 144.694 83.6757 143.779 83.6757ZM143.734 77.5747C145.278 77.5747 146.103 78.6539 146.253 80.048H141.036C141.246 78.549 142.355 77.5747 143.734 77.5747Z" fill="white"/>
<path d="M152.893 76.5703C151.799 76.5703 150.795 77.1699 150.345 77.9944V76.7502H149.221V84.5001H150.345V79.5683C150.345 78.4891 151.439 77.5747 152.743 77.5747C153.883 77.5747 154.677 78.4591 154.677 79.7183V84.5001H155.801V79.5683C155.801 77.8145 154.602 76.5703 152.893 76.5703Z" fill="white"/>
<path d="M161.678 84.6798C162.757 84.6798 163.746 84.2304 164.481 83.4958L163.701 82.7313C163.177 83.3159 162.457 83.6757 161.678 83.6757C160.134 83.6757 158.844 82.2816 158.844 80.6177C158.844 78.9687 160.134 77.5747 161.678 77.5747C162.442 77.5747 163.147 77.9194 163.656 78.4741L164.436 77.7096C163.701 77.005 162.727 76.5703 161.678 76.5703C159.504 76.5703 157.66 78.4141 157.66 80.6177C157.66 82.8212 159.504 84.6798 161.678 84.6798Z" fill="white"/>
<path d="M167.359 87.1981C168.423 87.1833 169.173 86.6884 169.713 85.3695L173.25 76.75H172.036L169.473 83.1958L166.76 76.75H165.515L168.888 84.5298L168.439 85.4893C168.139 86.0142 167.809 86.1787 167.314 86.1787C166.984 86.1787 166.67 86.1188 166.4 85.9842L166.13 86.9432C166.49 87.1082 166.909 87.1981 167.359 87.1981Z" fill="white"/>
<path d="M179.711 84.4994H180.88V76.1199L187.266 84.4994H188.435V74.2012H187.266V82.5807L180.88 74.2012H179.711V84.4994Z" fill="white"/>
<path d="M194.477 83.6757C192.948 83.6757 191.883 82.5664 191.718 81.0524H198.059C198.059 78.3392 196.725 76.5703 194.386 76.5703C192.303 76.5703 190.564 78.2942 190.564 80.6027C190.564 82.9861 192.423 84.6798 194.492 84.6798C195.571 84.6798 196.935 84.2153 197.609 83.4808L196.92 82.7463C196.44 83.2709 195.391 83.6757 194.477 83.6757ZM194.432 77.5747C195.976 77.5747 196.8 78.6539 196.95 80.048H191.733C191.943 78.549 193.053 77.5747 194.432 77.5747Z" fill="white"/>
<path d="M203.305 83.3604C203.14 83.5403 202.841 83.6752 202.495 83.6752C202.046 83.6752 201.656 83.2705 201.656 82.7008V77.7541H203.56V76.7497H201.656V74.6211H200.532V76.7497H199.318V77.7541H200.532V82.7008C200.532 83.8551 201.311 84.6793 202.421 84.6793C202.946 84.6793 203.455 84.4996 203.86 84.1848L203.305 83.3604Z" fill="white"/>
<path d="M207.428 84.4999H208.492L210.576 78.309L212.629 84.4999H213.694L216.302 76.75H215.103L213.169 83.0009L211.056 76.75H210.081L207.968 83.0009L206.034 76.75H204.834L207.428 84.4999Z" fill="white"/>
<path d="M221.233 84.6798C223.406 84.6798 225.236 82.8212 225.236 80.6177C225.236 78.4141 223.406 76.5703 221.233 76.5703C219.059 76.5703 217.216 78.4141 217.216 80.6177C217.216 82.8212 219.059 84.6798 221.233 84.6798ZM221.233 83.6757C219.689 83.6757 218.4 82.2816 218.4 80.6177C218.4 78.9687 219.689 77.5747 221.233 77.5747C222.762 77.5747 224.052 78.9687 224.052 80.6177C224.052 82.2816 222.762 83.6757 221.233 83.6757Z" fill="white"/>
<path d="M228.324 78.2642V76.7502H227.2V84.5001H228.324V80.1679C228.324 78.6539 229.568 77.5747 231.322 77.5747V76.5703C229.897 76.5703 228.789 77.2299 228.324 78.2642Z" fill="white"/>
<path d="M239.672 76.7497H238.233L233.99 81.0369V74.0215H232.866V84.4996H233.99V82.446L235.384 81.0669L238.067 84.4996H239.477L236.179 80.3024L239.672 76.7497Z" fill="white"/>
<path d="M54.1293 75.1354L54.1228 75.1419L50.5732 74.7928L49.5452 74.6958L49.5388 74.6699C49.5905 74.6829 49.6422 74.6958 49.6939 74.7022L50.5732 74.7863L54.1293 75.1354Z" fill="white"/>
<path d="M31.6291 44.4238C31.6162 44.4497 31.6097 44.4756 31.6097 44.5014L31.6033 44.4497L31.6291 44.4238Z" fill="white"/>
<path fill-rule="evenodd" clip-rule="evenodd" d="M12.7433 83.9097L12.6981 84.0907L12.8338 84.0131C12.8015 83.9808 12.7692 83.942 12.7433 83.9097ZM11.8834 82.8558L11.67 82.9786C11.6636 82.9851 11.6571 82.9851 11.6506 82.998C11.7347 82.9398 11.8252 82.9075 11.9222 82.8946C11.9028 82.8817 11.8963 82.8687 11.8834 82.8558ZM11.3662 83.3213C11.3662 83.3213 11.3662 83.3278 11.3597 83.3342C11.3403 83.3795 11.3274 83.4183 11.3144 83.4636V83.4894C11.308 83.5282 11.3015 83.5605 11.3015 83.5993L11.3791 83.3019L11.3856 83.2631C11.3726 83.2825 11.3662 83.3019 11.3662 83.3213ZM11.3015 83.6317V83.5993C11.295 83.6058 11.295 83.6123 11.295 83.6187V83.6252C11.295 83.6769 11.3015 83.7286 11.3209 83.7804C11.308 83.7351 11.3015 83.6834 11.3015 83.6317ZM88.015 21.8597C88.0279 21.8791 88.0279 21.8921 88.0344 21.9115C88.0408 21.8985 88.0409 21.8856 88.0409 21.8662C88.0344 21.8662 88.0279 21.8597 88.015 21.8597ZM71.599 8.07516C71.5732 8.05577 71.5408 8.03637 71.5085 8.02344C71.515 8.0299 71.515 8.0299 71.5214 8.03637C71.5538 8.0493 71.5796 8.0687 71.6119 8.08809C71.6119 8.08163 71.6055 8.08163 71.599 8.07516Z" fill="white"/>
<path fill-rule="evenodd" clip-rule="evenodd" d="M96.1682 66.7696L87.4591 65.1985C87.4721 65.2696 87.4721 65.3472 87.4721 65.4183C87.4721 65.8579 87.4009 66.2717 87.2652 66.6661L95.7156 68.192C94.0087 73.3192 91.4613 78.0714 88.235 82.274L84.9117 69.0713C84.4979 69.22 84.0583 69.3041 83.5928 69.3041C83.541 69.3041 83.4893 69.3041 83.444 69.2976L86.819 82.7137L74.8449 75.802C74.6121 76.2481 74.2888 76.6425 73.9009 76.9658L85.1251 83.4443L68.7091 82.8882C68.8901 83.3343 68.9871 83.8193 68.9871 84.3236V84.3818L86.0302 84.9507C82.5453 88.8818 78.4268 92.2439 73.8427 94.8754L67.791 87.1296C67.4354 87.4723 67.0087 87.7439 66.5367 87.9314L72.5302 95.5995C66.097 99.0263 58.7975 101.044 51.0517 101.237L62.2048 86.8969C61.8492 86.496 61.5776 86.024 61.416 85.5068L50.5733 99.453V86.6641C50.3082 86.7158 50.0367 86.7482 49.7586 86.7482C49.5323 86.7482 49.3061 86.7288 49.0927 86.69V99.4724L38.9547 86.2697C38.6185 86.6318 38.2112 86.9292 37.7586 87.1361L48.5884 101.237C40.9267 101.037 33.7047 99.0586 27.3233 95.69L34.1509 86.9486C33.7177 86.6964 33.3427 86.3602 33.0453 85.9658L26.0108 94.9723C21.1164 92.1922 16.7457 88.5844 13.1056 84.3365L32.2694 84.0326C32.2565 83.8968 32.25 83.7611 32.25 83.6188C32.25 83.2503 32.3017 82.8882 32.3987 82.552L14.8965 82.8365L25.5905 76.7265C25.2802 76.3386 25.0539 75.886 24.9245 75.4011L13.1896 82.1059L16.3836 69.2976C15.8728 69.2718 15.3879 69.1489 14.9482 68.9485L11.5862 82.468C8.46331 78.4334 5.96116 73.8946 4.2284 68.9937L12.9569 66.8084C12.7888 66.3752 12.6982 65.9097 12.6982 65.4183V65.3536L3.75642 67.5842C2.41159 63.3622 1.62926 58.8881 1.49995 54.2523L13.2866 63.3816C13.5452 62.9549 13.8879 62.5799 14.2888 62.289L3.12926 53.6445L15.9245 53.7156C15.8728 53.4505 15.8405 53.179 15.8405 52.8945C15.8405 52.6682 15.8599 52.4484 15.8987 52.235L3.12926 52.1704L14.237 43.6746C13.8426 43.3772 13.5 43.0022 13.2478 42.569L1.49995 51.5497C1.64219 46.3966 2.59262 41.4375 4.2284 36.8082L12.75 39.9893C12.8211 39.4849 12.9957 39.013 13.2478 38.5992L4.73917 35.4246C6.38142 31.1832 8.61203 27.2262 11.3211 23.6637L14.8319 37.125C15.2586 36.8987 15.737 36.7629 16.2478 36.7177L12.8082 23.5085L25.0345 30.5366C25.209 30.0646 25.4741 29.6379 25.8168 29.2823L14.0431 22.5128L31.6746 22.8943C31.6034 22.6034 31.5646 22.2995 31.5646 21.9891C31.5646 21.7952 31.5776 21.6077 31.6099 21.4202L13.4741 21.0258C17.2306 16.7456 21.7306 13.1378 26.7672 10.3899L32.5539 19.4094C32.8772 19.0344 33.278 18.7305 33.7306 18.5107L28.0797 9.71105C34.1573 6.63344 40.9655 4.81015 48.1681 4.57093L37.5582 18.737C37.9785 19.0085 38.347 19.3641 38.625 19.7779L49.0927 5.79938V18.9568C49.3319 18.9115 49.5841 18.8857 49.8362 18.8857C50.0884 18.8857 50.3341 18.9115 50.5733 18.9568V5.59895L61.1056 19.39C61.3837 18.9762 61.7522 18.627 62.1725 18.3555L51.653 4.57739C58.2479 4.81662 64.513 6.38128 70.1768 9.01923L65.6315 17.9934C66.1035 18.1615 66.5302 18.4331 66.8923 18.7693L71.5087 9.66579C77.1143 12.4783 82.0992 16.3576 86.2048 21.0322L68.1337 21.4202C68.1466 21.4848 68.1466 21.5559 68.1466 21.6206C68.1466 22.0667 68.069 22.4999 67.9268 22.9008L85.0927 22.5322L73.9785 28.9525C74.3664 29.2758 74.6833 29.6702 74.916 30.1163L86.819 23.2435L83.3858 36.8276C83.5927 36.7888 83.8061 36.7694 84.0259 36.7694C84.3233 36.7694 84.6143 36.8017 84.8923 36.8664L88.2609 23.5473C91.1639 27.3362 93.5173 31.5711 95.1984 36.1293L87.304 38.5862C87.569 39 87.7565 39.4655 87.8406 39.9634L95.6962 37.5194C97.1574 41.8837 98.0173 46.5195 98.166 51.3363L87.194 42.8858C86.9031 43.2996 86.5346 43.6488 86.1143 43.9138L96.8148 52.1574H84.0906C84.1358 52.3967 84.1617 52.6423 84.1617 52.8945C84.1617 53.1467 84.1358 53.3923 84.0906 53.6316H96.7954L85.6488 62.1338C86.082 62.3989 86.4505 62.748 86.7415 63.1618L98.166 54.4527C98.0303 58.72 97.3449 62.8515 96.1682 66.7696ZM12.6982 84.0908L12.7435 83.9098C12.7694 83.9421 12.8017 83.9809 12.834 84.0132L12.6982 84.0908ZM11.6508 82.9981C11.6573 82.9852 11.6638 82.9852 11.6702 82.9787L11.8836 82.8559C11.8965 82.8688 11.903 82.8818 11.9224 82.8947C11.8254 82.9076 11.7349 82.9399 11.6508 82.9981ZM11.3793 83.302L11.3017 83.5994V83.6318C11.3017 83.6835 11.3082 83.7352 11.3211 83.7805C11.3017 83.7287 11.2952 83.677 11.2952 83.6253V83.6188C11.2952 83.6124 11.2952 83.6059 11.3017 83.5994C11.3017 83.5606 11.3081 83.5283 11.3146 83.4895V83.4637C11.3211 83.4184 11.334 83.3731 11.3599 83.3343C11.3663 83.3279 11.3663 83.3214 11.3663 83.3214C11.3663 83.302 11.3728 83.2826 11.3857 83.2632L11.3793 83.302ZM88.041 21.8663C88.041 21.8857 88.041 21.8986 88.0346 21.9116C88.0281 21.8922 88.0281 21.8792 88.0152 21.8598C88.0281 21.8598 88.0346 21.8663 88.041 21.8663ZM96.8923 36.4914C96.8923 36.4785 96.8923 36.472 96.8859 36.4591C96.8665 36.3879 96.8406 36.3168 96.8083 36.2522C92.4311 23.8835 83.2889 13.765 71.5992 8.07526C71.6057 8.08173 71.6121 8.08173 71.6121 8.08819C71.5798 8.06879 71.5539 8.0494 71.5216 8.03647C71.5151 8.03 71.5151 8.03 71.5087 8.02353H71.5022C71.4957 8.01707 71.4828 8.0106 71.4763 8.0106C64.9332 4.84895 57.5884 3.06445 49.8362 3.06445C22.3319 3.06445 0.00640449 25.3836 -6.10352e-05 52.888V52.8945C-6.10352e-05 71.5541 10.2801 87.8279 25.4741 96.3689H25.4806C25.7069 96.4982 25.9396 96.6275 26.1659 96.7504C33.2069 100.565 41.2694 102.731 49.8362 102.731C72.1229 102.731 91.0087 88.0671 97.3708 67.8687C97.3902 67.8299 97.4031 67.7847 97.4096 67.7394C98.8773 63.0519 99.6661 58.0605 99.6661 52.8945C99.6661 47.1466 98.6898 41.625 96.8923 36.4914Z" fill="white"/>
<path fill-rule="evenodd" clip-rule="evenodd" d="M65.0172 55.9535L63.9181 57.6022C63.7564 57.5505 63.5948 57.5181 63.4267 57.4987C63.2457 57.4664 63.0582 57.4535 62.8707 57.4535C62.6379 57.4535 62.4116 57.4729 62.1982 57.5117L64.0151 54.7832C64.1961 55.1 64.4095 55.3845 64.6681 55.6367V55.6431C64.778 55.753 64.8944 55.8565 65.0172 55.9535Z" fill="white"/>
<path fill-rule="evenodd" clip-rule="evenodd" d="M46.8684 59.2888C46.474 59.3276 46.1055 59.4246 45.7628 59.5733C45.6594 59.6186 45.5559 59.6703 45.459 59.722L43.6745 54.0582L41.3792 53.9677C41.4374 53.7737 41.4827 53.5733 41.5085 53.3664C41.5408 53.1853 41.5538 52.9978 41.5538 52.8103C41.5538 52.7069 41.5473 52.6034 41.5408 52.5L44.2564 52.6034C44.5667 52.6164 44.8383 52.8233 44.9288 53.1207L46.8684 59.2888Z" fill="white"/>
<path fill-rule="evenodd" clip-rule="evenodd" d="M71.6121 8.08883C71.5797 8.06944 71.5539 8.05004 71.5215 8.03711C71.5474 8.05004 71.5733 8.06297 71.5991 8.0759C71.6056 8.08237 71.6121 8.08237 71.6121 8.08883Z" fill="white"/>
<path fill-rule="evenodd" clip-rule="evenodd" d="M72.7434 71.9815C72.7757 72.0009 72.8081 72.0203 72.8339 72.0461L72.918 71.8457L72.7434 71.9815Z" fill="white"/>
<path fill-rule="evenodd" clip-rule="evenodd" d="M79.2222 49.1632C78.737 49.2989 78.2911 49.5317 77.9033 49.8419L72.0647 35.7467C72.569 35.6756 73.0409 35.508 73.4613 35.2493L79.2222 49.1632Z" fill="white"/>
<path fill-rule="evenodd" clip-rule="evenodd" d="M68.3474 29.6305C68.0559 30.0248 67.8365 30.4773 67.72 30.9692L53.0753 24.8975C53.347 24.4903 53.5408 24.0312 53.6381 23.5402L68.3474 29.6305Z" fill="white"/>
<path fill-rule="evenodd" clip-rule="evenodd" d="M46.5969 24.899L32.3724 30.7957C32.2302 30.3108 31.9913 29.8646 31.6806 29.4832L46.0343 23.535C46.1315 24.0329 46.3254 24.4922 46.5969 24.899Z" fill="white"/>
<path fill-rule="evenodd" clip-rule="evenodd" d="M27.6401 35.6642L21.8469 49.6559C21.4394 49.3843 20.9803 49.1901 20.4828 49.0869L26.3143 35.011C26.7025 35.3089 27.1549 35.5347 27.6401 35.6642Z" fill="white"/>
<path fill-rule="evenodd" clip-rule="evenodd" d="M80.043 63.8605C79.8426 64.3066 79.7262 64.7915 79.7198 65.3088L75.9116 64.617L73.4094 70.6558C72.9891 70.3972 72.5236 70.2226 72.0193 70.1515L74.418 64.3519L66.4137 62.9101C66.6141 62.4704 66.7305 61.979 66.7434 61.4682L74.9999 62.9553L77.8965 55.9531C78.2844 56.2635 78.737 56.4962 79.2219 56.632L76.4935 63.2204L80.043 63.8605Z" fill="white"/>
<path fill-rule="evenodd" clip-rule="evenodd" d="M68.2434 76.2023L53.586 82.267C53.5149 81.7688 53.3405 81.2966 53.0883 80.8832L67.6423 74.8508C67.7518 75.3421 67.9593 75.8013 68.2434 76.2023Z" fill="white"/>
<path fill-rule="evenodd" clip-rule="evenodd" d="M46.4611 80.8317C46.2027 81.2457 46.0213 81.7109 45.9373 82.2091L31.946 76.4157C32.2044 76.0084 32.3919 75.543 32.4764 75.0389L46.4611 80.8317Z" fill="white"/>
<path fill-rule="evenodd" clip-rule="evenodd" d="M27.821 70.5644C27.33 70.6677 26.8704 70.8679 26.4695 71.1525L20.4826 56.7022C20.9807 56.6053 21.4398 56.4113 21.8468 56.1395L27.821 70.5644Z" fill="white"/>
<path fill-rule="evenodd" clip-rule="evenodd" d="M50.5732 26.5742V35.1088C50.334 35.0635 50.0883 35.0376 49.8361 35.0376C49.584 35.0376 49.3318 35.0635 49.0926 35.1088V26.5742C49.3318 26.6195 49.584 26.6453 49.8361 26.6453C50.0883 26.6453 50.334 26.6195 50.5732 26.5742Z" fill="white"/>
<path fill-rule="evenodd" clip-rule="evenodd" d="M76.4031 52.8953C76.4031 53.1474 76.429 53.3931 76.4742 53.6324H71.2178C71.263 53.3931 71.2889 53.1474 71.2889 52.8953C71.2889 52.6431 71.263 52.3974 71.2178 52.1582H76.4742C76.429 52.3974 76.4031 52.6431 76.4031 52.8953Z" fill="white"/>
<path fill-rule="evenodd" clip-rule="evenodd" d="M23.5021 53.7554C23.5667 53.4774 23.5991 53.1929 23.5991 52.8955C23.5991 52.6821 23.5797 52.4817 23.5473 52.2812L33.8211 52.333C33.8017 52.4881 33.7887 52.6498 33.7887 52.8114C33.7887 53.1541 33.834 53.4903 33.9245 53.8071L23.5021 53.7554Z" fill="white"/>
<path fill-rule="evenodd" clip-rule="evenodd" d="M26.1659 96.7506C25.9913 96.77 25.8167 96.7183 25.6745 96.6019C25.5904 96.5372 25.5258 96.4597 25.4805 96.3691C25.7068 96.4985 25.9396 96.6278 26.1659 96.7506Z" fill="white"/>
<path fill-rule="evenodd" clip-rule="evenodd" d="M81.194 65.5352V65.5739L81.1552 65.5675L81.194 65.5352Z" fill="white"/>
<path fill-rule="evenodd" clip-rule="evenodd" d="M96.8858 36.4589C96.8664 36.3877 96.8406 36.3166 96.8082 36.252C96.8341 36.2907 96.8535 36.336 96.8664 36.3813C96.8729 36.4071 96.8793 36.433 96.8858 36.4589Z" fill="white"/>
<path fill-rule="evenodd" clip-rule="evenodd" d="M71.6117 8.08851C71.5796 8.06918 71.5536 8.04985 71.5214 8.03663C71.5148 8.03018 71.5148 8.03018 71.5087 8.02408C71.5411 8.03676 71.5733 8.05609 71.599 8.07597C71.6056 8.08241 71.6117 8.08241 71.6117 8.08851Z" fill="white"/>
<path fill-rule="evenodd" clip-rule="evenodd" d="M11.3209 83.7806C11.3015 83.7289 11.295 83.6772 11.295 83.6255V83.619C11.295 83.6125 11.295 83.6061 11.3015 83.5996V83.6319C11.3015 83.6837 11.308 83.7354 11.3209 83.7806Z" fill="white"/>
<path fill-rule="evenodd" clip-rule="evenodd" d="M11.3857 83.2637L11.3793 83.3025L11.3017 83.5999C11.3017 83.5611 11.3082 83.5288 11.3146 83.49V83.4641C11.3276 83.4188 11.3405 83.3801 11.3599 83.3348C11.3664 83.3283 11.3664 83.3219 11.3664 83.3219C11.3664 83.3025 11.3728 83.2831 11.3857 83.2637Z" fill="white"/>
<path fill-rule="evenodd" clip-rule="evenodd" d="M11.9223 82.8946C11.8251 82.9079 11.735 82.94 11.6507 82.9981C11.6573 82.985 11.6634 82.985 11.6702 82.9786L11.8834 82.8557C11.8965 82.8684 11.903 82.8819 11.9223 82.8946Z" fill="white"/>
<path fill-rule="evenodd" clip-rule="evenodd" d="M12.834 84.0136L12.6982 84.0912L12.7435 83.9102C12.7694 83.9425 12.8017 83.9813 12.834 84.0136Z" fill="white"/>
<path fill-rule="evenodd" clip-rule="evenodd" d="M44.5603 65.8769L32.2629 72.9114H32.2564C32.0754 72.4459 31.7974 72.0256 31.4547 71.67L43.7263 64.6484C43.9267 65.114 44.2112 65.5278 44.5603 65.8769Z" fill="white"/>
<path fill-rule="evenodd" clip-rule="evenodd" d="M38.2952 36.4527L37.3191 37.5968L31.6809 34.3574C31.9915 33.9764 32.2304 33.53 32.3727 33.0514L38.2952 36.4527Z" fill="white"/>
<path fill-rule="evenodd" clip-rule="evenodd" d="M46.5451 36.8668C46.3964 37.0931 46.2801 37.3388 46.1895 37.5974C46.0861 37.8755 46.015 38.1599 45.9826 38.4638L44.3081 36.563L39.6076 37.1901L33.1292 44.8065L34.1701 50.3734L34.4934 50.5867C34.2671 50.9036 34.0925 51.2527 33.9762 51.6277C33.9374 51.7312 33.9115 51.8411 33.8856 51.951L33.0968 51.4337C32.9287 51.3238 32.8124 51.1493 32.7736 50.9488L31.6162 44.729C31.6033 44.6514 31.5968 44.5738 31.6098 44.5027C31.6098 44.4768 31.6162 44.4509 31.6292 44.4251C31.6486 44.3087 31.7003 44.2052 31.7779 44.1147L37.3188 37.5974L38.2951 36.453L38.6701 36.0134C38.7865 35.8711 38.9546 35.7806 39.1356 35.7612L44.5085 35.0435C44.7477 35.0112 44.9934 35.1017 45.1615 35.2892L46.5451 36.8668Z" fill="white"/>
<path fill-rule="evenodd" clip-rule="evenodd" d="M68.1332 71.9292C67.8622 72.3495 67.6809 72.8215 67.5969 73.3253L59.9418 68.9035L60.9245 67.7714L68.1332 71.9292Z" fill="white"/>
<path fill-rule="evenodd" clip-rule="evenodd" d="M61.6746 65.024L61.1186 67.4163C61.0927 67.5327 61.0345 67.6426 60.9569 67.7331L60.9246 67.7719L59.9418 68.9034L54.7694 74.884C54.6142 75.0715 54.375 75.162 54.1358 75.1362H54.1293L50.5733 74.787L49.694 74.703C49.6422 74.6965 49.5905 74.6836 49.5388 74.6707C49.3513 74.606 49.1897 74.4767 49.1056 74.2957V74.2892C49.0797 74.2375 49.0603 74.1857 49.0474 74.134L47.431 66.996C47.5539 66.996 47.6767 66.9831 47.7931 66.9637C48.1746 66.9185 48.5302 66.815 48.8664 66.6663L50.3664 73.287L53.903 73.6297L59.722 66.9055L60.3362 64.2676C60.5884 64.4874 60.8729 64.6749 61.1767 64.8236C61.3384 64.9012 61.5 64.9659 61.6746 65.024Z" fill="white"/>
<path fill-rule="evenodd" clip-rule="evenodd" d="M68.198 33.9885L58.2216 39.7494L57.4653 38.4824L67.6615 32.5991C67.7456 33.103 67.933 33.5749 68.198 33.9885Z" fill="white"/>
<path fill-rule="evenodd" clip-rule="evenodd" d="M67.9137 49.0544C67.7456 49.0286 67.5775 49.0156 67.4094 49.0156C67.0991 49.0156 66.7952 49.0544 66.5042 49.1255H66.4978C65.8836 49.2678 65.3275 49.5652 64.8685 49.9661L63.1551 50.076C62.8836 50.0954 62.6185 49.9531 62.4762 49.7204L56.3404 39.4725L53.5926 39.8669C53.6766 39.563 53.7154 39.2462 53.7154 38.9164C53.7154 38.8712 53.7154 38.8259 53.709 38.7871C53.709 38.6449 53.696 38.5026 53.6702 38.3669L56.612 37.9401C56.9094 37.9013 57.2004 38.0371 57.3491 38.2957L57.4654 38.4832L58.2219 39.7505L63.5107 48.5695L67.0926 48.3432C67.4224 48.3238 67.7262 48.5242 67.8361 48.8346L67.9137 49.0544Z" fill="white"/>
<path fill-rule="evenodd" clip-rule="evenodd" d="M69.847 28.4026C69.3881 28.609 68.987 28.9069 68.6511 29.2689L65.5923 25.2666C66.0649 25.0984 66.4978 24.8336 66.8598 24.4972L69.847 28.4026Z" fill="white"/>
<path fill-rule="evenodd" clip-rule="evenodd" d="M82.998 44.3859L81.7501 49.3063C81.304 49.1191 80.819 49.0221 80.3084 49.0153L81.6467 43.707C82.0412 44.0239 82.4997 44.2569 82.998 44.3859Z" fill="white"/>
<path fill-rule="evenodd" clip-rule="evenodd" d="M88.0409 21.8658C88.0409 21.8852 88.0409 21.8982 88.0344 21.9111C88.0279 21.8917 88.0279 21.8788 88.015 21.8594C88.0279 21.8594 88.0344 21.8658 88.0409 21.8658Z" fill="white"/>
<path fill-rule="evenodd" clip-rule="evenodd" d="M72.918 71.8457L72.834 72.0461C72.8081 72.0203 72.7758 72.0009 72.7435 71.9815L72.918 71.8457Z" fill="white"/>
<path fill-rule="evenodd" clip-rule="evenodd" d="M80.5801 67.8693L74.8771 72.2144C74.651 71.7682 74.3338 71.3668 73.9591 71.05L79.8748 66.5371C80.0234 67.0287 80.2631 67.4809 80.5801 67.8693Z" fill="white"/>
<path fill-rule="evenodd" clip-rule="evenodd" d="M81.194 65.5352V65.5739L81.1552 65.5675L81.194 65.5352Z" fill="white"/>
<path fill-rule="evenodd" clip-rule="evenodd" d="M61.61 82.6499C61.3966 83.096 61.2608 83.5938 61.2414 84.1175L53.5087 83.8589C53.5927 83.5421 53.638 83.2124 53.638 82.8697C53.638 82.708 53.625 82.5464 53.6056 82.3848L61.61 82.6499Z" fill="white"/>
<path fill-rule="evenodd" clip-rule="evenodd" d="M34.2932 80.1979C33.8534 80.4372 33.4657 80.7539 33.1486 81.1352L30.5429 77.7473C30.9759 77.5019 31.364 77.1786 31.6742 76.7974L34.2932 80.1979Z" fill="white"/>
<path fill-rule="evenodd" clip-rule="evenodd" d="M11.3209 83.7808C11.3015 83.7291 11.295 83.6773 11.295 83.6256V83.6191H11.3015V83.6321C11.3015 83.6838 11.308 83.7355 11.3209 83.7808Z" fill="white"/>
<path fill-rule="evenodd" clip-rule="evenodd" d="M11.9223 82.8946C11.8251 82.9079 11.735 82.94 11.6507 82.9981C11.6573 82.985 11.6634 82.985 11.6702 82.9786L11.8834 82.8557C11.8965 82.8684 11.903 82.8819 11.9223 82.8946Z" fill="white"/>
<path fill-rule="evenodd" clip-rule="evenodd" d="M19.5002 56.7681L18.22 61.9083C17.7864 61.7017 17.3015 61.5722 16.7906 61.5529L18.0708 56.4127C18.5044 56.6193 18.9893 56.7488 19.5002 56.7681Z" fill="white"/>
<path fill-rule="evenodd" clip-rule="evenodd" d="M25.965 34.7068L20.1786 39.1355C19.991 38.6701 19.7134 38.25 19.364 37.8945L25.112 33.4976C25.312 33.9568 25.6034 34.3705 25.965 34.7068Z" fill="white"/>
<path fill-rule="evenodd" clip-rule="evenodd" d="M45.9568 22.7646C45.9568 22.9133 45.9632 23.062 45.9826 23.2043L39.1744 23.0556C39.2714 22.7194 39.3231 22.3573 39.3231 21.9888C39.3231 21.853 39.3167 21.7172 39.3037 21.5879L46.099 21.7301C46.002 22.0599 45.9568 22.409 45.9568 22.7646Z" fill="white"/>
<path fill-rule="evenodd" clip-rule="evenodd" d="M53.6896 23.2043C53.709 23.062 53.7154 22.9133 53.7154 22.7646C53.7154 22.409 53.6702 22.0599 53.5732 21.7301L60.3878 21.5879V21.6202C60.3878 22.1245 60.4848 22.6094 60.6659 23.0556L53.6896 23.2043Z" fill="white"/>
<path fill-rule="evenodd" clip-rule="evenodd" d="M88.0409 21.8658C88.0409 21.8852 88.0409 21.8982 88.0344 21.9111C88.0279 21.8917 88.0279 21.8788 88.015 21.8594C88.0279 21.8594 88.0344 21.8658 88.0409 21.8658Z" fill="white"/>
<path fill-rule="evenodd" clip-rule="evenodd" d="M46.7326 23.2505L46.7908 23.2246H46.7326C46.7261 23.2311 46.7326 23.244 46.7326 23.2505ZM52.8749 23.2246L52.9395 23.2505C52.9395 23.244 52.946 23.2311 52.946 23.2246H52.8749Z" fill="white"/>
<path fill-rule="evenodd" clip-rule="evenodd" d="M46.7326 23.2505L46.7908 23.2246H46.7326C46.7261 23.2311 46.7326 23.244 46.7326 23.2505ZM52.8749 23.2246L52.9395 23.2505C52.9395 23.244 52.946 23.2311 52.946 23.2246H52.8749Z" fill="white"/>
<path fill-rule="evenodd" clip-rule="evenodd" d="M52.9395 23.249L52.8748 23.2232H52.946C52.946 23.2296 52.9395 23.2426 52.9395 23.249ZM52.2218 22.9516C52.2218 23.0486 52.2089 23.1391 52.1895 23.2361C52.1054 23.637 51.9244 24.012 51.6593 24.3158C51.3813 24.652 51.0063 24.9107 50.5731 25.0464C50.3404 25.124 50.0947 25.1628 49.836 25.1628C49.5774 25.1628 49.3253 25.124 49.0925 25.04C48.6658 24.9042 48.2908 24.652 48.0063 24.3158C47.7477 24.012 47.5602 23.637 47.4826 23.2361C47.4567 23.1391 47.4438 23.0486 47.4438 22.9516C47.4309 22.8869 47.4309 22.8288 47.4309 22.7641C47.4309 22.4085 47.5085 22.0723 47.6507 21.7684C47.9222 21.1606 48.446 20.6887 49.0925 20.4818C49.3253 20.3977 49.5774 20.3589 49.836 20.3589C50.0947 20.3589 50.3404 20.3977 50.5731 20.4753C51.2197 20.6822 51.7434 21.1606 52.0149 21.7684C52.1572 22.0723 52.2348 22.4085 52.2348 22.7641C52.2348 22.8288 52.2348 22.8869 52.2218 22.9516ZM46.7326 23.249C46.7326 23.2426 46.7261 23.2296 46.7326 23.2232H46.7908L46.7326 23.249ZM53.5731 21.7296C53.1852 20.3201 52.0214 19.2339 50.5731 18.9559C50.3339 18.9106 50.0882 18.8848 49.836 18.8848C49.5839 18.8848 49.3317 18.9106 49.0925 18.9559C47.6442 19.2404 46.4869 20.3266 46.099 21.7296C46.002 22.0594 45.9567 22.4085 45.9567 22.7641C45.9567 22.9128 45.9632 23.0615 45.9826 23.2038C45.9955 23.3137 46.0085 23.4236 46.0343 23.5335C46.1313 24.0313 46.3253 24.4904 46.5968 24.8977C47.1593 25.7512 48.0516 26.3719 49.0925 26.5723C49.3317 26.6176 49.5839 26.6434 49.836 26.6434C50.0882 26.6434 50.3339 26.6176 50.5731 26.5723C51.6141 26.3719 52.5128 25.7512 53.0753 24.8977C53.3468 24.4904 53.5408 24.0313 53.6378 23.54C53.6572 23.4301 53.6766 23.3201 53.6895 23.2038C53.7089 23.0615 53.7154 22.9128 53.7154 22.7641C53.7154 22.4085 53.6701 22.0594 53.5731 21.7296Z" fill="white"/>
<path fill-rule="evenodd" clip-rule="evenodd" d="M81.0521 38.1533C80.7284 38.5351 80.4828 38.9747 80.3274 39.4594L74.1662 34.7136C74.5278 34.3775 74.8191 33.9636 75.0196 33.5116L81.0521 38.1533Z" fill="white"/>
<path fill-rule="evenodd" clip-rule="evenodd" d="M83.0306 61.585C82.5258 61.6493 82.0541 61.8243 81.6337 62.0764L80.302 56.7809C80.8122 56.7811 81.3036 56.6775 81.7503 56.49L83.0306 61.585Z" fill="white"/>
<path fill-rule="evenodd" clip-rule="evenodd" d="M69.588 77.3983L66.8854 80.8768C66.4201 80.6315 65.8964 80.4825 65.3402 80.4565L68.4437 76.4609C68.7607 76.8423 69.1487 77.1659 69.588 77.3983Z" fill="white"/>
<path fill-rule="evenodd" clip-rule="evenodd" d="M11.3792 83.3027L11.3016 83.6001C11.3016 83.5614 11.308 83.529 11.3145 83.4902V83.4644C11.3274 83.4191 11.3404 83.3803 11.3598 83.3351C11.3662 83.3286 11.3662 83.3221 11.3662 83.3221C11.3662 83.3157 11.3727 83.3092 11.3792 83.3027Z" fill="white"/>
<path fill-rule="evenodd" clip-rule="evenodd" d="M12.834 84.0136L12.6982 84.0912L12.7435 83.9102C12.7694 83.9425 12.8017 83.9813 12.834 84.0136Z" fill="white"/>
<path fill-rule="evenodd" clip-rule="evenodd" d="M39.9955 83.909C40.002 83.812 40.0084 83.7151 40.0084 83.6181C40.0084 83.2043 39.9438 82.8099 39.8274 82.4349L45.9179 82.3379C45.8921 82.5125 45.8791 82.687 45.8791 82.8681C45.8791 83.1913 45.9179 83.5082 45.9955 83.812L39.9955 83.909Z" fill="white"/>
<path fill-rule="evenodd" clip-rule="evenodd" d="M26.1013 71.4372C25.7262 71.7599 25.416 72.161 25.1962 72.607L19.377 68.1009C19.7197 67.7448 19.9977 67.3183 20.1788 66.8531L26.1013 71.4372Z" fill="white"/>
<path fill-rule="evenodd" clip-rule="evenodd" d="M19.4544 49.0278C18.9439 49.0596 18.465 49.1891 18.0323 49.4026L16.7387 44.4563C17.2559 44.4371 17.7412 44.321 18.1807 44.1201L19.4544 49.0278Z" fill="white"/>
<path fill-rule="evenodd" clip-rule="evenodd" d="M34.2155 25.6683L31.5065 29.289C31.1702 28.9268 30.7694 28.6228 30.3101 28.4165L32.9224 24.9316C33.2973 25.2615 33.7373 25.5131 34.2155 25.6683Z" fill="white"/>
<path fill-rule="evenodd" clip-rule="evenodd" d="M50.5732 74.7928V79.073C50.3081 79.0212 50.0366 78.9889 49.7585 78.9889C49.5322 78.9889 49.306 79.0083 49.0926 79.0471V74.4048C49.0926 74.366 49.0926 74.3337 49.1055 74.2949C49.1896 74.476 49.3512 74.6053 49.5387 74.6699L49.5452 74.6958L50.5732 74.7928Z" fill="white"/>
<path fill-rule="evenodd" clip-rule="evenodd" d="M50.5732 74.7863V74.7928L49.5452 74.6958L49.5387 74.6699C49.5904 74.6829 49.6421 74.6958 49.6939 74.7022L50.5732 74.7863Z" fill="white"/>
<path fill-rule="evenodd" clip-rule="evenodd" d="M37.6098 23.0232C37.2219 23.8314 36.4007 24.3874 35.4438 24.3874C35.3598 24.3874 35.2693 24.381 35.1852 24.3745C34.6615 24.3163 34.1831 24.09 33.8145 23.7409C33.5688 23.521 33.3684 23.243 33.2391 22.9262H33.2326C33.1098 22.6353 33.0451 22.3185 33.0451 21.9887C33.0451 21.8077 33.0645 21.6266 33.1033 21.4521C33.1615 21.1934 33.2649 20.9542 33.4007 20.7344C33.6593 20.3012 34.0602 19.9585 34.5322 19.7646C34.8102 19.6482 35.1206 19.5835 35.4438 19.5835C35.89 19.5835 36.3167 19.7064 36.6723 19.9262C37.1119 20.1848 37.4675 20.5857 37.668 21.0641C37.7262 21.2193 37.7779 21.3874 37.8037 21.5555C37.8361 21.6978 37.849 21.84 37.849 21.9887C37.849 22.3572 37.765 22.7129 37.6098 23.0232ZM39.3038 21.5878C39.2326 20.9154 38.9934 20.3012 38.6249 19.7775C38.3469 19.3637 37.9783 19.0081 37.5581 18.7365C36.9503 18.3357 36.2262 18.1094 35.4438 18.1094C34.8296 18.1094 34.2477 18.2516 33.7305 18.5102C33.2779 18.7301 32.877 19.0339 32.5537 19.409C32.0559 19.9585 31.7197 20.6503 31.6098 21.4197C31.5774 21.6072 31.5645 21.7947 31.5645 21.9887C31.5645 22.2991 31.6033 22.6029 31.6744 22.8939C31.8619 23.7021 32.3145 24.4133 32.9223 24.9305C33.2973 25.2603 33.7369 25.5124 34.2154 25.6676C34.6033 25.7969 35.0171 25.868 35.4438 25.868C37.2219 25.868 38.7154 24.6784 39.1744 23.0555C39.2714 22.7193 39.3231 22.3572 39.3231 21.9887C39.3231 21.8529 39.3167 21.7172 39.3038 21.5878Z" fill="white"/>
<path fill-rule="evenodd" clip-rule="evenodd" d="M19.8749 55.248L19.8943 55.2933H19.8685L19.8749 55.248Z" fill="white"/>
<path fill-rule="evenodd" clip-rule="evenodd" d="M19.8944 50.502L19.862 50.5795L19.8427 50.502H19.8944Z" fill="white"/>
<path fill-rule="evenodd" clip-rule="evenodd" d="M21.9632 53.7419C21.8209 54.1299 21.5753 54.4726 21.2649 54.7312C20.8899 55.048 20.4115 55.2549 19.8942 55.2937H19.8684C19.8166 55.3001 19.7714 55.3001 19.7196 55.3001C19.2541 55.3001 18.808 55.1644 18.4395 54.9251C17.9934 54.6471 17.6442 54.2269 17.4632 53.7225C17.3662 53.4639 17.3145 53.1859 17.3145 52.895C17.3145 52.6687 17.3468 52.4553 17.405 52.2484C17.5666 51.6794 17.9287 51.1945 18.4136 50.8777C18.7886 50.6385 19.2412 50.4962 19.7196 50.4962C19.7584 50.4962 19.8037 50.4962 19.8425 50.5027H19.8942C20.4115 50.5415 20.8899 50.7419 21.2649 51.0587C21.6334 51.3691 21.9115 51.7893 22.0343 52.2743C22.0925 52.4747 22.1184 52.6816 22.1184 52.895C22.1184 53.1924 22.0666 53.4769 21.9632 53.7419ZM23.5472 52.2807C23.3727 51.1816 22.7391 50.2376 21.8468 49.6557C21.4395 49.3842 20.9804 49.1902 20.4826 49.0867C20.2369 49.0415 19.9783 49.0156 19.7196 49.0156C19.6291 49.0156 19.5386 49.0156 19.4546 49.0286C18.9438 49.0609 18.4653 49.1902 18.0321 49.4036C16.9265 49.9402 16.1119 50.9876 15.8985 52.2355C15.8597 52.4488 15.8403 52.6687 15.8403 52.895C15.8403 53.1794 15.8727 53.451 15.9244 53.7161H15.9308C16.183 54.9122 16.9912 55.9079 18.0709 56.4122C18.5041 56.6191 18.989 56.7484 19.4998 56.7678C19.5709 56.7808 19.6421 56.7808 19.7196 56.7808C19.9783 56.7808 20.2369 56.7549 20.4826 56.7032C20.9804 56.6062 21.4395 56.4122 21.8468 56.1407C22.6679 55.604 23.2757 54.7506 23.502 53.7549C23.5666 53.4769 23.599 53.1924 23.599 52.895C23.599 52.6816 23.5796 52.4812 23.5472 52.2807Z" fill="white"/>
<path fill-rule="evenodd" clip-rule="evenodd" d="M31.2478 76.1259C31.2414 76.1453 31.2284 76.1647 31.209 76.1841L31.1185 76.0742L31.2478 76.1259Z" fill="white"/>
<path fill-rule="evenodd" clip-rule="evenodd" d="M31.1184 76.0742L31.2089 76.1841C31.2283 76.1647 31.2413 76.1453 31.2477 76.1259L31.1184 76.0742Z" fill="white"/>
<path fill-rule="evenodd" clip-rule="evenodd" d="M31.209 76.1837L31.1185 76.0738L31.2478 76.1255C31.2413 76.1449 31.2284 76.1643 31.209 76.1837ZM31.0538 74.4509C31.0409 74.8583 30.9245 75.2333 30.7306 75.563C30.6788 75.66 30.6142 75.7505 30.5431 75.8346C30.3038 76.1449 29.987 76.3971 29.625 76.5587C29.3275 76.688 28.9978 76.7591 28.6551 76.7591C27.9569 76.7591 27.3232 76.4552 26.89 75.9768C26.5538 75.6147 26.334 75.1492 26.2758 74.632C26.2629 74.5414 26.2564 74.4509 26.2564 74.3539C26.2564 74.063 26.3081 73.7914 26.3987 73.5393C26.5344 73.1643 26.7607 72.8281 27.0581 72.5759C27.1357 72.4983 27.2198 72.4337 27.3038 72.3755C27.6206 72.1557 28.0021 72.0134 28.403 71.9682C28.487 71.9617 28.5711 71.9552 28.6551 71.9552C29.1982 71.9552 29.7025 72.1363 30.1034 72.4401C30.5043 72.744 30.8082 73.1643 30.9569 73.6557C31.0215 73.8755 31.0603 74.1083 31.0603 74.3539C31.0603 74.3863 31.0603 74.4186 31.0538 74.4509ZM32.2629 72.9121H32.2564C32.0754 72.4466 31.7974 72.0263 31.4547 71.6707C30.75 70.9337 29.7543 70.4746 28.6551 70.4746C28.3707 70.4746 28.0862 70.5069 27.8211 70.5651C27.3297 70.6686 26.8706 70.869 26.4698 71.1535C26.3405 71.2375 26.2176 71.3345 26.1013 71.438C25.7263 71.7613 25.4159 72.1621 25.1961 72.6082C24.9245 73.132 24.7758 73.7268 24.7758 74.3539C24.7758 74.716 24.8275 75.0716 24.9245 75.4014C25.0538 75.8863 25.2801 76.3389 25.5905 76.7268C26.2952 77.6449 27.4073 78.2333 28.6551 78.2333C29.3405 78.2333 29.987 78.0587 30.5431 77.7484C30.9763 77.5027 31.3642 77.1794 31.6745 76.7979C31.7715 76.6815 31.862 76.5522 31.9461 76.4165C32.2047 76.0091 32.3922 75.5436 32.4763 75.0393C32.5215 74.8195 32.5409 74.5867 32.5409 74.3539C32.5409 73.8432 32.4439 73.3582 32.2629 72.9121Z" fill="white"/>
<path fill-rule="evenodd" clip-rule="evenodd" d="M52.1636 82.8696C52.1636 83.1993 52.099 83.5161 51.9761 83.8071C51.7111 84.4213 51.2067 84.9062 50.5731 85.1325C50.321 85.223 50.043 85.2748 49.7585 85.2748C49.5257 85.2748 49.3059 85.2424 49.0925 85.1778C48.3878 84.9773 47.8188 84.4536 47.5408 83.7877C47.4244 83.5032 47.3598 83.1928 47.3598 82.8696C47.3598 82.8502 47.3598 82.8243 47.3662 82.8049C47.3662 82.6368 47.3856 82.4752 47.4244 82.3135C47.502 81.9773 47.6507 81.6734 47.8576 81.4084C48.1615 81.0075 48.5947 80.7036 49.0925 80.5614C49.3059 80.4967 49.5257 80.4644 49.7585 80.4644C50.043 80.4644 50.321 80.5161 50.5731 80.6066C51.0322 80.7747 51.4266 81.0721 51.6981 81.4601C51.8921 81.7187 52.0279 82.0161 52.099 82.3329C52.1442 82.501 52.1636 82.6821 52.1636 82.8631V82.8696ZM53.6055 82.3847C53.6055 82.3459 53.599 82.3135 53.5861 82.2747V82.2683C53.5149 81.7704 53.3404 81.2984 53.0882 80.8846C52.5516 79.973 51.6464 79.307 50.5731 79.0743C50.308 79.0226 50.0365 78.9902 49.7585 78.9902C49.5322 78.9902 49.3059 79.0096 49.0925 79.0484C47.9804 79.2424 47.03 79.9083 46.461 80.8329C46.2024 81.2467 46.0214 81.7122 45.9373 82.2101C45.9309 82.2489 45.9179 82.2941 45.9179 82.3394C45.8921 82.514 45.8792 82.6885 45.8792 82.8696C45.8792 83.1928 45.9179 83.5097 45.9955 83.8135C46.3641 85.2877 47.5796 86.4256 49.0925 86.6907C49.3059 86.7295 49.5322 86.7489 49.7585 86.7489C50.0365 86.7489 50.308 86.7166 50.5731 86.6649C52.0085 86.3545 53.1399 85.2618 53.5085 83.8588C53.5925 83.542 53.6378 83.2122 53.6378 82.8696C53.6378 82.7079 53.6249 82.5463 53.6055 82.3847Z" fill="white"/>
<path fill-rule="evenodd" clip-rule="evenodd" d="M69.0259 74.1523L69.1552 74.2235L69.0388 74.2752C69.0323 74.2364 69.0259 74.1976 69.0259 74.1523Z" fill="white"/>
<path fill-rule="evenodd" clip-rule="evenodd" d="M72.918 71.8457L72.834 72.0461C72.8081 72.0203 72.7758 72.0009 72.7435 71.9815L72.918 71.8457Z" fill="white"/>
<path fill-rule="evenodd" clip-rule="evenodd" d="M72.7434 71.9815C72.7757 72.0009 72.8081 72.0203 72.8339 72.0461L72.918 71.8457L72.7434 71.9815Z" fill="white"/>
<path fill-rule="evenodd" clip-rule="evenodd" d="M73.5646 75.0652C73.3254 75.5307 72.9439 75.9121 72.472 76.1384C72.1551 76.2936 71.7995 76.3841 71.4181 76.3841C71.1013 76.3841 70.7974 76.3195 70.5194 76.2096C70.1896 76.0738 69.8987 75.8734 69.6659 75.6147C69.556 75.5048 69.4655 75.382 69.3879 75.2527C69.2004 74.9617 69.084 74.632 69.0388 74.2764C69.0323 74.2376 69.0258 74.1988 69.0258 74.1535C69.0194 74.0953 69.0194 74.0371 69.0194 73.9789C69.0194 73.4876 69.1616 73.0414 69.4138 72.6664C69.8405 72.0134 70.5776 71.5802 71.4181 71.5802H71.431C71.9159 71.5802 72.3685 71.7289 72.7435 71.9811L72.9181 71.8453L72.834 72.0457C73.2155 72.3173 73.5064 72.6923 73.6681 73.1384C73.7715 73.397 73.8232 73.6815 73.8232 73.9789C73.8232 74.3733 73.7263 74.7419 73.5646 75.0652ZM74.8771 72.2138C74.6508 71.7677 74.334 71.3669 73.959 71.05C73.7909 70.8949 73.6034 70.7656 73.4095 70.6556C72.9892 70.397 72.5237 70.2225 72.0194 70.1513C71.8254 70.1125 71.625 70.0996 71.4181 70.0996C70.0345 70.0996 68.8125 70.8302 68.1336 71.9294C67.862 72.3496 67.681 72.8216 67.5969 73.3259C67.5582 73.5393 67.5388 73.7591 67.5388 73.9789C67.5388 74.2764 67.5711 74.5673 67.6422 74.8518C67.7521 75.3432 67.959 75.8022 68.2435 76.2031C68.3082 76.2936 68.3728 76.3777 68.4439 76.4617C68.7607 76.8432 69.1487 77.1665 69.5883 77.3992C70.1314 77.6902 70.7521 77.8583 71.4181 77.8583C72.362 77.8583 73.222 77.5221 73.8944 76.966H73.9008C74.2888 76.6428 74.612 76.2484 74.8448 75.8022C75.1422 75.2591 75.3039 74.6384 75.3039 73.9789C75.3039 73.3453 75.1487 72.744 74.8771 72.2138Z" fill="white"/>
<path fill-rule="evenodd" clip-rule="evenodd" d="M73.7909 32.5604C73.6551 33.0583 73.3642 33.4915 72.9762 33.7954C72.9439 33.8212 72.9181 33.8471 72.8857 33.8665C72.4913 34.1574 72.0064 34.3255 71.4762 34.3255C70.6422 34.3255 69.9116 33.8988 69.4849 33.2523C69.2262 32.8708 69.0775 32.4117 69.0775 31.9204C69.0775 31.8751 69.0775 31.8234 69.084 31.7781C69.084 31.7005 69.0969 31.6229 69.1099 31.5453C69.168 31.1509 69.3297 30.7824 69.5689 30.4721C69.6271 30.388 69.6982 30.304 69.7758 30.2264C70.0474 29.9484 70.39 29.7415 70.7715 29.6251C70.9913 29.554 71.2306 29.5152 71.4762 29.5152C71.8642 29.5152 72.2327 29.6057 72.556 29.7738C73.0215 30.0065 73.403 30.388 73.6293 30.86C73.7909 31.1768 73.8814 31.5389 73.8814 31.9204C73.8814 32.1402 73.8491 32.36 73.7909 32.5604ZM74.9159 30.1165C74.6831 29.6703 74.3663 29.2759 73.9784 28.9527C73.306 28.3837 72.4331 28.041 71.4762 28.041C70.8943 28.041 70.3383 28.1703 69.8469 28.4031C69.3879 28.61 68.987 28.9074 68.6508 29.2695C68.5409 29.3794 68.4374 29.5022 68.3469 29.6315C68.056 30.0259 67.8361 30.4785 67.7198 30.9699C67.6357 31.2738 67.5969 31.5906 67.5969 31.9204C67.5969 32.1531 67.6163 32.3794 67.6616 32.5992C67.7456 33.1035 67.9331 33.5755 68.1982 33.9893C68.8836 35.0755 70.0991 35.7997 71.4762 35.7997C71.6767 35.7997 71.8706 35.7868 72.0646 35.748C72.5689 35.6768 73.0409 35.5087 73.4612 35.2501C73.7198 35.1014 73.9525 34.9204 74.1659 34.7135C74.528 34.3773 74.8189 33.9635 75.0193 33.5109C75.2392 33.026 75.362 32.4893 75.362 31.9204C75.362 31.2673 75.2004 30.6531 74.9159 30.1165Z" fill="white"/>
<path fill-rule="evenodd" clip-rule="evenodd" d="M86.0236 41.9808C85.7392 42.414 85.3124 42.7437 84.8146 42.9183C84.5689 43.0088 84.3038 43.0541 84.0258 43.0541C83.793 43.0541 83.5732 43.0217 83.3598 42.9571C82.8297 42.8084 82.3771 42.4786 82.0667 42.039C81.7887 41.6446 81.6206 41.1661 81.6206 40.6489C81.6206 40.5842 81.6206 40.526 81.6336 40.4614C81.6723 39.9247 81.8922 39.4398 82.2284 39.0583C82.4353 38.8256 82.6874 38.6316 82.9655 38.5023V38.4958C83.2823 38.3407 83.6443 38.2501 84.0258 38.2501C84.2004 38.2501 84.3685 38.2695 84.5301 38.3019C85.0344 38.4118 85.4805 38.6769 85.8103 39.0519C86.1465 39.4204 86.3599 39.8924 86.4116 40.4096C86.418 40.4872 86.4245 40.5713 86.4245 40.6489C86.4245 41.1402 86.2758 41.5993 86.0236 41.9808ZM87.8405 39.9635C87.7564 39.4657 87.5689 39.0001 87.3038 38.5864C86.7736 37.7329 85.9073 37.0993 84.8922 36.8665C84.6142 36.8019 84.3232 36.7695 84.0258 36.7695C83.806 36.7695 83.5926 36.7889 83.3857 36.8277C82.4482 36.9764 81.6336 37.4613 81.0517 38.1532C80.7284 38.5346 80.4827 38.9743 80.3275 39.4592C80.2047 39.8342 80.14 40.2351 80.14 40.6489C80.14 41.8967 80.7284 43.0088 81.6465 43.7071C82.0409 44.0239 82.4999 44.2566 82.9978 44.386C83.3275 44.4829 83.6702 44.5282 84.0258 44.5282C84.7952 44.5282 85.5129 44.3084 86.1142 43.914C86.5344 43.6489 86.903 43.2997 87.1939 42.8859C87.6465 42.2523 87.9051 41.4829 87.9051 40.6489C87.9051 40.4161 87.8857 40.1833 87.8405 39.9635Z" fill="white"/>
<path fill-rule="evenodd" clip-rule="evenodd" d="M81.1552 65.5675L81.1939 65.5739V65.5352L81.1552 65.5675Z" fill="white"/>
<path fill-rule="evenodd" clip-rule="evenodd" d="M81.1552 65.5675L81.1939 65.5739V65.5352L81.1552 65.5675Z" fill="white"/>
<path fill-rule="evenodd" clip-rule="evenodd" d="M85.7846 66.4012C85.5389 66.9443 85.0928 67.3839 84.5497 67.6296C84.2588 67.7525 83.9355 67.8236 83.5928 67.8236C83.4118 67.8236 83.2307 67.8042 83.0626 67.7589C82.5389 67.649 82.0864 67.3581 81.7566 66.9637C81.4269 66.5822 81.2264 66.1037 81.1941 65.5736L81.1553 65.5671L81.1941 65.5348C81.1876 65.496 81.1876 65.4572 81.1876 65.4184C81.1876 64.9464 81.3234 64.5068 81.5626 64.1382C81.6855 63.9378 81.8407 63.7567 82.0152 63.608C82.3902 63.2848 82.8687 63.0714 83.3924 63.0326C83.457 63.0197 83.5217 63.0197 83.5928 63.0197C83.8514 63.0197 84.1036 63.0585 84.3299 63.1425C84.8407 63.2977 85.2739 63.6274 85.5648 64.0606C85.7458 64.3128 85.8751 64.6102 85.9398 64.927C85.9721 65.0822 85.9915 65.2503 85.9915 65.4184C85.9915 65.7675 85.9139 66.1037 85.7846 66.4012ZM87.4592 65.1986C87.4204 64.4421 87.1618 63.7438 86.7415 63.1619C86.4506 62.7481 86.082 62.399 85.6489 62.1339C85.054 61.7589 84.3493 61.5391 83.5928 61.5391C83.3989 61.5391 83.2114 61.552 83.0303 61.5843C82.526 61.649 82.054 61.8235 81.6338 62.0757C80.929 62.4766 80.373 63.1037 80.0432 63.8602C79.8428 64.3063 79.7264 64.7912 79.72 65.3085C79.7135 65.3473 79.7135 65.3796 79.7135 65.4184C79.7135 65.8063 79.7717 66.1813 79.8751 66.5369C80.0238 67.0283 80.2631 67.4809 80.5799 67.8688C81.2652 68.7094 82.2868 69.2589 83.4441 69.2977C83.4894 69.3042 83.5411 69.3042 83.5928 69.3042C84.0583 69.3042 84.498 69.2201 84.9118 69.0714C86.0174 68.6706 86.8902 67.7848 87.2652 66.6662C87.401 66.2718 87.4721 65.8581 87.4721 65.4184C87.4721 65.3473 87.4721 65.2697 87.4592 65.1986Z" fill="white"/>
<path fill-rule="evenodd" clip-rule="evenodd" d="M67.513 84.3311C67.513 84.9583 67.2673 85.5272 66.8729 85.954C66.5302 86.3225 66.0777 86.5876 65.5669 86.6846C65.4182 86.7169 65.263 86.7298 65.1078 86.7298C64.2932 86.7298 63.569 86.3225 63.1358 85.6953C62.8643 85.3074 62.7091 84.8354 62.7091 84.3246C62.7091 84.2729 62.7091 84.2212 62.7156 84.1695C62.7221 84.0272 62.7414 83.885 62.7802 83.7557C62.8708 83.3548 63.0712 82.9992 63.3427 82.7083C63.5173 82.5078 63.7371 82.3397 63.9764 82.2104C64.3126 82.0294 64.7005 81.9259 65.1078 81.9259C65.4052 81.9259 65.6833 81.9776 65.9484 82.0811C66.3621 82.2298 66.7242 82.4949 66.9893 82.8376C67.319 83.2449 67.513 83.7621 67.513 84.3246V84.3311ZM68.7091 82.8893C68.36 82.0164 67.7134 81.3052 66.8859 80.8785C66.4203 80.6328 65.8966 80.4841 65.3406 80.4582C65.263 80.4453 65.1854 80.4453 65.1078 80.4453C63.569 80.4453 62.2371 81.344 61.61 82.6501C61.3966 83.0962 61.2608 83.594 61.2414 84.1177C61.2285 84.1824 61.2285 84.2535 61.2285 84.3246C61.2285 84.7384 61.2932 85.1328 61.416 85.5078C61.5777 86.0251 61.8492 86.4971 62.2048 86.8979C62.916 87.6997 63.9505 88.204 65.1078 88.204C65.6121 88.204 66.0971 88.107 66.5367 87.9324C67.0087 87.7449 67.4354 87.4734 67.791 87.1307C68.5152 86.4324 68.9678 85.4626 68.9872 84.3828V84.3246C68.9872 83.8203 68.8902 83.3354 68.7091 82.8893Z" fill="white"/>
<path fill-rule="evenodd" clip-rule="evenodd" d="M48.5235 65.1732C48.2067 65.3672 47.8447 65.49 47.4567 65.5159C47.3985 65.5223 47.3468 65.5223 47.2886 65.5223C47.224 65.5223 47.1593 65.5223 47.0947 65.5094C46.6615 65.4771 46.2606 65.3284 45.9244 65.0956C45.5106 64.8047 45.1938 64.3909 45.0322 63.9059C44.9416 63.6602 44.8964 63.4016 44.8964 63.1301C44.8964 62.3219 45.2972 61.6107 45.9115 61.171C46.002 61.1064 46.1054 61.0482 46.2089 60.9964C46.5322 60.8283 46.9007 60.7378 47.2886 60.7378H47.321C48.627 60.7572 49.6744 61.824 49.6744 63.1301C49.6744 63.9965 49.2153 64.7529 48.5235 65.1732ZM47.2886 59.2637C47.1464 59.2637 47.0041 59.2701 46.8684 59.2895C46.474 59.3283 46.1054 59.4253 45.7628 59.574C45.6593 59.6193 45.5559 59.671 45.4589 59.7227C44.2434 60.3757 43.4158 61.6559 43.4158 63.1301C43.4158 63.6667 43.5257 64.184 43.7261 64.6495C43.9265 65.115 44.211 65.5288 44.5602 65.8779C45.2649 66.5762 46.2218 67.0029 47.2886 67.0029C47.3339 67.0029 47.3856 67.0029 47.4309 66.9965C47.5537 66.9965 47.6766 66.9835 47.7929 66.9641C48.1744 66.9189 48.53 66.8154 48.8662 66.6667V66.6603C50.2175 66.059 51.155 64.7012 51.155 63.1301C51.155 60.9964 49.4222 59.2637 47.2886 59.2637Z" fill="white"/>
<path fill-rule="evenodd" clip-rule="evenodd" d="M40.0215 53.3088C39.9763 53.5222 39.9051 53.7226 39.8082 53.9101C39.4073 54.686 38.5991 55.2162 37.6681 55.2162C36.7047 55.2162 35.8707 54.6407 35.4957 53.8196H35.4892C35.3534 53.5287 35.2758 53.2118 35.2694 52.8692V52.811C35.2694 52.7075 35.2758 52.6041 35.2888 52.5006C35.2952 52.4424 35.3017 52.3907 35.3146 52.339C35.3857 51.9898 35.528 51.673 35.7284 51.4015C36.1681 50.8002 36.8728 50.4123 37.6681 50.4123C38.8771 50.4123 39.8664 51.2916 40.0409 52.4424C40.0603 52.5588 40.0733 52.6881 40.0733 52.811C40.0733 52.9791 40.0539 53.1472 40.0215 53.3088ZM41.5409 52.5006C41.3793 50.5028 39.7112 48.9316 37.6681 48.9316C36.3556 48.9316 35.1982 49.5847 34.4935 50.5868C34.2672 50.9036 34.0926 51.2528 33.9763 51.6278C33.9375 51.7312 33.9116 51.8411 33.8857 51.9511C33.8534 52.0739 33.834 52.2032 33.8211 52.3325C33.8017 52.4877 33.7888 52.6493 33.7888 52.811C33.7888 53.1536 33.834 53.4899 33.9245 53.8067C34.3577 55.4683 35.8707 56.6903 37.6681 56.6903C39.4138 56.6903 40.8879 55.5459 41.3793 53.9683C41.4375 53.7743 41.4827 53.5739 41.5086 53.367C41.5409 53.186 41.5539 52.9985 41.5539 52.811C41.5539 52.7075 41.5474 52.6041 41.5409 52.5006Z" fill="white"/>
<path fill-rule="evenodd" clip-rule="evenodd" d="M52.2285 39.0005C52.222 39.4014 52.1056 39.7828 51.9117 40.1126C51.5043 40.8367 50.7285 41.3216 49.8362 41.3216C49.1767 41.3216 48.5754 41.0501 48.1423 40.6234C47.7285 40.2096 47.4569 39.6471 47.4375 39.0199C47.431 38.9876 47.431 38.9488 47.431 38.9164C47.431 38.6126 47.4892 38.3216 47.5927 38.0501C47.8513 37.3776 48.4009 36.8539 49.0927 36.6341C49.3254 36.55 49.5776 36.5113 49.8362 36.5113C50.0948 36.5113 50.3405 36.55 50.5733 36.6276C51.4332 36.9057 52.0798 37.6621 52.2091 38.5802C52.2285 38.6901 52.2349 38.8001 52.2349 38.9164C52.2349 38.9423 52.2349 38.9746 52.2285 39.0005ZM53.7091 38.7871C53.7091 38.6449 53.6961 38.5026 53.6703 38.3669C53.444 36.7311 52.1832 35.4186 50.5733 35.1082C50.3341 35.063 50.0884 35.0371 49.8362 35.0371C49.5841 35.0371 49.3319 35.063 49.0927 35.1082C48.0194 35.3151 47.1013 35.9681 46.5453 36.8669C46.3966 37.0932 46.2802 37.3388 46.1897 37.5975C46.0862 37.8755 46.0151 38.16 45.9828 38.4639C45.9634 38.6126 45.9569 38.7613 45.9569 38.9164C45.9569 41.0565 47.6961 42.7958 49.8362 42.7958C51.6466 42.7958 53.1724 41.5479 53.5927 39.8669C53.6768 39.563 53.7155 39.2462 53.7155 38.9164C53.7155 38.8712 53.7155 38.8259 53.7091 38.7871Z" fill="white"/>
<path fill-rule="evenodd" clip-rule="evenodd" d="M64.888 62.632C64.4613 63.298 63.7178 63.7376 62.8708 63.7376C62.5669 63.7376 62.2759 63.6795 62.0109 63.576C61.8363 63.5114 61.6746 63.4273 61.5259 63.3239C61.2027 63.104 60.9376 62.8131 60.7501 62.4639C60.569 62.1277 60.4656 61.7463 60.4656 61.3325C60.4656 60.5307 60.86 59.8195 61.4613 59.3863C61.7716 59.16 62.1402 59.0049 62.5346 58.9531C62.6445 58.9337 62.7544 58.9273 62.8708 58.9273C62.9419 58.9273 63.013 58.9273 63.0841 58.9402C64.2673 59.0437 65.1984 60.007 65.263 61.1967C65.2695 61.2419 65.2695 61.2872 65.2695 61.3325C65.2695 61.8109 65.1337 62.257 64.888 62.632ZM63.9182 57.6018C63.7565 57.5501 63.5949 57.5178 63.4268 57.4984C63.2458 57.4661 63.0583 57.4531 62.8708 57.4531C62.638 57.4531 62.4117 57.4725 62.1984 57.5113V57.5178C60.3751 57.8281 58.9915 59.4251 58.9915 61.3325C58.9915 62.5027 59.5152 63.5566 60.3363 64.2614V64.2678C60.5884 64.4877 60.8729 64.6752 61.1768 64.8239C61.3384 64.9014 61.5001 64.9661 61.6746 65.0243C62.0497 65.1471 62.4505 65.2118 62.8708 65.2118C64.4484 65.2118 65.8061 64.2678 66.4139 62.9101C66.6143 62.4704 66.7307 61.979 66.7436 61.4682C66.7501 61.423 66.7501 61.3777 66.7501 61.3325C66.7501 59.5544 65.5475 58.0544 63.9182 57.6018Z" fill="white"/>
<path fill-rule="evenodd" clip-rule="evenodd" d="M69.6919 53.632C69.3815 54.6019 68.4763 55.3001 67.4095 55.3001C66.8147 55.3001 66.2587 55.0803 65.8384 54.7118C65.722 54.6083 65.6056 54.492 65.5087 54.3691C65.263 54.0523 65.0949 53.6644 65.0367 53.2506C65.0108 53.1342 65.0044 53.0178 65.0044 52.895C65.0044 51.77 65.7802 50.8324 66.8212 50.5738V50.5674C67.0087 50.5221 67.2091 50.4962 67.4095 50.4962C67.597 50.4962 67.7781 50.5156 67.9526 50.5609C68.1078 50.5932 68.263 50.6449 68.4052 50.7161C69.013 50.9941 69.485 51.5113 69.6919 52.1579C69.7694 52.3906 69.8082 52.6363 69.8082 52.895C69.8082 53.1536 69.7694 53.3993 69.6919 53.632ZM71.2177 52.1579C70.9074 50.5286 69.569 49.2613 67.9138 49.0544C67.7457 49.0286 67.5776 49.0156 67.4095 49.0156C67.0992 49.0156 66.7953 49.0544 66.5044 49.1255H66.4979C65.8837 49.2678 65.3276 49.5652 64.8686 49.9661C64.0475 50.6773 63.5302 51.7247 63.5302 52.895C63.5302 53.5803 63.7048 54.2204 64.0151 54.7764V54.7829C64.1962 55.0997 64.4095 55.3842 64.6681 55.6364V55.6428C64.7781 55.7527 64.8944 55.8562 65.0173 55.9532C65.6768 56.4704 66.5044 56.7808 67.4095 56.7808C69.2975 56.7808 70.8751 55.4295 71.2177 53.632C71.263 53.3928 71.2888 53.1471 71.2888 52.895C71.2888 52.6428 71.263 52.3971 71.2177 52.1579Z" fill="white"/>
<path fill-rule="evenodd" clip-rule="evenodd" d="M52.2349 22.7646C52.2349 22.8292 52.2349 22.8874 52.2219 22.9521C52.2219 23.049 52.209 23.1396 52.1896 23.2365C52.1055 23.6374 51.9245 24.0124 51.6594 24.3163C51.3814 24.6525 51.0064 24.9111 50.5732 25.0469C50.3405 25.1245 50.0948 25.1633 49.8361 25.1633C49.5775 25.1633 49.3254 25.1245 49.0926 25.0404C48.6659 24.9047 48.2909 24.6525 48.0064 24.3163C47.7478 24.0124 47.5603 23.6374 47.4827 23.2365C47.4568 23.1396 47.4439 23.049 47.4439 22.9521C47.431 22.8874 47.431 22.8292 47.431 22.7646C47.431 22.409 47.5086 22.0727 47.6508 21.7689C47.9223 21.1611 48.4461 20.6891 49.0926 20.4822C49.3254 20.3982 49.5775 20.3594 49.8361 20.3594C50.0948 20.3594 50.3405 20.3982 50.5732 20.4758C51.2198 20.6827 51.7435 21.1611 52.015 21.7689C52.1573 22.0727 52.2349 22.409 52.2349 22.7646Z" fill="white"/>
<path fill-rule="evenodd" clip-rule="evenodd" d="M37.8491 21.9892C37.8491 22.3577 37.765 22.7133 37.6098 23.0237C37.2219 23.8319 36.4008 24.3879 35.4439 24.3879C35.3598 24.3879 35.2693 24.3814 35.1853 24.375C34.6615 24.3168 34.1831 24.0905 33.8146 23.7413C33.5689 23.5215 33.3684 23.2435 33.2391 22.9267H33.2327C33.1098 22.6357 33.0452 22.3189 33.0452 21.9892C33.0452 21.8081 33.0646 21.6271 33.1034 21.4525C33.1615 21.1939 33.265 20.9547 33.4008 20.7349C33.6594 20.3017 34.0603 19.959 34.5322 19.765C34.8103 19.6486 35.1206 19.584 35.4439 19.584C35.89 19.584 36.3167 19.7068 36.6723 19.9267C37.112 20.1853 37.4676 20.5861 37.668 21.0646C37.7262 21.2198 37.7779 21.3879 37.8038 21.556C37.8361 21.6982 37.8491 21.8405 37.8491 21.9892Z" fill="white"/>
<path fill-rule="evenodd" clip-rule="evenodd" d="M18.9308 65.8904C18.8338 66.4012 18.5688 66.8537 18.2002 67.19C17.8123 67.5456 17.308 67.7783 16.7519 67.8171C16.6938 67.8236 16.6356 67.8236 16.5774 67.8236C16.1183 67.8236 15.6851 67.6943 15.3166 67.4615C14.9222 67.2223 14.6054 66.8667 14.405 66.4464C14.2563 66.1361 14.1722 65.7869 14.1722 65.4184C14.1722 65.2697 14.1851 65.121 14.2175 64.9787C14.2563 64.733 14.3403 64.5003 14.4567 64.2869C14.6959 63.8408 15.0774 63.4787 15.5364 63.2589C15.808 63.1296 16.1054 63.0455 16.4222 63.0261C16.4739 63.0197 16.5257 63.0197 16.5774 63.0197C17.0429 63.0197 17.4826 63.1555 17.8511 63.3882C18.53 63.8085 18.9826 64.5585 18.9826 65.4184C18.9826 65.58 18.9696 65.7352 18.9308 65.8904ZM18.2196 61.9076C17.7864 61.7007 17.3015 61.5714 16.7907 61.552C16.7196 61.5391 16.6485 61.5391 16.5774 61.5391C15.7175 61.5391 14.9287 61.8171 14.2886 62.2891C13.8877 62.58 13.545 62.955 13.2864 63.3817C12.9179 63.9572 12.711 64.6296 12.6981 65.3537V65.4184C12.6981 65.9098 12.7886 66.3753 12.9567 66.8085C13.3188 67.7525 14.0364 68.5219 14.9481 68.9486C15.3877 69.149 15.8726 69.2719 16.3834 69.2977C16.4481 69.3042 16.5127 69.3042 16.5774 69.3042C17.6765 69.3042 18.6722 68.8451 19.377 68.1016C19.7196 67.746 19.9976 67.3193 20.1787 66.8538C20.3597 66.4076 20.4567 65.9227 20.4567 65.4184C20.4567 63.8667 19.5386 62.5218 18.2196 61.9076Z" fill="white"/>
<path fill-rule="evenodd" clip-rule="evenodd" d="M18.9827 65.4183C18.9827 65.5799 18.9697 65.7351 18.9309 65.8902C18.8339 66.401 18.5689 66.8536 18.2003 67.1898C17.8124 67.5454 17.3081 67.7782 16.752 67.817C16.6939 67.8234 16.6357 67.8234 16.5775 67.8234C16.1184 67.8234 15.6852 67.6941 15.3167 67.4614C14.9223 67.2221 14.6055 66.8665 14.4051 66.4463C14.2564 66.1359 14.1723 65.7868 14.1723 65.4183C14.1723 65.2695 14.1852 65.1208 14.2176 64.9786C14.2564 64.7329 14.3404 64.5001 14.4568 64.2868C14.696 63.8407 15.0775 63.4786 15.5365 63.2588C15.8081 63.1294 16.1055 63.0454 16.4223 63.026C16.474 63.0195 16.5258 63.0195 16.5775 63.0195C17.043 63.0195 17.4827 63.1553 17.8512 63.3881C18.5301 63.8083 18.9827 64.5583 18.9827 65.4183Z" fill="white"/>
<path fill-rule="evenodd" clip-rule="evenodd" d="M73.8233 73.9788C73.8233 74.3732 73.7263 74.7417 73.5647 75.065C73.3254 75.5305 72.944 75.912 72.472 76.1383C72.1552 76.2935 71.7996 76.384 71.4181 76.384C71.1013 76.384 70.7974 76.3193 70.5194 76.2094C70.1897 76.0736 69.8987 75.8732 69.666 75.6146C69.556 75.5047 69.4655 75.3818 69.3879 75.2525C69.2004 74.9616 69.0841 74.6318 69.0388 74.2762L69.1552 74.2245L69.0259 74.1534C69.0194 74.0952 69.0194 74.037 69.0194 73.9788C69.0194 73.4874 69.1617 73.0413 69.4138 72.6663C69.8405 72.0133 70.5776 71.5801 71.4181 71.5801H71.4311C71.916 71.5801 72.3686 71.7288 72.7436 71.9809C72.7759 72.0003 72.8082 72.0197 72.8341 72.0456C73.2155 72.3172 73.5065 72.6922 73.6681 73.1383C73.7716 73.3969 73.8233 73.6814 73.8233 73.9788Z" fill="white"/>
<path fill-rule="evenodd" clip-rule="evenodd" d="M67.513 84.3225V84.329C67.513 84.9562 67.2673 85.5251 66.8729 85.9519C66.5302 86.3204 66.0776 86.5855 65.5669 86.6825C65.4182 86.7148 65.263 86.7277 65.1078 86.7277C64.2932 86.7277 63.569 86.3204 63.1358 85.6932C62.8643 85.3053 62.7091 84.8333 62.7091 84.3225C62.7091 84.2708 62.7091 84.2191 62.7156 84.1674C62.722 84.0251 62.7414 83.8829 62.7802 83.7536C62.8707 83.3527 63.0712 82.9971 63.3427 82.7062C63.5173 82.5057 63.7371 82.3376 63.9763 82.2083C64.3126 82.0273 64.7005 81.9238 65.1078 81.9238C65.4052 81.9238 65.6832 81.9756 65.9483 82.079C66.3621 82.2277 66.7242 82.4928 66.9893 82.8355C67.319 83.2428 67.513 83.76 67.513 84.3225Z" fill="white"/>
<path fill-rule="evenodd" clip-rule="evenodd" d="M38.5084 83.9299C38.4567 84.3566 38.2886 84.751 38.0365 85.0808C37.7326 85.4752 37.3123 85.7726 36.8209 85.9213C36.6011 85.986 36.3684 86.0248 36.1291 86.0248C35.7477 86.0248 35.3921 85.9342 35.0688 85.7726C34.6097 85.5528 34.2347 85.1842 34.0084 84.7316C33.8856 84.5118 33.8015 84.2661 33.7628 84.0075C33.7434 83.8782 33.7304 83.7489 33.7304 83.6196C33.7304 83.2252 33.8274 82.8566 33.9955 82.5269C34.0214 82.4752 34.0537 82.417 34.086 82.3653C34.3511 81.9385 34.739 81.5958 35.211 81.4019C35.4955 81.2855 35.8059 81.2208 36.1291 81.2208C37.0343 81.2208 37.8231 81.7252 38.2369 82.4622C38.4244 82.8049 38.5343 83.1993 38.5343 83.6196C38.5343 83.723 38.5278 83.8265 38.5084 83.9299ZM39.8274 82.4364H39.821C39.3231 80.8782 37.8554 79.7402 36.1291 79.7402C35.4632 79.7402 34.836 79.9083 34.2929 80.1993C33.8533 80.4385 33.4653 80.7553 33.1485 81.1368C32.8059 81.5441 32.5472 82.029 32.3985 82.5528C32.3015 82.889 32.2498 83.251 32.2498 83.6196C32.2498 83.7618 32.2563 83.8976 32.2692 84.0334C32.3468 84.7575 32.6248 85.4235 33.0451 85.9666C33.3425 86.361 33.7175 86.6972 34.1507 86.9493C34.7261 87.2985 35.405 87.4989 36.1291 87.4989C36.711 87.4989 37.2606 87.3696 37.752 87.1368H37.7584C38.211 86.9299 38.6184 86.6325 38.9546 86.2704C39.5494 85.6498 39.9309 84.8286 39.9955 83.9105C40.002 83.8135 40.0085 83.7166 40.0085 83.6196C40.0085 83.2058 39.9438 82.8114 39.8274 82.4364Z" fill="white"/>
<path fill-rule="evenodd" clip-rule="evenodd" d="M38.5345 83.6194C38.5345 83.7229 38.528 83.8263 38.5086 83.9298C38.4569 84.3565 38.2888 84.7509 38.0366 85.0806C37.7328 85.475 37.3125 85.7725 36.8211 85.9212C36.6013 85.9858 36.3685 86.0246 36.1293 86.0246C35.7478 86.0246 35.3922 85.9341 35.069 85.7725C34.6099 85.5526 34.2349 85.1841 34.0086 84.7315C33.8858 84.5117 33.8017 84.266 33.7629 84.0074C33.7435 83.878 33.7306 83.7487 33.7306 83.6194C33.7306 83.225 33.8276 82.8565 33.9957 82.5267C34.0215 82.475 34.0539 82.4168 34.0862 82.3651C34.3513 81.9384 34.7392 81.5957 35.2112 81.4017C35.4957 81.2854 35.806 81.2207 36.1293 81.2207C37.0345 81.2207 37.8233 81.725 38.2371 82.4621C38.4246 82.8048 38.5345 83.1992 38.5345 83.6194Z" fill="white"/>
<path fill-rule="evenodd" clip-rule="evenodd" d="M52.2349 38.9169C52.2349 38.9428 52.2349 38.9751 52.2284 39.001C52.2219 39.4018 52.1055 39.7833 51.9116 40.113C51.5043 40.8372 50.7284 41.3221 49.8361 41.3221C49.1767 41.3221 48.5754 41.0505 48.1422 40.6238C47.7284 40.21 47.4568 39.6475 47.4374 39.0204C47.431 38.988 47.431 38.9492 47.431 38.9169C47.431 38.613 47.4892 38.3221 47.5926 38.0505C47.8512 37.3781 48.4008 36.8544 49.0926 36.6346C49.3254 36.5505 49.5775 36.5117 49.8361 36.5117C50.0948 36.5117 50.3405 36.5505 50.5732 36.6281C51.4331 36.9061 52.0797 37.6626 52.209 38.5807C52.2284 38.6906 52.2349 38.8005 52.2349 38.9169Z" fill="white"/>
<path fill-rule="evenodd" clip-rule="evenodd" d="M65.2693 61.3329C65.2693 61.8114 65.1335 62.2575 64.8878 62.6325C64.4611 63.2985 63.7176 63.7381 62.8706 63.7381C62.5667 63.7381 62.2757 63.6799 62.0107 63.5765C61.8361 63.5118 61.6744 63.4278 61.5257 63.3243C61.2025 63.1045 60.9374 62.8135 60.7499 62.4644C60.5688 62.1282 60.4654 61.7467 60.4654 61.3329C60.4654 60.5312 60.8598 59.82 61.4611 59.3868C61.7714 59.1605 62.14 59.0053 62.5344 58.9536C62.6443 58.9342 62.7542 58.9277 62.8706 58.9277C62.9417 58.9277 63.0128 58.9277 63.0839 58.9407C64.2671 59.0441 65.1982 60.0075 65.2628 61.1971C65.2693 61.2424 65.2693 61.2877 65.2693 61.3329Z" fill="white"/>
<path fill-rule="evenodd" clip-rule="evenodd" d="M69.808 52.8948C69.808 53.1534 69.7692 53.3991 69.6917 53.6319C69.3813 54.6017 68.4761 55.3 67.4093 55.3C66.8145 55.3 66.2585 55.0802 65.8382 54.7116C65.7218 54.6082 65.6054 54.4918 65.5085 54.369C65.2628 54.0521 65.0947 53.6642 65.0365 53.2504C65.0106 53.134 65.0042 53.0177 65.0042 52.8948C65.0042 51.7698 65.78 50.8323 66.821 50.5737V50.5672C67.0085 50.522 67.2089 50.4961 67.4093 50.4961C67.5968 50.4961 67.7779 50.5155 67.9524 50.5607C68.1076 50.5931 68.2628 50.6448 68.405 50.7159C69.0128 50.9939 69.4848 51.5112 69.6917 52.1577C69.7692 52.3905 69.808 52.6362 69.808 52.8948Z" fill="white"/>
<path fill-rule="evenodd" clip-rule="evenodd" d="M31.028 32.276C30.9569 32.7867 30.7176 33.2523 30.375 33.6014C29.9418 34.0475 29.3275 34.3255 28.6551 34.3255C28.5064 34.3255 28.3577 34.3126 28.2155 34.2803C27.8211 34.2092 27.4655 34.0411 27.1616 33.7954C27.0711 33.7307 26.987 33.6531 26.9094 33.5691C26.6444 33.291 26.4439 32.9419 26.3469 32.554C26.2888 32.3535 26.2564 32.1402 26.2564 31.9204C26.2564 31.7005 26.2888 31.4872 26.3469 31.2867C26.4763 30.7889 26.7672 30.3557 27.1551 30.0453C27.5689 29.7156 28.0926 29.5152 28.6551 29.5152C28.9138 29.5152 29.1659 29.554 29.3987 29.6315C29.7025 29.7285 29.9741 29.8902 30.2133 30.0906C30.3556 30.2134 30.4849 30.3492 30.5948 30.5044C30.7823 30.7565 30.9181 31.0475 30.9892 31.3643V31.3708C31.0344 31.5518 31.0603 31.7264 31.0603 31.9204C31.0603 32.0432 31.0538 32.1596 31.028 32.276ZM32.3728 30.7953C32.2306 30.3104 31.9913 29.8643 31.681 29.4828C31.6228 29.4182 31.5646 29.3535 31.5064 29.2889C31.1702 28.9268 30.7694 28.6229 30.3103 28.416C29.8125 28.1703 29.25 28.041 28.6551 28.041C27.5366 28.041 26.5215 28.5195 25.8168 29.2824C25.4741 29.638 25.209 30.0647 25.0344 30.5367C24.8663 30.9634 24.7758 31.4354 24.7758 31.9204C24.7758 32.4829 24.8922 33.0195 25.112 33.4979C25.3125 33.957 25.6034 34.3708 25.9655 34.707C26.0754 34.8169 26.1918 34.9204 26.3146 35.0109C26.7025 35.3083 27.1551 35.5346 27.64 35.6639C27.9633 35.7544 28.306 35.7997 28.6551 35.7997C29.8771 35.7997 30.9698 35.2372 31.681 34.3579C31.9913 33.9764 32.2306 33.5303 32.3728 33.0518C32.4827 32.6898 32.5409 32.3147 32.5409 31.9204C32.5409 31.5324 32.4827 31.1509 32.3728 30.7953Z" fill="white"/>
<path fill-rule="evenodd" clip-rule="evenodd" d="M31.0602 31.9208C31.0602 32.0437 31.0538 32.16 31.0279 32.2764C30.9568 32.7872 30.7176 33.2527 30.3749 33.6019C29.9417 34.048 29.3275 34.326 28.6551 34.326C28.5064 34.326 28.3576 34.3131 28.2154 34.2807C27.821 34.2096 27.4654 34.0415 27.1615 33.7958C27.071 33.7312 26.987 33.6536 26.9094 33.5695C26.6443 33.2915 26.4438 32.9424 26.3469 32.5544C26.2887 32.354 26.2563 32.1406 26.2563 31.9208C26.2563 31.701 26.2887 31.4876 26.3469 31.2872C26.4762 30.7893 26.7671 30.3561 27.1551 30.0458C27.5688 29.7161 28.0926 29.5156 28.6551 29.5156C28.9137 29.5156 29.1658 29.5544 29.3986 29.632C29.7025 29.729 29.974 29.8906 30.2132 30.0911C30.3555 30.2139 30.4848 30.3497 30.5947 30.5049C30.7822 30.757 30.918 31.048 30.9891 31.3648V31.3712C31.0344 31.5523 31.0602 31.7268 31.0602 31.9208Z" fill="white"/>
<path fill-rule="evenodd" clip-rule="evenodd" d="M86.4246 40.6487C86.4246 41.1401 86.2759 41.5992 86.0238 41.9806C85.7393 42.4138 85.3125 42.7436 84.8147 42.9181C84.569 43.0086 84.3039 43.0539 84.0259 43.0539C83.7931 43.0539 83.5733 43.0216 83.36 42.9569C82.8298 42.8082 82.3772 42.4785 82.0668 42.0388C81.7888 41.6444 81.6207 41.166 81.6207 40.6487C81.6207 40.5841 81.6207 40.5259 81.6337 40.4612C81.6725 39.9246 81.8923 39.4397 82.2285 39.0582C82.4354 38.8254 82.6875 38.6315 82.9656 38.5022V38.4957C83.2824 38.3405 83.6444 38.25 84.0259 38.25C84.2005 38.25 84.3686 38.2694 84.5302 38.3017C85.0345 38.4116 85.4806 38.6767 85.8104 39.0517C86.1466 39.4203 86.36 39.8923 86.4117 40.4095C86.4181 40.4871 86.4246 40.5711 86.4246 40.6487Z" fill="white"/>
<path fill-rule="evenodd" clip-rule="evenodd" d="M85.9915 65.4183C85.9915 65.7674 85.9139 66.1036 85.7846 66.401C85.5389 66.9441 85.0928 67.3838 84.5497 67.6295C84.2587 67.7523 83.9355 67.8234 83.5928 67.8234C83.4118 67.8234 83.2307 67.804 83.0626 67.7588C82.5389 67.6489 82.0863 67.3579 81.7566 66.9635C81.4268 66.5821 81.2264 66.1036 81.1941 65.5734V65.5346C81.1876 65.4958 81.1876 65.457 81.1876 65.4183C81.1876 64.9463 81.3234 64.5066 81.5626 64.1381C81.6855 63.9376 81.8406 63.7566 82.0152 63.6079C82.3902 63.2846 82.8687 63.0713 83.3924 63.0325C83.457 63.0195 83.5217 63.0195 83.5928 63.0195C83.8514 63.0195 84.1036 63.0583 84.3299 63.1424C84.8406 63.2976 85.2738 63.6273 85.5648 64.0605C85.7458 64.3126 85.8751 64.6101 85.9398 64.9269C85.9721 65.082 85.9915 65.2501 85.9915 65.4183Z" fill="white"/>
<path fill-rule="evenodd" clip-rule="evenodd" d="M20.4568 40.5844C20.4568 42.1555 19.5193 43.5068 18.1809 44.1211C17.7412 44.3215 17.2563 44.4379 16.7391 44.4573C16.6874 44.4637 16.6356 44.4637 16.5774 44.4637C15.6981 44.4637 14.8835 44.1728 14.2369 43.6749C13.8425 43.3775 13.4998 43.0025 13.2477 42.5693C12.8986 41.9939 12.6981 41.3086 12.6981 40.5844C12.6981 40.384 12.7111 40.1835 12.7498 39.9896C12.821 39.4853 12.9955 39.0133 13.2477 38.5995C13.6227 37.9659 14.1723 37.4551 14.8317 37.1253C15.2585 36.899 15.7369 36.7633 16.2477 36.718C16.3511 36.7115 16.4675 36.7051 16.5774 36.7051C17.6701 36.7051 18.6658 37.1577 19.3641 37.8947C19.7132 38.2503 19.9912 38.6706 20.1787 39.1361C20.3598 39.5823 20.4568 40.0736 20.4568 40.5844Z" fill="white"/>
<path fill-rule="evenodd" clip-rule="evenodd" d="M40.0732 52.8108C40.0732 52.9789 40.0538 53.147 40.0214 53.3087C39.9762 53.522 39.9051 53.7225 39.8081 53.91C39.4072 54.6858 38.599 55.216 37.668 55.216C36.7046 55.216 35.8706 54.6406 35.4956 53.8195H35.4891C35.3533 53.5285 35.2758 53.2117 35.2693 52.869V52.8108C35.2693 52.7074 35.2758 52.6039 35.2887 52.5005C35.2951 52.4423 35.3016 52.3906 35.3145 52.3388C35.3857 51.9897 35.5279 51.6729 35.7283 51.4013C36.168 50.8 36.8727 50.4121 37.668 50.4121C38.8771 50.4121 39.8663 51.2914 40.0408 52.4423C40.0602 52.5587 40.0732 52.688 40.0732 52.8108Z" fill="white"/>
<path fill-rule="evenodd" clip-rule="evenodd" d="M22.1185 52.8948C22.1185 53.1922 22.0667 53.4767 21.9633 53.7418C21.821 54.1297 21.5754 54.4724 21.265 54.731C20.89 55.0478 20.4116 55.2547 19.8943 55.2935L19.8749 55.2483L19.8685 55.2935C19.8167 55.3 19.7715 55.3 19.7198 55.3C19.2542 55.3 18.8081 55.1642 18.4396 54.925C17.9935 54.647 17.6443 54.2267 17.4633 53.7224C17.3663 53.4638 17.3146 53.1858 17.3146 52.8948C17.3146 52.6685 17.3469 52.4552 17.4051 52.2483C17.5667 51.6793 17.9288 51.1944 18.4137 50.8776C18.7887 50.6383 19.2413 50.4961 19.7198 50.4961C19.7585 50.4961 19.8038 50.4961 19.8426 50.5026L19.862 50.5801L19.8943 50.5026C20.4116 50.5414 20.89 50.7418 21.265 51.0586C21.6335 51.3689 21.9116 51.7892 22.0344 52.2741C22.0926 52.4746 22.1185 52.6815 22.1185 52.8948Z" fill="white"/>
<path fill-rule="evenodd" clip-rule="evenodd" d="M31.0602 74.3538C31.0602 74.3861 31.0602 74.4185 31.0538 74.4508C31.0408 74.8581 30.9245 75.2331 30.7305 75.5629C30.6788 75.6598 30.6141 75.7504 30.543 75.8344C30.3038 76.1448 29.987 76.3969 29.6249 76.5586C29.3275 76.6879 28.9977 76.759 28.6551 76.759C27.9568 76.759 27.3232 76.4551 26.89 75.9767C26.5538 75.6146 26.3339 75.1491 26.2757 74.6318C26.2628 74.5413 26.2563 74.4508 26.2563 74.3538C26.2563 74.0628 26.3081 73.7913 26.3986 73.5391C26.5344 73.1641 26.7607 72.8279 27.0581 72.5758C27.1357 72.4982 27.2197 72.4335 27.3038 72.3753C27.6206 72.1555 28.002 72.0133 28.4029 71.968C28.487 71.9615 28.571 71.9551 28.6551 71.9551C29.1982 71.9551 29.7025 72.1361 30.1033 72.44C30.5042 72.7439 30.8081 73.1641 30.9568 73.6555C31.0214 73.8753 31.0602 74.1081 31.0602 74.3538Z" fill="white"/>
<path fill-rule="evenodd" clip-rule="evenodd" d="M52.1637 82.8636V82.87C52.1637 83.1998 52.099 83.5166 51.9762 83.8075C51.7111 84.4218 51.2068 84.9067 50.5732 85.133C50.321 85.2235 50.043 85.2752 49.7585 85.2752C49.5258 85.2752 49.3059 85.2429 49.0926 85.1782C48.3878 84.9778 47.8189 84.4541 47.5408 83.7881C47.4245 83.5037 47.3598 83.1933 47.3598 82.87C47.3598 82.8506 47.3598 82.8248 47.3663 82.8054C47.3663 82.6373 47.3857 82.4756 47.4245 82.314C47.502 81.9778 47.6508 81.6739 47.8576 81.4088C48.1615 81.008 48.5947 80.7041 49.0926 80.5618C49.3059 80.4972 49.5258 80.4648 49.7585 80.4648C50.043 80.4648 50.321 80.5166 50.5732 80.6071C51.0322 80.7752 51.4266 81.0726 51.6982 81.4605C51.8921 81.7192 52.0279 82.0166 52.099 82.3334C52.1443 82.5015 52.1637 82.6825 52.1637 82.8636Z" fill="white"/>
<path fill-rule="evenodd" clip-rule="evenodd" d="M82.5713 53.632C82.3773 54.2398 81.9441 54.7441 81.3816 55.0351C81.0519 55.2032 80.6833 55.3001 80.2825 55.3001C80.1596 55.3001 80.0368 55.2937 79.9204 55.2678C79.8751 55.2678 79.8363 55.2614 79.7975 55.2484H79.7911C79.2803 55.145 78.8277 54.8734 78.498 54.4984C78.2781 54.2527 78.1036 53.9553 78.0001 53.632C77.9225 53.3993 77.8837 53.1536 77.8837 52.895C77.8837 52.6363 77.9225 52.3906 78.0001 52.1579C78.1036 51.8346 78.2781 51.5437 78.5044 51.298C78.8277 50.923 79.2803 50.6514 79.7911 50.5415H79.7975C79.8428 50.535 79.8816 50.5286 79.9269 50.5221C80.0432 50.5027 80.1596 50.4962 80.2825 50.4962C80.6833 50.4962 81.0519 50.5932 81.3816 50.7678C81.9441 51.0523 82.3708 51.5501 82.5713 52.1579C82.6488 52.3906 82.6876 52.6363 82.6876 52.895C82.6876 53.1536 82.6488 53.3993 82.5713 53.632ZM84.0907 52.1579C83.845 50.8648 82.9463 49.798 81.7501 49.3066C81.304 49.1191 80.8191 49.0221 80.3083 49.0156H80.2825C79.9139 49.0156 79.5583 49.0673 79.2221 49.1643C78.7372 49.3001 78.2911 49.5329 77.9031 49.8432C77.1725 50.3993 76.6553 51.2204 76.4743 52.1579C76.429 52.3971 76.4031 52.6428 76.4031 52.895C76.4031 53.1471 76.429 53.3928 76.4743 53.632C76.6553 54.5695 77.1725 55.3907 77.8967 55.9532C78.2846 56.2635 78.7372 56.4963 79.2221 56.6321C79.5583 56.729 79.9139 56.7808 80.2825 56.7808H80.3019C80.8126 56.7808 81.304 56.6773 81.7501 56.4898C82.9463 55.9984 83.845 54.9316 84.0907 53.632C84.1359 53.3928 84.1618 53.1471 84.1618 52.895C84.1618 52.6428 84.1359 52.3971 84.0907 52.1579Z" fill="white"/>
<path fill-rule="evenodd" clip-rule="evenodd" d="M82.6875 52.8948C82.6875 53.1534 82.6487 53.3991 82.5711 53.6319C82.3771 54.2397 81.944 54.744 81.3815 55.0349C81.0517 55.203 80.6832 55.3 80.2823 55.3C80.1595 55.3 80.0366 55.2935 79.9202 55.2677C79.875 55.2677 79.8362 55.2612 79.7974 55.2483H79.7909C79.2802 55.1448 78.8276 54.8733 78.4978 54.4983C78.278 54.2526 78.1034 53.9552 78 53.6319C77.9224 53.3991 77.8836 53.1534 77.8836 52.8948C77.8836 52.6362 77.9224 52.3905 78 52.1577C78.1034 51.8345 78.278 51.5435 78.5043 51.2978C78.8276 50.9228 79.2802 50.6513 79.7909 50.5414H79.7974C79.8427 50.5349 79.8815 50.5284 79.9267 50.522C80.0431 50.5026 80.1595 50.4961 80.2823 50.4961C80.6832 50.4961 81.0517 50.5931 81.3815 50.7676C81.944 51.0521 82.3707 51.55 82.5711 52.1577C82.6487 52.3905 82.6875 52.6362 82.6875 52.8948Z" fill="white"/>
<path fill-rule="evenodd" clip-rule="evenodd" d="M73.8816 31.9208C73.8816 32.1406 73.8493 32.3605 73.7911 32.5609C73.6553 33.0588 73.3643 33.4919 72.9764 33.7958C72.9441 33.8217 72.9182 33.8475 72.8859 33.8669C72.4915 34.1579 72.0066 34.326 71.4764 34.326C70.6424 34.326 69.9118 33.8993 69.485 33.2527C69.2264 32.8712 69.0777 32.4122 69.0777 31.9208C69.0777 31.8756 69.0777 31.8238 69.0842 31.7786C69.0842 31.701 69.0971 31.6234 69.11 31.5458C69.1682 31.1514 69.3299 30.7829 69.5691 30.4725C69.6273 30.3885 69.6984 30.3044 69.776 30.2268C70.0475 29.9488 70.3902 29.7419 70.7717 29.6255C70.9915 29.5544 71.2307 29.5156 71.4764 29.5156C71.8643 29.5156 72.2329 29.6061 72.5562 29.7742C73.0217 30.007 73.4031 30.3885 73.6294 30.8605C73.7911 31.1773 73.8816 31.5393 73.8816 31.9208Z" fill="white"/>
<path fill-rule="evenodd" clip-rule="evenodd" d="M66.278 22.9405H66.2716C66.1811 23.0763 66.0776 23.2056 65.9612 23.322C65.6056 23.6776 65.1401 23.9233 64.6229 23.9944C64.5065 24.0202 64.3901 24.0267 64.2673 24.0267C63.4655 24.0267 62.7543 23.6323 62.3211 23.0245C62.0302 22.6301 61.8621 22.1452 61.8621 21.6215C61.8621 21.6021 61.8621 21.5763 61.8685 21.5569C61.8685 21.2336 61.9461 20.9297 62.069 20.6517C62.2759 20.1862 62.625 19.7918 63.0711 19.5396C63.4203 19.3327 63.8341 19.2163 64.2673 19.2163C64.5065 19.2163 64.7392 19.2551 64.9591 19.3198C65.4569 19.4685 65.8836 19.7724 66.1811 20.1797C66.4591 20.5418 66.6272 20.975 66.6595 21.4534C66.666 21.5051 66.666 21.5633 66.666 21.6215C66.666 22.1129 66.5237 22.559 66.278 22.9405ZM68.1336 21.4211C68.0884 20.3737 67.6164 19.4362 66.8923 18.7702C66.5302 18.434 66.1035 18.1624 65.6315 17.9943C65.2048 17.8262 64.7457 17.7422 64.2673 17.7422C63.4914 17.7422 62.7737 17.9685 62.1724 18.3564C61.7522 18.628 61.3836 18.9771 61.1056 19.3909C60.653 20.0116 60.3944 20.7745 60.3879 21.5892V21.6215C60.3879 22.1258 60.4849 22.6108 60.666 23.0569C61.2349 24.4922 62.6379 25.5009 64.2673 25.5009C64.7328 25.5009 65.1789 25.4168 65.5927 25.2681C66.0647 25.1 66.4979 24.8349 66.8599 24.4987C67.3384 24.072 67.7134 23.5224 67.9267 22.9017C68.069 22.5008 68.1466 22.0676 68.1466 21.6215C68.1466 21.5569 68.1466 21.4857 68.1336 21.4211Z" fill="white"/>
<path fill-rule="evenodd" clip-rule="evenodd" d="M66.6659 21.622C66.6659 22.1134 66.5237 22.5595 66.278 22.941H66.2715C66.181 23.0767 66.0776 23.206 65.9612 23.3224C65.6056 23.678 65.1401 23.9237 64.6228 23.9948C64.5065 24.0207 64.3901 24.0272 64.2672 24.0272C63.4655 24.0272 62.7543 23.6328 62.3211 23.025C62.0302 22.6306 61.8621 22.1457 61.8621 21.622C61.8621 21.6026 61.8621 21.5767 61.8685 21.5573C61.8685 21.2341 61.9461 20.9302 62.069 20.6522C62.2759 20.1866 62.625 19.7922 63.0711 19.5401C63.4203 19.3332 63.834 19.2168 64.2672 19.2168C64.5065 19.2168 64.7392 19.2556 64.959 19.3202C65.4569 19.469 65.8836 19.7728 66.181 20.1802C66.4591 20.5422 66.6272 20.9754 66.6595 21.4539C66.6659 21.5056 66.6659 21.5638 66.6659 21.622Z" fill="white"/>
<path fill-rule="evenodd" clip-rule="evenodd" d="M49.6745 63.1305C49.6745 63.9969 49.2155 64.7534 48.5236 65.1737C48.2068 65.3676 47.8448 65.4905 47.4568 65.5163C47.3986 65.5228 47.3469 65.5228 47.2887 65.5228C47.2241 65.5228 47.1594 65.5228 47.0948 65.5099C46.6616 65.4775 46.2607 65.3288 45.9245 65.0961C45.5107 64.8051 45.1939 64.3913 45.0323 63.9064C44.9417 63.6607 44.8965 63.4021 44.8965 63.1305C44.8965 62.3223 45.2973 61.6111 45.9116 61.1715C46.0021 61.1068 46.1055 61.0486 46.209 60.9969C46.5323 60.8288 46.9008 60.7383 47.2887 60.7383H47.3211C48.6271 60.7577 49.6745 61.8245 49.6745 63.1305Z" fill="white"/>
</g>
</svg>
