<svg width="293" height="135" fill="none" xmlns="http://www.w3.org/2000/svg"><g clip-path="url(#a)"><path d="M147.092 20.426c3.392 0 6.337.566 8.837 1.7 2.499 1.133 4.422 2.74 5.773 4.824 1.349 2.084 2.023 4.55 2.023 7.402 0 2.814-.674 5.273-2.023 7.374-1.351 2.102-3.274 3.71-5.773 4.825-2.5 1.115-5.445 1.672-8.837 1.672h-7.715v10.582h-8.864v-38.38h16.579zm-.492 20.56c2.662 0 4.687-.576 6.073-1.727 1.386-1.151 2.079-2.787 2.079-4.907 0-2.157-.693-3.81-2.079-4.962-1.386-1.151-3.411-1.727-6.073-1.727h-7.223v13.323h7.223zM193.327 50.58h-17.782l-3.393 8.225h-9.082l17.071-38.38h8.754l17.127 38.38h-9.303l-3.392-8.224zm-2.79-6.743-6.073-14.694-6.074 14.694h12.147zM236.497 50.58h-17.782l-3.392 8.225h-9.083l17.071-38.38h8.755l17.125 38.38h-9.301l-3.393-8.224zm-2.79-6.743-6.074-14.694-6.073 14.694h12.147zM288.314 20.426v38.379h-7.277L261.94 35.503v23.302h-8.754v-38.38h7.332l19.041 23.302V20.426h8.755z" fill="#fff"/><path d="M142.213 81.9h-6.874l-1.311 3.179h-3.511l6.598-14.835h3.384l6.621 14.835h-3.596l-1.311-3.18zm-1.078-2.607-2.348-5.68-2.347 5.68h4.695zM162.135 85.079l-.021-8.901-4.356 7.332h-1.545l-4.335-7.141v8.71h-3.215V70.244h2.834l5.542 9.219 5.457-9.219h2.812l.042 14.835h-3.215zM179.732 77.365c.846.268 1.508.717 1.988 1.345.479.63.719 1.403.719 2.321 0 1.3-.504 2.3-1.512 2.999-1.008.7-2.478 1.049-4.41 1.049h-7.656V70.244h7.233c1.805 0 3.19.346 4.156 1.038.966.693 1.449 1.632 1.449 2.82 0 .72-.172 1.362-.518 1.928a3.632 3.632 0 0 1-1.449 1.335zm-7.466-4.535v3.496h3.405c.846 0 1.487-.148 1.924-.445.439-.296.657-.734.657-1.314 0-.579-.218-1.013-.657-1.303-.437-.29-1.078-.434-1.924-.434h-3.405zm3.997 9.663c.902 0 1.583-.148 2.042-.445.458-.296.686-.756.686-1.377 0-1.23-.909-1.844-2.728-1.844h-3.997v3.666h3.997zM194.79 81.9h-6.873l-1.311 3.179h-3.511l6.599-14.835h3.384l6.619 14.835h-3.596l-1.311-3.18zm-1.078-2.607-2.348-5.68-2.347 5.68h4.695zM206.106 85.334c-1.171 0-2.303-.16-3.396-.477-1.092-.318-1.969-.731-2.633-1.24l1.164-2.586c.634.467 1.389.841 2.263 1.124a8.484 8.484 0 0 0 2.623.424c.972 0 1.691-.145 2.157-.435.465-.29.698-.675.698-1.155 0-.353-.138-.646-.413-.88-.275-.233-.627-.42-1.057-.561a21.017 21.017 0 0 0-1.745-.466c-1.128-.269-2.052-.537-2.771-.805a4.52 4.52 0 0 1-1.851-1.293c-.513-.594-.771-1.385-.771-2.374 0-.862.232-1.642.698-2.341.465-.7 1.166-1.255 2.104-1.664.938-.41 2.083-.615 3.436-.615.945 0 1.869.113 2.771.34.903.225 1.693.55 2.37.974l-1.058 2.607c-1.368-.777-2.736-1.166-4.104-1.166-.958 0-1.667.156-2.125.466-.458.311-.687.721-.687 1.23 0 .508.264.886.793 1.133.529.248 1.335.491 2.422.732 1.128.268 2.052.537 2.77.805a4.592 4.592 0 0 1 1.851 1.271c.514.58.772 1.364.772 2.353a4.06 4.06 0 0 1-.709 2.32c-.473.7-1.181 1.254-2.126 1.664-.945.41-2.093.615-3.446.615zM219.599 85.334c-1.171 0-2.302-.16-3.394-.477-1.094-.318-1.971-.731-2.633-1.24l1.163-2.586c.634.467 1.388.841 2.262 1.124a8.494 8.494 0 0 0 2.623.424c.972 0 1.692-.145 2.157-.435.465-.29.698-.675.698-1.155 0-.353-.137-.646-.413-.88-.274-.233-.627-.42-1.057-.561a21.017 21.017 0 0 0-1.745-.466c-1.128-.269-2.052-.537-2.77-.805a4.506 4.506 0 0 1-1.851-1.293c-.514-.594-.772-1.385-.772-2.374 0-.862.233-1.642.698-2.341.465-.7 1.166-1.255 2.104-1.664.938-.41 2.084-.615 3.438-.615.945 0 1.867.113 2.77.34.902.225 1.692.55 2.369.974l-1.057 2.607c-1.368-.777-2.736-1.166-4.103-1.166-.959 0-1.668.156-2.126.466-.458.311-.688.721-.688 1.23 0 .508.265.886.793 1.133.529.248 1.337.491 2.422.732 1.128.268 2.052.537 2.771.805a4.596 4.596 0 0 1 1.85 1.271c.515.58.772 1.364.772 2.353a4.05 4.05 0 0 1-.708 2.32c-.472.7-1.181 1.254-2.125 1.664-.945.41-2.094.615-3.448.615zM237.978 81.9h-6.875l-1.311 3.179h-3.51l6.599-14.835h3.384l6.619 14.835h-3.595l-1.311-3.18zm-1.079-2.607-2.348-5.68-2.347 5.68h4.695zM244.428 70.244h6.725c1.608 0 3.028.307 4.262.922 1.234.615 2.193 1.48 2.876 2.596.684 1.116 1.026 2.416 1.026 3.9 0 1.483-.342 2.783-1.026 3.899-.683 1.116-1.642 1.981-2.876 2.596s-2.654.922-4.262.922h-6.725V70.244zm6.556 12.016c1.48 0 2.662-.413 3.543-1.24.881-.826 1.321-1.946 1.321-3.359 0-1.412-.44-2.532-1.321-3.359-.881-.826-2.063-1.24-3.543-1.24h-3.13v9.198h3.13zM269.066 85.334c-1.536 0-2.921-.333-4.154-.996-1.235-.665-2.201-1.58-2.899-2.745-.697-1.166-1.046-2.476-1.046-3.931s.349-2.766 1.046-3.931c.698-1.166 1.664-2.08 2.899-2.745 1.233-.664 2.618-.996 4.154-.996 1.538 0 2.92.332 4.146.996a7.486 7.486 0 0 1 2.898 2.745c.705 1.165 1.058 2.476 1.058 3.93 0 1.456-.353 2.766-1.058 3.932a7.487 7.487 0 0 1-2.898 2.745c-1.226.663-2.608.996-4.146.996zm0-2.925c.876 0 1.665-.201 2.37-.604a4.33 4.33 0 0 0 1.66-1.685c.401-.72.603-1.54.603-2.458 0-.918-.202-1.738-.603-2.458a4.33 4.33 0 0 0-1.66-1.685c-.705-.403-1.494-.604-2.37-.604-.874 0-1.663.201-2.368.604a4.33 4.33 0 0 0-1.66 1.685c-.402.72-.603 1.54-.603 2.458 0 .918.201 1.738.603 2.458a4.33 4.33 0 0 0 1.66 1.685c.705.403 1.494.604 2.368.604zM289.18 85.079l-2.855-4.133h-3.151v4.133h-3.427V70.244h6.409c1.311 0 2.449.22 3.415.657.967.438 1.71 1.06 2.232 1.865.521.805.782 1.759.782 2.861 0 1.102-.264 2.052-.793 2.85-.528.799-1.28 1.41-2.252 1.834l3.32 4.768h-3.68zm-.063-9.452c0-.834-.268-1.473-.804-1.918-.535-.445-1.318-.668-2.347-.668h-2.792v5.172h2.792c1.029 0 1.812-.227 2.347-.679.536-.452.804-1.088.804-1.907zM136.926 93.506c1.311 0 2.449.219 3.415.657.966.438 1.71 1.06 2.232 1.865.521.805.782 1.759.782 2.86 0 1.089-.261 2.039-.782 2.851-.522.812-1.266 1.434-2.232 1.865-.966.431-2.104.646-3.415.646h-2.983v4.09h-3.426V93.506h6.409zm-.191 7.947c1.029 0 1.812-.223 2.348-.668.536-.445.804-1.077.804-1.896 0-.834-.268-1.473-.804-1.918-.536-.445-1.319-.668-2.348-.668h-2.792v5.15h2.792zM155.22 108.34l-2.856-4.132h-3.151v4.132h-3.425V93.506h6.407c1.312 0 2.451.219 3.416.657.966.438 1.709 1.06 2.231 1.865.522.805.782 1.759.782 2.86 0 1.103-.264 2.053-.793 2.851-.528.798-1.278 1.409-2.252 1.833l3.321 4.768h-3.68zm-.064-9.451c0-.834-.268-1.473-.804-1.918-.535-.445-1.318-.668-2.347-.668h-2.792v5.171h2.792c1.029 0 1.812-.226 2.347-.678.536-.452.804-1.088.804-1.907zM168.502 108.595c-1.538 0-2.923-.332-4.156-.996-1.234-.664-2.2-1.579-2.897-2.744-.698-1.166-1.047-2.476-1.047-3.931 0-1.456.349-2.766 1.047-3.932.697-1.165 1.663-2.08 2.897-2.744 1.233-.664 2.618-.996 4.156-.996 1.537 0 2.919.332 4.145.996a7.476 7.476 0 0 1 2.897 2.744c.705 1.166 1.058 2.476 1.058 3.932 0 1.455-.353 2.765-1.058 3.931a7.479 7.479 0 0 1-2.897 2.744c-1.226.664-2.608.996-4.145.996zm0-2.924c.874 0 1.663-.202 2.368-.604a4.333 4.333 0 0 0 1.661-1.685c.402-.721.602-1.54.602-2.458 0-.919-.2-1.738-.602-2.459a4.326 4.326 0 0 0-1.661-1.684c-.705-.403-1.494-.605-2.368-.605-.874 0-1.664.202-2.369.605a4.324 4.324 0 0 0-1.66 1.684c-.402.72-.603 1.54-.603 2.459 0 .918.201 1.737.603 2.458a4.33 4.33 0 0 0 1.66 1.685c.705.402 1.495.604 2.369.604zM189.186 100.69h3.13v6.019c-.804.608-1.735 1.074-2.792 1.399a10.81 10.81 0 0 1-3.194.487c-1.536 0-2.918-.328-4.144-.985a7.326 7.326 0 0 1-2.888-2.734c-.698-1.166-1.047-2.483-1.047-3.952 0-1.47.349-2.787 1.047-3.953.699-1.165 1.668-2.077 2.909-2.734 1.24-.657 2.636-.985 4.187-.985 1.297 0 2.475.219 3.532.657a6.984 6.984 0 0 1 2.664 1.907l-2.199 2.035c-1.057-1.116-2.333-1.674-3.828-1.674-.944 0-1.783.197-2.516.593a4.256 4.256 0 0 0-1.714 1.674c-.408.72-.613 1.547-.613 2.48 0 .918.205 1.737.613 2.458.409.72.977 1.282 1.703 1.685.726.402 1.555.604 2.486.604.986 0 1.874-.212 2.664-.636v-4.345zM204.921 108.34l-2.855-4.132h-3.152v4.132h-3.425V93.506h6.408c1.311 0 2.45.219 3.415.657.966.438 1.71 1.06 2.232 1.865.522.805.782 1.759.782 2.86 0 1.103-.264 2.053-.792 2.851-.53.798-1.28 1.409-2.253 1.833l3.32 4.768h-3.68zm-.063-9.451c0-.834-.268-1.473-.805-1.918-.535-.445-1.318-.668-2.347-.668h-2.792v5.171h2.792c1.029 0 1.812-.226 2.347-.678.537-.452.805-1.088.805-1.907zM220.783 105.162h-6.873l-1.311 3.178h-3.512l6.599-14.834h3.384l6.619 14.834h-3.595l-1.311-3.178zm-1.078-2.607-2.348-5.68-2.347 5.68h4.695zM240.705 108.34l-.02-8.9-4.357 7.332h-1.544l-4.336-7.142v8.71h-3.215V93.506h2.835l5.541 9.219 5.457-9.22h2.812l.042 14.835h-3.215z" fill="#E25448"/><path fill-rule="evenodd" clip-rule="evenodd" d="M103.469 55.148c1.319.146 2.586.352 3.626.733 2.097.769 3.555 2.092 4.211 3.977v.002c.612 1.76.515 4.184-.471 6.922-1.13 3.14-3.425 6.867-6.409 10.32-.411.476-.833.948-1.27 1.411-.275.294-.55.571-.822.84l-.058.057c-2.204 2.146-4.31 3.495-6.03 4.6-.993.636-1.88.987-2.242 1.687l-.006.01c-.006.022.001.047.001.074 0 .792.03 1.547.081 2.285v.003c.175 2.547.603 4.872 1.025 7.505v.001a14.217 14.217 0 0 1 .159 1.496c.008.28.012.559.016.836 0 .055 0 .11-.002.164-.108 3.012-1.438 5.282-4.896 9.424-2.742 3.286-3.625 4.043-3.853 6.234v.002c-.174 1.663-.548 2.842-1.11 3.813-.811 1.401-2.056 2.444-4.305 3.639-1.764.941-1.55 1.649-2.498 4.291-2.597 7.244-8.326 9.129-13.125 9.272l-.06.002c-.735.02-1.446 0-2.115-.051h-.001a23.595 23.595 0 0 1-3.692-.585l-.008-.002c-2.346-.574-3.745-1.843-4.86-3.983-.68-1.304-1.24-3.082-2.119-5.365l-.027-.07a47.382 47.382 0 0 0-.938-2.265v-.001c-.15-.336-.306-.681-.477-1.036l-.004-.01c-3.22-6.734-4.741-13.194-5.385-18.075-.023-.169-.048-.344-.067-.511-.071-.574-.124-1.11-.164-1.624l-.005-.073a32.618 32.618 0 0 1-.093-1.841 19.39 19.39 0 0 0 6.415-1.17c-.004.793.022 1.632.097 2.572l.006.085c.033.402.074.819.13 1.265l.001.014c.016.136.037.28.055.419l.002.013c.574 4.357 1.934 10.124 4.809 16.138a52.963 52.963 0 0 1 1.619 3.776c.654 1.692 1.102 3.089 1.577 4.196.263.612.37 1.138.952 1.283.61.147 1.554.337 2.664.422h.004c.271.021.552.034.84.038l.912-.14.453.092c2.475-.228 5.25-1.341 6.549-4.965v-.001c1.826-5.088 2.131-5.988 5.53-7.801l.004-.002c.847-.45 1.454-.655 1.76-1.181.18-.313.22-.715.275-1.249.344-3.305 1.177-4.742 5.316-9.701v-.001c2.084-2.495 3.304-3.648 3.4-5.449-.003-.2-.007-.401-.013-.612a7.643 7.643 0 0 0-.08-.7c-.456-2.837-.903-5.343-1.091-8.086a39.44 39.44 0 0 1-.096-2.73c0-1.171.264-2.164.727-3.056.02-.037.039-.074.06-.11.686-1.259 1.852-2.336 3.476-3.419 1.565-1.044 3.692-2.211 5.916-4.363l.04-.04c.227-.223.457-.454.687-.699l.002-.001c.373-.398.735-.803 1.088-1.21 2.405-2.785 4.31-5.756 5.221-8.288.351-.975.639-1.82.488-2.474a3.388 3.388 0 0 0-.386-.185c-.535-.196-1.159-.309-1.818-.399-1.021-.14-2.107-.222-3.165-.306a19.575 19.575 0 0 0 3.567-6.083zm-9.475 32.37a3.191 3.191 0 0 0-.172-.512l.172.512zm-6.246 1.543c.042.174.1.345.171.511l-.171-.51zM26.665 73.485c-1.912.503-3.667 1.19-5.015 1.541-2.024.53-3.25.545-4.332.255-1.309-.35-2.52-1.35-5.192-3.696v-.001c-2.039-1.79-5.025-3.677-7.39-5.605-2.058-1.677-3.669-3.452-4.405-5.147L.077 60l-.081-1.146c.013-.551.101-1.191.157-1.547l-.002-.001.004-.038.234-5.476a42.745 42.745 0 0 0-.234-4.258c-.69-6.28 2.557-10.655 5.316-13.96 1.396-1.674 3.116-2.797 4.644-3.717a38.705 38.705 0 0 0 1.65-1.083c.848-1.52 2.902-3.888 3.41-5.593l.512-1.06.83-.881c.53-.428 1.479-.938 2.784-1.395 4.728-1.657 16.21-3.518 19.791-5.45 2.803-1.51 4.685-1.7 6.198-1.385 1.067.223 2.029.713 3.005 1.49.849.675 1.755 1.652 3.043 2.782v.001c1.685 1.481 2.9 3.654 4.118 5.652.61.999 1.06 2.069 2.036 2.367l.03.01c.19.05.404.043.648.004 3.562-.57 8.317-1.629 9.826-1.857l.319-.135c1.071-.319 2.836-.484 3.793-.274.179.038.359.079.54.125 2.718.686 4.83 1.136 6.72 1.907l.08.031c1.889.782 3.6 1.849 5.393 3.696-2.852.036-5.73.697-8.426 2.041-1.514-.548-3.218-.888-5.338-1.423h-.002a5.47 5.47 0 0 0-.168-.04l-.66.101a3.219 3.219 0 0 1-1.574.388c-.914.19-6.137 1.27-9.49 1.807a8.331 8.331 0 0 1-2.013.085l-.69.116-.533-.322a7.97 7.97 0 0 1-.333-.093l.093-.052-.184-.11.09.16c-2.027-.62-3.605-2.094-4.921-4.035-1.166-1.718-2.05-3.943-3.595-5.3-1.426-1.253-2.188-2.358-3.138-2.814-.135-.065-.264.062-.473.135a9.488 9.488 0 0 0-1.345.62c-2.212 1.193-7.144 2.448-11.977 3.587-3.485.821-7.97 2.145-9.301 2.544-.946 1.932-2.712 4.241-3.48 5.712-.471.902-1.288 1.747-2.422 2.513-1.251.846-3.171 1.622-4.554 3.28-1.83 2.191-4.315 4.957-3.857 9.119.189 1.723.262 3.444.273 5.003 0 .053 0 .106-.003.16l-.24 5.64c-.003.06-.008.12-.013.178l-.044.4-.057.486c.496.771 1.373 1.503 2.33 2.283 2.426 1.978 5.481 3.922 7.57 5.758a281.959 281.959 0 0 0 2.62 2.27c.223-.038.667-.12 1.04-.218 2.684-.7 6.682-2.168 10.7-2.29a19.593 19.593 0 0 0-4.061 6.987z" fill="#fff"/><path fill-rule="evenodd" clip-rule="evenodd" d="M75.096 76.746a15.052 15.052 0 0 1-6.129 6.69l-16.17 9.357c-7.23 4.183-16.5 1.705-20.673-5.54-4.173-7.244-1.679-16.53 5.55-20.713l14.032-8.12c-.052 1.32.058 2.661.37 3.971a15.64 15.64 0 0 0 1.236 3.47L41.29 72.818c-3.762 2.177-5.056 7.016-2.878 10.796 2.177 3.78 7.006 5.078 10.768 2.901l16.17-9.357a7.928 7.928 0 0 0 2.998-3.078 7.953 7.953 0 0 0 .949-3.815 7.73 7.73 0 0 0-.85-3.524 3.01 3.01 0 0 0-.2-.392c-1.75-3.037-5.227-4.464-8.472-3.78a7.74 7.74 0 0 1-.85-3.523 7.868 7.868 0 0 1 .968-3.826c5.74-.577 11.556 2.178 14.623 7.502.139.241.258.49.395.729.57 1.118.973 2.287 1.254 3.457.294 1.321.421 2.652.353 3.984a15.003 15.003 0 0 1-1.422 5.854z" fill="#84C1D9"/><path fill-rule="evenodd" clip-rule="evenodd" d="M52.065 62.395a14.846 14.846 0 0 1-.382-3.964 15.463 15.463 0 0 1 1.422-5.856 15.128 15.128 0 0 1 6.147-6.698L77.564 35.28c7.25-4.195 16.501-1.706 20.673 5.538 4.174 7.245 1.7 16.52-5.551 20.715l-16.182 9.364c.069-1.33-.05-2.666-.361-3.976a14.807 14.807 0 0 0-1.242-3.467l14.169-8.199a7.914 7.914 0 0 0 2.894-10.807 7.875 7.875 0 0 0-10.784-2.89L62.868 52.154a7.877 7.877 0 0 0-2.995 3.078 7.932 7.932 0 0 0-.955 3.815 8.242 8.242 0 0 0 .837 3.534l.218.379a7.886 7.886 0 0 0 8.461 3.788c.57 1.124.848 2.33.856 3.52a7.932 7.932 0 0 1-.955 3.816A15.098 15.098 0 0 1 53.7 66.59c-.139-.24-.276-.478-.394-.728a14.825 14.825 0 0 1-1.241-3.467z" fill="#F25849"/><path fill-rule="evenodd" clip-rule="evenodd" d="m102.701 22.854-1.969-6.034h-6.331l5.134-3.729-1.969-6.033 5.135 3.729 5.095-3.73-1.93 6.034 5.096 3.729h-6.331l-1.93 6.034z" fill="#fff"/><path fill-rule="evenodd" clip-rule="evenodd" d="M94.401 25.549v-.004L89.305 9.76v-.007l13.396-9.755 13.395 9.755v.007l-5.134 15.785v.004h-16.56zm8.3-2.696 1.93-6.034h6.331l-5.096-3.728 1.931-6.034-5.096 3.729-5.134-3.73 1.968 6.035-5.134 3.728h6.331l1.969 6.034z" fill="#F2B706"/></g><defs><clipPath id="a"><path fill="#fff" d="M0 0h293v135H0z"/></clipPath></defs></svg>