<svg width="229" height="111" viewBox="0 0 229 111" fill="none" xmlns="http://www.w3.org/2000/svg">
<g clip-path="url(#clip0_2783_154)">
<path d="M4.47412 49.1572H0.0117188V46.5625H12.1626V49.1572H7.70102V60.3225H4.47412V49.1572Z" fill="#172840"/>
<path d="M26.6838 46.5625V60.3225H23.4568V54.6809H17.123V60.3225H13.896V46.5625H17.123V51.9879H23.4568V46.5625H26.6838Z" fill="#172840"/>
<path d="M40.7872 57.7671V60.3225H29.991V46.5625H40.5283V49.1179H33.1975V52.1058H39.6718V54.5826H33.1975V57.7671H40.7872Z" fill="#172840"/>
<path d="M58.1768 57.374H51.7024L50.4679 60.3225H47.1609L53.3764 46.5625H56.5633L62.7976 60.3225H59.4114L58.1768 57.374ZM57.161 54.9561L54.9499 49.688L52.7386 54.9561H57.161Z" fill="#172840"/>
<path d="M67.4789 49.1179V52.7545H73.9327V55.31H67.4789V60.3225H64.252V46.5625H74.7893V49.1179H67.4789Z" fill="#172840"/>
<path d="M85.8648 60.3225L83.1752 56.4894H80.2079V60.3225H76.981V46.5625H83.0159C84.2514 46.5625 85.3233 46.7656 86.2335 47.1719C87.1429 47.5781 87.8436 48.1547 88.3348 48.9017C88.8261 49.6487 89.0714 50.5333 89.0714 51.5554C89.0714 52.5776 88.8227 53.4589 88.3246 54.1993C87.8265 54.9397 87.1198 55.5065 86.2037 55.8997L89.331 60.3225H85.8648ZM85.8052 51.5554C85.8052 50.7822 85.5524 50.1892 85.0483 49.7764C84.5434 49.3637 83.806 49.1572 82.8371 49.1572H80.2079V53.9536H82.8371C83.806 53.9536 84.5434 53.7439 85.0483 53.3246C85.5524 52.9052 85.8052 52.3155 85.8052 51.5554Z" fill="#172840"/>
<path d="M94.8483 46.5625H91.6213V60.3226H94.8483V46.5625Z" fill="#172840"/>
<path d="M104.828 60.5584C103.407 60.5584 102.122 60.2537 100.974 59.6444C99.825 59.035 98.9216 58.1897 98.2643 57.1086C97.607 56.0274 97.2783 54.8054 97.2783 53.4425C97.2783 52.0796 97.607 50.8576 98.2643 49.7764C98.9216 48.6953 99.825 47.85 100.974 47.2407C102.122 46.6313 103.414 46.3266 104.848 46.3266C106.057 46.3266 107.149 46.5363 108.125 46.9556C109.101 47.375 109.92 47.9778 110.585 48.7641L108.513 50.6512C107.571 49.5766 106.401 49.0393 105.007 49.0393C104.144 49.0393 103.374 49.226 102.697 49.5995C102.019 49.973 101.491 50.4939 101.113 51.1623C100.734 51.8306 100.545 52.5907 100.545 53.4425C100.545 54.2943 100.734 55.0544 101.113 55.7228C101.491 56.3911 102.019 56.912 102.697 57.2855C103.374 57.659 104.144 57.8457 105.007 57.8457C106.401 57.8457 107.571 57.3019 108.513 56.2142L110.585 58.1013C109.92 58.9007 109.097 59.5101 108.115 59.9294C107.132 60.3487 106.036 60.5584 104.828 60.5584Z" fill="#172840"/>
<path d="M121.66 57.374H115.186L113.951 60.3225H110.644L116.86 46.5625H120.047L126.281 60.3225H122.895L121.66 57.374ZM120.644 54.9561L118.433 49.688L116.222 54.9561H120.644Z" fill="#172840"/>
<path d="M11.4305 72.7874C12.3199 73.0651 13.0159 73.5292 13.5195 74.1797C14.023 74.8301 14.2744 75.6304 14.2744 76.5804C14.2744 77.9252 13.7445 78.9593 12.6858 79.6828C11.6271 80.4063 10.0827 80.7681 8.05371 80.7681H0.0112305V65.4207H7.60906C9.50561 65.4207 10.9606 65.7788 11.9752 66.495C12.9897 67.2112 13.4974 68.1832 13.4974 69.411C13.4974 70.1564 13.3155 70.8215 12.9528 71.4062C12.5901 71.9908 12.0823 72.4512 11.4305 72.7874ZM3.58782 68.0955V71.7131H7.16544C8.05379 71.7131 8.72762 71.5596 9.18704 71.2527C9.64541 70.9457 9.87562 70.4926 9.87562 69.8933C9.87562 69.2941 9.64541 68.8446 9.18704 68.545C8.72762 68.2453 8.05379 68.0955 7.16544 68.0955H3.58782ZM7.78667 78.0932C8.73495 78.0932 9.44987 77.9398 9.93137 77.6328C10.4129 77.3259 10.6526 76.8508 10.6526 76.2077C10.6526 74.9361 9.69794 74.3003 7.78667 74.3003H3.58782V78.0932H7.78667Z" fill="#172840"/>
<path d="M24.5393 81.0312C22.9245 81.0312 21.4695 80.6877 20.1732 80.0007C18.877 79.3137 17.8624 78.3673 17.1297 77.1615C16.3959 75.9556 16.03 74.5999 16.03 73.0944C16.03 71.5889 16.3959 70.2332 17.1297 69.0273C17.8624 67.8214 18.877 66.875 20.1732 66.188C21.4695 65.5011 22.9245 65.1576 24.5393 65.1576C26.1531 65.1576 27.6049 65.5011 28.8938 66.188C30.1827 66.875 31.1972 67.8214 31.9374 69.0273C32.6775 70.2332 33.0485 71.5889 33.0485 73.0944C33.0485 74.5999 32.6775 75.9556 31.9374 77.1615C31.1972 78.3673 30.1827 79.3137 28.8938 80.0007C27.6049 80.6877 26.1531 81.0312 24.5393 81.0312ZM24.5393 78.0056C25.4571 78.0056 26.2866 77.7973 27.0278 77.3807C27.7679 76.9641 28.3492 76.3831 28.7719 75.6377C29.1934 74.8922 29.4048 74.0445 29.4048 73.0944C29.4048 72.1443 29.1934 71.2965 28.7719 70.5511C28.3492 69.8056 27.7679 69.2246 27.0278 68.8081C26.2866 68.3915 25.4571 68.1832 24.5393 68.1832C23.6205 68.1832 22.791 68.3915 22.0509 68.8081C21.3097 69.2246 20.7284 69.8056 20.3068 70.5511C19.8842 71.2965 19.6739 72.1443 19.6739 73.0944C19.6739 74.0445 19.8842 74.8922 20.3068 75.6377C20.7284 76.3831 21.3097 76.9641 22.0509 77.3807C22.791 77.7973 23.6205 78.0056 24.5393 78.0056Z" fill="#172840"/>
<path d="M45.6673 80.7681L42.6679 76.4927H39.3585V80.7681H35.7588V65.4207H42.4903C43.8686 65.4207 45.0639 65.6472 46.0784 66.1003C47.0929 66.5535 47.8751 67.1966 48.4228 68.0297C48.9705 68.8629 49.2449 69.8495 49.2449 70.9896C49.2449 72.1297 48.9674 73.1127 48.4113 73.9385C47.8562 74.7643 47.0677 75.3965 46.0459 75.835L49.533 80.7681H45.6673ZM45.6011 70.9896C45.6011 70.1272 45.3193 69.4658 44.7569 69.0054C44.1944 68.545 43.3723 68.3148 42.2905 68.3148H39.3585V73.6644H42.2905C43.3723 73.6644 44.1944 73.4306 44.7569 72.9628C45.3193 72.4951 45.6011 71.8373 45.6011 70.9896Z" fill="#172840"/>
<path d="M52.0886 65.4207H59.1534C60.8418 65.4207 62.3347 65.7386 63.6299 66.3744C64.9261 67.0102 65.9333 67.9055 66.6513 69.0602C67.3704 70.2149 67.7289 71.5596 67.7289 73.0944C67.7289 74.6291 67.3704 75.9739 66.6513 77.1286C65.9333 78.2833 64.9261 79.1785 63.6299 79.8144C62.3347 80.4502 60.8418 80.7681 59.1534 80.7681H52.0886V65.4207ZM58.9757 77.8521C60.5306 77.8521 61.7711 77.4245 62.6973 76.5695C63.6225 75.7144 64.0861 74.556 64.0861 73.0944C64.0861 71.6327 63.6225 70.4744 62.6973 69.6193C61.7711 68.7642 60.5306 68.3367 58.9757 68.3367H55.6873V77.8521H58.9757Z" fill="#172840"/>
<path d="M82.482 77.9179V80.7681H70.4404V65.4207H82.1929V68.2709H74.0169V71.6035H81.2372V74.366H74.0169V77.9179H82.482Z" fill="#172840"/>
<path d="M95.2564 80.7681L92.2581 76.4927H88.9475V80.7681H85.3479V65.4207H92.0793C93.4576 65.4207 94.653 65.6472 95.6675 66.1003C96.682 66.5535 97.4642 67.1966 98.0119 68.0297C98.5596 68.8629 98.834 69.8495 98.834 70.9896C98.834 72.1297 98.5564 73.1127 98.0003 73.9385C97.4452 74.7643 96.6567 75.3965 95.6349 75.835L99.1231 80.7681H95.2564ZM95.1902 70.9896C95.1902 70.1272 94.9084 69.4658 94.346 69.0054C93.7835 68.545 92.9614 68.3148 91.8796 68.3148H88.9475V73.6644H91.8796C92.9614 73.6644 93.7835 73.4306 94.346 72.9628C94.9084 72.4951 95.1902 71.8373 95.1902 70.9896Z" fill="#172840"/>
<path d="M101.678 65.4207H105.276V77.874H113.075V80.7681H101.678V65.4207Z" fill="#172840"/>
<path d="M127.139 77.9179V80.7681H115.096V65.4207H126.85V68.2709H118.674V71.6035H125.894V74.366H118.674V77.9179H127.139Z" fill="#172840"/>
<path d="M135.115 81.0312C133.886 81.0312 132.697 80.8668 131.549 80.5379C130.402 80.209 129.479 79.7815 128.782 79.2553L130.005 76.5804C130.672 77.0628 131.463 77.4501 132.382 77.7425C133.3 78.0348 134.219 78.1809 135.137 78.1809C136.16 78.1809 136.914 78.0311 137.403 77.7315C137.892 77.4319 138.136 77.0336 138.136 76.5366C138.136 76.1712 137.992 75.8679 137.703 75.6267C137.415 75.3855 137.044 75.1919 136.593 75.0457C136.141 74.8995 135.53 74.7388 134.759 74.5634C133.574 74.2856 132.604 74.0079 131.849 73.7302C131.093 73.4525 130.446 73.0067 129.905 72.3928C129.364 71.7789 129.094 70.9603 129.094 69.9372C129.094 69.0456 129.339 68.238 129.828 67.5145C130.316 66.791 131.052 66.2173 132.037 65.7934C133.022 65.3695 134.226 65.1576 135.649 65.1576C136.641 65.1576 137.61 65.2745 138.559 65.5084C139.507 65.7422 140.336 66.0784 141.047 66.5169L139.936 69.2137C138.5 68.4098 137.063 68.0078 135.625 68.0078C134.618 68.0078 133.874 68.1686 133.392 68.4902C132.912 68.8117 132.671 69.2356 132.671 69.7618C132.671 70.288 132.949 70.679 133.504 70.9348C134.06 71.1906 134.907 71.4427 136.048 71.6912C137.233 71.9689 138.203 72.2466 138.958 72.5243C139.714 72.802 140.362 73.2406 140.903 73.8398C141.443 74.4391 141.714 75.2503 141.714 76.2735C141.714 77.1505 141.465 77.9508 140.969 78.6743C140.473 79.3978 139.729 79.9715 138.736 80.3954C137.744 80.8193 136.537 81.0312 135.115 81.0312Z" fill="#172840"/>
<path d="M149.289 81.0312C148.06 81.0312 146.871 80.8668 145.723 80.5379C144.576 80.209 143.654 79.7815 142.957 79.2553L144.18 76.5804C144.846 77.0628 145.638 77.4501 146.557 77.7425C147.475 78.0348 148.393 78.1809 149.311 78.1809C150.334 78.1809 151.089 78.0311 151.578 77.7315C152.067 77.4319 152.311 77.0336 152.311 76.5366C152.311 76.1712 152.167 75.8679 151.877 75.6267C151.588 75.3855 151.218 75.1919 150.767 75.0457C150.315 74.8995 149.704 74.7388 148.934 74.5634C147.749 74.2856 146.779 74.0079 146.024 73.7302C145.268 73.4525 144.62 73.0067 144.079 72.3928C143.538 71.7789 143.268 70.9603 143.268 69.9372C143.268 69.0456 143.513 68.238 144.002 67.5145C144.49 66.791 145.227 66.2173 146.212 65.7934C147.197 65.3695 148.401 65.1576 149.822 65.1576C150.814 65.1576 151.785 65.2745 152.733 65.5084C153.681 65.7422 154.511 66.0784 155.222 66.5169L154.11 69.2137C152.673 68.4098 151.237 68.0078 149.8 68.0078C148.793 68.0078 148.049 68.1686 147.567 68.4902C147.086 68.8117 146.846 69.2356 146.846 69.7618C146.846 70.288 147.123 70.679 147.678 70.9348C148.234 71.1906 149.082 71.4427 150.223 71.6912C151.407 71.9689 152.378 72.2466 153.133 72.5243C153.888 72.802 154.536 73.2406 155.076 73.8398C155.618 74.4391 155.888 75.2503 155.888 76.2735C155.888 77.1505 155.64 77.9508 155.144 78.6743C154.648 79.3978 153.903 79.9715 152.911 80.3954C151.918 80.8193 150.711 81.0312 149.289 81.0312Z" fill="#172840"/>
<path d="M4.26859 94.3444C3.46079 94.3444 2.73237 94.1679 2.08222 93.8149C1.43207 93.4619 0.92196 92.976 0.553095 92.3572C0.1832 91.7385 -0.0012207 91.0419 -0.0012207 90.2675C-0.0012207 89.4932 0.1832 88.7966 0.553095 88.1778C0.92196 87.5591 1.43411 87.0732 2.08735 86.7202C2.74162 86.3671 3.47216 86.1906 4.27996 86.1906C4.91156 86.1906 5.48854 86.295 6.01092 86.5038C6.53434 86.7126 6.98048 87.022 7.35038 87.4319L6.60025 88.1494C5.99235 87.5192 5.23398 87.2042 4.32624 87.2042C3.72658 87.2042 3.18358 87.337 2.69932 87.6027C2.21505 87.8685 1.83596 88.2348 1.56292 88.7017C1.28987 89.1686 1.15279 89.6905 1.15279 90.2675C1.15279 90.8445 1.28987 91.3665 1.56292 91.8334C1.83596 92.3003 2.21505 92.6666 2.69932 92.9323C3.18358 93.198 3.72658 93.3309 4.32624 93.3309C5.22677 93.3309 5.98411 93.012 6.60025 92.3743L7.35038 93.0917C6.98048 93.5017 6.5323 93.813 6.00579 94.0256C5.47825 94.2381 4.89916 94.3444 4.26859 94.3444Z" fill="#172840"/>
<path d="M9.90048 89.2312C10.0921 88.882 10.3775 88.6163 10.7546 88.4341C11.1307 88.2519 11.5892 88.1608 12.127 88.1608V89.2198C12.0662 89.2122 11.9807 89.2084 11.8735 89.2084C11.2739 89.2084 10.802 89.385 10.4599 89.738C10.1179 90.091 9.94687 90.594 9.94687 91.2469V94.2533H8.83813V88.2177H9.90048V89.2312Z" fill="#172840"/>
<path d="M18.9593 91.2697C18.9593 91.3532 18.951 91.4633 18.9355 91.5999H13.9733C14.0434 92.1314 14.2794 92.5584 14.6833 92.8811C15.0872 93.2037 15.589 93.3651 16.1897 93.3651C16.9202 93.3651 17.5085 93.1221 17.9547 92.6362L18.5666 93.3423C18.2895 93.6611 17.9454 93.9041 17.5343 94.0711C17.1221 94.2381 16.6626 94.3216 16.1547 94.3216C15.5087 94.3216 14.9357 94.1907 14.435 93.9288C13.9353 93.6668 13.5489 93.3005 13.2758 92.8298C13.0028 92.3591 12.8657 91.8277 12.8657 91.2355C12.8657 90.6509 12.9986 90.1233 13.2645 89.6526C13.5293 89.1819 13.8951 88.8156 14.3608 88.5536C14.8255 88.2917 15.3509 88.1608 15.9351 88.1608C16.5204 88.1608 17.0418 88.2917 17.4993 88.5536C17.9567 88.8156 18.3143 89.1819 18.5729 89.6526C18.8305 90.1233 18.9593 90.6623 18.9593 91.2697ZM15.9351 89.0832C15.4045 89.0832 14.9605 89.2426 14.6029 89.5615C14.2454 89.8803 14.0352 90.2979 13.9733 90.8141H17.8969C17.8361 90.3055 17.626 89.8898 17.2685 89.5672C16.9109 89.2445 16.4668 89.0832 15.9351 89.0832Z" fill="#172840"/>
<path d="M22.548 88.1608C23.3939 88.1608 24.042 88.3657 24.4922 88.7757C24.9425 89.1857 25.1671 89.7968 25.1671 90.6092V94.2533H24.1171V93.4562C23.9327 93.7371 23.6689 93.9515 23.3269 94.0996C22.9848 94.2476 22.5789 94.3216 22.109 94.3216C21.4249 94.3216 20.8767 94.1584 20.4645 93.832C20.0534 93.5055 19.8474 93.0766 19.8474 92.5451C19.8474 92.0137 20.0442 91.5866 20.4357 91.264C20.8283 90.9413 21.4516 90.78 22.3058 90.78H24.0595V90.5636C24.0595 90.0929 23.9214 89.7323 23.6442 89.4818C23.367 89.2312 22.959 89.106 22.4212 89.106C22.0595 89.106 21.7051 89.1648 21.3589 89.2825C21.0127 89.4001 20.7212 89.5577 20.4821 89.7551L20.0205 88.9351C20.3358 88.6846 20.7129 88.4929 21.1518 88.36C21.5897 88.2272 22.0554 88.1608 22.548 88.1608ZM22.2945 93.4789C22.7169 93.4789 23.0827 93.3859 23.3907 93.1999C23.6978 93.0139 23.9214 92.7501 24.0595 92.4085V91.5658H22.3521C21.4135 91.5658 20.9437 91.877 20.9437 92.4996C20.9437 92.8032 21.0632 93.0424 21.3012 93.217C21.5402 93.3916 21.871 93.4789 22.2945 93.4789Z" fill="#172840"/>
<path d="M30.6609 93.9003C30.4992 94.0369 30.2993 94.1413 30.0602 94.2134C29.8222 94.2856 29.576 94.3216 29.3215 94.3216C28.7063 94.3216 28.2292 94.1584 27.8902 93.832C27.5523 93.5055 27.3833 93.0386 27.3833 92.4312V89.1173H26.3447V88.2177H27.3833V86.8967H28.491V88.2177H30.2447V89.1173H28.491V92.3857C28.491 92.7121 28.5734 92.9627 28.7393 93.1373C28.9041 93.3119 29.1411 93.3992 29.4492 93.3992C29.7871 93.3992 30.0757 93.3043 30.3137 93.1145L30.6609 93.9003Z" fill="#172840"/>
<path d="M31.9993 88.2177H33.1069V94.2533H31.9993V88.2177ZM32.5526 87.0561C32.3373 87.0561 32.159 86.9878 32.0168 86.8511C31.8736 86.7145 31.8025 86.5475 31.8025 86.3501C31.8025 86.1527 31.8736 85.9838 32.0168 85.8433C32.159 85.7029 32.3373 85.6326 32.5526 85.6326C32.768 85.6326 32.9472 85.6991 33.0894 85.8319C33.2316 85.9648 33.3027 86.1299 33.3027 86.3273C33.3027 86.5323 33.2316 86.705 33.0894 86.8454C32.9472 86.9859 32.768 87.0561 32.5526 87.0561Z" fill="#172840"/>
<path d="M40.6306 88.2177L37.9537 94.2533H36.8224L34.1455 88.2177H35.2995L37.3994 93.0576L39.5466 88.2177H40.6306Z" fill="#172840"/>
<path d="M47.0238 91.2697C47.0238 91.3532 47.0167 91.4633 47.0012 91.5999H42.039C42.1081 92.1314 42.344 92.5584 42.7489 92.8811C43.1528 93.2037 43.6546 93.3651 44.2543 93.3651C44.9848 93.3651 45.5741 93.1221 46.0203 92.6362L46.6313 93.3423C46.3542 93.6611 46.01 93.9041 45.5989 94.0711C45.1867 94.2381 44.7272 94.3216 44.2203 94.3216C43.5732 94.3216 43.0003 94.1907 42.5006 93.9288C41.9998 93.6668 41.6135 93.3005 41.3404 92.8298C41.0674 92.3591 40.9314 91.8277 40.9314 91.2355C40.9314 90.6509 41.0632 90.1233 41.329 89.6526C41.5938 89.1819 41.9597 88.8156 42.4254 88.5536C42.8911 88.2917 43.4156 88.1608 44.0008 88.1608C44.585 88.1608 45.1064 88.2917 45.5638 88.5536C46.0223 88.8156 46.3799 89.1819 46.6375 89.6526C46.895 90.1233 47.0238 90.6623 47.0238 91.2697ZM44.0008 89.0832C43.4702 89.0832 43.025 89.2426 42.6675 89.5615C42.31 89.8803 42.0998 90.2979 42.039 90.8141H45.9626C45.9008 90.3055 45.6905 89.8898 45.333 89.5672C44.9755 89.2445 44.5314 89.0832 44.0008 89.0832Z" fill="#172840"/>
<path d="M57.6869 93.2625V94.2533H51.8242V86.2817H57.5251V87.2725H52.9782V89.7209H57.0285V90.6889H52.9782V93.2625H57.6869Z" fill="#172840"/>
<path d="M61.9795 94.3216C61.3561 94.3216 60.8007 94.1888 60.3123 93.9231C59.8239 93.6574 59.4407 93.291 59.1635 92.8241C58.8874 92.3572 58.7483 91.8277 58.7483 91.2355C58.7483 90.6433 58.8874 90.1138 59.1635 89.6469C59.4407 89.18 59.8239 88.8156 60.3123 88.5536C60.8007 88.2917 61.3561 88.1608 61.9795 88.1608C62.5338 88.1608 63.0273 88.2708 63.4621 88.491C63.8969 88.7112 64.2338 89.03 64.4719 89.4476L63.6301 89.9828C63.4374 89.6943 63.1994 89.478 62.914 89.3337C62.6296 89.1895 62.3143 89.1173 61.9681 89.1173C61.5684 89.1173 61.2088 89.2047 60.8894 89.3793C60.57 89.5539 60.3196 89.8025 60.1393 90.1252C59.9579 90.4478 59.8683 90.8179 59.8683 91.2355C59.8683 91.6607 59.9579 92.0346 60.1393 92.3572C60.3196 92.6799 60.57 92.9285 60.8894 93.1031C61.2088 93.2778 61.5684 93.3651 61.9681 93.3651C62.3143 93.3651 62.6296 93.2929 62.914 93.1487C63.1994 93.0044 63.4374 92.7881 63.6301 92.4996L64.4719 93.0234C64.2338 93.441 63.8969 93.7617 63.4621 93.9857C63.0273 94.2097 62.5338 94.3216 61.9795 94.3216Z" fill="#172840"/>
<path d="M68.4304 94.3216C67.8225 94.3216 67.2765 94.1888 66.7922 93.9231C66.3069 93.6574 65.9278 93.291 65.6547 92.8241C65.3817 92.3572 65.2456 91.8277 65.2456 91.2355C65.2456 90.6433 65.3817 90.1138 65.6547 89.6469C65.9278 89.18 66.3069 88.8156 66.7922 88.5536C67.2765 88.2917 67.8225 88.1608 68.4304 88.1608C69.0383 88.1608 69.5824 88.2917 70.0636 88.5536C70.5437 88.8156 70.9208 89.18 71.1939 89.6469C71.4669 90.1138 71.6039 90.6433 71.6039 91.2355C71.6039 91.8277 71.4669 92.3572 71.1939 92.8241C70.9208 93.291 70.5437 93.6574 70.0636 93.9231C69.5824 94.1888 69.0383 94.3216 68.4304 94.3216ZM68.4304 93.3651C68.823 93.3651 69.1743 93.2758 69.4865 93.0974C69.7977 92.919 70.0419 92.6685 70.2192 92.3458C70.3964 92.0232 70.485 91.6531 70.485 91.2355C70.485 90.8179 70.3964 90.4478 70.2192 90.1252C70.0419 89.8025 69.7977 89.5539 69.4865 89.3793C69.1743 89.2047 68.823 89.1173 68.4304 89.1173C68.0379 89.1173 67.6865 89.2047 67.3743 89.3793C67.0632 89.5539 66.8169 89.8025 66.6356 90.1252C66.4553 90.4478 66.3646 90.8179 66.3646 91.2355C66.3646 91.6531 66.4553 92.0232 66.6356 92.3458C66.8169 92.6685 67.0632 92.919 67.3743 93.0974C67.6865 93.2758 68.0379 93.3651 68.4304 93.3651Z" fill="#172840"/>
<path d="M76.4044 88.1608C77.1813 88.1608 77.7984 88.3828 78.2569 88.827C78.7144 89.2711 78.9431 89.9221 78.9431 90.78V94.2533H77.8355V90.9053C77.8355 90.3207 77.6933 89.8803 77.4079 89.5842C77.1235 89.2882 76.7165 89.1401 76.1848 89.1401C75.5852 89.1401 75.1123 89.3128 74.7661 89.6583C74.4199 90.0037 74.2468 90.4991 74.2468 91.1444V94.2533H73.1392V88.2177H74.2004V89.1287C74.424 88.8175 74.7259 88.5783 75.1061 88.4113C75.4873 88.2443 75.9201 88.1608 76.4044 88.1608Z" fill="#172840"/>
<path d="M83.6519 94.3216C83.044 94.3216 82.4979 94.1888 82.0126 93.9231C81.5283 93.6574 81.1491 93.291 80.8761 92.8241C80.603 92.3572 80.4661 91.8277 80.4661 91.2355C80.4661 90.6433 80.603 90.1138 80.8761 89.6469C81.1491 89.18 81.5283 88.8156 82.0126 88.5536C82.4979 88.2917 83.044 88.1608 83.6519 88.1608C84.2598 88.1608 84.8038 88.2917 85.285 88.5536C85.7651 88.8156 86.1422 89.18 86.4152 89.6469C86.6883 90.1138 86.8253 90.6433 86.8253 91.2355C86.8253 91.8277 86.6883 92.3572 86.4152 92.8241C86.1422 93.291 85.7651 93.6574 85.285 93.9231C84.8038 94.1888 84.2598 94.3216 83.6519 94.3216ZM83.6519 93.3651C84.0445 93.3651 84.3957 93.2758 84.7069 93.0974C85.0191 92.919 85.2633 92.6685 85.4405 92.3458C85.6167 92.0232 85.7053 91.6531 85.7053 91.2355C85.7053 90.8179 85.6167 90.4478 85.4405 90.1252C85.2633 89.8025 85.0191 89.5539 84.7069 89.3793C84.3957 89.2047 84.0445 89.1173 83.6519 89.1173C83.2593 89.1173 82.907 89.2047 82.5958 89.3793C82.2846 89.5539 82.0373 89.8025 81.857 90.1252C81.6767 90.4478 81.5861 90.8179 81.5861 91.2355C81.5861 91.6531 81.6767 92.0232 81.857 92.3458C82.0373 92.6685 82.2846 92.919 82.5958 93.0974C82.907 93.2758 83.2593 93.3651 83.6519 93.3651Z" fill="#172840"/>
<path d="M96.0108 88.1608C96.7795 88.1608 97.3894 88.3809 97.8397 88.8213C98.29 89.2616 98.5145 89.9145 98.5145 90.78V94.2533H97.4069V90.9053C97.4069 90.3207 97.2698 89.8803 96.9968 89.5842C96.7238 89.2882 96.3333 89.1401 95.8264 89.1401C95.2648 89.1401 94.8187 89.3128 94.4869 89.6583C94.1562 90.0037 93.9913 90.4991 93.9913 91.1444V94.2533H92.8837V90.9053C92.8837 90.3207 92.7467 89.8803 92.4736 89.5842C92.2006 89.2882 91.8101 89.1401 91.3021 89.1401C90.7406 89.1401 90.2944 89.3128 89.9637 89.6583C89.6329 90.0037 89.467 90.4991 89.467 91.1444V94.2533H88.3594V88.2177H89.4217V89.1173C89.6443 88.8061 89.9369 88.5688 90.2985 88.4056C90.6602 88.2424 91.0712 88.1608 91.5328 88.1608C92.0099 88.1608 92.4334 88.2557 92.8022 88.4455C93.1721 88.6353 93.4565 88.9124 93.6564 89.2768C93.8872 88.9275 94.2087 88.6542 94.6198 88.4568C95.032 88.2595 95.4956 88.1608 96.0108 88.1608Z" fill="#172840"/>
<path d="M105.854 88.2177L102.888 94.8569C102.627 95.4718 102.321 95.9046 101.971 96.1551C101.621 96.4056 101.2 96.5309 100.707 96.5309C100.407 96.5309 100.117 96.4835 99.8365 96.3885C99.5553 96.2937 99.3224 96.1551 99.1379 95.9729L99.6109 95.153C99.9261 95.449 100.292 95.5971 100.707 95.5971C100.977 95.5971 101.202 95.5269 101.382 95.3864C101.563 95.246 101.726 95.0049 101.872 94.6633L102.069 94.2419L99.3688 88.2177H100.523L102.658 93.0462L104.77 88.2177H105.854Z" fill="#172840"/>
<path d="M112.513 94.3444C111.905 94.3444 111.319 94.2514 110.753 94.0654C110.187 93.8794 109.743 93.6384 109.42 93.3423L109.847 92.454C110.154 92.7273 110.549 92.9494 111.03 93.1202C111.51 93.291 112.005 93.3764 112.513 93.3764C113.181 93.3764 113.682 93.2645 114.013 93.0405C114.344 92.8165 114.509 92.5186 114.509 92.1465C114.509 91.8732 114.419 91.6512 114.238 91.4804C114.057 91.3095 113.834 91.1786 113.569 91.0875C113.303 90.9964 112.928 90.8939 112.444 90.78C111.836 90.6357 111.345 90.4915 110.972 90.3472C110.598 90.203 110.28 89.9809 110.014 89.6811C109.748 89.3812 109.616 88.9769 109.616 88.4682C109.616 88.0431 109.73 87.6597 109.956 87.318C110.183 86.9764 110.527 86.7031 110.989 86.4981C111.45 86.2931 112.024 86.1906 112.709 86.1906C113.186 86.1906 113.655 86.2514 114.116 86.3729C114.578 86.4943 114.974 86.6689 115.305 86.8967L114.925 87.8077C114.586 87.5952 114.224 87.4338 113.84 87.3237C113.454 87.2137 113.077 87.1586 112.709 87.1586C112.054 87.1586 111.564 87.2763 111.237 87.5117C110.911 87.747 110.747 88.0507 110.747 88.4227C110.747 88.696 110.84 88.9181 111.024 89.0889C111.208 89.2597 111.437 89.3926 111.71 89.4875C111.983 89.5824 112.355 89.6829 112.824 89.7892C113.432 89.9335 113.92 90.0777 114.29 90.222C114.659 90.3662 114.976 90.5864 115.241 90.8825C115.507 91.1786 115.64 91.5771 115.64 92.0782C115.64 92.4958 115.524 92.8773 115.294 93.2227C115.063 93.5681 114.713 93.8415 114.244 94.0426C113.774 94.2438 113.197 94.3444 112.513 94.3444Z" fill="#172840"/>
<path d="M122.864 88.2177V94.2533H121.814V93.3423C121.59 93.6536 121.297 93.8946 120.931 94.0654C120.565 94.2362 120.167 94.3216 119.737 94.3216C118.922 94.3216 118.279 94.0996 117.81 93.6554C117.34 93.2113 117.105 92.5565 117.105 91.691V88.2177H118.214V91.5658C118.214 92.1503 118.356 92.5926 118.64 92.8924C118.925 93.1923 119.333 93.3423 119.864 93.3423C120.449 93.3423 120.91 93.1677 121.248 92.8184C121.587 92.4692 121.756 91.9757 121.756 91.338V88.2177H122.864Z" fill="#172840"/>
<path d="M132.626 88.1608C133.396 88.1608 134.006 88.3809 134.455 88.8213C134.905 89.2616 135.131 89.9145 135.131 90.78V94.2533H134.022V90.9053C134.022 90.3207 133.886 89.8803 133.613 89.5842C133.34 89.2882 132.95 89.1401 132.442 89.1401C131.88 89.1401 131.434 89.3128 131.103 89.6583C130.773 90.0037 130.607 90.4991 130.607 91.1444V94.2533H129.499V90.9053C129.499 90.3207 129.363 89.8803 129.089 89.5842C128.816 89.2882 128.427 89.1401 127.919 89.1401C127.357 89.1401 126.911 89.3128 126.58 89.6583C126.248 90.0037 126.083 90.4991 126.083 91.1444V94.2533H124.976V88.2177H126.037V89.1173C126.261 88.8061 126.552 88.5688 126.914 88.4056C127.276 88.2424 127.688 88.1608 128.149 88.1608C128.626 88.1608 129.049 88.2557 129.419 88.4455C129.788 88.6353 130.072 88.9124 130.273 89.2768C130.504 88.9275 130.824 88.6542 131.236 88.4568C131.647 88.2595 132.111 88.1608 132.626 88.1608Z" fill="#172840"/>
<path d="M144.825 88.1608C145.593 88.1608 146.203 88.3809 146.654 88.8213C147.104 89.2616 147.328 89.9145 147.328 90.78V94.2533H146.221V90.9053C146.221 90.3207 146.084 89.8803 145.811 89.5842C145.538 89.2882 145.147 89.1401 144.639 89.1401C144.078 89.1401 143.632 89.3128 143.301 89.6583C142.97 90.0037 142.805 90.4991 142.805 91.1444V94.2533H141.697V90.9053C141.697 90.3207 141.561 89.8803 141.287 89.5842C141.014 89.2882 140.624 89.1401 140.116 89.1401C139.554 89.1401 139.108 89.3128 138.778 89.6583C138.447 90.0037 138.281 90.4991 138.281 91.1444V94.2533H137.173V88.2177H138.235V89.1173C138.458 88.8061 138.751 88.5688 139.112 88.4056C139.474 88.2424 139.885 88.1608 140.347 88.1608C140.824 88.1608 141.247 88.2557 141.616 88.4455C141.985 88.6353 142.27 88.9124 142.47 89.2768C142.701 88.9275 143.023 88.6542 143.434 88.4568C143.846 88.2595 144.308 88.1608 144.825 88.1608Z" fill="#172840"/>
<path d="M149.37 88.2177H150.479V94.2533H149.37V88.2177ZM149.925 87.0561C149.709 87.0561 149.53 86.9878 149.388 86.8511C149.246 86.7145 149.175 86.5475 149.175 86.3501C149.175 86.1527 149.246 85.9838 149.388 85.8433C149.53 85.7029 149.709 85.6326 149.925 85.6326C150.14 85.6326 150.319 85.6991 150.461 85.8319C150.604 85.9648 150.675 86.1299 150.675 86.3273C150.675 86.5323 150.604 86.705 150.461 86.8454C150.319 86.9859 150.14 87.0561 149.925 87.0561Z" fill="#172840"/>
<path d="M156.03 93.9003C155.868 94.0369 155.668 94.1413 155.429 94.2134C155.191 94.2856 154.945 94.3216 154.691 94.3216C154.075 94.3216 153.598 94.1584 153.26 93.832C152.921 93.5055 152.752 93.0386 152.752 92.4312V89.1173H151.713V88.2177H152.752V86.8967H153.86V88.2177H155.614V89.1173H153.86V92.3857C153.86 92.7121 153.942 92.9627 154.108 93.1373C154.273 93.3119 154.51 93.3992 154.818 93.3992C155.156 93.3992 155.444 93.3043 155.683 93.1145L156.03 93.9003Z" fill="#172840"/>
<path d="M7.24758 108.393H2.99028L2.17852 110.332H0.00390625L4.09093 101.284H6.18617L10.2862 110.332H8.05935L7.24758 108.393ZM6.57947 106.803L5.12521 103.339L3.67145 106.803H6.57947Z" fill="#F25849"/>
<path d="M15.2111 101.284C16.0234 101.284 16.7286 101.417 17.3267 101.685C17.9248 101.952 18.3855 102.331 18.7089 102.822C19.0317 103.313 19.1931 103.895 19.1931 104.567C19.1931 105.231 19.0317 105.81 18.7089 106.306C18.3855 106.801 17.9248 107.18 17.3267 107.443C16.7286 107.706 16.0234 107.837 15.2111 107.837H13.3645V110.332H11.2427V101.284H15.2111ZM15.0936 106.131C15.7309 106.131 16.2156 105.995 16.5473 105.724C16.879 105.453 17.0451 105.067 17.0451 104.567C17.0451 104.059 16.879 103.669 16.5473 103.397C16.2156 103.126 15.7309 102.99 15.0936 102.99H13.3645V106.131H15.0936Z" fill="#F25849"/>
<path d="M26.5419 110.332L24.7731 107.812H22.8216V110.332H20.6997V101.284H24.6686C25.4809 101.284 26.1856 101.417 26.7842 101.685C27.3823 101.952 27.8426 102.331 28.1659 102.822C28.4887 103.313 28.6507 103.895 28.6507 104.567C28.6507 105.239 28.4866 105.819 28.1591 106.306C27.8321 106.793 27.3667 107.165 26.7644 107.424L28.821 110.332H26.5419ZM26.5022 104.567C26.5022 104.059 26.3366 103.669 26.0049 103.397C25.6726 103.126 25.1879 102.99 24.5506 102.99H22.8216V106.144H24.5506C25.1879 106.144 25.6726 106.006 26.0049 105.73C26.3366 105.455 26.5022 105.067 26.5022 104.567Z" fill="#F25849"/>
<path d="M32.4489 101.284H30.3269V110.332H32.4489V101.284Z" fill="#F25849"/>
<path d="M34.6233 101.284H36.7452V108.626H41.343V110.332H34.6233V101.284Z" fill="#F25849"/>
<path d="M52.5161 108.626V110.332H45.5869V108.975L49.1233 105.679C49.4989 105.325 49.7522 105.022 49.8834 104.767C50.0145 104.513 50.0798 104.261 50.0798 104.011C50.0798 103.649 49.9555 103.371 49.7063 103.178C49.4577 102.984 49.093 102.887 48.6129 102.887C48.2107 102.887 47.8488 102.962 47.5254 103.113C47.2026 103.264 46.932 103.49 46.7131 103.792L45.168 102.809C45.5258 102.283 46.0194 101.872 46.6478 101.575C47.2768 101.277 47.9971 101.129 48.8094 101.129C49.49 101.129 50.0861 101.239 50.5969 101.458C51.1078 101.678 51.5053 101.988 51.789 102.389C52.0732 102.79 52.2147 103.262 52.2147 103.804C52.2147 104.296 52.1102 104.757 51.9002 105.188C51.6908 105.618 51.2849 106.11 50.6821 106.661L48.5733 108.626H52.5161Z" fill="#F25849"/>
<path d="M57.2967 110.487C56.5371 110.487 55.8607 110.302 55.2668 109.931C54.6728 109.561 54.2079 109.024 53.8715 108.322C53.5357 107.62 53.3674 106.782 53.3674 105.808C53.3674 104.834 53.5357 103.996 53.8715 103.294C54.2079 102.592 54.6728 102.055 55.2668 101.685C55.8607 101.314 56.5371 101.129 57.2967 101.129C58.0567 101.129 58.7332 101.314 59.3271 101.685C59.9211 102.055 60.386 102.592 60.7224 103.294C61.0583 103.996 61.2265 104.834 61.2265 105.808C61.2265 106.782 61.0583 107.62 60.7224 108.322C60.386 109.024 59.9211 109.561 59.3271 109.931C58.7332 110.302 58.0567 110.487 57.2967 110.487ZM57.2967 108.716C57.8556 108.716 58.2944 108.479 58.6136 108.005C58.9322 107.531 59.0915 106.799 59.0915 105.808C59.0915 104.817 58.9322 104.084 58.6136 103.611C58.2944 103.137 57.8556 102.9 57.2967 102.9C56.7466 102.9 56.3125 103.137 55.9934 103.611C55.6747 104.084 55.5154 104.817 55.5154 105.808C55.5154 106.799 55.6747 107.531 55.9934 108.005C56.3125 108.479 56.7466 108.716 57.2967 108.716Z" fill="#F25849"/>
<path d="M69.0333 108.626V110.332H62.104V108.975L65.6405 105.679C66.0161 105.325 66.2694 105.022 66.4005 104.767C66.5316 104.513 66.5969 104.261 66.5969 104.011C66.5969 103.649 66.4726 103.371 66.2234 103.178C65.9748 102.984 65.6102 102.887 65.1296 102.887C64.7284 102.887 64.3659 102.962 64.0426 103.113C63.7197 103.264 63.4486 103.49 63.2308 103.792L61.6851 102.809C62.0429 102.283 62.536 101.872 63.1649 101.575C63.7939 101.277 64.5142 101.129 65.3265 101.129C66.0077 101.129 66.6032 101.239 67.1141 101.458C67.6249 101.678 68.0224 101.988 68.3061 102.389C68.5902 102.79 68.7318 103.262 68.7318 103.804C68.7318 104.296 68.6269 104.757 68.4174 105.188C68.2079 105.618 67.802 106.11 67.1992 106.661L65.0904 108.626H69.0333Z" fill="#F25849"/>
<path d="M74.2988 104.658C74.8838 104.658 75.4166 104.774 75.8967 105.007C76.3773 105.239 76.7571 105.569 77.0365 105.995C77.316 106.422 77.4554 106.915 77.4554 107.475C77.4554 108.079 77.3029 108.609 76.9973 109.065C76.6918 109.522 76.2744 109.873 75.7463 110.119C75.2181 110.364 74.6305 110.487 73.9843 110.487C72.7008 110.487 71.6968 110.099 70.9718 109.324C70.2473 108.548 69.8848 107.441 69.8848 106.002C69.8848 104.976 70.0811 104.097 70.474 103.365C70.8668 102.632 71.4148 102.077 72.1179 101.697C72.821 101.318 73.6353 101.129 74.561 101.129C75.0499 101.129 75.519 101.183 75.9688 101.29C76.4185 101.398 76.8009 101.551 77.1149 101.749L76.3292 103.287C75.8748 102.986 75.3033 102.835 74.6132 102.835C73.8359 102.835 73.2206 103.059 72.7662 103.507C72.3122 103.955 72.0677 104.606 72.0328 105.459C72.5744 104.925 73.3298 104.658 74.2988 104.658ZM73.8668 108.923C74.3207 108.923 74.6895 108.803 74.9732 108.561C75.2573 108.32 75.3989 107.992 75.3989 107.579C75.3989 107.165 75.2573 106.836 74.9732 106.59C74.6895 106.344 74.3118 106.222 73.8406 106.222C73.3778 106.222 72.9976 106.349 72.7009 106.603C72.4042 106.857 72.2553 107.182 72.2553 107.579C72.2553 107.975 72.3995 108.298 72.6878 108.548C72.9756 108.798 73.3689 108.923 73.8668 108.923Z" fill="#F25849"/>
<path fill-rule="evenodd" clip-rule="evenodd" d="M163.824 62.7536L157.822 50.0804L139.019 54.0031L123.509 34.5251L140.903 5.025L165.644 -0.0630124L174.989 7.83557L184.637 8.84629C185.792 5.98037 188.62 3.94569 191.916 3.9342C195.807 3.9211 199.03 6.72861 199.615 10.4134L204.171 10.8886L209.325 30.9053L226.817 29.0592L228.891 45.1644L209.544 63.3836L209.166 66.2714C212.597 67.0204 215.155 70.0483 215.144 73.6766C215.133 77.8768 211.678 81.2992 207.435 81.3128C207.355 81.3136 207.274 81.3138 207.193 81.3096L206.851 83.9132L198.718 100.206L178.066 111.033L165.392 86.5894L166.439 74.1494C163.972 72.8568 162.295 70.2893 162.304 67.328C162.308 65.6191 162.873 64.0396 163.824 62.7536ZM169.457 75.0122L168.536 85.9556L179.394 106.892L194.702 98.8664L173.174 74.4017C172.228 74.8057 171.188 75.0321 170.096 75.0367C169.881 75.0367 169.668 75.0301 169.457 75.0122ZM175.731 72.6461L196.987 96.8028L203.862 83.0326L204.178 80.6087C201.576 79.4069 199.774 76.7963 199.769 73.7626L177.636 69.3734C177.279 70.6191 176.615 71.738 175.731 72.6461ZM177.876 66.3055L200.381 70.7667C201.38 68.4464 203.502 66.7079 206.066 66.2255L206.378 63.8482L202.729 52.7841C199.829 52.3628 197.456 50.3565 196.528 47.6824L179.074 46.3288L173.357 60.2367C175.78 61.3154 177.541 63.5905 177.876 66.3055ZM170.311 59.5628L187.391 18.0225C186.747 17.5752 186.174 17.0353 185.694 16.42L169.784 24.5573C169.902 25.0948 169.962 25.6512 169.96 26.2223C169.949 30.4919 166.435 33.9713 162.122 33.9872C159.818 33.9941 157.746 33.011 156.321 31.4427L134.058 42.829L140.269 50.6277L159.586 46.5982L166.225 60.6164C167.378 59.9502 168.716 59.5682 170.142 59.5631C170.198 59.5628 170.256 59.5632 170.311 59.5628ZM165.774 66.8714C165.758 67.0167 165.75 67.165 165.75 67.3161C165.747 68.3816 166.135 69.3558 166.78 70.1084C167.505 70.956 168.558 71.518 169.744 71.6115C169.864 71.6209 169.984 71.626 170.107 71.6248C170.305 71.6233 170.501 71.6089 170.694 71.5837C171.798 71.4323 172.773 70.8737 173.459 70.0659C173.799 69.6642 174.066 69.2039 174.245 68.7C174.4 68.2568 174.486 67.7802 174.488 67.2837C174.49 66.6718 174.362 66.0899 174.133 65.5631C173.721 64.623 172.979 63.8554 172.053 63.409C171.474 63.1284 170.821 62.9713 170.131 62.9729C169.677 62.9755 169.24 63.047 168.828 63.176C168.421 63.3022 168.04 63.4865 167.695 63.7177C166.642 64.4197 165.913 65.5597 165.774 66.8714ZM157.939 25.1034C157.833 25.4738 157.777 25.8632 157.777 26.2645C157.774 26.5926 157.811 26.9117 157.879 27.2189C158.116 28.2673 158.735 29.1687 159.589 29.7722C160.305 30.2802 161.181 30.5779 162.132 30.5745C164.544 30.5655 166.506 28.6216 166.514 26.2342L166.513 26.2291C166.517 25.13 166.101 24.1262 165.418 23.3641C164.62 22.4765 163.456 21.9203 162.158 21.9234C161.293 21.9282 160.485 22.1805 159.806 22.6114C158.908 23.1827 158.233 24.0644 157.939 25.1034ZM208.434 60.2318L225.636 44.0334L224.138 32.4097L206.993 34.2173L201.708 13.7039L199.486 13.4706C198.88 15.9162 197.102 17.9158 194.779 18.8455L201.079 37.9407C201.966 37.5915 202.934 37.3976 203.945 37.3932C208.26 37.378 211.75 40.833 211.739 45.1026C211.728 48.683 209.258 51.7067 205.916 52.5992L208.434 60.2318ZM203.221 74.4472C203.392 75.4443 203.914 76.3207 204.658 76.9499C205.408 77.5814 206.381 77.9614 207.445 77.9581C207.508 77.9578 207.571 77.9554 207.634 77.953C209.918 77.847 211.748 75.9731 211.754 73.6882C211.761 71.7737 210.485 70.1562 208.725 69.6281C208.328 69.5107 207.906 69.4461 207.47 69.4481C206.794 69.4506 206.155 69.6059 205.586 69.8843C204.863 70.2361 204.253 70.7801 203.825 71.4506C203.405 72.1076 203.161 72.8869 203.159 73.7173C203.158 73.9666 203.18 74.2104 203.221 74.4472ZM142.111 9.01652L127.231 34.2528L132.12 40.3951L154.755 28.8186C154.477 28.0235 154.326 27.1684 154.331 26.2763C154.332 24.8956 154.704 23.5956 155.349 22.4716L142.111 9.01652ZM184.079 11.8582L173.699 10.7729L164.775 3.22905L144.78 7.34193L157.381 20.1484C158.705 19.1294 160.367 18.5197 162.168 18.5136C164.804 18.5033 167.132 19.7905 168.542 21.7665L184.335 13.69C184.178 13.1042 184.091 12.4896 184.079 11.8582ZM190.212 19.2379L180.294 43.3622L196.13 44.5878C196.275 42.6829 197.12 40.967 198.406 39.6862L191.716 19.4067C191.2 19.4003 190.697 19.3409 190.212 19.2379ZM200.637 47.9997C200.854 48.2434 201.098 48.4637 201.365 48.6518C202.081 49.1598 202.96 49.4583 203.91 49.4548C204.23 49.4542 204.544 49.4198 204.844 49.3516C206.81 48.9225 208.286 47.1852 208.292 45.1145C208.299 42.7264 206.348 40.7968 203.935 40.8059C203.299 40.8065 202.695 40.9441 202.15 41.1883C201.028 41.6885 200.154 42.6433 199.769 43.8157C199.66 44.1467 199.589 44.4944 199.565 44.8554C199.558 44.9514 199.554 45.0481 199.553 45.1462C199.551 46.2411 199.959 47.2398 200.637 47.9997ZM193.706 15.5972C194.771 15.1067 195.608 14.2097 196.008 13.1076C196.172 12.6538 196.262 12.1642 196.264 11.6555C196.265 11.0794 196.152 10.532 195.948 10.029C195.302 8.44965 193.736 7.33958 191.907 7.34693C190.415 7.3509 189.097 8.09835 188.304 9.22853C187.815 9.92875 187.528 10.7759 187.524 11.6873C187.519 14.0733 189.471 16.0055 191.881 15.9958C192.533 15.9939 193.151 15.852 193.706 15.5972Z" fill="#172840"/>
<path fill-rule="evenodd" clip-rule="evenodd" d="M166.788 70.0196L166.141 69.7612L166.317 69.3328C166.453 69.5769 166.611 69.8053 166.788 70.0196Z" fill="#172840"/>
<path d="M162.031 30.5702C164.447 30.5702 166.406 28.637 166.406 26.2524C166.406 23.8678 164.447 21.9346 162.031 21.9346C159.614 21.9346 157.655 23.8678 157.655 26.2524C157.655 28.637 159.614 30.5702 162.031 30.5702Z" fill="#83C0D8"/>
<path d="M170.136 71.5783C172.553 71.5783 174.512 69.6451 174.512 67.2605C174.512 64.8758 172.553 62.9427 170.136 62.9427C167.72 62.9427 165.761 64.8758 165.761 67.2605C165.761 69.6451 167.72 71.5783 170.136 71.5783Z" fill="white"/>
<path fill-rule="evenodd" clip-rule="evenodd" d="M166.805 70.054C166.805 70.0391 166.78 70.0267 166.78 70.0118L166.805 70.0267V70.054Z" fill="white"/>
<path d="M207.563 78.0381C209.94 78.0381 211.867 76.1364 211.867 73.7906C211.867 71.4448 209.94 69.5432 207.563 69.5432C205.186 69.5432 203.259 71.4448 203.259 73.7906C203.259 76.1364 205.186 78.0381 207.563 78.0381Z" fill="#F1B606"/>
<path d="M203.925 49.5656C206.341 49.5656 208.3 47.6324 208.3 45.2478C208.3 42.8632 206.341 40.93 203.925 40.93C201.509 40.93 199.55 42.8632 199.55 45.2478C199.55 47.6324 201.509 49.5656 203.925 49.5656Z" fill="#F25849"/>
<path d="M191.78 16.1223C194.197 16.1223 196.156 14.1891 196.156 11.8045C196.156 9.41981 194.197 7.48669 191.78 7.48669C189.364 7.48669 187.405 9.41981 187.405 11.8045C187.405 14.1891 189.364 16.1223 191.78 16.1223Z" fill="white"/>
</g>
<defs>
<clipPath id="clip0_2783_154">
<rect width="229" height="111" fill="white"/>
</clipPath>
</defs>
</svg>
