<svg width="690" height="405" viewBox="0 0 690 405" fill="none" xmlns="http://www.w3.org/2000/svg">
<path d="M33.0324 473.866L-46.6637 396.404L55.1343 589.842L33.0324 473.866ZM-49.3291 391.433L34.6107 473.008L34.6604 473.279L57.8776 595.128L57.0549 595.285L56.2842 595.685L-50.6715 392.446L-49.3291 391.433Z" fill="#172840"/>
<path d="M55.7839 594.743L-48.6204 396.347L-25.9632 616.43L55.7839 594.743ZM-49.1635 391.646L58.2914 595.843L-27.4566 618.586L-27.5555 617.601L-50.7639 392.146L-49.1635 391.646Z" fill="#172840"/>
<path d="M763.6 408.262L617.521 331.223L794.216 503.724L763.6 408.262ZM613.108 326.972L765.015 407.076L796.888 506.452L796.373 506.624L795.487 507.338L612.122 328.337L613.108 326.972Z" fill="#172840"/>
<path d="M794.041 505.937L614.418 330.586L666.092 510.281L794.041 505.937ZM611.004 324.865L798.099 507.51L664.821 512.038L611.004 324.865Z" fill="#172840"/>
<path d="M533.944 488.738L609.663 332.073L521.116 422.891L533.944 488.738ZM612.106 327.13L613.478 328.101L533.246 494.08L519.273 422.334L519.588 422.019L612.106 327.13Z" fill="#172840"/>
<path d="M664.279 510.124L612.506 330.1L534.873 490.737L664.279 510.124ZM612.92 325.351L666.651 512.195L532.331 492.08L612.92 325.351Z" fill="#172840"/>
<path d="M519.415 423.091L361.85 298.27L532.173 488.537L519.415 423.091ZM355.093 290.742L520.971 422.133L534.429 491.251L533.558 491.451L532.959 491.979L353.936 291.984L355.093 290.742Z" fill="#172840"/>
<path d="M532.031 490.938L355.122 293.314L314.449 548.055L532.031 490.938ZM354.007 289.506L535.16 491.88L533.817 492.237L312.364 550.37L354.007 289.506Z" fill="#172840"/>
<path d="M354.291 290.599L354.834 292.221L154.732 358.923L174.496 514.024L172.811 514.253L152.867 357.746L153.531 357.523L354.291 290.599Z" fill="#172840"/>
<path d="M353.91 290.871L355.225 291.949L174.315 514.666L172.987 513.595L353.91 290.871Z" fill="#172840"/>
<path d="M353.91 290.871L355.225 291.949L174.315 514.666L172.987 513.595L353.91 290.871Z" fill="#172840"/>
<path d="M153.022 358.903L66.3539 317.251L172.243 509.81L153.022 358.903ZM62.2958 313.4L154.593 357.767L154.65 358.224L174.5 514.025L173.63 514.138L172.902 514.538L62.2958 313.4Z" fill="#172840"/>
<path d="M171.905 512.738L64.7137 317.8L34.8056 472.836L171.905 512.738ZM63.9354 312.85L65.0724 314.914L175.384 515.524L32.8412 474.037L32.9846 473.278L63.9354 312.85Z" fill="#172840"/>
<path d="M-47.2002 389.19L61.2699 316.35L-5.44832 320.001L-47.2002 389.19ZM67.3779 314.3L-49.2788 392.647L-49.4356 392.904H-52.7213L-50.5427 391.447L-6.44019 318.35L67.3779 314.3Z" fill="#172840"/>
<path d="M33.2841 471.722L63.1003 317.171L-48.5765 392.176L33.2841 471.722ZM65.5504 313.479L34.3626 475.151L-51.2771 391.932L65.5504 313.479Z" fill="#172840"/>
<path d="M798.898 313.593L682.678 289.27L616.446 326.601L798.898 313.593ZM682.391 287.471L682.706 287.534L805.226 313.171L805.113 314.857L612.774 328.572L612.403 327.307L612.303 326.978L682.391 287.471Z" fill="#172840"/>
<path d="M680.711 288.421L558.105 228.204L613.051 326.558L680.711 288.421ZM553.947 224.26L684.368 288.321L613.136 328.473L612.665 327.752L611.978 328.136L553.947 224.26Z" fill="#172840"/>
<path d="M611.661 327.579L556.445 228.717L521.529 420.02L611.661 327.579ZM555.617 223.746L613.776 327.858L518.857 425.206L555.617 223.746Z" fill="#172840"/>
<path d="M555.888 225.389L556.29 227.046L354.822 292.214L354.308 290.591L544.847 228.954L415.396 250.418L415.126 248.733L555.888 225.389Z" fill="#172840"/>
<path d="M519.613 421.062L554.928 227.482L356.348 291.728L519.613 421.062ZM557.114 224.982L520.771 424.163L352.777 291.084L557.114 224.982Z" fill="#172840"/>
<path d="M415.196 248.726L415.337 250.426L179.056 270.605L354.664 290.556L354.464 292.256L170.341 271.334L170.362 269.634L415.196 248.726Z" fill="#172840"/>
<path d="M350.622 291.813L171.129 271.428L154.913 357.067L350.622 291.813ZM169.748 269.549L170.534 269.641L354.666 290.557L354.836 292.214L152.698 359.602L169.748 269.549Z" fill="#172840"/>
<path d="M169.149 270.105L78.1796 137.163L65.2725 313.992L169.149 270.105ZM76.8307 132.185L171.735 270.87L63.3718 316.658L76.8307 132.185Z" fill="#172840"/>
<path d="M153.168 357.088L169.305 271.892L66.4007 315.38L153.168 357.088ZM171.569 269.084L154.432 359.588L62.2501 315.279L171.569 269.084Z" fill="#172840"/>
<path d="M62.7883 314.557L-55.7028 137.078L-5.30795 318.287L62.7883 314.557ZM-57.2389 131.699L65.8681 316.101L-6.57893 320.066L-6.76502 319.401L-58.7679 132.4L-57.2389 131.699Z" fill="#172840"/>
<path d="M751.054 174.922L615.447 84.5818L802.427 309.514L751.054 174.922ZM611.518 79.918L752.454 173.8L805.842 313.699L805.056 314.014L804.398 314.557L610.389 81.1743L611.518 79.918Z" fill="#172840"/>
<path d="M802.842 312.679L613.375 84.7534L683.179 287.635L802.842 312.679ZM611.704 80.082L807.27 315.35L681.893 289.107L681.721 288.648L610.248 80.9024L611.704 80.082Z" fill="#172840"/>
<path d="M609.864 81.3467L525.86 71.5609L556.276 223.161L609.864 81.3467ZM523.732 69.5889L612.236 79.9043L556.677 226.946L555.376 227.275L555.19 226.396L523.732 69.5889Z" fill="#172840"/>
<path d="M681.05 286.691L611.019 83.1397L557.103 225.803L681.05 286.691ZM611.09 78.1172L684.009 290.048L554.959 226.653L611.09 78.1172Z" fill="#172840"/>
<path d="M525.629 70.4033L556.758 225.574L559.059 226.345L555.373 227.275L555.287 226.881L319.518 147.535L320.061 145.914L554.902 224.946L523.957 70.7456L525.629 70.4033Z" fill="#172840"/>
<path d="M320.064 145.914L556.305 225.418L556.176 227.067L415.397 250.418L415.127 248.733L552.519 225.947L319.521 147.535L320.064 145.914Z" fill="#172840"/>
<path d="M319.251 146.063L320.336 147.386L173.087 269.399L415.198 248.726L415.34 250.426L167.793 271.562L319.251 146.063Z" fill="#172840"/>
<path d="M169.436 267.505L160.029 80.2116L78.6962 134.9L169.436 267.505ZM161.578 77.1113L161.658 78.6181L171.437 273.455L76.3175 134.449L161.578 77.1113Z" fill="#172840"/>
<path d="M750.844 172.723L744.886 26.202L612.852 80.7972L750.844 172.723ZM746.487 23.6875L752.686 175.994L609.25 80.4473L746.487 23.6875Z" fill="#172840"/>
<path d="M607.276 327.73C607.276 324.722 609.719 322.278 612.719 322.278C615.72 322.278 618.149 324.722 618.149 327.73C618.149 330.729 615.72 333.173 612.719 333.173C609.719 333.173 607.276 330.729 607.276 327.73Z" fill="#172840"/>
<path d="M349.894 291.414C349.894 288.827 351.993 286.735 354.565 286.735C357.137 286.735 359.238 288.827 359.238 291.414C359.238 293.993 357.137 296.092 354.565 296.092C351.993 296.092 349.894 293.993 349.894 291.414Z" fill="#172840"/>
<path d="M348.963 291.414C348.963 288.314 351.478 285.792 354.563 285.792C357.663 285.792 360.164 288.314 360.164 291.414C360.164 294.513 357.663 297.028 354.563 297.028C351.478 297.028 348.963 294.513 348.963 291.414Z" fill="#172840"/>
<path d="M351.895 291.413C351.895 289.935 353.095 288.734 354.566 288.734C356.038 288.734 357.238 289.935 357.238 291.413C357.238 292.892 356.038 294.092 354.566 294.092C353.095 294.092 351.895 292.892 351.895 291.413Z" fill="#172840"/>
<path d="M349.738 291.414C349.738 288.735 351.895 286.57 354.567 286.57C357.237 286.57 359.396 288.735 359.396 291.414C359.396 294.085 357.237 296.256 354.567 296.256C351.895 296.256 349.738 294.085 349.738 291.414Z" fill="#172840"/>
<path d="M147.479 358.338C147.479 354.837 150.314 351.995 153.808 351.995C157.301 351.995 160.129 354.837 160.129 358.338C160.129 361.838 157.301 364.674 153.808 364.674C150.314 364.674 147.479 361.838 147.479 358.338Z" fill="#172840"/>
<path d="M347.907 291.413C347.907 287.727 350.892 284.741 354.564 284.741C358.236 284.741 361.222 287.727 361.222 291.413C361.222 295.091 358.236 298.077 354.564 298.077C350.892 298.077 347.907 295.091 347.907 291.413Z" fill="#172840"/>
<path d="M349.109 291.414C349.109 288.391 351.553 285.948 354.567 285.948C357.582 285.948 360.025 288.391 360.025 291.414C360.025 294.427 357.582 296.877 354.567 296.877C351.553 296.877 349.109 294.427 349.109 291.414Z" fill="#172840"/>
<path d="M349.021 291.413C349.021 288.34 351.507 285.848 354.564 285.848C357.621 285.848 360.107 288.34 360.107 291.413C360.107 294.484 357.621 296.971 354.564 296.971C351.507 296.971 349.021 294.484 349.021 291.413Z" fill="#172840"/>
<path d="M60.5496 315.329C60.5496 313.237 62.2349 311.544 64.321 311.544C66.4071 311.544 68.0994 313.237 68.0994 315.329C68.0994 317.415 66.4071 319.108 64.321 319.108C62.2349 319.108 60.5496 317.415 60.5496 315.329Z" fill="#172840"/>
<path d="M57.5997 315.328C57.5997 311.601 60.6075 308.586 64.3216 308.586C68.0362 308.586 71.0493 311.601 71.0493 315.328C71.0493 319.05 68.0362 322.065 64.3216 322.065C60.6075 322.065 57.5997 319.05 57.5997 315.328Z" fill="#172840"/>
<path d="M58.3739 315.328C58.3739 312.029 61.0394 309.363 64.3251 309.363C67.6108 309.363 70.2757 312.029 70.2757 315.328C70.2757 318.62 67.6108 321.286 64.3251 321.286C61.0394 321.286 58.3739 318.62 58.3739 315.328Z" fill="#172840"/>
<path d="M678.009 288.371C678.009 285.864 680.037 283.835 682.537 283.835C685.038 283.835 687.066 285.864 687.066 288.371C687.066 290.879 685.038 292.906 682.537 292.906C680.037 292.906 678.009 290.879 678.009 288.371Z" fill="#172840"/>
<path d="M678.195 288.37C678.195 285.962 680.137 284.013 682.538 284.013C684.937 284.013 686.88 285.962 686.88 288.37C686.88 290.777 684.937 292.727 682.538 292.727C680.137 292.727 678.195 290.777 678.195 288.37Z" fill="#172840"/>
<path d="M552.617 226.231C552.617 224.338 554.146 222.802 556.032 222.802C557.918 222.802 559.447 224.338 559.447 226.231C559.447 228.124 557.918 229.653 556.032 229.653C554.146 229.653 552.617 228.124 552.617 226.231Z" fill="#172840"/>
<path d="M551.73 226.232C551.73 223.853 553.658 221.925 556.029 221.925C558.4 221.925 560.316 223.853 560.316 226.232C560.316 228.61 558.4 230.539 556.029 230.539C553.658 230.539 551.73 228.61 551.73 226.232Z" fill="#172840"/>
<path d="M347.521 291.406C347.521 287.506 350.678 284.342 354.563 284.342C358.45 284.342 361.607 287.506 361.607 291.406C361.607 295.306 358.45 298.463 354.563 298.463C350.678 298.463 347.521 295.306 347.521 291.406Z" fill="#172840"/>
<path d="M349.237 291.407C349.237 288.457 351.623 286.064 354.565 286.064C357.509 286.064 359.895 288.457 359.895 291.407C359.895 294.357 357.509 296.75 354.565 296.75C351.623 296.75 349.237 294.357 349.237 291.407Z" fill="#172840"/>
<path d="M165.925 270.491C165.925 267.991 167.947 265.962 170.44 265.962C172.925 265.962 174.954 267.991 174.954 270.491C174.954 272.984 172.925 275.013 170.44 275.013C167.947 275.013 165.925 272.984 165.925 270.491Z" fill="#172840"/>
<path d="M164.347 270.491C164.347 267.111 167.076 264.383 170.441 264.383C173.798 264.383 176.526 267.111 176.526 270.491C176.526 273.863 173.798 276.599 170.441 276.599C167.076 276.599 164.347 273.863 164.347 270.491Z" fill="#172840"/>
<path d="M71.4823 134.67C71.4823 131.343 74.1829 128.634 77.5049 128.634C80.8333 128.634 83.5339 131.343 83.5339 134.67C83.5339 138.007 80.8333 140.713 77.5049 140.713C74.1829 140.713 71.4823 138.007 71.4823 134.67Z" fill="#172840"/>
<path d="M163.897 270.49C163.897 266.868 166.826 263.934 170.441 263.934C174.056 263.934 176.97 266.868 176.97 270.49C176.97 274.105 174.056 277.041 170.441 277.041C166.826 277.041 163.897 274.105 163.897 270.49Z" fill="#172840"/>
<path d="M166.089 270.491C166.089 268.085 168.039 266.135 170.44 266.135C172.84 266.135 174.783 268.085 174.783 270.491C174.783 272.892 172.84 274.849 170.44 274.849C168.039 274.849 166.089 272.892 166.089 270.491Z" fill="#172840"/>
<path d="M608.49 80.6253C608.49 79.2104 609.634 78.0605 611.049 78.0605C612.462 78.0605 613.619 79.2104 613.619 80.6253C613.619 82.0473 612.462 83.1972 611.049 83.1972C609.634 83.1972 608.49 82.0473 608.49 80.6253Z" fill="#172840"/>
<path d="M679.18 288.371C679.18 286.52 680.68 285.014 682.537 285.014C684.38 285.014 685.881 286.52 685.881 288.371C685.881 290.22 684.38 291.729 682.537 291.729C680.68 291.729 679.18 290.22 679.18 288.371Z" fill="#172840"/>
<path d="M607.863 80.6257C607.863 78.8684 609.291 77.4395 611.049 77.4395C612.806 77.4395 614.234 78.8684 614.234 80.6257C614.234 82.39 612.806 83.819 611.049 83.819C609.291 83.819 607.863 82.39 607.863 80.6257Z" fill="#172840"/>
<path d="M520.073 70.5747C520.073 67.9607 522.187 65.8447 524.788 65.8447C527.402 65.8447 529.517 67.9607 529.517 70.5747C529.517 73.1892 527.402 75.3104 524.788 75.3104C522.187 75.3104 520.073 73.1892 520.073 70.5747Z" fill="#172840"/>
<path d="M608.191 80.625C608.191 79.0462 609.476 77.7676 611.049 77.7676C612.635 77.7676 613.907 79.0462 613.907 80.625C613.907 82.2108 612.635 83.4894 611.049 83.4894C609.476 83.4894 608.191 82.2108 608.191 80.625Z" fill="#172840"/>
<path d="M518.786 70.5741C518.786 67.2521 521.471 64.5586 524.786 64.5586C528.114 64.5586 530.801 67.2521 530.801 70.5741C530.801 73.895 528.114 76.5879 524.786 76.5879C521.471 76.5879 518.786 73.895 518.786 70.5741Z" fill="#172840"/>
<path d="M677.851 288.371C677.851 285.778 679.95 283.671 682.536 283.671C685.121 283.671 687.222 285.778 687.222 288.371C687.222 290.963 685.121 293.072 682.536 293.072C679.95 293.072 677.851 290.963 677.851 288.371Z" fill="#172840"/>
<path d="M603.861 80.6251C603.861 76.646 607.076 73.417 611.049 73.417C615.019 73.417 618.247 76.646 618.247 80.6251C618.247 84.6113 615.019 87.8403 611.049 87.8403C607.076 87.8403 603.861 84.6113 603.861 80.6251Z" fill="#172840"/>
<path d="M314.164 146.721C314.164 143.614 316.694 141.092 319.794 141.092C322.894 141.092 325.409 143.614 325.409 146.721C325.409 149.834 322.894 152.356 319.794 152.356C316.694 152.356 314.164 149.834 314.164 146.721Z" fill="#172840"/>
<path d="M520.757 70.5754C520.757 68.3388 522.572 66.5312 524.786 66.5312C527.014 66.5312 528.829 68.3388 528.829 70.5754C528.829 72.8107 527.014 74.6177 524.786 74.6177C522.572 74.6177 520.757 72.8107 520.757 70.5754Z" fill="#172840"/>
<path d="M317.278 146.722C317.278 145.335 318.406 144.207 319.792 144.207C321.178 144.207 322.306 145.335 322.306 146.722C322.306 148.114 321.178 149.242 319.792 149.242C318.406 149.242 317.278 148.114 317.278 146.722Z" fill="#172840"/>
<path d="M411.909 249.576C411.909 247.727 413.41 246.219 415.267 246.219C417.11 246.219 418.611 247.727 418.611 249.576C418.611 251.427 417.11 252.933 415.267 252.933C413.41 252.933 411.909 251.427 411.909 249.576Z" fill="#172840"/>
<path d="M316.836 146.722C316.836 145.084 318.164 143.764 319.794 143.764C321.422 143.764 322.75 145.084 322.75 146.722C322.75 148.357 321.422 149.685 319.794 149.685C318.164 149.685 316.836 148.357 316.836 146.722Z" fill="#172840"/>
<path d="M166.163 270.477C166.163 268.113 168.071 266.198 170.435 266.198C172.799 266.198 174.714 268.113 174.714 270.477C174.714 272.842 172.799 274.763 170.435 274.763C168.071 274.763 166.163 272.842 166.163 270.477Z" fill="#172840"/>
<path d="M153.637 78.6607C153.637 74.6891 156.851 71.4678 160.808 71.4678C164.773 71.4678 167.979 74.6891 167.979 78.6607C167.979 82.6328 164.773 85.8466 160.808 85.8466C156.851 85.8466 153.637 82.6328 153.637 78.6607Z" fill="#172840"/>
<path d="M161.407 270.476C161.407 265.483 165.45 261.434 170.436 261.434C175.414 261.434 179.458 265.483 179.458 270.476C179.458 275.477 175.414 279.527 170.436 279.527C165.45 279.527 161.407 275.477 161.407 270.476Z" fill="#172840"/>
<path d="M153.857 78.66C153.857 74.8096 156.972 71.6895 160.807 71.6895C164.643 71.6895 167.757 74.8096 167.757 78.66C167.757 82.5034 164.643 85.6253 160.807 85.6253C156.972 85.6253 153.857 82.5034 153.857 78.66Z" fill="#172840"/>
<path d="M238.445 162.878L238.073 161.45L309.92 142.386L313.306 20.9287L314.777 20.9726L311.363 143.528L238.445 162.878Z" fill="#172840"/>
<path d="M311.392 142.462L492.386 214.381L314.735 22.7792L311.392 142.462ZM494.871 216.952L309.891 143.448L313.306 20.9283L314.034 20.9505L314.577 20.4502L495.685 215.767L494.871 216.952Z" fill="#172840"/>
<path d="M-56.3933 154.114L-165.391 245.955L8.58107 138.013L-56.3933 154.114ZM-173.248 252.562L-174.106 251.37L-57.0791 152.764L12.7738 135.449L13.3385 136.799L-173.248 252.562Z" fill="#172840"/>
<path d="M259.277 268.518L137.263 233.01L137.677 231.588L257.376 266.433L237.532 162.299L238.976 162.021L259.277 268.518Z" fill="#172840"/>
<path d="M259.002 267.112L327.891 334.058L239.9 166.865L259.002 267.112ZM330.19 338.345L257.644 267.847L257.602 267.612L237.529 162.3L238.244 162.164L238.901 161.814L331.348 337.473L330.19 338.345Z" fill="#172840"/>
<path d="M239.346 162.635L329.579 334.102L309.994 143.892L239.346 162.635ZM330.05 338.166L237.175 161.678L311.279 142.021L311.38 142.878L331.437 337.744L330.05 338.166Z" fill="#172840"/>
<path d="M492.842 218.896L336.12 334.729L457.012 283.677L492.842 218.896ZM330.977 338.5L330.263 337.222L494.57 215.788L495.055 214.895L496.17 216.431L495.699 216.781L458.053 284.834L457.811 284.934L330.977 338.5Z" fill="#172840"/>
<path d="M311.492 144.093L331.292 336.459L493.643 216.473L311.492 144.093ZM330.092 339.18L309.777 141.82L496.658 216.081L330.092 339.18Z" fill="#172840"/>
<path d="M458.656 283.742L526.573 298.314L495.029 217.995L458.656 283.742ZM528.944 300.328L456.399 284.77L495.057 214.902L495.829 216.002L528.944 300.328Z" fill="#172840"/>
<path d="M496.201 216.939L527.145 295.735L529.845 214.345L496.201 216.939ZM527.073 299.593L494.1 215.616L531.374 212.752L528.488 299.343L527.073 299.593Z" fill="#172840"/>
<path d="M527.999 300.014L527.399 298.671L722.25 193.345L722.951 194.636L536.542 295.405L640.476 258.391L640.961 259.783L527.999 300.014Z" fill="#172840"/>
<path d="M531.317 214.217L528.53 298.064L718.997 195.102L531.317 214.217ZM526.973 300.578L529.888 212.881L530.529 212.816L722.525 193.259L722.954 194.637L526.973 300.578Z" fill="#172840"/>
<path d="M-172.275 252.348L-19.3742 423.162L15.777 202.987L-172.275 252.348ZM-18.4098 426.449L-174.981 251.533L-173.816 251.226L17.5852 200.987L-18.4098 426.449Z" fill="#172840"/>
<path d="M-18.6614 425.505L-19.1249 424.105L153.819 366.453L136.739 232.396L138.196 232.203L155.433 367.466L-18.6614 425.505Z" fill="#172840"/>
<path d="M-18.3234 425.263L-19.4674 424.334L136.905 231.84L138.048 232.768L-18.3234 425.263Z" fill="#172840"/>
<path d="M-18.3234 425.263L-19.4674 424.334L136.905 231.84L138.048 232.768L-18.3234 425.263Z" fill="#172840"/>
<path d="M155.304 366.467L230.2 402.476L138.689 236.039L155.304 366.467ZM233.716 405.789L153.94 367.452L153.89 367.052L136.739 232.396L137.483 232.296L138.117 231.945L233.716 405.789Z" fill="#172840"/>
<path d="M138.978 233.511L231.632 401.991L257.476 267.998L138.978 233.511ZM232.303 406.275L231.318 404.49L135.97 231.096L259.176 266.955L259.047 267.619L232.303 406.275Z" fill="#172840"/>
<path d="M328.35 340.294L234.603 403.247L292.263 400.09L328.35 340.294ZM229.318 405.018L330.151 337.301L330.28 337.08H333.122L331.237 338.344L293.12 401.518L229.318 405.018Z" fill="#172840"/>
<path d="M258.791 268.955L233.017 402.533L329.537 337.715L258.791 268.955ZM230.904 405.733L257.862 265.998L331.878 337.923L230.904 405.733Z" fill="#172840"/>
<path d="M293.779 400.432L403.754 443.891L330.751 339.164L293.779 400.432ZM407.755 447.063L291.62 401.176L330.28 337.08H331.08L331.308 337.393L407.755 447.063Z" fill="#172840"/>
<path d="M331.832 338.144L405.506 443.834L456.339 285.556L331.832 338.144ZM405.994 447.12L329.575 337.494L458.724 282.949L405.994 447.12Z" fill="#172840"/>
<path d="M526.401 302.093L408.868 442.893L507.743 387.718L526.401 302.093ZM406.111 446.121L405.182 445.007L527.187 298.843L528.473 299.457L509.044 388.69L508.759 388.846L406.111 446.121Z" fill="#172840"/>
<path d="M458.024 285.112L407.608 442.106L526.399 299.778L458.024 285.112ZM406.307 445.949L405.051 445.249L457.024 283.391L529.099 298.849L406.307 445.949Z" fill="#172840"/>
<path d="M509.227 387.832L681.435 483.98L528.156 300.935L509.227 387.832ZM684.22 487.222L507.555 388.575L527.355 297.692L528.313 298.842L685.134 486.108L684.22 487.222Z" fill="#172840"/>
<path d="M529 299.649L683.305 483.923L640.161 260.069L529 299.649ZM685.836 489.236L684.007 487.05L526.513 298.971L641.276 258.104L685.836 489.236Z" fill="#172840"/>
<path d="M-15.4898 424.448L139.646 442.078L153.668 368.054L-15.4898 424.448ZM140.84 443.693L140.161 443.622L-18.9762 425.534L-19.1249 424.105L155.584 365.859L140.84 443.693Z" fill="#172840"/>
<path d="M141.359 443.218L219.984 558.11L231.143 405.274L141.359 443.218ZM221.142 562.425L139.124 442.561L232.785 402.975L221.142 562.425Z" fill="#172840"/>
<path d="M155.169 368.039L141.226 441.679L230.174 404.09L155.169 368.039ZM139.269 444.106L154.076 365.881L233.759 404.176L139.269 444.106Z" fill="#172840"/>
<path d="M233.29 404.789L335.709 558.196L292.149 401.575L233.29 404.789ZM337.037 562.839L230.631 403.46L293.249 400.031L293.407 400.602L338.351 562.225L337.037 562.839Z" fill="#172840"/>
<path d="M293.802 402.034L337.89 560.555L404.679 445.85L293.802 402.034ZM337.405 564.313L291.588 399.576L292.96 400.119L406.822 445.107L406.379 445.85L337.405 564.313Z" fill="#172840"/>
<path d="M406.997 445.621L498.059 529.797L507.574 389.505L406.997 445.621ZM499.317 532.968L498.187 531.925L404.512 445.321L509.231 386.903L499.317 532.968Z" fill="#172840"/>
<path d="M509.057 389.415L499.485 530.422L682.579 486.292L509.057 389.415ZM497.885 532.322L507.742 386.986L686.579 486.849L497.885 532.322Z" fill="#172840"/>
<path d="M685.568 486.436L757.743 546.797L739.484 407.576L685.568 486.436ZM759.7 550.34L683.596 486.708L683.982 486.151L740.442 403.576L740.684 405.476L759.7 550.34Z" fill="#172840"/>
<path d="M316.464 20.9514C316.464 22.2868 315.379 23.3799 314.051 23.3799C312.708 23.3799 311.622 22.2868 311.622 20.9514C311.622 19.6085 312.708 18.523 314.051 18.523C315.379 18.523 316.464 19.6085 316.464 20.9514Z" fill="#172840"/>
<path d="M314.195 142.956C314.195 144.921 312.609 146.521 310.637 146.521C308.679 146.521 307.094 144.921 307.094 142.956C307.094 140.993 308.679 139.392 310.637 139.392C312.609 139.392 314.195 140.993 314.195 142.956Z" fill="#172840"/>
<path d="M244.288 162.164C244.288 165.507 241.589 168.215 238.259 168.215C234.916 168.215 232.215 165.507 232.215 162.164C232.215 158.822 234.916 156.114 238.259 156.114C241.589 156.114 244.288 158.822 244.288 162.164Z" fill="#172840"/>
<path d="M316.878 20.9518C316.878 22.523 315.605 23.7939 314.049 23.7939C312.477 23.7939 311.207 22.523 311.207 20.9518C311.207 19.3806 312.477 18.109 314.049 18.109C315.605 18.109 316.878 19.3806 316.878 20.9518Z" fill="#172840"/>
<path d="M498.588 216.267C498.588 218.174 497.045 219.717 495.145 219.717C493.244 219.717 491.701 218.174 491.701 216.267C491.701 214.367 493.244 212.823 495.145 212.823C497.045 212.823 498.588 214.367 498.588 216.267Z" fill="#172840"/>
<path d="M317.907 20.9518C317.907 23.0947 316.179 24.8291 314.035 24.8291C311.907 24.8291 310.177 23.0947 310.177 20.9518C310.177 18.8083 311.907 17.0733 314.035 17.0733C316.179 17.0733 317.907 18.8083 317.907 20.9518Z" fill="#172840"/>
<path d="M15.9064 136.171C15.9064 137.806 14.5851 139.135 12.9495 139.135C11.3198 139.135 9.99147 137.806 9.99147 136.171C9.99147 134.534 11.3198 133.206 12.9495 133.206C14.5851 133.206 15.9064 134.534 15.9064 136.171Z" fill="#172840"/>
<path d="M17.0205 136.172C17.0205 138.422 15.1995 140.243 12.9489 140.243C10.7053 140.243 8.88313 138.422 8.88313 136.172C8.88313 133.922 10.7053 132.093 12.9489 132.093C15.1995 132.093 17.0205 133.922 17.0205 136.172Z" fill="#172840"/>
<path d="M334.979 337.816C334.979 340.188 333.065 342.108 330.693 342.108C328.335 342.108 326.421 340.188 326.421 337.816C326.421 335.443 328.335 333.53 330.693 333.53C333.065 333.53 334.979 335.443 334.979 337.816Z" fill="#172840"/>
<path d="M335.175 337.816C335.175 340.301 333.175 342.309 330.69 342.309C328.217 342.309 326.218 340.301 326.218 337.816C326.218 335.336 328.217 333.322 330.69 333.322C333.175 333.322 335.175 335.336 335.175 337.816Z" fill="#172840"/>
<path d="M498.488 216.268C498.488 218.124 496.988 219.625 495.145 219.625C493.302 219.625 491.802 218.124 491.802 216.268C491.802 214.417 493.302 212.918 495.145 212.918C496.988 212.918 498.488 214.417 498.488 216.268Z" fill="#172840"/>
<path d="M461.115 284.256C461.115 286.242 459.516 287.849 457.529 287.849C455.543 287.849 453.943 286.242 453.943 284.256C453.943 282.27 455.543 280.655 457.529 280.655C459.516 280.655 461.115 282.27 461.115 284.256Z" fill="#172840"/>
<path d="M333.265 337.817C333.265 339.238 332.121 340.395 330.693 340.395C329.278 340.395 328.135 339.238 328.135 337.817C328.135 336.395 329.278 335.245 330.693 335.245C332.121 335.245 333.265 336.395 333.265 337.817Z" fill="#172840"/>
<path d="M497.672 216.275C497.672 217.675 496.543 218.803 495.143 218.803C493.758 218.803 492.628 217.675 492.628 216.275C492.628 214.88 493.758 213.753 495.143 213.753C496.543 213.753 497.672 214.88 497.672 216.275Z" fill="#172840"/>
<path d="M333.51 337.816C333.51 339.373 332.252 340.63 330.695 340.63C329.152 340.63 327.895 339.373 327.895 337.816C327.895 336.266 329.152 335.002 330.695 335.002C332.252 335.002 333.51 336.266 333.51 337.816Z" fill="#172840"/>
<path d="M498.401 216.275C498.401 218.074 496.942 219.531 495.143 219.531C493.357 219.531 491.9 218.074 491.9 216.275C491.9 214.481 493.357 213.024 495.143 213.024C496.942 213.024 498.401 214.481 498.401 216.275Z" fill="#172840"/>
<path d="M499.601 216.267C499.601 218.731 497.6 220.73 495.143 220.73C492.685 220.73 490.7 218.731 490.7 216.267C490.7 213.803 492.685 211.81 495.143 211.81C497.6 211.81 499.601 213.803 499.601 216.267Z" fill="#172840"/>
<path d="M461.6 284.256C461.6 286.506 459.77 288.327 457.528 288.327C455.286 288.327 453.471 286.506 453.471 284.256C453.471 282.006 455.286 280.176 457.528 280.176C459.77 280.176 461.6 282.006 461.6 284.256Z" fill="#172840"/>
<path d="M532.147 299.321C532.147 301.75 530.175 303.722 527.761 303.722C525.332 303.722 523.36 301.75 523.36 299.321C523.36 296.893 525.332 294.921 527.761 294.921C530.175 294.921 532.147 296.893 532.147 299.321Z" fill="#172840"/>
<path d="M498.314 216.274C498.314 218.024 496.899 219.444 495.142 219.444C493.4 219.444 491.985 218.024 491.985 216.274C491.985 214.523 493.4 213.109 495.142 213.109C496.899 213.109 498.314 214.523 498.314 216.274Z" fill="#172840"/>
<path d="M533.6 213.552C533.6 215.21 532.257 216.56 530.599 216.56C528.942 216.56 527.6 215.21 527.6 213.552C527.6 211.887 528.942 210.538 530.599 210.538C532.257 210.538 533.6 211.887 533.6 213.552Z" fill="#172840"/>
<path d="M533.285 213.553C533.285 215.039 532.086 216.246 530.599 216.246C529.114 216.246 527.913 215.039 527.913 213.553C527.913 212.06 529.114 210.852 530.599 210.852C532.086 210.852 533.285 212.06 533.285 213.553Z" fill="#172840"/>
<path d="M533.285 299.321C533.285 302.385 530.815 304.863 527.757 304.863C524.699 304.863 522.214 302.385 522.214 299.321C522.214 296.255 524.699 293.77 527.757 293.77C530.815 293.77 533.285 296.255 533.285 299.321Z" fill="#172840"/>
<path d="M499.346 216.275C499.346 218.595 497.46 220.475 495.146 220.475C492.831 220.475 490.96 218.595 490.96 216.275C490.96 213.959 492.831 212.074 495.146 212.074C497.46 212.074 499.346 213.959 499.346 216.275Z" fill="#172840"/>
<path d="M646.552 259.09C646.552 262.318 643.938 264.934 640.723 264.934C637.495 264.934 634.882 262.318 634.882 259.09C634.882 255.861 637.495 253.24 640.723 253.24C643.938 253.24 646.552 255.861 646.552 259.09Z" fill="#172840"/>
<path d="M533.304 299.322C533.304 302.394 530.818 304.879 527.76 304.879C524.688 304.879 522.202 302.394 522.202 299.322C522.202 296.249 524.688 293.764 527.76 293.764C530.818 293.764 533.304 296.249 533.304 299.322Z" fill="#172840"/>
<path d="M533.685 213.552C533.685 215.259 532.313 216.645 530.599 216.645C528.898 216.645 527.514 215.259 527.514 213.552C527.514 211.838 528.898 210.452 530.599 210.452C532.313 210.452 533.685 211.838 533.685 213.552Z" fill="#172840"/>
<path d="M537.547 213.552C537.547 217.388 534.432 220.502 530.603 220.502C526.775 220.502 523.675 217.388 523.675 213.552C523.675 209.709 526.775 206.594 530.603 206.594C534.432 206.594 537.547 209.709 537.547 213.552Z" fill="#172840"/>
<path d="M532.888 299.321C532.888 302.157 530.588 304.457 527.758 304.457C524.916 304.457 522.629 302.157 522.629 299.321C522.629 296.486 524.916 294.184 527.758 294.184C530.588 294.184 532.888 296.486 532.888 299.321Z" fill="#172840"/>
<path d="M20.6504 201.988C20.6504 204.18 18.8715 205.967 16.6783 205.967C14.4856 205.967 12.7085 204.18 12.7085 201.988C12.7085 199.787 14.4856 198.001 16.6783 198.001C18.8715 198.001 20.6504 199.787 20.6504 201.988Z" fill="#172840"/>
<path d="M22.2614 201.989C22.2614 205.074 19.7615 207.581 16.6747 207.581C13.5967 207.581 11.0963 205.074 11.0963 201.989C11.0963 198.896 13.5967 196.388 16.6747 196.388C19.7615 196.388 22.2614 198.896 22.2614 201.989Z" fill="#172840"/>
<path d="M160.091 366.959C160.091 369.982 157.64 372.439 154.625 372.439C151.604 372.439 149.161 369.982 149.161 366.959C149.161 363.931 151.604 361.48 154.625 361.48C157.64 361.48 160.091 363.931 160.091 366.959Z" fill="#172840"/>
<path d="M140.525 232.298C140.525 233.991 139.153 235.361 137.467 235.361C135.781 235.361 134.409 233.991 134.409 232.298C134.409 230.604 135.781 229.233 137.467 229.233C139.153 229.233 140.525 230.604 140.525 232.298Z" fill="#172840"/>
<path d="M235.231 404.134C235.231 405.934 233.759 407.405 231.959 407.405C230.159 407.405 228.701 405.934 228.701 404.134C228.701 402.318 230.159 400.861 231.959 400.861C233.759 400.861 235.231 402.318 235.231 404.134Z" fill="#172840"/>
<path d="M140.974 232.305C140.974 234.24 139.402 235.812 137.474 235.812C135.537 235.812 133.973 234.24 133.973 232.305C133.973 230.368 135.537 228.796 137.474 228.796C139.402 228.796 140.974 230.368 140.974 232.305Z" fill="#172840"/>
<path d="M264.944 267.477C264.944 271.141 261.973 274.113 258.316 274.113C254.658 274.113 251.701 271.141 251.701 267.477C251.701 263.813 254.658 260.84 258.316 260.84C261.973 260.84 264.944 263.813 264.944 267.477Z" fill="#172840"/>
<path d="M237.775 404.134C237.775 407.347 235.176 409.962 231.961 409.962C228.746 409.962 226.146 407.347 226.146 404.134C226.146 400.918 228.746 398.304 231.961 398.304C235.176 398.304 237.775 400.918 237.775 404.134Z" fill="#172840"/>
<path d="M333.267 337.817C333.267 339.238 332.11 340.38 330.695 340.38C329.281 340.38 328.137 339.238 328.137 337.817C328.137 336.402 329.281 335.253 330.695 335.253C332.11 335.253 333.267 336.402 333.267 337.817Z" fill="#172840"/>
<path d="M295.178 400.804C295.178 402.177 294.064 403.305 292.691 403.305C291.32 403.305 290.206 402.177 290.206 400.804C290.206 399.434 291.32 398.319 292.691 398.319C294.064 398.319 295.178 399.434 295.178 400.804Z" fill="#172840"/>
<path d="M237.104 404.134C237.104 406.976 234.804 409.291 231.961 409.291C229.118 409.291 226.818 406.976 226.818 404.134C226.818 401.29 229.118 398.976 231.961 398.976C234.804 398.976 237.104 401.29 237.104 404.134Z" fill="#172840"/>
<path d="M334.494 337.816C334.494 339.915 332.793 341.607 330.708 341.607C328.622 341.607 326.922 339.915 326.922 337.816C326.922 335.722 328.622 334.022 330.708 334.022C332.793 334.022 334.494 335.722 334.494 337.816Z" fill="#172840"/>
<path d="M336.037 337.816C336.037 340.765 333.651 343.158 330.709 343.158C327.765 343.158 325.379 340.765 325.379 337.816C325.379 334.865 327.765 332.472 330.709 332.472C333.651 332.472 336.037 334.865 336.037 337.816Z" fill="#172840"/>
<path d="M336.464 337.816C336.464 341.008 333.88 343.603 330.694 343.603C327.507 343.603 324.935 341.008 324.935 337.816C324.935 334.622 327.507 332.036 330.694 332.036C333.88 332.036 336.464 334.622 336.464 337.816Z" fill="#172840"/>
<path d="M296.705 400.804C296.705 403.034 294.906 404.833 292.691 404.833C290.477 404.833 288.676 403.034 288.676 400.804C288.676 398.59 290.477 396.775 292.691 396.775C294.906 396.775 296.705 398.59 296.705 400.804Z" fill="#172840"/>
<path d="M336.351 337.816C336.351 340.944 333.823 343.474 330.708 343.474C327.593 343.474 325.065 340.944 325.065 337.816C325.065 334.694 327.593 332.158 330.708 332.158C333.823 332.158 336.351 334.694 336.351 337.816Z" fill="#172840"/>
<path d="M462.641 284.256C462.641 287.085 460.356 289.385 457.527 289.385C454.699 289.385 452.412 287.085 452.412 284.256C452.412 281.42 454.699 279.126 457.527 279.126C460.356 279.126 462.641 281.42 462.641 284.256Z" fill="#172840"/>
<path d="M460.44 284.256C460.44 285.864 459.141 287.17 457.525 287.17C455.925 287.17 454.626 285.864 454.626 284.256C454.626 282.649 455.925 281.341 457.525 281.341C459.141 281.341 460.44 282.649 460.44 284.256Z" fill="#172840"/>
<path d="M530.801 299.321C530.801 301.006 529.43 302.371 527.759 302.371C526.073 302.371 524.716 301.006 524.716 299.321C524.716 297.636 526.073 296.271 527.759 296.271C529.43 296.271 530.801 297.636 530.801 299.321Z" fill="#172840"/>
<path d="M511.829 388.204C511.829 390.105 510.301 391.646 508.402 391.646C506.501 391.646 504.972 390.105 504.972 388.204C504.972 386.304 506.501 384.76 508.402 384.76C510.301 384.76 511.829 386.304 511.829 388.204Z" fill="#172840"/>
<path d="M531.619 299.314C531.619 301.457 529.89 303.193 527.761 303.193C525.618 303.193 523.889 301.457 523.889 299.314C523.889 297.17 525.618 295.436 527.761 295.436C529.89 295.436 531.619 297.17 531.619 299.314Z" fill="#172840"/>
<path d="M463.898 284.256C463.898 287.777 461.038 290.642 457.525 290.642C454.011 290.642 451.167 287.777 451.167 284.256C451.167 280.734 454.011 277.869 457.525 277.869C461.038 277.869 463.898 280.734 463.898 284.256Z" fill="#172840"/>
<path d="M464.199 284.256C464.199 287.949 461.213 290.942 457.527 290.942C453.842 290.942 450.856 287.949 450.856 284.256C450.856 280.563 453.842 277.57 457.527 277.57C461.213 277.57 464.199 280.563 464.199 284.256Z" fill="#172840"/>
<path d="M534.962 299.313C534.962 303.299 531.733 306.535 527.761 306.535C523.775 306.535 520.546 303.299 520.546 299.313C520.546 295.32 523.775 292.092 527.761 292.092C531.733 292.092 534.962 295.32 534.962 299.313Z" fill="#172840"/>
<path d="M512.088 388.204C512.088 390.246 510.43 391.903 508.402 391.903C506.359 391.903 504.716 390.246 504.716 388.204C504.716 386.16 506.359 384.504 508.402 384.504C510.43 384.504 512.088 386.16 512.088 388.204Z" fill="#172840"/>
<path d="M649.236 259.09C649.236 263.805 645.422 267.634 640.721 267.634C636.006 267.634 632.193 263.805 632.193 259.09C632.193 254.369 636.006 250.547 640.721 250.547C645.422 250.547 649.236 254.369 649.236 259.09Z" fill="#172840"/>
<path d="M646.835 259.091C646.835 262.47 644.093 265.213 640.721 265.213C637.349 265.213 634.606 262.47 634.606 259.091C634.606 255.706 637.349 252.97 640.721 252.97C644.093 252.97 646.835 255.706 646.835 259.091Z" fill="#172840"/>
<path d="M297.362 400.804C297.362 403.391 295.26 405.477 292.689 405.477C290.118 405.477 288.032 403.391 288.032 400.804C288.032 398.219 290.118 396.133 292.689 396.133C295.26 396.133 297.362 398.219 297.362 400.804Z" fill="#172840"/>
<path d="M295.449 400.804C295.449 402.333 294.22 403.576 292.691 403.576C291.177 403.576 289.935 402.333 289.935 400.804C289.935 399.275 291.177 398.046 292.691 398.046C294.22 398.046 295.449 399.275 295.449 400.804Z" fill="#172840"/>
<path d="M297.077 400.804C297.077 403.232 295.119 405.205 292.69 405.205C290.277 405.205 288.304 403.232 288.304 400.804C288.304 398.376 290.277 396.404 292.69 396.404C295.119 396.404 297.077 398.376 297.077 400.804Z" fill="#172840"/>
<path d="M514.329 388.204C514.329 391.489 511.673 394.161 508.402 394.161C505.115 394.161 502.458 391.489 502.458 388.204C502.458 384.918 505.115 382.254 508.402 382.254C511.673 382.254 514.329 384.918 514.329 388.204Z" fill="#172840"/>
<path d="M513.086 388.204C513.086 390.804 510.984 392.904 508.4 392.904C505.813 392.904 503.712 390.804 503.712 388.204C503.712 385.61 505.813 383.511 508.4 383.511C510.984 383.511 513.086 385.61 513.086 388.204Z" fill="#172840"/>
<path d="M513.76 388.204C513.76 391.175 511.359 393.576 508.403 393.576C505.445 393.576 503.044 391.175 503.044 388.204C503.044 385.24 505.445 382.832 508.403 382.832C511.359 382.832 513.76 385.24 513.76 388.204Z" fill="#172840"/>
</svg>
