<svg width="422" height="475" viewBox="0 0 422 475" fill="none" xmlns="http://www.w3.org/2000/svg">
<g filter="url(#filter0_d_1704_6044)">
<rect x="402" y="415" width="342" height="395" rx="12" transform="rotate(-180 402 415)" fill="white"/>
</g>
<rect x="87" y="45" width="211" height="43" rx="21.5" fill="#F2B706" fill-opacity="0.4"/>
<path d="M121.09 71.18C118.135 71.18 115.615 68.735 115.615 65.84C115.615 62.945 118.135 60.515 121.09 60.515C122.65 60.515 124.09 61.175 125.095 62.24L123.49 63.68C122.89 62.99 122.035 62.525 121.09 62.525C119.365 62.525 117.895 64.055 117.895 65.84C117.895 67.64 119.365 69.17 121.09 69.17C122.035 69.17 122.89 68.705 123.49 68.015L125.095 69.455C124.09 70.505 122.65 71.18 121.09 71.18ZM131.315 71.18C128.36 71.18 125.84 68.735 125.84 65.84C125.84 62.945 128.36 60.515 131.315 60.515C134.3 60.515 136.79 62.945 136.79 65.84C136.79 68.735 134.3 71.18 131.315 71.18ZM131.315 69.17C133.055 69.17 134.525 67.64 134.525 65.84C134.525 64.055 133.055 62.525 131.315 62.525C129.59 62.525 128.12 64.055 128.12 65.84C128.12 67.64 129.59 69.17 131.315 69.17ZM138.072 67.805V65.945H142.182V67.805H138.072ZM143.971 71V60.695H149.191C151.036 60.695 152.311 61.775 152.311 63.275C152.311 64.325 151.786 65.09 150.871 65.57C152.071 66.11 152.761 67.07 152.761 68.21C152.761 69.86 151.351 71 149.386 71H143.971ZM146.176 64.85H148.636C149.461 64.85 150.046 64.37 150.046 63.71C150.046 63.065 149.461 62.585 148.636 62.585H146.176V64.85ZM146.176 69.11H148.981C149.866 69.11 150.496 68.585 150.496 67.85C150.496 67.115 149.866 66.59 148.981 66.59H146.176V69.11ZM154.4 71V60.695H156.62V71H154.4ZM158.766 71V60.695H162.456C165.921 60.695 168.381 62.825 168.381 65.84C168.381 68.855 165.921 71 162.456 71H158.766ZM160.971 68.99H162.741C164.706 68.99 166.101 67.685 166.101 65.84C166.101 64.01 164.706 62.705 162.741 62.705H160.971V68.99ZM170.177 71V60.695H173.867C177.332 60.695 179.792 62.825 179.792 65.84C179.792 68.855 177.332 71 173.867 71H170.177ZM172.382 68.99H174.152C176.117 68.99 177.512 67.685 177.512 65.84C177.512 64.01 176.117 62.705 174.152 62.705H172.382V68.99ZM181.529 71V60.695H183.749V71H181.529ZM185.895 71V60.695H188.1L193.065 67.355V60.695H195.285V71H193.065L188.1 64.34V71H185.895ZM202.146 66.935V65.21H206.706V69.455C205.671 70.535 204.081 71.18 202.536 71.18C199.551 71.18 197.016 68.735 197.016 65.84C197.016 62.945 199.551 60.515 202.536 60.515C204.081 60.515 205.671 61.16 206.706 62.24L205.101 63.68C204.486 62.975 203.481 62.525 202.536 62.525C200.781 62.525 199.296 64.055 199.296 65.84C199.296 67.64 200.781 69.17 202.536 69.17C203.241 69.17 203.961 68.93 204.546 68.51V66.935H202.146ZM212.758 71V60.695H217.393C219.628 60.695 221.278 62.135 221.278 64.175C221.278 66.215 219.628 67.655 217.393 67.655H214.963V71H212.758ZM214.963 65.63H217.153C218.248 65.63 218.998 65.06 218.998 64.175C218.998 63.29 218.248 62.72 217.153 62.72H214.963V65.63ZM227.731 71.18C224.776 71.18 222.256 68.735 222.256 65.84C222.256 62.945 224.776 60.515 227.731 60.515C230.716 60.515 233.206 62.945 233.206 65.84C233.206 68.735 230.716 71.18 227.731 71.18ZM227.731 69.17C229.471 69.17 230.941 67.64 230.941 65.84C230.941 64.055 229.471 62.525 227.731 62.525C226.006 62.525 224.536 64.055 224.536 65.84C224.536 67.64 226.006 69.17 227.731 69.17ZM236.897 71L233.777 60.695H236.177L238.082 67.61L240.362 60.695H242.762L245.042 67.61L246.947 60.695H249.347L246.227 71H244.007L241.577 63.92L239.132 71H236.897ZM258.603 62.69H252.888V64.745H258.063V66.74H252.888V69.005H258.603V71H250.668V60.695H258.603V62.69ZM268.993 71H266.473L264.118 67.655H262.483V71H260.278V60.695H264.913C267.148 60.695 268.798 62.135 268.798 64.175C268.798 65.705 267.868 66.905 266.458 67.4L268.993 71ZM262.483 62.72V65.63H264.673C265.768 65.63 266.518 65.06 266.518 64.175C266.518 63.29 265.768 62.72 264.673 62.72H262.483Z" fill="#172840"/>
<path d="M88.1 126V123L94.425 118.1C96.475 116.475 97.125 115.35 97.125 114.15C97.125 112.725 95.925 111.875 94.525 111.875C92.85 111.875 91.575 112.725 90.325 114.15L87.975 111.875C89.675 109.725 91.85 108.525 94.625 108.525C98.275 108.525 100.925 110.775 100.925 114C100.925 116.3 99.925 118.075 96.925 120.25L93.8 122.675H101.075V126H88.1ZM116.641 112.775C120.016 112.775 122.316 114.9 122.316 118.275V126H118.791V124.7C117.866 125.75 116.391 126.3 114.991 126.3C112.241 126.3 110.116 124.65 110.116 122.175C110.116 119.625 112.491 117.875 115.491 117.875C116.541 117.875 117.691 118.1 118.791 118.525V118.275C118.791 116.9 117.941 115.7 115.816 115.7C114.616 115.7 113.491 116.1 112.466 116.625L111.241 114.2C113.066 113.275 114.841 112.775 116.641 112.775ZM115.816 123.775C117.216 123.775 118.541 123.125 118.791 121.925V120.725C117.966 120.425 117.016 120.25 116.016 120.25C114.691 120.25 113.641 121.025 113.641 122.075C113.641 123.125 114.566 123.775 115.816 123.775ZM134.742 113.075H138.417V124.625C138.417 127.95 135.542 130.3 131.467 130.3C129.192 130.3 127.042 129.575 125.767 128.575L127.042 126C127.892 126.75 129.392 127.225 130.892 127.225C133.242 127.225 134.742 126.15 134.742 124.475V123.05C133.717 124.3 132.167 125.05 130.467 125.05C127.217 125.05 124.742 122.5 124.742 118.9C124.742 115.3 127.217 112.775 130.467 112.775C132.217 112.775 133.867 113.6 134.742 114.825V113.075ZM131.617 121.975C133.442 121.975 134.742 120.7 134.742 118.9C134.742 117.1 133.442 115.85 131.617 115.85C129.792 115.85 128.492 117.1 128.492 118.9C128.492 120.7 129.792 121.975 131.617 121.975ZM147.727 123.075C148.752 123.075 150.002 122.6 150.702 121.925L153.027 124.3C151.877 125.5 149.652 126.3 147.752 126.3C143.902 126.3 140.902 123.475 140.902 119.5C140.902 115.6 143.777 112.775 147.552 112.775C151.602 112.775 153.977 115.85 153.977 120.725H144.652C145.077 122.125 146.202 123.075 147.727 123.075ZM147.702 116C146.327 116 145.177 116.8 144.702 118.1H150.477C150.127 116.825 149.177 116 147.702 116ZM163.922 112.775C166.722 112.775 168.722 114.85 168.722 117.775V126H165.197V118.55C165.197 116.95 164.197 115.85 162.747 115.85C161.222 115.85 160.047 116.95 160.047 118.35L160.022 118.275V126H156.372V113.075H160.022V114.7C160.797 113.525 162.247 112.775 163.922 112.775ZM178.128 126.3C174.303 126.3 171.078 123.2 171.078 119.525C171.078 115.85 174.328 112.775 178.153 112.775C180.253 112.775 181.978 113.625 183.228 114.975L180.803 117.05C180.153 116.325 179.128 115.85 178.128 115.85C176.228 115.85 174.628 117.525 174.628 119.5C174.628 121.525 176.228 123.225 178.153 123.225C179.153 123.225 180.203 122.725 180.878 121.975L183.303 124.025C182.028 125.425 180.278 126.3 178.128 126.3ZM187.324 111.3C186.199 111.3 185.324 110.4 185.324 109.3C185.324 108.275 186.199 107.35 187.324 107.35C188.399 107.35 189.274 108.275 189.274 109.3C189.274 110.4 188.399 111.3 187.324 111.3ZM185.474 126V113.075H189.124V126H185.474ZM198.411 123.075C199.436 123.075 200.686 122.6 201.386 121.925L203.711 124.3C202.561 125.5 200.336 126.3 198.436 126.3C194.586 126.3 191.586 123.475 191.586 119.5C191.586 115.6 194.461 112.775 198.236 112.775C202.286 112.775 204.661 115.85 204.661 120.725H195.336C195.761 122.125 196.886 123.075 198.411 123.075ZM198.386 116C197.011 116 195.861 116.8 195.386 118.1H201.161C200.811 116.825 199.861 116 198.386 116ZM211.98 126.3C209.905 126.3 207.705 125.6 206.155 124.35L207.73 121.825C208.88 122.65 210.33 123.275 212.055 123.275C213.03 123.275 213.73 122.875 213.73 122.3C213.73 121.5 212.78 121.25 211.455 120.9C208.805 120.25 206.755 119.525 206.73 116.975C206.705 114.525 208.73 112.775 211.78 112.775C213.63 112.775 215.455 113.425 216.88 114.375L215.405 116.975C214.23 116.25 212.88 115.825 211.78 115.825C210.88 115.825 210.255 116.15 210.255 116.6C210.255 117.3 210.78 117.5 212.53 117.975C214.755 118.55 217.23 119.3 217.23 122.125C217.23 124.675 215.155 126.3 211.98 126.3ZM228.487 111.3C227.362 111.3 226.487 110.4 226.487 109.3C226.487 108.275 227.362 107.35 228.487 107.35C229.562 107.35 230.437 108.275 230.437 109.3C230.437 110.4 229.562 111.3 228.487 111.3ZM226.637 126V113.075H230.287V126H226.637ZM240.948 112.775C243.748 112.775 245.748 114.85 245.748 117.775V126H242.223V118.55C242.223 116.95 241.223 115.85 239.773 115.85C238.248 115.85 237.073 116.95 237.073 118.35L237.048 118.275V126H233.398V113.075H237.048V114.7C237.823 113.525 239.273 112.775 240.948 112.775ZM253.154 126L247.554 113.075H251.379L254.854 121.8L258.254 113.075H262.054L256.529 126H253.154ZM265.816 111.3C264.691 111.3 263.816 110.4 263.816 109.3C263.816 108.275 264.691 107.35 265.816 107.35C266.891 107.35 267.766 108.275 267.766 109.3C267.766 110.4 266.891 111.3 265.816 111.3ZM263.966 126V113.075H267.616V126H263.966ZM277.602 122.8L278.477 125.175C277.727 125.85 276.552 126.3 275.502 126.3C273.227 126.3 271.627 124.675 271.627 122.35V116.025H269.852V113.075H271.627V109.525H275.127V113.075H277.927V116.025H275.127V121.775C275.127 122.625 275.677 123.225 276.352 123.225C276.852 123.225 277.352 123.05 277.602 122.8ZM286.863 123.075C287.888 123.075 289.138 122.6 289.838 121.925L292.163 124.3C291.013 125.5 288.788 126.3 286.888 126.3C283.038 126.3 280.038 123.475 280.038 119.5C280.038 115.6 282.913 112.775 286.688 112.775C290.738 112.775 293.113 115.85 293.113 120.725H283.788C284.213 122.125 285.338 123.075 286.863 123.075ZM286.838 116C285.463 116 284.313 116.8 283.838 118.1H289.613C289.263 116.825 288.313 116 286.838 116ZM305.232 108.525H308.882V126H305.232V124.15C304.207 125.5 302.707 126.3 300.882 126.3C297.432 126.3 294.932 123.5 294.932 119.525C294.932 115.575 297.432 112.775 300.882 112.775C302.707 112.775 304.207 113.575 305.232 114.925V108.525ZM301.932 123.225C303.857 123.225 305.232 121.7 305.232 119.525C305.232 117.375 303.857 115.85 301.932 115.85C299.907 115.85 298.482 117.375 298.482 119.525C298.482 121.7 299.907 123.225 301.932 123.225ZM322.019 130.5C320.944 130.5 319.644 130.175 318.769 129.7L319.544 127.2C320.169 127.55 320.819 127.775 321.244 127.775C321.944 127.775 322.494 127.55 322.769 127.075L323.219 126.125L317.844 113.075H321.619L325.019 122.15L328.244 113.075H331.969L326.669 126.65C325.694 129.175 324.044 130.5 322.019 130.5ZM339.774 126.3C335.924 126.3 332.699 123.2 332.699 119.525C332.699 115.85 335.924 112.775 339.774 112.775C343.599 112.775 346.799 115.85 346.799 119.525C346.799 123.2 343.599 126.3 339.774 126.3ZM339.774 123.225C341.699 123.225 343.324 121.525 343.324 119.525C343.324 117.525 341.699 115.85 339.774 115.85C337.824 115.85 336.199 117.525 336.199 119.525C336.199 121.525 337.824 123.225 339.774 123.225ZM357.844 113.075H361.494V126H357.844V124.375C357.069 125.55 355.619 126.3 353.944 126.3C351.144 126.3 349.144 124.225 349.144 121.3V113.075H352.669V120.525C352.669 122.125 353.669 123.225 355.119 123.225C356.644 123.225 357.819 122.125 357.819 120.725L357.844 120.8V113.075ZM95.4 152.8L96.275 155.175C95.525 155.85 94.35 156.3 93.3 156.3C91.025 156.3 89.425 154.675 89.425 152.35V146.025H87.65V143.075H89.425V139.525H92.925V143.075H95.725V146.025H92.925V151.775C92.925 152.625 93.475 153.225 94.15 153.225C94.65 153.225 95.15 153.05 95.4 152.8ZM104.911 156.3C101.061 156.3 97.8359 153.2 97.8359 149.525C97.8359 145.85 101.061 142.775 104.911 142.775C108.736 142.775 111.936 145.85 111.936 149.525C111.936 153.2 108.736 156.3 104.911 156.3ZM104.911 153.225C106.836 153.225 108.461 151.525 108.461 149.525C108.461 147.525 106.836 145.85 104.911 145.85C102.961 145.85 101.336 147.525 101.336 149.525C101.336 151.525 102.961 153.225 104.911 153.225ZM127.163 142.775C130.538 142.775 132.838 144.9 132.838 148.275V156H129.313V154.7C128.388 155.75 126.913 156.3 125.513 156.3C122.763 156.3 120.638 154.65 120.638 152.175C120.638 149.625 123.013 147.875 126.013 147.875C127.063 147.875 128.213 148.1 129.313 148.525V148.275C129.313 146.9 128.463 145.7 126.338 145.7C125.138 145.7 124.013 146.1 122.988 146.625L121.763 144.2C123.588 143.275 125.363 142.775 127.163 142.775ZM126.338 153.775C127.738 153.775 129.063 153.125 129.313 151.925V150.725C128.488 150.425 127.538 150.25 126.538 150.25C125.213 150.25 124.163 151.025 124.163 152.075C124.163 153.125 125.088 153.775 126.338 153.775ZM144.722 141.3C143.597 141.3 142.722 140.4 142.722 139.3C142.722 138.275 143.597 137.35 144.722 137.35C145.797 137.35 146.672 138.275 146.672 139.3C146.672 140.4 145.797 141.3 144.722 141.3ZM142.497 160.45C141.597 160.45 140.547 160.225 139.922 159.925L140.297 157.225C140.647 157.35 141.197 157.45 141.647 157.45C142.372 157.45 142.872 156.85 142.872 156V143.075H146.522V156.375C146.522 158.75 144.847 160.45 142.497 160.45ZM156.058 156.3C152.208 156.3 148.983 153.2 148.983 149.525C148.983 145.85 152.208 142.775 156.058 142.775C159.883 142.775 163.083 145.85 163.083 149.525C163.083 153.2 159.883 156.3 156.058 156.3ZM156.058 153.225C157.983 153.225 159.608 151.525 159.608 149.525C159.608 147.525 157.983 145.85 156.058 145.85C154.108 145.85 152.483 147.525 152.483 149.525C152.483 151.525 154.108 153.225 156.058 153.225ZM167.378 141.3C166.253 141.3 165.378 140.4 165.378 139.3C165.378 138.275 166.253 137.35 167.378 137.35C168.453 137.35 169.328 138.275 169.328 139.3C169.328 140.4 168.453 141.3 167.378 141.3ZM165.528 156V143.075H169.178V156H165.528ZM179.84 142.775C182.64 142.775 184.64 144.85 184.64 147.775V156H181.115V148.55C181.115 146.95 180.115 145.85 178.665 145.85C177.14 145.85 175.965 146.95 175.965 148.35L175.94 148.275V156H172.29V143.075H175.94V144.7C176.715 143.525 178.165 142.775 179.84 142.775ZM194.521 152.8L195.396 155.175C194.646 155.85 193.471 156.3 192.421 156.3C190.146 156.3 188.546 154.675 188.546 152.35V146.025H186.771V143.075H188.546V139.525H192.046V143.075H194.846V146.025H192.046V151.775C192.046 152.625 192.596 153.225 193.271 153.225C193.771 153.225 194.271 153.05 194.521 152.8ZM212.639 142.775C216.089 142.775 218.589 145.575 218.589 149.525C218.589 153.5 216.089 156.3 212.639 156.3C210.839 156.3 209.339 155.525 208.314 154.175V160.3H204.664V143.075H208.314V144.875C209.339 143.55 210.839 142.775 212.639 142.775ZM211.589 153.225C213.614 153.225 215.039 151.7 215.039 149.525C215.039 147.375 213.614 145.85 211.589 145.85C209.814 145.85 208.514 147.15 208.314 149.025V150.025C208.514 151.925 209.814 153.225 211.589 153.225ZM224.818 145.475C225.668 143.8 227.268 142.775 229.243 142.775V145.85C226.543 145.85 224.818 147.4 224.818 149.825V156H221.168V143.075H224.818V145.475ZM237.406 156.3C233.556 156.3 230.331 153.2 230.331 149.525C230.331 145.85 233.556 142.775 237.406 142.775C241.231 142.775 244.431 145.85 244.431 149.525C244.431 153.2 241.231 156.3 237.406 156.3ZM237.406 153.225C239.331 153.225 240.956 151.525 240.956 149.525C240.956 147.525 239.331 145.85 237.406 145.85C235.456 145.85 233.831 147.525 233.831 149.525C233.831 151.525 235.456 153.225 237.406 153.225ZM254.876 142.775C258.326 142.775 260.826 145.575 260.826 149.525C260.826 153.5 258.326 156.3 254.876 156.3C253.076 156.3 251.576 155.525 250.551 154.175V160.3H246.901V143.075H250.551V144.875C251.576 143.55 253.076 142.775 254.876 142.775ZM253.826 153.225C255.851 153.225 257.276 151.7 257.276 149.525C257.276 147.375 255.851 145.85 253.826 145.85C252.051 145.85 250.751 147.15 250.551 149.025V150.025C250.751 151.925 252.051 153.225 253.826 153.225ZM269.755 156.3C265.905 156.3 262.68 153.2 262.68 149.525C262.68 145.85 265.905 142.775 269.755 142.775C273.58 142.775 276.78 145.85 276.78 149.525C276.78 153.2 273.58 156.3 269.755 156.3ZM269.755 153.225C271.68 153.225 273.305 151.525 273.305 149.525C273.305 147.525 271.68 145.85 269.755 145.85C267.805 145.85 266.18 147.525 266.18 149.525C266.18 151.525 267.805 153.225 269.755 153.225ZM284.099 156.3C282.024 156.3 279.824 155.6 278.274 154.35L279.849 151.825C280.999 152.65 282.449 153.275 284.174 153.275C285.149 153.275 285.849 152.875 285.849 152.3C285.849 151.5 284.899 151.25 283.574 150.9C280.924 150.25 278.874 149.525 278.849 146.975C278.824 144.525 280.849 142.775 283.899 142.775C285.749 142.775 287.574 143.425 288.999 144.375L287.524 146.975C286.349 146.25 284.999 145.825 283.899 145.825C282.999 145.825 282.374 146.15 282.374 146.6C282.374 147.3 282.899 147.5 284.649 147.975C286.874 148.55 289.349 149.3 289.349 152.125C289.349 154.675 287.274 156.3 284.099 156.3ZM297.573 142.775C300.948 142.775 303.248 144.9 303.248 148.275V156H299.723V154.7C298.798 155.75 297.323 156.3 295.923 156.3C293.173 156.3 291.048 154.65 291.048 152.175C291.048 149.625 293.423 147.875 296.423 147.875C297.473 147.875 298.623 148.1 299.723 148.525V148.275C299.723 146.9 298.873 145.7 296.748 145.7C295.548 145.7 294.423 146.1 293.398 146.625L292.173 144.2C293.998 143.275 295.773 142.775 297.573 142.775ZM296.748 153.775C298.148 153.775 299.473 153.125 299.723 151.925V150.725C298.898 150.425 297.948 150.25 296.948 150.25C295.623 150.25 294.573 151.025 294.573 152.075C294.573 153.125 295.498 153.775 296.748 153.775ZM306.325 156V138.525H309.975V156H306.325Z" fill="#172840"/>
<path d="M97.44 181.326H90.186V184.854H96.738V186.546H90.186V190.308H97.44V192H88.35V179.634H97.44V181.326ZM107.913 192H105.915L103.377 188.58L100.821 192H98.841L102.387 187.248L98.985 182.694H101.001L103.377 185.898L105.771 182.694H107.751L104.367 187.23L107.913 192ZM114.837 182.478C117.285 182.478 119.121 184.494 119.121 187.338C119.121 190.2 117.285 192.216 114.837 192.216C113.397 192.216 112.245 191.532 111.525 190.38V195.096H109.761V182.694H111.525V184.296C112.245 183.162 113.397 182.478 114.837 182.478ZM114.405 190.668C116.115 190.668 117.321 189.282 117.321 187.338C117.321 185.394 116.115 184.026 114.405 184.026C112.731 184.026 111.525 185.394 111.525 187.338C111.525 189.282 112.731 190.668 114.405 190.668ZM125.179 182.478C127.681 182.478 129.067 184.062 129.067 186.366V192H127.321V190.722C126.637 191.694 125.359 192.216 124.225 192.216C122.245 192.216 120.787 191.064 120.787 189.246C120.787 187.392 122.461 186.15 124.513 186.15C125.431 186.15 126.421 186.348 127.321 186.654V186.366C127.321 185.196 126.781 183.954 124.927 183.954C124.009 183.954 123.109 184.314 122.299 184.728L121.651 183.414C122.983 182.748 124.153 182.478 125.179 182.478ZM124.567 190.812C125.719 190.812 127.015 190.236 127.321 189.084V187.842C126.565 187.608 125.701 187.482 124.783 187.482C123.541 187.482 122.497 188.184 122.497 189.192C122.497 190.2 123.397 190.812 124.567 190.812ZM136.378 182.478C138.43 182.478 139.87 183.972 139.87 186.078V192H138.124V186.384C138.124 184.998 137.242 184.026 135.982 184.026C134.686 184.026 133.57 184.872 133.426 185.97V192H131.644V182.694H133.426V184.044C133.984 183.126 135.118 182.478 136.378 182.478ZM149.583 179.418H151.347V192H149.583V190.38C148.863 191.532 147.711 192.216 146.271 192.216C143.823 192.216 141.987 190.2 141.987 187.338C141.987 184.494 143.823 182.478 146.271 182.478C147.711 182.478 148.863 183.162 149.583 184.296V179.418ZM146.703 190.668C148.377 190.668 149.583 189.282 149.583 187.338C149.583 185.394 148.377 184.026 146.703 184.026C144.993 184.026 143.787 185.394 143.787 187.338C143.787 189.282 144.993 190.668 146.703 190.668ZM160.809 195.24C160.179 195.24 159.531 195.096 159.045 194.844L159.441 193.476C159.801 193.674 160.215 193.764 160.575 193.764C161.151 193.764 161.547 193.584 161.853 193.044L162.321 192.054L158.325 182.694H160.233L163.221 190.038L166.047 182.694H167.901L163.797 192.846C163.131 194.52 162.141 195.222 160.809 195.24ZM173.899 192.216C171.235 192.216 168.985 189.984 168.985 187.338C168.985 184.692 171.235 182.478 173.899 182.478C176.545 182.478 178.777 184.692 178.777 187.338C178.777 189.984 176.545 192.216 173.899 192.216ZM173.899 190.668C175.573 190.668 176.995 189.156 176.995 187.338C176.995 185.538 175.573 184.026 173.899 184.026C172.189 184.026 170.767 185.538 170.767 187.338C170.767 189.156 172.189 190.668 173.899 190.668ZM187.27 182.694H189.052V192H187.27V190.65C186.712 191.568 185.578 192.216 184.318 192.216C182.266 192.216 180.826 190.722 180.826 188.616V182.694H182.572V188.31C182.572 189.696 183.454 190.668 184.714 190.668C186.01 190.668 187.126 189.822 187.27 188.724V182.694ZM193.51 184.476C194.104 183.252 195.364 182.478 196.966 182.478V184.026C195.04 184.026 193.672 185.088 193.51 186.708V192H191.728V182.694H193.51V184.476ZM208.211 190.326L208.859 191.55C208.355 191.964 207.671 192.216 207.005 192.216C205.565 192.216 204.557 191.172 204.557 189.678V184.206H203.153V182.694H204.557V180.138H206.303V182.694H208.499V184.206H206.303V189.552C206.303 190.2 206.735 190.668 207.257 190.668C207.653 190.668 208.013 190.524 208.211 190.326ZM214.941 190.632C215.913 190.632 217.047 190.2 217.605 189.624L218.721 190.776C217.893 191.658 216.273 192.216 214.959 192.216C212.367 192.216 210.171 190.182 210.171 187.32C210.171 184.53 212.241 182.478 214.815 182.478C217.659 182.478 219.297 184.638 219.297 187.968H211.971C212.205 189.516 213.339 190.632 214.941 190.632ZM214.887 184.062C213.447 184.062 212.277 185.034 211.989 186.546H217.569C217.371 185.106 216.489 184.062 214.887 184.062ZM225.268 182.478C227.77 182.478 229.156 184.062 229.156 186.366V192H227.41V190.722C226.726 191.694 225.448 192.216 224.314 192.216C222.334 192.216 220.876 191.064 220.876 189.246C220.876 187.392 222.55 186.15 224.602 186.15C225.52 186.15 226.51 186.348 227.41 186.654V186.366C227.41 185.196 226.87 183.954 225.016 183.954C224.098 183.954 223.198 184.314 222.388 184.728L221.74 183.414C223.072 182.748 224.242 182.478 225.268 182.478ZM224.656 190.812C225.808 190.812 227.104 190.236 227.41 189.084V187.842C226.654 187.608 225.79 187.482 224.872 187.482C223.63 187.482 222.586 188.184 222.586 189.192C222.586 190.2 223.486 190.812 224.656 190.812ZM242.138 182.478C244.082 182.478 245.486 183.972 245.486 186.078V192H243.74V186.348C243.74 184.98 242.93 184.026 241.76 184.026C240.428 184.026 239.492 184.908 239.492 186.186V192H237.746V186.348C237.746 184.98 236.936 184.026 235.766 184.026C234.434 184.026 233.498 184.908 233.498 186.186V192H231.716V182.694H233.498V183.99C233.966 183.072 234.938 182.478 236.126 182.478C237.476 182.478 238.574 183.198 239.114 184.35C239.546 183.198 240.734 182.478 242.138 182.478ZM257.102 182.478C259.604 182.478 260.99 184.062 260.99 186.366V192H259.244V190.722C258.56 191.694 257.282 192.216 256.148 192.216C254.168 192.216 252.71 191.064 252.71 189.246C252.71 187.392 254.384 186.15 256.436 186.15C257.354 186.15 258.344 186.348 259.244 186.654V186.366C259.244 185.196 258.704 183.954 256.85 183.954C255.932 183.954 255.032 184.314 254.222 184.728L253.574 183.414C254.906 182.748 256.076 182.478 257.102 182.478ZM256.49 190.812C257.642 190.812 258.938 190.236 259.244 189.084V187.842C258.488 187.608 257.624 187.482 256.706 187.482C255.464 187.482 254.42 188.184 254.42 189.192C254.42 190.2 255.32 190.812 256.49 190.812ZM268.301 182.478C270.353 182.478 271.793 183.972 271.793 186.078V192H270.047V186.384C270.047 184.998 269.165 184.026 267.905 184.026C266.609 184.026 265.493 184.872 265.349 185.97V192H263.567V182.694H265.349V184.044C265.907 183.126 267.041 182.478 268.301 182.478ZM281.507 179.418H283.271V192H281.507V190.38C280.787 191.532 279.635 192.216 278.195 192.216C275.747 192.216 273.911 190.2 273.911 187.338C273.911 184.494 275.747 182.478 278.195 182.478C279.635 182.478 280.787 183.162 281.507 184.296V179.418ZM278.627 190.668C280.301 190.668 281.507 189.282 281.507 187.338C281.507 185.394 280.301 184.026 278.627 184.026C276.917 184.026 275.711 185.394 275.711 187.338C275.711 189.282 276.917 190.668 278.627 190.668ZM295.487 192.216C292.841 192.216 290.591 189.984 290.591 187.338C290.591 184.692 292.841 182.478 295.505 182.478C296.837 182.478 298.043 183.036 298.925 183.918L297.719 185.034C297.161 184.404 296.351 184.026 295.487 184.026C293.795 184.026 292.391 185.538 292.391 187.338C292.391 189.156 293.795 190.668 295.505 190.668C296.369 190.668 297.197 190.272 297.773 189.624L298.979 190.722C298.079 191.64 296.873 192.216 295.487 192.216ZM305.102 192.216C302.438 192.216 300.188 189.984 300.188 187.338C300.188 184.692 302.438 182.478 305.102 182.478C307.748 182.478 309.98 184.692 309.98 187.338C309.98 189.984 307.748 192.216 305.102 192.216ZM305.102 190.668C306.776 190.668 308.198 189.156 308.198 187.338C308.198 185.538 306.776 184.026 305.102 184.026C303.392 184.026 301.97 185.538 301.97 187.338C301.97 189.156 303.392 190.668 305.102 190.668ZM311.706 187.896V186.276H316.458V187.896H311.706ZM95.46 206.418H97.224V219H95.46V217.38C94.74 218.532 93.588 219.216 92.148 219.216C89.7 219.216 87.864 217.2 87.864 214.338C87.864 211.494 89.7 209.478 92.148 209.478C93.588 209.478 94.74 210.162 95.46 211.296V206.418ZM92.58 217.668C94.254 217.668 95.46 216.282 95.46 214.338C95.46 212.394 94.254 211.026 92.58 211.026C90.87 211.026 89.664 212.394 89.664 214.338C89.664 216.282 90.87 217.668 92.58 217.668ZM104.164 217.632C105.136 217.632 106.27 217.2 106.828 216.624L107.944 217.776C107.116 218.658 105.496 219.216 104.182 219.216C101.59 219.216 99.3936 217.182 99.3936 214.32C99.3936 211.53 101.464 209.478 104.038 209.478C106.882 209.478 108.52 211.638 108.52 214.968H101.194C101.428 216.516 102.562 217.632 104.164 217.632ZM104.11 211.062C102.67 211.062 101.5 212.034 101.212 213.546H106.792C106.594 212.106 105.712 211.062 104.11 211.062ZM110.585 219V206.418H112.349V219H110.585ZM115.826 208.146C115.214 208.146 114.746 207.642 114.746 207.066C114.746 206.508 115.214 206.004 115.826 206.004C116.402 206.004 116.888 206.508 116.888 207.066C116.888 207.642 116.402 208.146 115.826 208.146ZM114.926 219V209.694H116.708V219H114.926ZM122.382 219L118.386 209.694H120.312L123.21 216.93L126.054 209.694H127.98L124.056 219H122.382ZM133.326 217.632C134.298 217.632 135.432 217.2 135.99 216.624L137.106 217.776C136.278 218.658 134.658 219.216 133.344 219.216C130.752 219.216 128.556 217.182 128.556 214.32C128.556 211.53 130.626 209.478 133.2 209.478C136.044 209.478 137.682 211.638 137.682 214.968H130.356C130.59 216.516 131.724 217.632 133.326 217.632ZM133.272 211.062C131.832 211.062 130.662 212.034 130.374 213.546H135.954C135.756 212.106 134.874 211.062 133.272 211.062ZM141.619 211.476C142.213 210.252 143.473 209.478 145.075 209.478V211.026C143.149 211.026 141.781 212.088 141.619 213.708V219H139.837V209.694H141.619V211.476ZM151.964 219V206.418H153.728V219H151.964ZM160.229 209.478C162.731 209.478 164.117 211.062 164.117 213.366V219H162.371V217.722C161.687 218.694 160.409 219.216 159.275 219.216C157.295 219.216 155.837 218.064 155.837 216.246C155.837 214.392 157.511 213.15 159.563 213.15C160.481 213.15 161.471 213.348 162.371 213.654V213.366C162.371 212.196 161.831 210.954 159.977 210.954C159.059 210.954 158.159 211.314 157.349 211.728L156.701 210.414C158.033 209.748 159.203 209.478 160.229 209.478ZM159.617 217.812C160.769 217.812 162.065 217.236 162.371 216.084V214.842C161.615 214.608 160.751 214.482 159.833 214.482C158.591 214.482 157.547 215.184 157.547 216.192C157.547 217.2 158.447 217.812 159.617 217.812ZM168.566 211.476C169.16 210.252 170.42 209.478 172.022 209.478V211.026C170.096 211.026 168.728 212.088 168.566 213.708V219H166.784V209.694H168.566V211.476ZM180.835 209.694H182.617V218.01C182.617 220.404 180.655 222.096 177.901 222.096C176.335 222.096 174.895 221.574 174.013 220.854L174.715 219.522C175.399 220.17 176.515 220.548 177.631 220.548C179.629 220.548 180.835 219.594 180.835 217.974V216.624C180.097 217.686 178.945 218.316 177.541 218.316C175.093 218.316 173.311 216.48 173.311 213.888C173.311 211.296 175.093 209.478 177.541 209.478C178.945 209.478 180.133 210.144 180.835 211.188V209.694ZM177.991 216.768C179.647 216.768 180.835 215.58 180.835 213.888C180.835 212.214 179.647 211.026 177.991 211.026C176.335 211.026 175.165 212.214 175.165 213.888C175.165 215.58 176.335 216.768 177.991 216.768ZM189.541 217.632C190.513 217.632 191.647 217.2 192.205 216.624L193.321 217.776C192.493 218.658 190.873 219.216 189.559 219.216C186.967 219.216 184.771 217.182 184.771 214.32C184.771 211.53 186.841 209.478 189.415 209.478C192.259 209.478 193.897 211.638 193.897 214.968H186.571C186.805 216.516 187.939 217.632 189.541 217.632ZM189.487 211.062C188.047 211.062 186.877 212.034 186.589 213.546H192.169C191.971 212.106 191.089 211.062 189.487 211.062ZM197.834 211.476C198.428 210.252 199.688 209.478 201.29 209.478V211.026C199.364 211.026 197.996 212.088 197.834 213.708V219H196.052V209.694H197.834V211.476ZM213.345 209.478C215.793 209.478 217.629 211.494 217.629 214.338C217.629 217.2 215.793 219.216 213.345 219.216C211.905 219.216 210.753 218.532 210.033 217.38V222.096H208.269V209.694H210.033V211.296C210.753 210.162 211.905 209.478 213.345 209.478ZM212.913 217.668C214.623 217.668 215.829 216.282 215.829 214.338C215.829 212.394 214.623 211.026 212.913 211.026C211.239 211.026 210.033 212.394 210.033 214.338C210.033 216.282 211.239 217.668 212.913 217.668ZM221.652 211.476C222.246 210.252 223.506 209.478 225.108 209.478V211.026C223.182 211.026 221.814 212.088 221.652 213.708V219H219.87V209.694H221.652V211.476ZM230.976 219.216C228.312 219.216 226.062 216.984 226.062 214.338C226.062 211.692 228.312 209.478 230.976 209.478C233.622 209.478 235.854 211.692 235.854 214.338C235.854 216.984 233.622 219.216 230.976 219.216ZM230.976 217.668C232.65 217.668 234.072 216.156 234.072 214.338C234.072 212.538 232.65 211.026 230.976 211.026C229.266 211.026 227.844 212.538 227.844 214.338C227.844 216.156 229.266 217.668 230.976 217.668ZM238.821 208.146C238.209 208.146 237.741 207.642 237.741 207.066C237.741 206.508 238.209 206.004 238.821 206.004C239.397 206.004 239.883 206.508 239.883 207.066C239.883 207.642 239.397 208.146 238.821 208.146ZM237.219 222.204C236.661 222.204 236.013 222.06 235.635 221.88L235.869 220.494C236.139 220.602 236.589 220.674 236.949 220.674C237.525 220.674 237.921 220.206 237.921 219.558V209.694H239.703V219.648C239.703 221.142 238.677 222.204 237.219 222.204ZM246.546 217.632C247.518 217.632 248.652 217.2 249.21 216.624L250.326 217.776C249.498 218.658 247.878 219.216 246.564 219.216C243.972 219.216 241.776 217.182 241.776 214.32C241.776 211.53 243.846 209.478 246.42 209.478C249.264 209.478 250.902 211.638 250.902 214.968H243.576C243.81 216.516 244.944 217.632 246.546 217.632ZM246.492 211.062C245.052 211.062 243.882 212.034 243.594 213.546H249.174C248.976 212.106 248.094 211.062 246.492 211.062ZM257.36 219.216C254.714 219.216 252.464 216.984 252.464 214.338C252.464 211.692 254.714 209.478 257.378 209.478C258.71 209.478 259.916 210.036 260.798 210.918L259.592 212.034C259.034 211.404 258.224 211.026 257.36 211.026C255.668 211.026 254.264 212.538 254.264 214.338C254.264 216.156 255.668 217.668 257.378 217.668C258.242 217.668 259.07 217.272 259.646 216.624L260.852 217.722C259.952 218.64 258.746 219.216 257.36 219.216ZM267.115 217.326L267.763 218.55C267.259 218.964 266.575 219.216 265.909 219.216C264.469 219.216 263.461 218.172 263.461 216.678V211.206H262.057V209.694H263.461V207.138H265.207V209.694H267.403V211.206H265.207V216.552C265.207 217.2 265.639 217.668 266.161 217.668C266.557 217.668 266.917 217.524 267.115 217.326ZM272.945 219.216C271.577 219.216 270.083 218.73 268.967 217.83L269.813 216.552C270.803 217.272 271.865 217.686 272.963 217.686C274.007 217.686 274.727 217.2 274.727 216.48C274.727 215.616 273.773 215.346 272.621 215.022C270.479 214.428 269.417 213.816 269.417 212.304C269.399 210.594 270.821 209.478 272.801 209.478C274.007 209.478 275.231 209.892 276.239 210.558L275.447 211.872C274.547 211.314 273.611 211.008 272.801 211.008C271.883 211.008 271.163 211.404 271.163 212.106C271.163 212.826 271.739 213.042 273.305 213.528C274.835 213.978 276.473 214.482 276.473 216.336C276.473 218.1 274.979 219.216 272.945 219.216Z" fill="#172840"/>
<path d="M99.3666 272.1L96.8583 269.591C96.6444 269.377 96.3721 269.271 96.0416 269.271C95.711 269.271 95.4388 269.377 95.2249 269.591C95.011 269.805 94.9041 270.077 94.9041 270.408C94.9041 270.739 95.011 271.011 95.2249 271.225L98.5499 274.55C98.7833 274.783 99.0555 274.9 99.3666 274.9C99.6777 274.9 99.9499 274.783 100.183 274.55L106.775 267.958C106.989 267.744 107.096 267.472 107.096 267.141C107.096 266.811 106.989 266.539 106.775 266.325C106.561 266.111 106.289 266.004 105.958 266.004C105.628 266.004 105.355 266.111 105.142 266.325L99.3666 272.1ZM101 281.666C99.386 281.666 97.8694 281.36 96.4499 280.747C95.0305 280.134 93.7958 279.303 92.7458 278.254C91.6958 277.205 90.8647 275.97 90.2526 274.55C89.6405 273.129 89.334 271.613 89.3333 270C89.3325 268.387 89.6389 266.87 90.2526 265.45C90.8663 264.029 91.6973 262.795 92.7458 261.746C93.7942 260.696 95.0289 259.865 96.4499 259.252C97.8709 258.639 99.3876 258.333 101 258.333C102.612 258.333 104.129 258.639 105.55 259.252C106.971 259.865 108.206 260.696 109.254 261.746C110.303 262.795 111.134 264.029 111.748 265.45C112.363 266.87 112.669 268.387 112.667 270C112.664 271.613 112.358 273.129 111.747 274.55C111.137 275.97 110.306 277.205 109.254 278.254C108.203 279.303 106.968 280.135 105.55 280.748C104.132 281.362 102.615 281.668 101 281.666Z" fill="#F25849"/>
<path d="M128.778 262.198C126.708 262.198 124.998 261.478 123.684 260.218L124.782 258.868C125.88 259.912 127.176 260.596 128.85 260.596C130.56 260.596 131.442 259.696 131.442 258.706C131.442 257.536 130.416 257.086 128.346 256.618C125.826 256.024 124.152 255.268 124.152 253.036C124.152 250.966 125.952 249.4 128.436 249.4C130.344 249.4 131.766 250.102 132.954 251.146L131.91 252.514C130.866 251.56 129.624 251.002 128.364 251.002C126.978 251.002 126.006 251.884 126.006 252.874C126.006 254.026 127.068 254.422 129.102 254.908C131.568 255.484 133.278 256.312 133.278 258.526C133.278 260.614 131.694 262.198 128.778 262.198ZM141.866 252.694H143.648V262H141.866V260.65C141.308 261.568 140.174 262.216 138.914 262.216C136.862 262.216 135.422 260.722 135.422 258.616V252.694H137.168V258.31C137.168 259.696 138.05 260.668 139.31 260.668C140.606 260.668 141.722 259.822 141.866 258.724V252.694ZM151.4 252.478C153.848 252.478 155.684 254.494 155.684 257.338C155.684 260.2 153.848 262.216 151.4 262.216C149.96 262.216 148.808 261.532 148.088 260.38V262H146.324V249.418H148.088V254.296C148.808 253.162 149.96 252.478 151.4 252.478ZM150.968 260.668C152.678 260.668 153.884 259.282 153.884 257.338C153.884 255.394 152.678 254.026 150.968 254.026C149.294 254.026 148.088 255.394 148.088 257.338C148.088 259.282 149.294 260.668 150.968 260.668ZM168.239 252.478C170.183 252.478 171.587 253.972 171.587 256.078V262H169.841V256.348C169.841 254.98 169.031 254.026 167.861 254.026C166.529 254.026 165.593 254.908 165.593 256.186V262H163.847V256.348C163.847 254.98 163.037 254.026 161.867 254.026C160.535 254.026 159.599 254.908 159.599 256.186V262H157.817V252.694H159.599V253.99C160.067 253.072 161.039 252.478 162.227 252.478C163.577 252.478 164.675 253.198 165.215 254.35C165.647 253.198 166.835 252.478 168.239 252.478ZM175.03 251.146C174.418 251.146 173.95 250.642 173.95 250.066C173.95 249.508 174.418 249.004 175.03 249.004C175.606 249.004 176.092 249.508 176.092 250.066C176.092 250.642 175.606 251.146 175.03 251.146ZM174.13 262V252.694H175.912V262H174.13ZM182.845 260.326L183.493 261.55C182.989 261.964 182.305 262.216 181.639 262.216C180.199 262.216 179.191 261.172 179.191 259.678V254.206H177.787V252.694H179.191V250.138H180.937V252.694H183.133V254.206H180.937V259.552C180.937 260.2 181.369 260.668 181.891 260.668C182.287 260.668 182.647 260.524 182.845 260.326ZM193.826 262.216C192.458 262.216 190.964 261.73 189.848 260.83L190.694 259.552C191.684 260.272 192.746 260.686 193.844 260.686C194.888 260.686 195.608 260.2 195.608 259.48C195.608 258.616 194.654 258.346 193.502 258.022C191.36 257.428 190.298 256.816 190.298 255.304C190.28 253.594 191.702 252.478 193.682 252.478C194.888 252.478 196.112 252.892 197.12 253.558L196.328 254.872C195.428 254.314 194.492 254.008 193.682 254.008C192.764 254.008 192.044 254.404 192.044 255.106C192.044 255.826 192.62 256.042 194.186 256.528C195.716 256.978 197.354 257.482 197.354 259.336C197.354 261.1 195.86 262.216 193.826 262.216ZM203.781 260.326L204.429 261.55C203.925 261.964 203.241 262.216 202.575 262.216C201.135 262.216 200.127 261.172 200.127 259.678V254.206H198.723V252.694H200.127V250.138H201.873V252.694H204.069V254.206H201.873V259.552C201.873 260.2 202.305 260.668 202.827 260.668C203.223 260.668 203.583 260.524 203.781 260.326ZM208.117 254.476C208.711 253.252 209.971 252.478 211.573 252.478V254.026C209.647 254.026 208.279 255.088 208.117 256.708V262H206.335V252.694H208.117V254.476ZM217.44 262.216C214.776 262.216 212.526 259.984 212.526 257.338C212.526 254.692 214.776 252.478 217.44 252.478C220.086 252.478 222.318 254.692 222.318 257.338C222.318 259.984 220.086 262.216 217.44 262.216ZM217.44 260.668C219.114 260.668 220.536 259.156 220.536 257.338C220.536 255.538 219.114 254.026 217.44 254.026C215.73 254.026 214.308 255.538 214.308 257.338C214.308 259.156 215.73 260.668 217.44 260.668ZM229.137 252.478C231.189 252.478 232.629 253.972 232.629 256.078V262H230.883V256.384C230.883 254.998 230.001 254.026 228.741 254.026C227.445 254.026 226.329 254.872 226.185 255.97V262H224.403V252.694H226.185V254.044C226.743 253.126 227.877 252.478 229.137 252.478ZM242.253 252.694H244.035V261.01C244.035 263.404 242.073 265.096 239.319 265.096C237.753 265.096 236.313 264.574 235.431 263.854L236.133 262.522C236.817 263.17 237.933 263.548 239.049 263.548C241.047 263.548 242.253 262.594 242.253 260.974V259.624C241.515 260.686 240.363 261.316 238.959 261.316C236.511 261.316 234.729 259.48 234.729 256.888C234.729 254.296 236.511 252.478 238.959 252.478C240.363 252.478 241.551 253.144 242.253 254.188V252.694ZM239.409 259.768C241.065 259.768 242.253 258.58 242.253 256.888C242.253 255.214 241.065 254.026 239.409 254.026C237.753 254.026 236.583 255.214 236.583 256.888C236.583 258.58 237.753 259.768 239.409 259.768ZM250.958 260.632C251.93 260.632 253.064 260.2 253.622 259.624L254.738 260.776C253.91 261.658 252.29 262.216 250.976 262.216C248.384 262.216 246.188 260.182 246.188 257.32C246.188 254.53 248.258 252.478 250.832 252.478C253.676 252.478 255.314 254.638 255.314 257.968H247.988C248.222 259.516 249.356 260.632 250.958 260.632ZM250.904 254.062C249.464 254.062 248.294 255.034 248.006 256.546H253.586C253.388 255.106 252.506 254.062 250.904 254.062ZM259.252 254.476C259.846 253.252 261.106 252.478 262.708 252.478V254.026C260.782 254.026 259.414 255.088 259.252 256.708V262H257.47V252.694H259.252V254.476ZM274.763 252.478C277.211 252.478 279.047 254.494 279.047 257.338C279.047 260.2 277.211 262.216 274.763 262.216C273.323 262.216 272.171 261.532 271.451 260.38V262H269.687V249.418H271.451V254.296C272.171 253.162 273.323 252.478 274.763 252.478ZM274.331 260.668C276.041 260.668 277.247 259.282 277.247 257.338C277.247 255.394 276.041 254.026 274.331 254.026C272.657 254.026 271.451 255.394 271.451 257.338C271.451 259.282 272.657 260.668 274.331 260.668ZM282.08 251.146C281.468 251.146 281 250.642 281 250.066C281 249.508 281.468 249.004 282.08 249.004C282.656 249.004 283.142 249.508 283.142 250.066C283.142 250.642 282.656 251.146 282.08 251.146ZM281.18 262V252.694H282.962V262H281.18ZM292.704 249.418H294.468V262H292.704V260.38C291.984 261.532 290.832 262.216 289.392 262.216C286.944 262.216 285.108 260.2 285.108 257.338C285.108 254.494 286.944 252.478 289.392 252.478C290.832 252.478 291.984 253.162 292.704 254.296V249.418ZM289.824 260.668C291.498 260.668 292.704 259.282 292.704 257.338C292.704 255.394 291.498 254.026 289.824 254.026C288.114 254.026 286.908 255.394 286.908 257.338C286.908 259.282 288.114 260.668 289.824 260.668ZM300.508 262.216C299.14 262.216 297.646 261.73 296.53 260.83L297.376 259.552C298.366 260.272 299.428 260.686 300.526 260.686C301.57 260.686 302.29 260.2 302.29 259.48C302.29 258.616 301.336 258.346 300.184 258.022C298.042 257.428 296.98 256.816 296.98 255.304C296.962 253.594 298.384 252.478 300.364 252.478C301.57 252.478 302.794 252.892 303.802 253.558L303.01 254.872C302.11 254.314 301.174 254.008 300.364 254.008C299.446 254.008 298.726 254.404 298.726 255.106C298.726 255.826 299.302 256.042 300.868 256.528C302.398 256.978 304.036 257.482 304.036 259.336C304.036 261.1 302.542 262.216 300.508 262.216ZM313.615 262L310.483 252.694H312.301L314.443 259.624L316.747 252.694H318.259L320.563 259.624L322.687 252.694H324.505L321.373 262H319.735L317.503 255.088L315.253 262H313.615ZM327.186 251.146C326.574 251.146 326.106 250.642 326.106 250.066C326.106 249.508 326.574 249.004 327.186 249.004C327.762 249.004 328.248 249.508 328.248 250.066C328.248 250.642 327.762 251.146 327.186 251.146ZM326.286 262V252.694H328.068V262H326.286ZM335.002 260.326L335.65 261.55C335.146 261.964 334.462 262.216 333.796 262.216C332.356 262.216 331.348 261.172 331.348 259.678V254.206H329.944V252.694H331.348V250.138H333.094V252.694H335.29V254.206H333.094V259.552C333.094 260.2 333.526 260.668 334.048 260.668C334.444 260.668 334.804 260.524 335.002 260.326ZM342.2 252.478C344.252 252.478 345.692 253.972 345.692 256.078V262H343.946V256.384C343.946 254.998 343.064 254.026 341.804 254.026C340.4 254.026 339.23 255.016 339.23 256.222V262H337.466V249.418H339.23V254.08C339.788 253.144 340.922 252.478 342.2 252.478ZM128.652 287.326L129.3 288.55C128.796 288.964 128.112 289.216 127.446 289.216C126.006 289.216 124.998 288.172 124.998 286.678V281.206H123.594V279.694H124.998V277.138H126.744V279.694H128.94V281.206H126.744V286.552C126.744 287.2 127.176 287.668 127.698 287.668C128.094 287.668 128.454 287.524 128.652 287.326ZM132.988 281.476C133.582 280.252 134.842 279.478 136.444 279.478V281.026C134.518 281.026 133.15 282.088 132.988 283.708V289H131.206V279.694H132.988V281.476ZM144.591 279.694H146.373V289H144.591V287.65C144.033 288.568 142.899 289.216 141.639 289.216C139.587 289.216 138.147 287.722 138.147 285.616V279.694H139.893V285.31C139.893 286.696 140.775 287.668 142.035 287.668C143.331 287.668 144.447 286.822 144.591 285.724V279.694ZM152.324 289.216C150.956 289.216 149.462 288.73 148.346 287.83L149.192 286.552C150.182 287.272 151.244 287.686 152.342 287.686C153.386 287.686 154.106 287.2 154.106 286.48C154.106 285.616 153.152 285.346 152 285.022C149.858 284.428 148.796 283.816 148.796 282.304C148.778 280.594 150.2 279.478 152.18 279.478C153.386 279.478 154.61 279.892 155.618 280.558L154.826 281.872C153.926 281.314 152.99 281.008 152.18 281.008C151.262 281.008 150.542 281.404 150.542 282.106C150.542 282.826 151.118 283.042 152.684 283.528C154.214 283.978 155.852 284.482 155.852 286.336C155.852 288.1 154.358 289.216 152.324 289.216ZM162.279 287.326L162.927 288.55C162.423 288.964 161.739 289.216 161.073 289.216C159.633 289.216 158.625 288.172 158.625 286.678V281.206H157.221V279.694H158.625V277.138H160.371V279.694H162.567V281.206H160.371V286.552C160.371 287.2 160.803 287.668 161.325 287.668C161.721 287.668 162.081 287.524 162.279 287.326ZM169.009 287.632C169.981 287.632 171.115 287.2 171.673 286.624L172.789 287.776C171.961 288.658 170.341 289.216 169.027 289.216C166.435 289.216 164.239 287.182 164.239 284.32C164.239 281.53 166.309 279.478 168.883 279.478C171.727 279.478 173.365 281.638 173.365 284.968H166.039C166.273 286.516 167.407 287.632 169.009 287.632ZM168.955 281.062C167.515 281.062 166.345 282.034 166.057 283.546H171.637C171.439 282.106 170.557 281.062 168.955 281.062ZM182.595 276.418H184.359V289H182.595V287.38C181.875 288.532 180.723 289.216 179.283 289.216C176.835 289.216 174.999 287.2 174.999 284.338C174.999 281.494 176.835 279.478 179.283 279.478C180.723 279.478 181.875 280.162 182.595 281.296V276.418ZM179.715 287.668C181.389 287.668 182.595 286.282 182.595 284.338C182.595 282.394 181.389 281.026 179.715 281.026C178.005 281.026 176.799 282.394 176.799 284.338C176.799 286.282 178.005 287.668 179.715 287.668ZM196.575 289.216C193.929 289.216 191.679 286.984 191.679 284.338C191.679 281.692 193.929 279.478 196.593 279.478C197.925 279.478 199.131 280.036 200.013 280.918L198.807 282.034C198.249 281.404 197.439 281.026 196.575 281.026C194.883 281.026 193.479 282.538 193.479 284.338C193.479 286.156 194.883 287.668 196.593 287.668C197.457 287.668 198.285 287.272 198.861 286.624L200.067 287.722C199.167 288.64 197.961 289.216 196.575 289.216ZM206.19 289.216C203.526 289.216 201.276 286.984 201.276 284.338C201.276 281.692 203.526 279.478 206.19 279.478C208.836 279.478 211.068 281.692 211.068 284.338C211.068 286.984 208.836 289.216 206.19 289.216ZM206.19 287.668C207.864 287.668 209.286 286.156 209.286 284.338C209.286 282.538 207.864 281.026 206.19 281.026C204.48 281.026 203.058 282.538 203.058 284.338C203.058 286.156 204.48 287.668 206.19 287.668ZM213.153 289V276.418H214.917V289H213.153ZM217.513 289V276.418H219.277V289H217.513ZM225.778 279.478C228.28 279.478 229.666 281.062 229.666 283.366V289H227.92V287.722C227.236 288.694 225.958 289.216 224.824 289.216C222.844 289.216 221.386 288.064 221.386 286.246C221.386 284.392 223.06 283.15 225.112 283.15C226.03 283.15 227.02 283.348 227.92 283.654V283.366C227.92 282.196 227.38 280.954 225.526 280.954C224.608 280.954 223.708 281.314 222.898 281.728L222.25 280.414C223.582 279.748 224.752 279.478 225.778 279.478ZM225.166 287.812C226.318 287.812 227.614 287.236 227.92 286.084V284.842C227.164 284.608 226.3 284.482 225.382 284.482C224.14 284.482 223.096 285.184 223.096 286.192C223.096 287.2 223.996 287.812 225.166 287.812ZM237.409 279.478C239.857 279.478 241.693 281.494 241.693 284.338C241.693 287.2 239.857 289.216 237.409 289.216C235.969 289.216 234.817 288.532 234.097 287.38V289H232.333V276.418H234.097V281.296C234.817 280.162 235.969 279.478 237.409 279.478ZM236.977 287.668C238.687 287.668 239.893 286.282 239.893 284.338C239.893 282.394 238.687 281.026 236.977 281.026C235.303 281.026 234.097 282.394 234.097 284.338C234.097 286.282 235.303 287.668 236.977 287.668ZM248.255 289.216C245.591 289.216 243.341 286.984 243.341 284.338C243.341 281.692 245.591 279.478 248.255 279.478C250.901 279.478 253.133 281.692 253.133 284.338C253.133 286.984 250.901 289.216 248.255 289.216ZM248.255 287.668C249.929 287.668 251.351 286.156 251.351 284.338C251.351 282.538 249.929 281.026 248.255 281.026C246.545 281.026 245.123 282.538 245.123 284.338C245.123 286.156 246.545 287.668 248.255 287.668ZM257.09 281.476C257.684 280.252 258.944 279.478 260.546 279.478V281.026C258.62 281.026 257.252 282.088 257.09 283.708V289H255.308V279.694H257.09V281.476ZM266.19 279.478C268.692 279.478 270.078 281.062 270.078 283.366V289H268.332V287.722C267.648 288.694 266.37 289.216 265.236 289.216C263.256 289.216 261.798 288.064 261.798 286.246C261.798 284.392 263.472 283.15 265.524 283.15C266.442 283.15 267.432 283.348 268.332 283.654V283.366C268.332 282.196 267.792 280.954 265.938 280.954C265.02 280.954 264.12 281.314 263.31 281.728L262.662 280.414C263.994 279.748 265.164 279.478 266.19 279.478ZM265.578 287.812C266.73 287.812 268.026 287.236 268.332 286.084V284.842C267.576 284.608 266.712 284.482 265.794 284.482C264.552 284.482 263.508 285.184 263.508 286.192C263.508 287.2 264.408 287.812 265.578 287.812ZM277.011 287.326L277.659 288.55C277.155 288.964 276.471 289.216 275.805 289.216C274.365 289.216 273.357 288.172 273.357 286.678V281.206H271.953V279.694H273.357V277.138H275.103V279.694H277.299V281.206H275.103V286.552C275.103 287.2 275.535 287.668 276.057 287.668C276.453 287.668 276.813 287.524 277.011 287.326ZM283.886 289.216C281.222 289.216 278.972 286.984 278.972 284.338C278.972 281.692 281.222 279.478 283.886 279.478C286.532 279.478 288.764 281.692 288.764 284.338C288.764 286.984 286.532 289.216 283.886 289.216ZM283.886 287.668C285.56 287.668 286.982 286.156 286.982 284.338C286.982 282.538 285.56 281.026 283.886 281.026C282.176 281.026 280.754 282.538 280.754 284.338C280.754 286.156 282.176 287.668 283.886 287.668ZM292.721 281.476C293.315 280.252 294.575 279.478 296.177 279.478V281.026C294.251 281.026 292.883 282.088 292.721 283.708V289H290.939V279.694H292.721V281.476ZM301.281 289.216C299.913 289.216 298.419 288.73 297.303 287.83L298.149 286.552C299.139 287.272 300.201 287.686 301.299 287.686C302.343 287.686 303.063 287.2 303.063 286.48C303.063 285.616 302.109 285.346 300.957 285.022C298.815 284.428 297.753 283.816 297.753 282.304C297.735 280.594 299.157 279.478 301.137 279.478C302.343 279.478 303.567 279.892 304.575 280.558L303.783 281.872C302.883 281.314 301.947 281.008 301.137 281.008C300.219 281.008 299.499 281.404 299.499 282.106C299.499 282.826 300.075 283.042 301.641 283.528C303.171 283.978 304.809 284.482 304.809 286.336C304.809 288.1 303.315 289.216 301.281 289.216Z" fill="#172840"/>
<path d="M99.3666 342.1L96.8583 339.591C96.6444 339.377 96.3721 339.271 96.0416 339.271C95.711 339.271 95.4388 339.377 95.2249 339.591C95.011 339.805 94.9041 340.077 94.9041 340.408C94.9041 340.739 95.011 341.011 95.2249 341.225L98.5499 344.55C98.7833 344.783 99.0555 344.9 99.3666 344.9C99.6777 344.9 99.9499 344.783 100.183 344.55L106.775 337.958C106.989 337.744 107.096 337.472 107.096 337.141C107.096 336.811 106.989 336.539 106.775 336.325C106.561 336.111 106.289 336.004 105.958 336.004C105.628 336.004 105.355 336.111 105.142 336.325L99.3666 342.1ZM101 351.666C99.386 351.666 97.8694 351.36 96.4499 350.747C95.0305 350.134 93.7958 349.303 92.7458 348.254C91.6958 347.205 90.8647 345.97 90.2526 344.55C89.6405 343.129 89.334 341.613 89.3333 340C89.3325 338.387 89.6389 336.87 90.2526 335.45C90.8663 334.029 91.6973 332.795 92.7458 331.746C93.7942 330.696 95.0289 329.865 96.4499 329.252C97.8709 328.639 99.3876 328.333 101 328.333C102.612 328.333 104.129 328.639 105.55 329.252C106.971 329.865 108.206 330.696 109.254 331.746C110.303 332.795 111.134 334.029 111.748 335.45C112.363 336.87 112.669 338.387 112.667 340C112.664 341.613 112.358 343.129 111.747 344.55C111.137 345.97 110.306 347.205 109.254 348.254C108.203 349.303 106.968 350.135 105.55 350.748C104.132 351.362 102.615 351.668 101 351.666Z" fill="#F25849"/>
<path d="M134.088 332L133.008 329.48H126.564L125.484 332H123.468L128.778 319.634H130.794L136.104 332H134.088ZM127.266 327.842H132.306L129.786 321.974L127.266 327.842ZM142.258 332.216C139.612 332.216 137.362 329.984 137.362 327.338C137.362 324.692 139.612 322.478 142.276 322.478C143.608 322.478 144.814 323.036 145.696 323.918L144.49 325.034C143.932 324.404 143.122 324.026 142.258 324.026C140.566 324.026 139.162 325.538 139.162 327.338C139.162 329.156 140.566 330.668 142.276 330.668C143.14 330.668 143.968 330.272 144.544 329.624L145.75 330.722C144.85 331.64 143.644 332.216 142.258 332.216ZM152.049 332.216C149.403 332.216 147.153 329.984 147.153 327.338C147.153 324.692 149.403 322.478 152.067 322.478C153.399 322.478 154.605 323.036 155.487 323.918L154.281 325.034C153.723 324.404 152.913 324.026 152.049 324.026C150.357 324.026 148.953 325.538 148.953 327.338C148.953 329.156 150.357 330.668 152.067 330.668C152.931 330.668 153.759 330.272 154.335 329.624L155.541 330.722C154.641 331.64 153.435 332.216 152.049 332.216ZM161.714 330.632C162.686 330.632 163.82 330.2 164.378 329.624L165.494 330.776C164.666 331.658 163.046 332.216 161.732 332.216C159.14 332.216 156.944 330.182 156.944 327.32C156.944 324.53 159.014 322.478 161.588 322.478C164.432 322.478 166.07 324.638 166.07 327.968H158.744C158.978 329.516 160.112 330.632 161.714 330.632ZM161.66 324.062C160.22 324.062 159.05 325.034 158.762 326.546H164.342C164.144 325.106 163.262 324.062 161.66 324.062ZM171.502 332.216C170.134 332.216 168.64 331.73 167.524 330.83L168.37 329.552C169.36 330.272 170.422 330.686 171.52 330.686C172.564 330.686 173.284 330.2 173.284 329.48C173.284 328.616 172.33 328.346 171.178 328.022C169.036 327.428 167.974 326.816 167.974 325.304C167.956 323.594 169.378 322.478 171.358 322.478C172.564 322.478 173.788 322.892 174.796 323.558L174.004 324.872C173.104 324.314 172.168 324.008 171.358 324.008C170.44 324.008 169.72 324.404 169.72 325.106C169.72 325.826 170.296 326.042 171.862 326.528C173.392 326.978 175.03 327.482 175.03 329.336C175.03 331.1 173.536 332.216 171.502 332.216ZM180.467 332.216C179.099 332.216 177.605 331.73 176.489 330.83L177.335 329.552C178.325 330.272 179.387 330.686 180.485 330.686C181.529 330.686 182.249 330.2 182.249 329.48C182.249 328.616 181.295 328.346 180.143 328.022C178.001 327.428 176.939 326.816 176.939 325.304C176.921 323.594 178.343 322.478 180.323 322.478C181.529 322.478 182.753 322.892 183.761 323.558L182.969 324.872C182.069 324.314 181.133 324.008 180.323 324.008C179.405 324.008 178.685 324.404 178.685 325.106C178.685 325.826 179.261 326.042 180.827 326.528C182.357 326.978 183.995 327.482 183.995 329.336C183.995 331.1 182.501 332.216 180.467 332.216ZM195.572 330.326L196.22 331.55C195.716 331.964 195.032 332.216 194.366 332.216C192.926 332.216 191.918 331.172 191.918 329.678V324.206H190.514V322.694H191.918V320.138H193.664V322.694H195.86V324.206H193.664V329.552C193.664 330.2 194.096 330.668 194.618 330.668C195.014 330.668 195.374 330.524 195.572 330.326ZM202.446 332.216C199.782 332.216 197.532 329.984 197.532 327.338C197.532 324.692 199.782 322.478 202.446 322.478C205.092 322.478 207.324 324.692 207.324 327.338C207.324 329.984 205.092 332.216 202.446 332.216ZM202.446 330.668C204.12 330.668 205.542 329.156 205.542 327.338C205.542 325.538 204.12 324.026 202.446 324.026C200.736 324.026 199.314 325.538 199.314 327.338C199.314 329.156 200.736 330.668 202.446 330.668ZM216.918 332L213.786 322.694H215.604L217.746 329.624L220.05 322.694H221.562L223.866 329.624L225.99 322.694H227.808L224.676 332H223.038L220.806 325.088L218.556 332H216.918ZM234.341 322.478C236.393 322.478 237.833 323.972 237.833 326.078V332H236.087V326.384C236.087 324.998 235.205 324.026 233.945 324.026C232.541 324.026 231.371 325.016 231.371 326.222V332H229.607V319.418H231.371V324.08C231.929 323.144 233.063 322.478 234.341 322.478ZM241.264 321.146C240.652 321.146 240.184 320.642 240.184 320.066C240.184 319.508 240.652 319.004 241.264 319.004C241.84 319.004 242.326 319.508 242.326 320.066C242.326 320.642 241.84 321.146 241.264 321.146ZM240.364 332V322.694H242.146V332H240.364ZM249.08 330.326L249.728 331.55C249.224 331.964 248.54 332.216 247.874 332.216C246.434 332.216 245.426 331.172 245.426 329.678V324.206H244.022V322.694H245.426V320.138H247.172V322.694H249.368V324.206H247.172V329.552C247.172 330.2 247.604 330.668 248.126 330.668C248.522 330.668 248.882 330.524 249.08 330.326ZM255.81 330.632C256.782 330.632 257.916 330.2 258.474 329.624L259.59 330.776C258.762 331.658 257.142 332.216 255.828 332.216C253.236 332.216 251.04 330.182 251.04 327.32C251.04 324.53 253.11 322.478 255.684 322.478C258.528 322.478 260.166 324.638 260.166 327.968H252.84C253.074 329.516 254.208 330.632 255.81 330.632ZM255.756 324.062C254.316 324.062 253.146 325.034 252.858 326.546H258.438C258.24 325.106 257.358 324.062 255.756 324.062ZM261.872 327.896V326.276H266.624V327.896H261.872ZM268.876 332V319.418H270.64V332H268.876ZM277.141 322.478C279.643 322.478 281.029 324.062 281.029 326.366V332H279.283V330.722C278.599 331.694 277.321 332.216 276.187 332.216C274.207 332.216 272.749 331.064 272.749 329.246C272.749 327.392 274.423 326.15 276.475 326.15C277.393 326.15 278.383 326.348 279.283 326.654V326.366C279.283 325.196 278.743 323.954 276.889 323.954C275.971 323.954 275.071 324.314 274.261 324.728L273.613 323.414C274.945 322.748 276.115 322.478 277.141 322.478ZM276.529 330.812C277.681 330.812 278.977 330.236 279.283 329.084V327.842C278.527 327.608 277.663 327.482 276.745 327.482C275.503 327.482 274.459 328.184 274.459 329.192C274.459 330.2 275.359 330.812 276.529 330.812ZM288.773 322.478C291.221 322.478 293.057 324.494 293.057 327.338C293.057 330.2 291.221 332.216 288.773 332.216C287.333 332.216 286.181 331.532 285.461 330.38V332H283.697V319.418H285.461V324.296C286.181 323.162 287.333 322.478 288.773 322.478ZM288.341 330.668C290.051 330.668 291.257 329.282 291.257 327.338C291.257 325.394 290.051 324.026 288.341 324.026C286.667 324.026 285.461 325.394 285.461 327.338C285.461 329.282 286.667 330.668 288.341 330.668ZM299.474 330.632C300.446 330.632 301.58 330.2 302.138 329.624L303.254 330.776C302.426 331.658 300.806 332.216 299.492 332.216C296.9 332.216 294.704 330.182 294.704 327.32C294.704 324.53 296.774 322.478 299.348 322.478C302.192 322.478 303.83 324.638 303.83 327.968H296.504C296.738 329.516 297.872 330.632 299.474 330.632ZM299.42 324.062C297.98 324.062 296.81 325.034 296.522 326.546H302.102C301.904 325.106 301.022 324.062 299.42 324.062ZM305.896 332V319.418H307.66V332H305.896ZM322.569 319.418H324.333V332H322.569V330.38C321.849 331.532 320.697 332.216 319.257 332.216C316.809 332.216 314.973 330.2 314.973 327.338C314.973 324.494 316.809 322.478 319.257 322.478C320.697 322.478 321.849 323.162 322.569 324.296V319.418ZM319.689 330.668C321.363 330.668 322.569 329.282 322.569 327.338C322.569 325.394 321.363 324.026 319.689 324.026C317.979 324.026 316.773 325.394 316.773 327.338C316.773 329.282 317.979 330.668 319.689 330.668ZM331.273 330.632C332.245 330.632 333.379 330.2 333.937 329.624L335.053 330.776C334.225 331.658 332.605 332.216 331.291 332.216C328.699 332.216 326.503 330.182 326.503 327.32C326.503 324.53 328.573 322.478 331.147 322.478C333.991 322.478 335.629 324.638 335.629 327.968H328.303C328.537 329.516 329.671 330.632 331.273 330.632ZM331.219 324.062C329.779 324.062 328.609 325.034 328.321 326.546H333.901C333.703 325.106 332.821 324.062 331.219 324.062ZM337.694 332V319.418H339.458V332H337.694ZM342.936 321.146C342.324 321.146 341.856 320.642 341.856 320.066C341.856 319.508 342.324 319.004 342.936 319.004C343.512 319.004 343.998 319.508 343.998 320.066C343.998 320.642 343.512 321.146 342.936 321.146ZM342.036 332V322.694H343.818V332H342.036ZM349.492 332L345.496 322.694H347.422L350.32 329.93L353.164 322.694H355.09L351.166 332H349.492ZM360.435 330.632C361.407 330.632 362.541 330.2 363.099 329.624L364.215 330.776C363.387 331.658 361.767 332.216 360.453 332.216C357.861 332.216 355.665 330.182 355.665 327.32C355.665 324.53 357.735 322.478 360.309 322.478C363.153 322.478 364.791 324.638 364.791 327.968H357.465C357.699 329.516 358.833 330.632 360.435 330.632ZM360.381 324.062C358.941 324.062 357.771 325.034 357.483 326.546H363.063C362.865 325.106 361.983 324.062 360.381 324.062ZM368.729 324.476C369.323 323.252 370.583 322.478 372.185 322.478V324.026C370.259 324.026 368.891 325.088 368.729 326.708V332H366.947V322.694H368.729V324.476ZM375.561 335.24C374.931 335.24 374.283 335.096 373.797 334.844L374.193 333.476C374.553 333.674 374.967 333.764 375.327 333.764C375.903 333.764 376.299 333.584 376.605 333.044L377.073 332.054L373.077 322.694H374.985L377.973 330.038L380.799 322.694H382.653L378.549 332.846C377.883 334.52 376.893 335.222 375.561 335.24ZM127.662 359.216C126.294 359.216 124.8 358.73 123.684 357.83L124.53 356.552C125.52 357.272 126.582 357.686 127.68 357.686C128.724 357.686 129.444 357.2 129.444 356.48C129.444 355.616 128.49 355.346 127.338 355.022C125.196 354.428 124.134 353.816 124.134 352.304C124.116 350.594 125.538 349.478 127.518 349.478C128.724 349.478 129.948 349.892 130.956 350.558L130.164 351.872C129.264 351.314 128.328 351.008 127.518 351.008C126.6 351.008 125.88 351.404 125.88 352.106C125.88 352.826 126.456 353.042 128.022 353.528C129.552 353.978 131.19 354.482 131.19 356.336C131.19 358.1 129.696 359.216 127.662 359.216ZM139.669 349.694H141.451V359H139.669V357.65C139.111 358.568 137.977 359.216 136.717 359.216C134.665 359.216 133.225 357.722 133.225 355.616V349.694H134.971V355.31C134.971 356.696 135.853 357.668 137.113 357.668C138.409 357.668 139.525 356.822 139.669 355.724V349.694ZM149.202 349.478C151.65 349.478 153.486 351.494 153.486 354.338C153.486 357.2 151.65 359.216 149.202 359.216C147.762 359.216 146.61 358.532 145.89 357.38V362.096H144.126V349.694H145.89V351.296C146.61 350.162 147.762 349.478 149.202 349.478ZM148.77 357.668C150.48 357.668 151.686 356.282 151.686 354.338C151.686 352.394 150.48 351.026 148.77 351.026C147.096 351.026 145.89 352.394 145.89 354.338C145.89 356.282 147.096 357.668 148.77 357.668ZM160.804 349.478C163.252 349.478 165.088 351.494 165.088 354.338C165.088 357.2 163.252 359.216 160.804 359.216C159.364 359.216 158.212 358.532 157.492 357.38V362.096H155.728V349.694H157.492V351.296C158.212 350.162 159.364 349.478 160.804 349.478ZM160.372 357.668C162.082 357.668 163.288 356.282 163.288 354.338C163.288 352.394 162.082 351.026 160.372 351.026C158.698 351.026 157.492 352.394 157.492 354.338C157.492 356.282 158.698 357.668 160.372 357.668ZM171.649 359.216C168.985 359.216 166.735 356.984 166.735 354.338C166.735 351.692 168.985 349.478 171.649 349.478C174.295 349.478 176.527 351.692 176.527 354.338C176.527 356.984 174.295 359.216 171.649 359.216ZM171.649 357.668C173.323 357.668 174.745 356.156 174.745 354.338C174.745 352.538 173.323 351.026 171.649 351.026C169.939 351.026 168.517 352.538 168.517 354.338C168.517 356.156 169.939 357.668 171.649 357.668ZM180.484 351.476C181.078 350.252 182.338 349.478 183.94 349.478V351.026C182.014 351.026 180.646 352.088 180.484 353.708V359H178.702V349.694H180.484V351.476ZM190.035 357.326L190.683 358.55C190.179 358.964 189.495 359.216 188.829 359.216C187.389 359.216 186.381 358.172 186.381 356.678V351.206H184.977V349.694H186.381V347.138H188.127V349.694H190.323V351.206H188.127V356.552C188.127 357.2 188.559 357.668 189.081 357.668C189.477 357.668 189.837 357.524 190.035 357.326ZM207.802 358.46L206.236 359.18C205.678 358.622 205.174 358.1 204.724 357.632C203.698 358.622 202.492 359.216 200.998 359.216C198.73 359.216 197.02 357.884 197.02 355.688C197.02 354.086 197.884 352.97 199.792 352.124C199.09 351.152 198.802 350.378 198.802 349.46C198.802 347.804 200.188 346.49 202.078 346.49C203.842 346.49 205.174 347.804 205.174 349.442C205.174 350.99 204.058 351.746 202.222 352.538C202.96 353.384 203.734 354.248 204.742 355.292C205.264 354.536 205.714 353.654 206.074 352.7L207.496 353.348C206.974 354.482 206.416 355.508 205.786 356.39L207.802 358.46ZM202.078 347.912C201.16 347.912 200.458 348.506 200.458 349.46C200.458 350.09 200.746 350.72 201.358 351.512C202.888 350.9 203.518 350.414 203.518 349.46C203.518 348.596 202.924 347.912 202.078 347.912ZM201.142 357.74C202.06 357.74 202.924 357.29 203.698 356.57C202.33 355.148 201.412 354.14 200.638 353.204C199.45 353.816 198.784 354.59 198.784 355.616C198.784 356.948 199.864 357.74 201.142 357.74ZM214.947 359V346.634H217.593L221.427 353.618L225.243 346.634H227.907V359H225.243V351.296L221.427 358.28L217.593 351.296V359H214.947ZM234.535 349.478C236.965 349.478 238.621 351.008 238.621 353.438V359H236.083V358.064C235.417 358.82 234.355 359.216 233.347 359.216C231.367 359.216 229.837 358.028 229.837 356.246C229.837 354.41 231.547 353.15 233.707 353.15C234.463 353.15 235.291 353.312 236.083 353.618V353.438C236.083 352.448 235.471 351.584 233.941 351.584C233.077 351.584 232.267 351.872 231.529 352.25L230.647 350.504C231.961 349.838 233.239 349.478 234.535 349.478ZM233.941 357.398C234.949 357.398 235.903 356.93 236.083 356.066V355.202C235.489 354.986 234.805 354.86 234.085 354.86C233.131 354.86 232.375 355.418 232.375 356.174C232.375 356.93 233.041 357.398 233.941 357.398ZM246.218 349.478C248.234 349.478 249.674 350.972 249.674 353.078V359H247.136V353.636C247.136 352.484 246.416 351.692 245.372 351.692C244.274 351.692 243.428 352.484 243.428 353.492L243.41 353.438V359H240.782V349.694H243.41V350.864C243.968 350.018 245.012 349.478 246.218 349.478ZM254.016 362.24C253.242 362.24 252.306 362.006 251.676 361.664L252.234 359.864C252.684 360.116 253.152 360.278 253.458 360.278C253.962 360.278 254.358 360.116 254.556 359.774L254.88 359.09L251.01 349.694H253.728L256.176 356.228L258.498 349.694H261.18L257.364 359.468C256.662 361.286 255.474 362.24 254.016 362.24ZM267.91 359V346.634H270.556L274.39 353.618L278.206 346.634H280.87V359H278.206V351.296L274.39 358.28L270.556 351.296V359H267.91ZM287.912 359.216C285.14 359.216 282.818 356.984 282.818 354.338C282.818 351.692 285.14 349.478 287.912 349.478C290.666 349.478 292.97 351.692 292.97 354.338C292.97 356.984 290.666 359.216 287.912 359.216ZM287.912 357.002C289.298 357.002 290.468 355.778 290.468 354.338C290.468 352.898 289.298 351.692 287.912 351.692C286.508 351.692 285.338 352.898 285.338 354.338C285.338 355.778 286.508 357.002 287.912 357.002ZM297.376 351.422C297.988 350.216 299.14 349.478 300.562 349.478V351.692C298.618 351.692 297.376 352.808 297.376 354.554V359H294.748V349.694H297.376V351.422ZM306.47 356.894C307.208 356.894 308.108 356.552 308.612 356.066L310.286 357.776C309.458 358.64 307.856 359.216 306.488 359.216C303.716 359.216 301.556 357.182 301.556 354.32C301.556 351.512 303.626 349.478 306.344 349.478C309.26 349.478 310.97 351.692 310.97 355.202H304.256C304.562 356.21 305.372 356.894 306.47 356.894ZM306.452 351.8C305.462 351.8 304.634 352.376 304.292 353.312H308.45C308.198 352.394 307.514 351.8 306.452 351.8Z" fill="#172840"/>
<defs>
<filter id="filter0_d_1704_6044" x="0" y="0" width="422" height="475" filterUnits="userSpaceOnUse" color-interpolation-filters="sRGB">
<feFlood flood-opacity="0" result="BackgroundImageFix"/>
<feColorMatrix in="SourceAlpha" type="matrix" values="0 0 0 0 0 0 0 0 0 0 0 0 0 0 0 0 0 0 127 0" result="hardAlpha"/>
<feOffset dx="-20" dy="20"/>
<feGaussianBlur stdDeviation="20"/>
<feComposite in2="hardAlpha" operator="out"/>
<feColorMatrix type="matrix" values="0 0 0 0 0 0 0 0 0 0 0 0 0 0 0 0 0 0 0.25 0"/>
<feBlend mode="normal" in2="BackgroundImageFix" result="effect1_dropShadow_1704_6044"/>
<feBlend mode="normal" in="SourceGraphic" in2="effect1_dropShadow_1704_6044" result="shape"/>
</filter>
</defs>
</svg>
