<svg width="441" height="383" viewBox="0 0 441 383" fill="none" xmlns="http://www.w3.org/2000/svg">
<g filter="url(#filter0_d_1704_6043)">
<rect x="421" y="323" width="361" height="303" rx="12" transform="rotate(-180 421 323)" fill="white"/>
</g>
<path d="M72 323C65.3726 323 60 317.627 60 311L60 32C60 25.3726 65.3726 20 72 20L72 323Z" fill="#F25849"/>
<path d="M91.14 133V122.695H92.655V133H91.14ZM97.6789 133.18C96.5389 133.18 95.2939 132.775 94.3639 132.025L95.0689 130.96C95.8939 131.56 96.7789 131.905 97.6939 131.905C98.5639 131.905 99.1639 131.5 99.1639 130.9C99.1639 130.18 98.3689 129.955 97.4089 129.685C95.6239 129.19 94.7389 128.68 94.7389 127.42C94.7239 125.995 95.9089 125.065 97.5589 125.065C98.5639 125.065 99.5839 125.41 100.424 125.965L99.7639 127.06C99.0139 126.595 98.2339 126.34 97.5589 126.34C96.7939 126.34 96.1939 126.67 96.1939 127.255C96.1939 127.855 96.6739 128.035 97.9789 128.44C99.2539 128.815 100.619 129.235 100.619 130.78C100.619 132.25 99.3739 133.18 97.6789 133.18ZM105.15 133.18C104.01 133.18 102.765 132.775 101.835 132.025L102.54 130.96C103.365 131.56 104.25 131.905 105.165 131.905C106.035 131.905 106.635 131.5 106.635 130.9C106.635 130.18 105.84 129.955 104.88 129.685C103.095 129.19 102.21 128.68 102.21 127.42C102.195 125.995 103.38 125.065 105.03 125.065C106.035 125.065 107.055 125.41 107.895 125.965L107.235 127.06C106.485 126.595 105.705 126.34 105.03 126.34C104.265 126.34 103.665 126.67 103.665 127.255C103.665 127.855 104.145 128.035 105.45 128.44C106.725 128.815 108.09 129.235 108.09 130.78C108.09 132.25 106.845 133.18 105.15 133.18ZM115.155 125.245H116.64V133H115.155V131.875C114.69 132.64 113.745 133.18 112.695 133.18C110.985 133.18 109.785 131.935 109.785 130.18V125.245H111.24V129.925C111.24 131.08 111.975 131.89 113.025 131.89C114.105 131.89 115.035 131.185 115.155 130.27V125.245ZM122.35 131.86C123.16 131.86 124.105 131.5 124.57 131.02L125.5 131.98C124.81 132.715 123.46 133.18 122.365 133.18C120.205 133.18 118.375 131.485 118.375 129.1C118.375 126.775 120.1 125.065 122.245 125.065C124.615 125.065 125.98 126.865 125.98 129.64H119.875C120.07 130.93 121.015 131.86 122.35 131.86ZM122.305 126.385C121.105 126.385 120.13 127.195 119.89 128.455H124.54C124.375 127.255 123.64 126.385 122.305 126.385ZM133.671 122.515H135.141V133H133.671V131.65C133.071 132.61 132.111 133.18 130.911 133.18C128.871 133.18 127.341 131.5 127.341 129.115C127.341 126.745 128.871 125.065 130.911 125.065C132.111 125.065 133.071 125.635 133.671 126.58V122.515ZM131.271 131.89C132.666 131.89 133.671 130.735 133.671 129.115C133.671 127.495 132.666 126.355 131.271 126.355C129.846 126.355 128.841 127.495 128.841 129.115C128.841 130.735 129.846 131.89 131.271 131.89ZM138.299 127.225C137.729 127.225 137.294 126.76 137.294 126.205C137.294 125.695 137.729 125.23 138.299 125.23C138.839 125.23 139.274 125.695 139.274 126.205C139.274 126.76 138.839 127.225 138.299 127.225ZM138.299 133.18C137.729 133.18 137.294 132.715 137.294 132.16C137.294 131.65 137.729 131.185 138.299 131.185C138.839 131.185 139.274 131.65 139.274 132.16C139.274 132.715 138.839 133.18 138.299 133.18ZM148.136 133.18C146.876 133.18 145.526 132.475 144.866 131.47L145.931 130.435C146.306 131.23 147.191 131.8 148.061 131.8C149.171 131.8 149.966 130.885 149.966 129.58V122.695H151.481V129.64C151.481 131.71 150.101 133.18 148.136 133.18ZM159.101 125.245H160.586V133H159.101V131.875C158.636 132.64 157.691 133.18 156.641 133.18C154.931 133.18 153.731 131.935 153.731 130.18V125.245H155.186V129.925C155.186 131.08 155.921 131.89 156.971 131.89C158.051 131.89 158.981 131.185 159.101 130.27V125.245ZM166.685 125.065C168.395 125.065 169.595 126.31 169.595 128.065V133H168.14V128.32C168.14 127.165 167.405 126.355 166.355 126.355C165.275 126.355 164.345 127.06 164.225 127.975V133H162.74V125.245H164.225V126.37C164.69 125.605 165.635 125.065 166.685 125.065ZM175.275 131.86C176.085 131.86 177.03 131.5 177.495 131.02L178.425 131.98C177.735 132.715 176.385 133.18 175.29 133.18C173.13 133.18 171.3 131.485 171.3 129.1C171.3 126.775 173.025 125.065 175.17 125.065C177.54 125.065 178.905 126.865 178.905 129.64H172.8C172.995 130.93 173.94 131.86 175.275 131.86ZM175.23 126.385C174.03 126.385 173.055 127.195 172.815 128.455H177.465C177.3 127.255 176.565 126.385 175.23 126.385ZM186.583 133V124.495L184.798 125.635L184.168 124.54L186.883 122.695H188.113V133H186.583ZM191.398 133L195.688 124.105H190.273V122.695H197.473V123.835L193.138 133H191.398ZM200.287 135.055L199.657 134.575C200.092 134.125 200.362 133.645 200.482 133.18C199.942 133.18 199.507 132.73 199.507 132.175C199.507 131.65 199.942 131.185 200.512 131.185C201.172 131.185 201.592 131.785 201.592 132.61C201.592 133.315 201.247 133.96 200.287 135.055ZM207.57 133V131.755L211.35 128.635C212.73 127.48 213.255 126.595 213.255 125.665C213.255 124.54 212.325 123.88 211.305 123.88C210.18 123.88 209.355 124.48 208.635 125.41L207.615 124.51C208.515 123.265 209.73 122.515 211.365 122.515C213.285 122.515 214.815 123.76 214.815 125.635C214.815 127.015 214.155 128.11 212.385 129.55L209.97 131.59H214.905V133H207.57ZM221.021 133.18C218.426 133.18 216.611 130.975 216.611 127.84C216.611 124.72 218.426 122.515 221.021 122.515C223.586 122.515 225.416 124.72 225.416 127.84C225.416 130.975 223.586 133.18 221.021 133.18ZM221.021 131.785C222.686 131.785 223.856 130.15 223.856 127.84C223.856 125.53 222.686 123.91 221.021 123.91C219.341 123.91 218.156 125.53 218.156 127.84C218.156 130.15 219.341 131.785 221.021 131.785ZM226.935 133V131.755L230.715 128.635C232.095 127.48 232.62 126.595 232.62 125.665C232.62 124.54 231.69 123.88 230.67 123.88C229.545 123.88 228.72 124.48 228 125.41L226.98 124.51C227.88 123.265 229.095 122.515 230.73 122.515C232.65 122.515 234.18 123.76 234.18 125.635C234.18 127.015 233.52 128.11 231.75 129.55L229.335 131.59H234.27V133H226.935ZM239.651 133.18C238.016 133.18 236.786 132.52 235.901 131.56L236.846 130.48C237.641 131.305 238.601 131.845 239.696 131.845C241.031 131.845 241.931 130.945 241.931 129.79C241.931 128.605 241.016 127.81 239.681 127.81C238.826 127.81 238.091 128.095 237.476 128.56L236.411 128.08L236.561 122.695H242.906V124.105H238.001L237.911 127.165C238.451 126.805 239.141 126.505 240.056 126.505C241.901 126.505 243.461 127.675 243.461 129.73C243.461 131.815 241.886 133.18 239.651 133.18ZM96.075 156.18C93.18 156.18 90.72 153.735 90.72 150.84C90.72 147.945 93.18 145.515 96.075 145.515C97.545 145.515 98.895 146.13 99.87 147.135L98.805 148.155C98.115 147.405 97.14 146.91 96.075 146.91C94.02 146.91 92.28 148.71 92.28 150.84C92.28 152.985 94.02 154.785 96.075 154.785C97.14 154.785 98.115 154.29 98.805 153.54L99.87 154.56C98.895 155.55 97.545 156.18 96.075 156.18ZM101.349 156V145.515H102.819V156H101.349ZM108.656 156.18C106.436 156.18 104.561 154.32 104.561 152.115C104.561 149.91 106.436 148.065 108.656 148.065C110.861 148.065 112.721 149.91 112.721 152.115C112.721 154.32 110.861 156.18 108.656 156.18ZM108.656 154.89C110.051 154.89 111.236 153.63 111.236 152.115C111.236 150.615 110.051 149.355 108.656 149.355C107.231 149.355 106.046 150.615 106.046 152.115C106.046 153.63 107.231 154.89 108.656 154.89ZM117.264 156.18C116.124 156.18 114.879 155.775 113.949 155.025L114.654 153.96C115.479 154.56 116.364 154.905 117.279 154.905C118.149 154.905 118.749 154.5 118.749 153.9C118.749 153.18 117.954 152.955 116.994 152.685C115.209 152.19 114.324 151.68 114.324 150.42C114.309 148.995 115.494 148.065 117.144 148.065C118.149 148.065 119.169 148.41 120.009 148.965L119.349 150.06C118.599 149.595 117.819 149.34 117.144 149.34C116.379 149.34 115.779 149.67 115.779 150.255C115.779 150.855 116.259 151.035 117.564 151.44C118.839 151.815 120.204 152.235 120.204 153.78C120.204 155.25 118.959 156.18 117.264 156.18ZM122.665 146.955C122.155 146.955 121.765 146.535 121.765 146.055C121.765 145.59 122.155 145.17 122.665 145.17C123.145 145.17 123.55 145.59 123.55 146.055C123.55 146.535 123.145 146.955 122.665 146.955ZM121.915 156V148.245H123.4V156H121.915ZM129.493 148.065C131.203 148.065 132.403 149.31 132.403 151.065V156H130.948V151.32C130.948 150.165 130.213 149.355 129.163 149.355C128.083 149.355 127.153 150.06 127.033 150.975V156H125.548V148.245H127.033V149.37C127.498 148.605 128.443 148.065 129.493 148.065ZM140.422 148.245H141.907V155.175C141.907 157.17 140.272 158.58 137.977 158.58C136.672 158.58 135.472 158.145 134.737 157.545L135.322 156.435C135.892 156.975 136.822 157.29 137.752 157.29C139.417 157.29 140.422 156.495 140.422 155.145V154.02C139.807 154.905 138.847 155.43 137.677 155.43C135.637 155.43 134.152 153.9 134.152 151.74C134.152 149.58 135.637 148.065 137.677 148.065C138.847 148.065 139.837 148.62 140.422 149.49V148.245ZM138.052 154.14C139.432 154.14 140.422 153.15 140.422 151.74C140.422 150.345 139.432 149.355 138.052 149.355C136.672 149.355 135.697 150.345 135.697 151.74C135.697 153.15 136.672 154.14 138.052 154.14ZM145.052 150.225C144.482 150.225 144.047 149.76 144.047 149.205C144.047 148.695 144.482 148.23 145.052 148.23C145.592 148.23 146.027 148.695 146.027 149.205C146.027 149.76 145.592 150.225 145.052 150.225ZM145.052 156.18C144.482 156.18 144.047 155.715 144.047 155.16C144.047 154.65 144.482 154.185 145.052 154.185C145.592 154.185 146.027 154.65 146.027 155.16C146.027 155.715 145.592 156.18 145.052 156.18ZM154.889 156.18C153.629 156.18 152.279 155.475 151.619 154.47L152.684 153.435C153.059 154.23 153.944 154.8 154.814 154.8C155.924 154.8 156.719 153.885 156.719 152.58V145.695H158.234V152.64C158.234 154.71 156.854 156.18 154.889 156.18ZM165.854 148.245H167.339V156H165.854V154.875C165.389 155.64 164.444 156.18 163.394 156.18C161.684 156.18 160.484 154.935 160.484 153.18V148.245H161.939V152.925C161.939 154.08 162.674 154.89 163.724 154.89C164.804 154.89 165.734 154.185 165.854 153.27V148.245ZM169.493 156V145.515H170.963V156H169.493ZM174.491 158.7C173.966 158.7 173.426 158.58 173.021 158.37L173.351 157.23C173.651 157.395 173.996 157.47 174.296 157.47C174.776 157.47 175.106 157.32 175.361 156.87L175.751 156.045L172.421 148.245H174.011L176.501 154.365L178.856 148.245H180.401L176.981 156.705C176.426 158.1 175.601 158.685 174.491 158.7ZM188.018 156V147.495L186.233 148.635L185.603 147.54L188.318 145.695H189.548V156H188.018ZM192.834 156L197.124 147.105H191.709V145.695H198.909V146.835L194.574 156H192.834ZM201.723 158.055L201.093 157.575C201.528 157.125 201.798 156.645 201.918 156.18C201.378 156.18 200.943 155.73 200.943 155.175C200.943 154.65 201.378 154.185 201.948 154.185C202.608 154.185 203.028 154.785 203.028 155.61C203.028 156.315 202.683 156.96 201.723 158.055ZM209.006 156V154.755L212.786 151.635C214.166 150.48 214.691 149.595 214.691 148.665C214.691 147.54 213.761 146.88 212.741 146.88C211.616 146.88 210.791 147.48 210.071 148.41L209.051 147.51C209.951 146.265 211.166 145.515 212.801 145.515C214.721 145.515 216.251 146.76 216.251 148.635C216.251 150.015 215.591 151.11 213.821 152.55L211.406 154.59H216.341V156H209.006ZM222.456 156.18C219.861 156.18 218.046 153.975 218.046 150.84C218.046 147.72 219.861 145.515 222.456 145.515C225.021 145.515 226.851 147.72 226.851 150.84C226.851 153.975 225.021 156.18 222.456 156.18ZM222.456 154.785C224.121 154.785 225.291 153.15 225.291 150.84C225.291 148.53 224.121 146.91 222.456 146.91C220.776 146.91 219.591 148.53 219.591 150.84C219.591 153.15 220.776 154.785 222.456 154.785ZM228.371 156V154.755L232.151 151.635C233.531 150.48 234.056 149.595 234.056 148.665C234.056 147.54 233.126 146.88 232.106 146.88C230.981 146.88 230.156 147.48 229.436 148.41L228.416 147.51C229.316 146.265 230.531 145.515 232.166 145.515C234.086 145.515 235.616 146.76 235.616 148.635C235.616 150.015 234.956 151.11 233.186 152.55L230.771 154.59H235.706V156H228.371ZM241.087 156.18C239.452 156.18 238.222 155.52 237.337 154.56L238.282 153.48C239.077 154.305 240.037 154.845 241.132 154.845C242.467 154.845 243.367 153.945 243.367 152.79C243.367 151.605 242.452 150.81 241.117 150.81C240.262 150.81 239.527 151.095 238.912 151.56L237.847 151.08L237.997 145.695H244.342V147.105H239.437L239.347 150.165C239.887 149.805 240.577 149.505 241.492 149.505C243.337 149.505 244.897 150.675 244.897 152.73C244.897 154.815 243.322 156.18 241.087 156.18Z" fill="#172840"/>
<path d="M99.24 191L98.34 188.9H92.97L92.07 191H90.39L94.815 180.695H96.495L100.92 191H99.24ZM93.555 187.535H97.755L95.655 182.645L93.555 187.535ZM110.626 183.065C112.336 183.065 113.536 184.31 113.536 186.065V191H112.081V186.32C112.081 185.165 111.346 184.355 110.296 184.355C109.216 184.355 108.286 185.06 108.166 185.975V191H106.681V183.245H108.166V184.37C108.631 183.605 109.576 183.065 110.626 183.065ZM119.215 189.86C120.025 189.86 120.97 189.5 121.435 189.02L122.365 189.98C121.675 190.715 120.325 191.18 119.23 191.18C117.07 191.18 115.24 189.485 115.24 187.1C115.24 184.775 116.965 183.065 119.11 183.065C121.48 183.065 122.845 184.865 122.845 187.64H116.74C116.935 188.93 117.88 189.86 119.215 189.86ZM119.17 184.385C117.97 184.385 116.995 185.195 116.755 186.455H121.405C121.24 185.255 120.505 184.385 119.17 184.385ZM126.15 191L123.54 183.245H125.055L126.84 189.02L128.76 183.245H130.02L131.94 189.02L133.71 183.245H135.225L132.615 191H131.25L129.39 185.24L127.515 191H126.15ZM144.692 191.18C142.472 191.18 140.597 189.32 140.597 187.115C140.597 184.91 142.472 183.065 144.692 183.065C146.897 183.065 148.757 184.91 148.757 187.115C148.757 189.32 146.897 191.18 144.692 191.18ZM144.692 189.89C146.087 189.89 147.272 188.63 147.272 187.115C147.272 185.615 146.087 184.355 144.692 184.355C143.267 184.355 142.082 185.615 142.082 187.115C142.082 188.63 143.267 189.89 144.692 189.89ZM154.799 183.065C156.839 183.065 158.369 184.745 158.369 187.115C158.369 189.5 156.839 191.18 154.799 191.18C153.599 191.18 152.639 190.61 152.039 189.65V193.58H150.569V183.245H152.039V184.58C152.639 183.635 153.599 183.065 154.799 183.065ZM154.439 189.89C155.864 189.89 156.869 188.735 156.869 187.115C156.869 185.495 155.864 184.355 154.439 184.355C153.044 184.355 152.039 185.495 152.039 187.115C152.039 188.735 153.044 189.89 154.439 189.89ZM164.467 183.065C166.507 183.065 168.037 184.745 168.037 187.115C168.037 189.5 166.507 191.18 164.467 191.18C163.267 191.18 162.307 190.61 161.707 189.65V193.58H160.237V183.245H161.707V184.58C162.307 183.635 163.267 183.065 164.467 183.065ZM164.107 189.89C165.532 189.89 166.537 188.735 166.537 187.115C166.537 185.495 165.532 184.355 164.107 184.355C162.712 184.355 161.707 185.495 161.707 187.115C161.707 188.735 162.712 189.89 164.107 189.89ZM173.505 191.18C171.285 191.18 169.41 189.32 169.41 187.115C169.41 184.91 171.285 183.065 173.505 183.065C175.71 183.065 177.57 184.91 177.57 187.115C177.57 189.32 175.71 191.18 173.505 191.18ZM173.505 189.89C174.9 189.89 176.085 188.63 176.085 187.115C176.085 185.615 174.9 184.355 173.505 184.355C172.08 184.355 170.895 185.615 170.895 187.115C170.895 188.63 172.08 189.89 173.505 189.89ZM180.868 184.73C181.363 183.71 182.413 183.065 183.748 183.065V184.355C182.143 184.355 181.003 185.24 180.868 186.59V191H179.383V183.245H180.868V184.73ZM188.826 189.605L189.366 190.625C188.946 190.97 188.376 191.18 187.821 191.18C186.621 191.18 185.781 190.31 185.781 189.065V184.505H184.611V183.245H185.781V181.115H187.236V183.245H189.066V184.505H187.236V188.96C187.236 189.5 187.596 189.89 188.031 189.89C188.361 189.89 188.661 189.77 188.826 189.605ZM196.22 183.245H197.705V191H196.22V189.875C195.755 190.64 194.81 191.18 193.76 191.18C192.05 191.18 190.85 189.935 190.85 188.18V183.245H192.305V187.925C192.305 189.08 193.04 189.89 194.09 189.89C195.17 189.89 196.1 189.185 196.22 188.27V183.245ZM203.804 183.065C205.514 183.065 206.714 184.31 206.714 186.065V191H205.259V186.32C205.259 185.165 204.524 184.355 203.474 184.355C202.394 184.355 201.464 185.06 201.344 185.975V191H199.859V183.245H201.344V184.37C201.809 183.605 202.754 183.065 203.804 183.065ZM209.574 181.955C209.064 181.955 208.674 181.535 208.674 181.055C208.674 180.59 209.064 180.17 209.574 180.17C210.054 180.17 210.459 180.59 210.459 181.055C210.459 181.535 210.054 181.955 209.574 181.955ZM208.824 191V183.245H210.309V191H208.824ZM216.087 189.605L216.627 190.625C216.207 190.97 215.637 191.18 215.082 191.18C213.882 191.18 213.042 190.31 213.042 189.065V184.505H211.872V183.245H213.042V181.115H214.497V183.245H216.327V184.505H214.497V188.96C214.497 189.5 214.857 189.89 215.292 189.89C215.622 189.89 215.922 189.77 216.087 189.605ZM219.506 193.7C218.981 193.7 218.441 193.58 218.036 193.37L218.366 192.23C218.666 192.395 219.011 192.47 219.311 192.47C219.791 192.47 220.121 192.32 220.376 191.87L220.766 191.045L217.436 183.245H219.026L221.516 189.365L223.871 183.245H225.416L221.996 191.705C221.441 193.1 220.616 193.685 219.506 193.7ZM232.103 181.955C231.593 181.955 231.203 181.535 231.203 181.055C231.203 180.59 231.593 180.17 232.103 180.17C232.583 180.17 232.988 180.59 232.988 181.055C232.988 181.535 232.583 181.955 232.103 181.955ZM231.353 191V183.245H232.838V191H231.353ZM237.791 191.18C236.651 191.18 235.406 190.775 234.476 190.025L235.181 188.96C236.006 189.56 236.891 189.905 237.806 189.905C238.676 189.905 239.276 189.5 239.276 188.9C239.276 188.18 238.481 187.955 237.521 187.685C235.736 187.19 234.851 186.68 234.851 185.42C234.836 183.995 236.021 183.065 237.671 183.065C238.676 183.065 239.696 183.41 240.536 183.965L239.876 185.06C239.126 184.595 238.346 184.34 237.671 184.34C236.906 184.34 236.306 184.67 236.306 185.255C236.306 185.855 236.786 186.035 238.091 186.44C239.366 186.815 240.731 187.235 240.731 188.78C240.731 190.25 239.486 191.18 237.791 191.18ZM250.004 183.065C252.089 183.065 253.244 184.385 253.244 186.305V191H251.789V189.935C251.219 190.745 250.154 191.18 249.209 191.18C247.559 191.18 246.344 190.22 246.344 188.705C246.344 187.16 247.739 186.125 249.449 186.125C250.214 186.125 251.039 186.29 251.789 186.545V186.305C251.789 185.33 251.339 184.295 249.794 184.295C249.029 184.295 248.279 184.595 247.604 184.94L247.064 183.845C248.174 183.29 249.149 183.065 250.004 183.065ZM249.494 190.01C250.454 190.01 251.534 189.53 251.789 188.57V187.535C251.159 187.34 250.439 187.235 249.674 187.235C248.639 187.235 247.769 187.82 247.769 188.66C247.769 189.5 248.519 190.01 249.494 190.01ZM257.972 191L254.642 183.245H256.247L258.662 189.275L261.032 183.245H262.637L259.367 191H257.972ZM266.732 183.065C268.817 183.065 269.972 184.385 269.972 186.305V191H268.517V189.935C267.947 190.745 266.882 191.18 265.937 191.18C264.287 191.18 263.072 190.22 263.072 188.705C263.072 187.16 264.467 186.125 266.177 186.125C266.942 186.125 267.767 186.29 268.517 186.545V186.305C268.517 185.33 268.067 184.295 266.522 184.295C265.757 184.295 265.007 184.595 264.332 184.94L263.792 183.845C264.902 183.29 265.877 183.065 266.732 183.065ZM266.222 190.01C267.182 190.01 268.262 189.53 268.517 188.57V187.535C267.887 187.34 267.167 187.235 266.402 187.235C265.367 187.235 264.497 187.82 264.497 188.66C264.497 189.5 265.247 190.01 266.222 190.01ZM272.855 181.955C272.345 181.955 271.955 181.535 271.955 181.055C271.955 180.59 272.345 180.17 272.855 180.17C273.335 180.17 273.74 180.59 273.74 181.055C273.74 181.535 273.335 181.955 272.855 181.955ZM272.105 191V183.245H273.59V191H272.105ZM275.738 191V180.515H277.208V191H275.738ZM282.626 183.065C284.711 183.065 285.866 184.385 285.866 186.305V191H284.411V189.935C283.841 190.745 282.776 191.18 281.831 191.18C280.181 191.18 278.966 190.22 278.966 188.705C278.966 187.16 280.361 186.125 282.071 186.125C282.836 186.125 283.661 186.29 284.411 186.545V186.305C284.411 185.33 283.961 184.295 282.416 184.295C281.651 184.295 280.901 184.595 280.226 184.94L279.686 183.845C280.796 183.29 281.771 183.065 282.626 183.065ZM282.116 190.01C283.076 190.01 284.156 189.53 284.411 188.57V187.535C283.781 187.34 283.061 187.235 282.296 187.235C281.261 187.235 280.391 187.82 280.391 188.66C280.391 189.5 281.141 190.01 282.116 190.01ZM292.319 183.065C294.359 183.065 295.889 184.745 295.889 187.115C295.889 189.5 294.359 191.18 292.319 191.18C291.119 191.18 290.159 190.61 289.559 189.65V191H288.089V180.515H289.559V184.58C290.159 183.635 291.119 183.065 292.319 183.065ZM291.959 189.89C293.384 189.89 294.389 188.735 294.389 187.115C294.389 185.495 293.384 184.355 291.959 184.355C290.564 184.355 289.559 185.495 289.559 187.115C289.559 188.735 290.564 189.89 291.959 189.89ZM297.682 191V180.515H299.152V191H297.682ZM304.869 189.86C305.679 189.86 306.624 189.5 307.089 189.02L308.019 189.98C307.329 190.715 305.979 191.18 304.884 191.18C302.724 191.18 300.894 189.485 300.894 187.1C300.894 184.775 302.619 183.065 304.764 183.065C307.134 183.065 308.499 184.865 308.499 187.64H302.394C302.589 188.93 303.534 189.86 304.869 189.86ZM304.824 184.385C303.624 184.385 302.649 185.195 302.409 186.455H307.059C306.894 185.255 306.159 184.385 304.824 184.385ZM316.553 182.39V183.245H318.383V184.505H316.553V191H315.098V184.505H313.928V183.245H315.098V182.315C315.098 181.07 315.938 180.2 317.138 180.2C317.693 180.2 318.263 180.41 318.683 180.755L318.143 181.745C317.978 181.58 317.678 181.46 317.348 181.46C316.913 181.46 316.553 181.85 316.553 182.39ZM323.593 191.18C321.373 191.18 319.498 189.32 319.498 187.115C319.498 184.91 321.373 183.065 323.593 183.065C325.798 183.065 327.658 184.91 327.658 187.115C327.658 189.32 325.798 191.18 323.593 191.18ZM323.593 189.89C324.988 189.89 326.173 188.63 326.173 187.115C326.173 185.615 324.988 184.355 323.593 184.355C322.168 184.355 320.983 185.615 320.983 187.115C320.983 188.63 322.168 189.89 323.593 189.89ZM330.955 184.73C331.45 183.71 332.5 183.065 333.835 183.065V184.355C332.23 184.355 331.09 185.24 330.955 186.59V191H329.47V183.245H330.955V184.73ZM99.24 214L98.34 211.9H92.97L92.07 214H90.39L94.815 203.695H96.495L100.92 214H99.24ZM93.555 210.535H97.755L95.655 205.645L93.555 210.535ZM105.194 214.18C104.054 214.18 102.809 213.775 101.879 213.025L102.584 211.96C103.409 212.56 104.294 212.905 105.209 212.905C106.079 212.905 106.679 212.5 106.679 211.9C106.679 211.18 105.884 210.955 104.924 210.685C103.139 210.19 102.254 209.68 102.254 208.42C102.239 206.995 103.424 206.065 105.074 206.065C106.079 206.065 107.099 206.41 107.939 206.965L107.279 208.06C106.529 207.595 105.749 207.34 105.074 207.34C104.309 207.34 103.709 207.67 103.709 208.255C103.709 208.855 104.189 209.035 105.494 209.44C106.769 209.815 108.134 210.235 108.134 211.78C108.134 213.25 106.889 214.18 105.194 214.18ZM112.664 214.18C111.524 214.18 110.279 213.775 109.349 213.025L110.054 211.96C110.879 212.56 111.764 212.905 112.679 212.905C113.549 212.905 114.149 212.5 114.149 211.9C114.149 211.18 113.354 210.955 112.394 210.685C110.609 210.19 109.724 209.68 109.724 208.42C109.709 206.995 110.894 206.065 112.544 206.065C113.549 206.065 114.569 206.41 115.409 206.965L114.749 208.06C113.999 207.595 113.219 207.34 112.544 207.34C111.779 207.34 111.179 207.67 111.179 208.255C111.179 208.855 111.659 209.035 112.964 209.44C114.239 209.815 115.604 210.235 115.604 211.78C115.604 213.25 114.359 214.18 112.664 214.18ZM121.005 214.18C118.785 214.18 116.91 212.32 116.91 210.115C116.91 207.91 118.785 206.065 121.005 206.065C123.21 206.065 125.07 207.91 125.07 210.115C125.07 212.32 123.21 214.18 121.005 214.18ZM121.005 212.89C122.4 212.89 123.585 211.63 123.585 210.115C123.585 208.615 122.4 207.355 121.005 207.355C119.58 207.355 118.395 208.615 118.395 210.115C118.395 211.63 119.58 212.89 121.005 212.89ZM130.468 214.18C128.263 214.18 126.388 212.32 126.388 210.115C126.388 207.91 128.263 206.065 130.483 206.065C131.593 206.065 132.598 206.53 133.333 207.265L132.328 208.195C131.863 207.67 131.188 207.355 130.468 207.355C129.058 207.355 127.888 208.615 127.888 210.115C127.888 211.63 129.058 212.89 130.483 212.89C131.203 212.89 131.893 212.56 132.373 212.02L133.378 212.935C132.628 213.7 131.623 214.18 130.468 214.18ZM135.702 204.955C135.192 204.955 134.802 204.535 134.802 204.055C134.802 203.59 135.192 203.17 135.702 203.17C136.182 203.17 136.587 203.59 136.587 204.055C136.587 204.535 136.182 204.955 135.702 204.955ZM134.952 214V206.245H136.437V214H134.952ZM141.84 206.065C143.925 206.065 145.08 207.385 145.08 209.305V214H143.625V212.935C143.055 213.745 141.99 214.18 141.045 214.18C139.395 214.18 138.18 213.22 138.18 211.705C138.18 210.16 139.575 209.125 141.285 209.125C142.05 209.125 142.875 209.29 143.625 209.545V209.305C143.625 208.33 143.175 207.295 141.63 207.295C140.865 207.295 140.115 207.595 139.44 207.94L138.9 206.845C140.01 206.29 140.985 206.065 141.84 206.065ZM141.33 213.01C142.29 213.01 143.37 212.53 143.625 211.57V210.535C142.995 210.34 142.275 210.235 141.51 210.235C140.475 210.235 139.605 210.82 139.605 211.66C139.605 212.5 140.355 213.01 141.33 213.01ZM150.857 212.605L151.397 213.625C150.977 213.97 150.407 214.18 149.852 214.18C148.652 214.18 147.812 213.31 147.812 212.065V207.505H146.642V206.245H147.812V204.115H149.267V206.245H151.097V207.505H149.267V211.96C149.267 212.5 149.627 212.89 150.062 212.89C150.392 212.89 150.692 212.77 150.857 212.605ZM156.466 212.86C157.276 212.86 158.221 212.5 158.686 212.02L159.616 212.98C158.926 213.715 157.576 214.18 156.481 214.18C154.321 214.18 152.491 212.485 152.491 210.1C152.491 207.775 154.216 206.065 156.361 206.065C158.731 206.065 160.096 207.865 160.096 210.64H153.991C154.186 211.93 155.131 212.86 156.466 212.86ZM156.421 207.385C155.221 207.385 154.246 208.195 154.006 209.455H158.656C158.491 208.255 157.756 207.385 156.421 207.385ZM166.334 214V203.695H167.849L171.464 210.43L175.079 203.695H176.594V214H175.079V206.665L171.464 213.4L167.849 206.665V214H166.334ZM182.54 212.86C183.35 212.86 184.295 212.5 184.76 212.02L185.69 212.98C185 213.715 183.65 214.18 182.555 214.18C180.395 214.18 178.565 212.485 178.565 210.1C178.565 207.775 180.29 206.065 182.435 206.065C184.805 206.065 186.17 207.865 186.17 210.64H180.065C180.26 211.93 181.205 212.86 182.54 212.86ZM182.495 207.385C181.295 207.385 180.32 208.195 180.08 209.455H184.73C184.565 208.255 183.83 207.385 182.495 207.385ZM196.562 206.065C198.182 206.065 199.352 207.31 199.352 209.065V214H197.897V209.29C197.897 208.15 197.222 207.355 196.247 207.355C195.137 207.355 194.357 208.09 194.357 209.155V214H192.902V209.29C192.902 208.15 192.227 207.355 191.252 207.355C190.142 207.355 189.362 208.09 189.362 209.155V214H187.877V206.245H189.362V207.325C189.752 206.56 190.562 206.065 191.552 206.065C192.677 206.065 193.592 206.665 194.042 207.625C194.402 206.665 195.392 206.065 196.562 206.065ZM205.79 206.065C207.83 206.065 209.36 207.745 209.36 210.115C209.36 212.5 207.83 214.18 205.79 214.18C204.59 214.18 203.63 213.61 203.03 212.65V214H201.56V203.515H203.03V207.58C203.63 206.635 204.59 206.065 205.79 206.065ZM205.43 212.89C206.855 212.89 207.86 211.735 207.86 210.115C207.86 208.495 206.855 207.355 205.43 207.355C204.035 207.355 203.03 208.495 203.03 210.115C203.03 211.735 204.035 212.89 205.43 212.89ZM214.708 212.86C215.518 212.86 216.463 212.5 216.928 212.02L217.858 212.98C217.168 213.715 215.818 214.18 214.723 214.18C212.563 214.18 210.733 212.485 210.733 210.1C210.733 207.775 212.458 206.065 214.603 206.065C216.973 206.065 218.338 207.865 218.338 210.64H212.233C212.428 211.93 213.373 212.86 214.708 212.86ZM214.663 207.385C213.463 207.385 212.488 208.195 212.248 209.455H216.898C216.733 208.255 215.998 207.385 214.663 207.385ZM221.619 207.73C222.114 206.71 223.164 206.065 224.499 206.065V207.355C222.894 207.355 221.754 208.24 221.619 209.59V214H220.134V206.245H221.619V207.73ZM228.753 214.18C227.613 214.18 226.368 213.775 225.438 213.025L226.143 211.96C226.968 212.56 227.853 212.905 228.768 212.905C229.638 212.905 230.238 212.5 230.238 211.9C230.238 211.18 229.443 210.955 228.483 210.685C226.698 210.19 225.813 209.68 225.813 208.42C225.798 206.995 226.983 206.065 228.633 206.065C229.638 206.065 230.658 206.41 231.498 206.965L230.838 208.06C230.088 207.595 229.308 207.34 228.633 207.34C227.868 207.34 227.268 207.67 227.268 208.255C227.268 208.855 227.748 209.035 229.053 209.44C230.328 209.815 231.693 210.235 231.693 211.78C231.693 213.25 230.448 214.18 228.753 214.18ZM234.349 214.18C233.779 214.18 233.344 213.715 233.344 213.16C233.344 212.65 233.779 212.185 234.349 212.185C234.889 212.185 235.324 212.65 235.324 213.16C235.324 213.715 234.889 214.18 234.349 214.18ZM245.416 214.165C243.691 214.165 242.266 213.565 241.171 212.515L242.086 211.39C243.001 212.26 244.081 212.83 245.476 212.83C246.901 212.83 247.636 212.08 247.636 211.255C247.636 210.28 246.781 209.905 245.056 209.515C242.956 209.02 241.561 208.39 241.561 206.53C241.561 204.805 243.061 203.5 245.131 203.5C246.721 203.5 247.906 204.085 248.896 204.955L248.026 206.095C247.156 205.3 246.121 204.835 245.071 204.835C243.916 204.835 243.106 205.57 243.106 206.395C243.106 207.355 243.991 207.685 245.686 208.09C247.741 208.57 249.166 209.26 249.166 211.105C249.166 212.845 247.846 214.165 245.416 214.165ZM256.322 206.245H257.807V214H256.322V212.875C255.857 213.64 254.912 214.18 253.862 214.18C252.152 214.18 250.952 212.935 250.952 211.18V206.245H252.407V210.925C252.407 212.08 253.142 212.89 254.192 212.89C255.272 212.89 256.202 212.185 256.322 211.27V206.245ZM264.267 206.065C266.307 206.065 267.837 207.745 267.837 210.115C267.837 212.5 266.307 214.18 264.267 214.18C263.067 214.18 262.107 213.61 261.507 212.65V214H260.037V203.515H261.507V207.58C262.107 206.635 263.067 206.065 264.267 206.065ZM263.907 212.89C265.332 212.89 266.337 211.735 266.337 210.115C266.337 208.495 265.332 207.355 263.907 207.355C262.512 207.355 261.507 208.495 261.507 210.115C261.507 211.735 262.512 212.89 263.907 212.89ZM278.3 206.065C279.92 206.065 281.09 207.31 281.09 209.065V214H279.635V209.29C279.635 208.15 278.96 207.355 277.985 207.355C276.875 207.355 276.095 208.09 276.095 209.155V214H274.64V209.29C274.64 208.15 273.965 207.355 272.99 207.355C271.88 207.355 271.1 208.09 271.1 209.155V214H269.615V206.245H271.1V207.325C271.49 206.56 272.3 206.065 273.29 206.065C274.415 206.065 275.33 206.665 275.78 207.625C276.14 206.665 277.13 206.065 278.3 206.065ZM283.959 204.955C283.449 204.955 283.059 204.535 283.059 204.055C283.059 203.59 283.449 203.17 283.959 203.17C284.439 203.17 284.844 203.59 284.844 204.055C284.844 204.535 284.439 204.955 283.959 204.955ZM283.209 214V206.245H284.694V214H283.209ZM290.472 212.605L291.012 213.625C290.592 213.97 290.022 214.18 289.467 214.18C288.267 214.18 287.427 213.31 287.427 212.065V207.505H286.257V206.245H287.427V204.115H288.882V206.245H290.712V207.505H288.882V211.96C288.882 212.5 289.242 212.89 289.677 212.89C290.007 212.89 290.307 212.77 290.472 212.605ZM298.182 216.7C297.657 216.7 297.117 216.58 296.712 216.37L297.042 215.23C297.342 215.395 297.687 215.47 297.987 215.47C298.467 215.47 298.797 215.32 299.052 214.87L299.442 214.045L296.112 206.245H297.702L300.192 212.365L302.547 206.245H304.092L300.672 214.705C300.117 216.1 299.292 216.685 298.182 216.7ZM309.091 214.18C306.871 214.18 304.996 212.32 304.996 210.115C304.996 207.91 306.871 206.065 309.091 206.065C311.296 206.065 313.156 207.91 313.156 210.115C313.156 212.32 311.296 214.18 309.091 214.18ZM309.091 212.89C310.486 212.89 311.671 211.63 311.671 210.115C311.671 208.615 310.486 207.355 309.091 207.355C307.666 207.355 306.481 208.615 306.481 210.115C306.481 211.63 307.666 212.89 309.091 212.89ZM320.233 206.245H321.718V214H320.233V212.875C319.768 213.64 318.823 214.18 317.773 214.18C316.063 214.18 314.863 212.935 314.863 211.18V206.245H316.318V210.925C316.318 212.08 317.053 212.89 318.103 212.89C319.183 212.89 320.113 212.185 320.233 211.27V206.245ZM325.433 207.73C325.928 206.71 326.978 206.065 328.313 206.065V207.355C326.708 207.355 325.568 208.24 325.433 209.59V214H323.948V206.245H325.433V207.73ZM91.815 227.955C91.305 227.955 90.915 227.535 90.915 227.055C90.915 226.59 91.305 226.17 91.815 226.17C92.295 226.17 92.7 226.59 92.7 227.055C92.7 227.535 92.295 227.955 91.815 227.955ZM91.065 237V229.245H92.55V237H91.065ZM98.6432 229.065C100.353 229.065 101.553 230.31 101.553 232.065V237H100.098V232.32C100.098 231.165 99.3632 230.355 98.3132 230.355C97.2332 230.355 96.3032 231.06 96.1832 231.975V237H94.6982V229.245H96.1832V230.37C96.6482 229.605 97.5932 229.065 98.6432 229.065ZM107.308 235.605L107.848 236.625C107.428 236.97 106.858 237.18 106.303 237.18C105.103 237.18 104.263 236.31 104.263 235.065V230.505H103.093V229.245H104.263V227.115H105.718V229.245H107.548V230.505H105.718V234.96C105.718 235.5 106.078 235.89 106.513 235.89C106.843 235.89 107.143 235.77 107.308 235.605ZM112.916 235.86C113.726 235.86 114.671 235.5 115.136 235.02L116.066 235.98C115.376 236.715 114.026 237.18 112.931 237.18C110.771 237.18 108.941 235.485 108.941 233.1C108.941 230.775 110.666 229.065 112.811 229.065C115.181 229.065 116.546 230.865 116.546 233.64H110.441C110.636 234.93 111.581 235.86 112.916 235.86ZM112.871 230.385C111.671 230.385 110.696 231.195 110.456 232.455H115.106C114.941 231.255 114.206 230.385 112.871 230.385ZM119.828 230.73C120.323 229.71 121.373 229.065 122.708 229.065V230.355C121.103 230.355 119.963 231.24 119.828 232.59V237H118.343V229.245H119.828V230.73ZM127.711 235.86C128.521 235.86 129.466 235.5 129.931 235.02L130.861 235.98C130.171 236.715 128.821 237.18 127.726 237.18C125.566 237.18 123.736 235.485 123.736 233.1C123.736 230.775 125.461 229.065 127.606 229.065C129.976 229.065 131.341 230.865 131.341 233.64H125.236C125.431 234.93 126.376 235.86 127.711 235.86ZM127.666 230.385C126.466 230.385 125.491 231.195 125.251 232.455H129.901C129.736 231.255 129.001 230.385 127.666 230.385ZM135.867 237.18C134.727 237.18 133.482 236.775 132.552 236.025L133.257 234.96C134.082 235.56 134.967 235.905 135.882 235.905C136.752 235.905 137.352 235.5 137.352 234.9C137.352 234.18 136.557 233.955 135.597 233.685C133.812 233.19 132.927 232.68 132.927 231.42C132.912 229.995 134.097 229.065 135.747 229.065C136.752 229.065 137.772 229.41 138.612 229.965L137.952 231.06C137.202 230.595 136.422 230.34 135.747 230.34C134.982 230.34 134.382 230.67 134.382 231.255C134.382 231.855 134.862 232.035 136.167 232.44C137.442 232.815 138.807 233.235 138.807 234.78C138.807 236.25 137.562 237.18 135.867 237.18ZM144.163 235.605L144.703 236.625C144.283 236.97 143.713 237.18 143.158 237.18C141.958 237.18 141.118 236.31 141.118 235.065V230.505H139.948V229.245H141.118V227.115H142.573V229.245H144.403V230.505H142.573V234.96C142.573 235.5 142.933 235.89 143.368 235.89C143.698 235.89 143.998 235.77 144.163 235.605ZM154.814 229.065C156.854 229.065 158.384 230.745 158.384 233.115C158.384 235.5 156.854 237.18 154.814 237.18C153.614 237.18 152.654 236.61 152.054 235.65V237H150.584V226.515H152.054V230.58C152.654 229.635 153.614 229.065 154.814 229.065ZM154.454 235.89C155.879 235.89 156.884 234.735 156.884 233.115C156.884 231.495 155.879 230.355 154.454 230.355C153.059 230.355 152.054 231.495 152.054 233.115C152.054 234.735 153.059 235.89 154.454 235.89ZM163.732 235.86C164.542 235.86 165.487 235.5 165.952 235.02L166.882 235.98C166.192 236.715 164.842 237.18 163.747 237.18C161.587 237.18 159.757 235.485 159.757 233.1C159.757 230.775 161.482 229.065 163.627 229.065C165.997 229.065 167.362 230.865 167.362 233.64H161.257C161.452 234.93 162.397 235.86 163.732 235.86ZM163.687 230.385C162.487 230.385 161.512 231.195 161.272 232.455H165.922C165.757 231.255 165.022 230.385 163.687 230.385ZM171.123 228.39V229.245H172.953V230.505H171.123V237H169.668V230.505H168.498V229.245H169.668V228.315C169.668 227.07 170.508 226.2 171.708 226.2C172.263 226.2 172.833 226.41 173.253 226.755L172.713 227.745C172.548 227.58 172.248 227.46 171.918 227.46C171.483 227.46 171.123 227.85 171.123 228.39ZM178.163 237.18C175.943 237.18 174.068 235.32 174.068 233.115C174.068 230.91 175.943 229.065 178.163 229.065C180.368 229.065 182.228 230.91 182.228 233.115C182.228 235.32 180.368 237.18 178.163 237.18ZM178.163 235.89C179.558 235.89 180.743 234.63 180.743 233.115C180.743 231.615 179.558 230.355 178.163 230.355C176.738 230.355 175.553 231.615 175.553 233.115C175.553 234.63 176.738 235.89 178.163 235.89ZM185.526 230.73C186.021 229.71 187.071 229.065 188.406 229.065V230.355C186.801 230.355 185.661 231.24 185.526 232.59V237H184.041V229.245H185.526V230.73ZM193.409 235.86C194.219 235.86 195.164 235.5 195.629 235.02L196.559 235.98C195.869 236.715 194.519 237.18 193.424 237.18C191.264 237.18 189.434 235.485 189.434 233.1C189.434 230.775 191.159 229.065 193.304 229.065C195.674 229.065 197.039 230.865 197.039 233.64H190.934C191.129 234.93 192.074 235.86 193.409 235.86ZM193.364 230.385C192.164 230.385 191.189 231.195 190.949 232.455H195.599C195.434 231.255 194.699 230.385 193.364 230.385ZM206.683 235.605L207.223 236.625C206.803 236.97 206.233 237.18 205.678 237.18C204.478 237.18 203.638 236.31 203.638 235.065V230.505H202.468V229.245H203.638V227.115H205.093V229.245H206.923V230.505H205.093V234.96C205.093 235.5 205.453 235.89 205.888 235.89C206.218 235.89 206.518 235.77 206.683 235.605ZM212.681 229.065C214.391 229.065 215.591 230.31 215.591 232.065V237H214.136V232.32C214.136 231.165 213.401 230.355 212.351 230.355C211.181 230.355 210.206 231.18 210.206 232.185V237H208.736V226.515H210.206V230.4C210.671 229.62 211.616 229.065 212.681 229.065ZM221.271 235.86C222.081 235.86 223.026 235.5 223.491 235.02L224.421 235.98C223.731 236.715 222.381 237.18 221.286 237.18C219.126 237.18 217.296 235.485 217.296 233.1C217.296 230.775 219.021 229.065 221.166 229.065C223.536 229.065 224.901 230.865 224.901 233.64H218.796C218.991 234.93 219.936 235.86 221.271 235.86ZM221.226 230.385C220.026 230.385 219.051 231.195 218.811 232.455H223.461C223.296 231.255 222.561 230.385 221.226 230.385ZM236.884 226.515H238.354V237H236.884V235.65C236.284 236.61 235.324 237.18 234.124 237.18C232.084 237.18 230.554 235.5 230.554 233.115C230.554 230.745 232.084 229.065 234.124 229.065C235.324 229.065 236.284 229.635 236.884 230.58V226.515ZM234.484 235.89C235.879 235.89 236.884 234.735 236.884 233.115C236.884 231.495 235.879 230.355 234.484 230.355C233.059 230.355 232.054 231.495 232.054 233.115C232.054 234.735 233.059 235.89 234.484 235.89ZM244.137 235.86C244.947 235.86 245.892 235.5 246.357 235.02L247.287 235.98C246.597 236.715 245.247 237.18 244.152 237.18C241.992 237.18 240.162 235.485 240.162 233.1C240.162 230.775 241.887 229.065 244.032 229.065C246.402 229.065 247.767 230.865 247.767 233.64H241.662C241.857 234.93 242.802 235.86 244.137 235.86ZM244.092 230.385C242.892 230.385 241.917 231.195 241.677 232.455H246.327C246.162 231.255 245.427 230.385 244.092 230.385ZM252.743 229.065C254.828 229.065 255.983 230.385 255.983 232.305V237H254.528V235.935C253.958 236.745 252.893 237.18 251.948 237.18C250.298 237.18 249.083 236.22 249.083 234.705C249.083 233.16 250.478 232.125 252.188 232.125C252.953 232.125 253.778 232.29 254.528 232.545V232.305C254.528 231.33 254.078 230.295 252.533 230.295C251.768 230.295 251.018 230.595 250.343 230.94L249.803 229.845C250.913 229.29 251.888 229.065 252.743 229.065ZM252.233 236.01C253.193 236.01 254.273 235.53 254.528 234.57V233.535C253.898 233.34 253.178 233.235 252.413 233.235C251.378 233.235 250.508 233.82 250.508 234.66C250.508 235.5 251.258 236.01 252.233 236.01ZM264.101 226.515H265.571V237H264.101V235.65C263.501 236.61 262.541 237.18 261.341 237.18C259.301 237.18 257.771 235.5 257.771 233.115C257.771 230.745 259.301 229.065 261.341 229.065C262.541 229.065 263.501 229.635 264.101 230.58V226.515ZM261.701 235.89C263.096 235.89 264.101 234.735 264.101 233.115C264.101 231.495 263.096 230.355 261.701 230.355C260.276 230.355 259.271 231.495 259.271 233.115C259.271 234.735 260.276 235.89 261.701 235.89ZM267.799 237V226.515H269.269V237H267.799ZM272.167 227.955C271.657 227.955 271.267 227.535 271.267 227.055C271.267 226.59 271.657 226.17 272.167 226.17C272.647 226.17 273.052 226.59 273.052 227.055C273.052 227.535 272.647 227.955 272.167 227.955ZM271.417 237V229.245H272.902V237H271.417ZM278.995 229.065C280.705 229.065 281.905 230.31 281.905 232.065V237H280.45V232.32C280.45 231.165 279.715 230.355 278.665 230.355C277.585 230.355 276.655 231.06 276.535 231.975V237H275.05V229.245H276.535V230.37C277 229.605 277.945 229.065 278.995 229.065ZM287.584 235.86C288.394 235.86 289.339 235.5 289.804 235.02L290.734 235.98C290.044 236.715 288.694 237.18 287.599 237.18C285.439 237.18 283.609 235.485 283.609 233.1C283.609 230.775 285.334 229.065 287.479 229.065C289.849 229.065 291.214 230.865 291.214 233.64H285.109C285.304 234.93 286.249 235.86 287.584 235.86ZM287.539 230.385C286.339 230.385 285.364 231.195 285.124 232.455H289.774C289.609 231.255 288.874 230.385 287.539 230.385ZM293.865 237.18C293.295 237.18 292.86 236.715 292.86 236.16C292.86 235.65 293.295 235.185 293.865 235.185C294.405 235.185 294.84 235.65 294.84 236.16C294.84 236.715 294.405 237.18 293.865 237.18Z" fill="#172840"/>
<path d="M98.008 278.069H99.464L95.629 287H94.173L90.338 278.069H91.794L94.901 285.31L98.008 278.069ZM101.374 279.161C100.932 279.161 100.594 278.797 100.594 278.381C100.594 277.978 100.932 277.614 101.374 277.614C101.79 277.614 102.141 277.978 102.141 278.381C102.141 278.797 101.79 279.161 101.374 279.161ZM100.724 287V280.279H102.011V287H100.724ZM106.954 286.012C107.656 286.012 108.475 285.7 108.878 285.284L109.684 286.116C109.086 286.753 107.916 287.156 106.967 287.156C105.095 287.156 103.509 285.687 103.509 283.62C103.509 281.605 105.004 280.123 106.863 280.123C108.917 280.123 110.1 281.683 110.1 284.088H104.809C104.978 285.206 105.797 286.012 106.954 286.012ZM106.915 281.267C105.875 281.267 105.03 281.969 104.822 283.061H108.852C108.709 282.021 108.072 281.267 106.915 281.267ZM112.964 287L110.702 280.279H112.015L113.562 285.284L115.226 280.279H116.318L117.982 285.284L119.516 280.279H120.829L118.567 287H117.384L115.772 282.008L114.147 287H112.964ZM128.37 287V279.291H125.445V278.069H132.621V279.291H129.683V287H128.37ZM137.156 286.012C137.858 286.012 138.677 285.7 139.08 285.284L139.886 286.116C139.288 286.753 138.118 287.156 137.169 287.156C135.297 287.156 133.711 285.687 133.711 283.62C133.711 281.605 135.206 280.123 137.065 280.123C139.119 280.123 140.302 281.683 140.302 284.088H135.011C135.18 285.206 135.999 286.012 137.156 286.012ZM137.117 281.267C136.077 281.267 135.232 281.969 135.024 283.061H139.054C138.911 282.021 138.274 281.267 137.117 281.267ZM145.212 280.123C146.694 280.123 147.734 281.202 147.734 282.723V287H146.473V282.944C146.473 281.943 145.836 281.241 144.926 281.241C143.99 281.241 143.184 281.852 143.08 282.645V287H141.793V280.279H143.08V281.254C143.483 280.591 144.302 280.123 145.212 280.123ZM154.75 277.913H156.024V287H154.75V285.83C154.23 286.662 153.398 287.156 152.358 287.156C150.59 287.156 149.264 285.7 149.264 283.633C149.264 281.579 150.59 280.123 152.358 280.123C153.398 280.123 154.23 280.617 154.75 281.436V277.913ZM152.67 286.038C153.879 286.038 154.75 285.037 154.75 283.633C154.75 282.229 153.879 281.241 152.67 281.241C151.435 281.241 150.564 282.229 150.564 283.633C150.564 285.037 151.435 286.038 152.67 286.038ZM161.036 286.012C161.738 286.012 162.557 285.7 162.96 285.284L163.766 286.116C163.168 286.753 161.998 287.156 161.049 287.156C159.177 287.156 157.591 285.687 157.591 283.62C157.591 281.605 159.086 280.123 160.945 280.123C162.999 280.123 164.182 281.683 164.182 284.088H158.891C159.06 285.206 159.879 286.012 161.036 286.012ZM160.997 281.267C159.957 281.267 159.112 281.969 158.904 283.061H162.934C162.791 282.021 162.154 281.267 160.997 281.267ZM167.025 281.566C167.454 280.682 168.364 280.123 169.521 280.123V281.241C168.13 281.241 167.142 282.008 167.025 283.178V287H165.738V280.279H167.025V281.566ZM174.692 287V278.069H177.773C180.659 278.069 182.713 279.915 182.713 282.528C182.713 285.141 180.659 287 177.773 287H174.692ZM176.005 285.804H177.851C179.918 285.804 181.361 284.452 181.361 282.528C181.361 280.617 179.918 279.265 177.851 279.265H176.005V285.804ZM187.48 286.012C188.182 286.012 189.001 285.7 189.404 285.284L190.21 286.116C189.612 286.753 188.442 287.156 187.493 287.156C185.621 287.156 184.035 285.687 184.035 283.62C184.035 281.605 185.53 280.123 187.389 280.123C189.443 280.123 190.626 281.683 190.626 284.088H185.335C185.504 285.206 186.323 286.012 187.48 286.012ZM187.441 281.267C186.401 281.267 185.556 281.969 185.348 283.061H189.378C189.235 282.021 188.598 281.267 187.441 281.267ZM195.264 285.791L195.732 286.675C195.368 286.974 194.874 287.156 194.393 287.156C193.353 287.156 192.625 286.402 192.625 285.323V281.371H191.611V280.279H192.625V278.433H193.886V280.279H195.472V281.371H193.886V285.232C193.886 285.7 194.198 286.038 194.575 286.038C194.861 286.038 195.121 285.934 195.264 285.791ZM199.864 280.123C201.671 280.123 202.672 281.267 202.672 282.931V287H201.411V286.077C200.917 286.779 199.994 287.156 199.175 287.156C197.745 287.156 196.692 286.324 196.692 285.011C196.692 283.672 197.901 282.775 199.383 282.775C200.046 282.775 200.761 282.918 201.411 283.139V282.931C201.411 282.086 201.021 281.189 199.682 281.189C199.019 281.189 198.369 281.449 197.784 281.748L197.316 280.799C198.278 280.318 199.123 280.123 199.864 280.123ZM199.422 286.142C200.254 286.142 201.19 285.726 201.411 284.894V283.997C200.865 283.828 200.241 283.737 199.578 283.737C198.681 283.737 197.927 284.244 197.927 284.972C197.927 285.7 198.577 286.142 199.422 286.142ZM205.171 279.161C204.729 279.161 204.391 278.797 204.391 278.381C204.391 277.978 204.729 277.614 205.171 277.614C205.587 277.614 205.938 277.978 205.938 278.381C205.938 278.797 205.587 279.161 205.171 279.161ZM204.521 287V280.279H205.808V287H204.521ZM207.669 287V277.913H208.943V287H207.669ZM213.249 287.156C212.261 287.156 211.182 286.805 210.376 286.155L210.987 285.232C211.702 285.752 212.469 286.051 213.262 286.051C214.016 286.051 214.536 285.7 214.536 285.18C214.536 284.556 213.847 284.361 213.015 284.127C211.468 283.698 210.701 283.256 210.701 282.164C210.688 280.929 211.715 280.123 213.145 280.123C214.016 280.123 214.9 280.422 215.628 280.903L215.056 281.852C214.406 281.449 213.73 281.228 213.145 281.228C212.482 281.228 211.962 281.514 211.962 282.021C211.962 282.541 212.378 282.697 213.509 283.048C214.614 283.373 215.797 283.737 215.797 285.076C215.797 286.35 214.718 287.156 213.249 287.156Z" fill="#172840"/>
<rect x="246" y="263" width="139" height="40" rx="8" fill="#F25849"/>
<path d="M272.04 279.291H266.801V281.839H271.533V283.061H266.801V285.778H272.04V287H265.475V278.069H272.04V279.291ZM279.604 287H278.161L276.328 284.53L274.482 287H273.052L275.613 283.568L273.156 280.279H274.612L276.328 282.593L278.057 280.279H279.487L277.043 283.555L279.604 287ZM284.605 280.123C286.373 280.123 287.699 281.579 287.699 283.633C287.699 285.7 286.373 287.156 284.605 287.156C283.565 287.156 282.733 286.662 282.213 285.83V289.236H280.939V280.279H282.213V281.436C282.733 280.617 283.565 280.123 284.605 280.123ZM284.293 286.038C285.528 286.038 286.399 285.037 286.399 283.633C286.399 282.229 285.528 281.241 284.293 281.241C283.084 281.241 282.213 282.229 282.213 283.633C282.213 285.037 283.084 286.038 284.293 286.038ZM290.604 281.566C291.033 280.682 291.943 280.123 293.1 280.123V281.241C291.709 281.241 290.721 282.008 290.604 283.178V287H289.317V280.279H290.604V281.566ZM297.437 286.012C298.139 286.012 298.958 285.7 299.361 285.284L300.167 286.116C299.569 286.753 298.399 287.156 297.45 287.156C295.578 287.156 293.992 285.687 293.992 283.62C293.992 281.605 295.487 280.123 297.346 280.123C299.4 280.123 300.583 281.683 300.583 284.088H295.292C295.461 285.206 296.28 286.012 297.437 286.012ZM297.398 281.267C296.358 281.267 295.513 281.969 295.305 283.061H299.335C299.192 282.021 298.555 281.267 297.398 281.267ZM304.506 287.156C303.518 287.156 302.439 286.805 301.633 286.155L302.244 285.232C302.959 285.752 303.726 286.051 304.519 286.051C305.273 286.051 305.793 285.7 305.793 285.18C305.793 284.556 305.104 284.361 304.272 284.127C302.725 283.698 301.958 283.256 301.958 282.164C301.945 280.929 302.972 280.123 304.402 280.123C305.273 280.123 306.157 280.422 306.885 280.903L306.313 281.852C305.663 281.449 304.987 281.228 304.402 281.228C303.739 281.228 303.219 281.514 303.219 282.021C303.219 282.541 303.635 282.697 304.766 283.048C305.871 283.373 307.054 283.737 307.054 285.076C307.054 286.35 305.975 287.156 304.506 287.156ZM310.98 287.156C309.992 287.156 308.913 286.805 308.107 286.155L308.718 285.232C309.433 285.752 310.2 286.051 310.993 286.051C311.747 286.051 312.267 285.7 312.267 285.18C312.267 284.556 311.578 284.361 310.746 284.127C309.199 283.698 308.432 283.256 308.432 282.164C308.419 280.929 309.446 280.123 310.876 280.123C311.747 280.123 312.631 280.422 313.359 280.903L312.787 281.852C312.137 281.449 311.461 281.228 310.876 281.228C310.213 281.228 309.693 281.514 309.693 282.021C309.693 282.541 310.109 282.697 311.24 283.048C312.345 283.373 313.528 283.737 313.528 285.076C313.528 286.35 312.449 287.156 310.98 287.156ZM318.796 287V278.069H320.109V287H318.796ZM325.451 280.123C326.933 280.123 327.973 281.202 327.973 282.723V287H326.712V282.944C326.712 281.943 326.075 281.241 325.165 281.241C324.229 281.241 323.423 281.852 323.319 282.645V287H322.032V280.279H323.319V281.254C323.722 280.591 324.541 280.123 325.451 280.123ZM332.96 285.791L333.428 286.675C333.064 286.974 332.57 287.156 332.089 287.156C331.049 287.156 330.321 286.402 330.321 285.323V281.371H329.307V280.279H330.321V278.433H331.582V280.279H333.168V281.371H331.582V285.232C331.582 285.7 331.894 286.038 332.271 286.038C332.557 286.038 332.817 285.934 332.96 285.791ZM337.821 286.012C338.523 286.012 339.342 285.7 339.745 285.284L340.551 286.116C339.953 286.753 338.783 287.156 337.834 287.156C335.962 287.156 334.376 285.687 334.376 283.62C334.376 281.605 335.871 280.123 337.73 280.123C339.784 280.123 340.967 281.683 340.967 284.088H335.676C335.845 285.206 336.664 286.012 337.821 286.012ZM337.782 281.267C336.742 281.267 335.897 281.969 335.689 283.061H339.719C339.576 282.021 338.939 281.267 337.782 281.267ZM343.81 281.566C344.239 280.682 345.149 280.123 346.306 280.123V281.241C344.915 281.241 343.927 282.008 343.81 283.178V287H342.523V280.279H343.81V281.566ZM350.643 286.012C351.345 286.012 352.164 285.7 352.567 285.284L353.373 286.116C352.775 286.753 351.605 287.156 350.656 287.156C348.784 287.156 347.198 285.687 347.198 283.62C347.198 281.605 348.693 280.123 350.552 280.123C352.606 280.123 353.789 281.683 353.789 284.088H348.498C348.667 285.206 349.486 286.012 350.643 286.012ZM350.604 281.267C349.564 281.267 348.719 281.969 348.511 283.061H352.541C352.398 282.021 351.761 281.267 350.604 281.267ZM357.712 287.156C356.724 287.156 355.645 286.805 354.839 286.155L355.45 285.232C356.165 285.752 356.932 286.051 357.725 286.051C358.479 286.051 358.999 285.7 358.999 285.18C358.999 284.556 358.31 284.361 357.478 284.127C355.931 283.698 355.164 283.256 355.164 282.164C355.151 280.929 356.178 280.123 357.608 280.123C358.479 280.123 359.363 280.422 360.091 280.903L359.519 281.852C358.869 281.449 358.193 281.228 357.608 281.228C356.945 281.228 356.425 281.514 356.425 282.021C356.425 282.541 356.841 282.697 357.972 283.048C359.077 283.373 360.26 283.737 360.26 285.076C360.26 286.35 359.181 287.156 357.712 287.156ZM364.901 285.791L365.369 286.675C365.005 286.974 364.511 287.156 364.03 287.156C362.99 287.156 362.262 286.402 362.262 285.323V281.371H361.248V280.279H362.262V278.433H363.523V280.279H365.109V281.371H363.523V285.232C363.523 285.7 363.835 286.038 364.212 286.038C364.498 286.038 364.758 285.934 364.901 285.791Z" fill="white"/>
<rect width="57" height="31" transform="translate(72 20)" fill="#F25849"/>
<path d="M83.798 38.606H89.954V41H81.134V28.634H83.798V38.606ZM91.7014 41V28.634H94.3654V41H91.7014ZM105.923 28.634H108.893L103.853 41H100.883L95.8434 28.634H98.8314L102.377 37.346L105.923 28.634ZM119.873 31.028H113.015V33.494H119.225V35.888H113.015V38.606H119.873V41H110.351V28.634H119.873V31.028Z" fill="white"/>
<path d="M107.657 83.3038C104.533 80.2308 99.468 80.2308 96.344 83.3038C95.6023 84.0284 95.0129 84.894 94.6105 85.8497C94.2081 86.8054 94.0009 87.8318 94.0009 88.8688C94.0009 89.9057 94.2081 90.9322 94.6105 91.8879C95.0129 92.8435 95.6023 93.7091 96.344 94.4338L102 99.9988L107.657 94.4338C108.399 93.7091 108.988 92.8435 109.391 91.8879C109.793 90.9322 110 89.9057 110 88.8688C110 87.8318 109.793 86.8054 109.391 85.8497C108.988 84.894 108.399 84.0284 107.657 83.3038ZM102 91.4988C101.332 91.4988 100.705 91.2388 100.232 90.7668C99.7638 90.2975 99.5008 89.6617 99.5008 88.9988C99.5008 88.3359 99.7638 87.7 100.232 87.2308C100.704 86.7588 101.332 86.4988 102 86.4988C102.668 86.4988 103.296 86.7588 103.768 87.2308C104.236 87.7 104.499 88.3359 104.499 88.9988C104.499 89.6617 104.236 90.2975 103.768 90.7668C103.296 91.2388 102.668 91.4988 102 91.4988Z" fill="black"/>
<path d="M132.773 87.028H125.915V89.494H132.125V91.888H125.915V94.606H132.773V97H123.251V84.634H132.773V87.028ZM139.607 94.696L140.237 96.406C139.697 96.892 138.851 97.216 138.095 97.216C136.457 97.216 135.305 96.046 135.305 94.372V89.818H134.027V87.694H135.305V85.138H137.825V87.694H139.841V89.818H137.825V93.958C137.825 94.57 138.221 95.002 138.707 95.002C139.067 95.002 139.427 94.876 139.607 94.696ZM147.264 87.478C149.28 87.478 150.72 88.972 150.72 91.078V97H148.182V91.636C148.182 90.484 147.462 89.692 146.418 89.692C145.32 89.692 144.474 90.484 144.474 91.492V97H141.846V84.418H144.474V88.828C145.05 88.018 146.076 87.478 147.264 87.478ZM154.253 86.416C153.443 86.416 152.813 85.768 152.813 84.976C152.813 84.238 153.443 83.572 154.253 83.572C155.027 83.572 155.657 84.238 155.657 84.976C155.657 85.768 155.027 86.416 154.253 86.416ZM152.921 97V87.694H155.549V97H152.921ZM162.415 97.216C159.643 97.216 157.321 94.984 157.321 92.338C157.321 89.692 159.643 87.478 162.415 87.478C165.169 87.478 167.473 89.692 167.473 92.338C167.473 94.984 165.169 97.216 162.415 97.216ZM162.415 95.002C163.801 95.002 164.971 93.778 164.971 92.338C164.971 90.898 163.801 89.692 162.415 89.692C161.011 89.692 159.841 90.898 159.841 92.338C159.841 93.778 161.011 95.002 162.415 95.002ZM174.994 87.478C177.478 87.478 179.278 89.494 179.278 92.338C179.278 95.2 177.478 97.216 174.994 97.216C173.698 97.216 172.618 96.658 171.88 95.686V100.096H169.252V87.694H171.88V88.99C172.618 88.036 173.698 87.478 174.994 87.478ZM174.238 95.002C175.696 95.002 176.722 93.904 176.722 92.338C176.722 90.79 175.696 89.692 174.238 89.692C172.96 89.692 172.024 90.628 171.88 91.978V92.698C172.024 94.066 172.96 95.002 174.238 95.002ZM182.448 86.416C181.638 86.416 181.008 85.768 181.008 84.976C181.008 84.238 181.638 83.572 182.448 83.572C183.222 83.572 183.852 84.238 183.852 84.976C183.852 85.768 183.222 86.416 182.448 86.416ZM181.116 97V87.694H183.744V97H181.116ZM190.197 87.478C192.627 87.478 194.283 89.008 194.283 91.438V97H191.745V96.064C191.079 96.82 190.017 97.216 189.009 97.216C187.029 97.216 185.499 96.028 185.499 94.246C185.499 92.41 187.209 91.15 189.369 91.15C190.125 91.15 190.953 91.312 191.745 91.618V91.438C191.745 90.448 191.133 89.584 189.603 89.584C188.739 89.584 187.929 89.872 187.191 90.25L186.309 88.504C187.623 87.838 188.901 87.478 190.197 87.478ZM189.603 95.398C190.611 95.398 191.565 94.93 191.745 94.066V93.202C191.151 92.986 190.467 92.86 189.747 92.86C188.793 92.86 188.037 93.418 188.037 94.174C188.037 94.93 188.703 95.398 189.603 95.398ZM202.155 98.332V83.626H203.973V98.332H202.155ZM212.111 97V84.634H216.539C220.697 84.634 223.649 87.19 223.649 90.808C223.649 94.426 220.697 97 216.539 97H212.111ZM214.757 94.588H216.881C219.239 94.588 220.913 93.022 220.913 90.808C220.913 88.612 219.239 87.046 216.881 87.046H214.757V94.588ZM226.939 86.416C226.129 86.416 225.499 85.768 225.499 84.976C225.499 84.238 226.129 83.572 226.939 83.572C227.713 83.572 228.343 84.238 228.343 84.976C228.343 85.768 227.713 86.416 226.939 86.416ZM225.607 97V87.694H228.235V97H225.607ZM237.261 87.694H239.907V96.01C239.907 98.404 237.837 100.096 234.903 100.096C233.265 100.096 231.717 99.574 230.799 98.854L231.717 97C232.329 97.54 233.409 97.882 234.489 97.882C236.181 97.882 237.261 97.108 237.261 95.902V94.876C236.523 95.776 235.407 96.316 234.183 96.316C231.843 96.316 230.061 94.48 230.061 91.888C230.061 89.296 231.843 87.478 234.183 87.478C235.443 87.478 236.631 88.072 237.261 88.954V87.694ZM235.011 94.102C236.325 94.102 237.261 93.184 237.261 91.888C237.261 90.592 236.325 89.692 235.011 89.692C233.697 89.692 232.761 90.592 232.761 91.888C232.761 93.184 233.697 94.102 235.011 94.102ZM243.532 86.416C242.722 86.416 242.092 85.768 242.092 84.976C242.092 84.238 242.722 83.572 243.532 83.572C244.306 83.572 244.936 84.238 244.936 84.976C244.936 85.768 244.306 86.416 243.532 86.416ZM242.2 97V87.694H244.828V97H242.2ZM252.019 94.696L252.649 96.406C252.109 96.892 251.263 97.216 250.507 97.216C248.869 97.216 247.717 96.046 247.717 94.372V89.818H246.439V87.694H247.717V85.138H250.237V87.694H252.253V89.818H250.237V93.958C250.237 94.57 250.633 95.002 251.119 95.002C251.479 95.002 251.839 94.876 252.019 94.696ZM258.453 87.478C260.883 87.478 262.539 89.008 262.539 91.438V97H260.001V96.064C259.335 96.82 258.273 97.216 257.265 97.216C255.285 97.216 253.755 96.028 253.755 94.246C253.755 92.41 255.465 91.15 257.625 91.15C258.381 91.15 259.209 91.312 260.001 91.618V91.438C260.001 90.448 259.389 89.584 257.859 89.584C256.995 89.584 256.185 89.872 255.447 90.25L254.565 88.504C255.879 87.838 257.157 87.478 258.453 87.478ZM257.859 95.398C258.867 95.398 259.821 94.93 260.001 94.066V93.202C259.407 92.986 258.723 92.86 258.003 92.86C257.049 92.86 256.293 93.418 256.293 94.174C256.293 94.93 256.959 95.398 257.859 95.398ZM264.754 97V84.418H267.382V97H264.754ZM274.883 97V84.634H277.529L281.363 91.618L285.179 84.634H287.843V97H285.179V89.296L281.363 96.28L277.529 89.296V97H274.883ZM294.47 87.478C296.9 87.478 298.556 89.008 298.556 91.438V97H296.018V96.064C295.352 96.82 294.29 97.216 293.282 97.216C291.302 97.216 289.772 96.028 289.772 94.246C289.772 92.41 291.482 91.15 293.642 91.15C294.398 91.15 295.226 91.312 296.018 91.618V91.438C296.018 90.448 295.406 89.584 293.876 89.584C293.012 89.584 292.202 89.872 291.464 90.25L290.582 88.504C291.896 87.838 293.174 87.478 294.47 87.478ZM293.876 95.398C294.884 95.398 295.838 94.93 296.018 94.066V93.202C295.424 92.986 294.74 92.86 294.02 92.86C293.066 92.86 292.31 93.418 292.31 94.174C292.31 94.93 292.976 95.398 293.876 95.398ZM303.399 89.422C304.011 88.216 305.163 87.478 306.585 87.478V89.692C304.641 89.692 303.399 90.808 303.399 92.554V97H300.771V87.694H303.399V89.422ZM317.155 87.694L313.537 91.816L317.119 97H314.095L311.791 93.508L310.675 94.714V97H308.047V84.418H310.675V91.708L314.131 87.694H317.155ZM322.776 94.894C323.514 94.894 324.414 94.552 324.918 94.066L326.592 95.776C325.764 96.64 324.162 97.216 322.794 97.216C320.022 97.216 317.862 95.182 317.862 92.32C317.862 89.512 319.932 87.478 322.65 87.478C325.566 87.478 327.276 89.692 327.276 93.202H320.562C320.868 94.21 321.678 94.894 322.776 94.894ZM322.758 89.8C321.768 89.8 320.94 90.376 320.598 91.312H324.756C324.504 90.394 323.82 89.8 322.758 89.8ZM333.95 94.696L334.58 96.406C334.04 96.892 333.194 97.216 332.438 97.216C330.8 97.216 329.648 96.046 329.648 94.372V89.818H328.37V87.694H329.648V85.138H332.168V87.694H334.184V89.818H332.168V93.958C332.168 94.57 332.564 95.002 333.05 95.002C333.41 95.002 333.77 94.876 333.95 94.696ZM337.54 86.416C336.73 86.416 336.1 85.768 336.1 84.976C336.1 84.238 336.73 83.572 337.54 83.572C338.314 83.572 338.944 84.238 338.944 84.976C338.944 85.768 338.314 86.416 337.54 86.416ZM336.208 97V87.694H338.836V97H336.208ZM346.513 87.478C348.529 87.478 349.969 88.972 349.969 91.078V97H347.431V91.636C347.431 90.484 346.711 89.692 345.667 89.692C344.569 89.692 343.723 90.484 343.723 91.492L343.705 91.438V97H341.077V87.694H343.705V88.864C344.263 88.018 345.307 87.478 346.513 87.478ZM358.919 87.694H361.565V96.01C361.565 98.404 359.495 100.096 356.561 100.096C354.923 100.096 353.375 99.574 352.457 98.854L353.375 97C353.987 97.54 355.067 97.882 356.147 97.882C357.839 97.882 358.919 97.108 358.919 95.902V94.876C358.181 95.776 357.065 96.316 355.841 96.316C353.501 96.316 351.719 94.48 351.719 91.888C351.719 89.296 353.501 87.478 355.841 87.478C357.101 87.478 358.289 88.072 358.919 88.954V87.694ZM356.669 94.102C357.983 94.102 358.919 93.184 358.919 91.888C358.919 90.592 357.983 89.692 356.669 89.692C355.355 89.692 354.419 90.592 354.419 91.888C354.419 93.184 355.355 94.102 356.669 94.102Z" fill="#172840"/>
<defs>
<filter id="filter0_d_1704_6043" x="0" y="0" width="441" height="383" filterUnits="userSpaceOnUse" color-interpolation-filters="sRGB">
<feFlood flood-opacity="0" result="BackgroundImageFix"/>
<feColorMatrix in="SourceAlpha" type="matrix" values="0 0 0 0 0 0 0 0 0 0 0 0 0 0 0 0 0 0 127 0" result="hardAlpha"/>
<feOffset dx="-20" dy="20"/>
<feGaussianBlur stdDeviation="20"/>
<feComposite in2="hardAlpha" operator="out"/>
<feColorMatrix type="matrix" values="0 0 0 0 0 0 0 0 0 0 0 0 0 0 0 0 0 0 0.25 0"/>
<feBlend mode="normal" in2="BackgroundImageFix" result="effect1_dropShadow_1704_6043"/>
<feBlend mode="normal" in="SourceGraphic" in2="effect1_dropShadow_1704_6043" result="shape"/>
</filter>
</defs>
</svg>
