<svg width="422" height="399" viewBox="0 0 422 399" fill="none" xmlns="http://www.w3.org/2000/svg">
<g filter="url(#filter0_d_1704_6042)">
<rect x="402" y="339" width="342" height="319" rx="12" transform="rotate(-180 402 339)" fill="white"/>
</g>
<rect x="86" y="45" width="265" height="43" rx="21.5" fill="#F2B706" fill-opacity="0.4"/>
<path d="M117.58 71L116.92 69.38H112.33L111.67 71H109.195L113.395 60.695H115.87L120.07 71H117.58ZM113.095 67.505H116.155L114.625 63.74L113.095 67.505ZM126.355 71.18C123.4 71.18 120.88 68.735 120.88 65.84C120.88 62.945 123.4 60.515 126.355 60.515C127.915 60.515 129.355 61.175 130.36 62.24L128.755 63.68C128.155 62.99 127.3 62.525 126.355 62.525C124.63 62.525 123.16 64.055 123.16 65.84C123.16 67.64 124.63 69.17 126.355 69.17C127.3 69.17 128.155 68.705 128.755 68.015L130.36 69.455C129.355 70.505 127.915 71.18 126.355 71.18ZM136.799 71.18C133.844 71.18 131.324 68.735 131.324 65.84C131.324 62.945 133.844 60.515 136.799 60.515C138.359 60.515 139.799 61.175 140.804 62.24L139.199 63.68C138.599 62.99 137.744 62.525 136.799 62.525C135.074 62.525 133.604 64.055 133.604 65.84C133.604 67.64 135.074 69.17 136.799 69.17C137.744 69.17 138.599 68.705 139.199 68.015L140.804 69.455C139.799 70.505 138.359 71.18 136.799 71.18ZM150.108 62.69H144.393V64.745H149.568V66.74H144.393V69.005H150.108V71H142.173V60.695H150.108V62.69ZM155.683 71.18C153.898 71.18 152.308 70.58 151.108 69.47L152.383 67.955C153.358 68.795 154.468 69.305 155.773 69.305C156.883 69.305 157.453 68.795 157.453 68.15C157.453 67.415 156.853 67.19 155.278 66.83C153.103 66.335 151.558 65.72 151.558 63.725C151.558 61.82 153.118 60.515 155.368 60.515C157.048 60.515 158.353 61.04 159.403 61.94L158.248 63.53C157.333 62.795 156.298 62.39 155.308 62.39C154.363 62.39 153.793 62.885 153.793 63.5C153.793 64.25 154.408 64.49 155.998 64.85C158.218 65.345 159.688 66.005 159.688 67.91C159.688 69.875 158.203 71.18 155.683 71.18ZM165.175 71.18C163.39 71.18 161.8 70.58 160.6 69.47L161.875 67.955C162.85 68.795 163.96 69.305 165.265 69.305C166.375 69.305 166.945 68.795 166.945 68.15C166.945 67.415 166.345 67.19 164.77 66.83C162.595 66.335 161.05 65.72 161.05 63.725C161.05 61.82 162.61 60.515 164.86 60.515C166.54 60.515 167.845 61.04 168.895 61.94L167.74 63.53C166.825 62.795 165.79 62.39 164.8 62.39C163.855 62.39 163.285 62.885 163.285 63.5C163.285 64.25 163.9 64.49 165.49 64.85C167.71 65.345 169.18 66.005 169.18 67.91C169.18 69.875 167.695 71.18 165.175 71.18ZM182.532 60.695H185.007L180.807 71H178.332L174.132 60.695H176.622L179.577 67.955L182.532 60.695ZM194.156 62.69H188.441V64.745H193.616V66.74H188.441V69.005H194.156V71H186.221V60.695H194.156V62.69ZM204.546 71H202.026L199.671 67.655H198.036V71H195.831V60.695H200.466C202.701 60.695 204.351 62.135 204.351 64.175C204.351 65.705 203.421 66.905 202.011 67.4L204.546 71ZM198.036 62.72V65.63H200.226C201.321 65.63 202.071 65.06 202.071 64.175C202.071 63.29 201.321 62.72 200.226 62.72H198.036ZM206.027 71V60.695H208.247V71H206.027ZM218.238 62.69H212.523V64.925H217.698V66.92H212.523V71H210.303V60.695H218.238V62.69ZM219.84 71V60.695H222.06V71H219.84ZM232.052 62.69H226.337V64.745H231.512V66.74H226.337V69.005H232.052V71H224.117V60.695H232.052V62.69ZM233.816 71V60.695H237.506C240.971 60.695 243.431 62.825 243.431 65.84C243.431 68.855 240.971 71 237.506 71H233.816ZM236.021 68.99H237.791C239.756 68.99 241.151 67.685 241.151 65.84C241.151 64.01 239.756 62.705 237.791 62.705H236.021V68.99ZM249.327 71V60.695H253.962C256.197 60.695 257.847 62.135 257.847 64.175C257.847 66.215 256.197 67.655 253.962 67.655H251.532V71H249.327ZM251.532 65.63H253.722C254.817 65.63 255.567 65.06 255.567 64.175C255.567 63.29 254.817 62.72 253.722 62.72H251.532V65.63ZM267.944 71H265.424L263.069 67.655H261.434V71H259.229V60.695H263.864C266.099 60.695 267.749 62.135 267.749 64.175C267.749 65.705 266.819 66.905 265.409 67.4L267.944 71ZM261.434 62.72V65.63H263.624C264.719 65.63 265.469 65.06 265.469 64.175C265.469 63.29 264.719 62.72 263.624 62.72H261.434ZM274.465 71.18C271.51 71.18 268.99 68.735 268.99 65.84C268.99 62.945 271.51 60.515 274.465 60.515C277.45 60.515 279.94 62.945 279.94 65.84C279.94 68.735 277.45 71.18 274.465 71.18ZM274.465 69.17C276.205 69.17 277.675 67.64 277.675 65.84C277.675 64.055 276.205 62.525 274.465 62.525C272.74 62.525 271.27 64.055 271.27 65.84C271.27 67.64 272.74 69.17 274.465 69.17ZM284.178 71.18C282.858 71.18 281.418 70.475 280.728 69.47L282.198 68.03C282.528 68.705 283.263 69.17 283.953 69.17C284.853 69.17 285.513 68.465 285.513 67.46V60.695H287.733V67.64C287.733 69.71 286.263 71.18 284.178 71.18ZM297.677 62.69H291.962V64.745H297.137V66.74H291.962V69.005H297.677V71H289.742V60.695H297.677V62.69ZM304.421 71.18C301.466 71.18 298.946 68.735 298.946 65.84C298.946 62.945 301.466 60.515 304.421 60.515C305.981 60.515 307.421 61.175 308.426 62.24L306.821 63.68C306.221 62.99 305.366 62.525 304.421 62.525C302.696 62.525 301.226 64.055 301.226 65.84C301.226 67.64 302.696 69.17 304.421 69.17C305.366 69.17 306.221 68.705 306.821 68.015L308.426 69.455C307.421 70.505 305.981 71.18 304.421 71.18ZM312.465 71V62.69H309.255V60.695H317.895V62.69H314.685V71H312.465ZM323.275 71.18C321.49 71.18 319.9 70.58 318.7 69.47L319.975 67.955C320.95 68.795 322.06 69.305 323.365 69.305C324.475 69.305 325.045 68.795 325.045 68.15C325.045 67.415 324.445 67.19 322.87 66.83C320.695 66.335 319.15 65.72 319.15 63.725C319.15 61.82 320.71 60.515 322.96 60.515C324.64 60.515 325.945 61.04 326.995 61.94L325.84 63.53C324.925 62.795 323.89 62.39 322.9 62.39C321.955 62.39 321.385 62.885 321.385 63.5C321.385 64.25 322 64.49 323.59 64.85C325.81 65.345 327.28 66.005 327.28 67.91C327.28 69.875 325.795 71.18 323.275 71.18Z" fill="#172840"/>
<path d="M92.15 126V112.15H86.8V108.825H101.2V112.15H95.85V126H92.15ZM109.342 112.775C112.717 112.775 115.017 114.9 115.017 118.275V126H111.492V124.7C110.567 125.75 109.092 126.3 107.692 126.3C104.942 126.3 102.817 124.65 102.817 122.175C102.817 119.625 105.192 117.875 108.192 117.875C109.242 117.875 110.392 118.1 111.492 118.525V118.275C111.492 116.9 110.642 115.7 108.517 115.7C107.317 115.7 106.192 116.1 105.167 116.625L103.942 114.2C105.767 113.275 107.542 112.775 109.342 112.775ZM108.517 123.775C109.917 123.775 111.242 123.125 111.492 121.925V120.725C110.667 120.425 109.717 120.25 108.717 120.25C107.392 120.25 106.342 121.025 106.342 122.075C106.342 123.125 107.267 123.775 108.517 123.775ZM126.068 112.775C129.518 112.775 132.018 115.575 132.018 119.525C132.018 123.5 129.518 126.3 126.068 126.3C124.268 126.3 122.768 125.525 121.743 124.175V130.3H118.093V113.075H121.743V114.875C122.768 113.55 124.268 112.775 126.068 112.775ZM125.018 123.225C127.043 123.225 128.468 121.7 128.468 119.525C128.468 117.375 127.043 115.85 125.018 115.85C123.243 115.85 121.943 117.15 121.743 119.025V120.025C121.943 121.925 123.243 123.225 125.018 123.225ZM143.404 111.3C142.279 111.3 141.404 110.4 141.404 109.3C141.404 108.275 142.279 107.35 143.404 107.35C144.479 107.35 145.354 108.275 145.354 109.3C145.354 110.4 144.479 111.3 143.404 111.3ZM141.554 126V113.075H145.204V126H141.554ZM155.866 112.775C158.666 112.775 160.666 114.85 160.666 117.775V126H157.141V118.55C157.141 116.95 156.141 115.85 154.691 115.85C153.166 115.85 151.991 116.95 151.991 118.35L151.966 118.275V126H148.316V113.075H151.966V114.7C152.741 113.525 154.191 112.775 155.866 112.775ZM170.547 122.8L171.422 125.175C170.672 125.85 169.497 126.3 168.447 126.3C166.172 126.3 164.572 124.675 164.572 122.35V116.025H162.797V113.075H164.572V109.525H168.072V113.075H170.872V116.025H168.072V121.775C168.072 122.625 168.622 123.225 169.297 123.225C169.797 123.225 170.297 123.05 170.547 122.8ZM180.058 126.3C176.208 126.3 172.983 123.2 172.983 119.525C172.983 115.85 176.208 112.775 180.058 112.775C183.883 112.775 187.083 115.85 187.083 119.525C187.083 123.2 183.883 126.3 180.058 126.3ZM180.058 123.225C181.983 123.225 183.608 121.525 183.608 119.525C183.608 117.525 181.983 115.85 180.058 115.85C178.108 115.85 176.483 117.525 176.483 119.525C176.483 121.525 178.108 123.225 180.058 123.225ZM202.636 123.075C203.661 123.075 204.911 122.6 205.611 121.925L207.936 124.3C206.786 125.5 204.561 126.3 202.661 126.3C198.811 126.3 195.811 123.475 195.811 119.5C195.811 115.6 198.686 112.775 202.461 112.775C206.511 112.775 208.886 115.85 208.886 120.725H199.561C199.986 122.125 201.111 123.075 202.636 123.075ZM202.611 116C201.236 116 200.086 116.8 199.611 118.1H205.386C205.036 116.825 204.086 116 202.611 116ZM223.53 126H219.605L216.805 122.1L213.98 126H210.13L214.88 119.425L210.33 113.075H214.28L216.855 116.675L219.455 113.075H223.305L218.78 119.35L223.53 126ZM231.84 126.3C228.015 126.3 224.79 123.2 224.79 119.525C224.79 115.85 228.04 112.775 231.865 112.775C233.965 112.775 235.69 113.625 236.94 114.975L234.515 117.05C233.865 116.325 232.84 115.85 231.84 115.85C229.94 115.85 228.34 117.525 228.34 119.5C228.34 121.525 229.94 123.225 231.865 123.225C232.865 123.225 233.915 122.725 234.59 121.975L237.015 124.025C235.74 125.425 233.99 126.3 231.84 126.3ZM239.211 126V108.525H242.861V126H239.211ZM254.622 113.075H258.272V126H254.622V124.375C253.847 125.55 252.397 126.3 250.722 126.3C247.922 126.3 245.922 124.225 245.922 121.3V113.075H249.447V120.525C249.447 122.125 250.447 123.225 251.897 123.225C253.422 123.225 254.597 122.125 254.597 120.725L254.622 120.8V113.075ZM266.254 126.3C264.179 126.3 261.979 125.6 260.429 124.35L262.004 121.825C263.154 122.65 264.604 123.275 266.329 123.275C267.304 123.275 268.004 122.875 268.004 122.3C268.004 121.5 267.054 121.25 265.729 120.9C263.079 120.25 261.029 119.525 261.004 116.975C260.979 114.525 263.004 112.775 266.054 112.775C267.904 112.775 269.729 113.425 271.154 114.375L269.679 116.975C268.504 116.25 267.154 115.825 266.054 115.825C265.154 115.825 264.529 116.15 264.529 116.6C264.529 117.3 265.054 117.5 266.804 117.975C269.029 118.55 271.504 119.3 271.504 122.125C271.504 124.675 269.429 126.3 266.254 126.3ZM275.778 111.3C274.653 111.3 273.778 110.4 273.778 109.3C273.778 108.275 274.653 107.35 275.778 107.35C276.853 107.35 277.728 108.275 277.728 109.3C277.728 110.4 276.853 111.3 275.778 111.3ZM273.928 126V113.075H277.578V126H273.928ZM285.089 126L279.489 113.075H283.314L286.789 121.8L290.189 113.075H293.989L288.464 126H285.089ZM301.22 123.075C302.245 123.075 303.495 122.6 304.195 121.925L306.52 124.3C305.37 125.5 303.145 126.3 301.245 126.3C297.395 126.3 294.395 123.475 294.395 119.5C294.395 115.6 297.27 112.775 301.045 112.775C305.095 112.775 307.47 115.85 307.47 120.725H298.145C298.57 122.125 299.695 123.075 301.22 123.075ZM301.195 116C299.82 116 298.67 116.8 298.195 118.1H303.97C303.62 116.825 302.67 116 301.195 116ZM94.4 152.8L95.275 155.175C94.525 155.85 93.35 156.3 92.3 156.3C90.025 156.3 88.425 154.675 88.425 152.35V146.025H86.65V143.075H88.425V139.525H91.925V143.075H94.725V146.025H91.925V151.775C91.925 152.625 92.475 153.225 93.15 153.225C93.65 153.225 94.15 153.05 94.4 152.8ZM103.661 153.075C104.686 153.075 105.936 152.6 106.636 151.925L108.961 154.3C107.811 155.5 105.586 156.3 103.686 156.3C99.8359 156.3 96.8359 153.475 96.8359 149.5C96.8359 145.6 99.7109 142.775 103.486 142.775C107.536 142.775 109.911 145.85 109.911 150.725H100.586C101.011 152.125 102.136 153.075 103.661 153.075ZM103.636 146C102.261 146 101.111 146.8 100.636 148.1H106.411C106.061 146.825 105.111 146 103.636 146ZM119.855 142.775C122.655 142.775 124.655 144.85 124.655 147.775V156H121.13V148.55C121.13 146.95 120.13 145.85 118.68 145.85C117.155 145.85 115.98 146.95 115.98 148.35L115.955 148.275V156H112.305V143.075H115.955V144.7C116.73 143.525 118.18 142.775 119.855 142.775ZM137.387 138.525H141.037V156H137.387V154.15C136.362 155.5 134.862 156.3 133.037 156.3C129.587 156.3 127.087 153.5 127.087 149.525C127.087 145.575 129.587 142.775 133.037 142.775C134.862 142.775 136.362 143.575 137.387 144.925V138.525ZM134.087 153.225C136.012 153.225 137.387 151.7 137.387 149.525C137.387 147.375 136.012 145.85 134.087 145.85C132.062 145.85 130.637 147.375 130.637 149.525C130.637 151.7 132.062 153.225 134.087 153.225ZM150.341 153.075C151.366 153.075 152.616 152.6 153.316 151.925L155.641 154.3C154.491 155.5 152.266 156.3 150.366 156.3C146.516 156.3 143.516 153.475 143.516 149.5C143.516 145.6 146.391 142.775 150.166 142.775C154.216 142.775 156.591 145.85 156.591 150.725H147.266C147.691 152.125 148.816 153.075 150.341 153.075ZM150.316 146C148.941 146 147.791 146.8 147.316 148.1H153.091C152.741 146.825 151.791 146 150.316 146ZM162.71 145.475C163.56 143.8 165.16 142.775 167.135 142.775V145.85C164.435 145.85 162.71 147.4 162.71 149.825V156H159.06V143.075H162.71V145.475ZM174.091 156.3C172.016 156.3 169.816 155.6 168.266 154.35L169.841 151.825C170.991 152.65 172.441 153.275 174.166 153.275C175.141 153.275 175.841 152.875 175.841 152.3C175.841 151.5 174.891 151.25 173.566 150.9C170.916 150.25 168.866 149.525 168.841 146.975C168.816 144.525 170.841 142.775 173.891 142.775C175.741 142.775 177.566 143.425 178.991 144.375L177.516 146.975C176.341 146.25 174.991 145.825 173.891 145.825C172.991 145.825 172.366 146.15 172.366 146.6C172.366 147.3 172.891 147.5 174.641 147.975C176.866 148.55 179.341 149.3 179.341 152.125C179.341 154.675 177.266 156.3 174.091 156.3ZM194.547 142.775C197.922 142.775 200.222 144.9 200.222 148.275V156H196.697V154.7C195.772 155.75 194.297 156.3 192.897 156.3C190.147 156.3 188.022 154.65 188.022 152.175C188.022 149.625 190.397 147.875 193.397 147.875C194.447 147.875 195.597 148.1 196.697 148.525V148.275C196.697 146.9 195.847 145.7 193.722 145.7C192.522 145.7 191.397 146.1 190.372 146.625L189.147 144.2C190.972 143.275 192.747 142.775 194.547 142.775ZM193.722 153.775C195.122 153.775 196.447 153.125 196.697 151.925V150.725C195.872 150.425 194.922 150.25 193.922 150.25C192.597 150.25 191.547 151.025 191.547 152.075C191.547 153.125 192.472 153.775 193.722 153.775ZM210.773 142.775C213.573 142.775 215.573 144.85 215.573 147.775V156H212.048V148.55C212.048 146.95 211.048 145.85 209.598 145.85C208.073 145.85 206.898 146.95 206.898 148.35L206.873 148.275V156H203.223V143.075H206.873V144.7C207.648 143.525 209.098 142.775 210.773 142.775ZM228.305 138.525H231.955V156H228.305V154.15C227.28 155.5 225.78 156.3 223.955 156.3C220.505 156.3 218.005 153.5 218.005 149.525C218.005 145.575 220.505 142.775 223.955 142.775C225.78 142.775 227.28 143.575 228.305 144.925V138.525ZM225.005 153.225C226.93 153.225 228.305 151.7 228.305 149.525C228.305 147.375 226.93 145.85 225.005 145.85C222.98 145.85 221.555 147.375 221.555 149.525C221.555 151.7 222.98 153.225 225.005 153.225ZM256.766 156H252.566L248.641 150.425H245.916V156H242.241V138.825H249.966C253.691 138.825 256.441 141.225 256.441 144.625C256.441 147.175 254.891 149.175 252.541 150L256.766 156ZM245.916 142.2V147.05H249.566C251.391 147.05 252.641 146.1 252.641 144.625C252.641 143.15 251.391 142.2 249.566 142.2H245.916ZM272.409 142.15H262.884V145.875H271.509V149.2H262.884V156H259.184V138.825H272.409V142.15ZM275.029 156V138.825H282.754C286.479 138.825 289.229 141.225 289.229 144.625C289.229 148.025 286.479 150.425 282.754 150.425H278.704V156H275.029ZM278.704 147.05H282.354C284.179 147.05 285.429 146.1 285.429 144.625C285.429 143.15 284.179 142.2 282.354 142.2H278.704V147.05ZM296.283 156.3C294.208 156.3 292.008 155.6 290.458 154.35L292.033 151.825C293.183 152.65 294.633 153.275 296.358 153.275C297.333 153.275 298.033 152.875 298.033 152.3C298.033 151.5 297.083 151.25 295.758 150.9C293.108 150.25 291.058 149.525 291.033 146.975C291.008 144.525 293.033 142.775 296.083 142.775C297.933 142.775 299.758 143.425 301.183 144.375L299.708 146.975C298.533 146.25 297.183 145.825 296.083 145.825C295.183 145.825 294.558 146.15 294.558 146.6C294.558 147.3 295.083 147.5 296.833 147.975C299.058 148.55 301.533 149.3 301.533 152.125C301.533 154.675 299.458 156.3 296.283 156.3Z" fill="#172840"/>
<path d="M98.3666 204.1L95.8583 201.591C95.6444 201.377 95.3722 201.271 95.0416 201.271C94.7111 201.271 94.4389 201.377 94.225 201.591C94.0111 201.805 93.9041 202.077 93.9041 202.408C93.9041 202.739 94.0111 203.011 94.225 203.225L97.55 206.55C97.7833 206.783 98.0555 206.9 98.3666 206.9C98.6778 206.9 98.95 206.783 99.1833 206.55L105.775 199.958C105.989 199.744 106.096 199.472 106.096 199.141C106.096 198.811 105.989 198.539 105.775 198.325C105.561 198.111 105.289 198.004 104.958 198.004C104.628 198.004 104.356 198.111 104.142 198.325L98.3666 204.1ZM100 213.666C98.3861 213.666 96.8694 213.36 95.45 212.747C94.0305 212.134 92.7958 211.303 91.7458 210.254C90.6958 209.205 89.8648 207.97 89.2526 206.55C88.6405 205.129 88.3341 203.613 88.3333 202C88.3325 200.387 88.639 198.87 89.2526 197.45C89.8663 196.029 90.6974 194.795 91.7458 193.746C92.7943 192.696 94.029 191.865 95.45 191.252C96.871 190.639 98.3876 190.333 100 190.333C101.612 190.333 103.129 190.639 104.55 191.252C105.971 191.865 107.206 192.696 108.254 193.746C109.303 194.795 110.134 196.029 110.748 197.45C111.363 198.87 111.669 200.387 111.667 202C111.664 203.613 111.358 205.129 110.747 206.55C110.137 207.97 109.306 209.205 108.254 210.254C107.203 211.303 105.968 212.135 104.55 212.748C103.132 213.362 101.615 213.668 100 213.666Z" fill="#F25849"/>
<path d="M127.778 194.198C125.708 194.198 123.998 193.478 122.684 192.218L123.782 190.868C124.88 191.912 126.176 192.596 127.85 192.596C129.56 192.596 130.442 191.696 130.442 190.706C130.442 189.536 129.416 189.086 127.346 188.618C124.826 188.024 123.152 187.268 123.152 185.036C123.152 182.966 124.952 181.4 127.436 181.4C129.344 181.4 130.766 182.102 131.954 183.146L130.91 184.514C129.866 183.56 128.624 183.002 127.364 183.002C125.978 183.002 125.006 183.884 125.006 184.874C125.006 186.026 126.068 186.422 128.102 186.908C130.568 187.484 132.278 188.312 132.278 190.526C132.278 192.614 130.694 194.198 127.778 194.198ZM140.866 184.694H142.648V194H140.866V192.65C140.308 193.568 139.174 194.216 137.914 194.216C135.862 194.216 134.422 192.722 134.422 190.616V184.694H136.168V190.31C136.168 191.696 137.05 192.668 138.31 192.668C139.606 192.668 140.722 191.822 140.866 190.724V184.694ZM150.4 184.478C152.848 184.478 154.684 186.494 154.684 189.338C154.684 192.2 152.848 194.216 150.4 194.216C148.96 194.216 147.808 193.532 147.088 192.38V194H145.324V181.418H147.088V186.296C147.808 185.162 148.96 184.478 150.4 184.478ZM149.968 192.668C151.678 192.668 152.884 191.282 152.884 189.338C152.884 187.394 151.678 186.026 149.968 186.026C148.294 186.026 147.088 187.394 147.088 189.338C147.088 191.282 148.294 192.668 149.968 192.668ZM167.239 184.478C169.183 184.478 170.587 185.972 170.587 188.078V194H168.841V188.348C168.841 186.98 168.031 186.026 166.861 186.026C165.529 186.026 164.593 186.908 164.593 188.186V194H162.847V188.348C162.847 186.98 162.037 186.026 160.867 186.026C159.535 186.026 158.599 186.908 158.599 188.186V194H156.817V184.694H158.599V185.99C159.067 185.072 160.039 184.478 161.227 184.478C162.577 184.478 163.675 185.198 164.215 186.35C164.647 185.198 165.835 184.478 167.239 184.478ZM174.03 183.146C173.418 183.146 172.95 182.642 172.95 182.066C172.95 181.508 173.418 181.004 174.03 181.004C174.606 181.004 175.092 181.508 175.092 182.066C175.092 182.642 174.606 183.146 174.03 183.146ZM173.13 194V184.694H174.912V194H173.13ZM181.845 192.326L182.493 193.55C181.989 193.964 181.305 194.216 180.639 194.216C179.199 194.216 178.191 193.172 178.191 191.678V186.206H176.787V184.694H178.191V182.138H179.937V184.694H182.133V186.206H179.937V191.552C179.937 192.2 180.369 192.668 180.891 192.668C181.287 192.668 181.647 192.524 181.845 192.326ZM192.826 194.216C191.458 194.216 189.964 193.73 188.848 192.83L189.694 191.552C190.684 192.272 191.746 192.686 192.844 192.686C193.888 192.686 194.608 192.2 194.608 191.48C194.608 190.616 193.654 190.346 192.502 190.022C190.36 189.428 189.298 188.816 189.298 187.304C189.28 185.594 190.702 184.478 192.682 184.478C193.888 184.478 195.112 184.892 196.12 185.558L195.328 186.872C194.428 186.314 193.492 186.008 192.682 186.008C191.764 186.008 191.044 186.404 191.044 187.106C191.044 187.826 191.62 188.042 193.186 188.528C194.716 188.978 196.354 189.482 196.354 191.336C196.354 193.1 194.86 194.216 192.826 194.216ZM202.781 192.326L203.429 193.55C202.925 193.964 202.241 194.216 201.575 194.216C200.135 194.216 199.127 193.172 199.127 191.678V186.206H197.723V184.694H199.127V182.138H200.873V184.694H203.069V186.206H200.873V191.552C200.873 192.2 201.305 192.668 201.827 192.668C202.223 192.668 202.583 192.524 202.781 192.326ZM207.117 186.476C207.711 185.252 208.971 184.478 210.573 184.478V186.026C208.647 186.026 207.279 187.088 207.117 188.708V194H205.335V184.694H207.117V186.476ZM216.44 194.216C213.776 194.216 211.526 191.984 211.526 189.338C211.526 186.692 213.776 184.478 216.44 184.478C219.086 184.478 221.318 186.692 221.318 189.338C221.318 191.984 219.086 194.216 216.44 194.216ZM216.44 192.668C218.114 192.668 219.536 191.156 219.536 189.338C219.536 187.538 218.114 186.026 216.44 186.026C214.73 186.026 213.308 187.538 213.308 189.338C213.308 191.156 214.73 192.668 216.44 192.668ZM228.137 184.478C230.189 184.478 231.629 185.972 231.629 188.078V194H229.883V188.384C229.883 186.998 229.001 186.026 227.741 186.026C226.445 186.026 225.329 186.872 225.185 187.97V194H223.403V184.694H225.185V186.044C225.743 185.126 226.877 184.478 228.137 184.478ZM241.253 184.694H243.035V193.01C243.035 195.404 241.073 197.096 238.319 197.096C236.753 197.096 235.313 196.574 234.431 195.854L235.133 194.522C235.817 195.17 236.933 195.548 238.049 195.548C240.047 195.548 241.253 194.594 241.253 192.974V191.624C240.515 192.686 239.363 193.316 237.959 193.316C235.511 193.316 233.729 191.48 233.729 188.888C233.729 186.296 235.511 184.478 237.959 184.478C239.363 184.478 240.551 185.144 241.253 186.188V184.694ZM238.409 191.768C240.065 191.768 241.253 190.58 241.253 188.888C241.253 187.214 240.065 186.026 238.409 186.026C236.753 186.026 235.583 187.214 235.583 188.888C235.583 190.58 236.753 191.768 238.409 191.768ZM249.958 192.632C250.93 192.632 252.064 192.2 252.622 191.624L253.738 192.776C252.91 193.658 251.29 194.216 249.976 194.216C247.384 194.216 245.188 192.182 245.188 189.32C245.188 186.53 247.258 184.478 249.832 184.478C252.676 184.478 254.314 186.638 254.314 189.968H246.988C247.222 191.516 248.356 192.632 249.958 192.632ZM249.904 186.062C248.464 186.062 247.294 187.034 247.006 188.546H252.586C252.388 187.106 251.506 186.062 249.904 186.062ZM258.252 186.476C258.846 185.252 260.106 184.478 261.708 184.478V186.026C259.782 186.026 258.414 187.088 258.252 188.708V194H256.47V184.694H258.252V186.476ZM273.763 184.478C276.211 184.478 278.047 186.494 278.047 189.338C278.047 192.2 276.211 194.216 273.763 194.216C272.323 194.216 271.171 193.532 270.451 192.38V194H268.687V181.418H270.451V186.296C271.171 185.162 272.323 184.478 273.763 184.478ZM273.331 192.668C275.041 192.668 276.247 191.282 276.247 189.338C276.247 187.394 275.041 186.026 273.331 186.026C271.657 186.026 270.451 187.394 270.451 189.338C270.451 191.282 271.657 192.668 273.331 192.668ZM281.08 183.146C280.468 183.146 280 182.642 280 182.066C280 181.508 280.468 181.004 281.08 181.004C281.656 181.004 282.142 181.508 282.142 182.066C282.142 182.642 281.656 183.146 281.08 183.146ZM280.18 194V184.694H281.962V194H280.18ZM291.704 181.418H293.468V194H291.704V192.38C290.984 193.532 289.832 194.216 288.392 194.216C285.944 194.216 284.108 192.2 284.108 189.338C284.108 186.494 285.944 184.478 288.392 184.478C289.832 184.478 290.984 185.162 291.704 186.296V181.418ZM288.824 192.668C290.498 192.668 291.704 191.282 291.704 189.338C291.704 187.394 290.498 186.026 288.824 186.026C287.114 186.026 285.908 187.394 285.908 189.338C285.908 191.282 287.114 192.668 288.824 192.668ZM299.508 194.216C298.14 194.216 296.646 193.73 295.53 192.83L296.376 191.552C297.366 192.272 298.428 192.686 299.526 192.686C300.57 192.686 301.29 192.2 301.29 191.48C301.29 190.616 300.336 190.346 299.184 190.022C297.042 189.428 295.98 188.816 295.98 187.304C295.962 185.594 297.384 184.478 299.364 184.478C300.57 184.478 301.794 184.892 302.802 185.558L302.01 186.872C301.11 186.314 300.174 186.008 299.364 186.008C298.446 186.008 297.726 186.404 297.726 187.106C297.726 187.826 298.302 188.042 299.868 188.528C301.398 188.978 303.036 189.482 303.036 191.336C303.036 193.1 301.542 194.216 299.508 194.216ZM312.615 194L309.483 184.694H311.301L313.443 191.624L315.747 184.694H317.259L319.563 191.624L321.687 184.694H323.505L320.373 194H318.735L316.503 187.088L314.253 194H312.615ZM326.186 183.146C325.574 183.146 325.106 182.642 325.106 182.066C325.106 181.508 325.574 181.004 326.186 181.004C326.762 181.004 327.248 181.508 327.248 182.066C327.248 182.642 326.762 183.146 326.186 183.146ZM325.286 194V184.694H327.068V194H325.286ZM334.002 192.326L334.65 193.55C334.146 193.964 333.462 194.216 332.796 194.216C331.356 194.216 330.348 193.172 330.348 191.678V186.206H328.944V184.694H330.348V182.138H332.094V184.694H334.29V186.206H332.094V191.552C332.094 192.2 332.526 192.668 333.048 192.668C333.444 192.668 333.804 192.524 334.002 192.326ZM341.2 184.478C343.252 184.478 344.692 185.972 344.692 188.078V194H342.946V188.384C342.946 186.998 342.064 186.026 340.804 186.026C339.4 186.026 338.23 187.016 338.23 188.222V194H336.466V181.418H338.23V186.08C338.788 185.144 339.922 184.478 341.2 184.478ZM127.652 219.326L128.3 220.55C127.796 220.964 127.112 221.216 126.446 221.216C125.006 221.216 123.998 220.172 123.998 218.678V213.206H122.594V211.694H123.998V209.138H125.744V211.694H127.94V213.206H125.744V218.552C125.744 219.2 126.176 219.668 126.698 219.668C127.094 219.668 127.454 219.524 127.652 219.326ZM131.988 213.476C132.582 212.252 133.842 211.478 135.444 211.478V213.026C133.518 213.026 132.15 214.088 131.988 215.708V221H130.206V211.694H131.988V213.476ZM143.591 211.694H145.373V221H143.591V219.65C143.033 220.568 141.899 221.216 140.639 221.216C138.587 221.216 137.147 219.722 137.147 217.616V211.694H138.893V217.31C138.893 218.696 139.775 219.668 141.035 219.668C142.331 219.668 143.447 218.822 143.591 217.724V211.694ZM151.324 221.216C149.956 221.216 148.462 220.73 147.346 219.83L148.192 218.552C149.182 219.272 150.244 219.686 151.342 219.686C152.386 219.686 153.106 219.2 153.106 218.48C153.106 217.616 152.152 217.346 151 217.022C148.858 216.428 147.796 215.816 147.796 214.304C147.778 212.594 149.2 211.478 151.18 211.478C152.386 211.478 153.61 211.892 154.618 212.558L153.826 213.872C152.926 213.314 151.99 213.008 151.18 213.008C150.262 213.008 149.542 213.404 149.542 214.106C149.542 214.826 150.118 215.042 151.684 215.528C153.214 215.978 154.852 216.482 154.852 218.336C154.852 220.1 153.358 221.216 151.324 221.216ZM161.279 219.326L161.927 220.55C161.423 220.964 160.739 221.216 160.073 221.216C158.633 221.216 157.625 220.172 157.625 218.678V213.206H156.221V211.694H157.625V209.138H159.371V211.694H161.567V213.206H159.371V218.552C159.371 219.2 159.803 219.668 160.325 219.668C160.721 219.668 161.081 219.524 161.279 219.326ZM168.009 219.632C168.981 219.632 170.115 219.2 170.673 218.624L171.789 219.776C170.961 220.658 169.341 221.216 168.027 221.216C165.435 221.216 163.239 219.182 163.239 216.32C163.239 213.53 165.309 211.478 167.883 211.478C170.727 211.478 172.365 213.638 172.365 216.968H165.039C165.273 218.516 166.407 219.632 168.009 219.632ZM167.955 213.062C166.515 213.062 165.345 214.034 165.057 215.546H170.637C170.439 214.106 169.557 213.062 167.955 213.062ZM181.595 208.418H183.359V221H181.595V219.38C180.875 220.532 179.723 221.216 178.283 221.216C175.835 221.216 173.999 219.2 173.999 216.338C173.999 213.494 175.835 211.478 178.283 211.478C179.723 211.478 180.875 212.162 181.595 213.296V208.418ZM178.715 219.668C180.389 219.668 181.595 218.282 181.595 216.338C181.595 214.394 180.389 213.026 178.715 213.026C177.005 213.026 175.799 214.394 175.799 216.338C175.799 218.282 177.005 219.668 178.715 219.668ZM195.575 221.216C192.929 221.216 190.679 218.984 190.679 216.338C190.679 213.692 192.929 211.478 195.593 211.478C196.925 211.478 198.131 212.036 199.013 212.918L197.807 214.034C197.249 213.404 196.439 213.026 195.575 213.026C193.883 213.026 192.479 214.538 192.479 216.338C192.479 218.156 193.883 219.668 195.593 219.668C196.457 219.668 197.285 219.272 197.861 218.624L199.067 219.722C198.167 220.64 196.961 221.216 195.575 221.216ZM205.19 221.216C202.526 221.216 200.276 218.984 200.276 216.338C200.276 213.692 202.526 211.478 205.19 211.478C207.836 211.478 210.068 213.692 210.068 216.338C210.068 218.984 207.836 221.216 205.19 221.216ZM205.19 219.668C206.864 219.668 208.286 218.156 208.286 216.338C208.286 214.538 206.864 213.026 205.19 213.026C203.48 213.026 202.058 214.538 202.058 216.338C202.058 218.156 203.48 219.668 205.19 219.668ZM212.153 221V208.418H213.917V221H212.153ZM216.513 221V208.418H218.277V221H216.513ZM224.778 211.478C227.28 211.478 228.666 213.062 228.666 215.366V221H226.92V219.722C226.236 220.694 224.958 221.216 223.824 221.216C221.844 221.216 220.386 220.064 220.386 218.246C220.386 216.392 222.06 215.15 224.112 215.15C225.03 215.15 226.02 215.348 226.92 215.654V215.366C226.92 214.196 226.38 212.954 224.526 212.954C223.608 212.954 222.708 213.314 221.898 213.728L221.25 212.414C222.582 211.748 223.752 211.478 224.778 211.478ZM224.166 219.812C225.318 219.812 226.614 219.236 226.92 218.084V216.842C226.164 216.608 225.3 216.482 224.382 216.482C223.14 216.482 222.096 217.184 222.096 218.192C222.096 219.2 222.996 219.812 224.166 219.812ZM236.409 211.478C238.857 211.478 240.693 213.494 240.693 216.338C240.693 219.2 238.857 221.216 236.409 221.216C234.969 221.216 233.817 220.532 233.097 219.38V221H231.333V208.418H233.097V213.296C233.817 212.162 234.969 211.478 236.409 211.478ZM235.977 219.668C237.687 219.668 238.893 218.282 238.893 216.338C238.893 214.394 237.687 213.026 235.977 213.026C234.303 213.026 233.097 214.394 233.097 216.338C233.097 218.282 234.303 219.668 235.977 219.668ZM247.255 221.216C244.591 221.216 242.341 218.984 242.341 216.338C242.341 213.692 244.591 211.478 247.255 211.478C249.901 211.478 252.133 213.692 252.133 216.338C252.133 218.984 249.901 221.216 247.255 221.216ZM247.255 219.668C248.929 219.668 250.351 218.156 250.351 216.338C250.351 214.538 248.929 213.026 247.255 213.026C245.545 213.026 244.123 214.538 244.123 216.338C244.123 218.156 245.545 219.668 247.255 219.668ZM256.09 213.476C256.684 212.252 257.944 211.478 259.546 211.478V213.026C257.62 213.026 256.252 214.088 256.09 215.708V221H254.308V211.694H256.09V213.476ZM265.19 211.478C267.692 211.478 269.078 213.062 269.078 215.366V221H267.332V219.722C266.648 220.694 265.37 221.216 264.236 221.216C262.256 221.216 260.798 220.064 260.798 218.246C260.798 216.392 262.472 215.15 264.524 215.15C265.442 215.15 266.432 215.348 267.332 215.654V215.366C267.332 214.196 266.792 212.954 264.938 212.954C264.02 212.954 263.12 213.314 262.31 213.728L261.662 212.414C262.994 211.748 264.164 211.478 265.19 211.478ZM264.578 219.812C265.73 219.812 267.026 219.236 267.332 218.084V216.842C266.576 216.608 265.712 216.482 264.794 216.482C263.552 216.482 262.508 217.184 262.508 218.192C262.508 219.2 263.408 219.812 264.578 219.812ZM276.011 219.326L276.659 220.55C276.155 220.964 275.471 221.216 274.805 221.216C273.365 221.216 272.357 220.172 272.357 218.678V213.206H270.953V211.694H272.357V209.138H274.103V211.694H276.299V213.206H274.103V218.552C274.103 219.2 274.535 219.668 275.057 219.668C275.453 219.668 275.813 219.524 276.011 219.326ZM282.886 221.216C280.222 221.216 277.972 218.984 277.972 216.338C277.972 213.692 280.222 211.478 282.886 211.478C285.532 211.478 287.764 213.692 287.764 216.338C287.764 218.984 285.532 221.216 282.886 221.216ZM282.886 219.668C284.56 219.668 285.982 218.156 285.982 216.338C285.982 214.538 284.56 213.026 282.886 213.026C281.176 213.026 279.754 214.538 279.754 216.338C279.754 218.156 281.176 219.668 282.886 219.668ZM291.721 213.476C292.315 212.252 293.575 211.478 295.177 211.478V213.026C293.251 213.026 291.883 214.088 291.721 215.708V221H289.939V211.694H291.721V213.476ZM300.281 221.216C298.913 221.216 297.419 220.73 296.303 219.83L297.149 218.552C298.139 219.272 299.201 219.686 300.299 219.686C301.343 219.686 302.063 219.2 302.063 218.48C302.063 217.616 301.109 217.346 299.957 217.022C297.815 216.428 296.753 215.816 296.753 214.304C296.735 212.594 298.157 211.478 300.137 211.478C301.343 211.478 302.567 211.892 303.575 212.558L302.783 213.872C301.883 213.314 300.947 213.008 300.137 213.008C299.219 213.008 298.499 213.404 298.499 214.106C298.499 214.826 299.075 215.042 300.641 215.528C302.171 215.978 303.809 216.482 303.809 218.336C303.809 220.1 302.315 221.216 300.281 221.216Z" fill="#172840"/>
<path d="M98.3666 274.1L95.8583 271.591C95.6444 271.377 95.3722 271.271 95.0416 271.271C94.7111 271.271 94.4389 271.377 94.225 271.591C94.0111 271.805 93.9041 272.077 93.9041 272.408C93.9041 272.739 94.0111 273.011 94.225 273.225L97.55 276.55C97.7833 276.783 98.0555 276.9 98.3666 276.9C98.6778 276.9 98.95 276.783 99.1833 276.55L105.775 269.958C105.989 269.744 106.096 269.472 106.096 269.141C106.096 268.811 105.989 268.539 105.775 268.325C105.561 268.111 105.289 268.004 104.958 268.004C104.628 268.004 104.356 268.111 104.142 268.325L98.3666 274.1ZM100 283.666C98.3861 283.666 96.8694 283.36 95.45 282.747C94.0305 282.134 92.7958 281.303 91.7458 280.254C90.6958 279.205 89.8648 277.97 89.2526 276.55C88.6405 275.129 88.3341 273.613 88.3333 272C88.3325 270.387 88.639 268.87 89.2526 267.45C89.8663 266.029 90.6974 264.795 91.7458 263.746C92.7943 262.696 94.029 261.865 95.45 261.252C96.871 260.639 98.3876 260.333 100 260.333C101.612 260.333 103.129 260.639 104.55 261.252C105.971 261.865 107.206 262.696 108.254 263.746C109.303 264.795 110.134 266.029 110.748 267.45C111.363 268.87 111.669 270.387 111.667 272C111.664 273.613 111.358 275.129 110.747 276.55C110.137 277.97 109.306 279.205 108.254 280.254C107.203 281.303 105.968 282.135 104.55 282.748C103.132 283.362 101.615 283.668 100 283.666Z" fill="#F25849"/>
<path d="M132.44 253.326H125.186V256.926H131.738V258.618H125.186V264H123.35V251.634H132.44V253.326ZM135.287 253.146C134.675 253.146 134.207 252.642 134.207 252.066C134.207 251.508 134.675 251.004 135.287 251.004C135.863 251.004 136.349 251.508 136.349 252.066C136.349 252.642 135.863 253.146 135.287 253.146ZM134.387 264V254.694H136.169V264H134.387ZM138.747 264V251.418H140.511V264H138.747ZM147.463 262.326L148.111 263.55C147.607 263.964 146.923 264.216 146.257 264.216C144.817 264.216 143.809 263.172 143.809 261.678V256.206H142.405V254.694H143.809V252.138H145.555V254.694H147.751V256.206H145.555V261.552C145.555 262.2 145.987 262.668 146.509 262.668C146.905 262.668 147.265 262.524 147.463 262.326ZM154.193 262.632C155.165 262.632 156.299 262.2 156.857 261.624L157.973 262.776C157.145 263.658 155.525 264.216 154.211 264.216C151.619 264.216 149.423 262.182 149.423 259.32C149.423 256.53 151.493 254.478 154.067 254.478C156.911 254.478 158.549 256.638 158.549 259.968H151.223C151.457 261.516 152.591 262.632 154.193 262.632ZM154.139 256.062C152.699 256.062 151.529 257.034 151.241 258.546H156.821C156.623 257.106 155.741 256.062 154.139 256.062ZM162.486 256.476C163.08 255.252 164.34 254.478 165.942 254.478V256.026C164.016 256.026 162.648 257.088 162.486 258.708V264H160.704V254.694H162.486V256.476ZM177.997 254.478C180.445 254.478 182.281 256.494 182.281 259.338C182.281 262.2 180.445 264.216 177.997 264.216C176.557 264.216 175.405 263.532 174.685 262.38V264H172.921V251.418H174.685V256.296C175.405 255.162 176.557 254.478 177.997 254.478ZM177.565 262.668C179.275 262.668 180.481 261.282 180.481 259.338C180.481 257.394 179.275 256.026 177.565 256.026C175.891 256.026 174.685 257.394 174.685 259.338C174.685 261.282 175.891 262.668 177.565 262.668ZM186.071 267.24C185.441 267.24 184.793 267.096 184.307 266.844L184.703 265.476C185.063 265.674 185.477 265.764 185.837 265.764C186.413 265.764 186.809 265.584 187.115 265.044L187.583 264.054L183.587 254.694H185.495L188.483 262.038L191.309 254.694H193.163L189.059 264.846C188.393 266.52 187.403 267.222 186.071 267.24ZM204.698 264.216C202.052 264.216 199.802 261.984 199.802 259.338C199.802 256.692 202.052 254.478 204.716 254.478C206.048 254.478 207.254 255.036 208.136 255.918L206.93 257.034C206.372 256.404 205.562 256.026 204.698 256.026C203.006 256.026 201.602 257.538 201.602 259.338C201.602 261.156 203.006 262.668 204.716 262.668C205.58 262.668 206.408 262.272 206.984 261.624L208.19 262.722C207.29 263.64 206.084 264.216 204.698 264.216ZM214.313 264.216C211.649 264.216 209.399 261.984 209.399 259.338C209.399 256.692 211.649 254.478 214.313 254.478C216.959 254.478 219.191 256.692 219.191 259.338C219.191 261.984 216.959 264.216 214.313 264.216ZM214.313 262.668C215.987 262.668 217.409 261.156 217.409 259.338C217.409 257.538 215.987 256.026 214.313 256.026C212.603 256.026 211.181 257.538 211.181 259.338C211.181 261.156 212.603 262.668 214.313 262.668ZM227.684 254.694H229.466V264H227.684V262.65C227.126 263.568 225.992 264.216 224.732 264.216C222.68 264.216 221.24 262.722 221.24 260.616V254.694H222.986V260.31C222.986 261.696 223.868 262.668 225.128 262.668C226.424 262.668 227.54 261.822 227.684 260.724V254.694ZM236.786 254.478C238.838 254.478 240.278 255.972 240.278 258.078V264H238.532V258.384C238.532 256.998 237.65 256.026 236.39 256.026C235.094 256.026 233.978 256.872 233.834 257.97V264H232.052V254.694H233.834V256.044C234.392 255.126 235.526 254.478 236.786 254.478ZM247.183 262.326L247.831 263.55C247.327 263.964 246.643 264.216 245.977 264.216C244.537 264.216 243.529 263.172 243.529 261.678V256.206H242.125V254.694H243.529V252.138H245.275V254.694H247.471V256.206H245.275V261.552C245.275 262.2 245.707 262.668 246.229 262.668C246.625 262.668 246.985 262.524 247.183 262.326ZM251.52 256.476C252.114 255.252 253.374 254.478 254.976 254.478V256.026C253.05 256.026 251.682 257.088 251.52 258.708V264H249.738V254.694H251.52V256.476ZM258.352 267.24C257.722 267.24 257.074 267.096 256.588 266.844L256.984 265.476C257.344 265.674 257.758 265.764 258.118 265.764C258.694 265.764 259.09 265.584 259.396 265.044L259.864 264.054L255.868 254.694H257.776L260.764 262.038L263.59 254.694H265.444L261.34 264.846C260.674 266.52 259.684 267.222 258.352 267.24ZM266.227 266.466L265.471 265.89C265.993 265.35 266.317 264.774 266.461 264.216C265.813 264.216 265.291 263.676 265.291 263.01C265.291 262.38 265.813 261.822 266.497 261.822C267.289 261.822 267.793 262.542 267.793 263.532C267.793 264.378 267.379 265.152 266.227 266.466ZM278.783 264.216C277.415 264.216 275.921 263.73 274.805 262.83L275.651 261.552C276.641 262.272 277.703 262.686 278.801 262.686C279.845 262.686 280.565 262.2 280.565 261.48C280.565 260.616 279.611 260.346 278.459 260.022C276.317 259.428 275.255 258.816 275.255 257.304C275.237 255.594 276.659 254.478 278.639 254.478C279.845 254.478 281.069 254.892 282.077 255.558L281.285 256.872C280.385 256.314 279.449 256.008 278.639 256.008C277.721 256.008 277.001 256.404 277.001 257.106C277.001 257.826 277.577 258.042 279.143 258.528C280.673 258.978 282.311 259.482 282.311 261.336C282.311 263.1 280.817 264.216 278.783 264.216ZM288.648 262.632C289.62 262.632 290.754 262.2 291.312 261.624L292.428 262.776C291.6 263.658 289.98 264.216 288.666 264.216C286.074 264.216 283.878 262.182 283.878 259.32C283.878 256.53 285.948 254.478 288.522 254.478C291.366 254.478 293.004 256.638 293.004 259.968H285.678C285.912 261.516 287.046 262.632 288.648 262.632ZM288.594 256.062C287.154 256.062 285.984 257.034 285.696 258.546H291.276C291.078 257.106 290.196 256.062 288.594 256.062ZM299.461 264.216C296.815 264.216 294.565 261.984 294.565 259.338C294.565 256.692 296.815 254.478 299.479 254.478C300.811 254.478 302.017 255.036 302.899 255.918L301.693 257.034C301.135 256.404 300.325 256.026 299.461 256.026C297.769 256.026 296.365 257.538 296.365 259.338C296.365 261.156 297.769 262.668 299.479 262.668C300.343 262.668 301.171 262.272 301.747 261.624L302.953 262.722C302.053 263.64 300.847 264.216 299.461 264.216ZM309.216 262.326L309.864 263.55C309.36 263.964 308.676 264.216 308.01 264.216C306.57 264.216 305.562 263.172 305.562 261.678V256.206H304.158V254.694H305.562V252.138H307.308V254.694H309.504V256.206H307.308V261.552C307.308 262.2 307.74 262.668 308.262 262.668C308.658 262.668 309.018 262.524 309.216 262.326ZM316.091 264.216C313.427 264.216 311.177 261.984 311.177 259.338C311.177 256.692 313.427 254.478 316.091 254.478C318.737 254.478 320.969 256.692 320.969 259.338C320.969 261.984 318.737 264.216 316.091 264.216ZM316.091 262.668C317.765 262.668 319.187 261.156 319.187 259.338C319.187 257.538 317.765 256.026 316.091 256.026C314.381 256.026 312.959 257.538 312.959 259.338C312.959 261.156 314.381 262.668 316.091 262.668ZM324.926 256.476C325.52 255.252 326.78 254.478 328.382 254.478V256.026C326.456 256.026 325.088 257.088 324.926 258.708V264H323.144V254.694H324.926V256.476ZM331.02 266.466L330.264 265.89C330.786 265.35 331.11 264.774 331.254 264.216C330.606 264.216 330.084 263.676 330.084 263.01C330.084 262.38 330.606 261.822 331.29 261.822C332.082 261.822 332.586 262.542 332.586 263.532C332.586 264.378 332.172 265.152 331.02 266.466ZM344.62 264.216C341.956 264.216 339.706 261.984 339.706 259.338C339.706 256.692 341.956 254.478 344.62 254.478C347.266 254.478 349.498 256.692 349.498 259.338C349.498 261.984 347.266 264.216 344.62 264.216ZM344.62 262.668C346.294 262.668 347.716 261.156 347.716 259.338C347.716 257.538 346.294 256.026 344.62 256.026C342.91 256.026 341.488 257.538 341.488 259.338C341.488 261.156 342.91 262.668 344.62 262.668ZM353.455 256.476C354.049 255.252 355.309 254.478 356.911 254.478V256.026C354.985 256.026 353.617 257.088 353.455 258.708V264H351.673V254.694H353.455V256.476ZM130.46 278.418H132.224V291H130.46V289.38C129.74 290.532 128.588 291.216 127.148 291.216C124.7 291.216 122.864 289.2 122.864 286.338C122.864 283.494 124.7 281.478 127.148 281.478C128.588 281.478 129.74 282.162 130.46 283.296V278.418ZM127.58 289.668C129.254 289.668 130.46 288.282 130.46 286.338C130.46 284.394 129.254 283.026 127.58 283.026C125.87 283.026 124.664 284.394 124.664 286.338C124.664 288.282 125.87 289.668 127.58 289.668ZM139.164 289.632C140.136 289.632 141.27 289.2 141.828 288.624L142.944 289.776C142.116 290.658 140.496 291.216 139.182 291.216C136.59 291.216 134.394 289.182 134.394 286.32C134.394 283.53 136.464 281.478 139.038 281.478C141.882 281.478 143.52 283.638 143.52 286.968H136.194C136.428 288.516 137.562 289.632 139.164 289.632ZM139.11 283.062C137.67 283.062 136.5 284.034 136.212 285.546H141.792C141.594 284.106 140.712 283.062 139.11 283.062ZM149.491 281.478C151.993 281.478 153.379 283.062 153.379 285.366V291H151.633V289.722C150.949 290.694 149.671 291.216 148.537 291.216C146.557 291.216 145.099 290.064 145.099 288.246C145.099 286.392 146.773 285.15 148.825 285.15C149.743 285.15 150.733 285.348 151.633 285.654V285.366C151.633 284.196 151.093 282.954 149.239 282.954C148.321 282.954 147.421 283.314 146.611 283.728L145.963 282.414C147.295 281.748 148.465 281.478 149.491 281.478ZM148.879 289.812C150.031 289.812 151.327 289.236 151.633 288.084V286.842C150.877 286.608 150.013 286.482 149.095 286.482C147.853 286.482 146.809 287.184 146.809 288.192C146.809 289.2 147.709 289.812 148.879 289.812ZM155.956 291V278.418H157.72V291H155.956ZM168.832 291.216C167.464 291.216 165.97 290.73 164.854 289.83L165.7 288.552C166.69 289.272 167.752 289.686 168.85 289.686C169.894 289.686 170.614 289.2 170.614 288.48C170.614 287.616 169.66 287.346 168.508 287.022C166.366 286.428 165.304 285.816 165.304 284.304C165.286 282.594 166.708 281.478 168.688 281.478C169.894 281.478 171.118 281.892 172.126 282.558L171.334 283.872C170.434 283.314 169.498 283.008 168.688 283.008C167.77 283.008 167.05 283.404 167.05 284.106C167.05 284.826 167.626 285.042 169.192 285.528C170.722 285.978 172.36 286.482 172.36 288.336C172.36 290.1 170.866 291.216 168.832 291.216ZM175.313 280.146C174.701 280.146 174.233 279.642 174.233 279.066C174.233 278.508 174.701 278.004 175.313 278.004C175.889 278.004 176.375 278.508 176.375 279.066C176.375 279.642 175.889 280.146 175.313 280.146ZM174.413 291V281.694H176.195V291H174.413ZM178.377 291V289.668L183.597 283.296H178.485V281.694H185.937V283.026L180.717 289.398H185.973V291H178.377ZM192.39 289.632C193.362 289.632 194.496 289.2 195.054 288.624L196.17 289.776C195.342 290.658 193.722 291.216 192.408 291.216C189.816 291.216 187.62 289.182 187.62 286.32C187.62 283.53 189.69 281.478 192.264 281.478C195.108 281.478 196.746 283.638 196.746 286.968H189.42C189.654 288.516 190.788 289.632 192.39 289.632ZM192.336 283.062C190.896 283.062 189.726 284.034 189.438 285.546H195.018C194.82 284.106 193.938 283.062 192.336 283.062Z" fill="#172840"/>
<defs>
<filter id="filter0_d_1704_6042" x="0" y="0" width="422" height="399" filterUnits="userSpaceOnUse" color-interpolation-filters="sRGB">
<feFlood flood-opacity="0" result="BackgroundImageFix"/>
<feColorMatrix in="SourceAlpha" type="matrix" values="0 0 0 0 0 0 0 0 0 0 0 0 0 0 0 0 0 0 127 0" result="hardAlpha"/>
<feOffset dx="-20" dy="20"/>
<feGaussianBlur stdDeviation="20"/>
<feComposite in2="hardAlpha" operator="out"/>
<feColorMatrix type="matrix" values="0 0 0 0 0 0 0 0 0 0 0 0 0 0 0 0 0 0 0.25 0"/>
<feBlend mode="normal" in2="BackgroundImageFix" result="effect1_dropShadow_1704_6042"/>
<feBlend mode="normal" in="SourceGraphic" in2="effect1_dropShadow_1704_6042" result="shape"/>
</filter>
</defs>
</svg>
