<svg xmlns="http://www.w3.org/2000/svg" width="510" height="251" fill="none" viewBox="0 0 510 251"><g clip-path="url(#clip0_2794_400)"><path fill="#fff" d="M9.964 111.157H.026v-5.867h27.061v5.867h-9.936v25.248H9.964v-25.248ZM59.427 105.29v31.115H52.24v-12.757H38.135v12.757h-7.187V105.29h7.187v12.268H52.24V105.29h7.187ZM90.836 130.627v5.778H66.792V105.29H90.26v5.779H73.933v6.756h14.419v5.601H73.933v7.201h16.903ZM129.564 129.738h-14.419l-2.749 6.667h-7.365l13.842-31.115h7.098l13.884 31.115h-7.541l-2.75-6.667Zm-2.262-5.468-4.924-11.912-4.925 11.912h9.849ZM150.281 111.069v8.223h14.373v5.778h-14.373v11.335h-7.187V105.29h23.468v5.779h-16.281ZM191.227 136.405l-5.99-8.668h-6.608v8.668h-7.187V105.29h13.441c2.751 0 5.138.459 7.166 1.378 2.025.919 3.585 2.222 4.679 3.912 1.094 1.689 1.641 3.689 1.641 6 0 2.312-.554 4.305-1.663 5.979-1.11 1.674-2.684 2.956-4.724 3.845l6.965 10.001h-7.72Zm-.132-19.825c0-1.748-.563-3.089-1.686-4.022-1.124-.934-2.767-1.401-4.925-1.401h-5.855v10.846h5.855c2.158 0 3.801-.474 4.925-1.422 1.123-.948 1.686-2.282 1.686-4.001ZM211.234 105.29h-7.186v31.115h7.186V105.29ZM233.46 136.939c-3.165 0-6.026-.689-8.584-2.067-2.558-1.378-4.57-3.29-6.034-5.734-1.464-2.445-2.196-5.208-2.196-8.29 0-3.082.732-5.845 2.196-8.29 1.464-2.445 3.476-4.356 6.034-5.734 2.558-1.378 5.434-2.067 8.627-2.067 2.693 0 5.126.474 7.299 1.422s3.999 2.312 5.478 4.09l-4.613 4.267c-2.1-2.43-4.703-3.645-7.809-3.645-1.921 0-3.637.422-5.145 1.267a8.97 8.97 0 0 0-3.526 3.534c-.844 1.511-1.265 3.23-1.265 5.156 0 1.926.421 3.645 1.265 5.156a8.984 8.984 0 0 0 3.526 3.534c1.508.844 3.224 1.267 5.145 1.267 3.106 0 5.709-1.23 7.809-3.69l4.613 4.267c-1.479 1.808-3.313 3.186-5.501 4.134-2.188.949-4.629 1.423-7.319 1.423ZM270.946 129.738h-14.419l-2.749 6.667h-7.365l13.842-31.115h7.098l13.884 31.115h-7.541l-2.75-6.667Zm-2.262-5.468-4.924-11.912-4.925 11.912h9.849ZM25.457 164.592c1.98.628 3.53 1.677 4.652 3.148 1.122 1.471 1.681 3.28 1.681 5.429 0 3.041-1.18 5.379-3.537 7.015-2.358 1.636-5.798 2.454-10.316 2.454H.025v-34.704h16.921c4.224 0 7.464.809 9.724 2.429 2.26 1.619 3.39 3.817 3.39 6.594 0 1.685-.405 3.189-1.213 4.511-.807 1.322-1.938 2.364-3.39 3.124Zm-17.466-10.61v8.18h7.967c1.979 0 3.48-.347 4.503-1.041 1.02-.694 1.533-1.718 1.533-3.074 0-1.355-.513-2.371-1.533-3.049-1.024-.677-2.524-1.016-4.503-1.016H7.991Zm9.35 22.608c2.113 0 3.705-.347 4.777-1.042 1.073-.694 1.607-1.768 1.607-3.222 0-2.876-2.127-4.313-6.383-4.313H7.99v8.577h9.35ZM54.651 183.233c-3.596 0-6.837-.776-9.724-2.33-2.886-1.553-5.146-3.693-6.778-6.42-1.634-2.727-2.449-5.793-2.449-9.197 0-3.404.815-6.47 2.45-9.197 1.631-2.726 3.89-4.867 6.777-6.42s6.128-2.33 9.724-2.33c3.594 0 6.827.777 9.698 2.33 2.87 1.553 5.13 3.694 6.778 6.42 1.648 2.727 2.475 5.793 2.475 9.197 0 3.404-.827 6.47-2.475 9.197-1.648 2.727-3.908 4.867-6.778 6.42-2.87 1.554-6.104 2.33-9.698 2.33Zm0-6.841c2.044 0 3.891-.472 5.542-1.413 1.648-.942 2.943-2.256 3.884-3.942.94-1.686 1.41-3.603 1.41-5.751s-.47-4.065-1.41-5.751c-.941-1.686-2.236-2.999-3.884-3.941-1.65-.942-3.498-1.413-5.542-1.413-2.046 0-3.894.471-5.542 1.413a10.11 10.11 0 0 0-3.884 3.941c-.941 1.686-1.41 3.603-1.41 5.751s.469 4.065 1.41 5.751c.939 1.686 2.233 3 3.884 3.942 1.648.941 3.496 1.413 5.542 1.413ZM101.705 182.638l-6.68-9.668h-7.37v9.668h-8.017v-34.704h14.991c3.07 0 5.732.512 7.991 1.537 2.26 1.024 4.002 2.478 5.221 4.362 1.22 1.884 1.831 4.115 1.831 6.693 0 2.578-.618 4.801-1.856 6.669-1.236 1.867-2.992 3.297-5.268 4.288l7.766 11.155h-8.609Zm-.148-22.112c0-1.95-.627-3.445-1.88-4.486-1.253-1.042-3.083-1.562-5.493-1.562h-6.53v12.097h6.53c2.41 0 4.24-.529 5.493-1.587 1.253-1.057 1.88-2.545 1.88-4.462ZM116.006 147.934h15.733c3.761 0 7.085.718 9.97 2.156 2.887 1.438 5.13 3.462 6.729 6.073 1.601 2.612 2.4 5.652 2.4 9.123 0 3.47-.799 6.511-2.4 9.122-1.599 2.611-3.842 4.636-6.729 6.073-2.885 1.438-6.209 2.157-9.97 2.157h-15.733v-34.704Zm15.338 28.11c3.462 0 6.225-.967 8.288-2.9 2.06-1.934 3.093-4.553 3.093-7.858 0-3.305-1.033-5.925-3.093-7.858-2.063-1.934-4.826-2.901-8.288-2.901h-7.324v21.517h7.324ZM183.693 176.193v6.445h-26.817v-34.704h26.174v6.445h-18.209v7.536h16.08v6.246h-16.08v8.032h18.852ZM212.143 182.638l-6.677-9.668h-7.373v9.668h-8.017v-34.704h14.992c3.069 0 5.731.512 7.991 1.537 2.259 1.024 4.001 2.478 5.221 4.362 1.22 1.884 1.831 4.115 1.831 6.693 0 2.578-.618 4.801-1.857 6.669-1.236 1.867-2.992 3.297-5.268 4.288l7.768 11.155h-8.611Zm-.147-22.112c0-1.95-.628-3.445-1.88-4.486-1.253-1.042-3.084-1.562-5.493-1.562h-6.53v12.097h6.53c2.409 0 4.24-.529 5.493-1.587 1.252-1.057 1.88-2.545 1.88-4.462ZM226.444 147.934h8.014v28.16h17.368v6.544h-25.382v-34.704ZM283.149 176.193v6.445h-26.82v-34.704h26.176v6.445h-18.209v7.536h16.08v6.246h-16.08v8.032h18.853ZM300.91 183.233c-2.737 0-5.385-.372-7.942-1.115-2.554-.744-4.608-1.711-6.16-2.901l2.723-6.048c1.484 1.091 3.248 1.967 5.294 2.628 2.044.661 4.09.991 6.134.991 2.278 0 3.959-.339 5.048-1.016 1.089-.678 1.632-1.578 1.632-2.702 0-.827-.321-1.512-.965-2.058-.641-.545-1.468-.983-2.472-1.314-1.007-.33-2.367-.694-4.083-1.09-2.639-.628-4.8-1.256-6.481-1.884-1.684-.628-3.126-1.636-4.329-3.024-1.206-1.389-1.808-3.24-1.808-5.553 0-2.016.546-3.842 1.634-5.479 1.089-1.636 2.728-2.933 4.922-3.891 2.194-.959 4.875-1.438 8.042-1.438 2.211 0 4.369.264 6.481.793s3.959 1.289 5.542 2.281l-2.475 6.098c-3.198-1.818-6.399-2.727-9.599-2.727-2.243 0-3.901.364-4.973 1.091-1.07.727-1.606 1.685-1.606 2.875s.618 2.074 1.854 2.653c1.239.578 3.126 1.148 5.666 1.71 2.639.628 4.8 1.256 6.481 1.884a10.742 10.742 0 0 1 4.331 2.975c1.204 1.355 1.805 3.189 1.805 5.503a9.49 9.49 0 0 1-1.657 5.429c-1.105 1.636-2.763 2.933-4.973 3.892-2.21.958-4.898 1.437-8.066 1.437ZM332.478 183.233c-2.737 0-5.385-.372-7.942-1.115-2.554-.744-4.607-1.711-6.16-2.901l2.723-6.048c1.485 1.091 3.248 1.967 5.294 2.628 2.044.661 4.09.991 6.134.991 2.278 0 3.959-.339 5.048-1.016 1.089-.678 1.632-1.578 1.632-2.702 0-.827-.321-1.512-.964-2.058-.644-.545-1.469-.983-2.473-1.314-1.007-.33-2.367-.694-4.083-1.09-2.639-.628-4.8-1.256-6.481-1.884-1.684-.628-3.126-1.636-4.332-3.024-1.203-1.389-1.805-3.24-1.805-5.553 0-2.016.546-3.842 1.635-5.479 1.086-1.636 2.727-2.933 4.921-3.891 2.194-.959 4.875-1.438 8.04-1.438 2.21 0 4.371.264 6.483.793 2.112.529 3.959 1.289 5.542 2.281l-2.475 6.098c-3.2-1.818-6.398-2.727-9.599-2.727-2.243 0-3.901.364-4.973 1.091s-1.606 1.685-1.606 2.875.618 2.074 1.854 2.653c1.236.578 3.126 1.148 5.666 1.71 2.639.628 4.8 1.256 6.481 1.884a10.722 10.722 0 0 1 4.329 2.975c1.206 1.355 1.808 3.189 1.808 5.503a9.491 9.491 0 0 1-1.658 5.429c-1.105 1.636-2.763 2.933-4.973 3.892-2.21.958-4.898 1.437-8.066 1.437ZM9.507 213.337c-1.8 0-3.422-.399-4.87-1.197a8.793 8.793 0 0 1-3.405-3.296c-.824-1.399-1.235-2.975-1.235-4.726s.411-3.326 1.235-4.725c.821-1.399 1.962-2.498 3.417-3.296 1.457-.798 3.084-1.198 4.883-1.198 1.406 0 2.691.236 3.855.709a7.9 7.9 0 0 1 2.983 2.098l-1.67 1.623c-1.355-1.425-3.043-2.138-5.065-2.138-1.336 0-2.545.301-3.623.902a6.526 6.526 0 0 0-2.531 2.485c-.608 1.055-.914 2.236-.914 3.54 0 1.305.306 2.485.914 3.541a6.532 6.532 0 0 0 2.53 2.485c1.08.601 2.288.901 3.624.901 2.005 0 3.692-.721 5.064-2.163l1.67 1.623a8.008 8.008 0 0 1-2.994 2.111c-1.175.481-2.464.721-3.868.721ZM22.049 201.775c.427-.79 1.063-1.39 1.902-1.802.838-.412 1.859-.619 3.057-.619v2.395a4.852 4.852 0 0 0-.565-.025c-1.335 0-2.386.399-3.148 1.197s-1.143 1.936-1.143 3.412v6.798h-2.469v-13.648h2.366v2.292ZM42.224 206.385c0 .188-.019.437-.053.746H31.12c.156 1.202.681 2.168 1.581 2.897.9.73 2.017 1.095 3.355 1.095 1.627 0 2.937-.55 3.93-1.648l1.364 1.596a5.968 5.968 0 0 1-2.3 1.648c-.917.378-1.94.567-3.072.567-1.439 0-2.715-.296-3.83-.889a6.323 6.323 0 0 1-2.582-2.485c-.608-1.064-.913-2.266-.913-3.605 0-1.322.296-2.515.888-3.579a6.346 6.346 0 0 1 2.442-2.485c1.035-.592 2.205-.889 3.506-.889 1.303 0 2.465.297 3.483.889a6.253 6.253 0 0 1 2.391 2.485c.574 1.064.86 2.283.86 3.657Zm-6.735-4.945c-1.182 0-2.17.361-2.967 1.082-.796.721-1.264 1.665-1.402 2.833h8.738c-.136-1.151-.603-2.091-1.4-2.82-.796-.73-1.785-1.095-2.97-1.095ZM50.216 199.354c1.884 0 3.328.464 4.33 1.391 1.003.927 1.503 2.309 1.503 4.146v8.24h-2.338v-1.802c-.41.635-.998 1.12-1.76 1.455-.762.335-1.666.502-2.712.502-1.524 0-2.745-.369-3.663-1.107-.915-.739-1.374-1.709-1.374-2.91 0-1.202.438-2.168 1.31-2.897.874-.73 2.263-1.095 4.165-1.095h3.906v-.489c0-1.064-.308-1.88-.925-2.446-.618-.567-1.526-.85-2.724-.85-.806 0-1.595.133-2.366.399-.77.266-1.42.622-1.953 1.069l-1.028-1.854c.702-.567 1.542-1 2.52-1.301.975-.3 2.012-.451 3.11-.451Zm-.564 12.026c.94 0 1.755-.21 2.441-.631a3.607 3.607 0 0 0 1.49-1.789v-1.906H49.78c-2.09 0-3.137.704-3.137 2.112 0 .686.267 1.227.797 1.622.532.395 1.269.592 2.212.592ZM68.284 212.333c-.36.309-.805.545-1.337.708a5.566 5.566 0 0 1-1.646.245c-1.37 0-2.432-.369-3.187-1.107-.753-.739-1.13-1.794-1.13-3.168v-7.493h-2.312v-2.035h2.313v-2.987h2.467v2.987h3.905v2.035h-3.905v7.39c0 .738.183 1.305.553 1.7.367.395.895.592 1.58.592.753 0 1.396-.215 1.926-.644l.773 1.777ZM71.265 199.483h2.467v13.648h-2.467v-13.648Zm1.232-2.626c-.48 0-.876-.155-1.193-.464a1.516 1.516 0 0 1-.477-1.133c0-.446.158-.828.477-1.146.317-.318.714-.476 1.193-.476.48 0 .88.15 1.196.45.316.301.475.674.475 1.121 0 .463-.159.854-.475 1.171-.317.318-.716.477-1.196.477ZM90.487 199.483l-5.961 13.649h-2.52l-5.961-13.649h2.57l4.676 10.945 4.782-10.945h2.414ZM104.726 206.385c0 .188-.016.437-.051.746h-11.05c.153 1.202.678 2.168 1.58 2.897.9.73 2.017 1.095 3.353 1.095 1.627 0 2.939-.55 3.933-1.648l1.361 1.596a5.973 5.973 0 0 1-2.3 1.648c-.918.378-1.941.567-3.07.567-1.441 0-2.717-.296-3.83-.889a6.316 6.316 0 0 1-2.584-2.485c-.608-1.064-.91-2.266-.91-3.605 0-1.322.293-2.515.885-3.579a6.346 6.346 0 0 1 2.442-2.485c1.037-.592 2.205-.889 3.508-.889 1.301 0 2.462.297 3.481.889a6.22 6.22 0 0 1 2.391 2.485c.574 1.064.861 2.283.861 3.657Zm-6.733-4.945c-1.181 0-2.173.361-2.97 1.082-.795.721-1.263 1.665-1.399 2.833h8.738c-.137-1.151-.606-2.091-1.402-2.82-.796-.73-1.785-1.095-2.967-1.095ZM128.473 210.891v2.24h-13.056v-18.026h12.696v2.241h-10.126v5.536h9.02v2.189h-9.02v5.82h10.486ZM138.033 213.286c-1.388 0-2.625-.301-3.713-.901a6.616 6.616 0 0 1-2.559-2.485c-.614-1.056-.924-2.254-.924-3.593s.31-2.536.924-3.592a6.515 6.515 0 0 1 2.559-2.472c1.088-.592 2.325-.889 3.713-.889 1.234 0 2.333.249 3.302.747a5.307 5.307 0 0 1 2.248 2.163l-1.874 1.211c-.429-.653-.959-1.142-1.595-1.468a4.535 4.535 0 0 0-2.107-.489c-.89 0-1.691.197-2.402.592a4.213 4.213 0 0 0-1.671 1.687c-.403.729-.603 1.566-.603 2.51 0 .962.2 1.807.603 2.537a4.21 4.21 0 0 0 1.671 1.686c.711.395 1.512.593 2.402.593.771 0 1.474-.163 2.107-.49.636-.326 1.166-.815 1.595-1.467l1.874 1.184a5.384 5.384 0 0 1-2.248 2.176c-.969.507-2.068.76-3.302.76ZM152.4 213.286c-1.354 0-2.57-.301-3.649-.901a6.534 6.534 0 0 1-2.533-2.485c-.608-1.056-.911-2.254-.911-3.593s.303-2.536.911-3.592a6.434 6.434 0 0 1 2.533-2.472c1.079-.592 2.295-.889 3.649-.889s2.565.297 3.637.889a6.466 6.466 0 0 1 2.517 2.472c.608 1.056.913 2.253.913 3.592s-.305 2.537-.913 3.593a6.567 6.567 0 0 1-2.517 2.485c-1.072.6-2.283.901-3.637.901Zm0-2.163c.874 0 1.656-.202 2.352-.605a4.273 4.273 0 0 0 1.631-1.7c.395-.73.592-1.566.592-2.511 0-.944-.197-1.781-.592-2.51a4.182 4.182 0 0 0-1.631-1.687c-.696-.395-1.478-.592-2.352-.592-.875 0-1.657.197-2.352.592a4.283 4.283 0 0 0-1.646 1.687c-.401.729-.603 1.566-.603 2.51 0 .945.202 1.781.603 2.511.404.73.953 1.296 1.646 1.7.695.403 1.477.605 2.352.605ZM170.158 199.354c1.73 0 3.105.503 4.126 1.507 1.019 1.004 1.528 2.476 1.528 4.416v7.854h-2.467v-7.57c0-1.322-.316-2.318-.952-2.988-.633-.669-1.54-1.004-2.724-1.004-1.335 0-2.388.391-3.159 1.172-.771.781-1.157 1.901-1.157 3.36v7.03h-2.467v-13.648h2.364v2.06c.498-.704 1.17-1.244 2.017-1.622.849-.378 1.813-.567 2.891-.567ZM186.299 213.286c-1.354 0-2.57-.301-3.651-.901a6.536 6.536 0 0 1-2.531-2.485c-.608-1.056-.913-2.254-.913-3.593s.305-2.536.913-3.592a6.436 6.436 0 0 1 2.531-2.472c1.081-.592 2.297-.889 3.651-.889 1.354 0 2.565.297 3.637.889a6.466 6.466 0 0 1 2.517 2.472c.608 1.056.913 2.253.913 3.592s-.305 2.537-.913 3.593a6.567 6.567 0 0 1-2.517 2.485c-1.072.6-2.283.901-3.637.901Zm0-2.163c.874 0 1.656-.202 2.349-.605a4.267 4.267 0 0 0 1.634-1.7c.392-.73.59-1.566.59-2.511 0-.944-.198-1.781-.59-2.51a4.176 4.176 0 0 0-1.634-1.687c-.693-.395-1.475-.592-2.349-.592-.875 0-1.659.197-2.352.592a4.27 4.27 0 0 0-1.646 1.687c-.401.729-.603 1.566-.603 2.51 0 .945.202 1.781.603 2.511.402.73.953 1.296 1.646 1.7.693.403 1.477.605 2.352.605ZM213.823 199.354c1.712 0 3.071.498 4.073 1.494 1.003.996 1.503 2.472 1.503 4.429v7.854h-2.466v-7.57c0-1.322-.306-2.318-.914-2.988-.608-.669-1.477-1.004-2.606-1.004-1.251 0-2.245.391-2.984 1.172-.736.781-1.103 1.901-1.103 3.36v7.03h-2.467v-7.57c0-1.322-.305-2.318-.913-2.988-.608-.669-1.478-1.004-2.609-1.004-1.251 0-2.245.391-2.981 1.172-.737.781-1.106 1.901-1.106 3.36v7.03h-2.467v-13.648h2.366v2.035a4.771 4.771 0 0 1 1.953-1.61c.805-.369 1.72-.554 2.748-.554 1.063 0 2.006.215 2.828.644a4.464 4.464 0 0 1 1.902 1.88c.514-.79 1.23-1.408 2.146-1.854.917-.446 1.95-.67 3.097-.67ZM235.744 199.483l-6.604 15.013c-.583 1.391-1.264 2.369-2.042 2.936-.78.566-1.719.85-2.816.85a5.948 5.948 0 0 1-1.939-.322c-.626-.215-1.145-.528-1.555-.94l1.053-1.854c.702.669 1.517 1.004 2.441 1.004.601 0 1.102-.159 1.503-.476.404-.318.767-.863 1.093-1.635l.438-.953-6.014-13.623h2.569l4.755 10.919 4.704-10.919h2.414ZM250.575 213.337c-1.354 0-2.66-.21-3.92-.631-1.26-.42-2.248-.965-2.969-1.635l.952-2.008c.684.618 1.563 1.12 2.635 1.506a9.652 9.652 0 0 0 3.302.579c1.489 0 2.604-.253 3.341-.759.736-.507 1.103-1.181 1.103-2.022 0-.618-.199-1.12-.603-1.506a4.047 4.047 0 0 0-1.489-.889c-.592-.206-1.428-.437-2.506-.695-1.354-.326-2.446-.652-3.277-.978a5.424 5.424 0 0 1-2.134-1.507c-.592-.678-.886-1.592-.886-2.742 0-.962.253-1.829.758-2.601.504-.773 1.271-1.391 2.299-1.854 1.028-.464 2.306-.696 3.83-.696 1.062 0 2.108.138 3.134.412 1.028.275 1.912.67 2.648 1.185l-.847 2.06a9.315 9.315 0 0 0-2.416-1.094 9.016 9.016 0 0 0-2.519-.374c-1.458 0-2.55.266-3.277.799-.728.532-1.092 1.218-1.092 2.06 0 .618.206 1.12.617 1.506.411.386.92.687 1.528.901.608.215 1.437.442 2.481.683 1.353.326 2.441.652 3.265.978a5.483 5.483 0 0 1 2.118 1.494c.592.669.888 1.571.888 2.704a4.61 4.61 0 0 1-.771 2.588c-.514.781-1.294 1.399-2.338 1.854-1.047.455-2.332.682-3.855.682ZM273.627 199.483v13.649h-2.338v-2.061a4.97 4.97 0 0 1-1.967 1.636c-.815.386-1.7.579-2.659.579-1.815 0-3.247-.502-4.291-1.506-1.047-1.005-1.57-2.485-1.57-4.443v-7.854h2.469v7.571c0 1.322.317 2.322.95 3 .633.678 1.542 1.017 2.724 1.017 1.303 0 2.331-.394 3.084-1.184.755-.79 1.131-1.906 1.131-3.348v-7.056h2.467ZM295.368 199.354c1.715 0 3.073.498 4.073 1.494 1.003.996 1.506 2.472 1.506 4.429v7.854h-2.469v-7.57c0-1.322-.303-2.318-.911-2.988-.608-.669-1.478-1.004-2.609-1.004-1.251 0-2.244.391-2.981 1.172-.736.781-1.106 1.901-1.106 3.36v7.03h-2.467v-7.57c0-1.322-.303-2.318-.913-2.988-.608-.669-1.475-1.004-2.607-1.004-1.25 0-2.244.391-2.981 1.172-.738.781-1.106 1.901-1.106 3.36v7.03h-2.466v-13.648h2.363v2.035a4.79 4.79 0 0 1 1.953-1.61c.805-.369 1.723-.554 2.751-.554 1.063 0 2.003.215 2.827.644a4.48 4.48 0 0 1 1.902 1.88c.514-.79 1.228-1.408 2.146-1.854.916-.446 1.948-.67 3.095-.67ZM322.535 199.354c1.712 0 3.07.498 4.073 1.494 1.003.996 1.503 2.472 1.503 4.429v7.854h-2.467v-7.57c0-1.322-.305-2.318-.913-2.988-.608-.669-1.477-1.004-2.609-1.004-1.25 0-2.244.391-2.981 1.172-.736.781-1.103 1.901-1.103 3.36v7.03h-2.469v-7.57c0-1.322-.303-2.318-.911-2.988-.608-.669-1.478-1.004-2.609-1.004-1.251 0-2.245.391-2.981 1.172-.737.781-1.106 1.901-1.106 3.36v7.03h-2.467v-13.648h2.364v2.035a4.79 4.79 0 0 1 1.955-1.61c.805-.369 1.721-.554 2.749-.554 1.062 0 2.005.215 2.827.644a4.475 4.475 0 0 1 1.902 1.88c.514-.79 1.23-1.408 2.145-1.854.918-.446 1.949-.67 3.098-.67ZM332.659 199.483h2.469v13.648h-2.469v-13.648Zm1.235-2.626c-.48 0-.879-.155-1.196-.464a1.525 1.525 0 0 1-.475-1.133c0-.446.159-.828.475-1.146.317-.318.716-.476 1.196-.476.479 0 .879.15 1.195.45.317.301.475.674.475 1.121 0 .463-.158.854-.475 1.171-.316.318-.716.477-1.195.477ZM347.49 212.333c-.361.309-.806.545-1.338.708a5.564 5.564 0 0 1-1.643.245c-1.372 0-2.435-.369-3.187-1.107-.755-.739-1.132-1.794-1.132-3.168v-7.493h-2.313v-2.035h2.313v-2.987h2.467v2.987h3.908v2.035h-3.908v7.39c0 .738.184 1.305.553 1.7.367.395.895.592 1.581.592.753 0 1.395-.215 1.928-.644l.771 1.777Z"/><path fill="#F25849" d="M16.141 245.105H6.66l-1.808 4.385H.009l9.102-20.461h4.666l9.131 20.461h-4.96l-1.807-4.385Zm-1.488-3.595-3.239-7.833-3.237 7.833h6.476ZM33.876 229.029c1.81 0 3.38.302 4.712.906 1.332.604 2.358 1.462 3.078 2.573.72 1.11 1.079 2.426 1.079 3.946 0 1.5-.36 2.81-1.079 3.931-.72 1.12-1.746 1.978-3.078 2.572-1.332.594-2.903.892-4.712.892h-4.112v5.641h-4.726v-20.461h8.838Zm-.261 10.961c1.419 0 2.498-.307 3.237-.92.739-.614 1.109-1.486 1.109-2.616 0-1.15-.37-2.032-1.109-2.646-.739-.614-1.818-.92-3.237-.92h-3.851v7.102h3.85ZM59.11 249.49l-3.939-5.7h-4.346v5.7H46.1v-20.461h8.839c1.809 0 3.378.302 4.711.906 1.332.604 2.357 1.462 3.077 2.573.72 1.11 1.08 2.426 1.08 3.946s-.365 2.83-1.095 3.931c-.728 1.101-1.765 1.944-3.106 2.528l4.58 6.577H59.11Zm-.088-13.036c0-1.15-.369-2.032-1.107-2.646-.74-.614-1.82-.92-3.24-.92h-3.85v7.132h3.85c1.42 0 2.5-.312 3.24-.936.738-.623 1.107-1.5 1.107-2.63ZM72.266 229.029H67.54v20.461h4.726v-20.461ZM77.109 229.029h4.725v16.603h10.24v3.858H77.11v-20.461ZM116.957 245.632v3.858h-15.432v-3.069l7.876-7.454c.837-.798 1.401-1.485 1.693-2.06.292-.575.437-1.145.437-1.71 0-.819-.277-1.447-.832-1.885-.553-.439-1.365-.658-2.434-.658-.896 0-1.702.17-2.423.511a4.665 4.665 0 0 0-1.809 1.535l-3.441-2.221c.797-1.189 1.897-2.12 3.296-2.792 1.401-.672 3.005-1.008 4.814-1.008 1.516 0 2.843.248 3.981.745s2.023 1.198 2.655 2.105c.633.906.948 1.973.948 3.2a7.146 7.146 0 0 1-.7 3.128c-.467.974-1.371 2.085-2.713 3.332l-4.697 4.443h8.781ZM127.604 249.841c-1.691 0-3.198-.419-4.52-1.257-1.323-.838-2.359-2.051-3.108-3.639-.748-1.588-1.122-3.483-1.122-5.685 0-2.202.374-4.097 1.122-5.685.749-1.589 1.785-2.802 3.108-3.639 1.322-.838 2.829-1.257 4.52-1.257 1.693 0 3.199.419 4.522 1.257 1.323.837 2.358 2.05 3.108 3.639.748 1.588 1.122 3.483 1.122 5.685 0 2.202-.374 4.097-1.122 5.685-.75 1.588-1.785 2.801-3.108 3.639-1.323.838-2.829 1.257-4.522 1.257Zm0-4.005c1.245 0 2.222-.536 2.933-1.607.71-1.072 1.065-2.728 1.065-4.969s-.355-3.898-1.065-4.969c-.711-1.072-1.688-1.608-2.933-1.608-1.225 0-2.192.536-2.902 1.608-.71 1.071-1.065 2.728-1.065 4.969s.355 3.897 1.065 4.969c.71 1.071 1.677 1.607 2.902 1.607ZM153.742 245.632v3.858h-15.431v-3.069l7.875-7.454c.837-.798 1.401-1.485 1.693-2.06.292-.575.437-1.145.437-1.71 0-.819-.276-1.447-.831-1.885-.554-.439-1.366-.658-2.436-.658-.894 0-1.701.17-2.421.511a4.634 4.634 0 0 0-1.808 1.535l-3.443-2.221c.797-1.189 1.896-2.12 3.296-2.792 1.401-.672 3.005-1.008 4.814-1.008 1.517 0 2.843.248 3.981.745s2.023 1.198 2.655 2.105c.633.906.948 1.973.948 3.2a7.16 7.16 0 0 1-.7 3.128c-.467.974-1.371 2.085-2.713 3.332l-4.697 4.443h8.781ZM165.469 236.658c1.303 0 2.49.263 3.559.79 1.07.526 1.916 1.271 2.538 2.236.623.964.933 2.08.933 3.346 0 1.364-.34 2.563-1.02 3.596-.681 1.032-1.61 1.826-2.786 2.382-1.176.555-2.485.833-3.924.833-2.859 0-5.095-.877-6.709-2.631-1.614-1.754-2.421-4.258-2.421-7.512 0-2.319.437-4.306 1.312-5.963.875-1.656 2.095-2.913 3.661-3.77 1.566-.858 3.379-1.286 5.441-1.286 1.089 0 2.134.121 3.135.365 1.002.244 1.853.59 2.553 1.038l-1.75 3.478c-1.012-.682-2.285-1.023-3.822-1.023-1.731 0-3.101.507-4.113 1.52-1.011 1.013-1.556 2.484-1.634 4.414 1.207-1.209 2.889-1.813 5.047-1.813Zm-.962 9.646c1.011 0 1.832-.273 2.464-.818.633-.546.948-1.287.948-2.222s-.315-1.681-.948-2.236c-.632-.555-1.473-.833-2.522-.833-1.031 0-1.878.288-2.539.862-.66.575-.992 1.311-.992 2.207 0 .897.321 1.627.963 2.192.641.565 1.517.848 2.626.848Z"/><path fill="#fff" fill-rule="evenodd" d="m364.895 141.779-13.484-28.657-41.915 8.681L274.752 77.7l38.58-66.42L368.486.026l20.905 17.912 21.53 2.37c2.556-6.458 8.85-11.024 16.202-11.02 8.68.007 15.89 6.373 17.223 14.694l10.166 1.115 11.647 45.223 39.007-4.006 4.747 36.367-43.023 40.941-.823 6.515c7.661 1.721 13.39 8.578 13.392 16.767.007 9.48-7.675 17.172-17.141 17.163-.178.002-.36.001-.539-.009l-.745 5.873-18.019 36.696-45.99 24.246-28.456-55.283 2.244-28.066c-5.514-2.94-9.274-8.75-9.276-15.433a17.402 17.402 0 0 1 3.358-10.311Zm12.656 27.719-1.972 24.69 24.377 47.35 34.089-17.972-48.207-55.412a17.365 17.365 0 0 1-8.287 1.344Zm13.98-5.283 47.596 54.715 15.234-31.015.687-5.467c-5.813-2.737-9.854-8.645-9.887-15.492l-49.406-10.109a17.394 17.394 0 0 1-4.224 7.368Zm4.736-14.29 50.238 10.275c2.21-5.227 6.932-9.132 12.648-10.197l.678-5.362-8.224-25.004c-6.471-.978-11.781-5.528-13.871-11.571l-38.944-3.216-12.651 31.337c5.414 2.457 9.358 7.607 10.126 13.738Zm-16.924-15.287 37.792-93.596a17.615 17.615 0 0 1-3.8-3.632l-35.431 18.219c.268 1.214.407 2.47.407 3.759.006 9.636-7.806 17.456-17.427 17.453a17.406 17.406 0 0 1-12.96-5.796l-49.579 25.493 13.914 17.658 43.062-8.917 14.914 31.699a17.282 17.282 0 0 1 8.729-2.341l.379.001Zm-10.067 16.453a9.735 9.735 0 0 0 2.267 7.315 9.735 9.735 0 0 0 8.741 3.365 9.732 9.732 0 0 0 6.159-3.4 9.817 9.817 0 0 0 1.742-3.075c.342-.999.53-2.074.531-3.195a9.77 9.77 0 0 0-.804-3.886 9.815 9.815 0 0 0-4.656-4.881 9.729 9.729 0 0 0-4.291-1.002 9.788 9.788 0 0 0-5.429 1.659 9.736 9.736 0 0 0-4.26 7.1Zm-17.79-94.339a9.572 9.572 0 0 0-.353 2.62c-.003.74.081 1.46.236 2.154a9.765 9.765 0 0 0 3.832 5.779 9.684 9.684 0 0 0 5.679 1.834c5.381.001 9.743-4.368 9.744-9.756l-.002-.011a9.746 9.746 0 0 0-2.465-6.476 9.738 9.738 0 0 0-7.284-3.282 9.731 9.731 0 0 0-5.241 1.531 9.76 9.76 0 0 0-4.146 5.607Zm112.904 79.746 38.252-36.4-3.426-26.248-38.233 3.922-11.943-46.345-4.959-.547a17.495 17.495 0 0 1-10.46 12.087l14.195 43.154a17.402 17.402 0 0 1 6.389-1.21c9.626.006 17.438 7.836 17.445 17.472.002 8.08-5.486 14.882-12.934 16.866l5.674 17.249Zm-11.524 32.035a9.615 9.615 0 0 0 3.225 5.661 9.568 9.568 0 0 0 6.226 2.301c.139 0 .279-.005.42-.009 5.094-.219 9.164-4.431 9.16-9.588.001-4.321-2.858-7.983-6.788-9.191a9.672 9.672 0 0 0-2.802-.418 9.484 9.484 0 0 0-4.198.968 9.63 9.63 0 0 0-3.917 3.518 9.555 9.555 0 0 0-1.469 5.11c-.001.563.05 1.113.143 1.648ZM316.057 20.3l-33.005 56.82 10.952 13.907 50.406-25.919a17.366 17.366 0 0 1-.965-5.742 17.327 17.327 0 0 1 2.243-8.577L316.057 20.3Zm93.643 6.8-23.164-2.546-19.964-17.107L322 16.545l28.204 29.02a17.317 17.317 0 0 1 10.667-3.646c5.881 0 11.083 2.927 14.244 7.4l35.168-18.083a17.425 17.425 0 0 1-.583-4.137Zm13.736 16.711L401.49 98.166l35.335 2.912a17.426 17.426 0 0 1 5.043-11.042l-15.077-45.83a17.027 17.027 0 0 1-3.355-.395Zm23.469 65.008a9.691 9.691 0 0 0 1.63 1.479 9.7 9.7 0 0 0 5.683 1.836 9.75 9.75 0 0 0 9.744-9.756c-.004-5.39-4.371-9.762-9.753-9.764a9.606 9.606 0 0 0-3.979.847 9.763 9.763 0 0 0-5.293 5.908 9.562 9.562 0 0 0-.446 2.344c-.014.217-.024.435-.025.657a9.744 9.744 0 0 0 2.439 6.449Zm-15.702-73.193a9.804 9.804 0 0 0 5.116-5.597 9.802 9.802 0 0 0-.156-6.949c-1.453-3.57-4.954-6.09-9.036-6.09-3.327-.005-6.262 1.67-8.022 4.213a9.748 9.748 0 0 0-1.721 5.542c.005 5.385 4.374 9.764 9.752 9.764a9.665 9.665 0 0 0 4.067-.883Z" clip-rule="evenodd"/><path fill="#fff" fill-rule="evenodd" d="m371.452 158.332-1.444-.588.389-.964c.304.551.658 1.068 1.055 1.552Z" clip-rule="evenodd"/><path fill="#83C0D8" d="M360.854 69.127c5.382 0 9.745-4.371 9.745-9.764 0-5.392-4.363-9.763-9.745-9.763-5.381 0-9.744 4.37-9.744 9.763 0 5.392 4.363 9.764 9.744 9.764Z"/><path fill="#172840" d="M378.906 161.857c5.382 0 9.745-4.371 9.745-9.763 0-5.393-4.363-9.764-9.745-9.764-5.381 0-9.744 4.371-9.744 9.764 0 5.392 4.363 9.763 9.744 9.763Z"/><path fill="#fff" fill-rule="evenodd" d="M371.489 158.414c0-.035-.058-.064-.058-.099l.058.035v.064Z" clip-rule="evenodd"/><path fill="#F1B606" d="M462.258 176.464c5.294 0 9.585-4.3 9.585-9.605 0-5.304-4.291-9.604-9.585-9.604-5.294 0-9.586 4.3-9.586 9.604 0 5.305 4.292 9.605 9.586 9.605Z"/><path fill="#F25849" d="M454.156 112.081c5.382 0 9.745-4.371 9.745-9.764 0-5.392-4.363-9.763-9.745-9.763-5.381 0-9.744 4.371-9.744 9.763 0 5.393 4.363 9.764 9.744 9.764Z"/><path fill="#172840" d="M427.109 36.457c5.382 0 9.744-4.371 9.744-9.764 0-5.392-4.362-9.763-9.744-9.763s-9.744 4.371-9.744 9.763c0 5.393 4.362 9.764 9.744 9.764Z"/></g><defs><clipPath id="clip0_2794_400"><path fill="#fff" d="M0 0h510v251H0z"/></clipPath></defs></svg>