<svg width="829" height="1117" viewBox="0 0 829 1117" fill="none" xmlns="http://www.w3.org/2000/svg">
<path d="M96.8324 1138.97L403.123 1055.91L265.917 1345.72C265.917 1345.72 190.201 1245.04 96.8324 1138.97Z" fill="#F15849"/>
<path d="M-171.738 894.765L113.839 758.007L30.7281 1068.73C30.7281 1068.73 -45.1642 992.734 -171.738 894.765Z" fill="#F15849"/>
<path d="M-24.2643 1131.81C-60.0287 1092.19 -120.165 1085.42 -162.581 1117.66C-207.316 1151.66 -215.392 1216.17 -180.617 1261.75C-178.814 1264.11 -176.922 1266.38 -174.961 1268.55C-139.194 1308.18 -79.0645 1314.95 -36.6508 1282.71C8.08693 1248.71 16.1629 1184.21 -18.6119 1138.62C-20.4182 1136.25 -22.3068 1133.98 -24.2643 1131.81ZM-51.2131 1156.14C-49.9092 1157.58 -48.646 1159.1 -47.4587 1160.66C-36.22 1175.39 -31.3972 1193.43 -33.8759 1211.45C-36.2248 1228.55 -44.9763 1243.63 -58.5046 1253.91C-85.3722 1274.33 -124.688 1270.08 -148.016 1244.23C-149.32 1242.79 -150.58 1241.27 -151.77 1239.71C-163.006 1224.98 -167.832 1206.94 -165.35 1188.91C-163.001 1171.82 -154.259 1156.74 -140.725 1146.46C-113.853 1126.04 -74.5414 1130.29 -51.2131 1156.14Z" fill="#F15849"/>
<path d="M294.886 1389.89L435.636 1098.52C435.636 1098.52 491.771 1168.03 532.035 1229.77L294.886 1389.89Z" fill="#F3B719"/>
<path d="M-218.641 863.353L72.2552 723.223C72.2552 723.223 3.19644 666.629 -58.1763 625.987L-218.641 863.353Z" fill="#F3B719"/>
<path d="M304.026 940.941C206.814 833.231 161.738 797.666 161.738 797.666L67.5037 1107.81L372.78 1019.32C347.481 989.731 324.592 963.728 304.026 940.941ZM268.614 972.927C274.922 979.917 281.337 987.095 287.845 994.425L138.531 1037.7L185.063 884.562C206.311 905.768 234.084 934.668 268.608 972.92L268.614 972.927Z" fill="#87C1D9"/>
</svg>
