<?xml version="1.0" encoding="UTF-8"?><svg id="Layer_2" xmlns="http://www.w3.org/2000/svg" viewBox="0 0 741.72 244.03"><defs><style>.cls-1{fill:#f1f1f1;}</style></defs><g id="Layer_1-2"><polygon class="cls-1" points="108.64 110.51 130.17 132.04 240.58 21.63 240.58 .1 219.05 .1 108.64 110.51"/><polygon class="cls-1" points="0 .15 208.25 .15 178.36 30.04 30.86 30.04 0 .15"/><polygon class="cls-1" points="104.12 104.85 83.48 84.21 167.42 .27 208.25 .27 104.12 104.85"/><polygon class="cls-1" points="240.7 240.06 240.7 31.82 210.81 61.7 210.81 209.2 240.7 240.06"/><polygon class="cls-1" points="136 135.94 156.64 156.58 240.58 72.64 240.58 31.82 136 135.94"/><path class="cls-1" d="M267.02,62.13L290.04,0h6.55l22.89,62.13h-6l-6.63-18.43h-27.19l-6.71,18.43h-5.92ZM281.49,38.61h23.52l-6.25-17.47c-.78-2.14-1.59-4.46-2.44-6.96-.85-2.5-1.84-5.48-2.98-8.92-1.14,3.45-2.14,6.42-3,8.92-.86,2.5-1.68,4.82-2.46,6.96l-6.38,17.47Z"/><path class="cls-1" d="M330.86,0v62.13h-5.34V0h5.34Z"/><path class="cls-1" d="M346.78,0v62.13h-5.34V0h5.34Z"/><path class="cls-1" d="M360.04,8.55c-1.06,0-1.97-.38-2.73-1.13-.77-.75-1.15-1.67-1.15-2.75s.38-2,1.15-2.75c.76-.75,1.67-1.13,2.73-1.13s1.97.38,2.73,1.13c.77.75,1.15,1.67,1.15,2.75s-.38,2-1.15,2.75c-.76.75-1.67,1.13-2.73,1.13ZM357.37,62.13V18.1h5.34v44.03h-5.34Z"/><path class="cls-1" d="M386.31,62.8c-2.78,0-5.32-.48-7.63-1.44-2.31-.96-4.14-2.4-5.5-4.34-1.36-1.93-2.04-4.33-2.04-7.19,0-3.06.76-5.43,2.27-7.13,1.51-1.7,3.61-2.96,6.29-3.79,2.68-.83,5.75-1.47,9.2-1.92,4.09-.56,7.07-1.05,8.95-1.48,1.87-.43,2.81-1.51,2.81-3.23v-.67c0-2.72-1.02-4.98-3.06-6.78-2.04-1.79-4.75-2.69-8.11-2.69s-6.2.88-8.42,2.63c-2.23,1.75-3.39,3.92-3.5,6.5h-5.42c.08-2.67.88-5.05,2.38-7.15,1.5-2.1,3.54-3.76,6.11-4.98,2.57-1.22,5.53-1.83,8.86-1.83s6.16.6,8.63,1.81c2.47,1.21,4.41,2.89,5.8,5.05,1.39,2.15,2.08,4.64,2.08,7.44v30.52h-5.34v-7.21h-.13c-.95,2.06-2.57,3.89-4.86,5.48-2.3,1.6-5.42,2.4-9.36,2.4ZM386.97,57.92c4.39,0,7.77-1.22,10.13-3.65,2.36-2.43,3.54-5.55,3.54-9.36v-6.17c-.75.7-2.22,1.26-4.4,1.69-2.18.43-4.72.84-7.61,1.23-3.67.53-6.6,1.4-8.78,2.63-2.18,1.22-3.27,3.16-3.27,5.8s.97,4.47,2.9,5.82c1.93,1.35,4.43,2.02,7.48,2.02Z"/><path class="cls-1" d="M421.87,35.4v26.73h-5.34V18.1h5.25v7.05c1.47-2.67,3.4-4.64,5.8-5.92,2.39-1.28,5.05-1.92,7.96-1.92s5.81.65,8.26,1.96c2.45,1.31,4.39,3.22,5.82,5.75,1.43,2.53,2.15,5.63,2.15,9.3v27.81h-5.38v-27.48c0-3.95-1.05-6.99-3.15-9.13-2.1-2.14-4.96-3.21-8.57-3.21s-6.62,1.1-9.09,3.29c-2.48,2.2-3.71,5.46-3.71,9.8Z"/><path class="cls-1" d="M479.95,63.01c-3.98,0-7.47-.97-10.49-2.92-3.02-1.95-5.37-4.64-7.05-8.09-1.68-3.45-2.52-7.39-2.52-11.84s.84-8.4,2.52-11.86c1.68-3.46,4.03-6.17,7.05-8.13,3.02-1.96,6.51-2.94,10.49-2.94,3.22,0,6.13.65,8.72,1.94,2.59,1.29,4.71,3.09,6.36,5.38,1.65,2.29,2.72,4.93,3.19,7.9h-5.46c-.61-3.06-2.02-5.54-4.23-7.44-2.21-1.9-5.07-2.86-8.57-2.86-4.45,0-8,1.65-10.65,4.96-2.66,3.31-3.98,7.66-3.98,13.05s1.32,9.69,3.96,12.99c2.64,3.29,6.2,4.94,10.67,4.94,3.53,0,6.35-.94,8.46-2.81,2.11-1.88,3.53-4.37,4.25-7.48h5.55c-.47,2.92-1.54,5.53-3.21,7.82-1.67,2.29-3.79,4.1-6.36,5.42-2.57,1.32-5.47,1.98-8.69,1.98Z"/><path class="cls-1" d="M523.69,63.01c-4.14,0-7.71-.99-10.7-2.96-2.99-1.97-5.29-4.68-6.92-8.11-1.62-3.43-2.44-7.36-2.44-11.78s.84-8.36,2.52-11.82c1.68-3.46,4-6.18,6.97-8.15,2.96-1.97,6.37-2.96,10.24-2.96s7.48.97,10.42,2.9c2.95,1.93,5.23,4.6,6.84,8.01,1.61,3.41,2.42,7.3,2.42,11.7v1.67h-34.07c.11,4.89,1.47,8.88,4.09,11.97,2.61,3.09,6.16,4.63,10.63,4.63,3.34,0,6.18-.83,8.53-2.5,2.35-1.67,3.91-3.88,4.69-6.63h5.38c-.58,2.81-1.76,5.27-3.52,7.38-1.76,2.11-3.95,3.75-6.55,4.92-2.6,1.17-5.44,1.75-8.53,1.75ZM509.01,36.78h28.65c-.28-4.42-1.72-7.98-4.34-10.67-2.61-2.7-5.94-4.04-9.97-4.04s-7.3,1.34-9.88,4.02c-2.59,2.68-4.07,6.25-4.46,10.7Z"/><path class="cls-1" d="M588.9,63.01c-3.98,0-7.47-.97-10.49-2.92-3.02-1.95-5.37-4.64-7.05-8.09-1.68-3.45-2.52-7.39-2.52-11.84s.84-8.4,2.52-11.86c1.68-3.46,4.03-6.17,7.05-8.13,3.02-1.96,6.51-2.94,10.49-2.94s7.47.98,10.49,2.94c3.02,1.96,5.37,4.67,7.05,8.13,1.68,3.46,2.52,7.42,2.52,11.86s-.84,8.4-2.52,11.84c-1.68,3.45-4.03,6.14-7.05,8.09-3.02,1.95-6.51,2.92-10.49,2.92ZM588.9,58.09c4.48,0,8.03-1.65,10.67-4.94,2.64-3.29,3.96-7.62,3.96-12.99s-1.32-9.71-3.96-13.03c-2.64-3.32-6.2-4.98-10.67-4.98s-8,1.65-10.65,4.96c-2.66,3.31-3.98,7.66-3.98,13.05s1.32,9.69,3.96,12.99c2.64,3.29,6.2,4.94,10.67,4.94Z"/><path class="cls-1" d="M634.51,18.1v4.71h-9.17v39.32h-5.38V22.81h-7.84v-4.71h7.84v-8.46c0-3,.93-5.36,2.79-7.07,1.86-1.71,4.43-2.56,7.71-2.56h4.04v4.71h-3.59c-2,0-3.43.44-4.29,1.31-.86.88-1.29,2.31-1.29,4.32v7.76h9.17Z"/><path class="cls-1" d="M281.12,81.98v62.13h-9.26v-62.13h9.26Z"/><path class="cls-1" d="M300.38,118.76v25.35h-8.8v-44.03h8.63v6.63c3-5,7.44-7.51,13.3-7.51,3.03,0,5.75.66,8.15,1.98,2.41,1.32,4.3,3.27,5.69,5.86,1.39,2.59,2.08,5.8,2.08,9.63v27.44h-8.8v-26.35c0-3.53-.85-6.19-2.54-7.99-1.7-1.79-4.06-2.69-7.09-2.69s-5.53.92-7.57,2.77c-2.04,1.85-3.07,4.82-3.07,8.9Z"/><path class="cls-1" d="M356.12,144.99c-3.84,0-7.19-.97-10.05-2.9-2.86-1.93-5.09-4.61-6.67-8.05-1.58-3.43-2.38-7.41-2.38-11.95s.8-8.51,2.4-11.95c1.6-3.43,3.83-6.12,6.69-8.05,2.86-1.93,6.18-2.9,9.97-2.9,2.86,0,5.48.6,7.84,1.79,2.36,1.2,4.25,3.02,5.67,5.46h.08v-24.48h8.8v62.13h-8.63v-6.71h-.08c-1.47,2.56-3.4,4.46-5.77,5.71-2.38,1.25-5,1.88-7.86,1.88ZM357.92,137.4c3.75,0,6.75-1.4,8.99-4.19,2.24-2.79,3.36-6.5,3.36-11.11s-1.12-8.36-3.36-11.15c-2.24-2.79-5.23-4.19-8.99-4.19-3.56,0-6.44,1.31-8.65,3.94-2.21,2.63-3.31,6.43-3.31,11.4s1.11,8.77,3.31,11.38c2.21,2.61,5.09,3.92,8.65,3.92Z"/><path class="cls-1" d="M407.04,145.11c-4.37,0-8.11-.99-11.24-2.96-3.13-1.97-5.53-4.69-7.21-8.15-1.68-3.46-2.52-7.4-2.52-11.82s.88-8.45,2.63-11.93c1.75-3.47,4.17-6.21,7.26-8.19,3.09-1.99,6.63-2.98,10.63-2.98s7.79.97,10.86,2.92c3.07,1.95,5.45,4.65,7.15,8.11,1.69,3.46,2.54,7.46,2.54,11.99v2.38h-32.4c.17,3.98,1.31,7.19,3.44,9.63,2.12,2.45,5.12,3.67,8.99,3.67,2.89,0,5.27-.65,7.13-1.96,1.86-1.31,3.1-3,3.71-5.09h8.46c-.53,2.84-1.7,5.34-3.52,7.51-1.82,2.17-4.1,3.86-6.84,5.07-2.74,1.21-5.76,1.81-9.07,1.81ZM394.82,117.8h23.73c-.36-3.5-1.6-6.28-3.71-8.32-2.11-2.04-4.84-3.06-8.17-3.06s-6.05,1.02-8.15,3.06c-2.1,2.04-3.33,4.82-3.69,8.32Z"/><path class="cls-1" d="M434.55,161.54v-61.46h8.63v6.34h.13c1.39-2.42,3.29-4.22,5.71-5.42,2.42-1.2,5.06-1.79,7.92-1.79,3.78,0,7.1.97,9.97,2.9,2.86,1.93,5.09,4.62,6.69,8.05,1.6,3.43,2.4,7.42,2.4,11.95s-.79,8.51-2.38,11.95c-1.58,3.43-3.81,6.12-6.67,8.05-2.86,1.93-6.21,2.9-10.05,2.9-2.86,0-5.45-.63-7.76-1.88-2.31-1.25-4.2-3.13-5.67-5.63h-.13v24.06h-8.8ZM455.11,137.4c3.56,0,6.44-1.31,8.65-3.92,2.21-2.61,3.31-6.41,3.31-11.38s-1.11-8.78-3.31-11.4c-2.21-2.63-5.1-3.94-8.65-3.94-3.75,0-6.75,1.4-8.99,4.19-2.24,2.79-3.36,6.51-3.36,11.15s1.12,8.32,3.36,11.11c2.24,2.79,5.23,4.19,8.99,4.19Z"/><path class="cls-1" d="M502.39,145.11c-4.37,0-8.11-.99-11.24-2.96-3.13-1.97-5.53-4.69-7.21-8.15-1.68-3.46-2.52-7.4-2.52-11.82s.88-8.45,2.63-11.93c1.75-3.47,4.17-6.21,7.26-8.19,3.09-1.99,6.63-2.98,10.63-2.98s7.79.97,10.86,2.92c3.07,1.95,5.45,4.65,7.15,8.11,1.69,3.46,2.54,7.46,2.54,11.99v2.38h-32.4c.17,3.98,1.31,7.19,3.44,9.63,2.12,2.45,5.12,3.67,8.99,3.67,2.89,0,5.27-.65,7.13-1.96,1.86-1.31,3.1-3,3.71-5.09h8.46c-.53,2.84-1.7,5.34-3.52,7.51-1.82,2.17-4.1,3.86-6.84,5.07-2.74,1.21-5.76,1.81-9.07,1.81ZM490.17,117.8h23.73c-.36-3.5-1.6-6.28-3.71-8.32-2.11-2.04-4.84-3.06-8.17-3.06s-6.05,1.02-8.15,3.06c-2.1,2.04-3.33,4.82-3.69,8.32Z"/><path class="cls-1" d="M538.71,118.76v25.35h-8.8v-44.03h8.63v6.63c3-5,7.44-7.51,13.3-7.51,3.03,0,5.75.66,8.15,1.98,2.41,1.32,4.3,3.27,5.69,5.86,1.39,2.59,2.08,5.8,2.08,9.63v27.44h-8.8v-26.35c0-3.53-.85-6.19-2.54-7.99-1.7-1.79-4.06-2.69-7.09-2.69s-5.53.92-7.57,2.77c-2.04,1.85-3.07,4.82-3.07,8.9Z"/><path class="cls-1" d="M594.45,144.99c-3.84,0-7.19-.97-10.05-2.9-2.86-1.93-5.09-4.61-6.67-8.05-1.58-3.43-2.38-7.41-2.38-11.95s.8-8.51,2.4-11.95c1.6-3.43,3.83-6.12,6.69-8.05,2.86-1.93,6.18-2.9,9.97-2.9,2.86,0,5.48.6,7.84,1.79,2.36,1.2,4.25,3.02,5.67,5.46h.08v-24.48h8.8v62.13h-8.63v-6.71h-.08c-1.47,2.56-3.4,4.46-5.77,5.71-2.38,1.25-5,1.88-7.86,1.88ZM596.25,137.4c3.75,0,6.75-1.4,8.99-4.19,2.24-2.79,3.36-6.5,3.36-11.11s-1.12-8.36-3.36-11.15c-2.24-2.79-5.23-4.19-8.99-4.19-3.56,0-6.44,1.31-8.65,3.94-2.21,2.63-3.31,6.43-3.31,11.4s1.11,8.77,3.31,11.38c2.21,2.61,5.09,3.92,8.65,3.92Z"/><path class="cls-1" d="M645.36,145.11c-4.37,0-8.11-.99-11.24-2.96-3.13-1.97-5.53-4.69-7.21-8.15-1.68-3.46-2.52-7.4-2.52-11.82s.88-8.45,2.63-11.93c1.75-3.47,4.17-6.21,7.26-8.19,3.09-1.99,6.63-2.98,10.63-2.98s7.79.97,10.86,2.92c3.07,1.95,5.45,4.65,7.15,8.11,1.69,3.46,2.54,7.46,2.54,11.99v2.38h-32.4c.17,3.98,1.31,7.19,3.44,9.63,2.12,2.45,5.12,3.67,8.99,3.67,2.89,0,5.27-.65,7.13-1.96,1.86-1.31,3.1-3,3.71-5.09h8.46c-.53,2.84-1.7,5.34-3.52,7.51-1.82,2.17-4.1,3.86-6.84,5.07-2.74,1.21-5.76,1.81-9.07,1.81ZM633.15,117.8h23.73c-.36-3.5-1.6-6.28-3.71-8.32-2.11-2.04-4.84-3.06-8.17-3.06s-6.05,1.02-8.15,3.06c-2.1,2.04-3.33,4.82-3.69,8.32Z"/><path class="cls-1" d="M681.68,118.76v25.35h-8.8v-44.03h8.63v6.63c3-5,7.44-7.51,13.3-7.51,3.03,0,5.75.66,8.15,1.98,2.41,1.32,4.3,3.27,5.69,5.86,1.39,2.59,2.08,5.8,2.08,9.63v27.44h-8.8v-26.35c0-3.53-.85-6.19-2.54-7.99-1.7-1.79-4.06-2.69-7.09-2.69s-5.53.92-7.57,2.77c-2.04,1.85-3.07,4.82-3.07,8.9Z"/><path class="cls-1" d="M741.72,100.08v7.26h-8.92v25.14c0,1.64.33,2.78,1,3.42.67.64,1.88.96,3.63.96h4.29v7.26h-5.55c-8.15,0-12.22-3.5-12.22-10.51v-26.27h-7.76v-7.26h7.76v-12.01h8.84v12.01h8.92Z"/><path class="cls-1" d="M267.02,226.1l23.02-62.13h6.55l22.89,62.13h-6l-6.63-18.43h-27.19l-6.71,18.43h-5.92ZM281.49,202.58h23.52l-6.25-17.47c-.78-2.14-1.59-4.46-2.44-6.96-.85-2.5-1.84-5.48-2.98-8.92-1.14,3.45-2.14,6.42-3,8.92-.86,2.5-1.68,4.82-2.46,6.96l-6.38,17.47Z"/><path class="cls-1" d="M341.91,244.03c-5.03,0-9.16-1.16-12.38-3.48-3.23-2.32-5.16-5.58-5.8-9.78h5.5c.67,2.7,2.09,4.78,4.27,6.25,2.18,1.47,4.98,2.21,8.4,2.21,4.36,0,7.76-1.16,10.17-3.48,2.42-2.32,3.63-5.54,3.63-9.65v-8.34h-.04c-1.39,2.86-3.39,5.1-6,6.71-2.61,1.61-5.59,2.42-8.92,2.42-3.78,0-7.11-.95-9.99-2.86-2.88-1.9-5.13-4.57-6.76-8.01-1.62-3.43-2.44-7.41-2.44-11.95s.81-8.51,2.44-11.93c1.63-3.42,3.88-6.09,6.78-8.01,2.89-1.92,6.21-2.88,9.97-2.88,3.31,0,6.31.81,9.01,2.44,2.7,1.63,4.68,3.93,5.96,6.9h.04v-8.55h5.25v44.03c0,4.09-.84,7.46-2.52,10.11-1.68,2.65-3.96,4.62-6.84,5.9-2.88,1.28-6.12,1.92-9.74,1.92ZM341.45,221.97c4.42,0,7.96-1.62,10.61-4.86,2.65-3.24,3.98-7.58,3.98-13.03s-1.33-9.8-3.98-13.05c-2.66-3.25-6.19-4.88-10.61-4.88-4.17,0-7.62,1.56-10.36,4.67-2.74,3.11-4.11,7.53-4.11,13.26s1.37,10.14,4.11,13.24c2.74,3.1,6.19,4.65,10.36,4.65Z"/><path class="cls-1" d="M389.19,226.97c-4.14,0-7.71-.99-10.7-2.96-2.99-1.97-5.29-4.68-6.92-8.11-1.62-3.43-2.44-7.36-2.44-11.78s.84-8.36,2.52-11.82c1.68-3.46,4-6.18,6.97-8.15,2.96-1.97,6.37-2.96,10.24-2.96s7.48.97,10.42,2.9c2.95,1.93,5.23,4.6,6.84,8.01,1.61,3.41,2.42,7.3,2.42,11.7v1.67h-34.07c.11,4.89,1.47,8.88,4.09,11.97,2.61,3.09,6.16,4.63,10.63,4.63,3.34,0,6.18-.83,8.53-2.5,2.35-1.67,3.91-3.88,4.69-6.63h5.38c-.58,2.81-1.76,5.27-3.52,7.38-1.76,2.11-3.95,3.75-6.55,4.92-2.6,1.17-5.44,1.75-8.53,1.75ZM374.51,200.74h28.65c-.28-4.42-1.72-7.98-4.34-10.67-2.61-2.7-5.94-4.04-9.97-4.04s-7.3,1.34-9.88,4.02c-2.59,2.68-4.07,6.25-4.46,10.7Z"/><path class="cls-1" d="M421.84,199.37v26.73h-5.34v-44.03h5.25v7.05c1.47-2.67,3.4-4.64,5.8-5.92,2.39-1.28,5.05-1.92,7.96-1.92s5.81.65,8.26,1.96c2.45,1.31,4.39,3.22,5.82,5.75,1.43,2.53,2.15,5.63,2.15,9.3v27.81h-5.38v-27.48c0-3.95-1.05-6.99-3.15-9.13-2.1-2.14-4.96-3.21-8.57-3.21s-6.62,1.1-9.09,3.29c-2.48,2.2-3.71,5.46-3.71,9.8Z"/><path class="cls-1" d="M479.92,226.97c-3.98,0-7.47-.97-10.49-2.92-3.02-1.95-5.37-4.64-7.05-8.09-1.68-3.45-2.52-7.39-2.52-11.84s.84-8.4,2.52-11.86c1.68-3.46,4.03-6.17,7.05-8.13,3.02-1.96,6.51-2.94,10.49-2.94,3.22,0,6.13.65,8.72,1.94s4.71,3.09,6.36,5.38c1.65,2.29,2.72,4.93,3.19,7.9h-5.46c-.61-3.06-2.02-5.54-4.23-7.44-2.21-1.9-5.07-2.86-8.57-2.86-4.45,0-8,1.65-10.65,4.96-2.66,3.31-3.98,7.66-3.98,13.05s1.32,9.69,3.96,12.99c2.64,3.29,6.2,4.94,10.67,4.94,3.53,0,6.35-.94,8.46-2.81,2.11-1.88,3.53-4.37,4.25-7.48h5.55c-.47,2.92-1.54,5.53-3.21,7.82-1.67,2.29-3.79,4.1-6.36,5.42-2.57,1.32-5.47,1.98-8.69,1.98Z"/><path class="cls-1" d="M508.73,172.51c-1.06,0-1.97-.38-2.73-1.13-.77-.75-1.15-1.67-1.15-2.75s.38-2,1.15-2.75c.76-.75,1.67-1.13,2.73-1.13s1.97.38,2.73,1.13c.77.75,1.15,1.67,1.15,2.75s-.38,2-1.15,2.75c-.76.75-1.67,1.13-2.73,1.13ZM506.06,226.1v-44.03h5.34v44.03h-5.34Z"/><path class="cls-1" d="M539.58,226.97c-4.14,0-7.71-.99-10.7-2.96-2.99-1.97-5.29-4.68-6.92-8.11-1.62-3.43-2.44-7.36-2.44-11.78s.84-8.36,2.52-11.82c1.68-3.46,4-6.18,6.97-8.15,2.96-1.97,6.37-2.96,10.24-2.96s7.48.97,10.42,2.9c2.95,1.93,5.23,4.6,6.84,8.01,1.61,3.41,2.42,7.3,2.42,11.7v1.67h-34.07c.11,4.89,1.47,8.88,4.09,11.97,2.61,3.09,6.16,4.63,10.63,4.63,3.34,0,6.18-.83,8.53-2.5,2.35-1.67,3.91-3.88,4.69-6.63h5.38c-.58,2.81-1.76,5.27-3.52,7.38-1.76,2.11-3.95,3.75-6.55,4.92-2.6,1.17-5.44,1.75-8.53,1.75ZM524.91,200.74h28.65c-.28-4.42-1.72-7.98-4.34-10.67-2.61-2.7-5.94-4.04-9.97-4.04s-7.3,1.34-9.88,4.02c-2.59,2.68-4.07,6.25-4.46,10.7Z"/><path class="cls-1" d="M581.65,226.97c-4.75,0-8.7-1.2-11.84-3.59-3.14-2.39-4.84-5.88-5.09-10.47h5.34c.22,2.95,1.31,5.24,3.27,6.88,1.96,1.64,4.69,2.46,8.19,2.46s6.17-.76,8.17-2.27c2-1.51,3-3.47,3-5.86,0-1.92-.68-3.39-2.04-4.42-1.36-1.03-3.23-1.81-5.59-2.34l-7.26-1.71c-3.98-.94-6.99-2.38-9.05-4.29-2.06-1.92-3.09-4.43-3.09-7.55,0-3.72,1.45-6.76,4.36-9.11,2.91-2.35,6.68-3.52,11.32-3.52s8.26,1.25,11.18,3.75,4.48,5.94,4.67,10.3h-5.25c-.14-2.86-1.14-5.14-3-6.82-1.86-1.68-4.39-2.52-7.59-2.52s-5.64.75-7.51,2.25c-1.86,1.5-2.79,3.39-2.79,5.67,0,1.92.69,3.43,2.06,4.52,1.38,1.1,3.32,1.94,5.82,2.52l7.3,1.71c3.97.95,6.94,2.32,8.9,4.13,1.96,1.81,2.94,4.25,2.94,7.34,0,3.98-1.54,7.12-4.63,9.44-3.09,2.32-7.02,3.48-11.8,3.48Z"/></g></svg>