<svg xmlns="http://www.w3.org/2000/svg" viewBox="0 0 66.8 63.4"><style>.st0{display:none}.st1{display:inline;fill:#0f3f76}.st2{display:none;fill:#217fb8}.st11,.st8{fill:#fff}.st11{fill-rule:evenodd;clip-rule:evenodd}</style><g id="Layer_1"><g class="st0"><path class="st1" d="M99.2 50.5H116v2.2h-14.6v9.7h12.3v2.2h-12.3v6.9h-2.2v-21zM118.8 71.6V50.5h2.2v21.2h-2.2zM124.7 67.8l1.9-1c.2.5.5.9.9 1.3.3.4.7.8 1.1 1.1.4.3.9.6 1.5.7.6.2 1.3.3 2 .3.6 0 1.2-.1 1.8-.3.6-.2 1-.4 1.4-.7.4-.3.7-.7 1-1.2.2-.5.3-1 .3-1.6 0-1.1-.3-2-1-2.6-.7-.7-1.7-1.3-3.1-1.9l-1.7-.8c-.8-.4-1.4-.7-2-1.1-.6-.4-1.1-.8-1.5-1.3-.4-.5-.7-1-.9-1.6-.2-.6-.3-1.3-.3-2 0-.8.1-1.5.4-2.1.3-.6.7-1.2 1.2-1.6.5-.5 1.1-.8 1.8-1.1.7-.3 1.5-.4 2.3-.4 1.5 0 2.6.3 3.6.9.9.6 1.7 1.4 2.3 2.4l-1.8 1.1c-.4-.7-.9-1.2-1.6-1.7-.6-.5-1.4-.7-2.5-.7s-1.9.3-2.5.8c-.6.6-.9 1.3-.9 2.2 0 .5.1.9.2 1.3s.3.7.6 1c.3.3.6.6 1.1.8.4.3 1 .5 1.6.8l1.7.8c.9.4 1.7.8 2.4 1.3.7.4 1.2.9 1.7 1.5.5.5.8 1.1 1 1.8.2.6.3 1.4.3 2.2 0 .9-.2 1.7-.5 2.4s-.8 1.3-1.4 1.8c-.6.5-1.3.9-2.1 1.1-.8.3-1.7.4-2.7.4-1 0-2-.1-2.8-.4-.8-.2-1.5-.6-2.1-1-.6-.4-1.2-.9-1.6-1.4-.5-.4-.9-.9-1.1-1.5zM160.5 50.5v21.2h-2.2v-7.9h-13.4v7.9h-2.2V50.5h2.2v11h13.4v-11h2.2zM166.8 52.7v8.8h12.3v2.2h-12.3v5.7h14.6v2.2h-16.8V50.5h16.8v2.2h-14.6zM200.9 50.5L193.6 64v7.6h-2.3v-7.5l-7.5-13.6h2.5l5.3 9.6c.1.2.2.4.3.7.1.2.2.5.3.7.1.3.2.5.3.8.1-.3.2-.5.3-.8.1-.2.2-.5.3-.7.1-.2.2-.5.3-.7l5.2-9.6h2.3zM206.4 52.7v8.8h12.3v2.2h-12.3v5.7H221v2.2h-16.8V50.5H221v2.2h-14.6z"/></g><path class="st2" d="M99.1 86.6l1-.5c.1.2.3.5.5.7l.6.6c.2.2.5.3.8.4.3.1.7.1 1.1.1.3 0 .6 0 .9-.1.3-.1.5-.2.8-.4.2-.2.4-.4.5-.6.1-.2.2-.5.2-.8 0-.6-.2-1-.5-1.4-.4-.3-.9-.7-1.6-1l-.9-.4c-.4-.2-.8-.4-1.1-.6-.3-.2-.6-.4-.8-.7-.2-.2-.4-.5-.5-.8-.1-.3-.2-.7-.2-1.1 0-.4.1-.8.2-1.1l.6-.9.9-.6c.4-.1.8-.2 1.2-.2.8 0 1.4.2 1.9.5s.9.7 1.2 1.2l-1 .6c-.2-.4-.5-.6-.8-.9-.3-.2-.8-.4-1.3-.4-.6 0-1 .1-1.3.4-.3.3-.5.7-.5 1.2 0 .3 0 .5.1.7.1.2.2.4.3.5.1.2.3.3.6.4.2.1.5.3.8.4l.9.4c.5.2.9.4 1.3.7.4.2.7.5.9.8.2.3.4.6.5.9.1.3.2.7.2 1.1 0 .5-.1.9-.3 1.3-.2.4-.4.7-.7 1-.3.3-.7.5-1.1.6-.4.1-.9.2-1.4.2-.6 0-1-.1-1.5-.2-.4-.1-.8-.3-1.1-.5-.3-.2-.6-.5-.8-.7-.3-.2-.5-.5-.6-.8zM124.4 83c0 .7-.1 1.3-.3 1.9-.2.6-.5 1.2-.9 1.7-.3.4-.6.7-.9.9-.4.3-.7.5-1.1.7 0 0-.1 0-.1.1 0 0-.1 0-.1.1-.6.3-1.3.4-2 .5h-.1-.5-.1-.1c-.3 0-.6-.1-.9-.1l-.9-.3h-.1-.1s-.1 0-.1-.1c0 0-.1 0-.1-.1-.4-.2-.8-.4-1.1-.7-.3-.3-.7-.6-.9-.9-.4-.5-.7-1.1-.9-1.7-.2-.6-.3-1.2-.3-1.9s.1-1.4.4-2c.2-.6.6-1.2 1.1-1.8l.9-.9c.3-.2.7-.5 1.1-.6h.4c.1 0 .3-.1.4-.1.1 0 .3-.1.4-.1H120c.1 0 .2 0 .3.1.1 0 .2.1.3.1h.6c.4.2.7.4 1.1.6.3.2.7.5.9.9.5.5.8 1.1 1.1 1.8-.1.6.1 1.2.1 1.9zm-5.8 4.7c.6 0 1.2-.2 1.8-.4.6-.3 1.1-.6 1.5-1 .4-.4.7-.9 1-1.4.2-.5.4-1.1.4-1.8 0-.6-.1-1.2-.4-1.8-.2-.6-.6-1-1-1.5-.4-.4-.9-.8-1.5-1-.6-.3-1.2-.4-1.8-.4h-.5c-.6 0-1.2.2-1.8.4-.6.3-1.1.6-1.5 1-.4.4-.8.9-1 1.5-.2.6-.4 1.1-.4 1.8 0 .6.1 1.2.4 1.8.2.5.6 1 1 1.4.4.4.9.8 1.5 1 .6.3 1.2.4 1.8.4h.5c-.1 0 0 0 0 0zM130.3 88.6V77.5h1.1v10h7.3v1.1h-8.4zM152.2 86.1c-.2.5-.5.9-.9 1.3s-.8.7-1.3.9c-.5.2-1 .4-1.6.4h-.1-.1-.1-.1c-.6 0-1.1-.1-1.6-.4-.5-.2-.9-.5-1.3-.9s-.7-.8-.9-1.3c-.2-.5-.3-1-.3-1.6v-7.1h1.2v7c0 .5.1 1 .3 1.4.3.5.6.9 1.1 1.2.5.3 1 .4 1.6.4.6 0 1.1-.1 1.6-.4.5-.3.8-.7 1.1-1.2.2-.4.3-.9.3-1.4v-7h1.2v7.1c.2.6.1 1.1-.1 1.6zM168.1 78.6h-4.4v9.9h-1.2v-9.9H158v-1.2h10v1.2zM173.7 88.6V77.5h1.2v11.1h-1.2zM192.9 83c0 .7-.1 1.3-.3 1.9-.2.6-.5 1.2-.9 1.7-.3.4-.6.7-.9.9-.3.3-.7.5-1.1.7 0 0-.1 0-.1.1 0 0-.1 0-.1.1-.6.3-1.3.4-2 .5h-.1-.7-.1-.1c-.3 0-.6-.1-.9-.1l-.9-.3h-.1-.1s-.1 0-.1-.1c0 0-.1 0-.1-.1-.4-.2-.8-.4-1.1-.7-.3-.3-.7-.6-.9-.9-.4-.5-.7-1.1-.9-1.7-.2-.6-.3-1.2-.3-1.9s.1-1.4.4-2c.2-.6.6-1.2 1.1-1.8l.9-.9c.3-.2.7-.5 1.1-.6h.4c.1 0 .3-.1.4-.1.1 0 .3-.1.4-.1H188.2c.1 0 .2 0 .3.1.1 0 .2.1.3.1h.6c.4.2.7.4 1.1.6.3.2.7.5.9.9.5.5.8 1.1 1.1 1.8.3.6.4 1.3.4 1.9zm-5.8 4.7c.6 0 1.3-.2 1.8-.4.6-.3 1.1-.6 1.5-1 .4-.4.7-.9 1-1.4.2-.5.4-1.1.4-1.8 0-.6-.1-1.2-.4-1.8-.2-.6-.6-1-1-1.5-.4-.4-.9-.8-1.5-1-.6-.3-1.2-.4-1.8-.4h-.5c-.6 0-1.2.2-1.8.4-.6.3-1.1.6-1.5 1-.4.4-.7.9-1 1.5-.2.6-.4 1.1-.4 1.8 0 .6.1 1.2.4 1.8.2.5.6 1 1 1.4.4.4.9.8 1.5 1 .6.3 1.2.4 1.8.4h.5zM207.6 77.5v11.1h-1.2v-4.4c-.9-1.9-2.2-3.3-3.9-4.3-.5-.3-1-.5-1.4-.7-.4-.2-.8-.3-1.1-.4v9.8h-1.2V77.5H199.7c.2 0 .5.1.8.2.3.1.7.2 1.2.4.4.2.9.4 1.4.7 1.1.7 2.1 1.5 3 2.6l.2.2c.1.1.1.2.2.2v-4.5h1.1zM213.5 86.6l1-.5c.1.2.3.5.5.7l.6.6c.2.2.5.3.8.4.3.1.7.1 1.1.1.3 0 .6 0 .9-.1.3-.1.5-.2.8-.4.2-.2.4-.4.5-.6.1-.2.2-.5.2-.8 0-.6-.2-1-.5-1.4-.4-.3-.9-.7-1.6-1l-.9-.4c-.4-.2-.8-.4-1.1-.6-.3-.2-.6-.4-.8-.7-.2-.2-.4-.5-.5-.8-.1-.3-.2-.7-.2-1.1 0-.4.1-.8.2-1.1l.6-.9.9-.6c.4-.1.8-.2 1.2-.2.8 0 1.4.2 1.9.5s.9.7 1.2 1.2l-1 .6c-.2-.4-.5-.6-.8-.9-.3-.2-.8-.4-1.3-.4-.6 0-1 .1-1.3.4-.3.3-.5.7-.5 1.2 0 .3 0 .5.1.7.1.2.2.4.3.5.1.2.3.3.6.4.2.1.5.3.8.4l.9.4c.5.2.9.4 1.2.7.4.2.7.5.9.8.2.3.4.6.5.9.1.3.2.7.2 1.1 0 .5-.1.9-.3 1.3-.2.4-.4.7-.7 1-.3.3-.7.5-1.1.6-.4.1-.9.2-1.4.2-.6 0-1-.1-1.5-.2-.4-.1-.8-.3-1.1-.5-.3-.2-.6-.5-.8-.7-.2-.2-.4-.5-.5-.8z"/><path d="M4 22.4c1.1-.1 2.3-1 3.2-1.8 2.1-2 2.5-1.6 3.7-3.6 1.6-1.6 1.1-1.8 2.5-4.3.6-1.1 1.1-2.5 1-3.6-.1-1-.5-1.7-1-2.7 1.8 1.2 2.4 2.9 2.8 4.6.5 1.8.2 5 0 7 .8 3.4 3.7 2.5 4.3 2.2.2-.3.4-.5.6-.8l.3-.3c3.4-3.8 8.4-7 15.7-8.6 3.3-.7 6.4-.6 9.4.2.3-.7.6-1.6.7-2.6.5-3.5-1.2-6.3-1.9-7.3 1.3.9 3.5 2.7 5.2 5.7 1.8 3 2.3 5.7 2.4 7.3 0 0-.1.1-.3.2.1-.1.2-.1.3-.2 13.5 9.3 19.5 33.2 8.5 44.1-.9.4-3.9 1.7-7.3 1.3-3.8-.5-4.4-.9-4.4-.9s1.6 1.6 7.6 2.4h.3c-3.4 1.9-7.7 2.9-13.1 2.7-4.7-.2-8.6-.5-11.9-1.2-.2 0-.3-.1-.5-.1-.7-.2-1.5-.4-2.1-.6-1.1-.3-2.1-.8-3.1-1.3-.6.4-1.3.9-2.3 1.3-1.3.6-2.5.8-3.3.9.4-.5.9-1.5 1.2-2.8.2-.9.2-1.7.1-2.2-5-4.1-8.1-10.2-8.4-16.9 0-1.4 0-3 .2-4.6.1-.4.1-.7.2-1.1h-.1c.3-2.6.9-5.3 2-8 .1-.2.1-.4.2-.6 0 0 0-.1.1-.2.1-1.4.1-5-3.8-4.3-1.9.6-5 1.6-6.9 1.6-1.8 0-3.6-.2-5.2-1.6 1.3.6 2.1.8 3.1.7z" fill="#0f3f76"/><path d="M62.9 27.4s9.6 26.6-15 33.3C23.2 67.5.9 19.6 35.6 16.1c25.6-2.5 27.3 11.3 27.3 11.3z" opacity=".3" fill="#005b9e"/><path d="M64 37.4S62 63.6 38.5 60C15 56.3 14.3 7.1 45.1 17.5 67.7 25.1 64 37.4 64 37.4z" opacity=".3" fill="#0074bc"/><path d="M50.6 18.8S72.8 32.3 59 51.3c-13.8 19-57.3-2.4-34.4-24.9 16.8-16.4 26-7.6 26-7.6z" opacity=".3" fill="#5da9dd"/><path d="M41.7 16.8S66.3 18 63.5 40.1c-2.8 22.1-48.9 24.1-40-5.1 6.6-21.4 18.2-18.2 18.2-18.2z" opacity=".2" fill="#5da9dd"/><g><path class="st8" d="M62.8 42.4s.9-17.8-14.6-20.1C32.7 20 28 44.6 36.2 50.1c8.1 5.5 25.3 3.3 26.6-7.7z"/><path d="M40.7 38.1c-1 5.9 1.3 9.8 6.4 11.3 6.8 2 13.4-1.3 14.3-7.2.9-6.1-2.1-12.2-8.3-13.3-5.6-.9-11.4 3.3-12.4 9.2z" fill="#2b83bb"/><path d="M45.9 38.7c-.7 3.9 2.5 6 5.7 7.3 3.5 1.4 7.3-1.1 7.4-5 .1-4.1-.8-7.5-4.9-8.2-3.6-.5-7.5 2-8.2 5.9z" fill="#231f20"/><path class="st8" d="M55.5 37.6s2.3.3 2.7-1.7c.4-2-2.7-2.8-3.5-1.8-.7 1-.6 3.2.8 3.5z"/></g><g><path class="st11" d="M20.8 43.7c-.2.9.4 1.7 1.3 1.9.9.2 1.7-.4 1.9-1.3.2-.9-.4-1.7-1.3-1.9-.9-.1-1.8.5-1.9 1.3zM21.7 41c-.1.3.1.6.5.7.3.1.6-.1.7-.5.1-.3-.1-.6-.5-.7-.3 0-.6.2-.7.5z"/></g></g><path d="M806.1 186s-3.4-.6-9.1-1.2c-6.9-.7-17.1-1.3-29-.8-3 .1-6.2.3-9.4.6-4 .4-8.2.9-12.4 1.6-.9.1-1.7.3-2.6.4-2.5.4-4.9.8-7.2 1.1-14.7 1.9-27 1.5-35.6.6-8.3-.9-13.1-2.2-13.1-2.2" fill="none" stroke="#000" stroke-width="2" stroke-miterlimit="10" id="Layer_2"/></svg>