<?xml version="1.0" encoding="UTF-8"?>
<svg id="Layer_2" data-name="Layer 2" xmlns="http://www.w3.org/2000/svg" viewBox="0 0 539.3 145.28">
  <defs>
    <style>
      .cls-1 {
        fill: #aa2627;
      }

      .cls-1, .cls-2 {
        stroke-width: 0px;
      }

      .cls-2 {
        fill: #efbe22;
      }
    </style>
  </defs>
  <g id="Layer_1-2" data-name="Layer 1">
    <g>
      <path class="cls-1" d="M49.38,35.9h-.97c-8.44,9.67-14.67,20.5-18.4,31.9h29.88c-2.77-13.86-5.81-23.24-10.51-31.9M87,115.72h-23.93c1.53-4.48,1.8-6.64,1.8-11.84,0-6.34-.56-12.7-1.8-19.34H25.18c-1.94,6.35-3.05,13.71-3.05,20.93,0,3.61.28,5.92.97,10.25H0v-3.61c0-17.03,5.25-37.82,13.41-53.4,4.15-8.08,8.58-14.44,16.74-24.25-7.34,0-11.76.72-20.75,3.03,3.59-6.2,6.08-11.69,8.16-18.33,2.49.29,1.24.29,11.76.29h30.01c8.17,12.7,13.84,24.39,18.26,37.53,5.39,15.73,9.55,40.56,9.55,55.56,0,.29,0,1.59-.14,3.18"/>
      <path class="cls-1" d="M298.91,115.01c-.41-.57-.83-1.14-1.11-1.42-1.66-2.13-2.07-2.84-3.04-4.54-7.33,4.82-13.97,6.67-23.93,6.67-26.42,0-39.98-13.75-39.98-40.55,0-9.65,1.11-19.85,4.01-37,1.11-6.52,1.52-10.08,1.52-12.76,0-1.99-.14-3.27-.69-6.24h26.83c-7.2,17.16-11.2,36.59-11.2,53.88s6.92,24.67,21.85,24.67c7.47,0,13.42-2.13,18.95-6.66v-51.33c0-10.78-.83-14.89-4.01-20.56h29.32c-3.18,5.67-4.01,9.78-4.01,20.56v47.78c0,12.61,1.66,17.73,7.19,22.54l-21.72,4.96Z"/>
      <path class="cls-1" d="M361.98,40.15v54.42c0,11.88.56,15.06,3.73,21.14h-28.77c3.18-6.08,3.74-9.26,3.74-21.14v-54.42c0-11-.84-15.2-4.02-20.99h29.32c-3.18,5.93-4.01,9.99-4.01,20.99"/>
      <path class="cls-1" d="M440.41,110.07c-.83,5.36-1.38,5.65-6.37,5.65-.83,0-4.15,0-7.61-.14-4.83-.15-9.82-.15-12.44-.15-10.38,0-19.5.15-29.19.29,3.18-6.08,3.74-9.41,3.74-21.14v-54.43c0-11-.83-15.06-4.02-20.99h29.33c-3.18,5.93-4.01,10.14-4.01,20.99v57.76h20.88c4.98,0,7.47-.43,12.04-2.03l-2.36,14.18Z"/>
      <path class="cls-1" d="M501.54,35.9h-.97c-8.44,9.67-14.67,20.5-18.4,31.9h29.88c-2.77-13.86-5.81-23.24-10.51-31.9M539.16,115.72h-23.93c1.53-4.48,1.8-6.64,1.8-11.84,0-6.34-.55-12.7-1.8-19.34h-37.9c-1.94,6.35-3.04,13.71-3.04,20.93,0,3.61.27,5.92.96,10.25h-23.09v-3.61c0-17.03,5.25-37.82,13.41-53.4,4.16-8.08,8.58-14.44,16.74-24.25-7.33,0-11.76.72-20.75,3.03,3.59-6.2,6.08-11.69,8.16-18.33,2.49.29,1.24.29,11.76.29h30c8.17,12.7,13.84,24.39,18.26,37.53,5.4,15.73,9.55,40.56,9.55,55.56,0,.29,0,1.59-.14,3.18"/>
      <path class="cls-2" d="M166.05,122.57c-11.95,1.12-23.8-11.69-24.31-22.56-.51-10.83,1.4-20.21,11.92-25.4,3.99-1.95,9.94-1.82,13.99-1.32,3.71.46,4.38,3.93,6.42,4.56,2.01.6,1.98.56,2.52,2.31,1.34-6.64-2.52-10.54-3.9-11.76,1.66,1.12,6.93,5.48,4.25,13.84,2.04-3.07,6.23-12.09-5.46-21.96,0,0,.9-3.83-1.92-8.32-4.73-7.5-16.61-16.32-37.06-8.55.25-.86,4.86-14.63,23.96-20.41,15.94-4.82,50.45,16.05,50.38,51.99-.06,35.9-30.77,46.64-40.8,47.6M248.51,129.74c-62.84,7.33-66.77-.03-66.77-.03,0,0,29.33-13.25,33.87-46.77,6.23-45.81-34.76-64.44-34.76-64.44,10.73-1.32,28.27,7.17,29.49,7.76-32.24-23.29-54.15-17.34-54.15-17.34,3.32-5.32,12.62-8.92,12.62-8.92-27.19.63-44.09,19.36-44.09,19.36,1.28-3.93,5.91-8.98,5.91-8.98,0,0-29.94,12.29-32.65,51.29,19.3-9.58,38.43-15.09,52.75-13.11,7.8,1.09,16.77,2.41,20.77,8.69,0,0-1.05-.96-3.04-2.05.03.1.03.2.03.3,0,1.12-.89,2.08-2.01,2.08s-2.01-.96-2.01-2.08c0-.79.42-1.49,1.02-1.85-1.92-.86-4.28-1.68-7.03-2.21-13.1-2.64-34.25-1.09-52.78,17.21-2.91,2.87-5.34,5.81-7.35,8.75.13,1.35.32,2.74.51,4.16.41-.53.83-1.09,1.31-1.72,9.62-12.62,27.35-21.37,28.43-21.9-17.89,15.33-25.21,25.4-28.11,31.61,13.13,49.08,79.33,54.2,79.33,54.2-3.58-1.22-8.98-4.89-9.65-5.35,43.13,11.66,55.3,4.99,55.3,4.99-33.48-1.68-39.77-6.31-39.77-6.31,9.52,2.08,62.84-7.33,62.84-7.33"/>
    </g>
  </g>
</svg>